  0
SECTION
  2
HEADER
  9
$ANGBASE
  50
0.0
  9
$ANGDIR
  70
1
  9
$MEASUREMENT
  70
0
  0
ENDSEC
  0
SECTION
  2
TABLES
  0
TABLE
  2
LTYPE
  70
4
  0
LTYPE
  5
40F
  2
CONTINUOUS
  70
0
  3
Solid line
  72
65
  73
0
  40
0.0
  0
LTYPE
  5
410
  2
DASHDOT
 70
0
  3
Dash Dot ____ _ ____ _
 72
65
 73
4
 40
2.0
 49
1.25
 49
-0.25
 49
0.25
 49
-0.25
  0
LTYPE
  5
411
  2
DASHED
 70
0
  3
Dashed __ __ __ __ __
 72
65
 73
2
 40
0.75
 49
0.5
 49
-0.25
  0
LTYPE
  5
43B
  2
DOTTED
 70
0
  3
Dotted .  .  .  .
 72
65
 73
2
 40
0.2
 49
0.0
 49
-0.2
  0
ENDTAB
  0
TABLE
  2
STYLE
  70
4
  0
STYLE
  2
KICAD
  70
0
  40
0
  41
1
  42
1
  50
0
  71
0
  3
isocp.shx
  0
STYLE
  2
KICADB
  70
0
  40
0
  41
1
  42
1
  50
0
  71
0
  3
isocp.shx
  0
STYLE
  2
KICADI
  70
0
  40
0
  41
1
  42
1
  50
15
  71
0
  3
isocp.shx
  0
STYLE
  2
KICADBI
  70
0
  40
0
  41
1
  42
1
  50
15
  71
0
  3
isocp.shx
  0
ENDTAB
  0
TABLE
  2
LAYER
  70
1
  0
LAYER
  2
BLACK
  70
0
  62
7
  6
CONTINUOUS
  0
ENDTAB
  0
ENDSEC
  0
SECTION
  2
ENTITIES
0
LINE
8
BLACK
6
CONTINUOUS
10
0.2140627559055118
20
0.3248102362204724
11
0.2279486220472441
21
0.3224509448818897
0
LINE
8
BLACK
6
CONTINUOUS
10
0.2279486220472441
20
0.3224509448818897
11
0.241483031496063
21
0.3185517322834646
0
LINE
8
BLACK
6
CONTINUOUS
10
0.241483031496063
20
0.3185517322834646
11
0.2544957874015748
21
0.3131616929133858
0
LINE
8
BLACK
6
CONTINUOUS
10
0.2544957874015748
20
0.3131616929133858
11
0.2668232283464567
21
0.3063485433070866
0
LINE
8
BLACK
6
CONTINUOUS
10
0.2668232283464567
20
0.3063485433070866
11
0.2783103149606299
21
0.298198031496063
0
LINE
8
BLACK
6
CONTINUOUS
10
0.2783103149606299
20
0.298198031496063
11
0.2888125984251969
21
0.2888125984251969
0
LINE
8
BLACK
6
CONTINUOUS
10
0.2888125984251969
20
0.2888125984251969
11
0.298198031496063
21
0.2783103149606299
0
LINE
8
BLACK
6
CONTINUOUS
10
0.298198031496063
20
0.2783103149606299
11
0.3063485433070866
21
0.2668232283464567
0
LINE
8
BLACK
6
CONTINUOUS
10
0.3063485433070866
20
0.2668232283464567
11
0.3131616929133858
21
0.2544957874015748
0
LINE
8
BLACK
6
CONTINUOUS
10
0.3131616929133858
20
0.2544957874015748
11
0.3185517322834646
21
0.241483031496063
0
LINE
8
BLACK
6
CONTINUOUS
10
0.3185517322834646
20
0.241483031496063
11
0.3224509448818897
21
0.2279486220472441
0
LINE
8
BLACK
6
CONTINUOUS
10
0.3224509448818897
20
0.2279486220472441
11
0.3248102362204724
21
0.2140627559055118
0
LINE
8
BLACK
6
CONTINUOUS
10
0.3248102362204724
20
0.2140627559055118
11
0.3256
21
0.2
0
LINE
8
BLACK
6
CONTINUOUS
10
0.3256
20
0.2
11
0.3248102362204724
21
0.1859372440944882
0
LINE
8
BLACK
6
CONTINUOUS
10
0.3248102362204724
20
0.1859372440944882
11
0.3224509448818897
21
0.1720513779527559
0
LINE
8
BLACK
6
CONTINUOUS
10
0.3224509448818897
20
0.1720513779527559
11
0.3185517322834646
21
0.158516968503937
0
LINE
8
BLACK
6
CONTINUOUS
10
0.3185517322834646
20
0.158516968503937
11
0.3131616929133858
21
0.1455042125984252
0
LINE
8
BLACK
6
CONTINUOUS
10
0.3131616929133858
20
0.1455042125984252
11
0.3063485433070866
21
0.1331767716535433
0
LINE
8
BLACK
6
CONTINUOUS
10
0.3063485433070866
20
0.1331767716535433
11
0.298198031496063
21
0.1216896850393701
0
LINE
8
BLACK
6
CONTINUOUS
10
0.298198031496063
20
0.1216896850393701
11
0.2888125984251969
21
0.1111874015748031
0
LINE
8
BLACK
6
CONTINUOUS
10
0.2888125984251969
20
0.1111874015748031
11
0.2783103149606299
21
0.101801968503937
0
LINE
8
BLACK
6
CONTINUOUS
10
0.2783103149606299
20
0.101801968503937
11
0.2668232283464567
21
0.0936514566929134
0
LINE
8
BLACK
6
CONTINUOUS
10
0.2668232283464567
20
0.0936514566929134
11
0.2544957874015748
21
0.0868383070866142
0
LINE
8
BLACK
6
CONTINUOUS
10
0.2544957874015748
20
0.0868383070866142
11
0.241483031496063
21
0.0814482677165354
0
LINE
8
BLACK
6
CONTINUOUS
10
0.241483031496063
20
0.0814482677165354
11
0.2279486220472441
21
0.0775490551181102
0
LINE
8
BLACK
6
CONTINUOUS
10
0.2279486220472441
20
0.0775490551181102
11
0.2140627559055118
21
0.0751897637795276
0
LINE
8
BLACK
6
CONTINUOUS
10
0.2140627559055118
20
0.0751897637795276
11
0.2
21
0.0744
0
LINE
8
BLACK
6
CONTINUOUS
10
0.2
20
0.0744
11
0.1859372440944882
21
0.0751897637795276
0
LINE
8
BLACK
6
CONTINUOUS
10
0.1859372440944882
20
0.0751897637795276
11
0.1720513779527559
21
0.0775490551181102
0
LINE
8
BLACK
6
CONTINUOUS
10
0.1720513779527559
20
0.0775490551181102
11
0.158516968503937
21
0.0814482677165354
0
LINE
8
BLACK
6
CONTINUOUS
10
0.158516968503937
20
0.0814482677165354
11
0.1455042125984252
21
0.0868383070866142
0
LINE
8
BLACK
6
CONTINUOUS
10
0.1455042125984252
20
0.0868383070866142
11
0.1331767716535433
21
0.0936514566929134
0
LINE
8
BLACK
6
CONTINUOUS
10
0.1331767716535433
20
0.0936514566929134
11
0.1216896850393701
21
0.101801968503937
0
LINE
8
BLACK
6
CONTINUOUS
10
0.1216896850393701
20
0.101801968503937
11
0.1111874015748031
21
0.1111874015748031
0
LINE
8
BLACK
6
CONTINUOUS
10
0.1111874015748031
20
0.1111874015748031
11
0.101801968503937
21
0.1216896850393701
0
LINE
8
BLACK
6
CONTINUOUS
10
0.101801968503937
20
0.1216896850393701
11
0.0936514566929134
21
0.1331767716535433
0
LINE
8
BLACK
6
CONTINUOUS
10
0.0936514566929134
20
0.1331767716535433
11
0.0868383070866142
21
0.1455042125984252
0
LINE
8
BLACK
6
CONTINUOUS
10
0.0868383070866142
20
0.1455042125984252
11
0.0814482677165354
21
0.158516968503937
0
LINE
8
BLACK
6
CONTINUOUS
10
0.0814482677165354
20
0.158516968503937
11
0.0775490551181102
21
0.1720513779527559
0
LINE
8
BLACK
6
CONTINUOUS
10
0.0775490551181102
20
0.1720513779527559
11
0.0751897637795276
21
0.1859372440944882
0
LINE
8
BLACK
6
CONTINUOUS
10
0.0751897637795276
20
0.1859372440944882
11
0.0744
21
0.2
0
LINE
8
BLACK
6
CONTINUOUS
10
0.0744
20
0.2
11
0.0751897637795276
21
0.2140627559055118
0
LINE
8
BLACK
6
CONTINUOUS
10
0.0751897637795276
20
0.2140627559055118
11
0.0775490551181102
21
0.2279486220472441
0
LINE
8
BLACK
6
CONTINUOUS
10
0.0775490551181102
20
0.2279486220472441
11
0.0814482677165354
21
0.241483031496063
0
LINE
8
BLACK
6
CONTINUOUS
10
0.0814482677165354
20
0.241483031496063
11
0.0868383070866142
21
0.2544957874015748
0
LINE
8
BLACK
6
CONTINUOUS
10
0.0868383070866142
20
0.2544957874015748
11
0.0936514566929134
21
0.2668232283464567
0
LINE
8
BLACK
6
CONTINUOUS
10
0.0936514566929134
20
0.2668232283464567
11
0.101801968503937
21
0.2783103149606299
0
LINE
8
BLACK
6
CONTINUOUS
10
0.101801968503937
20
0.2783103149606299
11
0.1111874015748031
21
0.2888125984251969
0
LINE
8
BLACK
6
CONTINUOUS
10
0.1111874015748031
20
0.2888125984251969
11
0.1216896850393701
21
0.298198031496063
0
LINE
8
BLACK
6
CONTINUOUS
10
0.1216896850393701
20
0.298198031496063
11
0.1331767716535433
21
0.3063485433070866
0
LINE
8
BLACK
6
CONTINUOUS
10
0.1331767716535433
20
0.3063485433070866
11
0.1455042125984252
21
0.3131616929133858
0
LINE
8
BLACK
6
CONTINUOUS
10
0.1455042125984252
20
0.3131616929133858
11
0.158516968503937
21
0.3185517322834646
0
LINE
8
BLACK
6
CONTINUOUS
10
0.158516968503937
20
0.3185517322834646
11
0.1720513779527559
21
0.3224509448818897
0
LINE
8
BLACK
6
CONTINUOUS
10
0.1720513779527559
20
0.3224509448818897
11
0.1859372440944882
21
0.3248102362204724
0
LINE
8
BLACK
6
CONTINUOUS
10
0.1859372440944882
20
0.3248102362204724
11
0.2
21
0.3256
0
LINE
8
BLACK
6
CONTINUOUS
10
0.2
20
0.3256
11
0.2140627559055118
21
0.3248102362204724
0
LINE
8
BLACK
6
CONTINUOUS
10
0.0899616535433071
20
0.1871383464566929
11
0.0921988582677165
21
0.1744506692913386
0
LINE
8
BLACK
6
CONTINUOUS
10
0.0921988582677165
20
0.1744506692913386
11
0.0958938582677165
21
0.1621084645669291
0
LINE
8
BLACK
6
CONTINUOUS
10
0.0958938582677165
20
0.1621084645669291
11
0.1009967322834646
21
0.1502787007874016
0
LINE
8
BLACK
6
CONTINUOUS
10
0.1009967322834646
20
0.1502787007874016
11
0.1074384251968504
21
0.1391212992125984
0
LINE
8
BLACK
6
CONTINUOUS
10
0.1074384251968504
20
0.1391212992125984
11
0.1151318897637795
21
0.1287872047244094
0
LINE
8
BLACK
6
CONTINUOUS
10
0.1151318897637795
20
0.1287872047244094
11
0.123973031496063
21
0.1194161417322835
0
LINE
8
BLACK
6
CONTINUOUS
10
0.123973031496063
20
0.1194161417322835
11
0.1338423228346457
21
0.111134842519685
0
LINE
8
BLACK
6
CONTINUOUS
10
0.1338423228346457
20
0.111134842519685
11
0.1446062598425197
21
0.1040552755905512
0
LINE
8
BLACK
6
CONTINUOUS
10
0.1446062598425197
20
0.1040552755905512
11
0.1561193307086614
21
0.0982731889763779
0
LINE
8
BLACK
6
CONTINUOUS
10
0.1561193307086614
20
0.0982731889763779
11
0.1682257874015748
21
0.093866811023622
0
LINE
8
BLACK
6
CONTINUOUS
10
0.1682257874015748
20
0.093866811023622
11
0.180761968503937
21
0.0908956692913386
0
LINE
8
BLACK
6
CONTINUOUS
10
0.180761968503937
20
0.0908956692913386
11
0.1935582677165354
21
0.0894
0
LINE
8
BLACK
6
CONTINUOUS
10
0.1935582677165354
20
0.0894
11
0.2064417322834646
21
0.0894
0
LINE
8
BLACK
6
CONTINUOUS
10
0.2064417322834646
20
0.0894
11
0.219238031496063
21
0.0908956692913386
0
LINE
8
BLACK
6
CONTINUOUS
10
0.219238031496063
20
0.0908956692913386
11
0.2317742125984252
21
0.093866811023622
0
LINE
8
BLACK
6
CONTINUOUS
10
0.2317742125984252
20
0.093866811023622
11
0.2438806692913386
21
0.0982731889763779
0
LINE
8
BLACK
6
CONTINUOUS
10
0.2438806692913386
20
0.0982731889763779
11
0.2553937401574803
21
0.1040552755905512
0
LINE
8
BLACK
6
CONTINUOUS
10
0.2553937401574803
20
0.1040552755905512
11
0.2661576771653543
21
0.111134842519685
0
LINE
8
BLACK
6
CONTINUOUS
10
0.2661576771653543
20
0.111134842519685
11
0.276026968503937
21
0.1194161417322835
0
LINE
8
BLACK
6
CONTINUOUS
10
0.276026968503937
20
0.1194161417322835
11
0.2848681102362204
21
0.1287872047244094
0
LINE
8
BLACK
6
CONTINUOUS
10
0.2848681102362204
20
0.1287872047244094
11
0.2925615748031496
21
0.1391212992125984
0
LINE
8
BLACK
6
CONTINUOUS
10
0.2925615748031496
20
0.1391212992125984
11
0.2990032677165354
21
0.1502787007874016
0
LINE
8
BLACK
6
CONTINUOUS
10
0.2990032677165354
20
0.1502787007874016
11
0.3041061417322835
21
0.1621084645669291
0
LINE
8
BLACK
6
CONTINUOUS
10
0.3041061417322835
20
0.1621084645669291
11
0.3078011417322835
21
0.1744506692913386
0
LINE
8
BLACK
6
CONTINUOUS
10
0.3078011417322835
20
0.1744506692913386
11
0.3100383464566929
21
0.1871383464566929
0
LINE
8
BLACK
6
CONTINUOUS
10
0.3100383464566929
20
0.1871383464566929
11
0.3107874409448819
21
0.2
0
LINE
8
BLACK
6
CONTINUOUS
10
0.3107874409448819
20
0.2
11
0.3100383464566929
21
0.2128616535433071
0
LINE
8
BLACK
6
CONTINUOUS
10
0.3100383464566929
20
0.2128616535433071
11
0.3078011417322835
21
0.2255493307086614
0
LINE
8
BLACK
6
CONTINUOUS
10
0.3078011417322835
20
0.2255493307086614
11
0.3041061417322835
21
0.2378915354330709
0
LINE
8
BLACK
6
CONTINUOUS
10
0.3041061417322835
20
0.2378915354330709
11
0.2990032677165354
21
0.2497212992125984
0
LINE
8
BLACK
6
CONTINUOUS
10
0.2990032677165354
20
0.2497212992125984
11
0.2925615748031496
21
0.2608787007874016
0
LINE
8
BLACK
6
CONTINUOUS
10
0.2925615748031496
20
0.2608787007874016
11
0.2848681102362204
21
0.2712127952755906
0
LINE
8
BLACK
6
CONTINUOUS
10
0.2848681102362204
20
0.2712127952755906
11
0.276026968503937
21
0.2805838582677165
0
LINE
8
BLACK
6
CONTINUOUS
10
0.276026968503937
20
0.2805838582677165
11
0.2661576771653543
21
0.2888651574803149
0
LINE
8
BLACK
6
CONTINUOUS
10
0.2661576771653543
20
0.2888651574803149
11
0.2553937401574803
21
0.2959447244094488
0
LINE
8
BLACK
6
CONTINUOUS
10
0.2553937401574803
20
0.2959447244094488
11
0.2438806692913386
21
0.301726811023622
0
LINE
8
BLACK
6
CONTINUOUS
10
0.2438806692913386
20
0.301726811023622
11
0.2317742125984252
21
0.3061331889763779
0
LINE
8
BLACK
6
CONTINUOUS
10
0.2317742125984252
20
0.3061331889763779
11
0.219238031496063
21
0.3091043307086614
0
LINE
8
BLACK
6
CONTINUOUS
10
0.219238031496063
20
0.3091043307086614
11
0.2064417322834646
21
0.3106
0
LINE
8
BLACK
6
CONTINUOUS
10
0.2064417322834646
20
0.3106
11
0.1935582677165354
21
0.3106
0
LINE
8
BLACK
6
CONTINUOUS
10
0.1935582677165354
20
0.3106
11
0.180761968503937
21
0.3091043307086614
0
LINE
8
BLACK
6
CONTINUOUS
10
0.180761968503937
20
0.3091043307086614
11
0.1682257874015748
21
0.3061331889763779
0
LINE
8
BLACK
6
CONTINUOUS
10
0.1682257874015748
20
0.3061331889763779
11
0.1561193307086614
21
0.301726811023622
0
LINE
8
BLACK
6
CONTINUOUS
10
0.1561193307086614
20
0.301726811023622
11
0.1446062598425197
21
0.2959447244094488
0
LINE
8
BLACK
6
CONTINUOUS
10
0.1446062598425197
20
0.2959447244094488
11
0.1338423228346457
21
0.2888651574803149
0
LINE
8
BLACK
6
CONTINUOUS
10
0.1338423228346457
20
0.2888651574803149
11
0.123973031496063
21
0.2805838582677165
0
LINE
8
BLACK
6
CONTINUOUS
10
0.123973031496063
20
0.2805838582677165
11
0.1151318897637795
21
0.2712127952755906
0
LINE
8
BLACK
6
CONTINUOUS
10
0.1151318897637795
20
0.2712127952755906
11
0.1074384251968504
21
0.2608787007874016
0
LINE
8
BLACK
6
CONTINUOUS
10
0.1074384251968504
20
0.2608787007874016
11
0.1009967322834646
21
0.2497212992125984
0
LINE
8
BLACK
6
CONTINUOUS
10
0.1009967322834646
20
0.2497212992125984
11
0.0958938582677165
21
0.2378915354330709
0
LINE
8
BLACK
6
CONTINUOUS
10
0.0958938582677165
20
0.2378915354330709
11
0.0921988582677165
21
0.2255493307086614
0
LINE
8
BLACK
6
CONTINUOUS
10
0.0921988582677165
20
0.2255493307086614
11
0.0899616535433071
21
0.2128616535433071
0
LINE
8
BLACK
6
CONTINUOUS
10
0.0899616535433071
20
0.2128616535433071
11
0.0892125590551181
21
0.2
0
LINE
8
BLACK
6
CONTINUOUS
10
0.0892125590551181
20
0.2
11
0.0899616535433071
21
0.1871383464566929
0
LINE
8
BLACK
6
CONTINUOUS
10
1.8140627559055118
20
0.3248102362204724
11
1.8279486220472441
21
0.3224509448818897
0
LINE
8
BLACK
6
CONTINUOUS
10
1.8279486220472441
20
0.3224509448818897
11
1.8414830314960628
21
0.3185517322834646
0
LINE
8
BLACK
6
CONTINUOUS
10
1.8414830314960628
20
0.3185517322834646
11
1.8544957874015748
21
0.3131616929133858
0
LINE
8
BLACK
6
CONTINUOUS
10
1.8544957874015748
20
0.3131616929133858
11
1.8668232283464568
21
0.3063485433070866
0
LINE
8
BLACK
6
CONTINUOUS
10
1.8668232283464568
20
0.3063485433070866
11
1.8783103149606299
21
0.298198031496063
0
LINE
8
BLACK
6
CONTINUOUS
10
1.8783103149606299
20
0.298198031496063
11
1.8888125984251969
21
0.2888125984251969
0
LINE
8
BLACK
6
CONTINUOUS
10
1.8888125984251969
20
0.2888125984251969
11
1.8981980314960629
21
0.2783103149606299
0
LINE
8
BLACK
6
CONTINUOUS
10
1.8981980314960629
20
0.2783103149606299
11
1.9063485433070866
21
0.2668232283464567
0
LINE
8
BLACK
6
CONTINUOUS
10
1.9063485433070866
20
0.2668232283464567
11
1.9131616929133859
21
0.2544957874015748
0
LINE
8
BLACK
6
CONTINUOUS
10
1.9131616929133859
20
0.2544957874015748
11
1.9185517322834644
21
0.241483031496063
0
LINE
8
BLACK
6
CONTINUOUS
10
1.9185517322834644
20
0.241483031496063
11
1.9224509448818896
21
0.2279486220472441
0
LINE
8
BLACK
6
CONTINUOUS
10
1.9224509448818896
20
0.2279486220472441
11
1.9248102362204724
21
0.2140627559055118
0
LINE
8
BLACK
6
CONTINUOUS
10
1.9248102362204724
20
0.2140627559055118
11
1.9256
21
0.2
0
LINE
8
BLACK
6
CONTINUOUS
10
1.9256
20
0.2
11
1.9248102362204724
21
0.1859372440944882
0
LINE
8
BLACK
6
CONTINUOUS
10
1.9248102362204724
20
0.1859372440944882
11
1.9224509448818896
21
0.1720513779527559
0
LINE
8
BLACK
6
CONTINUOUS
10
1.9224509448818896
20
0.1720513779527559
11
1.9185517322834644
21
0.158516968503937
0
LINE
8
BLACK
6
CONTINUOUS
10
1.9185517322834644
20
0.158516968503937
11
1.9131616929133859
21
0.1455042125984252
0
LINE
8
BLACK
6
CONTINUOUS
10
1.9131616929133859
20
0.1455042125984252
11
1.9063485433070866
21
0.1331767716535433
0
LINE
8
BLACK
6
CONTINUOUS
10
1.9063485433070866
20
0.1331767716535433
11
1.8981980314960629
21
0.1216896850393701
0
LINE
8
BLACK
6
CONTINUOUS
10
1.8981980314960629
20
0.1216896850393701
11
1.8888125984251969
21
0.1111874015748031
0
LINE
8
BLACK
6
CONTINUOUS
10
1.8888125984251969
20
0.1111874015748031
11
1.8783103149606299
21
0.101801968503937
0
LINE
8
BLACK
6
CONTINUOUS
10
1.8783103149606299
20
0.101801968503937
11
1.8668232283464568
21
0.0936514566929134
0
LINE
8
BLACK
6
CONTINUOUS
10
1.8668232283464568
20
0.0936514566929134
11
1.8544957874015748
21
0.0868383070866142
0
LINE
8
BLACK
6
CONTINUOUS
10
1.8544957874015748
20
0.0868383070866142
11
1.8414830314960628
21
0.0814482677165354
0
LINE
8
BLACK
6
CONTINUOUS
10
1.8414830314960628
20
0.0814482677165354
11
1.8279486220472441
21
0.0775490551181102
0
LINE
8
BLACK
6
CONTINUOUS
10
1.8279486220472441
20
0.0775490551181102
11
1.8140627559055118
21
0.0751897637795276
0
LINE
8
BLACK
6
CONTINUOUS
10
1.8140627559055118
20
0.0751897637795276
11
1.8
21
0.0744
0
LINE
8
BLACK
6
CONTINUOUS
10
1.8
20
0.0744
11
1.7859372440944881
21
0.0751897637795276
0
LINE
8
BLACK
6
CONTINUOUS
10
1.7859372440944881
20
0.0751897637795276
11
1.7720513779527558
21
0.0775490551181102
0
LINE
8
BLACK
6
CONTINUOUS
10
1.7720513779527558
20
0.0775490551181102
11
1.758516968503937
21
0.0814482677165354
0
LINE
8
BLACK
6
CONTINUOUS
10
1.758516968503937
20
0.0814482677165354
11
1.7455042125984253
21
0.0868383070866142
0
LINE
8
BLACK
6
CONTINUOUS
10
1.7455042125984253
20
0.0868383070866142
11
1.7331767716535433
21
0.0936514566929134
0
LINE
8
BLACK
6
CONTINUOUS
10
1.7331767716535433
20
0.0936514566929134
11
1.7216896850393701
21
0.101801968503937
0
LINE
8
BLACK
6
CONTINUOUS
10
1.7216896850393701
20
0.101801968503937
11
1.7111874015748032
21
0.1111874015748031
0
LINE
8
BLACK
6
CONTINUOUS
10
1.7111874015748032
20
0.1111874015748031
11
1.7018019685039369
21
0.1216896850393701
0
LINE
8
BLACK
6
CONTINUOUS
10
1.7018019685039369
20
0.1216896850393701
11
1.6936514566929133
21
0.1331767716535433
0
LINE
8
BLACK
6
CONTINUOUS
10
1.6936514566929133
20
0.1331767716535433
11
1.6868383070866142
21
0.1455042125984252
0
LINE
8
BLACK
6
CONTINUOUS
10
1.6868383070866142
20
0.1455042125984252
11
1.6814482677165354
21
0.158516968503937
0
LINE
8
BLACK
6
CONTINUOUS
10
1.6814482677165354
20
0.158516968503937
11
1.6775490551181103
21
0.1720513779527559
0
LINE
8
BLACK
6
CONTINUOUS
10
1.6775490551181103
20
0.1720513779527559
11
1.6751897637795274
21
0.1859372440944882
0
LINE
8
BLACK
6
CONTINUOUS
10
1.6751897637795274
20
0.1859372440944882
11
1.6743999999999999
21
0.2
0
LINE
8
BLACK
6
CONTINUOUS
10
1.6743999999999999
20
0.2
11
1.6751897637795274
21
0.2140627559055118
0
LINE
8
BLACK
6
CONTINUOUS
10
1.6751897637795274
20
0.2140627559055118
11
1.6775490551181103
21
0.2279486220472441
0
LINE
8
BLACK
6
CONTINUOUS
10
1.6775490551181103
20
0.2279486220472441
11
1.6814482677165354
21
0.241483031496063
0
LINE
8
BLACK
6
CONTINUOUS
10
1.6814482677165354
20
0.241483031496063
11
1.6868383070866142
21
0.2544957874015748
0
LINE
8
BLACK
6
CONTINUOUS
10
1.6868383070866142
20
0.2544957874015748
11
1.6936514566929133
21
0.2668232283464567
0
LINE
8
BLACK
6
CONTINUOUS
10
1.6936514566929133
20
0.2668232283464567
11
1.7018019685039369
21
0.2783103149606299
0
LINE
8
BLACK
6
CONTINUOUS
10
1.7018019685039369
20
0.2783103149606299
11
1.7111874015748032
21
0.2888125984251969
0
LINE
8
BLACK
6
CONTINUOUS
10
1.7111874015748032
20
0.2888125984251969
11
1.7216896850393701
21
0.298198031496063
0
LINE
8
BLACK
6
CONTINUOUS
10
1.7216896850393701
20
0.298198031496063
11
1.7331767716535433
21
0.3063485433070866
0
LINE
8
BLACK
6
CONTINUOUS
10
1.7331767716535433
20
0.3063485433070866
11
1.7455042125984253
21
0.3131616929133858
0
LINE
8
BLACK
6
CONTINUOUS
10
1.7455042125984253
20
0.3131616929133858
11
1.758516968503937
21
0.3185517322834646
0
LINE
8
BLACK
6
CONTINUOUS
10
1.758516968503937
20
0.3185517322834646
11
1.7720513779527558
21
0.3224509448818897
0
LINE
8
BLACK
6
CONTINUOUS
10
1.7720513779527558
20
0.3224509448818897
11
1.7859372440944881
21
0.3248102362204724
0
LINE
8
BLACK
6
CONTINUOUS
10
1.7859372440944881
20
0.3248102362204724
11
1.8
21
0.3256
0
LINE
8
BLACK
6
CONTINUOUS
10
1.8
20
0.3256
11
1.8140627559055118
21
0.3248102362204724
0
LINE
8
BLACK
6
CONTINUOUS
10
1.6899616535433071
20
0.1871383464566929
11
1.6921988582677165
21
0.1744506692913386
0
LINE
8
BLACK
6
CONTINUOUS
10
1.6921988582677165
20
0.1744506692913386
11
1.6958938582677165
21
0.1621084645669291
0
LINE
8
BLACK
6
CONTINUOUS
10
1.6958938582677165
20
0.1621084645669291
11
1.7009967322834645
21
0.1502787007874016
0
LINE
8
BLACK
6
CONTINUOUS
10
1.7009967322834645
20
0.1502787007874016
11
1.7074384251968504
21
0.1391212992125984
0
LINE
8
BLACK
6
CONTINUOUS
10
1.7074384251968504
20
0.1391212992125984
11
1.7151318897637795
21
0.1287872047244094
0
LINE
8
BLACK
6
CONTINUOUS
10
1.7151318897637795
20
0.1287872047244094
11
1.7239730314960628
21
0.1194161417322835
0
LINE
8
BLACK
6
CONTINUOUS
10
1.7239730314960628
20
0.1194161417322835
11
1.7338423228346456
21
0.111134842519685
0
LINE
8
BLACK
6
CONTINUOUS
10
1.7338423228346456
20
0.111134842519685
11
1.7446062598425196
21
0.1040552755905512
0
LINE
8
BLACK
6
CONTINUOUS
10
1.7446062598425196
20
0.1040552755905512
11
1.7561193307086613
21
0.0982731889763779
0
LINE
8
BLACK
6
CONTINUOUS
10
1.7561193307086613
20
0.0982731889763779
11
1.7682257874015748
21
0.093866811023622
0
LINE
8
BLACK
6
CONTINUOUS
10
1.7682257874015748
20
0.093866811023622
11
1.7807619685039369
21
0.0908956692913386
0
LINE
8
BLACK
6
CONTINUOUS
10
1.7807619685039369
20
0.0908956692913386
11
1.7935582677165354
21
0.0894
0
LINE
8
BLACK
6
CONTINUOUS
10
1.7935582677165354
20
0.0894
11
1.8064417322834645
21
0.0894
0
LINE
8
BLACK
6
CONTINUOUS
10
1.8064417322834645
20
0.0894
11
1.819238031496063
21
0.0908956692913386
0
LINE
8
BLACK
6
CONTINUOUS
10
1.819238031496063
20
0.0908956692913386
11
1.8317742125984251
21
0.093866811023622
0
LINE
8
BLACK
6
CONTINUOUS
10
1.8317742125984251
20
0.093866811023622
11
1.8438806692913385
21
0.0982731889763779
0
LINE
8
BLACK
6
CONTINUOUS
10
1.8438806692913385
20
0.0982731889763779
11
1.8553937401574803
21
0.1040552755905512
0
LINE
8
BLACK
6
CONTINUOUS
10
1.8553937401574803
20
0.1040552755905512
11
1.8661576771653543
21
0.111134842519685
0
LINE
8
BLACK
6
CONTINUOUS
10
1.8661576771653543
20
0.111134842519685
11
1.876026968503937
21
0.1194161417322835
0
LINE
8
BLACK
6
CONTINUOUS
10
1.876026968503937
20
0.1194161417322835
11
1.8848681102362204
21
0.1287872047244094
0
LINE
8
BLACK
6
CONTINUOUS
10
1.8848681102362204
20
0.1287872047244094
11
1.8925615748031495
21
0.1391212992125984
0
LINE
8
BLACK
6
CONTINUOUS
10
1.8925615748031495
20
0.1391212992125984
11
1.8990032677165354
21
0.1502787007874016
0
LINE
8
BLACK
6
CONTINUOUS
10
1.8990032677165354
20
0.1502787007874016
11
1.9041061417322833
21
0.1621084645669291
0
LINE
8
BLACK
6
CONTINUOUS
10
1.9041061417322833
20
0.1621084645669291
11
1.9078011417322833
21
0.1744506692913386
0
LINE
8
BLACK
6
CONTINUOUS
10
1.9078011417322833
20
0.1744506692913386
11
1.9100383464566928
21
0.1871383464566929
0
LINE
8
BLACK
6
CONTINUOUS
10
1.9100383464566928
20
0.1871383464566929
11
1.910787440944882
21
0.2
0
LINE
8
BLACK
6
CONTINUOUS
10
1.910787440944882
20
0.2
11
1.9100383464566928
21
0.2128616535433071
0
LINE
8
BLACK
6
CONTINUOUS
10
1.9100383464566928
20
0.2128616535433071
11
1.9078011417322833
21
0.2255493307086614
0
LINE
8
BLACK
6
CONTINUOUS
10
1.9078011417322833
20
0.2255493307086614
11
1.9041061417322833
21
0.2378915354330709
0
LINE
8
BLACK
6
CONTINUOUS
10
1.9041061417322833
20
0.2378915354330709
11
1.8990032677165354
21
0.2497212992125984
0
LINE
8
BLACK
6
CONTINUOUS
10
1.8990032677165354
20
0.2497212992125984
11
1.8925615748031495
21
0.2608787007874016
0
LINE
8
BLACK
6
CONTINUOUS
10
1.8925615748031495
20
0.2608787007874016
11
1.8848681102362204
21
0.2712127952755906
0
LINE
8
BLACK
6
CONTINUOUS
10
1.8848681102362204
20
0.2712127952755906
11
1.876026968503937
21
0.2805838582677165
0
LINE
8
BLACK
6
CONTINUOUS
10
1.876026968503937
20
0.2805838582677165
11
1.8661576771653543
21
0.2888651574803149
0
LINE
8
BLACK
6
CONTINUOUS
10
1.8661576771653543
20
0.2888651574803149
11
1.8553937401574803
21
0.2959447244094488
0
LINE
8
BLACK
6
CONTINUOUS
10
1.8553937401574803
20
0.2959447244094488
11
1.8438806692913385
21
0.301726811023622
0
LINE
8
BLACK
6
CONTINUOUS
10
1.8438806692913385
20
0.301726811023622
11
1.8317742125984251
21
0.3061331889763779
0
LINE
8
BLACK
6
CONTINUOUS
10
1.8317742125984251
20
0.3061331889763779
11
1.819238031496063
21
0.3091043307086614
0
LINE
8
BLACK
6
CONTINUOUS
10
1.819238031496063
20
0.3091043307086614
11
1.8064417322834645
21
0.3106
0
LINE
8
BLACK
6
CONTINUOUS
10
1.8064417322834645
20
0.3106
11
1.7935582677165354
21
0.3106
0
LINE
8
BLACK
6
CONTINUOUS
10
1.7935582677165354
20
0.3106
11
1.7807619685039369
21
0.3091043307086614
0
LINE
8
BLACK
6
CONTINUOUS
10
1.7807619685039369
20
0.3091043307086614
11
1.7682257874015748
21
0.3061331889763779
0
LINE
8
BLACK
6
CONTINUOUS
10
1.7682257874015748
20
0.3061331889763779
11
1.7561193307086613
21
0.301726811023622
0
LINE
8
BLACK
6
CONTINUOUS
10
1.7561193307086613
20
0.301726811023622
11
1.7446062598425196
21
0.2959447244094488
0
LINE
8
BLACK
6
CONTINUOUS
10
1.7446062598425196
20
0.2959447244094488
11
1.7338423228346456
21
0.2888651574803149
0
LINE
8
BLACK
6
CONTINUOUS
10
1.7338423228346456
20
0.2888651574803149
11
1.7239730314960628
21
0.2805838582677165
0
LINE
8
BLACK
6
CONTINUOUS
10
1.7239730314960628
20
0.2805838582677165
11
1.7151318897637795
21
0.2712127952755906
0
LINE
8
BLACK
6
CONTINUOUS
10
1.7151318897637795
20
0.2712127952755906
11
1.7074384251968504
21
0.2608787007874016
0
LINE
8
BLACK
6
CONTINUOUS
10
1.7074384251968504
20
0.2608787007874016
11
1.7009967322834645
21
0.2497212992125984
0
LINE
8
BLACK
6
CONTINUOUS
10
1.7009967322834645
20
0.2497212992125984
11
1.6958938582677165
21
0.2378915354330709
0
LINE
8
BLACK
6
CONTINUOUS
10
1.6958938582677165
20
0.2378915354330709
11
1.6921988582677165
21
0.2255493307086614
0
LINE
8
BLACK
6
CONTINUOUS
10
1.6921988582677165
20
0.2255493307086614
11
1.6899616535433071
21
0.2128616535433071
0
LINE
8
BLACK
6
CONTINUOUS
10
1.6899616535433071
20
0.2128616535433071
11
1.6892125590551181
21
0.2
0
LINE
8
BLACK
6
CONTINUOUS
10
1.6892125590551181
20
0.2
11
1.6899616535433071
21
0.1871383464566929
0
LINE
8
BLACK
6
CONTINUOUS
10
0.2140627559055118
20
1.1248102362204724
11
0.2279486220472441
21
1.1224509448818898
0
LINE
8
BLACK
6
CONTINUOUS
10
0.2279486220472441
20
1.1224509448818898
11
0.241483031496063
21
1.1185517322834646
0
LINE
8
BLACK
6
CONTINUOUS
10
0.241483031496063
20
1.1185517322834646
11
0.2544957874015748
21
1.1131616929133858
0
LINE
8
BLACK
6
CONTINUOUS
10
0.2544957874015748
20
1.1131616929133858
11
0.2668232283464567
21
1.1063485433070865
0
LINE
8
BLACK
6
CONTINUOUS
10
0.2668232283464567
20
1.1063485433070865
11
0.2783103149606299
21
1.0981980314960629
0
LINE
8
BLACK
6
CONTINUOUS
10
0.2783103149606299
20
1.0981980314960629
11
0.2888125984251969
21
1.0888125984251968
0
LINE
8
BLACK
6
CONTINUOUS
10
0.2888125984251969
20
1.0888125984251968
11
0.298198031496063
21
1.0783103149606299
0
LINE
8
BLACK
6
CONTINUOUS
10
0.298198031496063
20
1.0783103149606299
11
0.3063485433070866
21
1.0668232283464567
0
LINE
8
BLACK
6
CONTINUOUS
10
0.3063485433070866
20
1.0668232283464567
11
0.3131616929133858
21
1.0544957874015748
0
LINE
8
BLACK
6
CONTINUOUS
10
0.3131616929133858
20
1.0544957874015748
11
0.3185517322834646
21
1.041483031496063
0
LINE
8
BLACK
6
CONTINUOUS
10
0.3185517322834646
20
1.041483031496063
11
0.3224509448818897
21
1.027948622047244
0
LINE
8
BLACK
6
CONTINUOUS
10
0.3224509448818897
20
1.027948622047244
11
0.3248102362204724
21
1.0140627559055118
0
LINE
8
BLACK
6
CONTINUOUS
10
0.3248102362204724
20
1.0140627559055118
11
0.3256
21
1.
0
LINE
8
BLACK
6
CONTINUOUS
10
0.3256
20
1.
11
0.3248102362204724
21
0.9859372440944881
0
LINE
8
BLACK
6
CONTINUOUS
10
0.3248102362204724
20
0.9859372440944881
11
0.3224509448818897
21
0.9720513779527559
0
LINE
8
BLACK
6
CONTINUOUS
10
0.3224509448818897
20
0.9720513779527559
11
0.3185517322834646
21
0.958516968503937
0
LINE
8
BLACK
6
CONTINUOUS
10
0.3185517322834646
20
0.958516968503937
11
0.3131616929133858
21
0.9455042125984252
0
LINE
8
BLACK
6
CONTINUOUS
10
0.3131616929133858
20
0.9455042125984252
11
0.3063485433070866
21
0.9331767716535433
0
LINE
8
BLACK
6
CONTINUOUS
10
0.3063485433070866
20
0.9331767716535433
11
0.298198031496063
21
0.9216896850393701
0
LINE
8
BLACK
6
CONTINUOUS
10
0.298198031496063
20
0.9216896850393701
11
0.2888125984251969
21
0.9111874015748032
0
LINE
8
BLACK
6
CONTINUOUS
10
0.2888125984251969
20
0.9111874015748032
11
0.2783103149606299
21
0.901801968503937
0
LINE
8
BLACK
6
CONTINUOUS
10
0.2783103149606299
20
0.901801968503937
11
0.2668232283464567
21
0.8936514566929133
0
LINE
8
BLACK
6
CONTINUOUS
10
0.2668232283464567
20
0.8936514566929133
11
0.2544957874015748
21
0.8868383070866142
0
LINE
8
BLACK
6
CONTINUOUS
10
0.2544957874015748
20
0.8868383070866142
11
0.241483031496063
21
0.8814482677165354
0
LINE
8
BLACK
6
CONTINUOUS
10
0.241483031496063
20
0.8814482677165354
11
0.2279486220472441
21
0.8775490551181102
0
LINE
8
BLACK
6
CONTINUOUS
10
0.2279486220472441
20
0.8775490551181102
11
0.2140627559055118
21
0.8751897637795275
0
LINE
8
BLACK
6
CONTINUOUS
10
0.2140627559055118
20
0.8751897637795275
11
0.2
21
0.8744
0
LINE
8
BLACK
6
CONTINUOUS
10
0.2
20
0.8744
11
0.1859372440944882
21
0.8751897637795275
0
LINE
8
BLACK
6
CONTINUOUS
10
0.1859372440944882
20
0.8751897637795275
11
0.1720513779527559
21
0.8775490551181102
0
LINE
8
BLACK
6
CONTINUOUS
10
0.1720513779527559
20
0.8775490551181102
11
0.158516968503937
21
0.8814482677165354
0
LINE
8
BLACK
6
CONTINUOUS
10
0.158516968503937
20
0.8814482677165354
11
0.1455042125984252
21
0.8868383070866142
0
LINE
8
BLACK
6
CONTINUOUS
10
0.1455042125984252
20
0.8868383070866142
11
0.1331767716535433
21
0.8936514566929133
0
LINE
8
BLACK
6
CONTINUOUS
10
0.1331767716535433
20
0.8936514566929133
11
0.1216896850393701
21
0.901801968503937
0
LINE
8
BLACK
6
CONTINUOUS
10
0.1216896850393701
20
0.901801968503937
11
0.1111874015748031
21
0.9111874015748032
0
LINE
8
BLACK
6
CONTINUOUS
10
0.1111874015748031
20
0.9111874015748032
11
0.101801968503937
21
0.9216896850393701
0
LINE
8
BLACK
6
CONTINUOUS
10
0.101801968503937
20
0.9216896850393701
11
0.0936514566929134
21
0.9331767716535433
0
LINE
8
BLACK
6
CONTINUOUS
10
0.0936514566929134
20
0.9331767716535433
11
0.0868383070866142
21
0.9455042125984252
0
LINE
8
BLACK
6
CONTINUOUS
10
0.0868383070866142
20
0.9455042125984252
11
0.0814482677165354
21
0.958516968503937
0
LINE
8
BLACK
6
CONTINUOUS
10
0.0814482677165354
20
0.958516968503937
11
0.0775490551181102
21
0.9720513779527559
0
LINE
8
BLACK
6
CONTINUOUS
10
0.0775490551181102
20
0.9720513779527559
11
0.0751897637795276
21
0.9859372440944881
0
LINE
8
BLACK
6
CONTINUOUS
10
0.0751897637795276
20
0.9859372440944881
11
0.0744
21
1.
0
LINE
8
BLACK
6
CONTINUOUS
10
0.0744
20
1.
11
0.0751897637795276
21
1.0140627559055118
0
LINE
8
BLACK
6
CONTINUOUS
10
0.0751897637795276
20
1.0140627559055118
11
0.0775490551181102
21
1.027948622047244
0
LINE
8
BLACK
6
CONTINUOUS
10
0.0775490551181102
20
1.027948622047244
11
0.0814482677165354
21
1.041483031496063
0
LINE
8
BLACK
6
CONTINUOUS
10
0.0814482677165354
20
1.041483031496063
11
0.0868383070866142
21
1.0544957874015748
0
LINE
8
BLACK
6
CONTINUOUS
10
0.0868383070866142
20
1.0544957874015748
11
0.0936514566929134
21
1.0668232283464567
0
LINE
8
BLACK
6
CONTINUOUS
10
0.0936514566929134
20
1.0668232283464567
11
0.101801968503937
21
1.0783103149606299
0
LINE
8
BLACK
6
CONTINUOUS
10
0.101801968503937
20
1.0783103149606299
11
0.1111874015748031
21
1.0888125984251968
0
LINE
8
BLACK
6
CONTINUOUS
10
0.1111874015748031
20
1.0888125984251968
11
0.1216896850393701
21
1.0981980314960629
0
LINE
8
BLACK
6
CONTINUOUS
10
0.1216896850393701
20
1.0981980314960629
11
0.1331767716535433
21
1.1063485433070865
0
LINE
8
BLACK
6
CONTINUOUS
10
0.1331767716535433
20
1.1063485433070865
11
0.1455042125984252
21
1.1131616929133858
0
LINE
8
BLACK
6
CONTINUOUS
10
0.1455042125984252
20
1.1131616929133858
11
0.158516968503937
21
1.1185517322834646
0
LINE
8
BLACK
6
CONTINUOUS
10
0.158516968503937
20
1.1185517322834646
11
0.1720513779527559
21
1.1224509448818898
0
LINE
8
BLACK
6
CONTINUOUS
10
0.1720513779527559
20
1.1224509448818898
11
0.1859372440944882
21
1.1248102362204724
0
LINE
8
BLACK
6
CONTINUOUS
10
0.1859372440944882
20
1.1248102362204724
11
0.2
21
1.1255999999999999
0
LINE
8
BLACK
6
CONTINUOUS
10
0.2
20
1.1255999999999999
11
0.2140627559055118
21
1.1248102362204724
0
LINE
8
BLACK
6
CONTINUOUS
10
0.0899616535433071
20
0.9871383464566929
11
0.0921988582677165
21
0.9744506692913386
0
LINE
8
BLACK
6
CONTINUOUS
10
0.0921988582677165
20
0.9744506692913386
11
0.0958938582677165
21
0.9621084645669291
0
LINE
8
BLACK
6
CONTINUOUS
10
0.0958938582677165
20
0.9621084645669291
11
0.1009967322834646
21
0.9502787007874015
0
LINE
8
BLACK
6
CONTINUOUS
10
0.1009967322834646
20
0.9502787007874015
11
0.1074384251968504
21
0.9391212992125985
0
LINE
8
BLACK
6
CONTINUOUS
10
0.1074384251968504
20
0.9391212992125985
11
0.1151318897637795
21
0.9287872047244095
0
LINE
8
BLACK
6
CONTINUOUS
10
0.1151318897637795
20
0.9287872047244095
11
0.123973031496063
21
0.9194161417322835
0
LINE
8
BLACK
6
CONTINUOUS
10
0.123973031496063
20
0.9194161417322835
11
0.1338423228346457
21
0.911134842519685
0
LINE
8
BLACK
6
CONTINUOUS
10
0.1338423228346457
20
0.911134842519685
11
0.1446062598425197
21
0.9040552755905512
0
LINE
8
BLACK
6
CONTINUOUS
10
0.1446062598425197
20
0.9040552755905512
11
0.1561193307086614
21
0.898273188976378
0
LINE
8
BLACK
6
CONTINUOUS
10
0.1561193307086614
20
0.898273188976378
11
0.1682257874015748
21
0.893866811023622
0
LINE
8
BLACK
6
CONTINUOUS
10
0.1682257874015748
20
0.893866811023622
11
0.180761968503937
21
0.8908956692913386
0
LINE
8
BLACK
6
CONTINUOUS
10
0.180761968503937
20
0.8908956692913386
11
0.1935582677165354
21
0.8894
0
LINE
8
BLACK
6
CONTINUOUS
10
0.1935582677165354
20
0.8894
11
0.2064417322834646
21
0.8894
0
LINE
8
BLACK
6
CONTINUOUS
10
0.2064417322834646
20
0.8894
11
0.219238031496063
21
0.8908956692913386
0
LINE
8
BLACK
6
CONTINUOUS
10
0.219238031496063
20
0.8908956692913386
11
0.2317742125984252
21
0.893866811023622
0
LINE
8
BLACK
6
CONTINUOUS
10
0.2317742125984252
20
0.893866811023622
11
0.2438806692913386
21
0.898273188976378
0
LINE
8
BLACK
6
CONTINUOUS
10
0.2438806692913386
20
0.898273188976378
11
0.2553937401574803
21
0.9040552755905512
0
LINE
8
BLACK
6
CONTINUOUS
10
0.2553937401574803
20
0.9040552755905512
11
0.2661576771653543
21
0.911134842519685
0
LINE
8
BLACK
6
CONTINUOUS
10
0.2661576771653543
20
0.911134842519685
11
0.276026968503937
21
0.9194161417322835
0
LINE
8
BLACK
6
CONTINUOUS
10
0.276026968503937
20
0.9194161417322835
11
0.2848681102362204
21
0.9287872047244095
0
LINE
8
BLACK
6
CONTINUOUS
10
0.2848681102362204
20
0.9287872047244095
11
0.2925615748031496
21
0.9391212992125985
0
LINE
8
BLACK
6
CONTINUOUS
10
0.2925615748031496
20
0.9391212992125985
11
0.2990032677165354
21
0.9502787007874015
0
LINE
8
BLACK
6
CONTINUOUS
10
0.2990032677165354
20
0.9502787007874015
11
0.3041061417322835
21
0.9621084645669291
0
LINE
8
BLACK
6
CONTINUOUS
10
0.3041061417322835
20
0.9621084645669291
11
0.3078011417322835
21
0.9744506692913386
0
LINE
8
BLACK
6
CONTINUOUS
10
0.3078011417322835
20
0.9744506692913386
11
0.3100383464566929
21
0.9871383464566929
0
LINE
8
BLACK
6
CONTINUOUS
10
0.3100383464566929
20
0.9871383464566929
11
0.3107874409448819
21
1.
0
LINE
8
BLACK
6
CONTINUOUS
10
0.3107874409448819
20
1.
11
0.3100383464566929
21
1.012861653543307
0
LINE
8
BLACK
6
CONTINUOUS
10
0.3100383464566929
20
1.012861653543307
11
0.3078011417322835
21
1.0255493307086614
0
LINE
8
BLACK
6
CONTINUOUS
10
0.3078011417322835
20
1.0255493307086614
11
0.3041061417322835
21
1.0378915354330709
0
LINE
8
BLACK
6
CONTINUOUS
10
0.3041061417322835
20
1.0378915354330709
11
0.2990032677165354
21
1.0497212992125984
0
LINE
8
BLACK
6
CONTINUOUS
10
0.2990032677165354
20
1.0497212992125984
11
0.2925615748031496
21
1.0608787007874017
0
LINE
8
BLACK
6
CONTINUOUS
10
0.2925615748031496
20
1.0608787007874017
11
0.2848681102362204
21
1.0712127952755905
0
LINE
8
BLACK
6
CONTINUOUS
10
0.2848681102362204
20
1.0712127952755905
11
0.276026968503937
21
1.0805838582677165
0
LINE
8
BLACK
6
CONTINUOUS
10
0.276026968503937
20
1.0805838582677165
11
0.2661576771653543
21
1.088865157480315
0
LINE
8
BLACK
6
CONTINUOUS
10
0.2661576771653543
20
1.088865157480315
11
0.2553937401574803
21
1.0959447244094489
0
LINE
8
BLACK
6
CONTINUOUS
10
0.2553937401574803
20
1.0959447244094489
11
0.2438806692913386
21
1.101726811023622
0
LINE
8
BLACK
6
CONTINUOUS
10
0.2438806692913386
20
1.101726811023622
11
0.2317742125984252
21
1.1061331889763779
0
LINE
8
BLACK
6
CONTINUOUS
10
0.2317742125984252
20
1.1061331889763779
11
0.219238031496063
21
1.1091043307086614
0
LINE
8
BLACK
6
CONTINUOUS
10
0.219238031496063
20
1.1091043307086614
11
0.2064417322834646
21
1.1106
0
LINE
8
BLACK
6
CONTINUOUS
10
0.2064417322834646
20
1.1106
11
0.1935582677165354
21
1.1106
0
LINE
8
BLACK
6
CONTINUOUS
10
0.1935582677165354
20
1.1106
11
0.180761968503937
21
1.1091043307086614
0
LINE
8
BLACK
6
CONTINUOUS
10
0.180761968503937
20
1.1091043307086614
11
0.1682257874015748
21
1.1061331889763779
0
LINE
8
BLACK
6
CONTINUOUS
10
0.1682257874015748
20
1.1061331889763779
11
0.1561193307086614
21
1.101726811023622
0
LINE
8
BLACK
6
CONTINUOUS
10
0.1561193307086614
20
1.101726811023622
11
0.1446062598425197
21
1.0959447244094489
0
LINE
8
BLACK
6
CONTINUOUS
10
0.1446062598425197
20
1.0959447244094489
11
0.1338423228346457
21
1.088865157480315
0
LINE
8
BLACK
6
CONTINUOUS
10
0.1338423228346457
20
1.088865157480315
11
0.123973031496063
21
1.0805838582677165
0
LINE
8
BLACK
6
CONTINUOUS
10
0.123973031496063
20
1.0805838582677165
11
0.1151318897637795
21
1.0712127952755905
0
LINE
8
BLACK
6
CONTINUOUS
10
0.1151318897637795
20
1.0712127952755905
11
0.1074384251968504
21
1.0608787007874017
0
LINE
8
BLACK
6
CONTINUOUS
10
0.1074384251968504
20
1.0608787007874017
11
0.1009967322834646
21
1.0497212992125984
0
LINE
8
BLACK
6
CONTINUOUS
10
0.1009967322834646
20
1.0497212992125984
11
0.0958938582677165
21
1.0378915354330709
0
LINE
8
BLACK
6
CONTINUOUS
10
0.0958938582677165
20
1.0378915354330709
11
0.0921988582677165
21
1.0255493307086614
0
LINE
8
BLACK
6
CONTINUOUS
10
0.0921988582677165
20
1.0255493307086614
11
0.0899616535433071
21
1.012861653543307
0
LINE
8
BLACK
6
CONTINUOUS
10
0.0899616535433071
20
1.012861653543307
11
0.0892125590551181
21
1.
0
LINE
8
BLACK
6
CONTINUOUS
10
0.0892125590551181
20
1.
11
0.0899616535433071
21
0.9871383464566929
0
LINE
8
BLACK
6
CONTINUOUS
10
1.8140627559055118
20
1.1248102362204724
11
1.8279486220472441
21
1.1224509448818898
0
LINE
8
BLACK
6
CONTINUOUS
10
1.8279486220472441
20
1.1224509448818898
11
1.8414830314960628
21
1.1185517322834646
0
LINE
8
BLACK
6
CONTINUOUS
10
1.8414830314960628
20
1.1185517322834646
11
1.8544957874015748
21
1.1131616929133858
0
LINE
8
BLACK
6
CONTINUOUS
10
1.8544957874015748
20
1.1131616929133858
11
1.8668232283464568
21
1.1063485433070865
0
LINE
8
BLACK
6
CONTINUOUS
10
1.8668232283464568
20
1.1063485433070865
11
1.8783103149606299
21
1.0981980314960629
0
LINE
8
BLACK
6
CONTINUOUS
10
1.8783103149606299
20
1.0981980314960629
11
1.8888125984251969
21
1.0888125984251968
0
LINE
8
BLACK
6
CONTINUOUS
10
1.8888125984251969
20
1.0888125984251968
11
1.8981980314960629
21
1.0783103149606299
0
LINE
8
BLACK
6
CONTINUOUS
10
1.8981980314960629
20
1.0783103149606299
11
1.9063485433070866
21
1.0668232283464567
0
LINE
8
BLACK
6
CONTINUOUS
10
1.9063485433070866
20
1.0668232283464567
11
1.9131616929133859
21
1.0544957874015748
0
LINE
8
BLACK
6
CONTINUOUS
10
1.9131616929133859
20
1.0544957874015748
11
1.9185517322834644
21
1.041483031496063
0
LINE
8
BLACK
6
CONTINUOUS
10
1.9185517322834644
20
1.041483031496063
11
1.9224509448818896
21
1.027948622047244
0
LINE
8
BLACK
6
CONTINUOUS
10
1.9224509448818896
20
1.027948622047244
11
1.9248102362204724
21
1.0140627559055118
0
LINE
8
BLACK
6
CONTINUOUS
10
1.9248102362204724
20
1.0140627559055118
11
1.9256
21
1.
0
LINE
8
BLACK
6
CONTINUOUS
10
1.9256
20
1.
11
1.9248102362204724
21
0.9859372440944881
0
LINE
8
BLACK
6
CONTINUOUS
10
1.9248102362204724
20
0.9859372440944881
11
1.9224509448818896
21
0.9720513779527559
0
LINE
8
BLACK
6
CONTINUOUS
10
1.9224509448818896
20
0.9720513779527559
11
1.9185517322834644
21
0.958516968503937
0
LINE
8
BLACK
6
CONTINUOUS
10
1.9185517322834644
20
0.958516968503937
11
1.9131616929133859
21
0.9455042125984252
0
LINE
8
BLACK
6
CONTINUOUS
10
1.9131616929133859
20
0.9455042125984252
11
1.9063485433070866
21
0.9331767716535433
0
LINE
8
BLACK
6
CONTINUOUS
10
1.9063485433070866
20
0.9331767716535433
11
1.8981980314960629
21
0.9216896850393701
0
LINE
8
BLACK
6
CONTINUOUS
10
1.8981980314960629
20
0.9216896850393701
11
1.8888125984251969
21
0.9111874015748032
0
LINE
8
BLACK
6
CONTINUOUS
10
1.8888125984251969
20
0.9111874015748032
11
1.8783103149606299
21
0.901801968503937
0
LINE
8
BLACK
6
CONTINUOUS
10
1.8783103149606299
20
0.901801968503937
11
1.8668232283464568
21
0.8936514566929133
0
LINE
8
BLACK
6
CONTINUOUS
10
1.8668232283464568
20
0.8936514566929133
11
1.8544957874015748
21
0.8868383070866142
0
LINE
8
BLACK
6
CONTINUOUS
10
1.8544957874015748
20
0.8868383070866142
11
1.8414830314960628
21
0.8814482677165354
0
LINE
8
BLACK
6
CONTINUOUS
10
1.8414830314960628
20
0.8814482677165354
11
1.8279486220472441
21
0.8775490551181102
0
LINE
8
BLACK
6
CONTINUOUS
10
1.8279486220472441
20
0.8775490551181102
11
1.8140627559055118
21
0.8751897637795275
0
LINE
8
BLACK
6
CONTINUOUS
10
1.8140627559055118
20
0.8751897637795275
11
1.8
21
0.8744
0
LINE
8
BLACK
6
CONTINUOUS
10
1.8
20
0.8744
11
1.7859372440944881
21
0.8751897637795275
0
LINE
8
BLACK
6
CONTINUOUS
10
1.7859372440944881
20
0.8751897637795275
11
1.7720513779527558
21
0.8775490551181102
0
LINE
8
BLACK
6
CONTINUOUS
10
1.7720513779527558
20
0.8775490551181102
11
1.758516968503937
21
0.8814482677165354
0
LINE
8
BLACK
6
CONTINUOUS
10
1.758516968503937
20
0.8814482677165354
11
1.7455042125984253
21
0.8868383070866142
0
LINE
8
BLACK
6
CONTINUOUS
10
1.7455042125984253
20
0.8868383070866142
11
1.7331767716535433
21
0.8936514566929133
0
LINE
8
BLACK
6
CONTINUOUS
10
1.7331767716535433
20
0.8936514566929133
11
1.7216896850393701
21
0.901801968503937
0
LINE
8
BLACK
6
CONTINUOUS
10
1.7216896850393701
20
0.901801968503937
11
1.7111874015748032
21
0.9111874015748032
0
LINE
8
BLACK
6
CONTINUOUS
10
1.7111874015748032
20
0.9111874015748032
11
1.7018019685039369
21
0.9216896850393701
0
LINE
8
BLACK
6
CONTINUOUS
10
1.7018019685039369
20
0.9216896850393701
11
1.6936514566929133
21
0.9331767716535433
0
LINE
8
BLACK
6
CONTINUOUS
10
1.6936514566929133
20
0.9331767716535433
11
1.6868383070866142
21
0.9455042125984252
0
LINE
8
BLACK
6
CONTINUOUS
10
1.6868383070866142
20
0.9455042125984252
11
1.6814482677165354
21
0.958516968503937
0
LINE
8
BLACK
6
CONTINUOUS
10
1.6814482677165354
20
0.958516968503937
11
1.6775490551181103
21
0.9720513779527559
0
LINE
8
BLACK
6
CONTINUOUS
10
1.6775490551181103
20
0.9720513779527559
11
1.6751897637795274
21
0.9859372440944881
0
LINE
8
BLACK
6
CONTINUOUS
10
1.6751897637795274
20
0.9859372440944881
11
1.6743999999999999
21
1.
0
LINE
8
BLACK
6
CONTINUOUS
10
1.6743999999999999
20
1.
11
1.6751897637795274
21
1.0140627559055118
0
LINE
8
BLACK
6
CONTINUOUS
10
1.6751897637795274
20
1.0140627559055118
11
1.6775490551181103
21
1.027948622047244
0
LINE
8
BLACK
6
CONTINUOUS
10
1.6775490551181103
20
1.027948622047244
11
1.6814482677165354
21
1.041483031496063
0
LINE
8
BLACK
6
CONTINUOUS
10
1.6814482677165354
20
1.041483031496063
11
1.6868383070866142
21
1.0544957874015748
0
LINE
8
BLACK
6
CONTINUOUS
10
1.6868383070866142
20
1.0544957874015748
11
1.6936514566929133
21
1.0668232283464567
0
LINE
8
BLACK
6
CONTINUOUS
10
1.6936514566929133
20
1.0668232283464567
11
1.7018019685039369
21
1.0783103149606299
0
LINE
8
BLACK
6
CONTINUOUS
10
1.7018019685039369
20
1.0783103149606299
11
1.7111874015748032
21
1.0888125984251968
0
LINE
8
BLACK
6
CONTINUOUS
10
1.7111874015748032
20
1.0888125984251968
11
1.7216896850393701
21
1.0981980314960629
0
LINE
8
BLACK
6
CONTINUOUS
10
1.7216896850393701
20
1.0981980314960629
11
1.7331767716535433
21
1.1063485433070865
0
LINE
8
BLACK
6
CONTINUOUS
10
1.7331767716535433
20
1.1063485433070865
11
1.7455042125984253
21
1.1131616929133858
0
LINE
8
BLACK
6
CONTINUOUS
10
1.7455042125984253
20
1.1131616929133858
11
1.758516968503937
21
1.1185517322834646
0
LINE
8
BLACK
6
CONTINUOUS
10
1.758516968503937
20
1.1185517322834646
11
1.7720513779527558
21
1.1224509448818898
0
LINE
8
BLACK
6
CONTINUOUS
10
1.7720513779527558
20
1.1224509448818898
11
1.7859372440944881
21
1.1248102362204724
0
LINE
8
BLACK
6
CONTINUOUS
10
1.7859372440944881
20
1.1248102362204724
11
1.8
21
1.1255999999999999
0
LINE
8
BLACK
6
CONTINUOUS
10
1.8
20
1.1255999999999999
11
1.8140627559055118
21
1.1248102362204724
0
LINE
8
BLACK
6
CONTINUOUS
10
1.6899616535433071
20
0.9871383464566929
11
1.6921988582677165
21
0.9744506692913386
0
LINE
8
BLACK
6
CONTINUOUS
10
1.6921988582677165
20
0.9744506692913386
11
1.6958938582677165
21
0.9621084645669291
0
LINE
8
BLACK
6
CONTINUOUS
10
1.6958938582677165
20
0.9621084645669291
11
1.7009967322834645
21
0.9502787007874015
0
LINE
8
BLACK
6
CONTINUOUS
10
1.7009967322834645
20
0.9502787007874015
11
1.7074384251968504
21
0.9391212992125985
0
LINE
8
BLACK
6
CONTINUOUS
10
1.7074384251968504
20
0.9391212992125985
11
1.7151318897637795
21
0.9287872047244095
0
LINE
8
BLACK
6
CONTINUOUS
10
1.7151318897637795
20
0.9287872047244095
11
1.7239730314960628
21
0.9194161417322835
0
LINE
8
BLACK
6
CONTINUOUS
10
1.7239730314960628
20
0.9194161417322835
11
1.7338423228346456
21
0.911134842519685
0
LINE
8
BLACK
6
CONTINUOUS
10
1.7338423228346456
20
0.911134842519685
11
1.7446062598425196
21
0.9040552755905512
0
LINE
8
BLACK
6
CONTINUOUS
10
1.7446062598425196
20
0.9040552755905512
11
1.7561193307086613
21
0.898273188976378
0
LINE
8
BLACK
6
CONTINUOUS
10
1.7561193307086613
20
0.898273188976378
11
1.7682257874015748
21
0.893866811023622
0
LINE
8
BLACK
6
CONTINUOUS
10
1.7682257874015748
20
0.893866811023622
11
1.7807619685039369
21
0.8908956692913386
0
LINE
8
BLACK
6
CONTINUOUS
10
1.7807619685039369
20
0.8908956692913386
11
1.7935582677165354
21
0.8894
0
LINE
8
BLACK
6
CONTINUOUS
10
1.7935582677165354
20
0.8894
11
1.8064417322834645
21
0.8894
0
LINE
8
BLACK
6
CONTINUOUS
10
1.8064417322834645
20
0.8894
11
1.819238031496063
21
0.8908956692913386
0
LINE
8
BLACK
6
CONTINUOUS
10
1.819238031496063
20
0.8908956692913386
11
1.8317742125984251
21
0.893866811023622
0
LINE
8
BLACK
6
CONTINUOUS
10
1.8317742125984251
20
0.893866811023622
11
1.8438806692913385
21
0.898273188976378
0
LINE
8
BLACK
6
CONTINUOUS
10
1.8438806692913385
20
0.898273188976378
11
1.8553937401574803
21
0.9040552755905512
0
LINE
8
BLACK
6
CONTINUOUS
10
1.8553937401574803
20
0.9040552755905512
11
1.8661576771653543
21
0.911134842519685
0
LINE
8
BLACK
6
CONTINUOUS
10
1.8661576771653543
20
0.911134842519685
11
1.876026968503937
21
0.9194161417322835
0
LINE
8
BLACK
6
CONTINUOUS
10
1.876026968503937
20
0.9194161417322835
11
1.8848681102362204
21
0.9287872047244095
0
LINE
8
BLACK
6
CONTINUOUS
10
1.8848681102362204
20
0.9287872047244095
11
1.8925615748031495
21
0.9391212992125985
0
LINE
8
BLACK
6
CONTINUOUS
10
1.8925615748031495
20
0.9391212992125985
11
1.8990032677165354
21
0.9502787007874015
0
LINE
8
BLACK
6
CONTINUOUS
10
1.8990032677165354
20
0.9502787007874015
11
1.9041061417322833
21
0.9621084645669291
0
LINE
8
BLACK
6
CONTINUOUS
10
1.9041061417322833
20
0.9621084645669291
11
1.9078011417322833
21
0.9744506692913386
0
LINE
8
BLACK
6
CONTINUOUS
10
1.9078011417322833
20
0.9744506692913386
11
1.9100383464566928
21
0.9871383464566929
0
LINE
8
BLACK
6
CONTINUOUS
10
1.9100383464566928
20
0.9871383464566929
11
1.910787440944882
21
1.
0
LINE
8
BLACK
6
CONTINUOUS
10
1.910787440944882
20
1.
11
1.9100383464566928
21
1.012861653543307
0
LINE
8
BLACK
6
CONTINUOUS
10
1.9100383464566928
20
1.012861653543307
11
1.9078011417322833
21
1.0255493307086614
0
LINE
8
BLACK
6
CONTINUOUS
10
1.9078011417322833
20
1.0255493307086614
11
1.9041061417322833
21
1.0378915354330709
0
LINE
8
BLACK
6
CONTINUOUS
10
1.9041061417322833
20
1.0378915354330709
11
1.8990032677165354
21
1.0497212992125984
0
LINE
8
BLACK
6
CONTINUOUS
10
1.8990032677165354
20
1.0497212992125984
11
1.8925615748031495
21
1.0608787007874017
0
LINE
8
BLACK
6
CONTINUOUS
10
1.8925615748031495
20
1.0608787007874017
11
1.8848681102362204
21
1.0712127952755905
0
LINE
8
BLACK
6
CONTINUOUS
10
1.8848681102362204
20
1.0712127952755905
11
1.876026968503937
21
1.0805838582677165
0
LINE
8
BLACK
6
CONTINUOUS
10
1.876026968503937
20
1.0805838582677165
11
1.8661576771653543
21
1.088865157480315
0
LINE
8
BLACK
6
CONTINUOUS
10
1.8661576771653543
20
1.088865157480315
11
1.8553937401574803
21
1.0959447244094489
0
LINE
8
BLACK
6
CONTINUOUS
10
1.8553937401574803
20
1.0959447244094489
11
1.8438806692913385
21
1.101726811023622
0
LINE
8
BLACK
6
CONTINUOUS
10
1.8438806692913385
20
1.101726811023622
11
1.8317742125984251
21
1.1061331889763779
0
LINE
8
BLACK
6
CONTINUOUS
10
1.8317742125984251
20
1.1061331889763779
11
1.819238031496063
21
1.1091043307086614
0
LINE
8
BLACK
6
CONTINUOUS
10
1.819238031496063
20
1.1091043307086614
11
1.8064417322834645
21
1.1106
0
LINE
8
BLACK
6
CONTINUOUS
10
1.8064417322834645
20
1.1106
11
1.7935582677165354
21
1.1106
0
LINE
8
BLACK
6
CONTINUOUS
10
1.7935582677165354
20
1.1106
11
1.7807619685039369
21
1.1091043307086614
0
LINE
8
BLACK
6
CONTINUOUS
10
1.7807619685039369
20
1.1091043307086614
11
1.7682257874015748
21
1.1061331889763779
0
LINE
8
BLACK
6
CONTINUOUS
10
1.7682257874015748
20
1.1061331889763779
11
1.7561193307086613
21
1.101726811023622
0
LINE
8
BLACK
6
CONTINUOUS
10
1.7561193307086613
20
1.101726811023622
11
1.7446062598425196
21
1.0959447244094489
0
LINE
8
BLACK
6
CONTINUOUS
10
1.7446062598425196
20
1.0959447244094489
11
1.7338423228346456
21
1.088865157480315
0
LINE
8
BLACK
6
CONTINUOUS
10
1.7338423228346456
20
1.088865157480315
11
1.7239730314960628
21
1.0805838582677165
0
LINE
8
BLACK
6
CONTINUOUS
10
1.7239730314960628
20
1.0805838582677165
11
1.7151318897637795
21
1.0712127952755905
0
LINE
8
BLACK
6
CONTINUOUS
10
1.7151318897637795
20
1.0712127952755905
11
1.7074384251968504
21
1.0608787007874017
0
LINE
8
BLACK
6
CONTINUOUS
10
1.7074384251968504
20
1.0608787007874017
11
1.7009967322834645
21
1.0497212992125984
0
LINE
8
BLACK
6
CONTINUOUS
10
1.7009967322834645
20
1.0497212992125984
11
1.6958938582677165
21
1.0378915354330709
0
LINE
8
BLACK
6
CONTINUOUS
10
1.6958938582677165
20
1.0378915354330709
11
1.6921988582677165
21
1.0255493307086614
0
LINE
8
BLACK
6
CONTINUOUS
10
1.6921988582677165
20
1.0255493307086614
11
1.6899616535433071
21
1.012861653543307
0
LINE
8
BLACK
6
CONTINUOUS
10
1.6899616535433071
20
1.012861653543307
11
1.6892125590551181
21
1.
0
LINE
8
BLACK
6
CONTINUOUS
10
1.6892125590551181
20
1.
11
1.6899616535433071
21
0.9871383464566929
  0
ENDSEC
  0
EOF
