  0
SECTION
  2
HEADER
  9
$ANGBASE
  50
0.0
  9
$ANGDIR
  70
1
  9
$MEASUREMENT
  70
0
  0
ENDSEC
  0
SECTION
  2
TABLES
  0
TABLE
  2
LTYPE
  70
4
  0
LTYPE
  5
40F
  2
CONTINUOUS
  70
0
  3
Solid line
  72
65
  73
0
  40
0.0
  0
LTYPE
  5
410
  2
DASHDOT
 70
0
  3
Dash Dot ____ _ ____ _
 72
65
 73
4
 40
2.0
 49
1.25
 49
-0.25
 49
0.25
 49
-0.25
  0
LTYPE
  5
411
  2
DASHED
 70
0
  3
Dashed __ __ __ __ __
 72
65
 73
2
 40
0.75
 49
0.5
 49
-0.25
  0
LTYPE
  5
43B
  2
DOTTED
 70
0
  3
Dotted .  .  .  .
 72
65
 73
2
 40
0.2
 49
0.0
 49
-0.2
  0
ENDTAB
  0
TABLE
  2
STYLE
  70
4
  0
STYLE
  2
KICAD
  70
0
  40
0
  41
1
  42
1
  50
0
  71
0
  3
isocp.shx
  0
STYLE
  2
KICADB
  70
0
  40
0
  41
1
  42
1
  50
0
  71
0
  3
isocp.shx
  0
STYLE
  2
KICADI
  70
0
  40
0
  41
1
  42
1
  50
15
  71
0
  3
isocp.shx
  0
STYLE
  2
KICADBI
  70
0
  40
0
  41
1
  42
1
  50
15
  71
0
  3
isocp.shx
  0
ENDTAB
  0
TABLE
  2
LAYER
  70
1
  0
LAYER
  2
BLACK
  70
0
  62
7
  6
CONTINUOUS
  0
ENDTAB
  0
ENDSEC
  0
SECTION
  2
ENTITIES
0
LINE
8
BLACK
6
CONTINUOUS
10
1.1274999999999999
20
0.285
11
1.0725
21
0.285
0
LINE
8
BLACK
6
CONTINUOUS
10
1.0725
20
0.285
11
1.0725
21
0.32
0
LINE
8
BLACK
6
CONTINUOUS
10
1.0725
20
0.32
11
1.1274999999999999
21
0.32
0
LINE
8
BLACK
6
CONTINUOUS
10
1.1274999999999999
20
0.32
11
1.1274999999999999
21
0.285
0
LINE
8
BLACK
6
CONTINUOUS
10
1.2175
20
0.285
11
1.1624999999999999
21
0.285
0
LINE
8
BLACK
6
CONTINUOUS
10
1.1624999999999999
20
0.285
11
1.1624999999999999
21
0.32
0
LINE
8
BLACK
6
CONTINUOUS
10
1.1624999999999999
20
0.32
11
1.2175
21
0.32
0
LINE
8
BLACK
6
CONTINUOUS
10
1.2175
20
0.32
11
1.2175
21
0.285
0
LINE
8
BLACK
6
CONTINUOUS
10
1.2974999999999999
20
0.285
11
1.2424999999999999
21
0.285
0
LINE
8
BLACK
6
CONTINUOUS
10
1.2424999999999999
20
0.285
11
1.2424999999999999
21
0.32
0
LINE
8
BLACK
6
CONTINUOUS
10
1.2424999999999999
20
0.32
11
1.2974999999999999
21
0.32
0
LINE
8
BLACK
6
CONTINUOUS
10
1.2974999999999999
20
0.32
11
1.2974999999999999
21
0.285
0
LINE
8
BLACK
6
CONTINUOUS
10
1.4399999999999999
20
0.3125
11
1.405
21
0.3125
0
LINE
8
BLACK
6
CONTINUOUS
10
1.405
20
0.3125
11
1.405
21
0.3675
0
LINE
8
BLACK
6
CONTINUOUS
10
1.405
20
0.3675
11
1.4399999999999999
21
0.3675
0
LINE
8
BLACK
6
CONTINUOUS
10
1.4399999999999999
20
0.3675
11
1.4399999999999999
21
0.3125
0
LINE
8
BLACK
6
CONTINUOUS
10
1.5149999999999999
20
0.3125
11
1.48
21
0.3125
0
LINE
8
BLACK
6
CONTINUOUS
10
1.48
20
0.3125
11
1.48
21
0.3675
0
LINE
8
BLACK
6
CONTINUOUS
10
1.48
20
0.3675
11
1.5149999999999999
21
0.3675
0
LINE
8
BLACK
6
CONTINUOUS
10
1.5149999999999999
20
0.3675
11
1.5149999999999999
21
0.3125
0
LINE
8
BLACK
6
CONTINUOUS
10
1.6475
20
0.315
11
1.5925
21
0.315
0
LINE
8
BLACK
6
CONTINUOUS
10
1.5925
20
0.315
11
1.5925
21
0.35
0
LINE
8
BLACK
6
CONTINUOUS
10
1.5925
20
0.35
11
1.6475
21
0.35
0
LINE
8
BLACK
6
CONTINUOUS
10
1.6475
20
0.35
11
1.6475
21
0.315
0
LINE
8
BLACK
6
CONTINUOUS
10
1.1274999999999999
20
0.36
11
1.0725
21
0.36
0
LINE
8
BLACK
6
CONTINUOUS
10
1.0725
20
0.36
11
1.0725
21
0.395
0
LINE
8
BLACK
6
CONTINUOUS
10
1.0725
20
0.395
11
1.1274999999999999
21
0.395
0
LINE
8
BLACK
6
CONTINUOUS
10
1.1274999999999999
20
0.395
11
1.1274999999999999
21
0.36
0
LINE
8
BLACK
6
CONTINUOUS
10
1.2175
20
0.36
11
1.1624999999999999
21
0.36
0
LINE
8
BLACK
6
CONTINUOUS
10
1.1624999999999999
20
0.36
11
1.1624999999999999
21
0.395
0
LINE
8
BLACK
6
CONTINUOUS
10
1.1624999999999999
20
0.395
11
1.2175
21
0.395
0
LINE
8
BLACK
6
CONTINUOUS
10
1.2175
20
0.395
11
1.2175
21
0.36
0
LINE
8
BLACK
6
CONTINUOUS
10
1.2974999999999999
20
0.36
11
1.2424999999999999
21
0.36
0
LINE
8
BLACK
6
CONTINUOUS
10
1.2424999999999999
20
0.36
11
1.2424999999999999
21
0.395
0
LINE
8
BLACK
6
CONTINUOUS
10
1.2424999999999999
20
0.395
11
1.2974999999999999
21
0.395
0
LINE
8
BLACK
6
CONTINUOUS
10
1.2974999999999999
20
0.395
11
1.2974999999999999
21
0.36
0
LINE
8
BLACK
6
CONTINUOUS
10
1.6475
20
0.39
11
1.5925
21
0.39
0
LINE
8
BLACK
6
CONTINUOUS
10
1.5925
20
0.39
11
1.5925
21
0.425
0
LINE
8
BLACK
6
CONTINUOUS
10
1.5925
20
0.425
11
1.6475
21
0.425
0
LINE
8
BLACK
6
CONTINUOUS
10
1.6475
20
0.425
11
1.6475
21
0.39
0
LINE
8
BLACK
6
CONTINUOUS
10
1.5274999999999999
20
0.415
11
1.4724999999999999
21
0.415
0
LINE
8
BLACK
6
CONTINUOUS
10
1.4724999999999999
20
0.415
11
1.4724999999999999
21
0.45
0
LINE
8
BLACK
6
CONTINUOUS
10
1.4724999999999999
20
0.45
11
1.5274999999999999
21
0.45
0
LINE
8
BLACK
6
CONTINUOUS
10
1.5274999999999999
20
0.45
11
1.5274999999999999
21
0.415
0
LINE
8
BLACK
6
CONTINUOUS
10
1.1675
20
0.435
11
1.1225000000000001
21
0.435
0
LINE
8
BLACK
6
CONTINUOUS
10
1.1225000000000001
20
0.435
11
1.1225000000000001
21
0.455
0
LINE
8
BLACK
6
CONTINUOUS
10
1.1225000000000001
20
0.455
11
1.1675
21
0.455
0
LINE
8
BLACK
6
CONTINUOUS
10
1.1675
20
0.455
11
1.1675
21
0.435
0
LINE
8
BLACK
6
CONTINUOUS
10
1.4175
20
0.435
11
1.3725000000000001
21
0.435
0
LINE
8
BLACK
6
CONTINUOUS
10
1.3725000000000001
20
0.435
11
1.3725000000000001
21
0.455
0
LINE
8
BLACK
6
CONTINUOUS
10
1.3725000000000001
20
0.455
11
1.4175
21
0.455
0
LINE
8
BLACK
6
CONTINUOUS
10
1.4175
20
0.455
11
1.4175
21
0.435
0
LINE
8
BLACK
6
CONTINUOUS
10
1.0149999999999999
20
0.4575
11
0.98
21
0.4575
0
LINE
8
BLACK
6
CONTINUOUS
10
0.98
20
0.4575
11
0.98
21
0.5125
0
LINE
8
BLACK
6
CONTINUOUS
10
0.98
20
0.5125
11
1.0149999999999999
21
0.5125
0
LINE
8
BLACK
6
CONTINUOUS
10
1.0149999999999999
20
0.5125
11
1.0149999999999999
21
0.4575
0
LINE
8
BLACK
6
CONTINUOUS
10
1.0900000000000001
20
0.4575
11
1.0549999999999999
21
0.4575
0
LINE
8
BLACK
6
CONTINUOUS
10
1.0549999999999999
20
0.4575
11
1.0549999999999999
21
0.5125
0
LINE
8
BLACK
6
CONTINUOUS
10
1.0549999999999999
20
0.5125
11
1.0900000000000001
21
0.5125
0
LINE
8
BLACK
6
CONTINUOUS
10
1.0900000000000001
20
0.5125
11
1.0900000000000001
21
0.4575
0
LINE
8
BLACK
6
CONTINUOUS
10
1.1675
20
0.485
11
1.1225000000000001
21
0.485
0
LINE
8
BLACK
6
CONTINUOUS
10
1.1225000000000001
20
0.485
11
1.1225000000000001
21
0.505
0
LINE
8
BLACK
6
CONTINUOUS
10
1.1225000000000001
20
0.505
11
1.1675
21
0.505
0
LINE
8
BLACK
6
CONTINUOUS
10
1.1675
20
0.505
11
1.1675
21
0.485
0
LINE
8
BLACK
6
CONTINUOUS
10
1.4175
20
0.485
11
1.3725000000000001
21
0.485
0
LINE
8
BLACK
6
CONTINUOUS
10
1.3725000000000001
20
0.485
11
1.3725000000000001
21
0.505
0
LINE
8
BLACK
6
CONTINUOUS
10
1.3725000000000001
20
0.505
11
1.4175
21
0.505
0
LINE
8
BLACK
6
CONTINUOUS
10
1.4175
20
0.505
11
1.4175
21
0.485
0
LINE
8
BLACK
6
CONTINUOUS
10
1.5274999999999999
20
0.49
11
1.4724999999999999
21
0.49
0
LINE
8
BLACK
6
CONTINUOUS
10
1.4724999999999999
20
0.49
11
1.4724999999999999
21
0.525
0
LINE
8
BLACK
6
CONTINUOUS
10
1.4724999999999999
20
0.525
11
1.5274999999999999
21
0.525
0
LINE
8
BLACK
6
CONTINUOUS
10
1.5274999999999999
20
0.525
11
1.5274999999999999
21
0.49
0
LINE
8
BLACK
6
CONTINUOUS
10
1.6775
20
0.495
11
1.6225000000000001
21
0.495
0
LINE
8
BLACK
6
CONTINUOUS
10
1.6225000000000001
20
0.495
11
1.6225000000000001
21
0.53
0
LINE
8
BLACK
6
CONTINUOUS
10
1.6225000000000001
20
0.53
11
1.6775
21
0.53
0
LINE
8
BLACK
6
CONTINUOUS
10
1.6775
20
0.53
11
1.6775
21
0.495
0
LINE
8
BLACK
6
CONTINUOUS
10
0.7999999999999999
20
0.5024999999999999
11
0.765
21
0.5024999999999999
0
LINE
8
BLACK
6
CONTINUOUS
10
0.765
20
0.5024999999999999
11
0.765
21
0.5575
0
LINE
8
BLACK
6
CONTINUOUS
10
0.765
20
0.5575
11
0.7999999999999999
21
0.5575
0
LINE
8
BLACK
6
CONTINUOUS
10
0.7999999999999999
20
0.5575
11
0.7999999999999999
21
0.5024999999999999
0
LINE
8
BLACK
6
CONTINUOUS
10
0.875
20
0.5024999999999999
11
0.84
21
0.5024999999999999
0
LINE
8
BLACK
6
CONTINUOUS
10
0.84
20
0.5024999999999999
11
0.84
21
0.5575
0
LINE
8
BLACK
6
CONTINUOUS
10
0.84
20
0.5575
11
0.875
21
0.5575
0
LINE
8
BLACK
6
CONTINUOUS
10
0.875
20
0.5575
11
0.875
21
0.5024999999999999
0
LINE
8
BLACK
6
CONTINUOUS
10
1.1675
20
0.535
11
1.1225000000000001
21
0.535
0
LINE
8
BLACK
6
CONTINUOUS
10
1.1225000000000001
20
0.535
11
1.1225000000000001
21
0.5549999999999999
0
LINE
8
BLACK
6
CONTINUOUS
10
1.1225000000000001
20
0.5549999999999999
11
1.1675
21
0.5549999999999999
0
LINE
8
BLACK
6
CONTINUOUS
10
1.1675
20
0.5549999999999999
11
1.1675
21
0.535
0
LINE
8
BLACK
6
CONTINUOUS
10
1.4175
20
0.535
11
1.3725000000000001
21
0.535
0
LINE
8
BLACK
6
CONTINUOUS
10
1.3725000000000001
20
0.535
11
1.3725000000000001
21
0.5549999999999999
0
LINE
8
BLACK
6
CONTINUOUS
10
1.3725000000000001
20
0.5549999999999999
11
1.4175
21
0.5549999999999999
0
LINE
8
BLACK
6
CONTINUOUS
10
1.4175
20
0.5549999999999999
11
1.4175
21
0.535
0
LINE
8
BLACK
6
CONTINUOUS
10
1.51
20
0.5625
11
1.4749999999999999
21
0.5625
0
LINE
8
BLACK
6
CONTINUOUS
10
1.4749999999999999
20
0.5625
11
1.4749999999999999
21
0.6174999999999999
0
LINE
8
BLACK
6
CONTINUOUS
10
1.4749999999999999
20
0.6174999999999999
11
1.51
21
0.6174999999999999
0
LINE
8
BLACK
6
CONTINUOUS
10
1.51
20
0.6174999999999999
11
1.51
21
0.5625
0
LINE
8
BLACK
6
CONTINUOUS
10
1.585
20
0.5625
11
1.55
21
0.5625
0
LINE
8
BLACK
6
CONTINUOUS
10
1.55
20
0.5625
11
1.55
21
0.6174999999999999
0
LINE
8
BLACK
6
CONTINUOUS
10
1.55
20
0.6174999999999999
11
1.585
21
0.6174999999999999
0
LINE
8
BLACK
6
CONTINUOUS
10
1.585
20
0.6174999999999999
11
1.585
21
0.5625
0
LINE
8
BLACK
6
CONTINUOUS
10
0.4025
20
0.5636
11
0.3475
21
0.5636
0
LINE
8
BLACK
6
CONTINUOUS
10
0.3475
20
0.5636
11
0.3475
21
0.5986
0
LINE
8
BLACK
6
CONTINUOUS
10
0.3475
20
0.5986
11
0.4025
21
0.5986
0
LINE
8
BLACK
6
CONTINUOUS
10
0.4025
20
0.5986
11
0.4025
21
0.5636
0
LINE
8
BLACK
6
CONTINUOUS
10
0.708
20
0.56675
11
0.6686
21
0.56675
0
LINE
8
BLACK
6
CONTINUOUS
10
0.6686
20
0.56675
11
0.6686
21
0.5982499999999999
0
LINE
8
BLACK
6
CONTINUOUS
10
0.6686
20
0.5982499999999999
11
0.708
21
0.5982499999999999
0
LINE
8
BLACK
6
CONTINUOUS
10
0.708
20
0.5982499999999999
11
0.708
21
0.56675
0
LINE
8
BLACK
6
CONTINUOUS
10
1.1027
20
0.5669999999999999
11
1.0477000000000001
21
0.5669999999999999
0
LINE
8
BLACK
6
CONTINUOUS
10
1.0477000000000001
20
0.5669999999999999
11
1.0477000000000001
21
0.602
0
LINE
8
BLACK
6
CONTINUOUS
10
1.0477000000000001
20
0.602
11
1.1027
21
0.602
0
LINE
8
BLACK
6
CONTINUOUS
10
1.1027
20
0.602
11
1.1027
21
0.5669999999999999
0
LINE
8
BLACK
6
CONTINUOUS
10
1.6775
20
0.57
11
1.6225000000000001
21
0.57
0
LINE
8
BLACK
6
CONTINUOUS
10
1.6225000000000001
20
0.57
11
1.6225000000000001
21
0.605
0
LINE
8
BLACK
6
CONTINUOUS
10
1.6225000000000001
20
0.605
11
1.6775
21
0.605
0
LINE
8
BLACK
6
CONTINUOUS
10
1.6775
20
0.605
11
1.6775
21
0.57
0
LINE
8
BLACK
6
CONTINUOUS
10
0.9461999999999999
20
0.5740999999999999
11
0.9189999999999999
21
0.5740999999999999
0
LINE
8
BLACK
6
CONTINUOUS
10
0.9189999999999999
20
0.5740999999999999
11
0.9189999999999999
21
0.6134999999999999
0
LINE
8
BLACK
6
CONTINUOUS
10
0.9189999999999999
20
0.6134999999999999
11
0.9461999999999999
21
0.6134999999999999
0
LINE
8
BLACK
6
CONTINUOUS
10
0.9461999999999999
20
0.6134999999999999
11
0.9461999999999999
21
0.5740999999999999
0
LINE
8
BLACK
6
CONTINUOUS
10
0.9836
20
0.5740999999999999
11
0.9564
21
0.5740999999999999
0
LINE
8
BLACK
6
CONTINUOUS
10
0.9564
20
0.5740999999999999
11
0.9564
21
0.6134999999999999
0
LINE
8
BLACK
6
CONTINUOUS
10
0.9564
20
0.6134999999999999
11
0.9836
21
0.6134999999999999
0
LINE
8
BLACK
6
CONTINUOUS
10
0.9836
20
0.6134999999999999
11
0.9836
21
0.5740999999999999
0
LINE
8
BLACK
6
CONTINUOUS
10
1.0209999999999999
20
0.5740999999999999
11
0.9938
21
0.5740999999999999
0
LINE
8
BLACK
6
CONTINUOUS
10
0.9938
20
0.5740999999999999
11
0.9938
21
0.6134999999999999
0
LINE
8
BLACK
6
CONTINUOUS
10
0.9938
20
0.6134999999999999
11
1.0209999999999999
21
0.6134999999999999
0
LINE
8
BLACK
6
CONTINUOUS
10
1.0209999999999999
20
0.6134999999999999
11
1.0209999999999999
21
0.5740999999999999
0
LINE
8
BLACK
6
CONTINUOUS
10
1.1675
20
0.585
11
1.1225000000000001
21
0.585
0
LINE
8
BLACK
6
CONTINUOUS
10
1.1225000000000001
20
0.585
11
1.1225000000000001
21
0.605
0
LINE
8
BLACK
6
CONTINUOUS
10
1.1225000000000001
20
0.605
11
1.1675
21
0.605
0
LINE
8
BLACK
6
CONTINUOUS
10
1.1675
20
0.605
11
1.1675
21
0.585
0
LINE
8
BLACK
6
CONTINUOUS
10
1.4175
20
0.585
11
1.3725000000000001
21
0.585
0
LINE
8
BLACK
6
CONTINUOUS
10
1.3725000000000001
20
0.585
11
1.3725000000000001
21
0.605
0
LINE
8
BLACK
6
CONTINUOUS
10
1.3725000000000001
20
0.605
11
1.4175
21
0.605
0
LINE
8
BLACK
6
CONTINUOUS
10
1.4175
20
0.605
11
1.4175
21
0.585
0
LINE
8
BLACK
6
CONTINUOUS
10
0.4882
20
0.5892999999999999
11
0.4532
21
0.5892999999999999
0
LINE
8
BLACK
6
CONTINUOUS
10
0.4532
20
0.5892999999999999
11
0.4532
21
0.6443
0
LINE
8
BLACK
6
CONTINUOUS
10
0.4532
20
0.6443
11
0.4882
21
0.6443
0
LINE
8
BLACK
6
CONTINUOUS
10
0.4882
20
0.6443
11
0.4882
21
0.5892999999999999
0
LINE
8
BLACK
6
CONTINUOUS
10
0.5636811023622047
20
0.5892999999999999
11
0.5286811023622047
21
0.5892999999999999
0
LINE
8
BLACK
6
CONTINUOUS
10
0.5286811023622047
20
0.5892999999999999
11
0.5286811023622047
21
0.6443
0
LINE
8
BLACK
6
CONTINUOUS
10
0.5286811023622047
20
0.6443
11
0.5636811023622047
21
0.6443
0
LINE
8
BLACK
6
CONTINUOUS
10
0.5636811023622047
20
0.6443
11
0.5636811023622047
21
0.5892999999999999
0
LINE
8
BLACK
6
CONTINUOUS
10
0.6214
20
0.60425
11
0.582
21
0.60425
0
LINE
8
BLACK
6
CONTINUOUS
10
0.582
20
0.60425
11
0.582
21
0.63575
0
LINE
8
BLACK
6
CONTINUOUS
10
0.582
20
0.63575
11
0.6214
21
0.63575
0
LINE
8
BLACK
6
CONTINUOUS
10
0.6214
20
0.63575
11
0.6214
21
0.60425
0
LINE
8
BLACK
6
CONTINUOUS
10
0.4025
20
0.6385999999999999
11
0.3475
21
0.6385999999999999
0
LINE
8
BLACK
6
CONTINUOUS
10
0.3475
20
0.6385999999999999
11
0.3475
21
0.6736
0
LINE
8
BLACK
6
CONTINUOUS
10
0.3475
20
0.6736
11
0.4025
21
0.6736
0
LINE
8
BLACK
6
CONTINUOUS
10
0.4025
20
0.6736
11
0.4025
21
0.6385999999999999
0
LINE
8
BLACK
6
CONTINUOUS
10
0.708
20
0.6417499999999999
11
0.6686
21
0.6417499999999999
0
LINE
8
BLACK
6
CONTINUOUS
10
0.6686
20
0.6417499999999999
11
0.6686
21
0.67325
0
LINE
8
BLACK
6
CONTINUOUS
10
0.6686
20
0.67325
11
0.708
21
0.67325
0
LINE
8
BLACK
6
CONTINUOUS
10
0.708
20
0.67325
11
0.708
21
0.6417499999999999
0
LINE
8
BLACK
6
CONTINUOUS
10
1.1027
20
0.642
11
1.0477000000000001
21
0.642
0
LINE
8
BLACK
6
CONTINUOUS
10
1.0477000000000001
20
0.642
11
1.0477000000000001
21
0.6769999999999999
0
LINE
8
BLACK
6
CONTINUOUS
10
1.0477000000000001
20
0.6769999999999999
11
1.1027
21
0.6769999999999999
0
LINE
8
BLACK
6
CONTINUOUS
10
1.1027
20
0.6769999999999999
11
1.1027
21
0.642
0
LINE
8
BLACK
6
CONTINUOUS
10
1.6775
20
0.645
11
1.6225000000000001
21
0.645
0
LINE
8
BLACK
6
CONTINUOUS
10
1.6225000000000001
20
0.645
11
1.6225000000000001
21
0.6799999999999999
0
LINE
8
BLACK
6
CONTINUOUS
10
1.6225000000000001
20
0.6799999999999999
11
1.6775
21
0.6799999999999999
0
LINE
8
BLACK
6
CONTINUOUS
10
1.6775
20
0.6799999999999999
11
1.6775
21
0.645
0
LINE
8
BLACK
6
CONTINUOUS
10
1.2949999999999999
20
0.6575
11
1.26
21
0.6575
0
LINE
8
BLACK
6
CONTINUOUS
10
1.26
20
0.6575
11
1.26
21
0.7125
0
LINE
8
BLACK
6
CONTINUOUS
10
1.26
20
0.7125
11
1.2949999999999999
21
0.7125
0
LINE
8
BLACK
6
CONTINUOUS
10
1.2949999999999999
20
0.7125
11
1.2949999999999999
21
0.6575
0
LINE
8
BLACK
6
CONTINUOUS
10
1.3699999999999999
20
0.6575
11
1.335
21
0.6575
0
LINE
8
BLACK
6
CONTINUOUS
10
1.335
20
0.6575
11
1.335
21
0.7125
0
LINE
8
BLACK
6
CONTINUOUS
10
1.335
20
0.7125
11
1.3699999999999999
21
0.7125
0
LINE
8
BLACK
6
CONTINUOUS
10
1.3699999999999999
20
0.7125
11
1.3699999999999999
21
0.6575
0
LINE
8
BLACK
6
CONTINUOUS
10
0.8724999999999999
20
0.665
11
0.8175
21
0.665
0
LINE
8
BLACK
6
CONTINUOUS
10
0.8175
20
0.665
11
0.8175
21
0.7
0
LINE
8
BLACK
6
CONTINUOUS
10
0.8175
20
0.7
11
0.8724999999999999
21
0.7
0
LINE
8
BLACK
6
CONTINUOUS
10
0.8724999999999999
20
0.7
11
0.8724999999999999
21
0.665
0
LINE
8
BLACK
6
CONTINUOUS
10
1.5874999999999999
20
0.6749999999999999
11
1.5325
21
0.6749999999999999
0
LINE
8
BLACK
6
CONTINUOUS
10
1.5325
20
0.6749999999999999
11
1.5325
21
0.71
0
LINE
8
BLACK
6
CONTINUOUS
10
1.5325
20
0.71
11
1.5874999999999999
21
0.71
0
LINE
8
BLACK
6
CONTINUOUS
10
1.5874999999999999
20
0.71
11
1.5874999999999999
21
0.6749999999999999
0
LINE
8
BLACK
6
CONTINUOUS
10
0.9461999999999999
20
0.6765
11
0.9189999999999999
21
0.6765
0
LINE
8
BLACK
6
CONTINUOUS
10
0.9189999999999999
20
0.6765
11
0.9189999999999999
21
0.7159
0
LINE
8
BLACK
6
CONTINUOUS
10
0.9189999999999999
20
0.7159
11
0.9461999999999999
21
0.7159
0
LINE
8
BLACK
6
CONTINUOUS
10
0.9461999999999999
20
0.7159
11
0.9461999999999999
21
0.6765
0
LINE
8
BLACK
6
CONTINUOUS
10
1.0209999999999999
20
0.6765
11
0.9938
21
0.6765
0
LINE
8
BLACK
6
CONTINUOUS
10
0.9938
20
0.6765
11
0.9938
21
0.7159
0
LINE
8
BLACK
6
CONTINUOUS
10
0.9938
20
0.7159
11
1.0209999999999999
21
0.7159
0
LINE
8
BLACK
6
CONTINUOUS
10
1.0209999999999999
20
0.7159
11
1.0209999999999999
21
0.6765
0
LINE
8
BLACK
6
CONTINUOUS
10
0.4604
20
0.6840999999999999
11
0.4254
21
0.6840999999999999
0
LINE
8
BLACK
6
CONTINUOUS
10
0.4254
20
0.6840999999999999
11
0.4254
21
0.7391
0
LINE
8
BLACK
6
CONTINUOUS
10
0.4254
20
0.7391
11
0.4604
21
0.7391
0
LINE
8
BLACK
6
CONTINUOUS
10
0.4604
20
0.7391
11
0.4604
21
0.6840999999999999
0
LINE
8
BLACK
6
CONTINUOUS
10
0.5354
20
0.6840999999999999
11
0.5004
21
0.6840999999999999
0
LINE
8
BLACK
6
CONTINUOUS
10
0.5004
20
0.6840999999999999
11
0.5004
21
0.7391
0
LINE
8
BLACK
6
CONTINUOUS
10
0.5004
20
0.7391
11
0.5354
21
0.7391
0
LINE
8
BLACK
6
CONTINUOUS
10
0.5354
20
0.7391
11
0.5354
21
0.6840999999999999
0
LINE
8
BLACK
6
CONTINUOUS
10
0.4025
20
0.695
11
0.3475
21
0.695
0
LINE
8
BLACK
6
CONTINUOUS
10
0.3475
20
0.695
11
0.3475
21
0.73
0
LINE
8
BLACK
6
CONTINUOUS
10
0.3475
20
0.73
11
0.4025
21
0.73
0
LINE
8
BLACK
6
CONTINUOUS
10
0.4025
20
0.73
11
0.4025
21
0.695
0
LINE
8
BLACK
6
CONTINUOUS
10
1.6775
20
0.72
11
1.6225000000000001
21
0.72
0
LINE
8
BLACK
6
CONTINUOUS
10
1.6225000000000001
20
0.72
11
1.6225000000000001
21
0.755
0
LINE
8
BLACK
6
CONTINUOUS
10
1.6225000000000001
20
0.755
11
1.6775
21
0.755
0
LINE
8
BLACK
6
CONTINUOUS
10
1.6775
20
0.755
11
1.6775
21
0.72
0
LINE
8
BLACK
6
CONTINUOUS
10
0.6775
20
0.73
11
0.6224999999999999
21
0.73
0
LINE
8
BLACK
6
CONTINUOUS
10
0.6224999999999999
20
0.73
11
0.6224999999999999
21
0.765
0
LINE
8
BLACK
6
CONTINUOUS
10
0.6224999999999999
20
0.765
11
0.6775
21
0.765
0
LINE
8
BLACK
6
CONTINUOUS
10
0.6775
20
0.765
11
0.6775
21
0.73
0
LINE
8
BLACK
6
CONTINUOUS
10
0.7725
20
0.74
11
0.7175
21
0.74
0
LINE
8
BLACK
6
CONTINUOUS
10
0.7175
20
0.74
11
0.7175
21
0.775
0
LINE
8
BLACK
6
CONTINUOUS
10
0.7175
20
0.775
11
0.7725
21
0.775
0
LINE
8
BLACK
6
CONTINUOUS
10
0.7725
20
0.775
11
0.7725
21
0.74
0
LINE
8
BLACK
6
CONTINUOUS
10
0.8724999999999999
20
0.74
11
0.8175
21
0.74
0
LINE
8
BLACK
6
CONTINUOUS
10
0.8175
20
0.74
11
0.8175
21
0.775
0
LINE
8
BLACK
6
CONTINUOUS
10
0.8175
20
0.775
11
0.8724999999999999
21
0.775
0
LINE
8
BLACK
6
CONTINUOUS
10
0.8724999999999999
20
0.775
11
0.8724999999999999
21
0.74
0
LINE
8
BLACK
6
CONTINUOUS
10
1.5874999999999999
20
0.75
11
1.5325
21
0.75
0
LINE
8
BLACK
6
CONTINUOUS
10
1.5325
20
0.75
11
1.5325
21
0.785
0
LINE
8
BLACK
6
CONTINUOUS
10
1.5325
20
0.785
11
1.5874999999999999
21
0.785
0
LINE
8
BLACK
6
CONTINUOUS
10
1.5874999999999999
20
0.785
11
1.5874999999999999
21
0.75
0
LINE
8
BLACK
6
CONTINUOUS
10
1.325
20
0.7524999999999999
11
1.29
21
0.7524999999999999
0
LINE
8
BLACK
6
CONTINUOUS
10
1.29
20
0.7524999999999999
11
1.29
21
0.8075
0
LINE
8
BLACK
6
CONTINUOUS
10
1.29
20
0.8075
11
1.325
21
0.8075
0
LINE
8
BLACK
6
CONTINUOUS
10
1.325
20
0.8075
11
1.325
21
0.7524999999999999
0
LINE
8
BLACK
6
CONTINUOUS
10
1.3999999999999999
20
0.7524999999999999
11
1.365
21
0.7524999999999999
0
LINE
8
BLACK
6
CONTINUOUS
10
1.365
20
0.7524999999999999
11
1.365
21
0.8075
0
LINE
8
BLACK
6
CONTINUOUS
10
1.365
20
0.8075
11
1.3999999999999999
21
0.8075
0
LINE
8
BLACK
6
CONTINUOUS
10
1.3999999999999999
20
0.8075
11
1.3999999999999999
21
0.7524999999999999
0
LINE
8
BLACK
6
CONTINUOUS
10
1.4975000000000001
20
0.765
11
1.4424999999999999
21
0.765
0
LINE
8
BLACK
6
CONTINUOUS
10
1.4424999999999999
20
0.765
11
1.4424999999999999
21
0.7999999999999999
0
LINE
8
BLACK
6
CONTINUOUS
10
1.4424999999999999
20
0.7999999999999999
11
1.4975000000000001
21
0.7999999999999999
0
LINE
8
BLACK
6
CONTINUOUS
10
1.4975000000000001
20
0.7999999999999999
11
1.4975000000000001
21
0.765
0
LINE
8
BLACK
6
CONTINUOUS
10
0.4025
20
0.77
11
0.3475
21
0.77
0
LINE
8
BLACK
6
CONTINUOUS
10
0.3475
20
0.77
11
0.3475
21
0.8049999999999999
0
LINE
8
BLACK
6
CONTINUOUS
10
0.3475
20
0.8049999999999999
11
0.4025
21
0.8049999999999999
0
LINE
8
BLACK
6
CONTINUOUS
10
0.4025
20
0.8049999999999999
11
0.4025
21
0.77
0
LINE
8
BLACK
6
CONTINUOUS
10
0.6775
20
0.8049999999999999
11
0.6224999999999999
21
0.8049999999999999
0
LINE
8
BLACK
6
CONTINUOUS
10
0.6224999999999999
20
0.8049999999999999
11
0.6224999999999999
21
0.84
0
LINE
8
BLACK
6
CONTINUOUS
10
0.6224999999999999
20
0.84
11
0.6775
21
0.84
0
LINE
8
BLACK
6
CONTINUOUS
10
0.6775
20
0.84
11
0.6775
21
0.8049999999999999
0
LINE
8
BLACK
6
CONTINUOUS
10
0.7725
20
0.8149999999999999
11
0.7175
21
0.8149999999999999
0
LINE
8
BLACK
6
CONTINUOUS
10
0.7175
20
0.8149999999999999
11
0.7175
21
0.85
0
LINE
8
BLACK
6
CONTINUOUS
10
0.7175
20
0.85
11
0.7725
21
0.85
0
LINE
8
BLACK
6
CONTINUOUS
10
0.7725
20
0.85
11
0.7725
21
0.8149999999999999
0
LINE
8
BLACK
6
CONTINUOUS
10
1.5800000000000001
20
0.8225
11
1.5449999999999999
21
0.8225
0
LINE
8
BLACK
6
CONTINUOUS
10
1.5449999999999999
20
0.8225
11
1.5449999999999999
21
0.8774999999999999
0
LINE
8
BLACK
6
CONTINUOUS
10
1.5449999999999999
20
0.8774999999999999
11
1.5800000000000001
21
0.8774999999999999
0
LINE
8
BLACK
6
CONTINUOUS
10
1.5800000000000001
20
0.8774999999999999
11
1.5800000000000001
21
0.8225
0
LINE
8
BLACK
6
CONTINUOUS
10
1.655
20
0.8225
11
1.6199999999999999
21
0.8225
0
LINE
8
BLACK
6
CONTINUOUS
10
1.6199999999999999
20
0.8225
11
1.6199999999999999
21
0.8774999999999999
0
LINE
8
BLACK
6
CONTINUOUS
10
1.6199999999999999
20
0.8774999999999999
11
1.655
21
0.8774999999999999
0
LINE
8
BLACK
6
CONTINUOUS
10
1.655
20
0.8774999999999999
11
1.655
21
0.8225
0
LINE
8
BLACK
6
CONTINUOUS
10
1.4975000000000001
20
0.84
11
1.4424999999999999
21
0.84
0
LINE
8
BLACK
6
CONTINUOUS
10
1.4424999999999999
20
0.84
11
1.4424999999999999
21
0.875
0
LINE
8
BLACK
6
CONTINUOUS
10
1.4424999999999999
20
0.875
11
1.4975000000000001
21
0.875
0
LINE
8
BLACK
6
CONTINUOUS
10
1.4975000000000001
20
0.875
11
1.4975000000000001
21
0.84
0
LINE
8
BLACK
6
CONTINUOUS
10
1.3200000000000001
20
0.8425
11
1.2849999999999999
21
0.8425
0
LINE
8
BLACK
6
CONTINUOUS
10
1.2849999999999999
20
0.8425
11
1.2849999999999999
21
0.8975
0
LINE
8
BLACK
6
CONTINUOUS
10
1.2849999999999999
20
0.8975
11
1.3200000000000001
21
0.8975
0
LINE
8
BLACK
6
CONTINUOUS
10
1.3200000000000001
20
0.8975
11
1.3200000000000001
21
0.8425
0
LINE
8
BLACK
6
CONTINUOUS
10
1.395
20
0.8425
11
1.3599999999999999
21
0.8425
0
LINE
8
BLACK
6
CONTINUOUS
10
1.3599999999999999
20
0.8425
11
1.3599999999999999
21
0.8975
0
LINE
8
BLACK
6
CONTINUOUS
10
1.3599999999999999
20
0.8975
11
1.395
21
0.8975
0
LINE
8
BLACK
6
CONTINUOUS
10
1.395
20
0.8975
11
1.395
21
0.8425
0
LINE
8
BLACK
6
CONTINUOUS
10
0.6775
20
0.89
11
0.6224999999999999
21
0.89
0
LINE
8
BLACK
6
CONTINUOUS
10
0.6224999999999999
20
0.89
11
0.6224999999999999
21
0.9249999999999999
0
LINE
8
BLACK
6
CONTINUOUS
10
0.6224999999999999
20
0.9249999999999999
11
0.6775
21
0.9249999999999999
0
LINE
8
BLACK
6
CONTINUOUS
10
0.6775
20
0.9249999999999999
11
0.6775
21
0.89
0
LINE
8
BLACK
6
CONTINUOUS
10
0.6775
20
0.965
11
0.6224999999999999
21
0.965
0
LINE
8
BLACK
6
CONTINUOUS
10
0.6224999999999999
20
0.965
11
0.6224999999999999
21
1.
0
LINE
8
BLACK
6
CONTINUOUS
10
0.6224999999999999
20
1.
11
0.6775
21
1.
0
LINE
8
BLACK
6
CONTINUOUS
10
0.6775
20
1.
11
0.6775
21
0.965
0
LINE
8
BLACK
6
CONTINUOUS
10
0.7775
20
0.965
11
0.7225
21
0.965
0
LINE
8
BLACK
6
CONTINUOUS
10
0.7225
20
0.965
11
0.7225
21
1.
0
LINE
8
BLACK
6
CONTINUOUS
10
0.7225
20
1.
11
0.7775
21
1.
0
LINE
8
BLACK
6
CONTINUOUS
10
0.7775
20
1.
11
0.7775
21
0.965
0
LINE
8
BLACK
6
CONTINUOUS
10
0.7775
20
1.04
11
0.7225
21
1.04
0
LINE
8
BLACK
6
CONTINUOUS
10
0.7225
20
1.04
11
0.7225
21
1.075
0
LINE
8
BLACK
6
CONTINUOUS
10
0.7225
20
1.075
11
0.7775
21
1.075
0
LINE
8
BLACK
6
CONTINUOUS
10
0.7775
20
1.075
11
0.7775
21
1.04
  0
ENDSEC
  0
EOF
