  0
SECTION
  2
HEADER
  9
$ANGBASE
  50
0.0
  9
$ANGDIR
  70
1
  9
$MEASUREMENT
  70
0
  0
ENDSEC
  0
SECTION
  2
TABLES
  0
TABLE
  2
LTYPE
  70
4
  0
LTYPE
  5
40F
  2
CONTINUOUS
  70
0
  3
Solid line
  72
65
  73
0
  40
0.0
  0
LTYPE
  5
410
  2
DASHDOT
 70
0
  3
Dash Dot ____ _ ____ _
 72
65
 73
4
 40
2.0
 49
1.25
 49
-0.25
 49
0.25
 49
-0.25
  0
LTYPE
  5
411
  2
DASHED
 70
0
  3
Dashed __ __ __ __ __
 72
65
 73
2
 40
0.75
 49
0.5
 49
-0.25
  0
LTYPE
  5
43B
  2
DOTTED
 70
0
  3
Dotted .  .  .  .
 72
65
 73
2
 40
0.2
 49
0.0
 49
-0.2
  0
ENDTAB
  0
TABLE
  2
STYLE
  70
4
  0
STYLE
  2
KICAD
  70
0
  40
0
  41
1
  42
1
  50
0
  71
0
  3
isocp.shx
  0
STYLE
  2
KICADB
  70
0
  40
0
  41
1
  42
1
  50
0
  71
0
  3
isocp.shx
  0
STYLE
  2
KICADI
  70
0
  40
0
  41
1
  42
1
  50
15
  71
0
  3
isocp.shx
  0
STYLE
  2
KICADBI
  70
0
  40
0
  41
1
  42
1
  50
15
  71
0
  3
isocp.shx
  0
ENDTAB
  0
TABLE
  2
LAYER
  70
1
  0
LAYER
  2
BLACK
  70
0
  62
7
  6
CONTINUOUS
  0
ENDTAB
  0
ENDSEC
  0
SECTION
  2
ENTITIES
0
LINE
8
BLACK
6
CONTINUOUS
10
1.9929527559055118
20
1.3382017322834645
11
1.9951143307086614
21
1.3360401574803149
0
LINE
8
BLACK
6
CONTINUOUS
10
1.9951143307086614
20
1.3360401574803149
11
1.9959055118110236
21
1.3330874015748031
0
LINE
8
BLACK
6
CONTINUOUS
10
1.9959055118110236
20
1.3330874015748031
11
1.9959055118110236
21
1.1959055118110236
0
LINE
8
BLACK
6
CONTINUOUS
10
1.9959055118110236
20
1.1959055118110236
11
2.1230874015748031
21
1.1959055118110236
0
LINE
8
BLACK
6
CONTINUOUS
10
2.1230874015748031
20
1.1959055118110236
11
2.1260401574803147
21
1.1951143307086614
0
LINE
8
BLACK
6
CONTINUOUS
10
2.1260401574803147
20
1.1951143307086614
11
2.1282017322834643
21
1.1929527559055118
0
LINE
8
BLACK
6
CONTINUOUS
10
2.1282017322834643
20
1.1929527559055118
11
2.1289929133858267
21
1.1899999999999999
0
LINE
8
BLACK
6
CONTINUOUS
10
2.1289929133858267
20
1.1899999999999999
11
2.1282017322834643
21
1.1870472440944881
0
LINE
8
BLACK
6
CONTINUOUS
10
2.1282017322834643
20
1.1870472440944881
11
2.1260401574803147
21
1.1848856692913385
0
LINE
8
BLACK
6
CONTINUOUS
10
2.1260401574803147
20
1.1848856692913385
11
2.1230874015748031
21
1.1840944881889763
0
LINE
8
BLACK
6
CONTINUOUS
10
2.1230874015748031
20
1.1840944881889763
11
2.1097320078740158
21
1.1840944881889763
0
LINE
8
BLACK
6
CONTINUOUS
10
2.1097320078740158
20
1.1840944881889763
11
2.1283256692913386
21
1.1483763385826771
0
LINE
8
BLACK
6
CONTINUOUS
10
2.1283256692913386
20
1.1483763385826771
11
2.1289873228346456
21
1.1453918503937008
0
LINE
8
BLACK
6
CONTINUOUS
10
2.1289873228346456
20
1.1453918503937008
11
2.1280681102362204
21
1.1424764173228346
0
LINE
8
BLACK
6
CONTINUOUS
10
2.1280681102362204
20
1.1424764173228346
11
2.1258142913385827
21
1.1404112204724408
0
LINE
8
BLACK
6
CONTINUOUS
10
2.1258142913385827
20
1.1404112204724408
11
2.122829842519685
21
1.1397495669291338
0
LINE
8
BLACK
6
CONTINUOUS
10
2.122829842519685
20
1.1397495669291338
11
2.1199144094488189
21
1.140668779527559
0
LINE
8
BLACK
6
CONTINUOUS
10
2.1199144094488189
20
1.140668779527559
11
2.1178491732283464
21
1.1429225984251967
0
LINE
8
BLACK
6
CONTINUOUS
10
2.1178491732283464
20
1.1429225984251967
11
2.1059055118110237
21
1.1658661417322835
0
LINE
8
BLACK
6
CONTINUOUS
10
2.1059055118110237
20
1.1658661417322835
11
2.1059055118110237
21
0.0341338188976378
0
LINE
8
BLACK
6
CONTINUOUS
10
2.1059055118110237
20
0.0341338188976378
11
2.1178491732283464
21
0.0570774015748031
0
LINE
8
BLACK
6
CONTINUOUS
10
2.1178491732283464
20
0.0570774015748031
11
2.1199144094488189
21
0.0593312204724409
0
LINE
8
BLACK
6
CONTINUOUS
10
2.1199144094488189
20
0.0593312204724409
11
2.122829842519685
21
0.0602504330708661
0
LINE
8
BLACK
6
CONTINUOUS
10
2.122829842519685
20
0.0602504330708661
11
2.1258142913385827
21
0.0595887795275591
0
LINE
8
BLACK
6
CONTINUOUS
10
2.1258142913385827
20
0.0595887795275591
11
2.1280681102362204
21
0.0575235826771654
0
LINE
8
BLACK
6
CONTINUOUS
10
2.1280681102362204
20
0.0575235826771654
11
2.1289873228346456
21
0.0546081496062992
0
LINE
8
BLACK
6
CONTINUOUS
10
2.1289873228346456
20
0.0546081496062992
11
2.1283256692913386
21
0.0516236614173228
0
LINE
8
BLACK
6
CONTINUOUS
10
2.1283256692913386
20
0.0516236614173228
11
2.1097320078740158
21
0.0159055118110236
0
LINE
8
BLACK
6
CONTINUOUS
10
2.1097320078740158
20
0.0159055118110236
11
2.1230874015748031
21
0.0159055118110236
0
LINE
8
BLACK
6
CONTINUOUS
10
2.1230874015748031
20
0.0159055118110236
11
2.1260401574803147
21
0.0151143307086614
0
LINE
8
BLACK
6
CONTINUOUS
10
2.1260401574803147
20
0.0151143307086614
11
2.1282017322834643
21
0.0129527559055118
0
LINE
8
BLACK
6
CONTINUOUS
10
2.1282017322834643
20
0.0129527559055118
11
2.1289929133858267
21
0.01
0
LINE
8
BLACK
6
CONTINUOUS
10
2.1289929133858267
20
0.01
11
2.1282017322834643
21
0.0070472440944882
0
LINE
8
BLACK
6
CONTINUOUS
10
2.1282017322834643
20
0.0070472440944882
11
2.1260401574803147
21
0.0048856692913386
0
LINE
8
BLACK
6
CONTINUOUS
10
2.1260401574803147
20
0.0048856692913386
11
2.1230874015748031
21
0.0040944881889764
0
LINE
8
BLACK
6
CONTINUOUS
10
2.1230874015748031
20
0.0040944881889764
11
2.1000000000000001
21
0.0040944881889764
0
LINE
8
BLACK
6
CONTINUOUS
10
2.1000000000000001
20
0.0040944881889764
11
1.99
21
0.0040944881889764
0
LINE
8
BLACK
6
CONTINUOUS
10
1.99
20
0.0040944881889764
11
1.9870472440944882
21
0.0048856692913386
0
LINE
8
BLACK
6
CONTINUOUS
10
1.9870472440944882
20
0.0048856692913386
11
1.9848856692913386
21
0.0070472440944882
0
LINE
8
BLACK
6
CONTINUOUS
10
1.9848856692913386
20
0.0070472440944882
11
1.9840944881889764
21
0.01
0
LINE
8
BLACK
6
CONTINUOUS
10
1.9840944881889764
20
0.01
11
1.9848856692913386
21
0.0129527559055118
0
LINE
8
BLACK
6
CONTINUOUS
10
1.9848856692913386
20
0.0129527559055118
11
1.9870472440944882
21
0.0151143307086614
0
LINE
8
BLACK
6
CONTINUOUS
10
1.9870472440944882
20
0.0151143307086614
11
1.99
21
0.0159055118110236
0
LINE
8
BLACK
6
CONTINUOUS
10
1.99
20
0.0159055118110236
11
2.0902679921259844
21
0.0159055118110236
0
LINE
8
BLACK
6
CONTINUOUS
10
2.0902679921259844
20
0.0159055118110236
11
2.0716742913385828
21
0.0516237007874016
0
LINE
8
BLACK
6
CONTINUOUS
10
2.0716742913385828
20
0.0516237007874016
11
2.0710126771653541
21
0.0546081496062992
0
LINE
8
BLACK
6
CONTINUOUS
10
2.0710126771653541
20
0.0546081496062992
11
2.0719318897637793
21
0.0575235826771654
0
LINE
8
BLACK
6
CONTINUOUS
10
2.0719318897637793
20
0.0575235826771654
11
2.0741857086614175
21
0.0595888188976378
0
LINE
8
BLACK
6
CONTINUOUS
10
2.0741857086614175
20
0.0595888188976378
11
2.0771701574803147
21
0.0602504330708661
0
LINE
8
BLACK
6
CONTINUOUS
10
2.0771701574803147
20
0.0602504330708661
11
2.0800855905511813
21
0.0593312204724409
0
LINE
8
BLACK
6
CONTINUOUS
10
2.0800855905511813
20
0.0593312204724409
11
2.0821508267716533
21
0.0570774015748031
0
LINE
8
BLACK
6
CONTINUOUS
10
2.0821508267716533
20
0.0570774015748031
11
2.0940944881889765
21
0.0341338188976378
0
LINE
8
BLACK
6
CONTINUOUS
10
2.0940944881889765
20
0.0341338188976378
11
2.0940944881889765
21
1.1658661417322835
0
LINE
8
BLACK
6
CONTINUOUS
10
2.0940944881889765
20
1.1658661417322835
11
2.0821508267716533
21
1.1429225984251967
0
LINE
8
BLACK
6
CONTINUOUS
10
2.0821508267716533
20
1.1429225984251967
11
2.0800855905511813
21
1.140668779527559
0
LINE
8
BLACK
6
CONTINUOUS
10
2.0800855905511813
20
1.140668779527559
11
2.0771701574803147
21
1.1397495669291338
0
LINE
8
BLACK
6
CONTINUOUS
10
2.0771701574803147
20
1.1397495669291338
11
2.0741857086614175
21
1.1404111811023623
0
LINE
8
BLACK
6
CONTINUOUS
10
2.0741857086614175
20
1.1404111811023623
11
2.0719318897637793
21
1.1424764173228346
0
LINE
8
BLACK
6
CONTINUOUS
10
2.0719318897637793
20
1.1424764173228346
11
2.0710126771653541
21
1.1453918503937008
0
LINE
8
BLACK
6
CONTINUOUS
10
2.0710126771653541
20
1.1453918503937008
11
2.0716742913385828
21
1.1483762992125983
0
LINE
8
BLACK
6
CONTINUOUS
10
2.0716742913385828
20
1.1483762992125983
11
2.0902679921259844
21
1.1840944881889763
0
LINE
8
BLACK
6
CONTINUOUS
10
2.0902679921259844
20
1.1840944881889763
11
1.99
21
1.1840944881889763
0
LINE
8
BLACK
6
CONTINUOUS
10
1.99
20
1.1840944881889763
11
1.9870472440944882
21
1.1848856692913385
0
LINE
8
BLACK
6
CONTINUOUS
10
1.9870472440944882
20
1.1848856692913385
11
1.9848856692913386
21
1.1870472440944881
0
LINE
8
BLACK
6
CONTINUOUS
10
1.9848856692913386
20
1.1870472440944881
11
1.9840944881889764
21
1.1899999999999999
0
LINE
8
BLACK
6
CONTINUOUS
10
1.9840944881889764
20
1.1899999999999999
11
1.9840944881889764
21
1.3002679921259843
0
LINE
8
BLACK
6
CONTINUOUS
10
1.9840944881889764
20
1.3002679921259843
11
1.9483762992125984
21
1.2816742913385826
0
LINE
8
BLACK
6
CONTINUOUS
10
1.9483762992125984
20
1.2816742913385826
11
1.9453918503937007
21
1.2810126771653543
0
LINE
8
BLACK
6
CONTINUOUS
10
1.9453918503937007
20
1.2810126771653543
11
1.9424764173228346
21
1.2819318897637795
0
LINE
8
BLACK
6
CONTINUOUS
10
1.9424764173228346
20
1.2819318897637795
11
1.9404111811023621
21
1.2841857086614172
0
LINE
8
BLACK
6
CONTINUOUS
10
1.9404111811023621
20
1.2841857086614172
11
1.9397495669291338
21
1.2871701574803149
0
LINE
8
BLACK
6
CONTINUOUS
10
1.9397495669291338
20
1.2871701574803149
11
1.940668779527559
21
1.290085590551181
0
LINE
8
BLACK
6
CONTINUOUS
10
1.940668779527559
20
1.290085590551181
11
1.9429225984251968
21
1.2921508267716535
0
LINE
8
BLACK
6
CONTINUOUS
10
1.9429225984251968
20
1.2921508267716535
11
1.9658661811023621
21
1.3040944881889764
0
LINE
8
BLACK
6
CONTINUOUS
10
1.9658661811023621
20
1.3040944881889764
11
0.0341338582677165
21
1.3040944881889764
0
LINE
8
BLACK
6
CONTINUOUS
10
0.0341338582677165
20
1.3040944881889764
11
0.0570774015748031
21
1.2921508267716535
0
LINE
8
BLACK
6
CONTINUOUS
10
0.0570774015748031
20
1.2921508267716535
11
0.0593312204724409
21
1.290085590551181
0
LINE
8
BLACK
6
CONTINUOUS
10
0.0593312204724409
20
1.290085590551181
11
0.0602504330708661
21
1.2871701574803149
0
LINE
8
BLACK
6
CONTINUOUS
10
0.0602504330708661
20
1.2871701574803149
11
0.0595887795275591
21
1.2841857086614172
0
LINE
8
BLACK
6
CONTINUOUS
10
0.0595887795275591
20
1.2841857086614172
11
0.0575235826771654
21
1.2819318897637795
0
LINE
8
BLACK
6
CONTINUOUS
10
0.0575235826771654
20
1.2819318897637795
11
0.0546081496062992
21
1.2810126771653543
0
LINE
8
BLACK
6
CONTINUOUS
10
0.0546081496062992
20
1.2810126771653543
11
0.0516236614173228
21
1.2816743307086613
0
LINE
8
BLACK
6
CONTINUOUS
10
0.0516236614173228
20
1.2816743307086613
11
0.0159055118110236
21
1.3002679921259843
0
LINE
8
BLACK
6
CONTINUOUS
10
0.0159055118110236
20
1.3002679921259843
11
0.0159055118110236
21
1.1899999999999999
0
LINE
8
BLACK
6
CONTINUOUS
10
0.0159055118110236
20
1.1899999999999999
11
0.0151143307086614
21
1.1870472440944881
0
LINE
8
BLACK
6
CONTINUOUS
10
0.0151143307086614
20
1.1870472440944881
11
0.0129527559055118
21
1.1848856692913385
0
LINE
8
BLACK
6
CONTINUOUS
10
0.0129527559055118
20
1.1848856692913385
11
0.01
21
1.1840944881889763
0
LINE
8
BLACK
6
CONTINUOUS
10
0.01
20
1.1840944881889763
11
0.0070472440944882
21
1.1848856692913385
0
LINE
8
BLACK
6
CONTINUOUS
10
0.0070472440944882
20
1.1848856692913385
11
0.0048856692913386
21
1.1870472440944881
0
LINE
8
BLACK
6
CONTINUOUS
10
0.0048856692913386
20
1.1870472440944881
11
0.0040944881889764
21
1.1899999999999999
0
LINE
8
BLACK
6
CONTINUOUS
10
0.0040944881889764
20
1.1899999999999999
11
0.0040944881889764
21
1.3330874015748031
0
LINE
8
BLACK
6
CONTINUOUS
10
0.0040944881889764
20
1.3330874015748031
11
0.0048856692913386
21
1.3360401574803149
0
LINE
8
BLACK
6
CONTINUOUS
10
0.0048856692913386
20
1.3360401574803149
11
0.0070472440944882
21
1.3382017322834645
0
LINE
8
BLACK
6
CONTINUOUS
10
0.0070472440944882
20
1.3382017322834645
11
0.01
21
1.3389929133858267
0
LINE
8
BLACK
6
CONTINUOUS
10
0.01
20
1.3389929133858267
11
0.0129527559055118
21
1.3382017322834645
0
LINE
8
BLACK
6
CONTINUOUS
10
0.0129527559055118
20
1.3382017322834645
11
0.0151143307086614
21
1.3360401574803149
0
LINE
8
BLACK
6
CONTINUOUS
10
0.0151143307086614
20
1.3360401574803149
11
0.0159055118110236
21
1.3330874015748031
0
LINE
8
BLACK
6
CONTINUOUS
10
0.0159055118110236
20
1.3330874015748031
11
0.0159055118110236
21
1.319731968503937
0
LINE
8
BLACK
6
CONTINUOUS
10
0.0159055118110236
20
1.319731968503937
11
0.0516236614173228
21
1.3383256692913386
0
LINE
8
BLACK
6
CONTINUOUS
10
0.0516236614173228
20
1.3383256692913386
11
0.0546081496062992
21
1.3389873228346456
0
LINE
8
BLACK
6
CONTINUOUS
10
0.0546081496062992
20
1.3389873228346456
11
0.0575235826771654
21
1.3380681102362204
0
LINE
8
BLACK
6
CONTINUOUS
10
0.0575235826771654
20
1.3380681102362204
11
0.0595887795275591
21
1.3358142913385826
0
LINE
8
BLACK
6
CONTINUOUS
10
0.0595887795275591
20
1.3358142913385826
11
0.0602504330708661
21
1.3328298425196849
0
LINE
8
BLACK
6
CONTINUOUS
10
0.0602504330708661
20
1.3328298425196849
11
0.0593312204724409
21
1.3299144094488189
0
LINE
8
BLACK
6
CONTINUOUS
10
0.0593312204724409
20
1.3299144094488189
11
0.0570774015748031
21
1.3278491732283464
0
LINE
8
BLACK
6
CONTINUOUS
10
0.0570774015748031
20
1.3278491732283464
11
0.0341338582677165
21
1.3159055118110237
0
LINE
8
BLACK
6
CONTINUOUS
10
0.0341338582677165
20
1.3159055118110237
11
1.9658661811023621
21
1.3159055118110237
0
LINE
8
BLACK
6
CONTINUOUS
10
1.9658661811023621
20
1.3159055118110237
11
1.9429225984251968
21
1.3278491732283464
0
LINE
8
BLACK
6
CONTINUOUS
10
1.9429225984251968
20
1.3278491732283464
11
1.940668779527559
21
1.3299144094488189
0
LINE
8
BLACK
6
CONTINUOUS
10
1.940668779527559
20
1.3299144094488189
11
1.9397495669291338
21
1.3328298425196849
0
LINE
8
BLACK
6
CONTINUOUS
10
1.9397495669291338
20
1.3328298425196849
11
1.9404111811023621
21
1.3358142913385826
0
LINE
8
BLACK
6
CONTINUOUS
10
1.9404111811023621
20
1.3358142913385826
11
1.9424764173228346
21
1.3380681102362204
0
LINE
8
BLACK
6
CONTINUOUS
10
1.9424764173228346
20
1.3380681102362204
11
1.9453918503937007
21
1.3389873228346456
0
LINE
8
BLACK
6
CONTINUOUS
10
1.9453918503937007
20
1.3389873228346456
11
1.9483762992125984
21
1.3383257086614173
0
LINE
8
BLACK
6
CONTINUOUS
10
1.9483762992125984
20
1.3383257086614173
11
1.9840944881889764
21
1.319731968503937
0
LINE
8
BLACK
6
CONTINUOUS
10
1.9840944881889764
20
1.319731968503937
11
1.9840944881889764
21
1.3330874015748031
0
LINE
8
BLACK
6
CONTINUOUS
10
1.9840944881889764
20
1.3330874015748031
11
1.9848856692913386
21
1.3360401574803149
0
LINE
8
BLACK
6
CONTINUOUS
10
1.9848856692913386
20
1.3360401574803149
11
1.9870472440944882
21
1.3382017322834645
0
LINE
8
BLACK
6
CONTINUOUS
10
1.9870472440944882
20
1.3382017322834645
11
1.99
21
1.3389929133858267
0
LINE
8
BLACK
6
CONTINUOUS
10
1.99
20
1.3389929133858267
11
1.9929527559055118
21
1.3382017322834645
0
LINE
8
BLACK
6
CONTINUOUS
10
2.0145759055118111
20
0.3666268503937008
11
2.0155249999999998
21
0.3665698818897637
0
LINE
8
BLACK
6
CONTINUOUS
10
2.0155249999999998
20
0.3665698818897637
11
2.0239613779527557
21
0.363757716535433
0
LINE
8
BLACK
6
CONTINUOUS
10
2.0239613779527557
20
0.363757716535433
11
2.025093779527559
21
0.36301
0
LINE
8
BLACK
6
CONTINUOUS
10
2.025093779527559
20
0.36301
11
2.026269724409449
21
0.3623311023622047
0
LINE
8
BLACK
6
CONTINUOUS
10
2.026269724409449
20
0.3623311023622047
11
2.0499341732283463
21
0.3386666535433071
0
LINE
8
BLACK
6
CONTINUOUS
10
2.0499341732283463
20
0.3386666535433071
11
2.0499341732283463
21
0.3609674409448819
0
LINE
8
BLACK
6
CONTINUOUS
10
2.0499341732283463
20
0.3609674409448819
11
2.0507253543307087
21
0.3639201968503937
0
LINE
8
BLACK
6
CONTINUOUS
10
2.0507253543307087
20
0.3639201968503937
11
2.0528869291338583
21
0.3660817716535433
0
LINE
8
BLACK
6
CONTINUOUS
10
2.0528869291338583
20
0.3660817716535433
11
2.0558396850393699
21
0.3668729527559055
0
LINE
8
BLACK
6
CONTINUOUS
10
2.0558396850393699
20
0.3668729527559055
11
2.0587924409448819
21
0.3660817716535433
0
LINE
8
BLACK
6
CONTINUOUS
10
2.0587924409448819
20
0.3660817716535433
11
2.0609540157480315
21
0.3639201968503937
0
LINE
8
BLACK
6
CONTINUOUS
10
2.0609540157480315
20
0.3639201968503937
11
2.0617451968503935
21
0.3609674409448819
0
LINE
8
BLACK
6
CONTINUOUS
10
2.0617451968503935
20
0.3609674409448819
11
2.0617451968503935
21
0.3244094881889764
0
LINE
8
BLACK
6
CONTINUOUS
10
2.0617451968503935
20
0.3244094881889764
11
2.0615439763779526
21
0.3236585039370078
0
LINE
8
BLACK
6
CONTINUOUS
10
2.0615439763779526
20
0.3236585039370078
11
2.0615439763779526
21
0.3228810236220472
0
LINE
8
BLACK
6
CONTINUOUS
10
2.0615439763779526
20
0.3228810236220472
11
2.0611552362204724
21
0.3222076771653543
0
LINE
8
BLACK
6
CONTINUOUS
10
2.0611552362204724
20
0.3222076771653543
11
2.0609540157480315
21
0.3214567322834646
0
LINE
8
BLACK
6
CONTINUOUS
10
2.0609540157480315
20
0.3214567322834646
11
2.0604042125984252
21
0.3209069291338583
0
LINE
8
BLACK
6
CONTINUOUS
10
2.0604042125984252
20
0.3209069291338583
11
2.0600155118110237
21
0.3202336614173228
0
LINE
8
BLACK
6
CONTINUOUS
10
2.0600155118110237
20
0.3202336614173228
11
2.0593422047244094
21
0.3198449212598425
0
LINE
8
BLACK
6
CONTINUOUS
10
2.0593422047244094
20
0.3198449212598425
11
2.0587924409448819
21
0.319295157480315
0
LINE
8
BLACK
6
CONTINUOUS
10
2.0587924409448819
20
0.319295157480315
11
2.0580414566929135
21
0.3190938976377953
0
LINE
8
BLACK
6
CONTINUOUS
10
2.0580414566929135
20
0.3190938976377953
11
2.0573681496062992
21
0.3187051968503937
0
LINE
8
BLACK
6
CONTINUOUS
10
2.0573681496062992
20
0.3187051968503937
11
2.0565906692913387
21
0.3187051968503937
0
LINE
8
BLACK
6
CONTINUOUS
10
2.0565906692913387
20
0.3187051968503937
11
2.0558396850393699
21
0.3185039763779527
0
LINE
8
BLACK
6
CONTINUOUS
10
2.0558396850393699
20
0.3185039763779527
11
2.0550887007874015
21
0.3187051968503937
0
LINE
8
BLACK
6
CONTINUOUS
10
2.0550887007874015
20
0.3187051968503937
11
2.054311220472441
21
0.3187051968503937
0
LINE
8
BLACK
6
CONTINUOUS
10
2.054311220472441
20
0.3187051968503937
11
2.0536378740157479
21
0.3190938976377953
0
LINE
8
BLACK
6
CONTINUOUS
10
2.0536378740157479
20
0.3190938976377953
11
2.0528869291338583
21
0.319295157480315
0
LINE
8
BLACK
6
CONTINUOUS
10
2.0528869291338583
20
0.319295157480315
11
2.052337125984252
21
0.3198449212598425
0
LINE
8
BLACK
6
CONTINUOUS
10
2.052337125984252
20
0.3198449212598425
11
2.0516638582677165
21
0.3202336614173228
0
LINE
8
BLACK
6
CONTINUOUS
10
2.0516638582677165
20
0.3202336614173228
11
2.0189038188976376
21
0.3529936614173228
0
LINE
8
BLACK
6
CONTINUOUS
10
2.0189038188976376
20
0.3529936614173228
11
2.0126991732283463
21
0.3550619291338583
0
LINE
8
BLACK
6
CONTINUOUS
10
2.0126991732283463
20
0.3550619291338583
11
2.0094272440944883
21
0.3550619291338583
0
LINE
8
BLACK
6
CONTINUOUS
10
2.0094272440944883
20
0.3550619291338583
11
2.0059070472440945
21
0.353301811023622
0
LINE
8
BLACK
6
CONTINUOUS
10
2.0059070472440945
20
0.353301811023622
11
2.0044501968503936
21
0.3518449606299213
0
LINE
8
BLACK
6
CONTINUOUS
10
2.0044501968503936
20
0.3518449606299213
11
2.0026900787401574
21
0.3483247244094488
0
LINE
8
BLACK
6
CONTINUOUS
10
2.0026900787401574
20
0.3483247244094488
11
2.0026900787401574
21
0.3370522047244094
0
LINE
8
BLACK
6
CONTINUOUS
10
2.0026900787401574
20
0.3370522047244094
11
2.0044501968503936
21
0.333531968503937
0
LINE
8
BLACK
6
CONTINUOUS
10
2.0044501968503936
20
0.333531968503937
11
2.0065846850393698
21
0.3313974803149606
0
LINE
8
BLACK
6
CONTINUOUS
10
2.0065846850393698
20
0.3313974803149606
11
2.0081131496062992
21
0.3287501181102362
0
LINE
8
BLACK
6
CONTINUOUS
10
2.0081131496062992
20
0.3287501181102362
11
2.0081131496062992
21
0.3256931889763779
0
LINE
8
BLACK
6
CONTINUOUS
10
2.0081131496062992
20
0.3256931889763779
11
2.0065846850393698
21
0.3230458267716536
0
LINE
8
BLACK
6
CONTINUOUS
10
2.0065846850393698
20
0.3230458267716536
11
2.0039373228346458
21
0.3215173622047244
0
LINE
8
BLACK
6
CONTINUOUS
10
2.0039373228346458
20
0.3215173622047244
11
2.0008803937007875
21
0.3215173622047244
0
LINE
8
BLACK
6
CONTINUOUS
10
2.0008803937007875
20
0.3215173622047244
11
1.998233031496063
21
0.3230458267716536
0
LINE
8
BLACK
6
CONTINUOUS
10
1.998233031496063
20
0.3230458267716536
11
1.9954209055118111
21
0.3258579527559055
0
LINE
8
BLACK
6
CONTINUOUS
10
1.9954209055118111
20
0.3258579527559055
11
1.9949455118110235
21
0.3266813385826772
0
LINE
8
BLACK
6
CONTINUOUS
10
1.9949455118110235
20
0.3266813385826772
11
1.99431468503937
21
0.3273927559055118
0
LINE
8
BLACK
6
CONTINUOUS
10
1.99431468503937
20
0.3273927559055118
11
1.9915025196850393
21
0.3330170866141732
0
LINE
8
BLACK
6
CONTINUOUS
10
1.9915025196850393
20
0.3330170866141732
11
1.9912303543307086
21
0.3343470078740157
0
LINE
8
BLACK
6
CONTINUOUS
10
1.9912303543307086
20
0.3343470078740157
11
1.9908790551181101
21
0.3356581102362204
0
LINE
8
BLACK
6
CONTINUOUS
10
1.9908790551181101
20
0.3356581102362204
11
1.9908790551181101
21
0.3497188188976378
0
LINE
8
BLACK
6
CONTINUOUS
10
1.9908790551181101
20
0.3497188188976378
11
1.9912303543307086
21
0.3510298818897638
0
LINE
8
BLACK
6
CONTINUOUS
10
1.9912303543307086
20
0.3510298818897638
11
1.9915025196850393
21
0.3523598425196851
0
LINE
8
BLACK
6
CONTINUOUS
10
1.9915025196850393
20
0.3523598425196851
11
1.99431468503937
21
0.3579841732283465
0
LINE
8
BLACK
6
CONTINUOUS
10
1.99431468503937
20
0.3579841732283465
11
1.9949455118110235
21
0.3586955511811024
0
LINE
8
BLACK
6
CONTINUOUS
10
1.9949455118110235
20
0.3586955511811024
11
1.9954209055118111
21
0.3595189763779528
0
LINE
8
BLACK
6
CONTINUOUS
10
1.9954209055118111
20
0.3595189763779528
11
1.998233031496063
21
0.3623311023622047
0
LINE
8
BLACK
6
CONTINUOUS
10
1.998233031496063
20
0.3623311023622047
11
1.9990564566929134
21
0.3628064960629921
0
LINE
8
BLACK
6
CONTINUOUS
10
1.9990564566929134
20
0.3628064960629921
11
1.9997678346456693
21
0.3634373228346456
0
LINE
8
BLACK
6
CONTINUOUS
10
1.9997678346456693
20
0.3634373228346456
11
2.0053920866141732
21
0.3662494881889763
0
LINE
8
BLACK
6
CONTINUOUS
10
2.0053920866141732
20
0.3662494881889763
11
2.0067220866141731
21
0.3665216535433071
0
LINE
8
BLACK
6
CONTINUOUS
10
2.0067220866141731
20
0.3665216535433071
11
2.0080331496062991
21
0.3668729527559055
0
LINE
8
BLACK
6
CONTINUOUS
10
2.0080331496062991
20
0.3668729527559055
11
2.0136574803149605
21
0.3668729527559055
0
LINE
8
BLACK
6
CONTINUOUS
10
2.0136574803149605
20
0.3668729527559055
11
2.0145759055118111
21
0.3666268503937008
0
LINE
8
BLACK
6
CONTINUOUS
10
2.0312341338582676
20
0.4229272834645669
11
2.0319626771653545
21
0.4229395669291339
0
LINE
8
BLACK
6
CONTINUOUS
10
2.0319626771653545
20
0.4229395669291339
11
2.0432112204724411
21
0.4201274015748032
0
LINE
8
BLACK
6
CONTINUOUS
10
2.0432112204724411
20
0.4201274015748032
11
2.0440959055118109
21
0.4196362598425197
0
LINE
8
BLACK
6
CONTINUOUS
10
2.0440959055118109
20
0.4196362598425197
11
2.0450547244094488
21
0.4193119291338583
0
LINE
8
BLACK
6
CONTINUOUS
10
2.0450547244094488
20
0.4193119291338583
11
2.0534911811023622
21
0.4136875984251969
0
LINE
8
BLACK
6
CONTINUOUS
10
2.0534911811023622
20
0.4136875984251969
11
2.0538804330708662
21
0.4132446456692913
0
LINE
8
BLACK
6
CONTINUOUS
10
2.0538804330708662
20
0.4132446456692913
11
2.054391220472441
21
0.4129497637795275
0
LINE
8
BLACK
6
CONTINUOUS
10
2.054391220472441
20
0.4129497637795275
11
2.0572033858267718
21
0.4101375984251968
0
LINE
8
BLACK
6
CONTINUOUS
10
2.0572033858267718
20
0.4101375984251968
11
2.0576787401574803
21
0.4093141732283465
0
LINE
8
BLACK
6
CONTINUOUS
10
2.0576787401574803
20
0.4093141732283465
11
2.0583096062992126
21
0.4086027952755906
0
LINE
8
BLACK
6
CONTINUOUS
10
2.0583096062992126
20
0.4086027952755906
11
2.0611217322834645
21
0.4029784645669292
0
LINE
8
BLACK
6
CONTINUOUS
10
2.0611217322834645
20
0.4029784645669292
11
2.061393818897638
21
0.4016487007874016
0
LINE
8
BLACK
6
CONTINUOUS
10
2.061393818897638
20
0.4016487007874016
11
2.0617451968503935
21
0.4003374803149606
0
LINE
8
BLACK
6
CONTINUOUS
10
2.0617451968503935
20
0.4003374803149606
11
2.0617451968503935
21
0.3890888976377953
0
LINE
8
BLACK
6
CONTINUOUS
10
2.0617451968503935
20
0.3890888976377953
11
2.0609540157480315
21
0.3861361417322834
0
LINE
8
BLACK
6
CONTINUOUS
10
2.0609540157480315
20
0.3861361417322834
11
2.0587924409448819
21
0.3839745669291338
0
LINE
8
BLACK
6
CONTINUOUS
10
2.0587924409448819
20
0.3839745669291338
11
2.0558396850393699
21
0.3831833858267716
0
LINE
8
BLACK
6
CONTINUOUS
10
2.0558396850393699
20
0.3831833858267716
11
2.0528869291338583
21
0.3839745669291338
0
LINE
8
BLACK
6
CONTINUOUS
10
2.0528869291338583
20
0.3839745669291338
11
2.0507253543307087
21
0.3861361417322834
0
LINE
8
BLACK
6
CONTINUOUS
10
2.0507253543307087
20
0.3861361417322834
11
2.0499341732283463
21
0.3890888976377953
0
LINE
8
BLACK
6
CONTINUOUS
10
2.0499341732283463
20
0.3890888976377953
11
2.0499341732283463
21
0.3989433858267716
0
LINE
8
BLACK
6
CONTINUOUS
10
2.0499341732283463
20
0.3989433858267716
11
2.04817405511811
21
0.4024635826771654
0
LINE
8
BLACK
6
CONTINUOUS
10
2.04817405511811
20
0.4024635826771654
11
2.0464531102362202
21
0.4041845275590551
0
LINE
8
BLACK
6
CONTINUOUS
10
2.0464531102362202
20
0.4041845275590551
11
2.0393541732283462
21
0.408917125984252
0
LINE
8
BLACK
6
CONTINUOUS
10
2.0393541732283462
20
0.408917125984252
11
2.0383406692913386
21
0.4091705118110236
0
LINE
8
BLACK
6
CONTINUOUS
10
2.0383406692913386
20
0.4091705118110236
11
2.0386245669291339
21
0.4086027952755906
0
LINE
8
BLACK
6
CONTINUOUS
10
2.0386245669291339
20
0.4086027952755906
11
2.0388966929133856
21
0.4072728346456693
0
LINE
8
BLACK
6
CONTINUOUS
10
2.0388966929133856
20
0.4072728346456693
11
2.0392480314960628
21
0.4059617716535433
0
LINE
8
BLACK
6
CONTINUOUS
10
2.0392480314960628
20
0.4059617716535433
11
2.0392480314960628
21
0.394713188976378
0
LINE
8
BLACK
6
CONTINUOUS
10
2.0392480314960628
20
0.394713188976378
11
2.0388967322834644
21
0.3934021259842519
0
LINE
8
BLACK
6
CONTINUOUS
10
2.0388967322834644
20
0.3934021259842519
11
2.0386245669291339
21
0.392072125984252
0
LINE
8
BLACK
6
CONTINUOUS
10
2.0386245669291339
20
0.392072125984252
11
2.0358124015748031
21
0.386447874015748
0
LINE
8
BLACK
6
CONTINUOUS
10
2.0358124015748031
20
0.386447874015748
11
2.0351815748031497
21
0.3857364960629921
0
LINE
8
BLACK
6
CONTINUOUS
10
2.0351815748031497
20
0.3857364960629921
11
2.0347061811023623
21
0.3849130708661417
0
LINE
8
BLACK
6
CONTINUOUS
10
2.0347061811023623
20
0.3849130708661417
11
2.0318940157480316
21
0.382100905511811
0
LINE
8
BLACK
6
CONTINUOUS
10
2.0318940157480316
20
0.382100905511811
11
2.031070590551181
21
0.3816255118110236
0
LINE
8
BLACK
6
CONTINUOUS
10
2.031070590551181
20
0.3816255118110236
11
2.0303592125984253
21
0.3809946850393701
0
LINE
8
BLACK
6
CONTINUOUS
10
2.0303592125984253
20
0.3809946850393701
11
2.0247349212598427
21
0.3781825590551181
0
LINE
8
BLACK
6
CONTINUOUS
10
2.0247349212598427
20
0.3781825590551181
11
2.0234050393700787
21
0.3779103937007874
0
LINE
8
BLACK
6
CONTINUOUS
10
2.0234050393700787
20
0.3779103937007874
11
2.0220938976377951
21
0.377559094488189
0
LINE
8
BLACK
6
CONTINUOUS
10
2.0220938976377951
20
0.377559094488189
11
2.0080331496062991
21
0.377559094488189
0
LINE
8
BLACK
6
CONTINUOUS
10
2.0080331496062991
20
0.377559094488189
11
2.0067218897637793
21
0.3779104330708661
0
LINE
8
BLACK
6
CONTINUOUS
10
2.0067218897637793
20
0.3779104330708661
11
2.0053921653543307
21
0.3781825590551181
0
LINE
8
BLACK
6
CONTINUOUS
10
2.0053921653543307
20
0.3781825590551181
11
1.9997678346456693
21
0.3809946850393701
0
LINE
8
BLACK
6
CONTINUOUS
10
1.9997678346456693
20
0.3809946850393701
11
1.9990564173228347
21
0.3816255118110236
0
LINE
8
BLACK
6
CONTINUOUS
10
1.9990564173228347
20
0.3816255118110236
11
1.9982329921259843
21
0.3821009448818898
0
LINE
8
BLACK
6
CONTINUOUS
10
1.9982329921259843
20
0.3821009448818898
11
1.9954208661417323
21
0.3849131102362205
0
LINE
8
BLACK
6
CONTINUOUS
10
1.9954208661417323
20
0.3849131102362205
11
1.9949454724409448
21
0.3857364960629921
0
LINE
8
BLACK
6
CONTINUOUS
10
1.9949454724409448
20
0.3857364960629921
11
1.99431468503937
21
0.386447874015748
0
LINE
8
BLACK
6
CONTINUOUS
10
1.99431468503937
20
0.386447874015748
11
1.9915025196850393
21
0.3920721653543307
0
LINE
8
BLACK
6
CONTINUOUS
10
1.9915025196850393
20
0.3920721653543307
11
1.9912303543307086
21
0.3934020866141732
0
LINE
8
BLACK
6
CONTINUOUS
10
1.9912303543307086
20
0.3934020866141732
11
1.9908790551181101
21
0.394713188976378
0
LINE
8
BLACK
6
CONTINUOUS
10
1.9908790551181101
20
0.394713188976378
11
1.9908790551181101
21
0.4059617716535433
0
LINE
8
BLACK
6
CONTINUOUS
10
1.9908790551181101
20
0.4059617716535433
11
1.9912303543307086
21
0.4072728346456693
0
LINE
8
BLACK
6
CONTINUOUS
10
1.9912303543307086
20
0.4072728346456693
11
1.9915025196850393
21
0.4086027952755906
0
LINE
8
BLACK
6
CONTINUOUS
10
1.9915025196850393
20
0.4086027952755906
11
1.99431468503937
21
0.4142271259842519
0
LINE
8
BLACK
6
CONTINUOUS
10
1.99431468503937
20
0.4142271259842519
11
1.9949455118110235
21
0.4149385039370079
0
LINE
8
BLACK
6
CONTINUOUS
10
1.9949455118110235
20
0.4149385039370079
11
1.9954209055118111
21
0.4157619291338582
0
LINE
8
BLACK
6
CONTINUOUS
10
1.9954209055118111
20
0.4157619291338582
11
1.998233031496063
21
0.4185740551181102
0
LINE
8
BLACK
6
CONTINUOUS
10
1.998233031496063
20
0.4185740551181102
11
1.9990564566929134
21
0.4190494488188976
0
LINE
8
BLACK
6
CONTINUOUS
10
1.9990564566929134
20
0.4190494488188976
11
1.9997678346456693
21
0.4196802755905512
0
LINE
8
BLACK
6
CONTINUOUS
10
1.9997678346456693
20
0.4196802755905512
11
2.0053920866141732
21
0.4224924409448819
0
LINE
8
BLACK
6
CONTINUOUS
10
2.0053920866141732
20
0.4224924409448819
11
2.0067220866141731
21
0.4227646062992126
0
LINE
8
BLACK
6
CONTINUOUS
10
2.0067220866141731
20
0.4227646062992126
11
2.0080331496062991
21
0.423115905511811
0
LINE
8
BLACK
6
CONTINUOUS
10
2.0080331496062991
20
0.423115905511811
11
2.0305303543307085
21
0.423115905511811
0
LINE
8
BLACK
6
CONTINUOUS
10
2.0305303543307085
20
0.423115905511811
11
2.0312341338582676
21
0.4229272834645669
0
LINE
8
BLACK
6
CONTINUOUS
10
2.0059070472440945
20
0.4095447637795275
11
2.0044501968503936
21
0.4080879133858268
0
LINE
8
BLACK
6
CONTINUOUS
10
2.0044501968503936
20
0.4080879133858268
11
2.0026900787401574
21
0.4045676771653543
0
LINE
8
BLACK
6
CONTINUOUS
10
2.0026900787401574
20
0.4045676771653543
11
2.0026900787401574
21
0.3961072834645669
0
LINE
8
BLACK
6
CONTINUOUS
10
2.0026900787401574
20
0.3961072834645669
11
2.0044501968503936
21
0.3925870078740157
0
LINE
8
BLACK
6
CONTINUOUS
10
2.0044501968503936
20
0.3925870078740157
11
2.0059070472440945
21
0.3911301574803149
0
LINE
8
BLACK
6
CONTINUOUS
10
2.0059070472440945
20
0.3911301574803149
11
2.0094272440944883
21
0.3893701181102362
0
LINE
8
BLACK
6
CONTINUOUS
10
2.0094272440944883
20
0.3893701181102362
11
2.0206998031496064
21
0.3893701181102362
0
LINE
8
BLACK
6
CONTINUOUS
10
2.0206998031496064
20
0.3893701181102362
11
2.0242199606299214
21
0.3911301574803149
0
LINE
8
BLACK
6
CONTINUOUS
10
2.0242199606299214
20
0.3911301574803149
11
2.0256768897637794
21
0.3925870866141732
0
LINE
8
BLACK
6
CONTINUOUS
10
2.0256768897637794
20
0.3925870866141732
11
2.0274370078740156
21
0.3961072834645669
0
LINE
8
BLACK
6
CONTINUOUS
10
2.0274370078740156
20
0.3961072834645669
11
2.0274370078740156
21
0.4045676771653543
0
LINE
8
BLACK
6
CONTINUOUS
10
2.0274370078740156
20
0.4045676771653543
11
2.0256768897637794
21
0.408087874015748
0
LINE
8
BLACK
6
CONTINUOUS
10
2.0256768897637794
20
0.408087874015748
11
2.0242200393700789
21
0.4095447244094488
0
LINE
8
BLACK
6
CONTINUOUS
10
2.0242200393700789
20
0.4095447244094488
11
2.0206998031496064
21
0.4113048818897638
0
LINE
8
BLACK
6
CONTINUOUS
10
2.0206998031496064
20
0.4113048818897638
11
2.0094272440944883
21
0.4113048818897638
0
LINE
8
BLACK
6
CONTINUOUS
10
2.0094272440944883
20
0.4113048818897638
11
2.0059070472440945
21
0.4095447637795275
0
LINE
8
BLACK
6
CONTINUOUS
10
2.0560845275590549
20
0.4501536220472441
11
2.0572033858267718
21
0.4495076771653543
0
LINE
8
BLACK
6
CONTINUOUS
10
2.0572033858267718
20
0.4495076771653543
11
2.0572033858267718
21
0.4495076377952756
0
LINE
8
BLACK
6
CONTINUOUS
10
2.0572033858267718
20
0.4495076377952756
11
2.0572034251968505
21
0.4495076377952756
0
LINE
8
BLACK
6
CONTINUOUS
10
2.0572034251968505
20
0.4495076377952756
11
2.0600155118110237
21
0.4466955118110236
0
LINE
8
BLACK
6
CONTINUOUS
10
2.0600155118110237
20
0.4466955118110236
11
2.0604042125984252
21
0.4460222047244095
0
LINE
8
BLACK
6
CONTINUOUS
10
2.0604042125984252
20
0.4460222047244095
11
2.0609540157480315
21
0.4454724409448819
0
LINE
8
BLACK
6
CONTINUOUS
10
2.0609540157480315
20
0.4454724409448819
11
2.0611552362204724
21
0.4447214566929134
0
LINE
8
BLACK
6
CONTINUOUS
10
2.0611552362204724
20
0.4447214566929134
11
2.0615439763779526
21
0.4440481496062992
0
LINE
8
BLACK
6
CONTINUOUS
10
2.0615439763779526
20
0.4440481496062992
11
2.0615439763779526
21
0.4440481102362205
0
LINE
8
BLACK
6
CONTINUOUS
10
2.0615439763779526
20
0.4440481102362205
11
2.0615439763779526
21
0.4432706299212598
0
LINE
8
BLACK
6
CONTINUOUS
10
2.0615439763779526
20
0.4432706299212598
11
2.0617451968503935
21
0.4425196850393701
0
LINE
8
BLACK
6
CONTINUOUS
10
2.0617451968503935
20
0.4425196850393701
11
2.0615439763779526
21
0.4417687007874015
0
LINE
8
BLACK
6
CONTINUOUS
10
2.0615439763779526
20
0.4417687007874015
11
2.0615439763779526
21
0.4409911811023622
0
LINE
8
BLACK
6
CONTINUOUS
10
2.0615439763779526
20
0.4409911811023622
11
2.0611551968503936
21
0.4403178346456693
0
LINE
8
BLACK
6
CONTINUOUS
10
2.0611551968503936
20
0.4403178346456693
11
2.0609540157480315
21
0.4395669291338583
0
LINE
8
BLACK
6
CONTINUOUS
10
2.0609540157480315
20
0.4395669291338583
11
2.0604042125984252
21
0.439017125984252
0
LINE
8
BLACK
6
CONTINUOUS
10
2.0604042125984252
20
0.439017125984252
11
2.0600155118110237
21
0.4383438582677165
0
LINE
8
BLACK
6
CONTINUOUS
10
2.0600155118110237
20
0.4383438582677165
11
2.0572033858267718
21
0.4355317322834645
0
LINE
8
BLACK
6
CONTINUOUS
10
2.0572033858267718
20
0.4355317322834645
11
2.0572033070866143
21
0.4355316929133858
0
LINE
8
BLACK
6
CONTINUOUS
10
2.0572033070866143
20
0.4355316929133858
11
2.054556062992126
21
0.4340032677165354
0
LINE
8
BLACK
6
CONTINUOUS
10
2.054556062992126
20
0.4340032677165354
11
2.0514991338582678
21
0.4340032677165354
0
LINE
8
BLACK
6
CONTINUOUS
10
2.0514991338582678
20
0.4340032677165354
11
2.051499094488189
21
0.4340032677165354
0
LINE
8
BLACK
6
CONTINUOUS
10
2.051499094488189
20
0.4340032677165354
11
2.0499706692913384
21
0.4348857086614173
0
LINE
8
BLACK
6
CONTINUOUS
10
2.0499706692913384
20
0.4348857086614173
11
2.0488517716535433
21
0.4355316929133858
0
LINE
8
BLACK
6
CONTINUOUS
10
2.0488517716535433
20
0.4355316929133858
11
2.0460396062992126
21
0.4383438188976378
0
LINE
8
BLACK
6
CONTINUOUS
10
2.0460396062992126
20
0.4383438188976378
11
2.046039527559055
21
0.4383438976377952
0
LINE
8
BLACK
6
CONTINUOUS
10
2.046039527559055
20
0.4383438976377952
11
2.0456508267716536
21
0.439017125984252
0
LINE
8
BLACK
6
CONTINUOUS
10
2.0456508267716536
20
0.439017125984252
11
2.045101062992126
21
0.4395669291338583
0
LINE
8
BLACK
6
CONTINUOUS
10
2.045101062992126
20
0.4395669291338583
11
2.0448998425196852
21
0.4403178346456693
0
LINE
8
BLACK
6
CONTINUOUS
10
2.0448998425196852
20
0.4403178346456693
11
2.0445111023622045
21
0.4409911811023622
0
LINE
8
BLACK
6
CONTINUOUS
10
2.0445111023622045
20
0.4409911811023622
11
2.0445111023622045
21
0.4417687007874015
0
LINE
8
BLACK
6
CONTINUOUS
10
2.0445111023622045
20
0.4417687007874015
11
2.0443098818897636
21
0.4425196850393701
0
LINE
8
BLACK
6
CONTINUOUS
10
2.0443098818897636
20
0.4425196850393701
11
2.0445111023622045
21
0.4432706299212598
0
LINE
8
BLACK
6
CONTINUOUS
10
2.0445111023622045
20
0.4432706299212598
11
2.0445111023622045
21
0.4440481102362205
0
LINE
8
BLACK
6
CONTINUOUS
10
2.0445111023622045
20
0.4440481102362205
11
2.0445111023622045
21
0.4440481496062992
0
LINE
8
BLACK
6
CONTINUOUS
10
2.0445111023622045
20
0.4440481496062992
11
2.0448998031496064
21
0.4447214566929134
0
LINE
8
BLACK
6
CONTINUOUS
10
2.0448998031496064
20
0.4447214566929134
11
2.045101062992126
21
0.4454724409448819
0
LINE
8
BLACK
6
CONTINUOUS
10
2.045101062992126
20
0.4454724409448819
11
2.0456508267716536
21
0.4460222047244095
0
LINE
8
BLACK
6
CONTINUOUS
10
2.0456508267716536
20
0.4460222047244095
11
2.0460395669291338
21
0.4466955118110236
0
LINE
8
BLACK
6
CONTINUOUS
10
2.0460395669291338
20
0.4466955118110236
11
2.0488517322834645
21
0.4495076771653543
0
LINE
8
BLACK
6
CONTINUOUS
10
2.0488517322834645
20
0.4495076771653543
11
2.0488517716535433
21
0.4495077165354331
0
LINE
8
BLACK
6
CONTINUOUS
10
2.0488517716535433
20
0.4495077165354331
11
2.0499706692913384
21
0.4501536614173228
0
LINE
8
BLACK
6
CONTINUOUS
10
2.0499706692913384
20
0.4501536614173228
11
2.051499094488189
21
0.4510361417322835
0
LINE
8
BLACK
6
CONTINUOUS
10
2.051499094488189
20
0.4510361417322835
11
2.0545560236220473
21
0.4510361417322835
0
LINE
8
BLACK
6
CONTINUOUS
10
2.0545560236220473
20
0.4510361417322835
11
2.054556062992126
21
0.4510361417322835
0
LINE
8
BLACK
6
CONTINUOUS
10
2.054556062992126
20
0.4510361417322835
11
2.0560845275590549
21
0.4501536220472441
0
LINE
8
BLACK
6
CONTINUOUS
10
2.0312341338582676
20
0.5072917322834646
11
2.0319626771653545
21
0.5073040157480315
0
LINE
8
BLACK
6
CONTINUOUS
10
2.0319626771653545
20
0.5073040157480315
11
2.0432112204724411
21
0.5044918503937008
0
LINE
8
BLACK
6
CONTINUOUS
10
2.0432112204724411
20
0.5044918503937008
11
2.0440959055118109
21
0.5040007086614173
0
LINE
8
BLACK
6
CONTINUOUS
10
2.0440959055118109
20
0.5040007086614173
11
2.0450547244094488
21
0.5036763779527559
0
LINE
8
BLACK
6
CONTINUOUS
10
2.0450547244094488
20
0.5036763779527559
11
2.0534911811023622
21
0.4980520472440945
0
LINE
8
BLACK
6
CONTINUOUS
10
2.0534911811023622
20
0.4980520472440945
11
2.0538804330708662
21
0.497609094488189
0
LINE
8
BLACK
6
CONTINUOUS
10
2.0538804330708662
20
0.497609094488189
11
2.054391220472441
21
0.4973142125984252
0
LINE
8
BLACK
6
CONTINUOUS
10
2.054391220472441
20
0.4973142125984252
11
2.0572033858267718
21
0.4945020472440945
0
LINE
8
BLACK
6
CONTINUOUS
10
2.0572033858267718
20
0.4945020472440945
11
2.0576787401574803
21
0.4936786220472441
0
LINE
8
BLACK
6
CONTINUOUS
10
2.0576787401574803
20
0.4936786220472441
11
2.0583096062992126
21
0.4929672440944882
0
LINE
8
BLACK
6
CONTINUOUS
10
2.0583096062992126
20
0.4929672440944882
11
2.0611217322834645
21
0.4873429133858267
0
LINE
8
BLACK
6
CONTINUOUS
10
2.0611217322834645
20
0.4873429133858267
11
2.061393818897638
21
0.4860131496062992
0
LINE
8
BLACK
6
CONTINUOUS
10
2.061393818897638
20
0.4860131496062992
11
2.0617451968503935
21
0.4847019291338582
0
LINE
8
BLACK
6
CONTINUOUS
10
2.0617451968503935
20
0.4847019291338582
11
2.0617451968503935
21
0.4734533464566929
0
LINE
8
BLACK
6
CONTINUOUS
10
2.0617451968503935
20
0.4734533464566929
11
2.0609540157480315
21
0.4705005905511811
0
LINE
8
BLACK
6
CONTINUOUS
10
2.0609540157480315
20
0.4705005905511811
11
2.0587924409448819
21
0.4683390157480315
0
LINE
8
BLACK
6
CONTINUOUS
10
2.0587924409448819
20
0.4683390157480315
11
2.0558396850393699
21
0.4675478346456693
0
LINE
8
BLACK
6
CONTINUOUS
10
2.0558396850393699
20
0.4675478346456693
11
2.0528869291338583
21
0.4683390157480315
0
LINE
8
BLACK
6
CONTINUOUS
10
2.0528869291338583
20
0.4683390157480315
11
2.0507253543307087
21
0.4705005905511811
0
LINE
8
BLACK
6
CONTINUOUS
10
2.0507253543307087
20
0.4705005905511811
11
2.0499341732283463
21
0.4734533464566929
0
LINE
8
BLACK
6
CONTINUOUS
10
2.0499341732283463
20
0.4734533464566929
11
2.0499341732283463
21
0.4833078346456693
0
LINE
8
BLACK
6
CONTINUOUS
10
2.0499341732283463
20
0.4833078346456693
11
2.04817405511811
21
0.486828031496063
0
LINE
8
BLACK
6
CONTINUOUS
10
2.04817405511811
20
0.486828031496063
11
2.0464531102362202
21
0.4885489763779527
0
LINE
8
BLACK
6
CONTINUOUS
10
2.0464531102362202
20
0.4885489763779527
11
2.0393541732283462
21
0.4932815748031496
0
LINE
8
BLACK
6
CONTINUOUS
10
2.0393541732283462
20
0.4932815748031496
11
2.0383406692913386
21
0.4935349606299212
0
LINE
8
BLACK
6
CONTINUOUS
10
2.0383406692913386
20
0.4935349606299212
11
2.0386245669291339
21
0.4929672440944882
0
LINE
8
BLACK
6
CONTINUOUS
10
2.0386245669291339
20
0.4929672440944882
11
2.0388966929133856
21
0.4916372834645669
0
LINE
8
BLACK
6
CONTINUOUS
10
2.0388966929133856
20
0.4916372834645669
11
2.0392480314960628
21
0.490326220472441
0
LINE
8
BLACK
6
CONTINUOUS
10
2.0392480314960628
20
0.490326220472441
11
2.0392480314960628
21
0.4790776377952756
0
LINE
8
BLACK
6
CONTINUOUS
10
2.0392480314960628
20
0.4790776377952756
11
2.0388967322834644
21
0.4777665748031496
0
LINE
8
BLACK
6
CONTINUOUS
10
2.0388967322834644
20
0.4777665748031496
11
2.0386245669291339
21
0.4764365748031496
0
LINE
8
BLACK
6
CONTINUOUS
10
2.0386245669291339
20
0.4764365748031496
11
2.0358124015748031
21
0.4708123228346456
0
LINE
8
BLACK
6
CONTINUOUS
10
2.0358124015748031
20
0.4708123228346456
11
2.0351815748031497
21
0.4701009448818897
0
LINE
8
BLACK
6
CONTINUOUS
10
2.0351815748031497
20
0.4701009448818897
11
2.0347061811023623
21
0.4692775196850393
0
LINE
8
BLACK
6
CONTINUOUS
10
2.0347061811023623
20
0.4692775196850393
11
2.0318940157480316
21
0.4664653543307086
0
LINE
8
BLACK
6
CONTINUOUS
10
2.0318940157480316
20
0.4664653543307086
11
2.031070590551181
21
0.4659899606299213
0
LINE
8
BLACK
6
CONTINUOUS
10
2.031070590551181
20
0.4659899606299213
11
2.0303592125984253
21
0.4653591338582677
0
LINE
8
BLACK
6
CONTINUOUS
10
2.0303592125984253
20
0.4653591338582677
11
2.0247349212598427
21
0.4625470078740158
0
LINE
8
BLACK
6
CONTINUOUS
10
2.0247349212598427
20
0.4625470078740158
11
2.0234050393700787
21
0.462274842519685
0
LINE
8
BLACK
6
CONTINUOUS
10
2.0234050393700787
20
0.462274842519685
11
2.0220938976377951
21
0.4619235433070866
0
LINE
8
BLACK
6
CONTINUOUS
10
2.0220938976377951
20
0.4619235433070866
11
2.0080331496062991
21
0.4619235433070866
0
LINE
8
BLACK
6
CONTINUOUS
10
2.0080331496062991
20
0.4619235433070866
11
2.0067218897637793
21
0.4622748818897638
0
LINE
8
BLACK
6
CONTINUOUS
10
2.0067218897637793
20
0.4622748818897638
11
2.0053921653543307
21
0.4625470078740158
0
LINE
8
BLACK
6
CONTINUOUS
10
2.0053921653543307
20
0.4625470078740158
11
1.9997678346456693
21
0.4653591338582677
0
LINE
8
BLACK
6
CONTINUOUS
10
1.9997678346456693
20
0.4653591338582677
11
1.9990564173228347
21
0.4659899606299213
0
LINE
8
BLACK
6
CONTINUOUS
10
1.9990564173228347
20
0.4659899606299213
11
1.9982329921259843
21
0.4664653937007874
0
LINE
8
BLACK
6
CONTINUOUS
10
1.9982329921259843
20
0.4664653937007874
11
1.9954208661417323
21
0.4692775590551181
0
LINE
8
BLACK
6
CONTINUOUS
10
1.9954208661417323
20
0.4692775590551181
11
1.9949454724409448
21
0.4701009448818897
0
LINE
8
BLACK
6
CONTINUOUS
10
1.9949454724409448
20
0.4701009448818897
11
1.99431468503937
21
0.4708123228346456
0
LINE
8
BLACK
6
CONTINUOUS
10
1.99431468503937
20
0.4708123228346456
11
1.9915025196850393
21
0.4764366141732284
0
LINE
8
BLACK
6
CONTINUOUS
10
1.9915025196850393
20
0.4764366141732284
11
1.9912303543307086
21
0.4777665354330708
0
LINE
8
BLACK
6
CONTINUOUS
10
1.9912303543307086
20
0.4777665354330708
11
1.9908790551181101
21
0.4790776377952756
0
LINE
8
BLACK
6
CONTINUOUS
10
1.9908790551181101
20
0.4790776377952756
11
1.9908790551181101
21
0.490326220472441
0
LINE
8
BLACK
6
CONTINUOUS
10
1.9908790551181101
20
0.490326220472441
11
1.9912303543307086
21
0.4916372834645669
0
LINE
8
BLACK
6
CONTINUOUS
10
1.9912303543307086
20
0.4916372834645669
11
1.9915025196850393
21
0.4929672440944882
0
LINE
8
BLACK
6
CONTINUOUS
10
1.9915025196850393
20
0.4929672440944882
11
1.99431468503937
21
0.4985915748031496
0
LINE
8
BLACK
6
CONTINUOUS
10
1.99431468503937
20
0.4985915748031496
11
1.9949455118110235
21
0.4993029527559055
0
LINE
8
BLACK
6
CONTINUOUS
10
1.9949455118110235
20
0.4993029527559055
11
1.9954209055118111
21
0.5001263779527559
0
LINE
8
BLACK
6
CONTINUOUS
10
1.9954209055118111
20
0.5001263779527559
11
1.998233031496063
21
0.5029385039370079
0
LINE
8
BLACK
6
CONTINUOUS
10
1.998233031496063
20
0.5029385039370079
11
1.9990564566929134
21
0.5034138976377953
0
LINE
8
BLACK
6
CONTINUOUS
10
1.9990564566929134
20
0.5034138976377953
11
1.9997678346456693
21
0.5040447244094488
0
LINE
8
BLACK
6
CONTINUOUS
10
1.9997678346456693
20
0.5040447244094488
11
2.0053920866141732
21
0.5068568897637795
0
LINE
8
BLACK
6
CONTINUOUS
10
2.0053920866141732
20
0.5068568897637795
11
2.0067220866141731
21
0.5071290551181102
0
LINE
8
BLACK
6
CONTINUOUS
10
2.0067220866141731
20
0.5071290551181102
11
2.0080331496062991
21
0.5074803543307087
0
LINE
8
BLACK
6
CONTINUOUS
10
2.0080331496062991
20
0.5074803543307087
11
2.0305303543307085
21
0.5074803543307087
0
LINE
8
BLACK
6
CONTINUOUS
10
2.0305303543307085
20
0.5074803543307087
11
2.0312341338582676
21
0.5072917322834646
0
LINE
8
BLACK
6
CONTINUOUS
10
2.0059070472440945
20
0.4939092125984252
11
2.0044501968503936
21
0.4924523622047244
0
LINE
8
BLACK
6
CONTINUOUS
10
2.0044501968503936
20
0.4924523622047244
11
2.0026900787401574
21
0.488932125984252
0
LINE
8
BLACK
6
CONTINUOUS
10
2.0026900787401574
20
0.488932125984252
11
2.0026900787401574
21
0.4804717322834646
0
LINE
8
BLACK
6
CONTINUOUS
10
2.0026900787401574
20
0.4804717322834646
11
2.0044501968503936
21
0.4769514566929134
0
LINE
8
BLACK
6
CONTINUOUS
10
2.0044501968503936
20
0.4769514566929134
11
2.0059070472440945
21
0.4754946062992126
0
LINE
8
BLACK
6
CONTINUOUS
10
2.0059070472440945
20
0.4754946062992126
11
2.0094272440944883
21
0.4737345669291338
0
LINE
8
BLACK
6
CONTINUOUS
10
2.0094272440944883
20
0.4737345669291338
11
2.0206998031496064
21
0.4737345669291338
0
LINE
8
BLACK
6
CONTINUOUS
10
2.0206998031496064
20
0.4737345669291338
11
2.0242199606299214
21
0.4754946062992126
0
LINE
8
BLACK
6
CONTINUOUS
10
2.0242199606299214
20
0.4754946062992126
11
2.0256768897637794
21
0.4769515354330708
0
LINE
8
BLACK
6
CONTINUOUS
10
2.0256768897637794
20
0.4769515354330708
11
2.0274370078740156
21
0.4804717322834646
0
LINE
8
BLACK
6
CONTINUOUS
10
2.0274370078740156
20
0.4804717322834646
11
2.0274370078740156
21
0.488932125984252
0
LINE
8
BLACK
6
CONTINUOUS
10
2.0274370078740156
20
0.488932125984252
11
2.0256768897637794
21
0.4924523228346457
0
LINE
8
BLACK
6
CONTINUOUS
10
2.0256768897637794
20
0.4924523228346457
11
2.0242200393700789
21
0.4939091732283464
0
LINE
8
BLACK
6
CONTINUOUS
10
2.0242200393700789
20
0.4939091732283464
11
2.0206998031496064
21
0.4956693307086614
0
LINE
8
BLACK
6
CONTINUOUS
10
2.0206998031496064
20
0.4956693307086614
11
2.0094272440944883
21
0.4956693307086614
0
LINE
8
BLACK
6
CONTINUOUS
10
2.0094272440944883
20
0.4956693307086614
11
2.0059070472440945
21
0.4939092125984252
0
LINE
8
BLACK
6
CONTINUOUS
10
1.9979333858267716
20
0.5662275984251969
11
1.9991108661417323
21
0.5660579527559055
0
LINE
8
BLACK
6
CONTINUOUS
10
1.9991108661417323
20
0.5660579527559055
11
2.0581659842519686
21
0.5407486220472441
0
LINE
8
BLACK
6
CONTINUOUS
10
2.0581659842519686
20
0.5407486220472441
11
2.0605683070866143
21
0.5388582677165354
0
LINE
8
BLACK
6
CONTINUOUS
10
2.0605683070866143
20
0.5388582677165354
11
2.061703622047244
21
0.5360199606299213
0
LINE
8
BLACK
6
CONTINUOUS
10
2.061703622047244
20
0.5360199606299213
11
2.0612676771653544
21
0.5329942913385827
0
LINE
8
BLACK
6
CONTINUOUS
10
2.0612676771653544
20
0.5329942913385827
11
2.0593773228346457
21
0.530591968503937
0
LINE
8
BLACK
6
CONTINUOUS
10
2.0593773228346457
20
0.530591968503937
11
2.05653905511811
21
0.5294566535433071
0
LINE
8
BLACK
6
CONTINUOUS
10
2.05653905511811
20
0.5294566535433071
11
2.0535133858267716
21
0.5298925590551181
0
LINE
8
BLACK
6
CONTINUOUS
10
2.0535133858267716
20
0.5298925590551181
11
2.0026900787401574
21
0.551673937007874
0
LINE
8
BLACK
6
CONTINUOUS
10
2.0026900787401574
20
0.551673937007874
11
2.0026900787401574
21
0.521259842519685
0
LINE
8
BLACK
6
CONTINUOUS
10
2.0026900787401574
20
0.521259842519685
11
2.0018988976377954
21
0.5183070866141732
0
LINE
8
BLACK
6
CONTINUOUS
10
2.0018988976377954
20
0.5183070866141732
11
1.9997373228346456
21
0.5161455118110236
0
LINE
8
BLACK
6
CONTINUOUS
10
1.9997373228346456
20
0.5161455118110236
11
1.9967845669291338
21
0.5153543307086614
0
LINE
8
BLACK
6
CONTINUOUS
10
1.9967845669291338
20
0.5153543307086614
11
1.9938318110236219
21
0.5161455118110236
0
LINE
8
BLACK
6
CONTINUOUS
10
1.9938318110236219
20
0.5161455118110236
11
1.9916702362204723
21
0.5183070866141732
0
LINE
8
BLACK
6
CONTINUOUS
10
1.9916702362204723
20
0.5183070866141732
11
1.9908790551181101
21
0.521259842519685
0
LINE
8
BLACK
6
CONTINUOUS
10
1.9908790551181101
20
0.521259842519685
11
1.9908790551181101
21
0.5606299212598425
0
LINE
8
BLACK
6
CONTINUOUS
10
1.9908790551181101
20
0.5606299212598425
11
1.9911868503937007
21
0.5617787401574803
0
LINE
8
BLACK
6
CONTINUOUS
10
1.9911868503937007
20
0.5617787401574803
11
1.9913565354330709
21
0.562956220472441
0
LINE
8
BLACK
6
CONTINUOUS
10
1.9913565354330709
20
0.562956220472441
11
1.9915776771653544
21
0.5632372440944882
0
LINE
8
BLACK
6
CONTINUOUS
10
1.9915776771653544
20
0.5632372440944882
11
1.9916702362204723
21
0.5635826771653544
0
LINE
8
BLACK
6
CONTINUOUS
10
1.9916702362204723
20
0.5635826771653544
11
1.9925112204724409
21
0.5644236614173228
0
LINE
8
BLACK
6
CONTINUOUS
10
1.9925112204724409
20
0.5644236614173228
11
1.9932468897637794
21
0.5653585826771653
0
LINE
8
BLACK
6
CONTINUOUS
10
1.9932468897637794
20
0.5653585826771653
11
1.993578937007874
21
0.5654913779527559
0
LINE
8
BLACK
6
CONTINUOUS
10
1.993578937007874
20
0.5654913779527559
11
1.9938318110236219
21
0.565744251968504
0
LINE
8
BLACK
6
CONTINUOUS
10
1.9938318110236219
20
0.565744251968504
11
1.9949806299212598
21
0.5660520472440945
0
LINE
8
BLACK
6
CONTINUOUS
10
1.9949806299212598
20
0.5660520472440945
11
1.9960851968503937
21
0.5664938976377952
0
LINE
8
BLACK
6
CONTINUOUS
10
1.9960851968503937
20
0.5664938976377952
11
1.9964391732283464
21
0.566442874015748
0
LINE
8
BLACK
6
CONTINUOUS
10
1.9964391732283464
20
0.566442874015748
11
1.9967845669291338
21
0.5665354330708662
0
LINE
8
BLACK
6
CONTINUOUS
10
1.9967845669291338
20
0.5665354330708662
11
1.9979333858267716
21
0.5662275984251969
0
LINE
8
BLACK
6
CONTINUOUS
10
2.0145759055118111
20
0.6197201574803149
11
2.0155249999999998
21
0.619663188976378
0
LINE
8
BLACK
6
CONTINUOUS
10
2.0155249999999998
20
0.619663188976378
11
2.0239613779527557
21
0.6168510236220472
0
LINE
8
BLACK
6
CONTINUOUS
10
2.0239613779527557
20
0.6168510236220472
11
2.025093779527559
21
0.6161033070866142
0
LINE
8
BLACK
6
CONTINUOUS
10
2.025093779527559
20
0.6161033070866142
11
2.026269724409449
21
0.6154244094488189
0
LINE
8
BLACK
6
CONTINUOUS
10
2.026269724409449
20
0.6154244094488189
11
2.0499341732283463
21
0.5917599606299212
0
LINE
8
BLACK
6
CONTINUOUS
10
2.0499341732283463
20
0.5917599606299212
11
2.0499341732283463
21
0.614060748031496
0
LINE
8
BLACK
6
CONTINUOUS
10
2.0499341732283463
20
0.614060748031496
11
2.0507253543307087
21
0.6170135039370078
0
LINE
8
BLACK
6
CONTINUOUS
10
2.0507253543307087
20
0.6170135039370078
11
2.0528869291338583
21
0.6191750787401574
0
LINE
8
BLACK
6
CONTINUOUS
10
2.0528869291338583
20
0.6191750787401574
11
2.0558396850393699
21
0.6199662598425196
0
LINE
8
BLACK
6
CONTINUOUS
10
2.0558396850393699
20
0.6199662598425196
11
2.0587924409448819
21
0.6191750787401574
0
LINE
8
BLACK
6
CONTINUOUS
10
2.0587924409448819
20
0.6191750787401574
11
2.0609540157480315
21
0.6170135039370078
0
LINE
8
BLACK
6
CONTINUOUS
10
2.0609540157480315
20
0.6170135039370078
11
2.0617451968503935
21
0.614060748031496
0
LINE
8
BLACK
6
CONTINUOUS
10
2.0617451968503935
20
0.614060748031496
11
2.0617451968503935
21
0.5775027952755906
0
LINE
8
BLACK
6
CONTINUOUS
10
2.0617451968503935
20
0.5775027952755906
11
2.0615439763779526
21
0.5767518110236221
0
LINE
8
BLACK
6
CONTINUOUS
10
2.0615439763779526
20
0.5767518110236221
11
2.0615439763779526
21
0.5759743307086614
0
LINE
8
BLACK
6
CONTINUOUS
10
2.0615439763779526
20
0.5759743307086614
11
2.0611552362204724
21
0.5753009842519685
0
LINE
8
BLACK
6
CONTINUOUS
10
2.0611552362204724
20
0.5753009842519685
11
2.0609540157480315
21
0.5745500393700788
0
LINE
8
BLACK
6
CONTINUOUS
10
2.0609540157480315
20
0.5745500393700788
11
2.0604042125984252
21
0.5740002362204725
0
LINE
8
BLACK
6
CONTINUOUS
10
2.0604042125984252
20
0.5740002362204725
11
2.0600155118110237
21
0.5733269685039369
0
LINE
8
BLACK
6
CONTINUOUS
10
2.0600155118110237
20
0.5733269685039369
11
2.0593422047244094
21
0.5729382283464567
0
LINE
8
BLACK
6
CONTINUOUS
10
2.0593422047244094
20
0.5729382283464567
11
2.0587924409448819
21
0.5723884645669292
0
LINE
8
BLACK
6
CONTINUOUS
10
2.0587924409448819
20
0.5723884645669292
11
2.0580414566929135
21
0.5721872047244094
0
LINE
8
BLACK
6
CONTINUOUS
10
2.0580414566929135
20
0.5721872047244094
11
2.0573681496062992
21
0.5717985039370078
0
LINE
8
BLACK
6
CONTINUOUS
10
2.0573681496062992
20
0.5717985039370078
11
2.0565906692913387
21
0.5717985039370078
0
LINE
8
BLACK
6
CONTINUOUS
10
2.0565906692913387
20
0.5717985039370078
11
2.0558396850393699
21
0.571597283464567
0
LINE
8
BLACK
6
CONTINUOUS
10
2.0558396850393699
20
0.571597283464567
11
2.0550887007874015
21
0.5717985039370078
0
LINE
8
BLACK
6
CONTINUOUS
10
2.0550887007874015
20
0.5717985039370078
11
2.054311220472441
21
0.5717985039370078
0
LINE
8
BLACK
6
CONTINUOUS
10
2.054311220472441
20
0.5717985039370078
11
2.0536378740157479
21
0.5721872047244094
0
LINE
8
BLACK
6
CONTINUOUS
10
2.0536378740157479
20
0.5721872047244094
11
2.0528869291338583
21
0.5723884645669292
0
LINE
8
BLACK
6
CONTINUOUS
10
2.0528869291338583
20
0.5723884645669292
11
2.052337125984252
21
0.5729382283464567
0
LINE
8
BLACK
6
CONTINUOUS
10
2.052337125984252
20
0.5729382283464567
11
2.0516638582677165
21
0.5733269685039369
0
LINE
8
BLACK
6
CONTINUOUS
10
2.0516638582677165
20
0.5733269685039369
11
2.0189038188976376
21
0.606086968503937
0
LINE
8
BLACK
6
CONTINUOUS
10
2.0189038188976376
20
0.606086968503937
11
2.0126991732283463
21
0.6081552362204724
0
LINE
8
BLACK
6
CONTINUOUS
10
2.0126991732283463
20
0.6081552362204724
11
2.0094272440944883
21
0.6081552362204724
0
LINE
8
BLACK
6
CONTINUOUS
10
2.0094272440944883
20
0.6081552362204724
11
2.0059070472440945
21
0.6063951181102362
0
LINE
8
BLACK
6
CONTINUOUS
10
2.0059070472440945
20
0.6063951181102362
11
2.0044501968503936
21
0.6049382677165355
0
LINE
8
BLACK
6
CONTINUOUS
10
2.0044501968503936
20
0.6049382677165355
11
2.0026900787401574
21
0.601418031496063
0
LINE
8
BLACK
6
CONTINUOUS
10
2.0026900787401574
20
0.601418031496063
11
2.0026900787401574
21
0.5901455118110236
0
LINE
8
BLACK
6
CONTINUOUS
10
2.0026900787401574
20
0.5901455118110236
11
2.0044501968503936
21
0.5866252755905512
0
LINE
8
BLACK
6
CONTINUOUS
10
2.0044501968503936
20
0.5866252755905512
11
2.0065846850393698
21
0.5844907874015748
0
LINE
8
BLACK
6
CONTINUOUS
10
2.0065846850393698
20
0.5844907874015748
11
2.0081131496062992
21
0.5818434251968504
0
LINE
8
BLACK
6
CONTINUOUS
10
2.0081131496062992
20
0.5818434251968504
11
2.0081131496062992
21
0.5787864960629922
0
LINE
8
BLACK
6
CONTINUOUS
10
2.0081131496062992
20
0.5787864960629922
11
2.0065846850393698
21
0.5761391338582676
0
LINE
8
BLACK
6
CONTINUOUS
10
2.0065846850393698
20
0.5761391338582676
11
2.0039373228346458
21
0.5746106692913385
0
LINE
8
BLACK
6
CONTINUOUS
10
2.0039373228346458
20
0.5746106692913385
11
2.0008803937007875
21
0.5746106692913385
0
LINE
8
BLACK
6
CONTINUOUS
10
2.0008803937007875
20
0.5746106692913385
11
1.998233031496063
21
0.5761391338582676
0
LINE
8
BLACK
6
CONTINUOUS
10
1.998233031496063
20
0.5761391338582676
11
1.9954209055118111
21
0.5789512598425197
0
LINE
8
BLACK
6
CONTINUOUS
10
1.9954209055118111
20
0.5789512598425197
11
1.9949455118110235
21
0.5797746456692914
0
LINE
8
BLACK
6
CONTINUOUS
10
1.9949455118110235
20
0.5797746456692914
11
1.99431468503937
21
0.580486062992126
0
LINE
8
BLACK
6
CONTINUOUS
10
1.99431468503937
20
0.580486062992126
11
1.9915025196850393
21
0.5861103937007874
0
LINE
8
BLACK
6
CONTINUOUS
10
1.9915025196850393
20
0.5861103937007874
11
1.9912303543307086
21
0.5874403149606299
0
LINE
8
BLACK
6
CONTINUOUS
10
1.9912303543307086
20
0.5874403149606299
11
1.9908790551181101
21
0.5887514173228346
0
LINE
8
BLACK
6
CONTINUOUS
10
1.9908790551181101
20
0.5887514173228346
11
1.9908790551181101
21
0.6028121259842519
0
LINE
8
BLACK
6
CONTINUOUS
10
1.9908790551181101
20
0.6028121259842519
11
1.9912303543307086
21
0.604123188976378
0
LINE
8
BLACK
6
CONTINUOUS
10
1.9912303543307086
20
0.604123188976378
11
1.9915025196850393
21
0.6054531496062991
0
LINE
8
BLACK
6
CONTINUOUS
10
1.9915025196850393
20
0.6054531496062991
11
1.99431468503937
21
0.6110774803149606
0
LINE
8
BLACK
6
CONTINUOUS
10
1.99431468503937
20
0.6110774803149606
11
1.9949455118110235
21
0.6117888582677166
0
LINE
8
BLACK
6
CONTINUOUS
10
1.9949455118110235
20
0.6117888582677166
11
1.9954209055118111
21
0.6126122834645669
0
LINE
8
BLACK
6
CONTINUOUS
10
1.9954209055118111
20
0.6126122834645669
11
1.998233031496063
21
0.6154244094488189
0
LINE
8
BLACK
6
CONTINUOUS
10
1.998233031496063
20
0.6154244094488189
11
1.9990564566929134
21
0.6158998031496062
0
LINE
8
BLACK
6
CONTINUOUS
10
1.9990564566929134
20
0.6158998031496062
11
1.9997678346456693
21
0.6165306299212598
0
LINE
8
BLACK
6
CONTINUOUS
10
1.9997678346456693
20
0.6165306299212598
11
2.0053920866141732
21
0.6193427952755906
0
LINE
8
BLACK
6
CONTINUOUS
10
2.0053920866141732
20
0.6193427952755906
11
2.0067220866141731
21
0.6196149606299213
0
LINE
8
BLACK
6
CONTINUOUS
10
2.0067220866141731
20
0.6196149606299213
11
2.0080331496062991
21
0.6199662598425196
0
LINE
8
BLACK
6
CONTINUOUS
10
2.0080331496062991
20
0.6199662598425196
11
2.0136574803149605
21
0.6199662598425196
0
LINE
8
BLACK
6
CONTINUOUS
10
2.0136574803149605
20
0.6199662598425196
11
2.0145759055118111
21
0.6197201574803149
0
LINE
8
BLACK
6
CONTINUOUS
10
2.0340462992125983
20
0.6760205905511811
11
2.0347748425196852
21
0.676032874015748
0
LINE
8
BLACK
6
CONTINUOUS
10
2.0347748425196852
20
0.676032874015748
11
2.0460233858267718
21
0.6732207086614173
0
LINE
8
BLACK
6
CONTINUOUS
10
2.0460233858267718
20
0.6732207086614173
11
2.0465933464566928
21
0.6729042913385826
0
LINE
8
BLACK
6
CONTINUOUS
10
2.0465933464566928
20
0.6729042913385826
11
2.0472321259842521
21
0.6727735826771654
0
LINE
8
BLACK
6
CONTINUOUS
10
2.0472321259842521
20
0.6727735826771654
11
2.0528564173228347
21
0.6699614566929134
0
LINE
8
BLACK
6
CONTINUOUS
10
2.0528564173228347
20
0.6699614566929134
11
2.0535677952755904
21
0.669330590551181
0
LINE
8
BLACK
6
CONTINUOUS
10
2.0535677952755904
20
0.669330590551181
11
2.054391220472441
21
0.6688552362204724
0
LINE
8
BLACK
6
CONTINUOUS
10
2.054391220472441
20
0.6688552362204724
11
2.0572033858267718
21
0.6660430708661417
0
LINE
8
BLACK
6
CONTINUOUS
10
2.0572033858267718
20
0.6660430708661417
11
2.0576787401574803
21
0.6652196456692914
0
LINE
8
BLACK
6
CONTINUOUS
10
2.0576787401574803
20
0.6652196456692914
11
2.0583096062992126
21
0.6645082677165354
0
LINE
8
BLACK
6
CONTINUOUS
10
2.0583096062992126
20
0.6645082677165354
11
2.0611217322834645
21
0.658883937007874
0
LINE
8
BLACK
6
CONTINUOUS
10
2.0611217322834645
20
0.658883937007874
11
2.061393818897638
21
0.6575541732283464
0
LINE
8
BLACK
6
CONTINUOUS
10
2.061393818897638
20
0.6575541732283464
11
2.0617451968503935
21
0.6562429527559055
0
LINE
8
BLACK
6
CONTINUOUS
10
2.0617451968503935
20
0.6562429527559055
11
2.0617451968503935
21
0.6506186614173228
0
LINE
8
BLACK
6
CONTINUOUS
10
2.0617451968503935
20
0.6506186614173228
11
2.061393818897638
21
0.6493074015748032
0
LINE
8
BLACK
6
CONTINUOUS
10
2.061393818897638
20
0.6493074015748032
11
2.0611217322834645
21
0.6479776771653544
0
LINE
8
BLACK
6
CONTINUOUS
10
2.0611217322834645
20
0.6479776771653544
11
2.0583096062992126
21
0.642353346456693
0
LINE
8
BLACK
6
CONTINUOUS
10
2.0583096062992126
20
0.642353346456693
11
2.0576787401574803
21
0.6416419291338582
0
LINE
8
BLACK
6
CONTINUOUS
10
2.0576787401574803
20
0.6416419291338582
11
2.0572033858267718
21
0.6408185433070867
0
LINE
8
BLACK
6
CONTINUOUS
10
2.0572033858267718
20
0.6408185433070867
11
2.054391220472441
21
0.6380063779527559
0
LINE
8
BLACK
6
CONTINUOUS
10
2.054391220472441
20
0.6380063779527559
11
2.0535677559055117
21
0.6375309448818898
0
LINE
8
BLACK
6
CONTINUOUS
10
2.0535677559055117
20
0.6375309448818898
11
2.0528564173228347
21
0.6369001574803149
0
LINE
8
BLACK
6
CONTINUOUS
10
2.0528564173228347
20
0.6369001574803149
11
2.0472321259842521
21
0.6340879921259842
0
LINE
8
BLACK
6
CONTINUOUS
10
2.0472321259842521
20
0.6340879921259842
11
2.0465933464566928
21
0.6339572440944882
0
LINE
8
BLACK
6
CONTINUOUS
10
2.0465933464566928
20
0.6339572440944882
11
2.0460233858267718
21
0.6336408661417323
0
LINE
8
BLACK
6
CONTINUOUS
10
2.0460233858267718
20
0.6336408661417323
11
2.0347748031496065
21
0.6308287401574802
0
LINE
8
BLACK
6
CONTINUOUS
10
2.0347748031496065
20
0.6308287401574802
11
2.034046338582677
21
0.6308409842519684
0
LINE
8
BLACK
6
CONTINUOUS
10
2.034046338582677
20
0.6308409842519684
11
2.0333425196850392
21
0.6306524015748032
0
LINE
8
BLACK
6
CONTINUOUS
10
2.0333425196850392
20
0.6306524015748032
11
2.0192817716535432
21
0.6306524015748032
0
LINE
8
BLACK
6
CONTINUOUS
10
2.0192817716535432
20
0.6306524015748032
11
2.0185779133858266
21
0.6308409842519684
0
LINE
8
BLACK
6
CONTINUOUS
10
2.0185779133858266
20
0.6308409842519684
11
2.0178494881889764
21
0.6308287401574802
0
LINE
8
BLACK
6
CONTINUOUS
10
2.0178494881889764
20
0.6308287401574802
11
2.0066008661417323
21
0.6336408661417323
0
LINE
8
BLACK
6
CONTINUOUS
10
2.0066008661417323
20
0.6336408661417323
11
2.0060309055118108
21
0.6339572440944882
0
LINE
8
BLACK
6
CONTINUOUS
10
2.0060309055118108
20
0.6339572440944882
11
2.0053920866141732
21
0.6340879921259842
0
LINE
8
BLACK
6
CONTINUOUS
10
2.0053920866141732
20
0.6340879921259842
11
1.9997678346456693
21
0.6369001574803149
0
LINE
8
BLACK
6
CONTINUOUS
10
1.9997678346456693
20
0.6369001574803149
11
1.9990564566929134
21
0.6375309448818898
0
LINE
8
BLACK
6
CONTINUOUS
10
1.9990564566929134
20
0.6375309448818898
11
1.9982329921259843
21
0.6380064173228346
0
LINE
8
BLACK
6
CONTINUOUS
10
1.9982329921259843
20
0.6380064173228346
11
1.9954208661417323
21
0.6408185826771653
0
LINE
8
BLACK
6
CONTINUOUS
10
1.9954208661417323
20
0.6408185826771653
11
1.9949454724409448
21
0.641641968503937
0
LINE
8
BLACK
6
CONTINUOUS
10
1.9949454724409448
20
0.641641968503937
11
1.99431468503937
21
0.642353346456693
0
LINE
8
BLACK
6
CONTINUOUS
10
1.99431468503937
20
0.642353346456693
11
1.9915025196850393
21
0.6479776377952756
0
LINE
8
BLACK
6
CONTINUOUS
10
1.9915025196850393
20
0.6479776377952756
11
1.9912303543307086
21
0.6493075590551181
0
LINE
8
BLACK
6
CONTINUOUS
10
1.9912303543307086
20
0.6493075590551181
11
1.9908790551181101
21
0.6506186614173228
0
LINE
8
BLACK
6
CONTINUOUS
10
1.9908790551181101
20
0.6506186614173228
11
1.9908790551181101
21
0.6562429527559055
0
LINE
8
BLACK
6
CONTINUOUS
10
1.9908790551181101
20
0.6562429527559055
11
1.9912303543307086
21
0.6575540157480315
0
LINE
8
BLACK
6
CONTINUOUS
10
1.9912303543307086
20
0.6575540157480315
11
1.9915025196850393
21
0.6588839763779527
0
LINE
8
BLACK
6
CONTINUOUS
10
1.9915025196850393
20
0.6588839763779527
11
1.99431468503937
21
0.6645082677165354
0
LINE
8
BLACK
6
CONTINUOUS
10
1.99431468503937
20
0.6645082677165354
11
1.9949454724409448
21
0.6652196062992126
0
LINE
8
BLACK
6
CONTINUOUS
10
1.9949454724409448
20
0.6652196062992126
11
1.9954208661417323
21
0.666043031496063
0
LINE
8
BLACK
6
CONTINUOUS
10
1.9954208661417323
20
0.666043031496063
11
1.9982329921259843
21
0.6688551968503937
0
LINE
8
BLACK
6
CONTINUOUS
10
1.9982329921259843
20
0.6688551968503937
11
1.9990564173228347
21
0.669330590551181
0
LINE
8
BLACK
6
CONTINUOUS
10
1.9990564173228347
20
0.669330590551181
11
1.9997678346456693
21
0.6699614566929134
0
LINE
8
BLACK
6
CONTINUOUS
10
1.9997678346456693
20
0.6699614566929134
11
2.0053921653543307
21
0.6727735826771654
0
LINE
8
BLACK
6
CONTINUOUS
10
2.0053921653543307
20
0.6727735826771654
11
2.0060308661417321
21
0.6729042519685039
0
LINE
8
BLACK
6
CONTINUOUS
10
2.0060308661417321
20
0.6729042519685039
11
2.0066008661417323
21
0.6732207086614173
0
LINE
8
BLACK
6
CONTINUOUS
10
2.0066008661417323
20
0.6732207086614173
11
2.0178494488188976
21
0.676032874015748
0
LINE
8
BLACK
6
CONTINUOUS
10
2.0178494488188976
20
0.676032874015748
11
2.0185779527559053
21
0.6760205905511811
0
LINE
8
BLACK
6
CONTINUOUS
10
2.0185779527559053
20
0.6760205905511811
11
2.0192817716535432
21
0.6762092125984251
0
LINE
8
BLACK
6
CONTINUOUS
10
2.0192817716535432
20
0.6762092125984251
11
2.0333425196850392
21
0.6762092125984251
0
LINE
8
BLACK
6
CONTINUOUS
10
2.0333425196850392
20
0.6762092125984251
11
2.0340462992125983
21
0.6760205905511811
0
LINE
8
BLACK
6
CONTINUOUS
10
2.0100943700787401
20
0.6619195669291339
11
2.0059070472440945
21
0.6598259448818897
0
LINE
8
BLACK
6
CONTINUOUS
10
2.0059070472440945
20
0.6598259448818897
11
2.0044501968503936
21
0.6583690944881889
0
LINE
8
BLACK
6
CONTINUOUS
10
2.0044501968503936
20
0.6583690944881889
11
2.0026900787401574
21
0.6548488188976378
0
LINE
8
BLACK
6
CONTINUOUS
10
2.0026900787401574
20
0.6548488188976378
11
2.0026900787401574
21
0.6520127559055118
0
LINE
8
BLACK
6
CONTINUOUS
10
2.0026900787401574
20
0.6520127559055118
11
2.0044501968503936
21
0.6484924803149607
0
LINE
8
BLACK
6
CONTINUOUS
10
2.0044501968503936
20
0.6484924803149607
11
2.0059070472440945
21
0.6470356299212598
0
LINE
8
BLACK
6
CONTINUOUS
10
2.0059070472440945
20
0.6470356299212598
11
2.0100944094488189
21
0.644941968503937
0
LINE
8
BLACK
6
CONTINUOUS
10
2.0100944094488189
20
0.644941968503937
11
2.0200087007874017
21
0.6424634251968504
0
LINE
8
BLACK
6
CONTINUOUS
10
2.0200087007874017
20
0.6424634251968504
11
2.0326155905511811
21
0.6424634251968504
0
LINE
8
BLACK
6
CONTINUOUS
10
2.0326155905511811
20
0.6424634251968504
11
2.0425298031496064
21
0.6449419291338583
0
LINE
8
BLACK
6
CONTINUOUS
10
2.0425298031496064
20
0.6449419291338583
11
2.0467172047244095
21
0.6470356692913386
0
LINE
8
BLACK
6
CONTINUOUS
10
2.0467172047244095
20
0.6470356692913386
11
2.04817405511811
21
0.6484925196850394
0
LINE
8
BLACK
6
CONTINUOUS
10
2.04817405511811
20
0.6484925196850394
11
2.0499341732283463
21
0.652012716535433
0
LINE
8
BLACK
6
CONTINUOUS
10
2.0499341732283463
20
0.652012716535433
11
2.0499341732283463
21
0.6548488582677165
0
LINE
8
BLACK
6
CONTINUOUS
10
2.0499341732283463
20
0.6548488582677165
11
2.04817405511811
21
0.6583690551181102
0
LINE
8
BLACK
6
CONTINUOUS
10
2.04817405511811
20
0.6583690551181102
11
2.0467171653543308
21
0.6598259448818897
0
LINE
8
BLACK
6
CONTINUOUS
10
2.0467171653543308
20
0.6598259448818897
11
2.0425298818897639
21
0.6619195669291339
0
LINE
8
BLACK
6
CONTINUOUS
10
2.0425298818897639
20
0.6619195669291339
11
2.0326155511811024
21
0.6643981889763779
0
LINE
8
BLACK
6
CONTINUOUS
10
2.0326155511811024
20
0.6643981889763779
11
2.0200087007874017
21
0.6643981889763779
0
LINE
8
BLACK
6
CONTINUOUS
10
2.0200087007874017
20
0.6643981889763779
11
2.0100943700787401
21
0.6619195669291339
0
LINE
8
BLACK
6
CONTINUOUS
10
2.0587924409448819
20
0.7963403937007874
11
2.0609540157480315
21
0.7941788188976378
0
LINE
8
BLACK
6
CONTINUOUS
10
2.0609540157480315
20
0.7941788188976378
11
2.0617451968503935
21
0.7912260629921259
0
LINE
8
BLACK
6
CONTINUOUS
10
2.0617451968503935
20
0.7912260629921259
11
2.0609540157480315
21
0.7882733070866141
0
LINE
8
BLACK
6
CONTINUOUS
10
2.0609540157480315
20
0.7882733070866141
11
2.0587924409448819
21
0.7861117322834645
0
LINE
8
BLACK
6
CONTINUOUS
10
2.0587924409448819
20
0.7861117322834645
11
2.0558396850393699
21
0.7853205511811023
0
LINE
8
BLACK
6
CONTINUOUS
10
2.0558396850393699
20
0.7853205511811023
11
2.026300157480315
21
0.7853205511811023
0
LINE
8
BLACK
6
CONTINUOUS
10
2.026300157480315
20
0.7853205511811023
11
2.023683464566929
21
0.7840122047244095
0
LINE
8
BLACK
6
CONTINUOUS
10
2.023683464566929
20
0.7840122047244095
11
2.0223751181102361
21
0.7813954724409449
0
LINE
8
BLACK
6
CONTINUOUS
10
2.0223751181102361
20
0.7813954724409449
11
2.0223751181102361
21
0.7757472440944881
0
LINE
8
BLACK
6
CONTINUOUS
10
2.0223751181102361
20
0.7757472440944881
11
2.023683464566929
21
0.7731305511811023
0
LINE
8
BLACK
6
CONTINUOUS
10
2.023683464566929
20
0.7731305511811023
11
2.026300157480315
21
0.7718222440944882
0
LINE
8
BLACK
6
CONTINUOUS
10
2.026300157480315
20
0.7718222440944882
11
2.0558396850393699
21
0.7718222440944882
0
LINE
8
BLACK
6
CONTINUOUS
10
2.0558396850393699
20
0.7718222440944882
11
2.0587924409448819
21
0.771031062992126
0
LINE
8
BLACK
6
CONTINUOUS
10
2.0587924409448819
20
0.771031062992126
11
2.0609540157480315
21
0.7688694881889764
0
LINE
8
BLACK
6
CONTINUOUS
10
2.0609540157480315
20
0.7688694881889764
11
2.0617451968503935
21
0.7659167322834646
0
LINE
8
BLACK
6
CONTINUOUS
10
2.0617451968503935
20
0.7659167322834646
11
2.0609540157480315
21
0.7629639763779528
0
LINE
8
BLACK
6
CONTINUOUS
10
2.0609540157480315
20
0.7629639763779528
11
2.0587924409448819
21
0.7608024015748032
0
LINE
8
BLACK
6
CONTINUOUS
10
2.0587924409448819
20
0.7608024015748032
11
2.0558396850393699
21
0.760011220472441
0
LINE
8
BLACK
6
CONTINUOUS
10
2.0558396850393699
20
0.760011220472441
11
2.026300157480315
21
0.760011220472441
0
LINE
8
BLACK
6
CONTINUOUS
10
2.026300157480315
20
0.760011220472441
11
2.023683464566929
21
0.758702874015748
0
LINE
8
BLACK
6
CONTINUOUS
10
2.023683464566929
20
0.758702874015748
11
2.0223751181102361
21
0.7560861417322835
0
LINE
8
BLACK
6
CONTINUOUS
10
2.0223751181102361
20
0.7560861417322835
11
2.0223751181102361
21
0.7504379133858268
0
LINE
8
BLACK
6
CONTINUOUS
10
2.0223751181102361
20
0.7504379133858268
11
2.0241352362204723
21
0.7469176377952755
0
LINE
8
BLACK
6
CONTINUOUS
10
2.0241352362204723
20
0.7469176377952755
11
2.0245400787401575
21
0.7465128740157481
0
LINE
8
BLACK
6
CONTINUOUS
10
2.0245400787401575
20
0.7465128740157481
11
2.0558396850393699
21
0.7465128740157481
0
LINE
8
BLACK
6
CONTINUOUS
10
2.0558396850393699
20
0.7465128740157481
11
2.0587924409448819
21
0.7457216929133859
0
LINE
8
BLACK
6
CONTINUOUS
10
2.0587924409448819
20
0.7457216929133859
11
2.0609540157480315
21
0.7435601181102363
0
LINE
8
BLACK
6
CONTINUOUS
10
2.0609540157480315
20
0.7435601181102363
11
2.0617451968503935
21
0.7406073622047243
0
LINE
8
BLACK
6
CONTINUOUS
10
2.0617451968503935
20
0.7406073622047243
11
2.0609540157480315
21
0.7376546062992125
0
LINE
8
BLACK
6
CONTINUOUS
10
2.0609540157480315
20
0.7376546062992125
11
2.0587924409448819
21
0.7354930314960629
0
LINE
8
BLACK
6
CONTINUOUS
10
2.0587924409448819
20
0.7354930314960629
11
2.0558396850393699
21
0.7347018503937007
0
LINE
8
BLACK
6
CONTINUOUS
10
2.0558396850393699
20
0.7347018503937007
11
2.0164696062992125
21
0.7347018503937007
0
LINE
8
BLACK
6
CONTINUOUS
10
2.0164696062992125
20
0.7347018503937007
11
2.0135168503937009
21
0.7354930314960629
0
LINE
8
BLACK
6
CONTINUOUS
10
2.0135168503937009
20
0.7354930314960629
11
2.0113552755905513
21
0.7376546062992125
0
LINE
8
BLACK
6
CONTINUOUS
10
2.0113552755905513
20
0.7376546062992125
11
2.0105640944881888
21
0.7406073622047243
0
LINE
8
BLACK
6
CONTINUOUS
10
2.0105640944881888
20
0.7406073622047243
11
2.0113552755905513
21
0.7435601181102363
0
LINE
8
BLACK
6
CONTINUOUS
10
2.0113552755905513
20
0.7435601181102363
11
2.012191023622047
21
0.7443958661417323
0
LINE
8
BLACK
6
CONTINUOUS
10
2.012191023622047
20
0.7443958661417323
11
2.0111875590551183
21
0.7464027952755905
0
LINE
8
BLACK
6
CONTINUOUS
10
2.0111875590551183
20
0.7464027952755905
11
2.0109153937007873
21
0.7477327165354331
0
LINE
8
BLACK
6
CONTINUOUS
10
2.0109153937007873
20
0.7477327165354331
11
2.0105640944881888
21
0.7490438188976378
0
LINE
8
BLACK
6
CONTINUOUS
10
2.0105640944881888
20
0.7490438188976378
11
2.0105640944881888
21
0.7574802755905512
0
LINE
8
BLACK
6
CONTINUOUS
10
2.0105640944881888
20
0.7574802755905512
11
2.0109153937007873
21
0.7587913385826771
0
LINE
8
BLACK
6
CONTINUOUS
10
2.0109153937007873
20
0.7587913385826771
11
2.0111875590551183
21
0.7601212992125984
0
LINE
8
BLACK
6
CONTINUOUS
10
2.0111875590551183
20
0.7601212992125984
11
2.013999724409449
21
0.7657455905511811
0
LINE
8
BLACK
6
CONTINUOUS
10
2.013999724409449
20
0.7657455905511811
11
2.0141514566929133
21
0.7659166929133858
0
LINE
8
BLACK
6
CONTINUOUS
10
2.0141514566929133
20
0.7659166929133858
11
2.013999724409449
21
0.7660878346456693
0
LINE
8
BLACK
6
CONTINUOUS
10
2.013999724409449
20
0.7660878346456693
11
2.0111875590551183
21
0.771712125984252
0
LINE
8
BLACK
6
CONTINUOUS
10
2.0111875590551183
20
0.771712125984252
11
2.0109153937007873
21
0.7730420472440944
0
LINE
8
BLACK
6
CONTINUOUS
10
2.0109153937007873
20
0.7730420472440944
11
2.0105640944881888
21
0.7743531496062992
0
LINE
8
BLACK
6
CONTINUOUS
10
2.0105640944881888
20
0.7743531496062992
11
2.0105640944881888
21
0.7827896062992126
0
LINE
8
BLACK
6
CONTINUOUS
10
2.0105640944881888
20
0.7827896062992126
11
2.0109153937007873
21
0.7841006692913386
0
LINE
8
BLACK
6
CONTINUOUS
10
2.0109153937007873
20
0.7841006692913386
11
2.0111875590551183
21
0.7854306299212598
0
LINE
8
BLACK
6
CONTINUOUS
10
2.0111875590551183
20
0.7854306299212598
11
2.013999724409449
21
0.7910549212598424
0
LINE
8
BLACK
6
CONTINUOUS
10
2.013999724409449
20
0.7910549212598424
11
2.0142393307086612
21
0.7913251181102362
0
LINE
8
BLACK
6
CONTINUOUS
10
2.0142393307086612
20
0.7913251181102362
11
2.0143535433070867
21
0.7916677559055117
0
LINE
8
BLACK
6
CONTINUOUS
10
2.0143535433070867
20
0.7916677559055117
11
2.0152409448818895
21
0.7924546850393701
0
LINE
8
BLACK
6
CONTINUOUS
10
2.0152409448818895
20
0.7924546850393701
11
2.0160279133858268
21
0.7933421259842519
0
LINE
8
BLACK
6
CONTINUOUS
10
2.0160279133858268
20
0.7933421259842519
11
2.0163705118110236
21
0.7934562992125984
0
LINE
8
BLACK
6
CONTINUOUS
10
2.0163705118110236
20
0.7934562992125984
11
2.0166407480314961
21
0.7936959448818898
0
LINE
8
BLACK
6
CONTINUOUS
10
2.0166407480314961
20
0.7936959448818898
11
2.022265
21
0.7965081102362205
0
LINE
8
BLACK
6
CONTINUOUS
10
2.022265
20
0.7965081102362205
11
2.0235949999999998
21
0.7967802755905512
0
LINE
8
BLACK
6
CONTINUOUS
10
2.0235949999999998
20
0.7967802755905512
11
2.0249060629921258
21
0.7971315748031496
0
LINE
8
BLACK
6
CONTINUOUS
10
2.0249060629921258
20
0.7971315748031496
11
2.0558396850393699
21
0.7971315748031496
0
LINE
8
BLACK
6
CONTINUOUS
10
2.0558396850393699
20
0.7971315748031496
11
2.0587924409448819
21
0.7963403937007874
0
LINE
8
BLACK
6
CONTINUOUS
10
2.0587924409448819
20
0.8750805511811024
11
2.0609540157480315
21
0.8729189763779527
0
LINE
8
BLACK
6
CONTINUOUS
10
2.0609540157480315
20
0.8729189763779527
11
2.0617451968503935
21
0.8699662204724409
0
LINE
8
BLACK
6
CONTINUOUS
10
2.0617451968503935
20
0.8699662204724409
11
2.0609540157480315
21
0.8670134645669291
0
LINE
8
BLACK
6
CONTINUOUS
10
2.0609540157480315
20
0.8670134645669291
11
2.0587924409448819
21
0.8648518897637795
0
LINE
8
BLACK
6
CONTINUOUS
10
2.0587924409448819
20
0.8648518897637795
11
2.0558396850393699
21
0.8640607086614173
0
LINE
8
BLACK
6
CONTINUOUS
10
2.0558396850393699
20
0.8640607086614173
11
2.026300157480315
21
0.8640607086614173
0
LINE
8
BLACK
6
CONTINUOUS
10
2.026300157480315
20
0.8640607086614173
11
2.023683464566929
21
0.8627523622047244
0
LINE
8
BLACK
6
CONTINUOUS
10
2.023683464566929
20
0.8627523622047244
11
2.0223751181102361
21
0.8601356299212598
0
LINE
8
BLACK
6
CONTINUOUS
10
2.0223751181102361
20
0.8601356299212598
11
2.0223751181102361
21
0.8544874015748032
0
LINE
8
BLACK
6
CONTINUOUS
10
2.0223751181102361
20
0.8544874015748032
11
2.023683464566929
21
0.8518707086614173
0
LINE
8
BLACK
6
CONTINUOUS
10
2.023683464566929
20
0.8518707086614173
11
2.026300157480315
21
0.8505624015748031
0
LINE
8
BLACK
6
CONTINUOUS
10
2.026300157480315
20
0.8505624015748031
11
2.0558396850393699
21
0.8505624015748031
0
LINE
8
BLACK
6
CONTINUOUS
10
2.0558396850393699
20
0.8505624015748031
11
2.0587924409448819
21
0.8497712204724409
0
LINE
8
BLACK
6
CONTINUOUS
10
2.0587924409448819
20
0.8497712204724409
11
2.0609540157480315
21
0.8476096456692913
0
LINE
8
BLACK
6
CONTINUOUS
10
2.0609540157480315
20
0.8476096456692913
11
2.0617451968503935
21
0.8446568897637795
0
LINE
8
BLACK
6
CONTINUOUS
10
2.0617451968503935
20
0.8446568897637795
11
2.0609540157480315
21
0.8417041338582677
0
LINE
8
BLACK
6
CONTINUOUS
10
2.0609540157480315
20
0.8417041338582677
11
2.0587924409448819
21
0.8395425590551181
0
LINE
8
BLACK
6
CONTINUOUS
10
2.0587924409448819
20
0.8395425590551181
11
2.0558396850393699
21
0.8387513779527559
0
LINE
8
BLACK
6
CONTINUOUS
10
2.0558396850393699
20
0.8387513779527559
11
2.026300157480315
21
0.8387513779527559
0
LINE
8
BLACK
6
CONTINUOUS
10
2.026300157480315
20
0.8387513779527559
11
2.023683464566929
21
0.837443031496063
0
LINE
8
BLACK
6
CONTINUOUS
10
2.023683464566929
20
0.837443031496063
11
2.0223751181102361
21
0.8348262992125984
0
LINE
8
BLACK
6
CONTINUOUS
10
2.0223751181102361
20
0.8348262992125984
11
2.0223751181102361
21
0.8291780708661417
0
LINE
8
BLACK
6
CONTINUOUS
10
2.0223751181102361
20
0.8291780708661417
11
2.0241352362204723
21
0.8256577952755906
0
LINE
8
BLACK
6
CONTINUOUS
10
2.0241352362204723
20
0.8256577952755906
11
2.0245400787401575
21
0.825253031496063
0
LINE
8
BLACK
6
CONTINUOUS
10
2.0245400787401575
20
0.825253031496063
11
2.0558396850393699
21
0.825253031496063
0
LINE
8
BLACK
6
CONTINUOUS
10
2.0558396850393699
20
0.825253031496063
11
2.0587924409448819
21
0.8244618503937008
0
LINE
8
BLACK
6
CONTINUOUS
10
2.0587924409448819
20
0.8244618503937008
11
2.0609540157480315
21
0.8223002755905512
0
LINE
8
BLACK
6
CONTINUOUS
10
2.0609540157480315
20
0.8223002755905512
11
2.0617451968503935
21
0.8193475196850394
0
LINE
8
BLACK
6
CONTINUOUS
10
2.0617451968503935
20
0.8193475196850394
11
2.0609540157480315
21
0.8163947637795276
0
LINE
8
BLACK
6
CONTINUOUS
10
2.0609540157480315
20
0.8163947637795276
11
2.0587924409448819
21
0.814233188976378
0
LINE
8
BLACK
6
CONTINUOUS
10
2.0587924409448819
20
0.814233188976378
11
2.0558396850393699
21
0.8134420078740158
0
LINE
8
BLACK
6
CONTINUOUS
10
2.0558396850393699
20
0.8134420078740158
11
2.0164696062992125
21
0.8134420078740158
0
LINE
8
BLACK
6
CONTINUOUS
10
2.0164696062992125
20
0.8134420078740158
11
2.0135168503937009
21
0.814233188976378
0
LINE
8
BLACK
6
CONTINUOUS
10
2.0135168503937009
20
0.814233188976378
11
2.0113552755905513
21
0.8163947637795276
0
LINE
8
BLACK
6
CONTINUOUS
10
2.0113552755905513
20
0.8163947637795276
11
2.0105640944881888
21
0.8193475196850394
0
LINE
8
BLACK
6
CONTINUOUS
10
2.0105640944881888
20
0.8193475196850394
11
2.0113552755905513
21
0.8223002755905512
0
LINE
8
BLACK
6
CONTINUOUS
10
2.0113552755905513
20
0.8223002755905512
11
2.012191023622047
21
0.8231360236220472
0
LINE
8
BLACK
6
CONTINUOUS
10
2.012191023622047
20
0.8231360236220472
11
2.0111875590551183
21
0.8251429527559055
0
LINE
8
BLACK
6
CONTINUOUS
10
2.0111875590551183
20
0.8251429527559055
11
2.0109153937007873
21
0.826472874015748
0
LINE
8
BLACK
6
CONTINUOUS
10
2.0109153937007873
20
0.826472874015748
11
2.0105640944881888
21
0.8277839763779528
0
LINE
8
BLACK
6
CONTINUOUS
10
2.0105640944881888
20
0.8277839763779528
11
2.0105640944881888
21
0.8362204330708661
0
LINE
8
BLACK
6
CONTINUOUS
10
2.0105640944881888
20
0.8362204330708661
11
2.0109153937007873
21
0.8375314960629922
0
LINE
8
BLACK
6
CONTINUOUS
10
2.0109153937007873
20
0.8375314960629922
11
2.0111875590551183
21
0.8388614566929133
0
LINE
8
BLACK
6
CONTINUOUS
10
2.0111875590551183
20
0.8388614566929133
11
2.013999724409449
21
0.844485748031496
0
LINE
8
BLACK
6
CONTINUOUS
10
2.013999724409449
20
0.844485748031496
11
2.0141514566929133
21
0.8446568503937008
0
LINE
8
BLACK
6
CONTINUOUS
10
2.0141514566929133
20
0.8446568503937008
11
2.013999724409449
21
0.8448279921259843
0
LINE
8
BLACK
6
CONTINUOUS
10
2.013999724409449
20
0.8448279921259843
11
2.0111875590551183
21
0.8504522834645669
0
LINE
8
BLACK
6
CONTINUOUS
10
2.0111875590551183
20
0.8504522834645669
11
2.0109153937007873
21
0.8517822047244095
0
LINE
8
BLACK
6
CONTINUOUS
10
2.0109153937007873
20
0.8517822047244095
11
2.0105640944881888
21
0.8530933070866141
0
LINE
8
BLACK
6
CONTINUOUS
10
2.0105640944881888
20
0.8530933070866141
11
2.0105640944881888
21
0.8615297637795275
0
LINE
8
BLACK
6
CONTINUOUS
10
2.0105640944881888
20
0.8615297637795275
11
2.0109153937007873
21
0.8628408267716535
0
LINE
8
BLACK
6
CONTINUOUS
10
2.0109153937007873
20
0.8628408267716535
11
2.0111875590551183
21
0.8641707874015748
0
LINE
8
BLACK
6
CONTINUOUS
10
2.0111875590551183
20
0.8641707874015748
11
2.013999724409449
21
0.8697950787401575
0
LINE
8
BLACK
6
CONTINUOUS
10
2.013999724409449
20
0.8697950787401575
11
2.0142393307086612
21
0.8700652755905511
0
LINE
8
BLACK
6
CONTINUOUS
10
2.0142393307086612
20
0.8700652755905511
11
2.0143535433070867
21
0.8704079133858268
0
LINE
8
BLACK
6
CONTINUOUS
10
2.0143535433070867
20
0.8704079133858268
11
2.0152409448818895
21
0.871194842519685
0
LINE
8
BLACK
6
CONTINUOUS
10
2.0152409448818895
20
0.871194842519685
11
2.0160279133858268
21
0.872082283464567
0
LINE
8
BLACK
6
CONTINUOUS
10
2.0160279133858268
20
0.872082283464567
11
2.0163705118110236
21
0.8721964566929133
0
LINE
8
BLACK
6
CONTINUOUS
10
2.0163705118110236
20
0.8721964566929133
11
2.0166407480314961
21
0.8724361023622047
0
LINE
8
BLACK
6
CONTINUOUS
10
2.0166407480314961
20
0.8724361023622047
11
2.022265
21
0.8752482677165354
0
LINE
8
BLACK
6
CONTINUOUS
10
2.022265
20
0.8752482677165354
11
2.0235949999999998
21
0.8755204330708661
0
LINE
8
BLACK
6
CONTINUOUS
10
2.0235949999999998
20
0.8755204330708661
11
2.0249060629921258
21
0.8758717322834646
0
LINE
8
BLACK
6
CONTINUOUS
10
2.0249060629921258
20
0.8758717322834646
11
2.0558396850393699
21
0.8758717322834646
0
LINE
8
BLACK
6
CONTINUOUS
10
2.0558396850393699
20
0.8758717322834646
11
2.0587924409448819
21
0.8750805511811024
0
LINE
8
BLACK
6
CONTINUOUS
10
0.761108031496063
20
1.4183297244094488
11
0.7632696062992126
21
1.4161681496062992
0
LINE
8
BLACK
6
CONTINUOUS
10
0.7632696062992126
20
1.4161681496062992
11
0.7640607874015748
21
1.4132153937007874
0
LINE
8
BLACK
6
CONTINUOUS
10
0.7640607874015748
20
1.4132153937007874
11
0.7632696062992126
21
1.4102626377952756
0
LINE
8
BLACK
6
CONTINUOUS
10
0.7632696062992126
20
1.4102626377952756
11
0.761108031496063
21
1.408101062992126
0
LINE
8
BLACK
6
CONTINUOUS
10
0.761108031496063
20
1.408101062992126
11
0.7581552755905512
21
1.4073098818897638
0
LINE
8
BLACK
6
CONTINUOUS
10
0.7581552755905512
20
1.4073098818897638
11
0.7353782283464567
21
1.4073098818897638
0
LINE
8
BLACK
6
CONTINUOUS
10
0.7353782283464567
20
1.4073098818897638
11
0.7342729527559055
21
1.3962572440944883
0
LINE
8
BLACK
6
CONTINUOUS
10
0.7342729527559055
20
1.3962572440944883
11
0.7343472047244094
21
1.3962724409448819
0
LINE
8
BLACK
6
CONTINUOUS
10
0.7343472047244094
20
1.3962724409448819
11
0.7356581102362204
21
1.3966237007874016
0
LINE
8
BLACK
6
CONTINUOUS
10
0.7356581102362204
20
1.3966237007874016
11
0.7497188188976378
21
1.3966237007874016
0
LINE
8
BLACK
6
CONTINUOUS
10
0.7497188188976378
20
1.3966237007874016
11
0.7510300393700787
21
1.3962723228346456
0
LINE
8
BLACK
6
CONTINUOUS
10
0.7510300393700787
20
1.3962723228346456
11
0.7523598031496063
21
1.3960002362204724
0
LINE
8
BLACK
6
CONTINUOUS
10
0.7523598031496063
20
1.3960002362204724
11
0.7579841732283464
21
1.3931881102362205
0
LINE
8
BLACK
6
CONTINUOUS
10
0.7579841732283464
20
1.3931881102362205
11
0.7586955511811023
21
1.3925572440944882
0
LINE
8
BLACK
6
CONTINUOUS
10
0.7586955511811023
20
1.3925572440944882
11
0.7595190157480315
21
1.3920818503937007
0
LINE
8
BLACK
6
CONTINUOUS
10
0.7595190157480315
20
1.3920818503937007
11
0.7623311417322834
21
1.38926968503937
0
LINE
8
BLACK
6
CONTINUOUS
10
0.7623311417322834
20
1.38926968503937
11
0.7628064960629921
21
1.3884462598425196
0
LINE
8
BLACK
6
CONTINUOUS
10
0.7628064960629921
20
1.3884462598425196
11
0.7634373228346456
21
1.3877349212598424
0
LINE
8
BLACK
6
CONTINUOUS
10
0.7634373228346456
20
1.3877349212598424
11
0.7662494881889763
21
1.3821106692913385
0
LINE
8
BLACK
6
CONTINUOUS
10
0.7662494881889763
20
1.3821106692913385
11
0.766521653543307
21
1.3807806299212597
0
LINE
8
BLACK
6
CONTINUOUS
10
0.766521653543307
20
1.3807806299212597
11
0.7668729527559055
21
1.3794696062992127
0
LINE
8
BLACK
6
CONTINUOUS
10
0.7668729527559055
20
1.3794696062992127
11
0.7668729527559055
21
1.3654088582677164
0
LINE
8
BLACK
6
CONTINUOUS
10
0.7668729527559055
20
1.3654088582677164
11
0.766521653543307
21
1.3640977952755906
0
LINE
8
BLACK
6
CONTINUOUS
10
0.766521653543307
20
1.3640977952755906
11
0.7662494881889763
21
1.3627677952755906
0
LINE
8
BLACK
6
CONTINUOUS
10
0.7662494881889763
20
1.3627677952755906
11
0.7634373228346456
21
1.3571435433070866
0
LINE
8
BLACK
6
CONTINUOUS
10
0.7634373228346456
20
1.3571435433070866
11
0.7628064960629921
21
1.3564321653543308
0
LINE
8
BLACK
6
CONTINUOUS
10
0.7628064960629921
20
1.3564321653543308
11
0.7623311023622047
21
1.3556087401574803
0
LINE
8
BLACK
6
CONTINUOUS
10
0.7623311023622047
20
1.3556087401574803
11
0.7595189763779527
21
1.3527966141732284
0
LINE
8
BLACK
6
CONTINUOUS
10
0.7595189763779527
20
1.3527966141732284
11
0.7586955511811023
21
1.3523212204724409
0
LINE
8
BLACK
6
CONTINUOUS
10
0.7586955511811023
20
1.3523212204724409
11
0.7579841732283464
21
1.3516903937007874
0
LINE
8
BLACK
6
CONTINUOUS
10
0.7579841732283464
20
1.3516903937007874
11
0.752359842519685
21
1.3488782283464567
0
LINE
8
BLACK
6
CONTINUOUS
10
0.752359842519685
20
1.3488782283464567
11
0.7510298818897637
21
1.3486060629921259
0
LINE
8
BLACK
6
CONTINUOUS
10
0.7510298818897637
20
1.3486060629921259
11
0.7497188188976378
21
1.3482547637795275
0
LINE
8
BLACK
6
CONTINUOUS
10
0.7497188188976378
20
1.3482547637795275
11
0.7356581102362204
21
1.3482547637795275
0
LINE
8
BLACK
6
CONTINUOUS
10
0.7356581102362204
20
1.3482547637795275
11
0.7343470078740157
21
1.3486060629921259
0
LINE
8
BLACK
6
CONTINUOUS
10
0.7343470078740157
20
1.3486060629921259
11
0.7330170866141732
21
1.3488782283464567
0
LINE
8
BLACK
6
CONTINUOUS
10
0.7330170866141732
20
1.3488782283464567
11
0.7273927559055118
21
1.3516903937007874
0
LINE
8
BLACK
6
CONTINUOUS
10
0.7273927559055118
20
1.3516903937007874
11
0.7266813385826771
21
1.3523212204724409
0
LINE
8
BLACK
6
CONTINUOUS
10
0.7266813385826771
20
1.3523212204724409
11
0.7258579527559055
21
1.3527966141732284
0
LINE
8
BLACK
6
CONTINUOUS
10
0.7258579527559055
20
1.3527966141732284
11
0.7230458267716535
21
1.3556087401574803
0
LINE
8
BLACK
6
CONTINUOUS
10
0.7230458267716535
20
1.3556087401574803
11
0.7215173622047244
21
1.3582561023622046
0
LINE
8
BLACK
6
CONTINUOUS
10
0.7215173622047244
20
1.3582561023622046
11
0.7215173622047244
21
1.3613130314960629
0
LINE
8
BLACK
6
CONTINUOUS
10
0.7215173622047244
20
1.3613130314960629
11
0.7230458267716535
21
1.3639603937007874
0
LINE
8
BLACK
6
CONTINUOUS
10
0.7230458267716535
20
1.3639603937007874
11
0.7256931889763779
21
1.3654888582677165
0
LINE
8
BLACK
6
CONTINUOUS
10
0.7256931889763779
20
1.3654888582677165
11
0.7287501181102362
21
1.3654888582677165
0
LINE
8
BLACK
6
CONTINUOUS
10
0.7287501181102362
20
1.3654888582677165
11
0.7313974803149607
21
1.3639603937007874
0
LINE
8
BLACK
6
CONTINUOUS
10
0.7313974803149607
20
1.3639603937007874
11
0.733531968503937
21
1.3618259055118109
0
LINE
8
BLACK
6
CONTINUOUS
10
0.733531968503937
20
1.3618259055118109
11
0.7370522047244095
21
1.3600657874015747
0
LINE
8
BLACK
6
CONTINUOUS
10
0.7370522047244095
20
1.3600657874015747
11
0.7483247244094487
21
1.3600657874015747
0
LINE
8
BLACK
6
CONTINUOUS
10
0.7483247244094487
20
1.3600657874015747
11
0.7518449606299212
21
1.3618259055118109
0
LINE
8
BLACK
6
CONTINUOUS
10
0.7518449606299212
20
1.3618259055118109
11
0.753301811023622
21
1.3632827559055118
0
LINE
8
BLACK
6
CONTINUOUS
10
0.753301811023622
20
1.3632827559055118
11
0.7550619291338583
21
1.3668029527559056
0
LINE
8
BLACK
6
CONTINUOUS
10
0.7550619291338583
20
1.3668029527559056
11
0.7550619291338583
21
1.3780754724409447
0
LINE
8
BLACK
6
CONTINUOUS
10
0.7550619291338583
20
1.3780754724409447
11
0.7533017716535433
21
1.3815957086614172
0
LINE
8
BLACK
6
CONTINUOUS
10
0.7533017716535433
20
1.3815957086614172
11
0.7518449606299212
21
1.3830525590551181
0
LINE
8
BLACK
6
CONTINUOUS
10
0.7518449606299212
20
1.3830525590551181
11
0.7483247637795275
21
1.3848126771653544
0
LINE
8
BLACK
6
CONTINUOUS
10
0.7483247637795275
20
1.3848126771653544
11
0.7370521653543307
21
1.3848126771653544
0
LINE
8
BLACK
6
CONTINUOUS
10
0.7370521653543307
20
1.3848126771653544
11
0.7335320078740157
21
1.3830525984251969
0
LINE
8
BLACK
6
CONTINUOUS
10
0.7335320078740157
20
1.3830525984251969
11
0.7313975196850393
21
1.3809181102362205
0
LINE
8
BLACK
6
CONTINUOUS
10
0.7313975196850393
20
1.3809181102362205
11
0.7304751968503936
21
1.380385590551181
0
LINE
8
BLACK
6
CONTINUOUS
10
0.7304751968503936
20
1.380385590551181
11
0.7296508661417322
21
1.3797111417322834
0
LINE
8
BLACK
6
CONTINUOUS
10
0.7296508661417322
20
1.3797111417322834
11
0.7291711417322835
21
1.3796326377952755
0
LINE
8
BLACK
6
CONTINUOUS
10
0.7291711417322835
20
1.3796326377952755
11
0.7287501574803149
21
1.3793896062992126
0
LINE
8
BLACK
6
CONTINUOUS
10
0.7287501574803149
20
1.3793896062992126
11
0.7276851574803149
21
1.3793896062992126
0
LINE
8
BLACK
6
CONTINUOUS
10
0.7276851574803149
20
1.3793896062992126
11
0.7266340551181102
21
1.3792176771653544
0
LINE
8
BLACK
6
CONTINUOUS
10
0.7266340551181102
20
1.3792176771653544
11
0.7261792913385826
21
1.3793896062992126
0
LINE
8
BLACK
6
CONTINUOUS
10
0.7261792913385826
20
1.3793896062992126
11
0.7256932283464567
21
1.3793896062992126
0
LINE
8
BLACK
6
CONTINUOUS
10
0.7256932283464567
20
1.3793896062992126
11
0.7247709842519685
21
1.3799220472440945
0
LINE
8
BLACK
6
CONTINUOUS
10
0.7247709842519685
20
1.3799220472440945
11
0.7237746456692913
21
1.3802987401574802
0
LINE
8
BLACK
6
CONTINUOUS
10
0.7237746456692913
20
1.3802987401574802
11
0.7234667716535433
21
1.3806749999999999
0
LINE
8
BLACK
6
CONTINUOUS
10
0.7234667716535433
20
1.3806749999999999
11
0.7230458661417323
21
1.380918031496063
0
LINE
8
BLACK
6
CONTINUOUS
10
0.7230458661417323
20
1.380918031496063
11
0.7225133464566929
21
1.38184031496063
0
LINE
8
BLACK
6
CONTINUOUS
10
0.7225133464566929
20
1.38184031496063
11
0.7218388976377953
21
1.38266468503937
0
LINE
8
BLACK
6
CONTINUOUS
10
0.7218388976377953
20
1.38266468503937
11
0.7217603937007874
21
1.38314437007874
0
LINE
8
BLACK
6
CONTINUOUS
10
0.7217603937007874
20
1.38314437007874
11
0.7215173622047244
21
1.3835653937007875
0
LINE
8
BLACK
6
CONTINUOUS
10
0.7215173622047244
20
1.3835653937007875
11
0.7215173622047244
21
1.3846303937007873
0
LINE
8
BLACK
6
CONTINUOUS
10
0.7215173622047244
20
1.3846303937007873
11
0.7213454330708661
21
1.3856814960629922
0
LINE
8
BLACK
6
CONTINUOUS
10
0.7213454330708661
20
1.3856814960629922
11
0.7241575590551181
21
1.4138029921259843
0
LINE
8
BLACK
6
CONTINUOUS
10
0.7241575590551181
20
1.4138029921259843
11
0.7245974803149606
21
1.4149666141732282
0
LINE
8
BLACK
6
CONTINUOUS
10
0.7245974803149606
20
1.4149666141732282
11
0.7249194488188976
21
1.4161681496062992
0
LINE
8
BLACK
6
CONTINUOUS
10
0.7249194488188976
20
1.4161681496062992
11
0.7251322047244094
21
1.4163809055118111
0
LINE
8
BLACK
6
CONTINUOUS
10
0.7251322047244094
20
1.4163809055118111
11
0.7252386220472441
21
1.4166623622047243
0
LINE
8
BLACK
6
CONTINUOUS
10
0.7252386220472441
20
1.4166623622047243
11
0.7262013385826771
21
1.4174500393700786
0
LINE
8
BLACK
6
CONTINUOUS
10
0.7262013385826771
20
1.4174500393700786
11
0.7270810236220472
21
1.4183297244094488
0
LINE
8
BLACK
6
CONTINUOUS
10
0.7270810236220472
20
1.4183297244094488
11
0.727371653543307
21
1.4184075984251969
0
LINE
8
BLACK
6
CONTINUOUS
10
0.727371653543307
20
1.4184075984251969
11
0.7276045669291339
21
1.4185981496062992
0
LINE
8
BLACK
6
CONTINUOUS
10
0.7276045669291339
20
1.4185981496062992
11
0.728832125984252
21
1.4187988976377952
0
LINE
8
BLACK
6
CONTINUOUS
10
0.728832125984252
20
1.4187988976377952
11
0.730033779527559
21
1.419120905511811
0
LINE
8
BLACK
6
CONTINUOUS
10
0.730033779527559
20
1.419120905511811
11
0.7581552755905512
21
1.419120905511811
0
LINE
8
BLACK
6
CONTINUOUS
10
0.7581552755905512
20
1.419120905511811
11
0.761108031496063
21
1.4183297244094488
0
LINE
8
BLACK
6
CONTINUOUS
10
0.8044607086614173
20
1.4187695669291338
11
0.8057906692913386
21
1.4184974409448818
0
LINE
8
BLACK
6
CONTINUOUS
10
0.8057906692913386
20
1.4184974409448818
11
0.8114149606299212
21
1.4156852755905511
0
LINE
8
BLACK
6
CONTINUOUS
10
0.8114149606299212
20
1.4156852755905511
11
0.8121262992125984
21
1.4150544488188976
0
LINE
8
BLACK
6
CONTINUOUS
10
0.8121262992125984
20
1.4150544488188976
11
0.8129497244094488
21
1.4145790944881889
0
LINE
8
BLACK
6
CONTINUOUS
10
0.8129497244094488
20
1.4145790944881889
11
0.8157618897637795
21
1.4117669685039369
0
LINE
8
BLACK
6
CONTINUOUS
10
0.8157618897637795
20
1.4117669685039369
11
0.8162372834645669
21
1.4109435039370077
0
LINE
8
BLACK
6
CONTINUOUS
10
0.8162372834645669
20
1.4109435039370077
11
0.8168681496062992
21
1.4102321259842518
0
LINE
8
BLACK
6
CONTINUOUS
10
0.8168681496062992
20
1.4102321259842518
11
0.8196802755905511
21
1.4046077952755904
0
LINE
8
BLACK
6
CONTINUOUS
10
0.8196802755905511
20
1.4046077952755904
11
0.8198109448818898
21
1.4039690551181101
0
LINE
8
BLACK
6
CONTINUOUS
10
0.8198109448818898
20
1.4039690551181101
11
0.8201274015748031
21
1.4033990944881889
0
LINE
8
BLACK
6
CONTINUOUS
10
0.8201274015748031
20
1.4033990944881889
11
0.8229395669291338
21
1.3921505118110236
0
LINE
8
BLACK
6
CONTINUOUS
10
0.8229395669291338
20
1.3921505118110236
11
0.8229272834645669
21
1.3914219685039371
0
LINE
8
BLACK
6
CONTINUOUS
10
0.8229272834645669
20
1.3914219685039371
11
0.823115905511811
21
1.390718188976378
0
LINE
8
BLACK
6
CONTINUOUS
10
0.823115905511811
20
1.390718188976378
11
0.823115905511811
21
1.3766574803149605
0
LINE
8
BLACK
6
CONTINUOUS
10
0.823115905511811
20
1.3766574803149605
11
0.8229272834645669
21
1.3759536614173229
0
LINE
8
BLACK
6
CONTINUOUS
10
0.8229272834645669
20
1.3759536614173229
11
0.8229395669291338
21
1.3752251574803149
0
LINE
8
BLACK
6
CONTINUOUS
10
0.8229395669291338
20
1.3752251574803149
11
0.8201274015748031
21
1.3639765748031496
0
LINE
8
BLACK
6
CONTINUOUS
10
0.8201274015748031
20
1.3639765748031496
11
0.8198109448818898
21
1.3634065748031496
0
LINE
8
BLACK
6
CONTINUOUS
10
0.8198109448818898
20
1.3634065748031496
11
0.8196802755905511
21
1.3627678740157481
0
LINE
8
BLACK
6
CONTINUOUS
10
0.8196802755905511
20
1.3627678740157481
11
0.8168681496062992
21
1.3571435433070866
0
LINE
8
BLACK
6
CONTINUOUS
10
0.8168681496062992
20
1.3571435433070866
11
0.8162372834645669
21
1.356432125984252
0
LINE
8
BLACK
6
CONTINUOUS
10
0.8162372834645669
20
1.356432125984252
11
0.8157618897637795
21
1.3556087007874016
0
LINE
8
BLACK
6
CONTINUOUS
10
0.8157618897637795
20
1.3556087007874016
11
0.8129497244094488
21
1.3527965748031496
0
LINE
8
BLACK
6
CONTINUOUS
10
0.8129497244094488
20
1.3527965748031496
11
0.8121262992125984
21
1.3523211811023621
0
LINE
8
BLACK
6
CONTINUOUS
10
0.8121262992125984
20
1.3523211811023621
11
0.8114149606299212
21
1.3516903937007874
0
LINE
8
BLACK
6
CONTINUOUS
10
0.8114149606299212
20
1.3516903937007874
11
0.8057906692913386
21
1.3488782283464567
0
LINE
8
BLACK
6
CONTINUOUS
10
0.8057906692913386
20
1.3488782283464567
11
0.8044607086614173
21
1.3486060629921259
0
LINE
8
BLACK
6
CONTINUOUS
10
0.8044607086614173
20
1.3486060629921259
11
0.8031496456692914
21
1.3482547637795275
0
LINE
8
BLACK
6
CONTINUOUS
10
0.8031496456692914
20
1.3482547637795275
11
0.7975253543307086
21
1.3482547637795275
0
LINE
8
BLACK
6
CONTINUOUS
10
0.7975253543307086
20
1.3482547637795275
11
0.7962142913385827
21
1.3486060236220472
0
LINE
8
BLACK
6
CONTINUOUS
10
0.7962142913385827
20
1.3486060236220472
11
0.7948842913385826
21
1.3488782283464567
0
LINE
8
BLACK
6
CONTINUOUS
10
0.7948842913385826
20
1.3488782283464567
11
0.7892600393700787
21
1.3516903937007874
0
LINE
8
BLACK
6
CONTINUOUS
10
0.7892600393700787
20
1.3516903937007874
11
0.7885486614173228
21
1.3523211811023621
0
LINE
8
BLACK
6
CONTINUOUS
10
0.7885486614173228
20
1.3523211811023621
11
0.7877252755905512
21
1.3527965748031496
0
LINE
8
BLACK
6
CONTINUOUS
10
0.7877252755905512
20
1.3527965748031496
11
0.7849131102362205
21
1.3556087007874016
0
LINE
8
BLACK
6
CONTINUOUS
10
0.7849131102362205
20
1.3556087007874016
11
0.7844376377952755
21
1.3564321653543308
0
LINE
8
BLACK
6
CONTINUOUS
10
0.7844376377952755
20
1.3564321653543308
11
0.7838068503937008
21
1.3571435433070866
0
LINE
8
BLACK
6
CONTINUOUS
10
0.7838068503937008
20
1.3571435433070866
11
0.7809946850393701
21
1.3627678346456693
0
LINE
8
BLACK
6
CONTINUOUS
10
0.7809946850393701
20
1.3627678346456693
11
0.780863937007874
21
1.3634065748031496
0
LINE
8
BLACK
6
CONTINUOUS
10
0.780863937007874
20
1.3634065748031496
11
0.7805475590551181
21
1.3639765748031496
0
LINE
8
BLACK
6
CONTINUOUS
10
0.7805475590551181
20
1.3639765748031496
11
0.7777354330708661
21
1.3752251968503937
0
LINE
8
BLACK
6
CONTINUOUS
10
0.7777354330708661
20
1.3752251968503937
11
0.7777476771653543
21
1.3759536220472441
0
LINE
8
BLACK
6
CONTINUOUS
10
0.7777476771653543
20
1.3759536220472441
11
0.7775590944881889
21
1.3766574803149605
0
LINE
8
BLACK
6
CONTINUOUS
10
0.7775590944881889
20
1.3766574803149605
11
0.7775590944881889
21
1.390718188976378
0
LINE
8
BLACK
6
CONTINUOUS
10
0.7775590944881889
20
1.390718188976378
11
0.7777476771653543
21
1.3914220078740158
0
LINE
8
BLACK
6
CONTINUOUS
10
0.7777476771653543
20
1.3914220078740158
11
0.7777354330708661
21
1.3921504724409448
0
LINE
8
BLACK
6
CONTINUOUS
10
0.7777354330708661
20
1.3921504724409448
11
0.7805475590551181
21
1.4033990944881889
0
LINE
8
BLACK
6
CONTINUOUS
10
0.7805475590551181
20
1.4033990944881889
11
0.780863937007874
21
1.4039690551181101
0
LINE
8
BLACK
6
CONTINUOUS
10
0.780863937007874
20
1.4039690551181101
11
0.7809946850393701
21
1.4046078346456692
0
LINE
8
BLACK
6
CONTINUOUS
10
0.7809946850393701
20
1.4046078346456692
11
0.7838068503937008
21
1.4102321259842518
0
LINE
8
BLACK
6
CONTINUOUS
10
0.7838068503937008
20
1.4102321259842518
11
0.7844376377952755
21
1.4109434645669292
0
LINE
8
BLACK
6
CONTINUOUS
10
0.7844376377952755
20
1.4109434645669292
11
0.7849131102362205
21
1.4117669685039369
0
LINE
8
BLACK
6
CONTINUOUS
10
0.7849131102362205
20
1.4117669685039369
11
0.7877252755905512
21
1.4145790944881889
0
LINE
8
BLACK
6
CONTINUOUS
10
0.7877252755905512
20
1.4145790944881889
11
0.7885486614173228
21
1.4150544488188976
0
LINE
8
BLACK
6
CONTINUOUS
10
0.7885486614173228
20
1.4150544488188976
11
0.7892600393700787
21
1.4156852755905511
0
LINE
8
BLACK
6
CONTINUOUS
10
0.7892600393700787
20
1.4156852755905511
11
0.7948842913385826
21
1.4184974409448818
0
LINE
8
BLACK
6
CONTINUOUS
10
0.7948842913385826
20
1.4184974409448818
11
0.7962142913385827
21
1.4187696062992126
0
LINE
8
BLACK
6
CONTINUOUS
10
0.7962142913385827
20
1.4187696062992126
11
0.7975253543307086
21
1.419120905511811
0
LINE
8
BLACK
6
CONTINUOUS
10
0.7975253543307086
20
1.419120905511811
11
0.8031496456692914
21
1.419120905511811
0
LINE
8
BLACK
6
CONTINUOUS
10
0.8031496456692914
20
1.419120905511811
11
0.8044607086614173
21
1.4187695669291338
0
LINE
8
BLACK
6
CONTINUOUS
10
0.7953992125984252
20
1.4055497244094488
11
0.7939423622047244
21
1.4040929133858266
0
LINE
8
BLACK
6
CONTINUOUS
10
0.7939423622047244
20
1.4040929133858266
11
0.791848622047244
21
1.3999055118110235
0
LINE
8
BLACK
6
CONTINUOUS
10
0.791848622047244
20
1.3999055118110235
11
0.7893701181102362
21
1.3899912598425197
0
LINE
8
BLACK
6
CONTINUOUS
10
0.7893701181102362
20
1.3899912598425197
11
0.7893701181102362
21
1.37738437007874
0
LINE
8
BLACK
6
CONTINUOUS
10
0.7893701181102362
20
1.37738437007874
11
0.791848622047244
21
1.3674701181102362
0
LINE
8
BLACK
6
CONTINUOUS
10
0.791848622047244
20
1.3674701181102362
11
0.7939423622047244
21
1.3632827165354331
0
LINE
8
BLACK
6
CONTINUOUS
10
0.7939423622047244
20
1.3632827165354331
11
0.7953992125984252
21
1.3618259055118109
0
LINE
8
BLACK
6
CONTINUOUS
10
0.7953992125984252
20
1.3618259055118109
11
0.7989194488188976
21
1.3600657874015747
0
LINE
8
BLACK
6
CONTINUOUS
10
0.7989194488188976
20
1.3600657874015747
11
0.8017555511811023
21
1.3600657874015747
0
LINE
8
BLACK
6
CONTINUOUS
10
0.8017555511811023
20
1.3600657874015747
11
0.8052757874015748
21
1.3618259055118109
0
LINE
8
BLACK
6
CONTINUOUS
10
0.8052757874015748
20
1.3618259055118109
11
0.8067326377952756
21
1.3632827559055118
0
LINE
8
BLACK
6
CONTINUOUS
10
0.8067326377952756
20
1.3632827559055118
11
0.8088262598425197
21
1.3674700787401575
0
LINE
8
BLACK
6
CONTINUOUS
10
0.8088262598425197
20
1.3674700787401575
11
0.8113048818897638
21
1.3773844094488188
0
LINE
8
BLACK
6
CONTINUOUS
10
0.8113048818897638
20
1.3773844094488188
11
0.8113048818897638
21
1.3899912204724409
0
LINE
8
BLACK
6
CONTINUOUS
10
0.8113048818897638
20
1.3899912204724409
11
0.8088262598425197
21
1.3999055511811023
0
LINE
8
BLACK
6
CONTINUOUS
10
0.8088262598425197
20
1.3999055511811023
11
0.8067326377952756
21
1.4040928740157479
0
LINE
8
BLACK
6
CONTINUOUS
10
0.8067326377952756
20
1.4040928740157479
11
0.8052757874015748
21
1.4055497244094488
0
LINE
8
BLACK
6
CONTINUOUS
10
0.8052757874015748
20
1.4055497244094488
11
0.8017555511811023
21
1.4073098818897638
0
LINE
8
BLACK
6
CONTINUOUS
10
0.8017555511811023
20
1.4073098818897638
11
0.7989194488188976
21
1.4073098818897638
0
LINE
8
BLACK
6
CONTINUOUS
10
0.7989194488188976
20
1.4073098818897638
11
0.7953992125984252
21
1.4055497244094488
0
LINE
8
BLACK
6
CONTINUOUS
10
0.8432706692913385
20
1.3654888582677165
11
0.8440481102362205
21
1.3654888582677165
0
LINE
8
BLACK
6
CONTINUOUS
10
0.8440481102362205
20
1.3654888582677165
11
0.8440481496062991
21
1.3654888582677165
0
LINE
8
BLACK
6
CONTINUOUS
10
0.8440481496062991
20
1.3654888582677165
11
0.8447214566929133
21
1.3651001181102362
0
LINE
8
BLACK
6
CONTINUOUS
10
0.8447214566929133
20
1.3651001181102362
11
0.8454724409448818
21
1.3648988976377951
0
LINE
8
BLACK
6
CONTINUOUS
10
0.8454724409448818
20
1.3648988976377951
11
0.8460221653543307
21
1.3643491338582676
0
LINE
8
BLACK
6
CONTINUOUS
10
0.8460221653543307
20
1.3643491338582676
11
0.8466954724409449
21
1.3639604330708661
0
LINE
8
BLACK
6
CONTINUOUS
10
0.8466954724409449
20
1.3639604330708661
11
0.8495076377952756
21
1.3611483070866142
0
LINE
8
BLACK
6
CONTINUOUS
10
0.8495076377952756
20
1.3611483070866142
11
0.8495076377952756
21
1.3611482677165354
0
LINE
8
BLACK
6
CONTINUOUS
10
0.8495076377952756
20
1.3611482677165354
11
0.8495076771653544
21
1.3611482677165354
0
LINE
8
BLACK
6
CONTINUOUS
10
0.8495076771653544
20
1.3611482677165354
11
0.850000590551181
21
1.360294527559055
0
LINE
8
BLACK
6
CONTINUOUS
10
0.850000590551181
20
1.360294527559055
11
0.8510361417322835
21
1.3585009448818897
0
LINE
8
BLACK
6
CONTINUOUS
10
0.8510361417322835
20
1.3585009448818897
11
0.8510361417322835
21
1.3585009055118109
0
LINE
8
BLACK
6
CONTINUOUS
10
0.8510361417322835
20
1.3585009055118109
11
0.8510361417322835
21
1.3554439763779527
0
LINE
8
BLACK
6
CONTINUOUS
10
0.8510361417322835
20
1.3554439763779527
11
0.8507052362204724
21
1.3548708661417324
0
LINE
8
BLACK
6
CONTINUOUS
10
0.8507052362204724
20
1.3548708661417324
11
0.85004
21
1.3537185826771654
0
LINE
8
BLACK
6
CONTINUOUS
10
0.85004
20
1.3537185826771654
11
0.8495076771653544
21
1.3527966141732284
0
LINE
8
BLACK
6
CONTINUOUS
10
0.8495076771653544
20
1.3527966141732284
11
0.8466955118110236
21
1.3499844488188977
0
LINE
8
BLACK
6
CONTINUOUS
10
0.8466955118110236
20
1.3499844488188977
11
0.8466954724409449
21
1.3499844094488189
0
LINE
8
BLACK
6
CONTINUOUS
10
0.8466954724409449
20
1.3499844094488189
11
0.8460221653543307
21
1.3495956692913385
0
LINE
8
BLACK
6
CONTINUOUS
10
0.8460221653543307
20
1.3495956692913385
11
0.8454724409448818
21
1.3490459448818897
0
LINE
8
BLACK
6
CONTINUOUS
10
0.8454724409448818
20
1.3490459448818897
11
0.8447214566929133
21
1.3488446850393701
0
LINE
8
BLACK
6
CONTINUOUS
10
0.8447214566929133
20
1.3488446850393701
11
0.8440481496062991
21
1.3484559842519686
0
LINE
8
BLACK
6
CONTINUOUS
10
0.8440481496062991
20
1.3484559842519686
11
0.8432706692913385
21
1.3484559842519686
0
LINE
8
BLACK
6
CONTINUOUS
10
0.8432706692913385
20
1.3484559842519686
11
0.84251968503937
21
1.3482547637795275
0
LINE
8
BLACK
6
CONTINUOUS
10
0.84251968503937
20
1.3482547637795275
11
0.8417687007874015
21
1.3484559842519686
0
LINE
8
BLACK
6
CONTINUOUS
10
0.8417687007874015
20
1.3484559842519686
11
0.8409912204724409
21
1.3484559842519686
0
LINE
8
BLACK
6
CONTINUOUS
10
0.8409912204724409
20
1.3484559842519686
11
0.8409911811023622
21
1.3484559842519686
0
LINE
8
BLACK
6
CONTINUOUS
10
0.8409911811023622
20
1.3484559842519686
11
0.8403178346456692
21
1.3488447244094488
0
LINE
8
BLACK
6
CONTINUOUS
10
0.8403178346456692
20
1.3488447244094488
11
0.8395669291338582
21
1.3490459448818897
0
LINE
8
BLACK
6
CONTINUOUS
10
0.8395669291338582
20
1.3490459448818897
11
0.8390171259842519
21
1.3495957086614172
0
LINE
8
BLACK
6
CONTINUOUS
10
0.8390171259842519
20
1.3495957086614172
11
0.838343937007874
21
1.3499844094488189
0
LINE
8
BLACK
6
CONTINUOUS
10
0.838343937007874
20
1.3499844094488189
11
0.8383438582677165
21
1.3499844488188977
0
LINE
8
BLACK
6
CONTINUOUS
10
0.8383438582677165
20
1.3499844488188977
11
0.8383438188976378
21
1.3499844881889764
0
LINE
8
BLACK
6
CONTINUOUS
10
0.8383438188976378
20
1.3499844881889764
11
0.8355316929133858
21
1.3527966535433071
0
LINE
8
BLACK
6
CONTINUOUS
10
0.8355316929133858
20
1.3527966535433071
11
0.8343341732283465
21
1.3548708661417324
0
LINE
8
BLACK
6
CONTINUOUS
10
0.8343341732283465
20
1.3548708661417324
11
0.8340032677165354
21
1.3554439763779527
0
LINE
8
BLACK
6
CONTINUOUS
10
0.8340032677165354
20
1.3554439763779527
11
0.8340032677165354
21
1.3585009055118109
0
LINE
8
BLACK
6
CONTINUOUS
10
0.8340032677165354
20
1.3585009055118109
11
0.8340032677165354
21
1.3585009448818897
0
LINE
8
BLACK
6
CONTINUOUS
10
0.8340032677165354
20
1.3585009448818897
11
0.8350388188976378
21
1.360294527559055
0
LINE
8
BLACK
6
CONTINUOUS
10
0.8350388188976378
20
1.360294527559055
11
0.8355317322834646
21
1.3611482677165354
0
LINE
8
BLACK
6
CONTINUOUS
10
0.8355317322834646
20
1.3611482677165354
11
0.8383438582677165
21
1.3639603937007874
0
LINE
8
BLACK
6
CONTINUOUS
10
0.8383438582677165
20
1.3639603937007874
11
0.8390171259842519
21
1.3643490944881889
0
LINE
8
BLACK
6
CONTINUOUS
10
0.8390171259842519
20
1.3643490944881889
11
0.8395669291338582
21
1.3648988976377951
0
LINE
8
BLACK
6
CONTINUOUS
10
0.8395669291338582
20
1.3648988976377951
11
0.840317874015748
21
1.3651001181102362
0
LINE
8
BLACK
6
CONTINUOUS
10
0.840317874015748
20
1.3651001181102362
11
0.8408526377952755
21
1.3654088582677164
0
LINE
8
BLACK
6
CONTINUOUS
10
0.8408526377952755
20
1.3654088582677164
11
0.8409911811023622
21
1.3654888582677165
0
LINE
8
BLACK
6
CONTINUOUS
10
0.8409911811023622
20
1.3654888582677165
11
0.8417687007874015
21
1.3654888582677165
0
LINE
8
BLACK
6
CONTINUOUS
10
0.8417687007874015
20
1.3654888582677165
11
0.84251968503937
21
1.3656900787401574
0
LINE
8
BLACK
6
CONTINUOUS
10
0.84251968503937
20
1.3656900787401574
11
0.8432706692913385
21
1.3654888582677165
0
LINE
8
BLACK
6
CONTINUOUS
10
0.8916372834645669
20
1.4187695669291338
11
0.8929672440944881
21
1.4184974409448818
0
LINE
8
BLACK
6
CONTINUOUS
10
0.8929672440944881
20
1.4184974409448818
11
0.8985915748031496
21
1.4156852755905511
0
LINE
8
BLACK
6
CONTINUOUS
10
0.8985915748031496
20
1.4156852755905511
11
0.8993029527559054
21
1.4150544094488189
0
LINE
8
BLACK
6
CONTINUOUS
10
0.8993029527559054
20
1.4150544094488189
11
0.9001263779527559
21
1.4145790551181101
0
LINE
8
BLACK
6
CONTINUOUS
10
0.9001263779527559
20
1.4145790551181101
11
0.9029385039370078
21
1.4117669291338582
0
LINE
8
BLACK
6
CONTINUOUS
10
0.9029385039370078
20
1.4117669291338582
11
0.9034138976377952
21
1.4109434645669292
0
LINE
8
BLACK
6
CONTINUOUS
10
0.9034138976377952
20
1.4109434645669292
11
0.9040447244094488
21
1.4102321259842518
0
LINE
8
BLACK
6
CONTINUOUS
10
0.9040447244094488
20
1.4102321259842518
11
0.9068568897637795
21
1.4046078740157479
0
LINE
8
BLACK
6
CONTINUOUS
10
0.9068568897637795
20
1.4046078740157479
11
0.9071290551181103
21
1.4032778346456694
0
LINE
8
BLACK
6
CONTINUOUS
10
0.9071290551181103
20
1.4032778346456694
11
0.9074803543307086
21
1.4019668110236221
0
LINE
8
BLACK
6
CONTINUOUS
10
0.9074803543307086
20
1.4019668110236221
11
0.9074803543307086
21
1.3963425196850394
0
LINE
8
BLACK
6
CONTINUOUS
10
0.9074803543307086
20
1.3963425196850394
11
0.9072342519685039
21
1.3954240551181103
0
LINE
8
BLACK
6
CONTINUOUS
10
0.9072342519685039
20
1.3954240551181103
11
0.9071772834645669
21
1.3944749999999999
0
LINE
8
BLACK
6
CONTINUOUS
10
0.9071772834645669
20
1.3944749999999999
11
0.9043651181102362
21
1.3860385826771653
0
LINE
8
BLACK
6
CONTINUOUS
10
0.9043651181102362
20
1.3860385826771653
11
0.9036172047244094
21
1.3849057874015747
0
LINE
8
BLACK
6
CONTINUOUS
10
0.9036172047244094
20
1.3849057874015747
11
0.9029385039370078
21
1.3837302362204724
0
LINE
8
BLACK
6
CONTINUOUS
10
0.9029385039370078
20
1.3837302362204724
11
0.8792740551181102
21
1.3600657874015747
0
LINE
8
BLACK
6
CONTINUOUS
10
0.8792740551181102
20
1.3600657874015747
11
0.901574842519685
21
1.3600657874015747
0
LINE
8
BLACK
6
CONTINUOUS
10
0.901574842519685
20
1.3600657874015747
11
0.9045275984251968
21
1.3592746062992125
0
LINE
8
BLACK
6
CONTINUOUS
10
0.9045275984251968
20
1.3592746062992125
11
0.9066891732283464
21
1.3571130314960629
0
LINE
8
BLACK
6
CONTINUOUS
10
0.9066891732283464
20
1.3571130314960629
11
0.9074803543307086
21
1.3541602755905511
0
LINE
8
BLACK
6
CONTINUOUS
10
0.9074803543307086
20
1.3541602755905511
11
0.9066891732283464
21
1.3512075196850393
0
LINE
8
BLACK
6
CONTINUOUS
10
0.9066891732283464
20
1.3512075196850393
11
0.9045275984251968
21
1.3490459448818897
0
LINE
8
BLACK
6
CONTINUOUS
10
0.9045275984251968
20
1.3490459448818897
11
0.901574842519685
21
1.3482547637795275
0
LINE
8
BLACK
6
CONTINUOUS
10
0.901574842519685
20
1.3482547637795275
11
0.8650168897637796
21
1.3482547637795275
0
LINE
8
BLACK
6
CONTINUOUS
10
0.8650168897637796
20
1.3482547637795275
11
0.864265905511811
21
1.3484559842519686
0
LINE
8
BLACK
6
CONTINUOUS
10
0.864265905511811
20
1.3484559842519686
11
0.8634884251968504
21
1.3484559842519686
0
LINE
8
BLACK
6
CONTINUOUS
10
0.8634884251968504
20
1.3484559842519686
11
0.8628150787401575
21
1.3488446850393701
0
LINE
8
BLACK
6
CONTINUOUS
10
0.8628150787401575
20
1.3488446850393701
11
0.8620641338582677
21
1.3490459448818897
0
LINE
8
BLACK
6
CONTINUOUS
10
0.8620641338582677
20
1.3490459448818897
11
0.8615143307086613
21
1.3495957086614172
0
LINE
8
BLACK
6
CONTINUOUS
10
0.8615143307086613
20
1.3495957086614172
11
0.8608410629921259
21
1.3499844488188977
0
LINE
8
BLACK
6
CONTINUOUS
10
0.8608410629921259
20
1.3499844488188977
11
0.8604523228346457
21
1.350657716535433
0
LINE
8
BLACK
6
CONTINUOUS
10
0.8604523228346457
20
1.350657716535433
11
0.8599025590551181
21
1.3512075196850393
0
LINE
8
BLACK
6
CONTINUOUS
10
0.8599025590551181
20
1.3512075196850393
11
0.8597012992125984
21
1.3519584645669291
0
LINE
8
BLACK
6
CONTINUOUS
10
0.8597012992125984
20
1.3519584645669291
11
0.8593125984251968
21
1.352631811023622
0
LINE
8
BLACK
6
CONTINUOUS
10
0.8593125984251968
20
1.352631811023622
11
0.8593125984251968
21
1.3534092913385827
0
LINE
8
BLACK
6
CONTINUOUS
10
0.8593125984251968
20
1.3534092913385827
11
0.8591113779527559
21
1.3541602755905511
0
LINE
8
BLACK
6
CONTINUOUS
10
0.8591113779527559
20
1.3541602755905511
11
0.8593125984251968
21
1.3549112204724409
0
LINE
8
BLACK
6
CONTINUOUS
10
0.8593125984251968
20
1.3549112204724409
11
0.8593125984251968
21
1.3556887401574802
0
LINE
8
BLACK
6
CONTINUOUS
10
0.8593125984251968
20
1.3556887401574802
11
0.8597012992125984
21
1.3563620472440945
0
LINE
8
BLACK
6
CONTINUOUS
10
0.8597012992125984
20
1.3563620472440945
11
0.8599025590551181
21
1.3571130314960629
0
LINE
8
BLACK
6
CONTINUOUS
10
0.8599025590551181
20
1.3571130314960629
11
0.8604523228346457
21
1.3576627952755904
0
LINE
8
BLACK
6
CONTINUOUS
10
0.8604523228346457
20
1.3576627952755904
11
0.8608410629921259
21
1.3583361023622047
0
LINE
8
BLACK
6
CONTINUOUS
10
0.8608410629921259
20
1.3583361023622047
11
0.8936010629921259
21
1.3910961023622046
0
LINE
8
BLACK
6
CONTINUOUS
10
0.8936010629921259
20
1.3910961023622046
11
0.8956693307086614
21
1.3973008661417323
0
LINE
8
BLACK
6
CONTINUOUS
10
0.8956693307086614
20
1.3973008661417323
11
0.8956693307086614
21
1.4005726771653544
0
LINE
8
BLACK
6
CONTINUOUS
10
0.8956693307086614
20
1.4005726771653544
11
0.8939092125984252
21
1.4040928740157479
0
LINE
8
BLACK
6
CONTINUOUS
10
0.8939092125984252
20
1.4040928740157479
11
0.8924523622047243
21
1.4055497637795276
0
LINE
8
BLACK
6
CONTINUOUS
10
0.8924523622047243
20
1.4055497637795276
11
0.888932125984252
21
1.4073098818897638
0
LINE
8
BLACK
6
CONTINUOUS
10
0.888932125984252
20
1.4073098818897638
11
0.8776596062992126
21
1.4073098818897638
0
LINE
8
BLACK
6
CONTINUOUS
10
0.8776596062992126
20
1.4073098818897638
11
0.8741393700787401
21
1.4055497637795276
0
LINE
8
BLACK
6
CONTINUOUS
10
0.8741393700787401
20
1.4055497637795276
11
0.8720048818897638
21
1.4034152755905511
0
LINE
8
BLACK
6
CONTINUOUS
10
0.8720048818897638
20
1.4034152755905511
11
0.8693575196850394
21
1.401886811023622
0
LINE
8
BLACK
6
CONTINUOUS
10
0.8693575196850394
20
1.401886811023622
11
0.8663005905511811
21
1.401886811023622
0
LINE
8
BLACK
6
CONTINUOUS
10
0.8663005905511811
20
1.401886811023622
11
0.8636532283464566
21
1.4034152755905511
0
LINE
8
BLACK
6
CONTINUOUS
10
0.8636532283464566
20
1.4034152755905511
11
0.8621247637795275
21
1.4060626377952756
0
LINE
8
BLACK
6
CONTINUOUS
10
0.8621247637795275
20
1.4060626377952756
11
0.8621247637795275
21
1.4091195669291339
0
LINE
8
BLACK
6
CONTINUOUS
10
0.8621247637795275
20
1.4091195669291339
11
0.8636532283464566
21
1.4117669291338582
0
LINE
8
BLACK
6
CONTINUOUS
10
0.8636532283464566
20
1.4117669291338582
11
0.8664653543307086
21
1.4145790551181101
0
LINE
8
BLACK
6
CONTINUOUS
10
0.8664653543307086
20
1.4145790551181101
11
0.8672887401574803
21
1.4150544094488189
0
LINE
8
BLACK
6
CONTINUOUS
10
0.8672887401574803
20
1.4150544094488189
11
0.8680001574803149
21
1.4156852755905511
0
LINE
8
BLACK
6
CONTINUOUS
10
0.8680001574803149
20
1.4156852755905511
11
0.8736244881889763
21
1.4184974409448818
0
LINE
8
BLACK
6
CONTINUOUS
10
0.8736244881889763
20
1.4184974409448818
11
0.8749544094488189
21
1.4187695669291338
0
LINE
8
BLACK
6
CONTINUOUS
10
0.8749544094488189
20
1.4187695669291338
11
0.8762655118110236
21
1.419120905511811
0
LINE
8
BLACK
6
CONTINUOUS
10
0.8762655118110236
20
1.419120905511811
11
0.8903262204724409
21
1.419120905511811
0
LINE
8
BLACK
6
CONTINUOUS
10
0.8903262204724409
20
1.419120905511811
11
0.8916372834645669
21
1.4187695669291338
0
LINE
8
BLACK
6
CONTINUOUS
10
0.9478802362204725
20
1.4187695669291338
11
0.9492101968503937
21
1.4184974409448818
0
LINE
8
BLACK
6
CONTINUOUS
10
0.9492101968503937
20
1.4184974409448818
11
0.9548345275590551
21
1.4156852755905511
0
LINE
8
BLACK
6
CONTINUOUS
10
0.9548345275590551
20
1.4156852755905511
11
0.955545905511811
21
1.4150544094488189
0
LINE
8
BLACK
6
CONTINUOUS
10
0.955545905511811
20
1.4150544094488189
11
0.9563693307086614
21
1.4145790551181101
0
LINE
8
BLACK
6
CONTINUOUS
10
0.9563693307086614
20
1.4145790551181101
11
0.9591814566929133
21
1.4117669291338582
0
LINE
8
BLACK
6
CONTINUOUS
10
0.9591814566929133
20
1.4117669291338582
11
0.9596568503937007
21
1.4109434645669292
0
LINE
8
BLACK
6
CONTINUOUS
10
0.9596568503937007
20
1.4109434645669292
11
0.9602876771653543
21
1.4102321259842518
0
LINE
8
BLACK
6
CONTINUOUS
10
0.9602876771653543
20
1.4102321259842518
11
0.9630998425196851
21
1.4046078740157479
0
LINE
8
BLACK
6
CONTINUOUS
10
0.9630998425196851
20
1.4046078740157479
11
0.9633720078740158
21
1.4032778346456694
0
LINE
8
BLACK
6
CONTINUOUS
10
0.9633720078740158
20
1.4032778346456694
11
0.9637233070866141
21
1.4019668110236221
0
LINE
8
BLACK
6
CONTINUOUS
10
0.9637233070866141
20
1.4019668110236221
11
0.9637233070866141
21
1.3794696062992127
0
LINE
8
BLACK
6
CONTINUOUS
10
0.9637233070866141
20
1.3794696062992127
11
0.96353468503937
21
1.3787657874015748
0
LINE
8
BLACK
6
CONTINUOUS
10
0.96353468503937
20
1.3787657874015748
11
0.963546968503937
21
1.3780372834645669
0
LINE
8
BLACK
6
CONTINUOUS
10
0.963546968503937
20
1.3780372834645669
11
0.9607348031496062
21
1.3667887007874016
0
LINE
8
BLACK
6
CONTINUOUS
10
0.9607348031496062
20
1.3667887007874016
11
0.9602436220472441
21
1.3659038976377953
0
LINE
8
BLACK
6
CONTINUOUS
10
0.9602436220472441
20
1.3659038976377953
11
0.9599193307086614
21
1.3649452362204724
0
LINE
8
BLACK
6
CONTINUOUS
10
0.9599193307086614
20
1.3649452362204724
11
0.9542950393700788
21
1.356508779527559
0
LINE
8
BLACK
6
CONTINUOUS
10
0.9542950393700788
20
1.356508779527559
11
0.9538520078740157
21
1.3561194094488189
0
LINE
8
BLACK
6
CONTINUOUS
10
0.9538520078740157
20
1.3561194094488189
11
0.9535571259842519
21
1.3556087007874016
0
LINE
8
BLACK
6
CONTINUOUS
10
0.9535571259842519
20
1.3556087007874016
11
0.9507449606299212
21
1.3527965748031496
0
LINE
8
BLACK
6
CONTINUOUS
10
0.9507449606299212
20
1.3527965748031496
11
0.9499215354330709
21
1.3523211811023621
0
LINE
8
BLACK
6
CONTINUOUS
10
0.9499215354330709
20
1.3523211811023621
11
0.9492101968503937
21
1.3516903937007874
0
LINE
8
BLACK
6
CONTINUOUS
10
0.9492101968503937
20
1.3516903937007874
11
0.943585905511811
21
1.3488782283464567
0
LINE
8
BLACK
6
CONTINUOUS
10
0.943585905511811
20
1.3488782283464567
11
0.9422559448818898
21
1.3486060629921259
0
LINE
8
BLACK
6
CONTINUOUS
10
0.9422559448818898
20
1.3486060629921259
11
0.9409448818897638
21
1.3482547637795275
0
LINE
8
BLACK
6
CONTINUOUS
10
0.9409448818897638
20
1.3482547637795275
11
0.9296962992125984
21
1.3482547637795275
0
LINE
8
BLACK
6
CONTINUOUS
10
0.9296962992125984
20
1.3482547637795275
11
0.9267435433070866
21
1.3490459448818897
0
LINE
8
BLACK
6
CONTINUOUS
10
0.9267435433070866
20
1.3490459448818897
11
0.924581968503937
21
1.3512075196850393
0
LINE
8
BLACK
6
CONTINUOUS
10
0.924581968503937
20
1.3512075196850393
11
0.9237907874015748
21
1.3541602755905511
0
LINE
8
BLACK
6
CONTINUOUS
10
0.9237907874015748
20
1.3541602755905511
11
0.924581968503937
21
1.3571130314960629
0
LINE
8
BLACK
6
CONTINUOUS
10
0.924581968503937
20
1.3571130314960629
11
0.9267435433070866
21
1.3592746062992125
0
LINE
8
BLACK
6
CONTINUOUS
10
0.9267435433070866
20
1.3592746062992125
11
0.9296962992125984
21
1.3600657874015747
0
LINE
8
BLACK
6
CONTINUOUS
10
0.9296962992125984
20
1.3600657874015747
11
0.9395507874015748
21
1.3600657874015747
0
LINE
8
BLACK
6
CONTINUOUS
10
0.9395507874015748
20
1.3600657874015747
11
0.9430710236220472
21
1.3618259055118109
0
LINE
8
BLACK
6
CONTINUOUS
10
0.9430710236220472
20
1.3618259055118109
11
0.944791968503937
21
1.3635468503937007
0
LINE
8
BLACK
6
CONTINUOUS
10
0.944791968503937
20
1.3635468503937007
11
0.9495245275590551
21
1.3706456692913385
0
LINE
8
BLACK
6
CONTINUOUS
10
0.9495245275590551
20
1.3706456692913385
11
0.9497779527559055
21
1.3716592913385826
0
LINE
8
BLACK
6
CONTINUOUS
10
0.9497779527559055
20
1.3716592913385826
11
0.9492101574803149
21
1.3713754330708661
0
LINE
8
BLACK
6
CONTINUOUS
10
0.9492101574803149
20
1.3713754330708661
11
0.9478803937007874
21
1.3711033070866141
0
LINE
8
BLACK
6
CONTINUOUS
10
0.9478803937007874
20
1.3711033070866141
11
0.9465691732283464
21
1.3707519685039369
0
LINE
8
BLACK
6
CONTINUOUS
10
0.9465691732283464
20
1.3707519685039369
11
0.9353205905511811
21
1.3707519685039369
0
LINE
8
BLACK
6
CONTINUOUS
10
0.9353205905511811
20
1.3707519685039369
11
0.9340093307086614
21
1.3711033070866141
0
LINE
8
BLACK
6
CONTINUOUS
10
0.9340093307086614
20
1.3711033070866141
11
0.9326796062992125
21
1.3713754330708661
0
LINE
8
BLACK
6
CONTINUOUS
10
0.9326796062992125
20
1.3713754330708661
11
0.9270552755905511
21
1.374187559055118
0
LINE
8
BLACK
6
CONTINUOUS
10
0.9270552755905511
20
1.374187559055118
11
0.9263438582677165
21
1.3748183858267715
0
LINE
8
BLACK
6
CONTINUOUS
10
0.9263438582677165
20
1.3748183858267715
11
0.9255204724409448
21
1.375293779527559
0
LINE
8
BLACK
6
CONTINUOUS
10
0.9255204724409448
20
1.375293779527559
11
0.9227083070866141
21
1.3781059448818898
0
LINE
8
BLACK
6
CONTINUOUS
10
0.9227083070866141
20
1.3781059448818898
11
0.9222329133858268
21
1.3789293307086614
0
LINE
8
BLACK
6
CONTINUOUS
10
0.9222329133858268
20
1.3789293307086614
11
0.9216020866141732
21
1.3796407480314961
0
LINE
8
BLACK
6
CONTINUOUS
10
0.9216020866141732
20
1.3796407480314961
11
0.9187899606299212
21
1.3852650393700787
0
LINE
8
BLACK
6
CONTINUOUS
10
0.9187899606299212
20
1.3852650393700787
11
0.9185177952755905
21
1.3865948818897638
0
LINE
8
BLACK
6
CONTINUOUS
10
0.9185177952755905
20
1.3865948818897638
11
0.9181664960629921
21
1.387906062992126
0
LINE
8
BLACK
6
CONTINUOUS
10
0.9181664960629921
20
1.387906062992126
11
0.9181664960629921
21
1.4019668110236221
0
LINE
8
BLACK
6
CONTINUOUS
10
0.9181664960629921
20
1.4019668110236221
11
0.9185177952755905
21
1.4032779527559054
0
LINE
8
BLACK
6
CONTINUOUS
10
0.9185177952755905
20
1.4032779527559054
11
0.9187899606299212
21
1.4046078346456692
0
LINE
8
BLACK
6
CONTINUOUS
10
0.9187899606299212
20
1.4046078346456692
11
0.9216020866141732
21
1.4102321259842518
0
LINE
8
BLACK
6
CONTINUOUS
10
0.9216020866141732
20
1.4102321259842518
11
0.9222329133858268
21
1.4109435039370077
0
LINE
8
BLACK
6
CONTINUOUS
10
0.9222329133858268
20
1.4109435039370077
11
0.9227083464566929
21
1.4117669685039369
0
LINE
8
BLACK
6
CONTINUOUS
10
0.9227083464566929
20
1.4117669685039369
11
0.9255205118110236
21
1.4145790944881889
0
LINE
8
BLACK
6
CONTINUOUS
10
0.9255205118110236
20
1.4145790944881889
11
0.9263438976377952
21
1.4150544488188976
0
LINE
8
BLACK
6
CONTINUOUS
10
0.9263438976377952
20
1.4150544488188976
11
0.9270552755905511
21
1.4156852755905511
0
LINE
8
BLACK
6
CONTINUOUS
10
0.9270552755905511
20
1.4156852755905511
11
0.9326795275590551
21
1.4184974409448818
0
LINE
8
BLACK
6
CONTINUOUS
10
0.9326795275590551
20
1.4184974409448818
11
0.9340095275590551
21
1.4187696062992126
0
LINE
8
BLACK
6
CONTINUOUS
10
0.9340095275590551
20
1.4187696062992126
11
0.9353205905511811
21
1.419120905511811
0
LINE
8
BLACK
6
CONTINUOUS
10
0.9353205905511811
20
1.419120905511811
11
0.9465691732283464
21
1.419120905511811
0
LINE
8
BLACK
6
CONTINUOUS
10
0.9465691732283464
20
1.419120905511811
11
0.9478802362204725
21
1.4187695669291338
0
LINE
8
BLACK
6
CONTINUOUS
10
0.9331944488188976
20
1.4055497244094488
11
0.9317375590551181
21
1.4040928346456694
0
LINE
8
BLACK
6
CONTINUOUS
10
0.9317375590551181
20
1.4040928346456694
11
0.9299775196850394
21
1.4005727165354331
0
LINE
8
BLACK
6
CONTINUOUS
10
0.9299775196850394
20
1.4005727165354331
11
0.9299775196850394
21
1.3893001181102362
0
LINE
8
BLACK
6
CONTINUOUS
10
0.9299775196850394
20
1.3893001181102362
11
0.9317375590551181
21
1.3857799606299213
0
LINE
8
BLACK
6
CONTINUOUS
10
0.9317375590551181
20
1.3857799606299213
11
0.9331944488188976
21
1.3843230708661416
0
LINE
8
BLACK
6
CONTINUOUS
10
0.9331944488188976
20
1.3843230708661416
11
0.9367146850393701
21
1.3825629921259843
0
LINE
8
BLACK
6
CONTINUOUS
10
0.9367146850393701
20
1.3825629921259843
11
0.9451751181102362
21
1.3825629921259843
0
LINE
8
BLACK
6
CONTINUOUS
10
0.9451751181102362
20
1.3825629921259843
11
0.9486953149606299
21
1.3843230708661416
0
LINE
8
BLACK
6
CONTINUOUS
10
0.9486953149606299
20
1.3843230708661416
11
0.9501521259842519
21
1.3857799212598425
0
LINE
8
BLACK
6
CONTINUOUS
10
0.9501521259842519
20
1.3857799212598425
11
0.9519122834645669
21
1.389300157480315
0
LINE
8
BLACK
6
CONTINUOUS
10
0.9519122834645669
20
1.389300157480315
11
0.9519122834645669
21
1.4005726771653544
0
LINE
8
BLACK
6
CONTINUOUS
10
0.9519122834645669
20
1.4005726771653544
11
0.9501521653543307
21
1.4040928740157479
0
LINE
8
BLACK
6
CONTINUOUS
10
0.9501521653543307
20
1.4040928740157479
11
0.9486953149606299
21
1.4055497637795276
0
LINE
8
BLACK
6
CONTINUOUS
10
0.9486953149606299
20
1.4055497637795276
11
0.9451750787401575
21
1.4073098818897638
0
LINE
8
BLACK
6
CONTINUOUS
10
0.9451750787401575
20
1.4073098818897638
11
0.9367146850393701
21
1.4073098818897638
0
LINE
8
BLACK
6
CONTINUOUS
10
0.9367146850393701
20
1.4073098818897638
11
0.9331944488188976
21
1.4055497244094488
0
LINE
8
BLACK
6
CONTINUOUS
10
1.004123188976378
20
1.4187695669291338
11
1.0054531496062993
21
1.4184974409448818
0
LINE
8
BLACK
6
CONTINUOUS
10
1.0054531496062993
20
1.4184974409448818
11
1.0110774803149607
21
1.4156852755905511
0
LINE
8
BLACK
6
CONTINUOUS
10
1.0110774803149607
20
1.4156852755905511
11
1.0117888582677166
21
1.4150544094488189
0
LINE
8
BLACK
6
CONTINUOUS
10
1.0117888582677166
20
1.4150544094488189
11
1.012612283464567
21
1.4145790551181101
0
LINE
8
BLACK
6
CONTINUOUS
10
1.012612283464567
20
1.4145790551181101
11
1.015424409448819
21
1.4117669291338582
0
LINE
8
BLACK
6
CONTINUOUS
10
1.015424409448819
20
1.4117669291338582
11
1.0158998031496063
21
1.4109434645669292
0
LINE
8
BLACK
6
CONTINUOUS
10
1.0158998031496063
20
1.4109434645669292
11
1.0165306299212598
21
1.4102321259842518
0
LINE
8
BLACK
6
CONTINUOUS
10
1.0165306299212598
20
1.4102321259842518
11
1.0193427952755905
21
1.4046078740157479
0
LINE
8
BLACK
6
CONTINUOUS
10
1.0193427952755905
20
1.4046078740157479
11
1.0196149606299212
21
1.4032778346456694
0
LINE
8
BLACK
6
CONTINUOUS
10
1.0196149606299212
20
1.4032778346456694
11
1.0199662598425197
21
1.4019668110236221
0
LINE
8
BLACK
6
CONTINUOUS
10
1.0199662598425197
20
1.4019668110236221
11
1.0199662598425197
21
1.3963425196850394
0
LINE
8
BLACK
6
CONTINUOUS
10
1.0199662598425197
20
1.3963425196850394
11
1.019720157480315
21
1.3954240551181103
0
LINE
8
BLACK
6
CONTINUOUS
10
1.019720157480315
20
1.3954240551181103
11
1.0196631889763779
21
1.3944749999999999
0
LINE
8
BLACK
6
CONTINUOUS
10
1.0196631889763779
20
1.3944749999999999
11
1.0168510236220472
21
1.3860385826771653
0
LINE
8
BLACK
6
CONTINUOUS
10
1.0168510236220472
20
1.3860385826771653
11
1.0161031102362204
21
1.3849057874015747
0
LINE
8
BLACK
6
CONTINUOUS
10
1.0161031102362204
20
1.3849057874015747
11
1.015424409448819
21
1.3837302362204724
0
LINE
8
BLACK
6
CONTINUOUS
10
1.015424409448819
20
1.3837302362204724
11
0.9917599606299212
21
1.3600657874015747
0
LINE
8
BLACK
6
CONTINUOUS
10
0.9917599606299212
20
1.3600657874015747
11
1.014060748031496
21
1.3600657874015747
0
LINE
8
BLACK
6
CONTINUOUS
10
1.014060748031496
20
1.3600657874015747
11
1.0170135039370078
21
1.3592746062992125
0
LINE
8
BLACK
6
CONTINUOUS
10
1.0170135039370078
20
1.3592746062992125
11
1.0191750787401574
21
1.3571130314960629
0
LINE
8
BLACK
6
CONTINUOUS
10
1.0191750787401574
20
1.3571130314960629
11
1.0199662598425197
21
1.3541602755905511
0
LINE
8
BLACK
6
CONTINUOUS
10
1.0199662598425197
20
1.3541602755905511
11
1.0191750787401574
21
1.3512075196850393
0
LINE
8
BLACK
6
CONTINUOUS
10
1.0191750787401574
20
1.3512075196850393
11
1.0170135039370078
21
1.3490459448818897
0
LINE
8
BLACK
6
CONTINUOUS
10
1.0170135039370078
20
1.3490459448818897
11
1.014060748031496
21
1.3482547637795275
0
LINE
8
BLACK
6
CONTINUOUS
10
1.014060748031496
20
1.3482547637795275
11
0.9775027952755905
21
1.3482547637795275
0
LINE
8
BLACK
6
CONTINUOUS
10
0.9775027952755905
20
1.3482547637795275
11
0.9767518110236221
21
1.3484559842519686
0
LINE
8
BLACK
6
CONTINUOUS
10
0.9767518110236221
20
1.3484559842519686
11
0.9759743307086614
21
1.3484559842519686
0
LINE
8
BLACK
6
CONTINUOUS
10
0.9759743307086614
20
1.3484559842519686
11
0.9753009842519684
21
1.3488446850393701
0
LINE
8
BLACK
6
CONTINUOUS
10
0.9753009842519684
20
1.3488446850393701
11
0.9745500393700787
21
1.3490459448818897
0
LINE
8
BLACK
6
CONTINUOUS
10
0.9745500393700787
20
1.3490459448818897
11
0.9740002362204724
21
1.3495957086614172
0
LINE
8
BLACK
6
CONTINUOUS
10
0.9740002362204724
20
1.3495957086614172
11
0.973326968503937
21
1.3499844488188977
0
LINE
8
BLACK
6
CONTINUOUS
10
0.973326968503937
20
1.3499844488188977
11
0.9729382283464567
21
1.350657716535433
0
LINE
8
BLACK
6
CONTINUOUS
10
0.9729382283464567
20
1.350657716535433
11
0.9723884645669291
21
1.3512075196850393
0
LINE
8
BLACK
6
CONTINUOUS
10
0.9723884645669291
20
1.3512075196850393
11
0.9721872047244094
21
1.3519584645669291
0
LINE
8
BLACK
6
CONTINUOUS
10
0.9721872047244094
20
1.3519584645669291
11
0.9717985039370078
21
1.352631811023622
0
LINE
8
BLACK
6
CONTINUOUS
10
0.9717985039370078
20
1.352631811023622
11
0.9717985039370078
21
1.3534092913385827
0
LINE
8
BLACK
6
CONTINUOUS
10
0.9717985039370078
20
1.3534092913385827
11
0.9715972834645669
21
1.3541602755905511
0
LINE
8
BLACK
6
CONTINUOUS
10
0.9715972834645669
20
1.3541602755905511
11
0.9717985039370078
21
1.3549112204724409
0
LINE
8
BLACK
6
CONTINUOUS
10
0.9717985039370078
20
1.3549112204724409
11
0.9717985039370078
21
1.3556887401574802
0
LINE
8
BLACK
6
CONTINUOUS
10
0.9717985039370078
20
1.3556887401574802
11
0.9721872047244094
21
1.3563620472440945
0
LINE
8
BLACK
6
CONTINUOUS
10
0.9721872047244094
20
1.3563620472440945
11
0.9723884645669291
21
1.3571130314960629
0
LINE
8
BLACK
6
CONTINUOUS
10
0.9723884645669291
20
1.3571130314960629
11
0.9729382283464567
21
1.3576627952755904
0
LINE
8
BLACK
6
CONTINUOUS
10
0.9729382283464567
20
1.3576627952755904
11
0.973326968503937
21
1.3583361023622047
0
LINE
8
BLACK
6
CONTINUOUS
10
0.973326968503937
20
1.3583361023622047
11
1.0060869685039371
21
1.3910961023622046
0
LINE
8
BLACK
6
CONTINUOUS
10
1.0060869685039371
20
1.3910961023622046
11
1.0081552362204724
21
1.3973008661417323
0
LINE
8
BLACK
6
CONTINUOUS
10
1.0081552362204724
20
1.3973008661417323
11
1.0081552362204724
21
1.4005726771653544
0
LINE
8
BLACK
6
CONTINUOUS
10
1.0081552362204724
20
1.4005726771653544
11
1.0063951181102362
21
1.4040928740157479
0
LINE
8
BLACK
6
CONTINUOUS
10
1.0063951181102362
20
1.4040928740157479
11
1.0049382677165355
21
1.4055497637795276
0
LINE
8
BLACK
6
CONTINUOUS
10
1.0049382677165355
20
1.4055497637795276
11
1.001418031496063
21
1.4073098818897638
0
LINE
8
BLACK
6
CONTINUOUS
10
1.001418031496063
20
1.4073098818897638
11
0.9901455118110236
21
1.4073098818897638
0
LINE
8
BLACK
6
CONTINUOUS
10
0.9901455118110236
20
1.4073098818897638
11
0.9866252755905511
21
1.4055497637795276
0
LINE
8
BLACK
6
CONTINUOUS
10
0.9866252755905511
20
1.4055497637795276
11
0.9844907874015748
21
1.4034152755905511
0
LINE
8
BLACK
6
CONTINUOUS
10
0.9844907874015748
20
1.4034152755905511
11
0.9818434251968504
21
1.401886811023622
0
LINE
8
BLACK
6
CONTINUOUS
10
0.9818434251968504
20
1.401886811023622
11
0.9787864960629921
21
1.401886811023622
0
LINE
8
BLACK
6
CONTINUOUS
10
0.9787864960629921
20
1.401886811023622
11
0.9761391338582677
21
1.4034152755905511
0
LINE
8
BLACK
6
CONTINUOUS
10
0.9761391338582677
20
1.4034152755905511
11
0.9746106692913385
21
1.4060626377952756
0
LINE
8
BLACK
6
CONTINUOUS
10
0.9746106692913385
20
1.4060626377952756
11
0.9746106692913385
21
1.4091195669291339
0
LINE
8
BLACK
6
CONTINUOUS
10
0.9746106692913385
20
1.4091195669291339
11
0.9761391338582677
21
1.4117669291338582
0
LINE
8
BLACK
6
CONTINUOUS
10
0.9761391338582677
20
1.4117669291338582
11
0.9789512598425196
21
1.4145790551181101
0
LINE
8
BLACK
6
CONTINUOUS
10
0.9789512598425196
20
1.4145790551181101
11
0.9797746456692913
21
1.4150544094488189
0
LINE
8
BLACK
6
CONTINUOUS
10
0.9797746456692913
20
1.4150544094488189
11
0.9804860629921259
21
1.4156852755905511
0
LINE
8
BLACK
6
CONTINUOUS
10
0.9804860629921259
20
1.4156852755905511
11
0.9861103937007873
21
1.4184974409448818
0
LINE
8
BLACK
6
CONTINUOUS
10
0.9861103937007873
20
1.4184974409448818
11
0.9874403149606299
21
1.4187695669291338
0
LINE
8
BLACK
6
CONTINUOUS
10
0.9874403149606299
20
1.4187695669291338
11
0.9887514173228347
21
1.419120905511811
0
LINE
8
BLACK
6
CONTINUOUS
10
0.9887514173228347
20
1.419120905511811
11
1.002812125984252
21
1.419120905511811
0
LINE
8
BLACK
6
CONTINUOUS
10
1.002812125984252
20
1.419120905511811
11
1.004123188976378
21
1.4187695669291338
0
LINE
8
BLACK
6
CONTINUOUS
10
1.0575540157480314
20
1.4187695669291338
11
1.0588839763779527
21
1.4184974409448818
0
LINE
8
BLACK
6
CONTINUOUS
10
1.0588839763779527
20
1.4184974409448818
11
1.0645082677165354
21
1.4156852755905511
0
LINE
8
BLACK
6
CONTINUOUS
10
1.0645082677165354
20
1.4156852755905511
11
1.0652196062992125
21
1.4150544488188976
0
LINE
8
BLACK
6
CONTINUOUS
10
1.0652196062992125
20
1.4150544488188976
11
1.0660430314960629
21
1.4145790944881889
0
LINE
8
BLACK
6
CONTINUOUS
10
1.0660430314960629
20
1.4145790944881889
11
1.0688551968503937
21
1.4117669685039369
0
LINE
8
BLACK
6
CONTINUOUS
10
1.0688551968503937
20
1.4117669685039369
11
1.0693305905511812
21
1.4109435039370077
0
LINE
8
BLACK
6
CONTINUOUS
10
1.0693305905511812
20
1.4109435039370077
11
1.0699614566929134
21
1.4102321259842518
0
LINE
8
BLACK
6
CONTINUOUS
10
1.0699614566929134
20
1.4102321259842518
11
1.0727735826771654
21
1.4046077952755904
0
LINE
8
BLACK
6
CONTINUOUS
10
1.0727735826771654
20
1.4046077952755904
11
1.0729042519685039
21
1.4039690551181101
0
LINE
8
BLACK
6
CONTINUOUS
10
1.0729042519685039
20
1.4039690551181101
11
1.0732207086614174
21
1.4033990944881889
0
LINE
8
BLACK
6
CONTINUOUS
10
1.0732207086614174
20
1.4033990944881889
11
1.0760328740157481
21
1.3921505118110236
0
LINE
8
BLACK
6
CONTINUOUS
10
1.0760328740157481
20
1.3921505118110236
11
1.076020590551181
21
1.3914219685039371
0
LINE
8
BLACK
6
CONTINUOUS
10
1.076020590551181
20
1.3914219685039371
11
1.0762092125984253
21
1.390718188976378
0
LINE
8
BLACK
6
CONTINUOUS
10
1.0762092125984253
20
1.390718188976378
11
1.0762092125984253
21
1.3766574803149605
0
LINE
8
BLACK
6
CONTINUOUS
10
1.0762092125984253
20
1.3766574803149605
11
1.076020590551181
21
1.3759536614173229
0
LINE
8
BLACK
6
CONTINUOUS
10
1.076020590551181
20
1.3759536614173229
11
1.0760328740157481
21
1.3752251574803149
0
LINE
8
BLACK
6
CONTINUOUS
10
1.0760328740157481
20
1.3752251574803149
11
1.0732207086614174
21
1.3639765748031496
0
LINE
8
BLACK
6
CONTINUOUS
10
1.0732207086614174
20
1.3639765748031496
11
1.0729042519685039
21
1.3634065748031496
0
LINE
8
BLACK
6
CONTINUOUS
10
1.0729042519685039
20
1.3634065748031496
11
1.0727735826771654
21
1.3627678740157481
0
LINE
8
BLACK
6
CONTINUOUS
10
1.0727735826771654
20
1.3627678740157481
11
1.0699614566929134
21
1.3571435433070866
0
LINE
8
BLACK
6
CONTINUOUS
10
1.0699614566929134
20
1.3571435433070866
11
1.0693305905511812
21
1.356432125984252
0
LINE
8
BLACK
6
CONTINUOUS
10
1.0693305905511812
20
1.356432125984252
11
1.0688551968503937
21
1.3556087007874016
0
LINE
8
BLACK
6
CONTINUOUS
10
1.0688551968503937
20
1.3556087007874016
11
1.0660430314960629
21
1.3527965748031496
0
LINE
8
BLACK
6
CONTINUOUS
10
1.0660430314960629
20
1.3527965748031496
11
1.0652196062992125
21
1.3523211811023621
0
LINE
8
BLACK
6
CONTINUOUS
10
1.0652196062992125
20
1.3523211811023621
11
1.0645082677165354
21
1.3516903937007874
0
LINE
8
BLACK
6
CONTINUOUS
10
1.0645082677165354
20
1.3516903937007874
11
1.0588839763779527
21
1.3488782283464567
0
LINE
8
BLACK
6
CONTINUOUS
10
1.0588839763779527
20
1.3488782283464567
11
1.0575540157480314
21
1.3486060629921259
0
LINE
8
BLACK
6
CONTINUOUS
10
1.0575540157480314
20
1.3486060629921259
11
1.0562429527559054
21
1.3482547637795275
0
LINE
8
BLACK
6
CONTINUOUS
10
1.0562429527559054
20
1.3482547637795275
11
1.0506186614173227
21
1.3482547637795275
0
LINE
8
BLACK
6
CONTINUOUS
10
1.0506186614173227
20
1.3482547637795275
11
1.0493075984251967
21
1.3486060236220472
0
LINE
8
BLACK
6
CONTINUOUS
10
1.0493075984251967
20
1.3486060236220472
11
1.0479775984251969
21
1.3488782283464567
0
LINE
8
BLACK
6
CONTINUOUS
10
1.0479775984251969
20
1.3488782283464567
11
1.042353346456693
21
1.3516903937007874
0
LINE
8
BLACK
6
CONTINUOUS
10
1.042353346456693
20
1.3516903937007874
11
1.0416419685039371
21
1.3523211811023621
0
LINE
8
BLACK
6
CONTINUOUS
10
1.0416419685039371
20
1.3523211811023621
11
1.0408185826771654
21
1.3527965748031496
0
LINE
8
BLACK
6
CONTINUOUS
10
1.0408185826771654
20
1.3527965748031496
11
1.0380064173228347
21
1.3556087007874016
0
LINE
8
BLACK
6
CONTINUOUS
10
1.0380064173228347
20
1.3556087007874016
11
1.0375309448818897
21
1.3564321653543308
0
LINE
8
BLACK
6
CONTINUOUS
10
1.0375309448818897
20
1.3564321653543308
11
1.0369001574803149
21
1.3571435433070866
0
LINE
8
BLACK
6
CONTINUOUS
10
1.0369001574803149
20
1.3571435433070866
11
1.0340879921259842
21
1.3627678346456693
0
LINE
8
BLACK
6
CONTINUOUS
10
1.0340879921259842
20
1.3627678346456693
11
1.0339572440944882
21
1.3634065748031496
0
LINE
8
BLACK
6
CONTINUOUS
10
1.0339572440944882
20
1.3634065748031496
11
1.0336408661417322
21
1.3639765748031496
0
LINE
8
BLACK
6
CONTINUOUS
10
1.0336408661417322
20
1.3639765748031496
11
1.0308287401574803
21
1.3752251968503937
0
LINE
8
BLACK
6
CONTINUOUS
10
1.0308287401574803
20
1.3752251968503937
11
1.0308409842519686
21
1.3759536220472441
0
LINE
8
BLACK
6
CONTINUOUS
10
1.0308409842519686
20
1.3759536220472441
11
1.0306524015748031
21
1.3766574803149605
0
LINE
8
BLACK
6
CONTINUOUS
10
1.0306524015748031
20
1.3766574803149605
11
1.0306524015748031
21
1.390718188976378
0
LINE
8
BLACK
6
CONTINUOUS
10
1.0306524015748031
20
1.390718188976378
11
1.0308409842519686
21
1.3914220078740158
0
LINE
8
BLACK
6
CONTINUOUS
10
1.0308409842519686
20
1.3914220078740158
11
1.0308287401574803
21
1.3921504724409448
0
LINE
8
BLACK
6
CONTINUOUS
10
1.0308287401574803
20
1.3921504724409448
11
1.0336408661417322
21
1.4033990944881889
0
LINE
8
BLACK
6
CONTINUOUS
10
1.0336408661417322
20
1.4033990944881889
11
1.0339572440944882
21
1.4039690551181101
0
LINE
8
BLACK
6
CONTINUOUS
10
1.0339572440944882
20
1.4039690551181101
11
1.0340879921259842
21
1.4046078346456692
0
LINE
8
BLACK
6
CONTINUOUS
10
1.0340879921259842
20
1.4046078346456692
11
1.0369001574803149
21
1.4102321259842518
0
LINE
8
BLACK
6
CONTINUOUS
10
1.0369001574803149
20
1.4102321259842518
11
1.0375309448818897
21
1.4109434645669292
0
LINE
8
BLACK
6
CONTINUOUS
10
1.0375309448818897
20
1.4109434645669292
11
1.0380064173228347
21
1.4117669685039369
0
LINE
8
BLACK
6
CONTINUOUS
10
1.0380064173228347
20
1.4117669685039369
11
1.0408185826771654
21
1.4145790944881889
0
LINE
8
BLACK
6
CONTINUOUS
10
1.0408185826771654
20
1.4145790944881889
11
1.0416419685039371
21
1.4150544488188976
0
LINE
8
BLACK
6
CONTINUOUS
10
1.0416419685039371
20
1.4150544488188976
11
1.042353346456693
21
1.4156852755905511
0
LINE
8
BLACK
6
CONTINUOUS
10
1.042353346456693
20
1.4156852755905511
11
1.0479775984251969
21
1.4184974409448818
0
LINE
8
BLACK
6
CONTINUOUS
10
1.0479775984251969
20
1.4184974409448818
11
1.0493075984251967
21
1.4187696062992126
0
LINE
8
BLACK
6
CONTINUOUS
10
1.0493075984251967
20
1.4187696062992126
11
1.0506186614173227
21
1.419120905511811
0
LINE
8
BLACK
6
CONTINUOUS
10
1.0506186614173227
20
1.419120905511811
11
1.0562429527559054
21
1.419120905511811
0
LINE
8
BLACK
6
CONTINUOUS
10
1.0562429527559054
20
1.419120905511811
11
1.0575540157480314
21
1.4187695669291338
0
LINE
8
BLACK
6
CONTINUOUS
10
1.0484925196850394
20
1.4055497244094488
11
1.0470356692913385
21
1.4040929133858266
0
LINE
8
BLACK
6
CONTINUOUS
10
1.0470356692913385
20
1.4040929133858266
11
1.0449419291338582
21
1.3999055118110235
0
LINE
8
BLACK
6
CONTINUOUS
10
1.0449419291338582
20
1.3999055118110235
11
1.0424634251968503
21
1.3899912598425197
0
LINE
8
BLACK
6
CONTINUOUS
10
1.0424634251968503
20
1.3899912598425197
11
1.0424634251968503
21
1.37738437007874
0
LINE
8
BLACK
6
CONTINUOUS
10
1.0424634251968503
20
1.37738437007874
11
1.0449419291338582
21
1.3674701181102362
0
LINE
8
BLACK
6
CONTINUOUS
10
1.0449419291338582
20
1.3674701181102362
11
1.0470356692913385
21
1.3632827165354331
0
LINE
8
BLACK
6
CONTINUOUS
10
1.0470356692913385
20
1.3632827165354331
11
1.0484925196850394
21
1.3618259055118109
0
LINE
8
BLACK
6
CONTINUOUS
10
1.0484925196850394
20
1.3618259055118109
11
1.0520127559055117
21
1.3600657874015747
0
LINE
8
BLACK
6
CONTINUOUS
10
1.0520127559055117
20
1.3600657874015747
11
1.0548488582677165
21
1.3600657874015747
0
LINE
8
BLACK
6
CONTINUOUS
10
1.0548488582677165
20
1.3600657874015747
11
1.0583690944881889
21
1.3618259055118109
0
LINE
8
BLACK
6
CONTINUOUS
10
1.0583690944881889
20
1.3618259055118109
11
1.0598259448818896
21
1.3632827559055118
0
LINE
8
BLACK
6
CONTINUOUS
10
1.0598259448818896
20
1.3632827559055118
11
1.0619195669291339
21
1.3674700787401575
0
LINE
8
BLACK
6
CONTINUOUS
10
1.0619195669291339
20
1.3674700787401575
11
1.0643981889763778
21
1.3773844094488188
0
LINE
8
BLACK
6
CONTINUOUS
10
1.0643981889763778
20
1.3773844094488188
11
1.0643981889763778
21
1.3899912204724409
0
LINE
8
BLACK
6
CONTINUOUS
10
1.0643981889763778
20
1.3899912204724409
11
1.0619195669291339
21
1.3999055511811023
0
LINE
8
BLACK
6
CONTINUOUS
10
1.0619195669291339
20
1.3999055511811023
11
1.0598259448818896
21
1.4040928740157479
0
LINE
8
BLACK
6
CONTINUOUS
10
1.0598259448818896
20
1.4040928740157479
11
1.0583690944881889
21
1.4055497244094488
0
LINE
8
BLACK
6
CONTINUOUS
10
1.0583690944881889
20
1.4055497244094488
11
1.0548488582677165
21
1.4073098818897638
0
LINE
8
BLACK
6
CONTINUOUS
10
1.0548488582677165
20
1.4073098818897638
11
1.0520127559055117
21
1.4073098818897638
0
LINE
8
BLACK
6
CONTINUOUS
10
1.0520127559055117
20
1.4073098818897638
11
1.0484925196850394
21
1.4055497244094488
0
LINE
8
BLACK
6
CONTINUOUS
10
1.1587913385826771
20
1.3990845275590551
11
1.1601212992125984
21
1.3988124015748031
0
LINE
8
BLACK
6
CONTINUOUS
10
1.1601212992125984
20
1.3988124015748031
11
1.1657455905511811
21
1.3960002362204724
0
LINE
8
BLACK
6
CONTINUOUS
10
1.1657455905511811
20
1.3960002362204724
11
1.1659166929133857
21
1.3958484645669291
0
LINE
8
BLACK
6
CONTINUOUS
10
1.1659166929133857
20
1.3958484645669291
11
1.1660878346456693
21
1.3960002362204724
0
LINE
8
BLACK
6
CONTINUOUS
10
1.1660878346456693
20
1.3960002362204724
11
1.1717120866141733
21
1.3988124015748031
0
LINE
8
BLACK
6
CONTINUOUS
10
1.1717120866141733
20
1.3988124015748031
11
1.1730420866141733
21
1.3990845669291339
0
LINE
8
BLACK
6
CONTINUOUS
10
1.1730420866141733
20
1.3990845669291339
11
1.1743531496062991
21
1.3994358661417323
0
LINE
8
BLACK
6
CONTINUOUS
10
1.1743531496062991
20
1.3994358661417323
11
1.1827896062992125
21
1.3994358661417323
0
LINE
8
BLACK
6
CONTINUOUS
10
1.1827896062992125
20
1.3994358661417323
11
1.1841006692913385
21
1.3990845275590551
0
LINE
8
BLACK
6
CONTINUOUS
10
1.1841006692913385
20
1.3990845275590551
11
1.1854306299212598
21
1.3988124015748031
0
LINE
8
BLACK
6
CONTINUOUS
10
1.1854306299212598
20
1.3988124015748031
11
1.1910549212598425
21
1.3960002362204724
0
LINE
8
BLACK
6
CONTINUOUS
10
1.1910549212598425
20
1.3960002362204724
11
1.1913251181102362
21
1.3957605905511812
0
LINE
8
BLACK
6
CONTINUOUS
10
1.1913251181102362
20
1.3957605905511812
11
1.1916677559055118
21
1.3956464173228347
0
LINE
8
BLACK
6
CONTINUOUS
10
1.1916677559055118
20
1.3956464173228347
11
1.19245468503937
21
1.3947589763779527
0
LINE
8
BLACK
6
CONTINUOUS
10
1.19245468503937
20
1.3947589763779527
11
1.193342125984252
21
1.3939720472440944
0
LINE
8
BLACK
6
CONTINUOUS
10
1.193342125984252
20
1.3939720472440944
11
1.1934562992125983
21
1.3936294094488189
0
LINE
8
BLACK
6
CONTINUOUS
10
1.1934562992125983
20
1.3936294094488189
11
1.1936959448818898
21
1.3933592125984251
0
LINE
8
BLACK
6
CONTINUOUS
10
1.1936959448818898
20
1.3933592125984251
11
1.1965081102362205
21
1.3877349606299212
0
LINE
8
BLACK
6
CONTINUOUS
10
1.1965081102362205
20
1.3877349606299212
11
1.1967802755905512
21
1.3864049212598424
0
LINE
8
BLACK
6
CONTINUOUS
10
1.1967802755905512
20
1.3864049212598424
11
1.1971315748031497
21
1.3850938976377953
0
LINE
8
BLACK
6
CONTINUOUS
10
1.1971315748031497
20
1.3850938976377953
11
1.1971315748031497
21
1.3541602755905511
0
LINE
8
BLACK
6
CONTINUOUS
10
1.1971315748031497
20
1.3541602755905511
11
1.1963403937007873
21
1.3512075196850393
0
LINE
8
BLACK
6
CONTINUOUS
10
1.1963403937007873
20
1.3512075196850393
11
1.1941788188976377
21
1.3490459448818897
0
LINE
8
BLACK
6
CONTINUOUS
10
1.1941788188976377
20
1.3490459448818897
11
1.1912260629921259
21
1.3482547637795275
0
LINE
8
BLACK
6
CONTINUOUS
10
1.1912260629921259
20
1.3482547637795275
11
1.1882733070866141
21
1.3490459448818897
0
LINE
8
BLACK
6
CONTINUOUS
10
1.1882733070866141
20
1.3490459448818897
11
1.1861117322834644
21
1.3512075196850393
0
LINE
8
BLACK
6
CONTINUOUS
10
1.1861117322834644
20
1.3512075196850393
11
1.1853205511811022
21
1.3541602755905511
0
LINE
8
BLACK
6
CONTINUOUS
10
1.1853205511811022
20
1.3541602755905511
11
1.1853205511811022
21
1.3836997637795276
0
LINE
8
BLACK
6
CONTINUOUS
10
1.1853205511811022
20
1.3836997637795276
11
1.1840122047244095
21
1.3863164566929134
0
LINE
8
BLACK
6
CONTINUOUS
10
1.1840122047244095
20
1.3863164566929134
11
1.1813955118110235
21
1.3876248425196851
0
LINE
8
BLACK
6
CONTINUOUS
10
1.1813955118110235
20
1.3876248425196851
11
1.1757472440944881
21
1.3876248425196851
0
LINE
8
BLACK
6
CONTINUOUS
10
1.1757472440944881
20
1.3876248425196851
11
1.1731305511811023
21
1.3863164566929134
0
LINE
8
BLACK
6
CONTINUOUS
10
1.1731305511811023
20
1.3863164566929134
11
1.1718222440944881
21
1.3836998031496062
0
LINE
8
BLACK
6
CONTINUOUS
10
1.1718222440944881
20
1.3836998031496062
11
1.1718222440944881
21
1.3541602755905511
0
LINE
8
BLACK
6
CONTINUOUS
10
1.1718222440944881
20
1.3541602755905511
11
1.1710310629921259
21
1.3512075196850393
0
LINE
8
BLACK
6
CONTINUOUS
10
1.1710310629921259
20
1.3512075196850393
11
1.1688694881889763
21
1.3490459448818897
0
LINE
8
BLACK
6
CONTINUOUS
10
1.1688694881889763
20
1.3490459448818897
11
1.1659167322834645
21
1.3482547637795275
0
LINE
8
BLACK
6
CONTINUOUS
10
1.1659167322834645
20
1.3482547637795275
11
1.1629639763779527
21
1.3490459448818897
0
LINE
8
BLACK
6
CONTINUOUS
10
1.1629639763779527
20
1.3490459448818897
11
1.1608024015748031
21
1.3512075196850393
0
LINE
8
BLACK
6
CONTINUOUS
10
1.1608024015748031
20
1.3512075196850393
11
1.1600112204724409
21
1.3541602755905511
0
LINE
8
BLACK
6
CONTINUOUS
10
1.1600112204724409
20
1.3541602755905511
11
1.1600112204724409
21
1.3836997637795276
0
LINE
8
BLACK
6
CONTINUOUS
10
1.1600112204724409
20
1.3836997637795276
11
1.1587028740157479
21
1.3863164566929134
0
LINE
8
BLACK
6
CONTINUOUS
10
1.1587028740157479
20
1.3863164566929134
11
1.1560861811023622
21
1.3876248425196851
0
LINE
8
BLACK
6
CONTINUOUS
10
1.1560861811023622
20
1.3876248425196851
11
1.1504379133858267
21
1.3876248425196851
0
LINE
8
BLACK
6
CONTINUOUS
10
1.1504379133858267
20
1.3876248425196851
11
1.1469176771653542
21
1.3858646850393701
0
LINE
8
BLACK
6
CONTINUOUS
10
1.1469176771653542
20
1.3858646850393701
11
1.146512874015748
21
1.3854598818897637
0
LINE
8
BLACK
6
CONTINUOUS
10
1.146512874015748
20
1.3854598818897637
11
1.146512874015748
21
1.3541602755905511
0
LINE
8
BLACK
6
CONTINUOUS
10
1.146512874015748
20
1.3541602755905511
11
1.1457216929133858
21
1.3512075196850393
0
LINE
8
BLACK
6
CONTINUOUS
10
1.1457216929133858
20
1.3512075196850393
11
1.1435601181102362
21
1.3490459448818897
0
LINE
8
BLACK
6
CONTINUOUS
10
1.1435601181102362
20
1.3490459448818897
11
1.1406073622047244
21
1.3482547637795275
0
LINE
8
BLACK
6
CONTINUOUS
10
1.1406073622047244
20
1.3482547637795275
11
1.1376546062992126
21
1.3490459448818897
0
LINE
8
BLACK
6
CONTINUOUS
10
1.1376546062992126
20
1.3490459448818897
11
1.135493031496063
21
1.3512075196850393
0
LINE
8
BLACK
6
CONTINUOUS
10
1.135493031496063
20
1.3512075196850393
11
1.1347018503937008
21
1.3541602755905511
0
LINE
8
BLACK
6
CONTINUOUS
10
1.1347018503937008
20
1.3541602755905511
11
1.1347018503937008
21
1.3935303543307087
0
LINE
8
BLACK
6
CONTINUOUS
10
1.1347018503937008
20
1.3935303543307087
11
1.135493031496063
21
1.3964831102362205
0
LINE
8
BLACK
6
CONTINUOUS
10
1.135493031496063
20
1.3964831102362205
11
1.1376546062992126
21
1.3986446850393701
0
LINE
8
BLACK
6
CONTINUOUS
10
1.1376546062992126
20
1.3986446850393701
11
1.1406073622047244
21
1.3994358661417323
0
LINE
8
BLACK
6
CONTINUOUS
10
1.1406073622047244
20
1.3994358661417323
11
1.1435601181102362
21
1.3986446850393701
0
LINE
8
BLACK
6
CONTINUOUS
10
1.1435601181102362
20
1.3986446850393701
11
1.1443958267716534
21
1.3978089370078739
0
LINE
8
BLACK
6
CONTINUOUS
10
1.1443958267716534
20
1.3978089370078739
11
1.1464027559055119
21
1.3988124015748031
0
LINE
8
BLACK
6
CONTINUOUS
10
1.1464027559055119
20
1.3988124015748031
11
1.1477327559055117
21
1.3990845669291339
0
LINE
8
BLACK
6
CONTINUOUS
10
1.1477327559055117
20
1.3990845669291339
11
1.1490438188976377
21
1.3994358661417323
0
LINE
8
BLACK
6
CONTINUOUS
10
1.1490438188976377
20
1.3994358661417323
11
1.1574802755905511
21
1.3994358661417323
0
LINE
8
BLACK
6
CONTINUOUS
10
1.1574802755905511
20
1.3994358661417323
11
1.1587913385826771
21
1.3990845275590551
0
LINE
8
BLACK
6
CONTINUOUS
10
1.2375314960629922
20
1.3990845275590551
11
1.2388614566929133
21
1.3988124015748031
0
LINE
8
BLACK
6
CONTINUOUS
10
1.2388614566929133
20
1.3988124015748031
11
1.2444857480314961
21
1.3960002362204724
0
LINE
8
BLACK
6
CONTINUOUS
10
1.2444857480314961
20
1.3960002362204724
11
1.2446568503937008
21
1.3958484645669291
0
LINE
8
BLACK
6
CONTINUOUS
10
1.2446568503937008
20
1.3958484645669291
11
1.2448279921259842
21
1.3960002362204724
0
LINE
8
BLACK
6
CONTINUOUS
10
1.2448279921259842
20
1.3960002362204724
11
1.2504522440944881
21
1.3988124015748031
0
LINE
8
BLACK
6
CONTINUOUS
10
1.2504522440944881
20
1.3988124015748031
11
1.2517822440944881
21
1.3990845669291339
0
LINE
8
BLACK
6
CONTINUOUS
10
1.2517822440944881
20
1.3990845669291339
11
1.2530933070866141
21
1.3994358661417323
0
LINE
8
BLACK
6
CONTINUOUS
10
1.2530933070866141
20
1.3994358661417323
11
1.2615297637795275
21
1.3994358661417323
0
LINE
8
BLACK
6
CONTINUOUS
10
1.2615297637795275
20
1.3994358661417323
11
1.2628408267716535
21
1.3990845275590551
0
LINE
8
BLACK
6
CONTINUOUS
10
1.2628408267716535
20
1.3990845275590551
11
1.2641707874015748
21
1.3988124015748031
0
LINE
8
BLACK
6
CONTINUOUS
10
1.2641707874015748
20
1.3988124015748031
11
1.2697950787401575
21
1.3960002362204724
0
LINE
8
BLACK
6
CONTINUOUS
10
1.2697950787401575
20
1.3960002362204724
11
1.270065275590551
21
1.3957605905511812
0
LINE
8
BLACK
6
CONTINUOUS
10
1.270065275590551
20
1.3957605905511812
11
1.2704079133858268
21
1.3956464173228347
0
LINE
8
BLACK
6
CONTINUOUS
10
1.2704079133858268
20
1.3956464173228347
11
1.2711948425196851
21
1.3947589763779527
0
LINE
8
BLACK
6
CONTINUOUS
10
1.2711948425196851
20
1.3947589763779527
11
1.2720822834645669
21
1.3939720472440944
0
LINE
8
BLACK
6
CONTINUOUS
10
1.2720822834645669
20
1.3939720472440944
11
1.2721964566929134
21
1.3936294094488189
0
LINE
8
BLACK
6
CONTINUOUS
10
1.2721964566929134
20
1.3936294094488189
11
1.2724361023622046
21
1.3933592125984251
0
LINE
8
BLACK
6
CONTINUOUS
10
1.2724361023622046
20
1.3933592125984251
11
1.2752482677165353
21
1.3877349606299212
0
LINE
8
BLACK
6
CONTINUOUS
10
1.2752482677165353
20
1.3877349606299212
11
1.275520433070866
21
1.3864049212598424
0
LINE
8
BLACK
6
CONTINUOUS
10
1.275520433070866
20
1.3864049212598424
11
1.2758717322834645
21
1.3850938976377953
0
LINE
8
BLACK
6
CONTINUOUS
10
1.2758717322834645
20
1.3850938976377953
11
1.2758717322834645
21
1.3541602755905511
0
LINE
8
BLACK
6
CONTINUOUS
10
1.2758717322834645
20
1.3541602755905511
11
1.2750805511811023
21
1.3512075196850393
0
LINE
8
BLACK
6
CONTINUOUS
10
1.2750805511811023
20
1.3512075196850393
11
1.2729189763779527
21
1.3490459448818897
0
LINE
8
BLACK
6
CONTINUOUS
10
1.2729189763779527
20
1.3490459448818897
11
1.2699662204724409
21
1.3482547637795275
0
LINE
8
BLACK
6
CONTINUOUS
10
1.2699662204724409
20
1.3482547637795275
11
1.2670134645669291
21
1.3490459448818897
0
LINE
8
BLACK
6
CONTINUOUS
10
1.2670134645669291
20
1.3490459448818897
11
1.2648518897637795
21
1.3512075196850393
0
LINE
8
BLACK
6
CONTINUOUS
10
1.2648518897637795
20
1.3512075196850393
11
1.2640607086614173
21
1.3541602755905511
0
LINE
8
BLACK
6
CONTINUOUS
10
1.2640607086614173
20
1.3541602755905511
11
1.2640607086614173
21
1.3836997637795276
0
LINE
8
BLACK
6
CONTINUOUS
10
1.2640607086614173
20
1.3836997637795276
11
1.2627523622047243
21
1.3863164566929134
0
LINE
8
BLACK
6
CONTINUOUS
10
1.2627523622047243
20
1.3863164566929134
11
1.2601356692913386
21
1.3876248425196851
0
LINE
8
BLACK
6
CONTINUOUS
10
1.2601356692913386
20
1.3876248425196851
11
1.2544874015748031
21
1.3876248425196851
0
LINE
8
BLACK
6
CONTINUOUS
10
1.2544874015748031
20
1.3876248425196851
11
1.2518707086614174
21
1.3863164566929134
0
LINE
8
BLACK
6
CONTINUOUS
10
1.2518707086614174
20
1.3863164566929134
11
1.2505624015748031
21
1.3836998031496062
0
LINE
8
BLACK
6
CONTINUOUS
10
1.2505624015748031
20
1.3836998031496062
11
1.2505624015748031
21
1.3541602755905511
0
LINE
8
BLACK
6
CONTINUOUS
10
1.2505624015748031
20
1.3541602755905511
11
1.2497712204724409
21
1.3512075196850393
0
LINE
8
BLACK
6
CONTINUOUS
10
1.2497712204724409
20
1.3512075196850393
11
1.2476096456692913
21
1.3490459448818897
0
LINE
8
BLACK
6
CONTINUOUS
10
1.2476096456692913
20
1.3490459448818897
11
1.2446568897637795
21
1.3482547637795275
0
LINE
8
BLACK
6
CONTINUOUS
10
1.2446568897637795
20
1.3482547637795275
11
1.2417041338582677
21
1.3490459448818897
0
LINE
8
BLACK
6
CONTINUOUS
10
1.2417041338582677
20
1.3490459448818897
11
1.2395425590551181
21
1.3512075196850393
0
LINE
8
BLACK
6
CONTINUOUS
10
1.2395425590551181
20
1.3512075196850393
11
1.2387513779527559
21
1.3541602755905511
0
LINE
8
BLACK
6
CONTINUOUS
10
1.2387513779527559
20
1.3541602755905511
11
1.2387513779527559
21
1.3836997637795276
0
LINE
8
BLACK
6
CONTINUOUS
10
1.2387513779527559
20
1.3836997637795276
11
1.2374430314960629
21
1.3863164566929134
0
LINE
8
BLACK
6
CONTINUOUS
10
1.2374430314960629
20
1.3863164566929134
11
1.2348263385826772
21
1.3876248425196851
0
LINE
8
BLACK
6
CONTINUOUS
10
1.2348263385826772
20
1.3876248425196851
11
1.2291780708661417
21
1.3876248425196851
0
LINE
8
BLACK
6
CONTINUOUS
10
1.2291780708661417
20
1.3876248425196851
11
1.2256578346456692
21
1.3858646850393701
0
LINE
8
BLACK
6
CONTINUOUS
10
1.2256578346456692
20
1.3858646850393701
11
1.225253031496063
21
1.3854598818897637
0
LINE
8
BLACK
6
CONTINUOUS
10
1.225253031496063
20
1.3854598818897637
11
1.225253031496063
21
1.3541602755905511
0
LINE
8
BLACK
6
CONTINUOUS
10
1.225253031496063
20
1.3541602755905511
11
1.2244618503937008
21
1.3512075196850393
0
LINE
8
BLACK
6
CONTINUOUS
10
1.2244618503937008
20
1.3512075196850393
11
1.2223002755905512
21
1.3490459448818897
0
LINE
8
BLACK
6
CONTINUOUS
10
1.2223002755905512
20
1.3490459448818897
11
1.2193475196850394
21
1.3482547637795275
0
LINE
8
BLACK
6
CONTINUOUS
10
1.2193475196850394
20
1.3482547637795275
11
1.2163947637795276
21
1.3490459448818897
0
LINE
8
BLACK
6
CONTINUOUS
10
1.2163947637795276
20
1.3490459448818897
11
1.214233188976378
21
1.3512075196850393
0
LINE
8
BLACK
6
CONTINUOUS
10
1.214233188976378
20
1.3512075196850393
11
1.2134420078740158
21
1.3541602755905511
0
LINE
8
BLACK
6
CONTINUOUS
10
1.2134420078740158
20
1.3541602755905511
11
1.2134420078740158
21
1.3935303543307087
0
LINE
8
BLACK
6
CONTINUOUS
10
1.2134420078740158
20
1.3935303543307087
11
1.214233188976378
21
1.3964831102362205
0
LINE
8
BLACK
6
CONTINUOUS
10
1.214233188976378
20
1.3964831102362205
11
1.2163947637795276
21
1.3986446850393701
0
LINE
8
BLACK
6
CONTINUOUS
10
1.2163947637795276
20
1.3986446850393701
11
1.2193475196850394
21
1.3994358661417323
0
LINE
8
BLACK
6
CONTINUOUS
10
1.2193475196850394
20
1.3994358661417323
11
1.2223002755905512
21
1.3986446850393701
0
LINE
8
BLACK
6
CONTINUOUS
10
1.2223002755905512
20
1.3986446850393701
11
1.2231359842519685
21
1.3978089370078739
0
LINE
8
BLACK
6
CONTINUOUS
10
1.2231359842519685
20
1.3978089370078739
11
1.2251429133858267
21
1.3988124015748031
0
LINE
8
BLACK
6
CONTINUOUS
10
1.2251429133858267
20
1.3988124015748031
11
1.2264729133858268
21
1.3990845669291339
0
LINE
8
BLACK
6
CONTINUOUS
10
1.2264729133858268
20
1.3990845669291339
11
1.2277839763779528
21
1.3994358661417323
0
LINE
8
BLACK
6
CONTINUOUS
10
1.2277839763779528
20
1.3994358661417323
11
1.2362204330708662
21
1.3994358661417323
0
LINE
8
BLACK
6
CONTINUOUS
10
1.2362204330708662
20
1.3994358661417323
11
1.2375314960629922
21
1.3990845275590551
  0
ENDSEC
  0
EOF
