  0
SECTION
  2
HEADER
  9
$ANGBASE
  50
0.0
  9
$ANGDIR
  70
1
  9
$MEASUREMENT
  70
0
  0
ENDSEC
  0
SECTION
  2
TABLES
  0
TABLE
  2
LTYPE
  70
4
  0
LTYPE
  5
40F
  2
CONTINUOUS
  70
0
  3
Solid line
  72
65
  73
0
  40
0.0
  0
LTYPE
  5
410
  2
DASHDOT
 70
0
  3
Dash Dot ____ _ ____ _
 72
65
 73
4
 40
2.0
 49
1.25
 49
-0.25
 49
0.25
 49
-0.25
  0
LTYPE
  5
411
  2
DASHED
 70
0
  3
Dashed __ __ __ __ __
 72
65
 73
2
 40
0.75
 49
0.5
 49
-0.25
  0
LTYPE
  5
43B
  2
DOTTED
 70
0
  3
Dotted .  .  .  .
 72
65
 73
2
 40
0.2
 49
0.0
 49
-0.2
  0
ENDTAB
  0
TABLE
  2
STYLE
  70
4
  0
STYLE
  2
KICAD
  70
0
  40
0
  41
1
  42
1
  50
0
  71
0
  3
isocp.shx
  0
STYLE
  2
KICADB
  70
0
  40
0
  41
1
  42
1
  50
0
  71
0
  3
isocp.shx
  0
STYLE
  2
KICADI
  70
0
  40
0
  41
1
  42
1
  50
15
  71
0
  3
isocp.shx
  0
STYLE
  2
KICADBI
  70
0
  40
0
  41
1
  42
1
  50
15
  71
0
  3
isocp.shx
  0
ENDTAB
  0
TABLE
  2
LAYER
  70
1
  0
LAYER
  2
BLACK
  70
0
  62
7
  6
CONTINUOUS
  0
ENDTAB
  0
ENDSEC
  0
SECTION
  2
ENTITIES
0
LINE
8
BLACK
6
CONTINUOUS
10
1.1425000000000001
20
0.0675
11
1.0774999999999999
21
0.0675
0
LINE
8
BLACK
6
CONTINUOUS
10
1.0774999999999999
20
0.0675
11
1.0774999999999999
21
0.1325
0
LINE
8
BLACK
6
CONTINUOUS
10
1.0774999999999999
20
0.1325
11
1.1425000000000001
21
0.1325
0
LINE
8
BLACK
6
CONTINUOUS
10
1.1425000000000001
20
0.1325
11
1.1425000000000001
21
0.0675
0
LINE
8
BLACK
6
CONTINUOUS
10
1.2424999999999999
20
0.0675
11
1.1775
21
0.0675
0
LINE
8
BLACK
6
CONTINUOUS
10
1.1775
20
0.0675
11
1.1775
21
0.1325
0
LINE
8
BLACK
6
CONTINUOUS
10
1.1775
20
0.1325
11
1.2424999999999999
21
0.1325
0
LINE
8
BLACK
6
CONTINUOUS
10
1.2424999999999999
20
0.1325
11
1.2424999999999999
21
0.0675
0
LINE
8
BLACK
6
CONTINUOUS
10
1.3425
20
0.0675
11
1.2775000000000001
21
0.0675
0
LINE
8
BLACK
6
CONTINUOUS
10
1.2775000000000001
20
0.0675
11
1.2775000000000001
21
0.1325
0
LINE
8
BLACK
6
CONTINUOUS
10
1.2775000000000001
20
0.1325
11
1.3425
21
0.1325
0
LINE
8
BLACK
6
CONTINUOUS
10
1.3425
20
0.1325
11
1.3425
21
0.0675
0
LINE
8
BLACK
6
CONTINUOUS
10
1.4424999999999999
20
0.0675
11
1.3774999999999999
21
0.0675
0
LINE
8
BLACK
6
CONTINUOUS
10
1.3774999999999999
20
0.0675
11
1.3774999999999999
21
0.1325
0
LINE
8
BLACK
6
CONTINUOUS
10
1.3774999999999999
20
0.1325
11
1.4424999999999999
21
0.1325
0
LINE
8
BLACK
6
CONTINUOUS
10
1.4424999999999999
20
0.1325
11
1.4424999999999999
21
0.0675
0
LINE
8
BLACK
6
CONTINUOUS
10
1.5425
20
0.0675
11
1.4775
21
0.0675
0
LINE
8
BLACK
6
CONTINUOUS
10
1.4775
20
0.0675
11
1.4775
21
0.1325
0
LINE
8
BLACK
6
CONTINUOUS
10
1.4775
20
0.1325
11
1.5425
21
0.1325
0
LINE
8
BLACK
6
CONTINUOUS
10
1.5425
20
0.1325
11
1.5425
21
0.0675
0
LINE
8
BLACK
6
CONTINUOUS
10
0.2205096456692913
20
0.3163158661417323
11
0.2338744094488189
21
0.3131483858267716
0
LINE
8
BLACK
6
CONTINUOUS
10
0.2338744094488189
20
0.3131483858267716
11
0.246781062992126
21
0.3084507086614173
0
LINE
8
BLACK
6
CONTINUOUS
10
0.246781062992126
20
0.3084507086614173
11
0.2590551181102362
21
0.3022864566929134
0
LINE
8
BLACK
6
CONTINUOUS
10
0.2590551181102362
20
0.3022864566929134
11
0.2705305511811024
21
0.2947389763779528
0
LINE
8
BLACK
6
CONTINUOUS
10
0.2705305511811024
20
0.2947389763779528
11
0.2810521653543307
21
0.2859102755905512
0
LINE
8
BLACK
6
CONTINUOUS
10
0.2810521653543307
20
0.2859102755905512
11
0.2904776771653543
21
0.2759198031496063
0
LINE
8
BLACK
6
CONTINUOUS
10
0.2904776771653543
20
0.2759198031496063
11
0.2986796456692913
21
0.2649026377952756
0
LINE
8
BLACK
6
CONTINUOUS
10
0.2986796456692913
20
0.2649026377952756
11
0.3055471653543307
21
0.2530077952755905
0
LINE
8
BLACK
6
CONTINUOUS
10
0.3055471653543307
20
0.2530077952755905
11
0.3109873228346456
21
0.240396062992126
0
LINE
8
BLACK
6
CONTINUOUS
10
0.3109873228346456
20
0.240396062992126
11
0.3149265748031496
21
0.2272381102362205
0
LINE
8
BLACK
6
CONTINUOUS
10
0.3149265748031496
20
0.2272381102362205
11
0.3173116141732283
21
0.2137117716535433
0
LINE
8
BLACK
6
CONTINUOUS
10
0.3173116141732283
20
0.2137117716535433
11
0.3181102362204724
21
0.2
0
LINE
8
BLACK
6
CONTINUOUS
10
0.3181102362204724
20
0.2
11
0.3173116141732283
21
0.1862882283464567
0
LINE
8
BLACK
6
CONTINUOUS
10
0.3173116141732283
20
0.1862882283464567
11
0.3149265748031496
21
0.1727618897637795
0
LINE
8
BLACK
6
CONTINUOUS
10
0.3149265748031496
20
0.1727618897637795
11
0.3109873228346456
21
0.159603937007874
0
LINE
8
BLACK
6
CONTINUOUS
10
0.3109873228346456
20
0.159603937007874
11
0.3055471653543307
21
0.1469922047244094
0
LINE
8
BLACK
6
CONTINUOUS
10
0.3055471653543307
20
0.1469922047244094
11
0.2986796456692913
21
0.1350973622047244
0
LINE
8
BLACK
6
CONTINUOUS
10
0.2986796456692913
20
0.1350973622047244
11
0.2904776771653543
21
0.1240801968503937
0
LINE
8
BLACK
6
CONTINUOUS
10
0.2904776771653543
20
0.1240801968503937
11
0.2810521653543307
21
0.1140897244094488
0
LINE
8
BLACK
6
CONTINUOUS
10
0.2810521653543307
20
0.1140897244094488
11
0.2705305511811024
21
0.1052610236220472
0
LINE
8
BLACK
6
CONTINUOUS
10
0.2705305511811024
20
0.1052610236220472
11
0.2590551181102362
21
0.0977135433070866
0
LINE
8
BLACK
6
CONTINUOUS
10
0.2590551181102362
20
0.0977135433070866
11
0.246781062992126
21
0.0915492913385827
0
LINE
8
BLACK
6
CONTINUOUS
10
0.246781062992126
20
0.0915492913385827
11
0.2338744094488189
21
0.0868516141732283
0
LINE
8
BLACK
6
CONTINUOUS
10
0.2338744094488189
20
0.0868516141732283
11
0.2205096456692913
21
0.0836841338582677
0
LINE
8
BLACK
6
CONTINUOUS
10
0.2205096456692913
20
0.0836841338582677
11
0.2068674803149606
21
0.0820896062992126
0
LINE
8
BLACK
6
CONTINUOUS
10
0.2068674803149606
20
0.0820896062992126
11
0.1931325196850394
21
0.0820896062992126
0
LINE
8
BLACK
6
CONTINUOUS
10
0.1931325196850394
20
0.0820896062992126
11
0.1794903543307086
21
0.0836841338582677
0
LINE
8
BLACK
6
CONTINUOUS
10
0.1794903543307086
20
0.0836841338582677
11
0.1661255905511811
21
0.0868516141732283
0
LINE
8
BLACK
6
CONTINUOUS
10
0.1661255905511811
20
0.0868516141732283
11
0.153218937007874
21
0.0915492913385827
0
LINE
8
BLACK
6
CONTINUOUS
10
0.153218937007874
20
0.0915492913385827
11
0.1409448818897638
21
0.0977135433070866
0
LINE
8
BLACK
6
CONTINUOUS
10
0.1409448818897638
20
0.0977135433070866
11
0.1294694488188976
21
0.1052610236220472
0
LINE
8
BLACK
6
CONTINUOUS
10
0.1294694488188976
20
0.1052610236220472
11
0.1189478346456693
21
0.1140897244094488
0
LINE
8
BLACK
6
CONTINUOUS
10
0.1189478346456693
20
0.1140897244094488
11
0.1095223228346457
21
0.1240801968503937
0
LINE
8
BLACK
6
CONTINUOUS
10
0.1095223228346457
20
0.1240801968503937
11
0.1013203543307087
21
0.1350973622047244
0
LINE
8
BLACK
6
CONTINUOUS
10
0.1013203543307087
20
0.1350973622047244
11
0.0944528346456693
21
0.1469922047244094
0
LINE
8
BLACK
6
CONTINUOUS
10
0.0944528346456693
20
0.1469922047244094
11
0.0890126771653543
21
0.159603937007874
0
LINE
8
BLACK
6
CONTINUOUS
10
0.0890126771653543
20
0.159603937007874
11
0.0850734251968504
21
0.1727618897637795
0
LINE
8
BLACK
6
CONTINUOUS
10
0.0850734251968504
20
0.1727618897637795
11
0.0826883858267717
21
0.1862882283464567
0
LINE
8
BLACK
6
CONTINUOUS
10
0.0826883858267717
20
0.1862882283464567
11
0.0818897637795276
21
0.2
0
LINE
8
BLACK
6
CONTINUOUS
10
0.0818897637795276
20
0.2
11
0.0826883858267717
21
0.2137117716535433
0
LINE
8
BLACK
6
CONTINUOUS
10
0.0826883858267717
20
0.2137117716535433
11
0.0850734251968504
21
0.2272381102362205
0
LINE
8
BLACK
6
CONTINUOUS
10
0.0850734251968504
20
0.2272381102362205
11
0.0890126771653543
21
0.240396062992126
0
LINE
8
BLACK
6
CONTINUOUS
10
0.0890126771653543
20
0.240396062992126
11
0.0944528346456693
21
0.2530077952755905
0
LINE
8
BLACK
6
CONTINUOUS
10
0.0944528346456693
20
0.2530077952755905
11
0.1013203543307087
21
0.2649026377952756
0
LINE
8
BLACK
6
CONTINUOUS
10
0.1013203543307087
20
0.2649026377952756
11
0.1095223228346457
21
0.2759198031496063
0
LINE
8
BLACK
6
CONTINUOUS
10
0.1095223228346457
20
0.2759198031496063
11
0.1189478346456693
21
0.2859102755905512
0
LINE
8
BLACK
6
CONTINUOUS
10
0.1189478346456693
20
0.2859102755905512
11
0.1294694488188976
21
0.2947389763779528
0
LINE
8
BLACK
6
CONTINUOUS
10
0.1294694488188976
20
0.2947389763779528
11
0.1409448818897638
21
0.3022864566929134
0
LINE
8
BLACK
6
CONTINUOUS
10
0.1409448818897638
20
0.3022864566929134
11
0.153218937007874
21
0.3084507086614173
0
LINE
8
BLACK
6
CONTINUOUS
10
0.153218937007874
20
0.3084507086614173
11
0.1661255905511811
21
0.3131483858267716
0
LINE
8
BLACK
6
CONTINUOUS
10
0.1661255905511811
20
0.3131483858267716
11
0.1794903543307086
21
0.3163158661417323
0
LINE
8
BLACK
6
CONTINUOUS
10
0.1794903543307086
20
0.3163158661417323
11
0.1931325196850394
21
0.3179103937007874
0
LINE
8
BLACK
6
CONTINUOUS
10
0.1931325196850394
20
0.3179103937007874
11
0.2068674803149606
21
0.3179103937007874
0
LINE
8
BLACK
6
CONTINUOUS
10
0.2068674803149606
20
0.3179103937007874
11
0.2205096456692913
21
0.3163158661417323
0
LINE
8
BLACK
6
CONTINUOUS
10
1.8205096456692913
20
0.3163158661417323
11
1.8338744094488189
21
0.3131483858267716
0
LINE
8
BLACK
6
CONTINUOUS
10
1.8338744094488189
20
0.3131483858267716
11
1.846781062992126
21
0.3084507086614173
0
LINE
8
BLACK
6
CONTINUOUS
10
1.846781062992126
20
0.3084507086614173
11
1.8590551181102362
21
0.3022864566929134
0
LINE
8
BLACK
6
CONTINUOUS
10
1.8590551181102362
20
0.3022864566929134
11
1.8705305511811023
21
0.2947389763779528
0
LINE
8
BLACK
6
CONTINUOUS
10
1.8705305511811023
20
0.2947389763779528
11
1.8810521653543306
21
0.2859102755905512
0
LINE
8
BLACK
6
CONTINUOUS
10
1.8810521653543306
20
0.2859102755905512
11
1.8904776771653542
21
0.2759198031496063
0
LINE
8
BLACK
6
CONTINUOUS
10
1.8904776771653542
20
0.2759198031496063
11
1.8986796456692914
21
0.2649026377952756
0
LINE
8
BLACK
6
CONTINUOUS
10
1.8986796456692914
20
0.2649026377952756
11
1.9055471653543308
21
0.2530077952755905
0
LINE
8
BLACK
6
CONTINUOUS
10
1.9055471653543308
20
0.2530077952755905
11
1.9109873228346457
21
0.240396062992126
0
LINE
8
BLACK
6
CONTINUOUS
10
1.9109873228346457
20
0.240396062992126
11
1.9149265748031497
21
0.2272381102362205
0
LINE
8
BLACK
6
CONTINUOUS
10
1.9149265748031497
20
0.2272381102362205
11
1.9173116141732283
21
0.2137117716535433
0
LINE
8
BLACK
6
CONTINUOUS
10
1.9173116141732283
20
0.2137117716535433
11
1.9181102362204725
21
0.2
0
LINE
8
BLACK
6
CONTINUOUS
10
1.9181102362204725
20
0.2
11
1.9173116141732283
21
0.1862882283464567
0
LINE
8
BLACK
6
CONTINUOUS
10
1.9173116141732283
20
0.1862882283464567
11
1.9149265748031497
21
0.1727618897637795
0
LINE
8
BLACK
6
CONTINUOUS
10
1.9149265748031497
20
0.1727618897637795
11
1.9109873228346457
21
0.159603937007874
0
LINE
8
BLACK
6
CONTINUOUS
10
1.9109873228346457
20
0.159603937007874
11
1.9055471653543308
21
0.1469922047244094
0
LINE
8
BLACK
6
CONTINUOUS
10
1.9055471653543308
20
0.1469922047244094
11
1.8986796456692914
21
0.1350973622047244
0
LINE
8
BLACK
6
CONTINUOUS
10
1.8986796456692914
20
0.1350973622047244
11
1.8904776771653542
21
0.1240801968503937
0
LINE
8
BLACK
6
CONTINUOUS
10
1.8904776771653542
20
0.1240801968503937
11
1.8810521653543306
21
0.1140897244094488
0
LINE
8
BLACK
6
CONTINUOUS
10
1.8810521653543306
20
0.1140897244094488
11
1.8705305511811023
21
0.1052610236220472
0
LINE
8
BLACK
6
CONTINUOUS
10
1.8705305511811023
20
0.1052610236220472
11
1.8590551181102362
21
0.0977135433070866
0
LINE
8
BLACK
6
CONTINUOUS
10
1.8590551181102362
20
0.0977135433070866
11
1.846781062992126
21
0.0915492913385827
0
LINE
8
BLACK
6
CONTINUOUS
10
1.846781062992126
20
0.0915492913385827
11
1.8338744094488189
21
0.0868516141732283
0
LINE
8
BLACK
6
CONTINUOUS
10
1.8338744094488189
20
0.0868516141732283
11
1.8205096456692913
21
0.0836841338582677
0
LINE
8
BLACK
6
CONTINUOUS
10
1.8205096456692913
20
0.0836841338582677
11
1.8068674803149607
21
0.0820896062992126
0
LINE
8
BLACK
6
CONTINUOUS
10
1.8068674803149607
20
0.0820896062992126
11
1.7931325196850394
21
0.0820896062992126
0
LINE
8
BLACK
6
CONTINUOUS
10
1.7931325196850394
20
0.0820896062992126
11
1.7794903543307086
21
0.0836841338582677
0
LINE
8
BLACK
6
CONTINUOUS
10
1.7794903543307086
20
0.0836841338582677
11
1.766125590551181
21
0.0868516141732283
0
LINE
8
BLACK
6
CONTINUOUS
10
1.766125590551181
20
0.0868516141732283
11
1.7532189370078739
21
0.0915492913385827
0
LINE
8
BLACK
6
CONTINUOUS
10
1.7532189370078739
20
0.0915492913385827
11
1.7409448818897637
21
0.0977135433070866
0
LINE
8
BLACK
6
CONTINUOUS
10
1.7409448818897637
20
0.0977135433070866
11
1.7294694488188975
21
0.1052610236220472
0
LINE
8
BLACK
6
CONTINUOUS
10
1.7294694488188975
20
0.1052610236220472
11
1.7189478346456692
21
0.1140897244094488
0
LINE
8
BLACK
6
CONTINUOUS
10
1.7189478346456692
20
0.1140897244094488
11
1.7095223228346457
21
0.1240801968503937
0
LINE
8
BLACK
6
CONTINUOUS
10
1.7095223228346457
20
0.1240801968503937
11
1.7013203543307087
21
0.1350973622047244
0
LINE
8
BLACK
6
CONTINUOUS
10
1.7013203543307087
20
0.1350973622047244
11
1.6944528346456693
21
0.1469922047244094
0
LINE
8
BLACK
6
CONTINUOUS
10
1.6944528346456693
20
0.1469922047244094
11
1.6890126771653542
21
0.159603937007874
0
LINE
8
BLACK
6
CONTINUOUS
10
1.6890126771653542
20
0.159603937007874
11
1.6850734251968504
21
0.1727618897637795
0
LINE
8
BLACK
6
CONTINUOUS
10
1.6850734251968504
20
0.1727618897637795
11
1.6826883858267716
21
0.1862882283464567
0
LINE
8
BLACK
6
CONTINUOUS
10
1.6826883858267716
20
0.1862882283464567
11
1.6818897637795276
21
0.2
0
LINE
8
BLACK
6
CONTINUOUS
10
1.6818897637795276
20
0.2
11
1.6826883858267716
21
0.2137117716535433
0
LINE
8
BLACK
6
CONTINUOUS
10
1.6826883858267716
20
0.2137117716535433
11
1.6850734251968504
21
0.2272381102362205
0
LINE
8
BLACK
6
CONTINUOUS
10
1.6850734251968504
20
0.2272381102362205
11
1.6890126771653542
21
0.240396062992126
0
LINE
8
BLACK
6
CONTINUOUS
10
1.6890126771653542
20
0.240396062992126
11
1.6944528346456693
21
0.2530077952755905
0
LINE
8
BLACK
6
CONTINUOUS
10
1.6944528346456693
20
0.2530077952755905
11
1.7013203543307087
21
0.2649026377952756
0
LINE
8
BLACK
6
CONTINUOUS
10
1.7013203543307087
20
0.2649026377952756
11
1.7095223228346457
21
0.2759198031496063
0
LINE
8
BLACK
6
CONTINUOUS
10
1.7095223228346457
20
0.2759198031496063
11
1.7189478346456692
21
0.2859102755905512
0
LINE
8
BLACK
6
CONTINUOUS
10
1.7189478346456692
20
0.2859102755905512
11
1.7294694488188975
21
0.2947389763779528
0
LINE
8
BLACK
6
CONTINUOUS
10
1.7294694488188975
20
0.2947389763779528
11
1.7409448818897637
21
0.3022864566929134
0
LINE
8
BLACK
6
CONTINUOUS
10
1.7409448818897637
20
0.3022864566929134
11
1.7532189370078739
21
0.3084507086614173
0
LINE
8
BLACK
6
CONTINUOUS
10
1.7532189370078739
20
0.3084507086614173
11
1.766125590551181
21
0.3131483858267716
0
LINE
8
BLACK
6
CONTINUOUS
10
1.766125590551181
20
0.3131483858267716
11
1.7794903543307086
21
0.3163158661417323
0
LINE
8
BLACK
6
CONTINUOUS
10
1.7794903543307086
20
0.3163158661417323
11
1.7931325196850394
21
0.3179103937007874
0
LINE
8
BLACK
6
CONTINUOUS
10
1.7931325196850394
20
0.3179103937007874
11
1.8068674803149607
21
0.3179103937007874
0
LINE
8
BLACK
6
CONTINUOUS
10
1.8068674803149607
20
0.3179103937007874
11
1.8205096456692913
21
0.3163158661417323
0
LINE
8
BLACK
6
CONTINUOUS
10
1.1425000000000001
20
0.1675
11
1.0774999999999999
21
0.1675
0
LINE
8
BLACK
6
CONTINUOUS
10
1.0774999999999999
20
0.1675
11
1.0774999999999999
21
0.2325
0
LINE
8
BLACK
6
CONTINUOUS
10
1.0774999999999999
20
0.2325
11
1.1425000000000001
21
0.2325
0
LINE
8
BLACK
6
CONTINUOUS
10
1.1425000000000001
20
0.2325
11
1.1425000000000001
21
0.1675
0
LINE
8
BLACK
6
CONTINUOUS
10
1.2424999999999999
20
0.1675
11
1.1775
21
0.1675
0
LINE
8
BLACK
6
CONTINUOUS
10
1.1775
20
0.1675
11
1.1775
21
0.2325
0
LINE
8
BLACK
6
CONTINUOUS
10
1.1775
20
0.2325
11
1.2424999999999999
21
0.2325
0
LINE
8
BLACK
6
CONTINUOUS
10
1.2424999999999999
20
0.2325
11
1.2424999999999999
21
0.1675
0
LINE
8
BLACK
6
CONTINUOUS
10
1.3425
20
0.1675
11
1.2775000000000001
21
0.1675
0
LINE
8
BLACK
6
CONTINUOUS
10
1.2775000000000001
20
0.1675
11
1.2775000000000001
21
0.2325
0
LINE
8
BLACK
6
CONTINUOUS
10
1.2775000000000001
20
0.2325
11
1.3425
21
0.2325
0
LINE
8
BLACK
6
CONTINUOUS
10
1.3425
20
0.2325
11
1.3425
21
0.1675
0
LINE
8
BLACK
6
CONTINUOUS
10
1.4424999999999999
20
0.1675
11
1.3774999999999999
21
0.1675
0
LINE
8
BLACK
6
CONTINUOUS
10
1.3774999999999999
20
0.1675
11
1.3774999999999999
21
0.2325
0
LINE
8
BLACK
6
CONTINUOUS
10
1.3774999999999999
20
0.2325
11
1.4424999999999999
21
0.2325
0
LINE
8
BLACK
6
CONTINUOUS
10
1.4424999999999999
20
0.2325
11
1.4424999999999999
21
0.1675
0
LINE
8
BLACK
6
CONTINUOUS
10
1.5425
20
0.1675
11
1.4775
21
0.1675
0
LINE
8
BLACK
6
CONTINUOUS
10
1.4775
20
0.1675
11
1.4775
21
0.2325
0
LINE
8
BLACK
6
CONTINUOUS
10
1.4775
20
0.2325
11
1.5425
21
0.2325
0
LINE
8
BLACK
6
CONTINUOUS
10
1.5425
20
0.2325
11
1.5425
21
0.1675
0
LINE
8
BLACK
6
CONTINUOUS
10
0.5657
20
0.2485
11
0.5007
21
0.2485
0
LINE
8
BLACK
6
CONTINUOUS
10
0.5007
20
0.2485
11
0.5007
21
0.3135
0
LINE
8
BLACK
6
CONTINUOUS
10
0.5007
20
0.3135
11
0.5657
21
0.3135
0
LINE
8
BLACK
6
CONTINUOUS
10
0.5657
20
0.3135
11
0.5657
21
0.2485
0
LINE
8
BLACK
6
CONTINUOUS
10
1.1274999999999999
20
0.285
11
1.0725
21
0.285
0
LINE
8
BLACK
6
CONTINUOUS
10
1.0725
20
0.285
11
1.0725
21
0.32
0
LINE
8
BLACK
6
CONTINUOUS
10
1.0725
20
0.32
11
1.1274999999999999
21
0.32
0
LINE
8
BLACK
6
CONTINUOUS
10
1.1274999999999999
20
0.32
11
1.1274999999999999
21
0.285
0
LINE
8
BLACK
6
CONTINUOUS
10
1.2175
20
0.285
11
1.1624999999999999
21
0.285
0
LINE
8
BLACK
6
CONTINUOUS
10
1.1624999999999999
20
0.285
11
1.1624999999999999
21
0.32
0
LINE
8
BLACK
6
CONTINUOUS
10
1.1624999999999999
20
0.32
11
1.2175
21
0.32
0
LINE
8
BLACK
6
CONTINUOUS
10
1.2175
20
0.32
11
1.2175
21
0.285
0
LINE
8
BLACK
6
CONTINUOUS
10
1.2974999999999999
20
0.285
11
1.2424999999999999
21
0.285
0
LINE
8
BLACK
6
CONTINUOUS
10
1.2424999999999999
20
0.285
11
1.2424999999999999
21
0.32
0
LINE
8
BLACK
6
CONTINUOUS
10
1.2424999999999999
20
0.32
11
1.2974999999999999
21
0.32
0
LINE
8
BLACK
6
CONTINUOUS
10
1.2974999999999999
20
0.32
11
1.2974999999999999
21
0.285
0
LINE
8
BLACK
6
CONTINUOUS
10
1.4399999999999999
20
0.3125
11
1.405
21
0.3125
0
LINE
8
BLACK
6
CONTINUOUS
10
1.405
20
0.3125
11
1.405
21
0.3675
0
LINE
8
BLACK
6
CONTINUOUS
10
1.405
20
0.3675
11
1.4399999999999999
21
0.3675
0
LINE
8
BLACK
6
CONTINUOUS
10
1.4399999999999999
20
0.3675
11
1.4399999999999999
21
0.3125
0
LINE
8
BLACK
6
CONTINUOUS
10
1.5149999999999999
20
0.3125
11
1.48
21
0.3125
0
LINE
8
BLACK
6
CONTINUOUS
10
1.48
20
0.3125
11
1.48
21
0.3675
0
LINE
8
BLACK
6
CONTINUOUS
10
1.48
20
0.3675
11
1.5149999999999999
21
0.3675
0
LINE
8
BLACK
6
CONTINUOUS
10
1.5149999999999999
20
0.3675
11
1.5149999999999999
21
0.3125
0
LINE
8
BLACK
6
CONTINUOUS
10
1.6475
20
0.315
11
1.5925
21
0.315
0
LINE
8
BLACK
6
CONTINUOUS
10
1.5925
20
0.315
11
1.5925
21
0.35
0
LINE
8
BLACK
6
CONTINUOUS
10
1.5925
20
0.35
11
1.6475
21
0.35
0
LINE
8
BLACK
6
CONTINUOUS
10
1.6475
20
0.35
11
1.6475
21
0.315
0
LINE
8
BLACK
6
CONTINUOUS
10
1.1274999999999999
20
0.36
11
1.0725
21
0.36
0
LINE
8
BLACK
6
CONTINUOUS
10
1.0725
20
0.36
11
1.0725
21
0.395
0
LINE
8
BLACK
6
CONTINUOUS
10
1.0725
20
0.395
11
1.1274999999999999
21
0.395
0
LINE
8
BLACK
6
CONTINUOUS
10
1.1274999999999999
20
0.395
11
1.1274999999999999
21
0.36
0
LINE
8
BLACK
6
CONTINUOUS
10
1.2175
20
0.36
11
1.1624999999999999
21
0.36
0
LINE
8
BLACK
6
CONTINUOUS
10
1.1624999999999999
20
0.36
11
1.1624999999999999
21
0.395
0
LINE
8
BLACK
6
CONTINUOUS
10
1.1624999999999999
20
0.395
11
1.2175
21
0.395
0
LINE
8
BLACK
6
CONTINUOUS
10
1.2175
20
0.395
11
1.2175
21
0.36
0
LINE
8
BLACK
6
CONTINUOUS
10
1.2974999999999999
20
0.36
11
1.2424999999999999
21
0.36
0
LINE
8
BLACK
6
CONTINUOUS
10
1.2424999999999999
20
0.36
11
1.2424999999999999
21
0.395
0
LINE
8
BLACK
6
CONTINUOUS
10
1.2424999999999999
20
0.395
11
1.2974999999999999
21
0.395
0
LINE
8
BLACK
6
CONTINUOUS
10
1.2974999999999999
20
0.395
11
1.2974999999999999
21
0.36
0
LINE
8
BLACK
6
CONTINUOUS
10
1.7925
20
0.3875
11
1.7275
21
0.3875
0
LINE
8
BLACK
6
CONTINUOUS
10
1.7275
20
0.3875
11
1.7275
21
0.4525
0
LINE
8
BLACK
6
CONTINUOUS
10
1.7275
20
0.4525
11
1.7925
21
0.4525
0
LINE
8
BLACK
6
CONTINUOUS
10
1.7925
20
0.4525
11
1.7925
21
0.3875
0
LINE
8
BLACK
6
CONTINUOUS
10
1.8924999999999998
20
0.3875
11
1.8274999999999999
21
0.3875
0
LINE
8
BLACK
6
CONTINUOUS
10
1.8274999999999999
20
0.3875
11
1.8274999999999999
21
0.4525
0
LINE
8
BLACK
6
CONTINUOUS
10
1.8274999999999999
20
0.4525
11
1.8924999999999998
21
0.4525
0
LINE
8
BLACK
6
CONTINUOUS
10
1.8924999999999998
20
0.4525
11
1.8924999999999998
21
0.3875
0
LINE
8
BLACK
6
CONTINUOUS
10
1.6475
20
0.39
11
1.5925
21
0.39
0
LINE
8
BLACK
6
CONTINUOUS
10
1.5925
20
0.39
11
1.5925
21
0.425
0
LINE
8
BLACK
6
CONTINUOUS
10
1.5925
20
0.425
11
1.6475
21
0.425
0
LINE
8
BLACK
6
CONTINUOUS
10
1.6475
20
0.425
11
1.6475
21
0.39
0
LINE
8
BLACK
6
CONTINUOUS
10
1.5274999999999999
20
0.415
11
1.4724999999999999
21
0.415
0
LINE
8
BLACK
6
CONTINUOUS
10
1.4724999999999999
20
0.415
11
1.4724999999999999
21
0.45
0
LINE
8
BLACK
6
CONTINUOUS
10
1.4724999999999999
20
0.45
11
1.5274999999999999
21
0.45
0
LINE
8
BLACK
6
CONTINUOUS
10
1.5274999999999999
20
0.45
11
1.5274999999999999
21
0.415
0
LINE
8
BLACK
6
CONTINUOUS
10
1.1675
20
0.435
11
1.1225000000000001
21
0.435
0
LINE
8
BLACK
6
CONTINUOUS
10
1.1225000000000001
20
0.435
11
1.1225000000000001
21
0.455
0
LINE
8
BLACK
6
CONTINUOUS
10
1.1225000000000001
20
0.455
11
1.1675
21
0.455
0
LINE
8
BLACK
6
CONTINUOUS
10
1.1675
20
0.455
11
1.1675
21
0.435
0
LINE
8
BLACK
6
CONTINUOUS
10
1.4175
20
0.435
11
1.3725000000000001
21
0.435
0
LINE
8
BLACK
6
CONTINUOUS
10
1.3725000000000001
20
0.435
11
1.3725000000000001
21
0.455
0
LINE
8
BLACK
6
CONTINUOUS
10
1.3725000000000001
20
0.455
11
1.4175
21
0.455
0
LINE
8
BLACK
6
CONTINUOUS
10
1.4175
20
0.455
11
1.4175
21
0.435
0
LINE
8
BLACK
6
CONTINUOUS
10
0.5657
20
0.4485
11
0.5007
21
0.4485
0
LINE
8
BLACK
6
CONTINUOUS
10
0.5007
20
0.4485
11
0.5007
21
0.5135
0
LINE
8
BLACK
6
CONTINUOUS
10
0.5007
20
0.5135
11
0.5657
21
0.5135
0
LINE
8
BLACK
6
CONTINUOUS
10
0.5657
20
0.5135
11
0.5657
21
0.4485
0
LINE
8
BLACK
6
CONTINUOUS
10
1.0149999999999999
20
0.4575
11
0.98
21
0.4575
0
LINE
8
BLACK
6
CONTINUOUS
10
0.98
20
0.4575
11
0.98
21
0.5125
0
LINE
8
BLACK
6
CONTINUOUS
10
0.98
20
0.5125
11
1.0149999999999999
21
0.5125
0
LINE
8
BLACK
6
CONTINUOUS
10
1.0149999999999999
20
0.5125
11
1.0149999999999999
21
0.4575
0
LINE
8
BLACK
6
CONTINUOUS
10
1.0900000000000001
20
0.4575
11
1.0549999999999999
21
0.4575
0
LINE
8
BLACK
6
CONTINUOUS
10
1.0549999999999999
20
0.4575
11
1.0549999999999999
21
0.5125
0
LINE
8
BLACK
6
CONTINUOUS
10
1.0549999999999999
20
0.5125
11
1.0900000000000001
21
0.5125
0
LINE
8
BLACK
6
CONTINUOUS
10
1.0900000000000001
20
0.5125
11
1.0900000000000001
21
0.4575
0
LINE
8
BLACK
6
CONTINUOUS
10
1.1675
20
0.485
11
1.1225000000000001
21
0.485
0
LINE
8
BLACK
6
CONTINUOUS
10
1.1225000000000001
20
0.485
11
1.1225000000000001
21
0.505
0
LINE
8
BLACK
6
CONTINUOUS
10
1.1225000000000001
20
0.505
11
1.1675
21
0.505
0
LINE
8
BLACK
6
CONTINUOUS
10
1.1675
20
0.505
11
1.1675
21
0.485
0
LINE
8
BLACK
6
CONTINUOUS
10
1.4175
20
0.485
11
1.3725000000000001
21
0.485
0
LINE
8
BLACK
6
CONTINUOUS
10
1.3725000000000001
20
0.485
11
1.3725000000000001
21
0.505
0
LINE
8
BLACK
6
CONTINUOUS
10
1.3725000000000001
20
0.505
11
1.4175
21
0.505
0
LINE
8
BLACK
6
CONTINUOUS
10
1.4175
20
0.505
11
1.4175
21
0.485
0
LINE
8
BLACK
6
CONTINUOUS
10
0.1825
20
0.4875
11
0.1175
21
0.4875
0
LINE
8
BLACK
6
CONTINUOUS
10
0.1175
20
0.4875
11
0.1175
21
0.5525
0
LINE
8
BLACK
6
CONTINUOUS
10
0.1175
20
0.5525
11
0.1825
21
0.5525
0
LINE
8
BLACK
6
CONTINUOUS
10
0.1825
20
0.5525
11
0.1825
21
0.4875
0
LINE
8
BLACK
6
CONTINUOUS
10
0.2825
20
0.4875
11
0.2175
21
0.4875
0
LINE
8
BLACK
6
CONTINUOUS
10
0.2175
20
0.4875
11
0.2175
21
0.5525
0
LINE
8
BLACK
6
CONTINUOUS
10
0.2175
20
0.5525
11
0.2825
21
0.5525
0
LINE
8
BLACK
6
CONTINUOUS
10
0.2825
20
0.5525
11
0.2825
21
0.4875
0
LINE
8
BLACK
6
CONTINUOUS
10
1.7925
20
0.4875
11
1.7275
21
0.4875
0
LINE
8
BLACK
6
CONTINUOUS
10
1.7275
20
0.4875
11
1.7275
21
0.5525
0
LINE
8
BLACK
6
CONTINUOUS
10
1.7275
20
0.5525
11
1.7925
21
0.5525
0
LINE
8
BLACK
6
CONTINUOUS
10
1.7925
20
0.5525
11
1.7925
21
0.4875
0
LINE
8
BLACK
6
CONTINUOUS
10
1.8924999999999998
20
0.4875
11
1.8274999999999999
21
0.4875
0
LINE
8
BLACK
6
CONTINUOUS
10
1.8274999999999999
20
0.4875
11
1.8274999999999999
21
0.5525
0
LINE
8
BLACK
6
CONTINUOUS
10
1.8274999999999999
20
0.5525
11
1.8924999999999998
21
0.5525
0
LINE
8
BLACK
6
CONTINUOUS
10
1.8924999999999998
20
0.5525
11
1.8924999999999998
21
0.4875
0
LINE
8
BLACK
6
CONTINUOUS
10
1.5274999999999999
20
0.49
11
1.4724999999999999
21
0.49
0
LINE
8
BLACK
6
CONTINUOUS
10
1.4724999999999999
20
0.49
11
1.4724999999999999
21
0.525
0
LINE
8
BLACK
6
CONTINUOUS
10
1.4724999999999999
20
0.525
11
1.5274999999999999
21
0.525
0
LINE
8
BLACK
6
CONTINUOUS
10
1.5274999999999999
20
0.525
11
1.5274999999999999
21
0.49
0
LINE
8
BLACK
6
CONTINUOUS
10
1.6775
20
0.495
11
1.6225000000000001
21
0.495
0
LINE
8
BLACK
6
CONTINUOUS
10
1.6225000000000001
20
0.495
11
1.6225000000000001
21
0.53
0
LINE
8
BLACK
6
CONTINUOUS
10
1.6225000000000001
20
0.53
11
1.6775
21
0.53
0
LINE
8
BLACK
6
CONTINUOUS
10
1.6775
20
0.53
11
1.6775
21
0.495
0
LINE
8
BLACK
6
CONTINUOUS
10
0.7999999999999999
20
0.5024999999999999
11
0.765
21
0.5024999999999999
0
LINE
8
BLACK
6
CONTINUOUS
10
0.765
20
0.5024999999999999
11
0.765
21
0.5575
0
LINE
8
BLACK
6
CONTINUOUS
10
0.765
20
0.5575
11
0.7999999999999999
21
0.5575
0
LINE
8
BLACK
6
CONTINUOUS
10
0.7999999999999999
20
0.5575
11
0.7999999999999999
21
0.5024999999999999
0
LINE
8
BLACK
6
CONTINUOUS
10
0.875
20
0.5024999999999999
11
0.84
21
0.5024999999999999
0
LINE
8
BLACK
6
CONTINUOUS
10
0.84
20
0.5024999999999999
11
0.84
21
0.5575
0
LINE
8
BLACK
6
CONTINUOUS
10
0.84
20
0.5575
11
0.875
21
0.5575
0
LINE
8
BLACK
6
CONTINUOUS
10
0.875
20
0.5575
11
0.875
21
0.5024999999999999
0
LINE
8
BLACK
6
CONTINUOUS
10
1.1675
20
0.535
11
1.1225000000000001
21
0.535
0
LINE
8
BLACK
6
CONTINUOUS
10
1.1225000000000001
20
0.535
11
1.1225000000000001
21
0.5549999999999999
0
LINE
8
BLACK
6
CONTINUOUS
10
1.1225000000000001
20
0.5549999999999999
11
1.1675
21
0.5549999999999999
0
LINE
8
BLACK
6
CONTINUOUS
10
1.1675
20
0.5549999999999999
11
1.1675
21
0.535
0
LINE
8
BLACK
6
CONTINUOUS
10
1.4175
20
0.535
11
1.3725000000000001
21
0.535
0
LINE
8
BLACK
6
CONTINUOUS
10
1.3725000000000001
20
0.535
11
1.3725000000000001
21
0.5549999999999999
0
LINE
8
BLACK
6
CONTINUOUS
10
1.3725000000000001
20
0.5549999999999999
11
1.4175
21
0.5549999999999999
0
LINE
8
BLACK
6
CONTINUOUS
10
1.4175
20
0.5549999999999999
11
1.4175
21
0.535
0
LINE
8
BLACK
6
CONTINUOUS
10
1.51
20
0.5625
11
1.4749999999999999
21
0.5625
0
LINE
8
BLACK
6
CONTINUOUS
10
1.4749999999999999
20
0.5625
11
1.4749999999999999
21
0.6174999999999999
0
LINE
8
BLACK
6
CONTINUOUS
10
1.4749999999999999
20
0.6174999999999999
11
1.51
21
0.6174999999999999
0
LINE
8
BLACK
6
CONTINUOUS
10
1.51
20
0.6174999999999999
11
1.51
21
0.5625
0
LINE
8
BLACK
6
CONTINUOUS
10
1.585
20
0.5625
11
1.55
21
0.5625
0
LINE
8
BLACK
6
CONTINUOUS
10
1.55
20
0.5625
11
1.55
21
0.6174999999999999
0
LINE
8
BLACK
6
CONTINUOUS
10
1.55
20
0.6174999999999999
11
1.585
21
0.6174999999999999
0
LINE
8
BLACK
6
CONTINUOUS
10
1.585
20
0.6174999999999999
11
1.585
21
0.5625
0
LINE
8
BLACK
6
CONTINUOUS
10
0.4025
20
0.5636
11
0.3475
21
0.5636
0
LINE
8
BLACK
6
CONTINUOUS
10
0.3475
20
0.5636
11
0.3475
21
0.5986
0
LINE
8
BLACK
6
CONTINUOUS
10
0.3475
20
0.5986
11
0.4025
21
0.5986
0
LINE
8
BLACK
6
CONTINUOUS
10
0.4025
20
0.5986
11
0.4025
21
0.5636
0
LINE
8
BLACK
6
CONTINUOUS
10
0.708
20
0.56675
11
0.6686
21
0.56675
0
LINE
8
BLACK
6
CONTINUOUS
10
0.6686
20
0.56675
11
0.6686
21
0.5982499999999999
0
LINE
8
BLACK
6
CONTINUOUS
10
0.6686
20
0.5982499999999999
11
0.708
21
0.5982499999999999
0
LINE
8
BLACK
6
CONTINUOUS
10
0.708
20
0.5982499999999999
11
0.708
21
0.56675
0
LINE
8
BLACK
6
CONTINUOUS
10
1.1027
20
0.5669999999999999
11
1.0477000000000001
21
0.5669999999999999
0
LINE
8
BLACK
6
CONTINUOUS
10
1.0477000000000001
20
0.5669999999999999
11
1.0477000000000001
21
0.602
0
LINE
8
BLACK
6
CONTINUOUS
10
1.0477000000000001
20
0.602
11
1.1027
21
0.602
0
LINE
8
BLACK
6
CONTINUOUS
10
1.1027
20
0.602
11
1.1027
21
0.5669999999999999
0
LINE
8
BLACK
6
CONTINUOUS
10
1.6775
20
0.57
11
1.6225000000000001
21
0.57
0
LINE
8
BLACK
6
CONTINUOUS
10
1.6225000000000001
20
0.57
11
1.6225000000000001
21
0.605
0
LINE
8
BLACK
6
CONTINUOUS
10
1.6225000000000001
20
0.605
11
1.6775
21
0.605
0
LINE
8
BLACK
6
CONTINUOUS
10
1.6775
20
0.605
11
1.6775
21
0.57
0
LINE
8
BLACK
6
CONTINUOUS
10
0.9461999999999999
20
0.5740999999999999
11
0.9189999999999999
21
0.5740999999999999
0
LINE
8
BLACK
6
CONTINUOUS
10
0.9189999999999999
20
0.5740999999999999
11
0.9189999999999999
21
0.6134999999999999
0
LINE
8
BLACK
6
CONTINUOUS
10
0.9189999999999999
20
0.6134999999999999
11
0.9461999999999999
21
0.6134999999999999
0
LINE
8
BLACK
6
CONTINUOUS
10
0.9461999999999999
20
0.6134999999999999
11
0.9461999999999999
21
0.5740999999999999
0
LINE
8
BLACK
6
CONTINUOUS
10
0.9836
20
0.5740999999999999
11
0.9564
21
0.5740999999999999
0
LINE
8
BLACK
6
CONTINUOUS
10
0.9564
20
0.5740999999999999
11
0.9564
21
0.6134999999999999
0
LINE
8
BLACK
6
CONTINUOUS
10
0.9564
20
0.6134999999999999
11
0.9836
21
0.6134999999999999
0
LINE
8
BLACK
6
CONTINUOUS
10
0.9836
20
0.6134999999999999
11
0.9836
21
0.5740999999999999
0
LINE
8
BLACK
6
CONTINUOUS
10
1.0209999999999999
20
0.5740999999999999
11
0.9938
21
0.5740999999999999
0
LINE
8
BLACK
6
CONTINUOUS
10
0.9938
20
0.5740999999999999
11
0.9938
21
0.6134999999999999
0
LINE
8
BLACK
6
CONTINUOUS
10
0.9938
20
0.6134999999999999
11
1.0209999999999999
21
0.6134999999999999
0
LINE
8
BLACK
6
CONTINUOUS
10
1.0209999999999999
20
0.6134999999999999
11
1.0209999999999999
21
0.5740999999999999
0
LINE
8
BLACK
6
CONTINUOUS
10
1.1675
20
0.585
11
1.1225000000000001
21
0.585
0
LINE
8
BLACK
6
CONTINUOUS
10
1.1225000000000001
20
0.585
11
1.1225000000000001
21
0.605
0
LINE
8
BLACK
6
CONTINUOUS
10
1.1225000000000001
20
0.605
11
1.1675
21
0.605
0
LINE
8
BLACK
6
CONTINUOUS
10
1.1675
20
0.605
11
1.1675
21
0.585
0
LINE
8
BLACK
6
CONTINUOUS
10
1.4175
20
0.585
11
1.3725000000000001
21
0.585
0
LINE
8
BLACK
6
CONTINUOUS
10
1.3725000000000001
20
0.585
11
1.3725000000000001
21
0.605
0
LINE
8
BLACK
6
CONTINUOUS
10
1.3725000000000001
20
0.605
11
1.4175
21
0.605
0
LINE
8
BLACK
6
CONTINUOUS
10
1.4175
20
0.605
11
1.4175
21
0.585
0
LINE
8
BLACK
6
CONTINUOUS
10
0.1825
20
0.5875
11
0.1175
21
0.5875
0
LINE
8
BLACK
6
CONTINUOUS
10
0.1175
20
0.5875
11
0.1175
21
0.6525
0
LINE
8
BLACK
6
CONTINUOUS
10
0.1175
20
0.6525
11
0.1825
21
0.6525
0
LINE
8
BLACK
6
CONTINUOUS
10
0.1825
20
0.6525
11
0.1825
21
0.5875
0
LINE
8
BLACK
6
CONTINUOUS
10
0.2825
20
0.5875
11
0.2175
21
0.5875
0
LINE
8
BLACK
6
CONTINUOUS
10
0.2175
20
0.5875
11
0.2175
21
0.6525
0
LINE
8
BLACK
6
CONTINUOUS
10
0.2175
20
0.6525
11
0.2825
21
0.6525
0
LINE
8
BLACK
6
CONTINUOUS
10
0.2825
20
0.6525
11
0.2825
21
0.5875
0
LINE
8
BLACK
6
CONTINUOUS
10
1.7925
20
0.5875
11
1.7275
21
0.5875
0
LINE
8
BLACK
6
CONTINUOUS
10
1.7275
20
0.5875
11
1.7275
21
0.6525
0
LINE
8
BLACK
6
CONTINUOUS
10
1.7275
20
0.6525
11
1.7925
21
0.6525
0
LINE
8
BLACK
6
CONTINUOUS
10
1.7925
20
0.6525
11
1.7925
21
0.5875
0
LINE
8
BLACK
6
CONTINUOUS
10
1.8924999999999998
20
0.5875
11
1.8274999999999999
21
0.5875
0
LINE
8
BLACK
6
CONTINUOUS
10
1.8274999999999999
20
0.5875
11
1.8274999999999999
21
0.6525
0
LINE
8
BLACK
6
CONTINUOUS
10
1.8274999999999999
20
0.6525
11
1.8924999999999998
21
0.6525
0
LINE
8
BLACK
6
CONTINUOUS
10
1.8924999999999998
20
0.6525
11
1.8924999999999998
21
0.5875
0
LINE
8
BLACK
6
CONTINUOUS
10
0.4882
20
0.5892999999999999
11
0.4532
21
0.5892999999999999
0
LINE
8
BLACK
6
CONTINUOUS
10
0.4532
20
0.5892999999999999
11
0.4532
21
0.6443
0
LINE
8
BLACK
6
CONTINUOUS
10
0.4532
20
0.6443
11
0.4882
21
0.6443
0
LINE
8
BLACK
6
CONTINUOUS
10
0.4882
20
0.6443
11
0.4882
21
0.5892999999999999
0
LINE
8
BLACK
6
CONTINUOUS
10
0.5636811023622047
20
0.5892999999999999
11
0.5286811023622047
21
0.5892999999999999
0
LINE
8
BLACK
6
CONTINUOUS
10
0.5286811023622047
20
0.5892999999999999
11
0.5286811023622047
21
0.6443
0
LINE
8
BLACK
6
CONTINUOUS
10
0.5286811023622047
20
0.6443
11
0.5636811023622047
21
0.6443
0
LINE
8
BLACK
6
CONTINUOUS
10
0.5636811023622047
20
0.6443
11
0.5636811023622047
21
0.5892999999999999
0
LINE
8
BLACK
6
CONTINUOUS
10
0.6214
20
0.60425
11
0.582
21
0.60425
0
LINE
8
BLACK
6
CONTINUOUS
10
0.582
20
0.60425
11
0.582
21
0.63575
0
LINE
8
BLACK
6
CONTINUOUS
10
0.582
20
0.63575
11
0.6214
21
0.63575
0
LINE
8
BLACK
6
CONTINUOUS
10
0.6214
20
0.63575
11
0.6214
21
0.60425
0
LINE
8
BLACK
6
CONTINUOUS
10
0.4025
20
0.6385999999999999
11
0.3475
21
0.6385999999999999
0
LINE
8
BLACK
6
CONTINUOUS
10
0.3475
20
0.6385999999999999
11
0.3475
21
0.6736
0
LINE
8
BLACK
6
CONTINUOUS
10
0.3475
20
0.6736
11
0.4025
21
0.6736
0
LINE
8
BLACK
6
CONTINUOUS
10
0.4025
20
0.6736
11
0.4025
21
0.6385999999999999
0
LINE
8
BLACK
6
CONTINUOUS
10
0.708
20
0.6417499999999999
11
0.6686
21
0.6417499999999999
0
LINE
8
BLACK
6
CONTINUOUS
10
0.6686
20
0.6417499999999999
11
0.6686
21
0.67325
0
LINE
8
BLACK
6
CONTINUOUS
10
0.6686
20
0.67325
11
0.708
21
0.67325
0
LINE
8
BLACK
6
CONTINUOUS
10
0.708
20
0.67325
11
0.708
21
0.6417499999999999
0
LINE
8
BLACK
6
CONTINUOUS
10
1.1027
20
0.642
11
1.0477000000000001
21
0.642
0
LINE
8
BLACK
6
CONTINUOUS
10
1.0477000000000001
20
0.642
11
1.0477000000000001
21
0.6769999999999999
0
LINE
8
BLACK
6
CONTINUOUS
10
1.0477000000000001
20
0.6769999999999999
11
1.1027
21
0.6769999999999999
0
LINE
8
BLACK
6
CONTINUOUS
10
1.1027
20
0.6769999999999999
11
1.1027
21
0.642
0
LINE
8
BLACK
6
CONTINUOUS
10
1.6775
20
0.645
11
1.6225000000000001
21
0.645
0
LINE
8
BLACK
6
CONTINUOUS
10
1.6225000000000001
20
0.645
11
1.6225000000000001
21
0.6799999999999999
0
LINE
8
BLACK
6
CONTINUOUS
10
1.6225000000000001
20
0.6799999999999999
11
1.6775
21
0.6799999999999999
0
LINE
8
BLACK
6
CONTINUOUS
10
1.6775
20
0.6799999999999999
11
1.6775
21
0.645
0
LINE
8
BLACK
6
CONTINUOUS
10
1.2949999999999999
20
0.6575
11
1.26
21
0.6575
0
LINE
8
BLACK
6
CONTINUOUS
10
1.26
20
0.6575
11
1.26
21
0.7125
0
LINE
8
BLACK
6
CONTINUOUS
10
1.26
20
0.7125
11
1.2949999999999999
21
0.7125
0
LINE
8
BLACK
6
CONTINUOUS
10
1.2949999999999999
20
0.7125
11
1.2949999999999999
21
0.6575
0
LINE
8
BLACK
6
CONTINUOUS
10
1.3699999999999999
20
0.6575
11
1.335
21
0.6575
0
LINE
8
BLACK
6
CONTINUOUS
10
1.335
20
0.6575
11
1.335
21
0.7125
0
LINE
8
BLACK
6
CONTINUOUS
10
1.335
20
0.7125
11
1.3699999999999999
21
0.7125
0
LINE
8
BLACK
6
CONTINUOUS
10
1.3699999999999999
20
0.7125
11
1.3699999999999999
21
0.6575
0
LINE
8
BLACK
6
CONTINUOUS
10
0.8724999999999999
20
0.665
11
0.8175
21
0.665
0
LINE
8
BLACK
6
CONTINUOUS
10
0.8175
20
0.665
11
0.8175
21
0.7
0
LINE
8
BLACK
6
CONTINUOUS
10
0.8175
20
0.7
11
0.8724999999999999
21
0.7
0
LINE
8
BLACK
6
CONTINUOUS
10
0.8724999999999999
20
0.7
11
0.8724999999999999
21
0.665
0
LINE
8
BLACK
6
CONTINUOUS
10
1.5874999999999999
20
0.6749999999999999
11
1.5325
21
0.6749999999999999
0
LINE
8
BLACK
6
CONTINUOUS
10
1.5325
20
0.6749999999999999
11
1.5325
21
0.71
0
LINE
8
BLACK
6
CONTINUOUS
10
1.5325
20
0.71
11
1.5874999999999999
21
0.71
0
LINE
8
BLACK
6
CONTINUOUS
10
1.5874999999999999
20
0.71
11
1.5874999999999999
21
0.6749999999999999
0
LINE
8
BLACK
6
CONTINUOUS
10
0.9461999999999999
20
0.6765
11
0.9189999999999999
21
0.6765
0
LINE
8
BLACK
6
CONTINUOUS
10
0.9189999999999999
20
0.6765
11
0.9189999999999999
21
0.7159
0
LINE
8
BLACK
6
CONTINUOUS
10
0.9189999999999999
20
0.7159
11
0.9461999999999999
21
0.7159
0
LINE
8
BLACK
6
CONTINUOUS
10
0.9461999999999999
20
0.7159
11
0.9461999999999999
21
0.6765
0
LINE
8
BLACK
6
CONTINUOUS
10
1.0209999999999999
20
0.6765
11
0.9938
21
0.6765
0
LINE
8
BLACK
6
CONTINUOUS
10
0.9938
20
0.6765
11
0.9938
21
0.7159
0
LINE
8
BLACK
6
CONTINUOUS
10
0.9938
20
0.7159
11
1.0209999999999999
21
0.7159
0
LINE
8
BLACK
6
CONTINUOUS
10
1.0209999999999999
20
0.7159
11
1.0209999999999999
21
0.6765
0
LINE
8
BLACK
6
CONTINUOUS
10
0.4604
20
0.6840999999999999
11
0.4254
21
0.6840999999999999
0
LINE
8
BLACK
6
CONTINUOUS
10
0.4254
20
0.6840999999999999
11
0.4254
21
0.7391
0
LINE
8
BLACK
6
CONTINUOUS
10
0.4254
20
0.7391
11
0.4604
21
0.7391
0
LINE
8
BLACK
6
CONTINUOUS
10
0.4604
20
0.7391
11
0.4604
21
0.6840999999999999
0
LINE
8
BLACK
6
CONTINUOUS
10
0.5354
20
0.6840999999999999
11
0.5004
21
0.6840999999999999
0
LINE
8
BLACK
6
CONTINUOUS
10
0.5004
20
0.6840999999999999
11
0.5004
21
0.7391
0
LINE
8
BLACK
6
CONTINUOUS
10
0.5004
20
0.7391
11
0.5354
21
0.7391
0
LINE
8
BLACK
6
CONTINUOUS
10
0.5354
20
0.7391
11
0.5354
21
0.6840999999999999
0
LINE
8
BLACK
6
CONTINUOUS
10
0.1825
20
0.6875
11
0.1175
21
0.6875
0
LINE
8
BLACK
6
CONTINUOUS
10
0.1175
20
0.6875
11
0.1175
21
0.7524999999999999
0
LINE
8
BLACK
6
CONTINUOUS
10
0.1175
20
0.7524999999999999
11
0.1825
21
0.7524999999999999
0
LINE
8
BLACK
6
CONTINUOUS
10
0.1825
20
0.7524999999999999
11
0.1825
21
0.6875
0
LINE
8
BLACK
6
CONTINUOUS
10
0.2825
20
0.6875
11
0.2175
21
0.6875
0
LINE
8
BLACK
6
CONTINUOUS
10
0.2175
20
0.6875
11
0.2175
21
0.7524999999999999
0
LINE
8
BLACK
6
CONTINUOUS
10
0.2175
20
0.7524999999999999
11
0.2825
21
0.7524999999999999
0
LINE
8
BLACK
6
CONTINUOUS
10
0.2825
20
0.7524999999999999
11
0.2825
21
0.6875
0
LINE
8
BLACK
6
CONTINUOUS
10
0.4025
20
0.695
11
0.3475
21
0.695
0
LINE
8
BLACK
6
CONTINUOUS
10
0.3475
20
0.695
11
0.3475
21
0.73
0
LINE
8
BLACK
6
CONTINUOUS
10
0.3475
20
0.73
11
0.4025
21
0.73
0
LINE
8
BLACK
6
CONTINUOUS
10
0.4025
20
0.73
11
0.4025
21
0.695
0
LINE
8
BLACK
6
CONTINUOUS
10
1.6775
20
0.72
11
1.6225000000000001
21
0.72
0
LINE
8
BLACK
6
CONTINUOUS
10
1.6225000000000001
20
0.72
11
1.6225000000000001
21
0.755
0
LINE
8
BLACK
6
CONTINUOUS
10
1.6225000000000001
20
0.755
11
1.6775
21
0.755
0
LINE
8
BLACK
6
CONTINUOUS
10
1.6775
20
0.755
11
1.6775
21
0.72
0
LINE
8
BLACK
6
CONTINUOUS
10
0.6775
20
0.73
11
0.6224999999999999
21
0.73
0
LINE
8
BLACK
6
CONTINUOUS
10
0.6224999999999999
20
0.73
11
0.6224999999999999
21
0.765
0
LINE
8
BLACK
6
CONTINUOUS
10
0.6224999999999999
20
0.765
11
0.6775
21
0.765
0
LINE
8
BLACK
6
CONTINUOUS
10
0.6775
20
0.765
11
0.6775
21
0.73
0
LINE
8
BLACK
6
CONTINUOUS
10
0.7725
20
0.74
11
0.7175
21
0.74
0
LINE
8
BLACK
6
CONTINUOUS
10
0.7175
20
0.74
11
0.7175
21
0.775
0
LINE
8
BLACK
6
CONTINUOUS
10
0.7175
20
0.775
11
0.7725
21
0.775
0
LINE
8
BLACK
6
CONTINUOUS
10
0.7725
20
0.775
11
0.7725
21
0.74
0
LINE
8
BLACK
6
CONTINUOUS
10
0.8724999999999999
20
0.74
11
0.8175
21
0.74
0
LINE
8
BLACK
6
CONTINUOUS
10
0.8175
20
0.74
11
0.8175
21
0.775
0
LINE
8
BLACK
6
CONTINUOUS
10
0.8175
20
0.775
11
0.8724999999999999
21
0.775
0
LINE
8
BLACK
6
CONTINUOUS
10
0.8724999999999999
20
0.775
11
0.8724999999999999
21
0.74
0
LINE
8
BLACK
6
CONTINUOUS
10
1.5874999999999999
20
0.75
11
1.5325
21
0.75
0
LINE
8
BLACK
6
CONTINUOUS
10
1.5325
20
0.75
11
1.5325
21
0.785
0
LINE
8
BLACK
6
CONTINUOUS
10
1.5325
20
0.785
11
1.5874999999999999
21
0.785
0
LINE
8
BLACK
6
CONTINUOUS
10
1.5874999999999999
20
0.785
11
1.5874999999999999
21
0.75
0
LINE
8
BLACK
6
CONTINUOUS
10
1.325
20
0.7524999999999999
11
1.29
21
0.7524999999999999
0
LINE
8
BLACK
6
CONTINUOUS
10
1.29
20
0.7524999999999999
11
1.29
21
0.8075
0
LINE
8
BLACK
6
CONTINUOUS
10
1.29
20
0.8075
11
1.325
21
0.8075
0
LINE
8
BLACK
6
CONTINUOUS
10
1.325
20
0.8075
11
1.325
21
0.7524999999999999
0
LINE
8
BLACK
6
CONTINUOUS
10
1.3999999999999999
20
0.7524999999999999
11
1.365
21
0.7524999999999999
0
LINE
8
BLACK
6
CONTINUOUS
10
1.365
20
0.7524999999999999
11
1.365
21
0.8075
0
LINE
8
BLACK
6
CONTINUOUS
10
1.365
20
0.8075
11
1.3999999999999999
21
0.8075
0
LINE
8
BLACK
6
CONTINUOUS
10
1.3999999999999999
20
0.8075
11
1.3999999999999999
21
0.7524999999999999
0
LINE
8
BLACK
6
CONTINUOUS
10
1.4975000000000001
20
0.765
11
1.4424999999999999
21
0.765
0
LINE
8
BLACK
6
CONTINUOUS
10
1.4424999999999999
20
0.765
11
1.4424999999999999
21
0.7999999999999999
0
LINE
8
BLACK
6
CONTINUOUS
10
1.4424999999999999
20
0.7999999999999999
11
1.4975000000000001
21
0.7999999999999999
0
LINE
8
BLACK
6
CONTINUOUS
10
1.4975000000000001
20
0.7999999999999999
11
1.4975000000000001
21
0.765
0
LINE
8
BLACK
6
CONTINUOUS
10
0.4025
20
0.77
11
0.3475
21
0.77
0
LINE
8
BLACK
6
CONTINUOUS
10
0.3475
20
0.77
11
0.3475
21
0.8049999999999999
0
LINE
8
BLACK
6
CONTINUOUS
10
0.3475
20
0.8049999999999999
11
0.4025
21
0.8049999999999999
0
LINE
8
BLACK
6
CONTINUOUS
10
0.4025
20
0.8049999999999999
11
0.4025
21
0.77
0
LINE
8
BLACK
6
CONTINUOUS
10
0.6775
20
0.8049999999999999
11
0.6224999999999999
21
0.8049999999999999
0
LINE
8
BLACK
6
CONTINUOUS
10
0.6224999999999999
20
0.8049999999999999
11
0.6224999999999999
21
0.84
0
LINE
8
BLACK
6
CONTINUOUS
10
0.6224999999999999
20
0.84
11
0.6775
21
0.84
0
LINE
8
BLACK
6
CONTINUOUS
10
0.6775
20
0.84
11
0.6775
21
0.8049999999999999
0
LINE
8
BLACK
6
CONTINUOUS
10
0.7725
20
0.8149999999999999
11
0.7175
21
0.8149999999999999
0
LINE
8
BLACK
6
CONTINUOUS
10
0.7175
20
0.8149999999999999
11
0.7175
21
0.85
0
LINE
8
BLACK
6
CONTINUOUS
10
0.7175
20
0.85
11
0.7725
21
0.85
0
LINE
8
BLACK
6
CONTINUOUS
10
0.7725
20
0.85
11
0.7725
21
0.8149999999999999
0
LINE
8
BLACK
6
CONTINUOUS
10
1.5800000000000001
20
0.8225
11
1.5449999999999999
21
0.8225
0
LINE
8
BLACK
6
CONTINUOUS
10
1.5449999999999999
20
0.8225
11
1.5449999999999999
21
0.8774999999999999
0
LINE
8
BLACK
6
CONTINUOUS
10
1.5449999999999999
20
0.8774999999999999
11
1.5800000000000001
21
0.8774999999999999
0
LINE
8
BLACK
6
CONTINUOUS
10
1.5800000000000001
20
0.8774999999999999
11
1.5800000000000001
21
0.8225
0
LINE
8
BLACK
6
CONTINUOUS
10
1.655
20
0.8225
11
1.6199999999999999
21
0.8225
0
LINE
8
BLACK
6
CONTINUOUS
10
1.6199999999999999
20
0.8225
11
1.6199999999999999
21
0.8774999999999999
0
LINE
8
BLACK
6
CONTINUOUS
10
1.6199999999999999
20
0.8774999999999999
11
1.655
21
0.8774999999999999
0
LINE
8
BLACK
6
CONTINUOUS
10
1.655
20
0.8774999999999999
11
1.655
21
0.8225
0
LINE
8
BLACK
6
CONTINUOUS
10
1.4975000000000001
20
0.84
11
1.4424999999999999
21
0.84
0
LINE
8
BLACK
6
CONTINUOUS
10
1.4424999999999999
20
0.84
11
1.4424999999999999
21
0.875
0
LINE
8
BLACK
6
CONTINUOUS
10
1.4424999999999999
20
0.875
11
1.4975000000000001
21
0.875
0
LINE
8
BLACK
6
CONTINUOUS
10
1.4975000000000001
20
0.875
11
1.4975000000000001
21
0.84
0
LINE
8
BLACK
6
CONTINUOUS
10
1.3200000000000001
20
0.8425
11
1.2849999999999999
21
0.8425
0
LINE
8
BLACK
6
CONTINUOUS
10
1.2849999999999999
20
0.8425
11
1.2849999999999999
21
0.8975
0
LINE
8
BLACK
6
CONTINUOUS
10
1.2849999999999999
20
0.8975
11
1.3200000000000001
21
0.8975
0
LINE
8
BLACK
6
CONTINUOUS
10
1.3200000000000001
20
0.8975
11
1.3200000000000001
21
0.8425
0
LINE
8
BLACK
6
CONTINUOUS
10
1.395
20
0.8425
11
1.3599999999999999
21
0.8425
0
LINE
8
BLACK
6
CONTINUOUS
10
1.3599999999999999
20
0.8425
11
1.3599999999999999
21
0.8975
0
LINE
8
BLACK
6
CONTINUOUS
10
1.3599999999999999
20
0.8975
11
1.395
21
0.8975
0
LINE
8
BLACK
6
CONTINUOUS
10
1.395
20
0.8975
11
1.395
21
0.8425
0
LINE
8
BLACK
6
CONTINUOUS
10
0.2205096456692913
20
1.1163158661417323
11
0.2338744094488189
21
1.1131483858267717
0
LINE
8
BLACK
6
CONTINUOUS
10
0.2338744094488189
20
1.1131483858267717
11
0.246781062992126
21
1.1084507086614173
0
LINE
8
BLACK
6
CONTINUOUS
10
0.246781062992126
20
1.1084507086614173
11
0.2590551181102362
21
1.1022864566929134
0
LINE
8
BLACK
6
CONTINUOUS
10
0.2590551181102362
20
1.1022864566929134
11
0.2705305511811024
21
1.0947389763779527
0
LINE
8
BLACK
6
CONTINUOUS
10
0.2705305511811024
20
1.0947389763779527
11
0.2810521653543307
21
1.0859102755905512
0
LINE
8
BLACK
6
CONTINUOUS
10
0.2810521653543307
20
1.0859102755905512
11
0.2904776771653543
21
1.0759198031496062
0
LINE
8
BLACK
6
CONTINUOUS
10
0.2904776771653543
20
1.0759198031496062
11
0.2986796456692913
21
1.0649026377952755
0
LINE
8
BLACK
6
CONTINUOUS
10
0.2986796456692913
20
1.0649026377952755
11
0.3055471653543307
21
1.0530077952755905
0
LINE
8
BLACK
6
CONTINUOUS
10
0.3055471653543307
20
1.0530077952755905
11
0.3109873228346456
21
1.0403960629921261
0
LINE
8
BLACK
6
CONTINUOUS
10
0.3109873228346456
20
1.0403960629921261
11
0.3149265748031496
21
1.0272381102362205
0
LINE
8
BLACK
6
CONTINUOUS
10
0.3149265748031496
20
1.0272381102362205
11
0.3173116141732283
21
1.0137117716535433
0
LINE
8
BLACK
6
CONTINUOUS
10
0.3173116141732283
20
1.0137117716535433
11
0.3181102362204724
21
1.
0
LINE
8
BLACK
6
CONTINUOUS
10
0.3181102362204724
20
1.
11
0.3173116141732283
21
0.9862882283464567
0
LINE
8
BLACK
6
CONTINUOUS
10
0.3173116141732283
20
0.9862882283464567
11
0.3149265748031496
21
0.9727618897637795
0
LINE
8
BLACK
6
CONTINUOUS
10
0.3149265748031496
20
0.9727618897637795
11
0.3109873228346456
21
0.9596039370078739
0
LINE
8
BLACK
6
CONTINUOUS
10
0.3109873228346456
20
0.9596039370078739
11
0.3055471653543307
21
0.9469922047244095
0
LINE
8
BLACK
6
CONTINUOUS
10
0.3055471653543307
20
0.9469922047244095
11
0.2986796456692913
21
0.9350973622047244
0
LINE
8
BLACK
6
CONTINUOUS
10
0.2986796456692913
20
0.9350973622047244
11
0.2904776771653543
21
0.9240801968503937
0
LINE
8
BLACK
6
CONTINUOUS
10
0.2904776771653543
20
0.9240801968503937
11
0.2810521653543307
21
0.9140897244094488
0
LINE
8
BLACK
6
CONTINUOUS
10
0.2810521653543307
20
0.9140897244094488
11
0.2705305511811024
21
0.9052610236220472
0
LINE
8
BLACK
6
CONTINUOUS
10
0.2705305511811024
20
0.9052610236220472
11
0.2590551181102362
21
0.8977135433070866
0
LINE
8
BLACK
6
CONTINUOUS
10
0.2590551181102362
20
0.8977135433070866
11
0.246781062992126
21
0.8915492913385826
0
LINE
8
BLACK
6
CONTINUOUS
10
0.246781062992126
20
0.8915492913385826
11
0.2338744094488189
21
0.8868516141732283
0
LINE
8
BLACK
6
CONTINUOUS
10
0.2338744094488189
20
0.8868516141732283
11
0.2205096456692913
21
0.8836841338582677
0
LINE
8
BLACK
6
CONTINUOUS
10
0.2205096456692913
20
0.8836841338582677
11
0.2068674803149606
21
0.8820896062992126
0
LINE
8
BLACK
6
CONTINUOUS
10
0.2068674803149606
20
0.8820896062992126
11
0.1931325196850394
21
0.8820896062992126
0
LINE
8
BLACK
6
CONTINUOUS
10
0.1931325196850394
20
0.8820896062992126
11
0.1794903543307086
21
0.8836841338582677
0
LINE
8
BLACK
6
CONTINUOUS
10
0.1794903543307086
20
0.8836841338582677
11
0.1661255905511811
21
0.8868516141732283
0
LINE
8
BLACK
6
CONTINUOUS
10
0.1661255905511811
20
0.8868516141732283
11
0.153218937007874
21
0.8915492913385826
0
LINE
8
BLACK
6
CONTINUOUS
10
0.153218937007874
20
0.8915492913385826
11
0.1409448818897638
21
0.8977135433070866
0
LINE
8
BLACK
6
CONTINUOUS
10
0.1409448818897638
20
0.8977135433070866
11
0.1294694488188976
21
0.9052610236220472
0
LINE
8
BLACK
6
CONTINUOUS
10
0.1294694488188976
20
0.9052610236220472
11
0.1189478346456693
21
0.9140897244094488
0
LINE
8
BLACK
6
CONTINUOUS
10
0.1189478346456693
20
0.9140897244094488
11
0.1095223228346457
21
0.9240801968503937
0
LINE
8
BLACK
6
CONTINUOUS
10
0.1095223228346457
20
0.9240801968503937
11
0.1013203543307087
21
0.9350973622047244
0
LINE
8
BLACK
6
CONTINUOUS
10
0.1013203543307087
20
0.9350973622047244
11
0.0944528346456693
21
0.9469922047244095
0
LINE
8
BLACK
6
CONTINUOUS
10
0.0944528346456693
20
0.9469922047244095
11
0.0890126771653543
21
0.9596039370078739
0
LINE
8
BLACK
6
CONTINUOUS
10
0.0890126771653543
20
0.9596039370078739
11
0.0850734251968504
21
0.9727618897637795
0
LINE
8
BLACK
6
CONTINUOUS
10
0.0850734251968504
20
0.9727618897637795
11
0.0826883858267717
21
0.9862882283464567
0
LINE
8
BLACK
6
CONTINUOUS
10
0.0826883858267717
20
0.9862882283464567
11
0.0818897637795276
21
1.
0
LINE
8
BLACK
6
CONTINUOUS
10
0.0818897637795276
20
1.
11
0.0826883858267717
21
1.0137117716535433
0
LINE
8
BLACK
6
CONTINUOUS
10
0.0826883858267717
20
1.0137117716535433
11
0.0850734251968504
21
1.0272381102362205
0
LINE
8
BLACK
6
CONTINUOUS
10
0.0850734251968504
20
1.0272381102362205
11
0.0890126771653543
21
1.0403960629921261
0
LINE
8
BLACK
6
CONTINUOUS
10
0.0890126771653543
20
1.0403960629921261
11
0.0944528346456693
21
1.0530077952755905
0
LINE
8
BLACK
6
CONTINUOUS
10
0.0944528346456693
20
1.0530077952755905
11
0.1013203543307087
21
1.0649026377952755
0
LINE
8
BLACK
6
CONTINUOUS
10
0.1013203543307087
20
1.0649026377952755
11
0.1095223228346457
21
1.0759198031496062
0
LINE
8
BLACK
6
CONTINUOUS
10
0.1095223228346457
20
1.0759198031496062
11
0.1189478346456693
21
1.0859102755905512
0
LINE
8
BLACK
6
CONTINUOUS
10
0.1189478346456693
20
1.0859102755905512
11
0.1294694488188976
21
1.0947389763779527
0
LINE
8
BLACK
6
CONTINUOUS
10
0.1294694488188976
20
1.0947389763779527
11
0.1409448818897638
21
1.1022864566929134
0
LINE
8
BLACK
6
CONTINUOUS
10
0.1409448818897638
20
1.1022864566929134
11
0.153218937007874
21
1.1084507086614173
0
LINE
8
BLACK
6
CONTINUOUS
10
0.153218937007874
20
1.1084507086614173
11
0.1661255905511811
21
1.1131483858267717
0
LINE
8
BLACK
6
CONTINUOUS
10
0.1661255905511811
20
1.1131483858267717
11
0.1794903543307086
21
1.1163158661417323
0
LINE
8
BLACK
6
CONTINUOUS
10
0.1794903543307086
20
1.1163158661417323
11
0.1931325196850394
21
1.1179103937007875
0
LINE
8
BLACK
6
CONTINUOUS
10
0.1931325196850394
20
1.1179103937007875
11
0.2068674803149606
21
1.1179103937007875
0
LINE
8
BLACK
6
CONTINUOUS
10
0.2068674803149606
20
1.1179103937007875
11
0.2205096456692913
21
1.1163158661417323
0
LINE
8
BLACK
6
CONTINUOUS
10
1.8205096456692913
20
1.1163158661417323
11
1.8338744094488189
21
1.1131483858267717
0
LINE
8
BLACK
6
CONTINUOUS
10
1.8338744094488189
20
1.1131483858267717
11
1.846781062992126
21
1.1084507086614173
0
LINE
8
BLACK
6
CONTINUOUS
10
1.846781062992126
20
1.1084507086614173
11
1.8590551181102362
21
1.1022864566929134
0
LINE
8
BLACK
6
CONTINUOUS
10
1.8590551181102362
20
1.1022864566929134
11
1.8705305511811023
21
1.0947389763779527
0
LINE
8
BLACK
6
CONTINUOUS
10
1.8705305511811023
20
1.0947389763779527
11
1.8810521653543306
21
1.0859102755905512
0
LINE
8
BLACK
6
CONTINUOUS
10
1.8810521653543306
20
1.0859102755905512
11
1.8904776771653542
21
1.0759198031496062
0
LINE
8
BLACK
6
CONTINUOUS
10
1.8904776771653542
20
1.0759198031496062
11
1.8986796456692914
21
1.0649026377952755
0
LINE
8
BLACK
6
CONTINUOUS
10
1.8986796456692914
20
1.0649026377952755
11
1.9055471653543308
21
1.0530077952755905
0
LINE
8
BLACK
6
CONTINUOUS
10
1.9055471653543308
20
1.0530077952755905
11
1.9109873228346457
21
1.0403960629921261
0
LINE
8
BLACK
6
CONTINUOUS
10
1.9109873228346457
20
1.0403960629921261
11
1.9149265748031497
21
1.0272381102362205
0
LINE
8
BLACK
6
CONTINUOUS
10
1.9149265748031497
20
1.0272381102362205
11
1.9173116141732283
21
1.0137117716535433
0
LINE
8
BLACK
6
CONTINUOUS
10
1.9173116141732283
20
1.0137117716535433
11
1.9181102362204725
21
1.
0
LINE
8
BLACK
6
CONTINUOUS
10
1.9181102362204725
20
1.
11
1.9173116141732283
21
0.9862882283464567
0
LINE
8
BLACK
6
CONTINUOUS
10
1.9173116141732283
20
0.9862882283464567
11
1.9149265748031497
21
0.9727618897637795
0
LINE
8
BLACK
6
CONTINUOUS
10
1.9149265748031497
20
0.9727618897637795
11
1.9109873228346457
21
0.9596039370078739
0
LINE
8
BLACK
6
CONTINUOUS
10
1.9109873228346457
20
0.9596039370078739
11
1.9055471653543308
21
0.9469922047244095
0
LINE
8
BLACK
6
CONTINUOUS
10
1.9055471653543308
20
0.9469922047244095
11
1.8986796456692914
21
0.9350973622047244
0
LINE
8
BLACK
6
CONTINUOUS
10
1.8986796456692914
20
0.9350973622047244
11
1.8904776771653542
21
0.9240801968503937
0
LINE
8
BLACK
6
CONTINUOUS
10
1.8904776771653542
20
0.9240801968503937
11
1.8810521653543306
21
0.9140897244094488
0
LINE
8
BLACK
6
CONTINUOUS
10
1.8810521653543306
20
0.9140897244094488
11
1.8705305511811023
21
0.9052610236220472
0
LINE
8
BLACK
6
CONTINUOUS
10
1.8705305511811023
20
0.9052610236220472
11
1.8590551181102362
21
0.8977135433070866
0
LINE
8
BLACK
6
CONTINUOUS
10
1.8590551181102362
20
0.8977135433070866
11
1.846781062992126
21
0.8915492913385826
0
LINE
8
BLACK
6
CONTINUOUS
10
1.846781062992126
20
0.8915492913385826
11
1.8338744094488189
21
0.8868516141732283
0
LINE
8
BLACK
6
CONTINUOUS
10
1.8338744094488189
20
0.8868516141732283
11
1.8205096456692913
21
0.8836841338582677
0
LINE
8
BLACK
6
CONTINUOUS
10
1.8205096456692913
20
0.8836841338582677
11
1.8068674803149607
21
0.8820896062992126
0
LINE
8
BLACK
6
CONTINUOUS
10
1.8068674803149607
20
0.8820896062992126
11
1.7931325196850394
21
0.8820896062992126
0
LINE
8
BLACK
6
CONTINUOUS
10
1.7931325196850394
20
0.8820896062992126
11
1.7794903543307086
21
0.8836841338582677
0
LINE
8
BLACK
6
CONTINUOUS
10
1.7794903543307086
20
0.8836841338582677
11
1.766125590551181
21
0.8868516141732283
0
LINE
8
BLACK
6
CONTINUOUS
10
1.766125590551181
20
0.8868516141732283
11
1.7532189370078739
21
0.8915492913385826
0
LINE
8
BLACK
6
CONTINUOUS
10
1.7532189370078739
20
0.8915492913385826
11
1.7409448818897637
21
0.8977135433070866
0
LINE
8
BLACK
6
CONTINUOUS
10
1.7409448818897637
20
0.8977135433070866
11
1.7294694488188975
21
0.9052610236220472
0
LINE
8
BLACK
6
CONTINUOUS
10
1.7294694488188975
20
0.9052610236220472
11
1.7189478346456692
21
0.9140897244094488
0
LINE
8
BLACK
6
CONTINUOUS
10
1.7189478346456692
20
0.9140897244094488
11
1.7095223228346457
21
0.9240801968503937
0
LINE
8
BLACK
6
CONTINUOUS
10
1.7095223228346457
20
0.9240801968503937
11
1.7013203543307087
21
0.9350973622047244
0
LINE
8
BLACK
6
CONTINUOUS
10
1.7013203543307087
20
0.9350973622047244
11
1.6944528346456693
21
0.9469922047244095
0
LINE
8
BLACK
6
CONTINUOUS
10
1.6944528346456693
20
0.9469922047244095
11
1.6890126771653542
21
0.9596039370078739
0
LINE
8
BLACK
6
CONTINUOUS
10
1.6890126771653542
20
0.9596039370078739
11
1.6850734251968504
21
0.9727618897637795
0
LINE
8
BLACK
6
CONTINUOUS
10
1.6850734251968504
20
0.9727618897637795
11
1.6826883858267716
21
0.9862882283464567
0
LINE
8
BLACK
6
CONTINUOUS
10
1.6826883858267716
20
0.9862882283464567
11
1.6818897637795276
21
1.
0
LINE
8
BLACK
6
CONTINUOUS
10
1.6818897637795276
20
1.
11
1.6826883858267716
21
1.0137117716535433
0
LINE
8
BLACK
6
CONTINUOUS
10
1.6826883858267716
20
1.0137117716535433
11
1.6850734251968504
21
1.0272381102362205
0
LINE
8
BLACK
6
CONTINUOUS
10
1.6850734251968504
20
1.0272381102362205
11
1.6890126771653542
21
1.0403960629921261
0
LINE
8
BLACK
6
CONTINUOUS
10
1.6890126771653542
20
1.0403960629921261
11
1.6944528346456693
21
1.0530077952755905
0
LINE
8
BLACK
6
CONTINUOUS
10
1.6944528346456693
20
1.0530077952755905
11
1.7013203543307087
21
1.0649026377952755
0
LINE
8
BLACK
6
CONTINUOUS
10
1.7013203543307087
20
1.0649026377952755
11
1.7095223228346457
21
1.0759198031496062
0
LINE
8
BLACK
6
CONTINUOUS
10
1.7095223228346457
20
1.0759198031496062
11
1.7189478346456692
21
1.0859102755905512
0
LINE
8
BLACK
6
CONTINUOUS
10
1.7189478346456692
20
1.0859102755905512
11
1.7294694488188975
21
1.0947389763779527
0
LINE
8
BLACK
6
CONTINUOUS
10
1.7294694488188975
20
1.0947389763779527
11
1.7409448818897637
21
1.1022864566929134
0
LINE
8
BLACK
6
CONTINUOUS
10
1.7409448818897637
20
1.1022864566929134
11
1.7532189370078739
21
1.1084507086614173
0
LINE
8
BLACK
6
CONTINUOUS
10
1.7532189370078739
20
1.1084507086614173
11
1.766125590551181
21
1.1131483858267717
0
LINE
8
BLACK
6
CONTINUOUS
10
1.766125590551181
20
1.1131483858267717
11
1.7794903543307086
21
1.1163158661417323
0
LINE
8
BLACK
6
CONTINUOUS
10
1.7794903543307086
20
1.1163158661417323
11
1.7931325196850394
21
1.1179103937007875
0
LINE
8
BLACK
6
CONTINUOUS
10
1.7931325196850394
20
1.1179103937007875
11
1.8068674803149607
21
1.1179103937007875
0
LINE
8
BLACK
6
CONTINUOUS
10
1.8068674803149607
20
1.1179103937007875
11
1.8205096456692913
21
1.1163158661417323
0
LINE
8
BLACK
6
CONTINUOUS
10
0.6775
20
0.89
11
0.6224999999999999
21
0.89
0
LINE
8
BLACK
6
CONTINUOUS
10
0.6224999999999999
20
0.89
11
0.6224999999999999
21
0.9249999999999999
0
LINE
8
BLACK
6
CONTINUOUS
10
0.6224999999999999
20
0.9249999999999999
11
0.6775
21
0.9249999999999999
0
LINE
8
BLACK
6
CONTINUOUS
10
0.6775
20
0.9249999999999999
11
0.6775
21
0.89
0
LINE
8
BLACK
6
CONTINUOUS
10
0.6775
20
0.965
11
0.6224999999999999
21
0.965
0
LINE
8
BLACK
6
CONTINUOUS
10
0.6224999999999999
20
0.965
11
0.6224999999999999
21
1.
0
LINE
8
BLACK
6
CONTINUOUS
10
0.6224999999999999
20
1.
11
0.6775
21
1.
0
LINE
8
BLACK
6
CONTINUOUS
10
0.6775
20
1.
11
0.6775
21
0.965
0
LINE
8
BLACK
6
CONTINUOUS
10
0.7775
20
0.965
11
0.7225
21
0.965
0
LINE
8
BLACK
6
CONTINUOUS
10
0.7225
20
0.965
11
0.7225
21
1.
0
LINE
8
BLACK
6
CONTINUOUS
10
0.7225
20
1.
11
0.7775
21
1.
0
LINE
8
BLACK
6
CONTINUOUS
10
0.7775
20
1.
11
0.7775
21
0.965
0
LINE
8
BLACK
6
CONTINUOUS
10
0.7775
20
1.04
11
0.7225
21
1.04
0
LINE
8
BLACK
6
CONTINUOUS
10
0.7225
20
1.04
11
0.7225
21
1.075
0
LINE
8
BLACK
6
CONTINUOUS
10
0.7225
20
1.075
11
0.7775
21
1.075
0
LINE
8
BLACK
6
CONTINUOUS
10
0.7775
20
1.075
11
0.7775
21
1.04
  0
ENDSEC
  0
EOF
