  0
SECTION
  2
HEADER
  9
$ANGBASE
  50
0.0
  9
$ANGDIR
  70
1
  9
$MEASUREMENT
  70
0
  0
ENDSEC
  0
SECTION
  2
TABLES
  0
TABLE
  2
LTYPE
  70
4
  0
LTYPE
  5
40F
  2
CONTINUOUS
  70
0
  3
Solid line
  72
65
  73
0
  40
0.0
  0
LTYPE
  5
410
  2
DASHDOT
 70
0
  3
Dash Dot ____ _ ____ _
 72
65
 73
4
 40
2.0
 49
1.25
 49
-0.25
 49
0.25
 49
-0.25
  0
LTYPE
  5
411
  2
DASHED
 70
0
  3
Dashed __ __ __ __ __
 72
65
 73
2
 40
0.75
 49
0.5
 49
-0.25
  0
LTYPE
  5
43B
  2
DOTTED
 70
0
  3
Dotted .  .  .  .
 72
65
 73
2
 40
0.2
 49
0.0
 49
-0.2
  0
ENDTAB
  0
TABLE
  2
STYLE
  70
4
  0
STYLE
  2
KICAD
  70
0
  40
0
  41
1
  42
1
  50
0
  71
0
  3
isocp.shx
  0
STYLE
  2
KICADB
  70
0
  40
0
  41
1
  42
1
  50
0
  71
0
  3
isocp.shx
  0
STYLE
  2
KICADI
  70
0
  40
0
  41
1
  42
1
  50
15
  71
0
  3
isocp.shx
  0
STYLE
  2
KICADBI
  70
0
  40
0
  41
1
  42
1
  50
15
  71
0
  3
isocp.shx
  0
ENDTAB
  0
TABLE
  2
LAYER
  70
1
  0
LAYER
  2
BLACK
  70
0
  62
7
  6
CONTINUOUS
  0
ENDTAB
  0
ENDSEC
  0
SECTION
  2
ENTITIES
0
LINE
8
BLACK
6
CONTINUOUS
10
1.2424999999999999
20
0.0675
11
1.1775
21
0.0675
0
LINE
8
BLACK
6
CONTINUOUS
10
1.1775
20
0.0675
11
1.1775
21
0.1325
0
LINE
8
BLACK
6
CONTINUOUS
10
1.1775
20
0.1325
11
1.2424999999999999
21
0.1325
0
LINE
8
BLACK
6
CONTINUOUS
10
1.2424999999999999
20
0.1325
11
1.2424999999999999
21
0.0675
0
LINE
8
BLACK
6
CONTINUOUS
10
1.3425
20
0.0675
11
1.2775000000000001
21
0.0675
0
LINE
8
BLACK
6
CONTINUOUS
10
1.2775000000000001
20
0.0675
11
1.2775000000000001
21
0.1325
0
LINE
8
BLACK
6
CONTINUOUS
10
1.2775000000000001
20
0.1325
11
1.3425
21
0.1325
0
LINE
8
BLACK
6
CONTINUOUS
10
1.3425
20
0.1325
11
1.3425
21
0.0675
0
LINE
8
BLACK
6
CONTINUOUS
10
1.4424999999999999
20
0.0675
11
1.3774999999999999
21
0.0675
0
LINE
8
BLACK
6
CONTINUOUS
10
1.3774999999999999
20
0.0675
11
1.3774999999999999
21
0.1325
0
LINE
8
BLACK
6
CONTINUOUS
10
1.3774999999999999
20
0.1325
11
1.4424999999999999
21
0.1325
0
LINE
8
BLACK
6
CONTINUOUS
10
1.4424999999999999
20
0.1325
11
1.4424999999999999
21
0.0675
0
LINE
8
BLACK
6
CONTINUOUS
10
1.2088697637795276
20
0.5851185433070866
11
1.2130600787401575
21
0.5824256299212598
0
LINE
8
BLACK
6
CONTINUOUS
10
1.2130600787401575
20
0.5824256299212598
11
1.2163219291338583
21
0.578661220472441
0
LINE
8
BLACK
6
CONTINUOUS
10
1.2163219291338583
20
0.578661220472441
11
1.2183911417322835
21
0.5741303149606299
0
LINE
8
BLACK
6
CONTINUOUS
10
1.2183911417322835
20
0.5741303149606299
11
1.2191000000000001
21
0.5692
0
LINE
8
BLACK
6
CONTINUOUS
10
1.2191000000000001
20
0.5692
11
1.2189998425196851
21
0.5685034251968504
0
LINE
8
BLACK
6
CONTINUOUS
10
1.2189998425196851
20
0.5685034251968504
11
1.236151653543307
21
0.5513516535433071
0
LINE
8
BLACK
6
CONTINUOUS
10
1.236151653543307
20
0.5513516535433071
11
1.2363966929133858
21
0.5510564960629921
0
LINE
8
BLACK
6
CONTINUOUS
10
1.2363966929133858
20
0.5510564960629921
11
1.236528464566929
21
0.5509570472440944
0
LINE
8
BLACK
6
CONTINUOUS
10
1.236528464566929
20
0.5509570472440944
11
1.2366724409448819
21
0.5507244881889763
0
LINE
8
BLACK
6
CONTINUOUS
10
1.2366724409448819
20
0.5507244881889763
11
1.237544094488189
21
0.549674842519685
0
LINE
8
BLACK
6
CONTINUOUS
10
1.237544094488189
20
0.549674842519685
11
1.2380952362204725
21
0.5484265354330708
0
LINE
8
BLACK
6
CONTINUOUS
10
1.2380952362204725
20
0.5484265354330708
11
1.2388134645669291
21
0.5472666141732283
0
LINE
8
BLACK
6
CONTINUOUS
10
1.2388134645669291
20
0.5472666141732283
11
1.2389647244094488
21
0.5464573622047244
0
LINE
8
BLACK
6
CONTINUOUS
10
1.2389647244094488
20
0.5464573622047244
11
1.2392973228346456
21
0.5457041338582677
0
LINE
8
BLACK
6
CONTINUOUS
10
1.2392973228346456
20
0.5457041338582677
11
1.2393603149606298
21
0.5443411023622047
0
LINE
8
BLACK
6
CONTINUOUS
10
1.2393603149606298
20
0.5443411023622047
11
1.2396110236220472
21
0.543
0
LINE
8
BLACK
6
CONTINUOUS
10
1.2396110236220472
20
0.543
11
1.2396110236220472
21
0.3896205905511811
0
LINE
8
BLACK
6
CONTINUOUS
10
1.2396110236220472
20
0.3896205905511811
11
1.2425219291338583
21
0.3862612204724409
0
LINE
8
BLACK
6
CONTINUOUS
10
1.2425219291338583
20
0.3862612204724409
11
1.2445911417322835
21
0.3817303149606299
0
LINE
8
BLACK
6
CONTINUOUS
10
1.2445911417322835
20
0.3817303149606299
11
1.2453000000000001
21
0.3768
0
LINE
8
BLACK
6
CONTINUOUS
10
1.2453000000000001
20
0.3768
11
1.2445911417322835
21
0.3718696850393701
0
LINE
8
BLACK
6
CONTINUOUS
10
1.2445911417322835
20
0.3718696850393701
11
1.2425219291338583
21
0.3673387795275591
0
LINE
8
BLACK
6
CONTINUOUS
10
1.2425219291338583
20
0.3673387795275591
11
1.2392600787401575
21
0.3635743700787402
0
LINE
8
BLACK
6
CONTINUOUS
10
1.2392600787401575
20
0.3635743700787402
11
1.2350697637795276
21
0.3608814566929134
0
LINE
8
BLACK
6
CONTINUOUS
10
1.2350697637795276
20
0.3608814566929134
11
1.2302905118110237
21
0.3594781102362204
0
LINE
8
BLACK
6
CONTINUOUS
10
1.2302905118110237
20
0.3594781102362204
11
1.2271814173228346
21
0.3594781102362204
0
LINE
8
BLACK
6
CONTINUOUS
10
1.2271814173228346
20
0.3594781102362204
11
1.2218110236220472
21
0.354107716535433
0
LINE
8
BLACK
6
CONTINUOUS
10
1.2218110236220472
20
0.354107716535433
11
1.2218110236220472
21
0.2325
0
LINE
8
BLACK
6
CONTINUOUS
10
1.2218110236220472
20
0.2325
11
1.2424999999999999
21
0.2325
0
LINE
8
BLACK
6
CONTINUOUS
10
1.2424999999999999
20
0.2325
11
1.2424999999999999
21
0.1675
0
LINE
8
BLACK
6
CONTINUOUS
10
1.2424999999999999
20
0.1675
11
1.1775
21
0.1675
0
LINE
8
BLACK
6
CONTINUOUS
10
1.1775
20
0.1675
11
1.1775
21
0.2325
0
LINE
8
BLACK
6
CONTINUOUS
10
1.1775
20
0.2325
11
1.1981889763779527
21
0.2325
0
LINE
8
BLACK
6
CONTINUOUS
10
1.1981889763779527
20
0.2325
11
1.1981889763779527
21
0.359
0
LINE
8
BLACK
6
CONTINUOUS
10
1.1981889763779527
20
0.359
11
1.1982243700787401
21
0.3593820078740158
0
LINE
8
BLACK
6
CONTINUOUS
10
1.1982243700787401
20
0.3593820078740158
11
1.1982015748031496
21
0.3595454724409449
0
LINE
8
BLACK
6
CONTINUOUS
10
1.1982015748031496
20
0.3595454724409449
11
1.1982641732283463
21
0.3598116929133858
0
LINE
8
BLACK
6
CONTINUOUS
10
1.1982641732283463
20
0.3598116929133858
11
1.1983900787401573
21
0.3611702755905511
0
LINE
8
BLACK
6
CONTINUOUS
10
1.1983900787401573
20
0.3611702755905511
11
1.1988829527559055
21
0.3624425590551181
0
LINE
8
BLACK
6
CONTINUOUS
10
1.1988829527559055
20
0.3624425590551181
11
1.1991953543307086
21
0.3637707480314961
0
LINE
8
BLACK
6
CONTINUOUS
10
1.1991953543307086
20
0.3637707480314961
11
1.1996606299212598
21
0.3644499606299212
0
LINE
8
BLACK
6
CONTINUOUS
10
1.1996606299212598
20
0.3644499606299212
11
1.1999580708661417
21
0.3652177165354331
0
LINE
8
BLACK
6
CONTINUOUS
10
1.1999580708661417
20
0.3652177165354331
11
1.2008772440944881
21
0.3662259842519685
0
LINE
8
BLACK
6
CONTINUOUS
10
1.2008772440944881
20
0.3662259842519685
11
1.2016483464566929
21
0.3673516535433071
0
LINE
8
BLACK
6
CONTINUOUS
10
1.2016483464566929
20
0.3673516535433071
11
1.2104001181102362
21
0.3761034251968504
0
LINE
8
BLACK
6
CONTINUOUS
10
1.2104001181102362
20
0.3761034251968504
11
1.2102999999999999
21
0.3768
0
LINE
8
BLACK
6
CONTINUOUS
10
1.2102999999999999
20
0.3768
11
1.2110088582677165
21
0.3817303149606299
0
LINE
8
BLACK
6
CONTINUOUS
10
1.2110088582677165
20
0.3817303149606299
11
1.2130780708661417
21
0.3862612204724409
0
LINE
8
BLACK
6
CONTINUOUS
10
1.2130780708661417
20
0.3862612204724409
11
1.2159889763779528
21
0.3896205905511811
0
LINE
8
BLACK
6
CONTINUOUS
10
1.2159889763779528
20
0.3896205905511811
11
1.2159889763779528
21
0.5381077165354331
0
LINE
8
BLACK
6
CONTINUOUS
10
1.2159889763779528
20
0.5381077165354331
11
1.2022185826771654
21
0.5518781102362205
0
LINE
8
BLACK
6
CONTINUOUS
10
1.2022185826771654
20
0.5518781102362205
11
1.1991094881889763
21
0.5518781102362205
0
LINE
8
BLACK
6
CONTINUOUS
10
1.1991094881889763
20
0.5518781102362205
11
1.1943302362204724
21
0.5532814566929134
0
LINE
8
BLACK
6
CONTINUOUS
10
1.1943302362204724
20
0.5532814566929134
11
1.1901399212598425
21
0.5559743700787402
0
LINE
8
BLACK
6
CONTINUOUS
10
1.1901399212598425
20
0.5559743700787402
11
1.1868780708661417
21
0.559738779527559
0
LINE
8
BLACK
6
CONTINUOUS
10
1.1868780708661417
20
0.559738779527559
11
1.1848088582677165
21
0.56426968503937
0
LINE
8
BLACK
6
CONTINUOUS
10
1.1848088582677165
20
0.56426968503937
11
1.1840999999999999
21
0.5692
0
LINE
8
BLACK
6
CONTINUOUS
10
1.1840999999999999
20
0.5692
11
1.1848088582677165
21
0.5741303149606299
0
LINE
8
BLACK
6
CONTINUOUS
10
1.1848088582677165
20
0.5741303149606299
11
1.1868780708661417
21
0.578661220472441
0
LINE
8
BLACK
6
CONTINUOUS
10
1.1868780708661417
20
0.578661220472441
11
1.1901399212598425
21
0.5824256299212598
0
LINE
8
BLACK
6
CONTINUOUS
10
1.1901399212598425
20
0.5824256299212598
11
1.1943302362204724
21
0.5851185433070866
0
LINE
8
BLACK
6
CONTINUOUS
10
1.1943302362204724
20
0.5851185433070866
11
1.1991094881889763
21
0.5865218897637795
0
LINE
8
BLACK
6
CONTINUOUS
10
1.1991094881889763
20
0.5865218897637795
11
1.2040905118110237
21
0.5865218897637795
0
LINE
8
BLACK
6
CONTINUOUS
10
1.2040905118110237
20
0.5865218897637795
11
1.2088697637795276
21
0.5851185433070866
0
LINE
8
BLACK
6
CONTINUOUS
10
0.7572697637795276
20
0.9459185433070866
11
0.7614600787401574
21
0.9432256299212598
0
LINE
8
BLACK
6
CONTINUOUS
10
0.7614600787401574
20
0.9432256299212598
11
0.7647219291338583
21
0.939461220472441
0
LINE
8
BLACK
6
CONTINUOUS
10
0.7647219291338583
20
0.939461220472441
11
0.7667911417322835
21
0.9349303149606299
0
LINE
8
BLACK
6
CONTINUOUS
10
0.7667911417322835
20
0.9349303149606299
11
0.7675
21
0.9299999999999999
0
LINE
8
BLACK
6
CONTINUOUS
10
0.7675
20
0.9299999999999999
11
0.7667911417322835
21
0.92506968503937
0
LINE
8
BLACK
6
CONTINUOUS
10
0.7667911417322835
20
0.92506968503937
11
0.7647219291338583
21
0.920538779527559
0
LINE
8
BLACK
6
CONTINUOUS
10
0.7647219291338583
20
0.920538779527559
11
0.7618110236220472
21
0.9171793700787402
0
LINE
8
BLACK
6
CONTINUOUS
10
0.7618110236220472
20
0.9171793700787402
11
0.7618110236220472
21
0.8817118897637795
0
LINE
8
BLACK
6
CONTINUOUS
10
0.7618110236220472
20
0.8817118897637795
11
0.9113118897637795
21
0.7322110236220473
0
LINE
8
BLACK
6
CONTINUOUS
10
0.9113118897637795
20
0.7322110236220473
11
0.9826512992125984
21
0.7322110236220473
0
LINE
8
BLACK
6
CONTINUOUS
10
0.9826512992125984
20
0.7322110236220473
11
0.9947141732283464
21
0.7322110236220473
0
LINE
8
BLACK
6
CONTINUOUS
10
0.9947141732283464
20
0.7322110236220473
11
0.9959399212598425
21
0.7336256299212598
0
LINE
8
BLACK
6
CONTINUOUS
10
0.9959399212598425
20
0.7336256299212598
11
1.0001302362204725
21
0.7363185433070866
0
LINE
8
BLACK
6
CONTINUOUS
10
1.0001302362204725
20
0.7363185433070866
11
1.0049094881889764
21
0.7377218897637795
0
LINE
8
BLACK
6
CONTINUOUS
10
1.0049094881889764
20
0.7377218897637795
11
1.0098905118110235
21
0.7377218897637795
0
LINE
8
BLACK
6
CONTINUOUS
10
1.0098905118110235
20
0.7377218897637795
11
1.0146697637795274
21
0.7363185433070866
0
LINE
8
BLACK
6
CONTINUOUS
10
1.0146697637795274
20
0.7363185433070866
11
1.0188600787401574
21
0.7336256299212598
0
LINE
8
BLACK
6
CONTINUOUS
10
1.0188600787401574
20
0.7336256299212598
11
1.0200858267716535
21
0.7322110236220473
0
LINE
8
BLACK
6
CONTINUOUS
10
1.0200858267716535
20
0.7322110236220473
11
1.0321487007874015
21
0.7322110236220473
0
LINE
8
BLACK
6
CONTINUOUS
10
1.0321487007874015
20
0.7322110236220473
11
1.1477803937007873
21
0.7322110236220473
0
LINE
8
BLACK
6
CONTINUOUS
10
1.1477803937007873
20
0.7322110236220473
11
1.1481624015748031
21
0.7321755905511811
0
LINE
8
BLACK
6
CONTINUOUS
10
1.1481624015748031
20
0.7321755905511811
11
1.1483258661417322
21
0.7321984251968504
0
LINE
8
BLACK
6
CONTINUOUS
10
1.1483258661417322
20
0.7321984251968504
11
1.1485920866141732
21
0.7321357874015748
0
LINE
8
BLACK
6
CONTINUOUS
10
1.1485920866141732
20
0.7321357874015748
11
1.1499506692913386
21
0.7320099212598425
0
LINE
8
BLACK
6
CONTINUOUS
10
1.1499506692913386
20
0.7320099212598425
11
1.1512229527559055
21
0.7315170078740157
0
LINE
8
BLACK
6
CONTINUOUS
10
1.1512229527559055
20
0.7315170078740157
11
1.1525511417322833
21
0.7312046456692913
0
LINE
8
BLACK
6
CONTINUOUS
10
1.1525511417322833
20
0.7312046456692913
11
1.1532303543307085
21
0.7307393307086614
0
LINE
8
BLACK
6
CONTINUOUS
10
1.1532303543307085
20
0.7307393307086614
11
1.1539981102362205
21
0.7304419291338583
0
LINE
8
BLACK
6
CONTINUOUS
10
1.1539981102362205
20
0.7304419291338583
11
1.155006377952756
21
0.7295227165354331
0
LINE
8
BLACK
6
CONTINUOUS
10
1.155006377952756
20
0.7295227165354331
11
1.1561320472440944
21
0.7287516535433071
0
LINE
8
BLACK
6
CONTINUOUS
10
1.1561320472440944
20
0.7287516535433071
11
1.3183516535433071
21
0.5665320472440944
0
LINE
8
BLACK
6
CONTINUOUS
10
1.3183516535433071
20
0.5665320472440944
11
1.3185966929133859
21
0.5662369291338583
0
LINE
8
BLACK
6
CONTINUOUS
10
1.3185966929133859
20
0.5662369291338583
11
1.318728464566929
21
0.5661374409448818
0
LINE
8
BLACK
6
CONTINUOUS
10
1.318728464566929
20
0.5661374409448818
11
1.3188724803149605
21
0.5659048031496063
0
LINE
8
BLACK
6
CONTINUOUS
10
1.3188724803149605
20
0.5659048031496063
11
1.3197440551181101
21
0.5648552362204724
0
LINE
8
BLACK
6
CONTINUOUS
10
1.3197440551181101
20
0.5648552362204724
11
1.3202951181102363
21
0.5636071653543306
0
LINE
8
BLACK
6
CONTINUOUS
10
1.3202951181102363
20
0.5636071653543306
11
1.3210134645669291
21
0.5624470078740157
0
LINE
8
BLACK
6
CONTINUOUS
10
1.3210134645669291
20
0.5624470078740157
11
1.3211647637795276
21
0.5616375984251968
0
LINE
8
BLACK
6
CONTINUOUS
10
1.3211647637795276
20
0.5616375984251968
11
1.3214972834645669
21
0.5608845275590552
0
LINE
8
BLACK
6
CONTINUOUS
10
1.3214972834645669
20
0.5608845275590552
11
1.3215602755905511
21
0.5595217716535433
0
LINE
8
BLACK
6
CONTINUOUS
10
1.3215602755905511
20
0.5595217716535433
11
1.3218110236220473
21
0.5581803937007874
0
LINE
8
BLACK
6
CONTINUOUS
10
1.3218110236220473
20
0.5581803937007874
11
1.3218110236220473
21
0.2325
0
LINE
8
BLACK
6
CONTINUOUS
10
1.3218110236220473
20
0.2325
11
1.3425
21
0.2325
0
LINE
8
BLACK
6
CONTINUOUS
10
1.3425
20
0.2325
11
1.3425
21
0.1675
0
LINE
8
BLACK
6
CONTINUOUS
10
1.3425
20
0.1675
11
1.2775000000000001
21
0.1675
0
LINE
8
BLACK
6
CONTINUOUS
10
1.2775000000000001
20
0.1675
11
1.2775000000000001
21
0.2325
0
LINE
8
BLACK
6
CONTINUOUS
10
1.2775000000000001
20
0.2325
11
1.2981889763779528
21
0.2325
0
LINE
8
BLACK
6
CONTINUOUS
10
1.2981889763779528
20
0.2325
11
1.2981889763779528
21
0.5532881102362205
0
LINE
8
BLACK
6
CONTINUOUS
10
1.2981889763779528
20
0.5532881102362205
11
1.1428881102362205
21
0.7085889763779527
0
LINE
8
BLACK
6
CONTINUOUS
10
1.1428881102362205
20
0.7085889763779527
11
1.0321487007874015
21
0.7085889763779527
0
LINE
8
BLACK
6
CONTINUOUS
10
1.0321487007874015
20
0.7085889763779527
11
1.0200858267716535
21
0.7085889763779527
0
LINE
8
BLACK
6
CONTINUOUS
10
1.0200858267716535
20
0.7085889763779527
11
1.0188600787401574
21
0.7071743700787402
0
LINE
8
BLACK
6
CONTINUOUS
10
1.0188600787401574
20
0.7071743700787402
11
1.0146697637795274
21
0.7044814566929134
0
LINE
8
BLACK
6
CONTINUOUS
10
1.0146697637795274
20
0.7044814566929134
11
1.0098905118110235
21
0.7030781102362205
0
LINE
8
BLACK
6
CONTINUOUS
10
1.0098905118110235
20
0.7030781102362205
11
1.0049094881889764
21
0.7030781102362205
0
LINE
8
BLACK
6
CONTINUOUS
10
1.0049094881889764
20
0.7030781102362205
11
1.0001302362204725
21
0.7044814566929134
0
LINE
8
BLACK
6
CONTINUOUS
10
1.0001302362204725
20
0.7044814566929134
11
0.9959399212598425
21
0.7071743700787402
0
LINE
8
BLACK
6
CONTINUOUS
10
0.9959399212598425
20
0.7071743700787402
11
0.9947141732283464
21
0.7085889763779527
0
LINE
8
BLACK
6
CONTINUOUS
10
0.9947141732283464
20
0.7085889763779527
11
0.9826512992125984
21
0.7085889763779527
0
LINE
8
BLACK
6
CONTINUOUS
10
0.9826512992125984
20
0.7085889763779527
11
0.9064196062992126
21
0.7085889763779527
0
LINE
8
BLACK
6
CONTINUOUS
10
0.9064196062992126
20
0.7085889763779527
11
0.9060377165354331
21
0.7086243307086614
0
LINE
8
BLACK
6
CONTINUOUS
10
0.9060377165354331
20
0.7086243307086614
11
0.9058741338582676
21
0.7086015354330708
0
LINE
8
BLACK
6
CONTINUOUS
10
0.9058741338582676
20
0.7086015354330708
11
0.9056076377952755
21
0.7086642125984252
0
LINE
8
BLACK
6
CONTINUOUS
10
0.9056076377952755
20
0.7086642125984252
11
0.9042493307086614
21
0.7087900787401574
0
LINE
8
BLACK
6
CONTINUOUS
10
0.9042493307086614
20
0.7087900787401574
11
0.9029771259842519
21
0.7092829133858267
0
LINE
8
BLACK
6
CONTINUOUS
10
0.9029771259842519
20
0.7092829133858267
11
0.9016488582677166
21
0.7095953543307086
0
LINE
8
BLACK
6
CONTINUOUS
10
0.9016488582677166
20
0.7095953543307086
11
0.9009696062992126
21
0.7100606299212598
0
LINE
8
BLACK
6
CONTINUOUS
10
0.9009696062992126
20
0.7100606299212598
11
0.9002018897637795
21
0.7103580708661417
0
LINE
8
BLACK
6
CONTINUOUS
10
0.9002018897637795
20
0.7103580708661417
11
0.8991935826771653
21
0.7112772440944882
0
LINE
8
BLACK
6
CONTINUOUS
10
0.8991935826771653
20
0.7112772440944882
11
0.8980679527559055
21
0.7120483464566929
0
LINE
8
BLACK
6
CONTINUOUS
10
0.8980679527559055
20
0.7120483464566929
11
0.7416483464566929
21
0.8684679527559055
0
LINE
8
BLACK
6
CONTINUOUS
10
0.7416483464566929
20
0.8684679527559055
11
0.7414032677165354
21
0.8687630314960629
0
LINE
8
BLACK
6
CONTINUOUS
10
0.7414032677165354
20
0.8687630314960629
11
0.7412715354330709
21
0.8688625590551181
0
LINE
8
BLACK
6
CONTINUOUS
10
0.7412715354330709
20
0.8688625590551181
11
0.7411274803149606
21
0.869095157480315
0
LINE
8
BLACK
6
CONTINUOUS
10
0.7411274803149606
20
0.869095157480315
11
0.7402559448818897
21
0.8701447637795275
0
LINE
8
BLACK
6
CONTINUOUS
10
0.7402559448818897
20
0.8701447637795275
11
0.7397048031496063
21
0.8713928740157481
0
LINE
8
BLACK
6
CONTINUOUS
10
0.7397048031496063
20
0.8713928740157481
11
0.7389865354330708
21
0.8725529921259843
0
LINE
8
BLACK
6
CONTINUOUS
10
0.7389865354330708
20
0.8725529921259843
11
0.7388352362204724
21
0.8733622440944881
0
LINE
8
BLACK
6
CONTINUOUS
10
0.7388352362204724
20
0.8733622440944881
11
0.7385026771653543
21
0.8741154724409449
0
LINE
8
BLACK
6
CONTINUOUS
10
0.7385026771653543
20
0.8741154724409449
11
0.7384396456692913
21
0.8754784645669291
0
LINE
8
BLACK
6
CONTINUOUS
10
0.7384396456692913
20
0.8754784645669291
11
0.7381889763779528
21
0.8768196062992126
0
LINE
8
BLACK
6
CONTINUOUS
10
0.7381889763779528
20
0.8768196062992126
11
0.7381889763779528
21
0.9171793700787402
0
LINE
8
BLACK
6
CONTINUOUS
10
0.7381889763779528
20
0.9171793700787402
11
0.7352780708661417
21
0.920538779527559
0
LINE
8
BLACK
6
CONTINUOUS
10
0.7352780708661417
20
0.920538779527559
11
0.7332088582677165
21
0.92506968503937
0
LINE
8
BLACK
6
CONTINUOUS
10
0.7332088582677165
20
0.92506968503937
11
0.7324999999999999
21
0.9299999999999999
0
LINE
8
BLACK
6
CONTINUOUS
10
0.7324999999999999
20
0.9299999999999999
11
0.7332088582677165
21
0.9349303149606299
0
LINE
8
BLACK
6
CONTINUOUS
10
0.7332088582677165
20
0.9349303149606299
11
0.7352780708661417
21
0.939461220472441
0
LINE
8
BLACK
6
CONTINUOUS
10
0.7352780708661417
20
0.939461220472441
11
0.7385399212598425
21
0.9432256299212598
0
LINE
8
BLACK
6
CONTINUOUS
10
0.7385399212598425
20
0.9432256299212598
11
0.7427302362204724
21
0.9459185433070866
0
LINE
8
BLACK
6
CONTINUOUS
10
0.7427302362204724
20
0.9459185433070866
11
0.7475094881889763
21
0.9473218897637795
0
LINE
8
BLACK
6
CONTINUOUS
10
0.7475094881889763
20
0.9473218897637795
11
0.7524905118110236
21
0.9473218897637795
0
LINE
8
BLACK
6
CONTINUOUS
10
0.7524905118110236
20
0.9473218897637795
11
0.7572697637795276
21
0.9459185433070866
0
LINE
8
BLACK
6
CONTINUOUS
10
1.4424999999999999
20
0.1675
11
1.3774999999999999
21
0.1675
0
LINE
8
BLACK
6
CONTINUOUS
10
1.3774999999999999
20
0.1675
11
1.3774999999999999
21
0.2325
0
LINE
8
BLACK
6
CONTINUOUS
10
1.3774999999999999
20
0.2325
11
1.4424999999999999
21
0.2325
0
LINE
8
BLACK
6
CONTINUOUS
10
1.4424999999999999
20
0.2325
11
1.4424999999999999
21
0.1675
0
LINE
8
BLACK
6
CONTINUOUS
10
1.0666190551181103
20
1.1338232677165354
11
1.0836912204724409
21
1.131441811023622
0
LINE
8
BLACK
6
CONTINUOUS
10
1.0836912204724409
20
1.131441811023622
11
1.1004708267716534
21
1.1274953149606299
0
LINE
8
BLACK
6
CONTINUOUS
10
1.1004708267716534
20
1.1274953149606299
11
1.1168146850393701
21
1.1220173622047245
0
LINE
8
BLACK
6
CONTINUOUS
10
1.1168146850393701
20
1.1220173622047245
11
1.1325834251968503
21
1.1150548031496064
0
LINE
8
BLACK
6
CONTINUOUS
10
1.1325834251968503
20
1.1150548031496064
11
1.1476424409448818
21
1.106666968503937
0
LINE
8
BLACK
6
CONTINUOUS
10
1.1476424409448818
20
1.106666968503937
11
1.1618633070866142
21
1.096925472440945
0
LINE
8
BLACK
6
CONTINUOUS
10
1.1618633070866142
20
1.096925472440945
11
1.1751246456692912
21
1.0859133858267715
0
LINE
8
BLACK
6
CONTINUOUS
10
1.1751246456692912
20
1.0859133858267715
11
1.1873133858267717
21
1.0737246456692913
0
LINE
8
BLACK
6
CONTINUOUS
10
1.1873133858267717
20
1.0737246456692913
11
1.1983254724409449
21
1.0604633070866141
0
LINE
8
BLACK
6
CONTINUOUS
10
1.1983254724409449
20
1.0604633070866141
11
1.2080669685039369
21
1.0462424409448818
0
LINE
8
BLACK
6
CONTINUOUS
10
1.2080669685039369
20
1.0462424409448818
11
1.2164548031496063
21
1.0311834251968504
0
LINE
8
BLACK
6
CONTINUOUS
10
1.2164548031496063
20
1.0311834251968504
11
1.2234173622047244
21
1.0154146850393702
0
LINE
8
BLACK
6
CONTINUOUS
10
1.2234173622047244
20
1.0154146850393702
11
1.2288953149606299
21
0.9990708267716535
0
LINE
8
BLACK
6
CONTINUOUS
10
1.2288953149606299
20
0.9990708267716535
11
1.2328418110236221
21
0.9822912204724409
0
LINE
8
BLACK
6
CONTINUOUS
10
1.2328418110236221
20
0.9822912204724409
11
1.2352232677165353
21
0.9652190551181102
0
LINE
8
BLACK
6
CONTINUOUS
10
1.2352232677165353
20
0.9652190551181102
11
1.2360193700787401
21
0.948
0
LINE
8
BLACK
6
CONTINUOUS
10
1.2360193700787401
20
0.948
11
1.2352232677165353
21
0.9307809448818898
0
LINE
8
BLACK
6
CONTINUOUS
10
1.2352232677165353
20
0.9307809448818898
11
1.2328418110236221
21
0.913708779527559
0
LINE
8
BLACK
6
CONTINUOUS
10
1.2328418110236221
20
0.913708779527559
11
1.2288953149606299
21
0.8969291732283464
0
LINE
8
BLACK
6
CONTINUOUS
10
1.2288953149606299
20
0.8969291732283464
11
1.2234173622047244
21
0.8805853149606299
0
LINE
8
BLACK
6
CONTINUOUS
10
1.2234173622047244
20
0.8805853149606299
11
1.2164548031496063
21
0.8648165748031496
0
LINE
8
BLACK
6
CONTINUOUS
10
1.2164548031496063
20
0.8648165748031496
11
1.2080669685039369
21
0.8497575590551181
0
LINE
8
BLACK
6
CONTINUOUS
10
1.2080669685039369
20
0.8497575590551181
11
1.1983254724409449
21
0.8355366929133858
0
LINE
8
BLACK
6
CONTINUOUS
10
1.1983254724409449
20
0.8355366929133858
11
1.1873133858267717
21
0.8222753543307086
0
LINE
8
BLACK
6
CONTINUOUS
10
1.1873133858267717
20
0.8222753543307086
11
1.1751246456692912
21
0.8100866141732284
0
LINE
8
BLACK
6
CONTINUOUS
10
1.1751246456692912
20
0.8100866141732284
11
1.1618633070866142
21
0.7990745275590551
0
LINE
8
BLACK
6
CONTINUOUS
10
1.1618633070866142
20
0.7990745275590551
11
1.1476424409448818
21
0.7893330314960629
0
LINE
8
BLACK
6
CONTINUOUS
10
1.1476424409448818
20
0.7893330314960629
11
1.1325834251968503
21
0.7809451968503937
0
LINE
8
BLACK
6
CONTINUOUS
10
1.1325834251968503
20
0.7809451968503937
11
1.1168146850393701
21
0.7739826377952755
0
LINE
8
BLACK
6
CONTINUOUS
10
1.1168146850393701
20
0.7739826377952755
11
1.1004708267716534
21
0.7685046850393701
0
LINE
8
BLACK
6
CONTINUOUS
10
1.1004708267716534
20
0.7685046850393701
11
1.0836912204724409
21
0.764558188976378
0
LINE
8
BLACK
6
CONTINUOUS
10
1.0836912204724409
20
0.764558188976378
11
1.0666190551181103
21
0.7621767322834645
0
LINE
8
BLACK
6
CONTINUOUS
10
1.0666190551181103
20
0.7621767322834645
11
1.0493999999999999
21
0.7613806299212599
0
LINE
8
BLACK
6
CONTINUOUS
10
1.0493999999999999
20
0.7613806299212599
11
1.0321809448818897
21
0.7621767322834645
0
LINE
8
BLACK
6
CONTINUOUS
10
1.0321809448818897
20
0.7621767322834645
11
1.0151087795275591
21
0.764558188976378
0
LINE
8
BLACK
6
CONTINUOUS
10
1.0151087795275591
20
0.764558188976378
11
0.9983291732283465
21
0.7685046850393701
0
LINE
8
BLACK
6
CONTINUOUS
10
0.9983291732283465
20
0.7685046850393701
11
0.9819853149606299
21
0.7739826377952755
0
LINE
8
BLACK
6
CONTINUOUS
10
0.9819853149606299
20
0.7739826377952755
11
0.9662165748031496
21
0.7809451968503937
0
LINE
8
BLACK
6
CONTINUOUS
10
0.9662165748031496
20
0.7809451968503937
11
0.9511575590551181
21
0.7893330314960629
0
LINE
8
BLACK
6
CONTINUOUS
10
0.9511575590551181
20
0.7893330314960629
11
0.9369366929133858
21
0.7990745275590551
0
LINE
8
BLACK
6
CONTINUOUS
10
0.9369366929133858
20
0.7990745275590551
11
0.9236753543307087
21
0.8100866141732284
0
LINE
8
BLACK
6
CONTINUOUS
10
0.9236753543307087
20
0.8100866141732284
11
0.9215487401574803
21
0.8122132283464567
0
LINE
8
BLACK
6
CONTINUOUS
10
0.9215487401574803
20
0.8122132283464567
11
0.9142677952755905
21
0.8049322834645669
0
LINE
8
BLACK
6
CONTINUOUS
10
0.9142677952755905
20
0.8049322834645669
11
0.9142677559055118
21
0.8049322047244094
0
LINE
8
BLACK
6
CONTINUOUS
10
0.9142677559055118
20
0.8049322047244094
11
0.9077637401574803
21
0.7984281889763779
0
LINE
8
BLACK
6
CONTINUOUS
10
0.9077637401574803
20
0.7984281889763779
11
0.9079911417322835
21
0.7979303149606299
0
LINE
8
BLACK
6
CONTINUOUS
10
0.9079911417322835
20
0.7979303149606299
11
0.9087
21
0.7929999999999999
0
LINE
8
BLACK
6
CONTINUOUS
10
0.9087
20
0.7929999999999999
11
0.9079911417322835
21
0.78806968503937
0
LINE
8
BLACK
6
CONTINUOUS
10
0.9079911417322835
20
0.78806968503937
11
0.9059219291338583
21
0.783538779527559
0
LINE
8
BLACK
6
CONTINUOUS
10
0.9059219291338583
20
0.783538779527559
11
0.9026600787401574
21
0.7797743700787402
0
LINE
8
BLACK
6
CONTINUOUS
10
0.9026600787401574
20
0.7797743700787402
11
0.8984697637795276
21
0.7770814566929134
0
LINE
8
BLACK
6
CONTINUOUS
10
0.8984697637795276
20
0.7770814566929134
11
0.8936905118110235
21
0.7756781102362205
0
LINE
8
BLACK
6
CONTINUOUS
10
0.8936905118110235
20
0.7756781102362205
11
0.8887094881889763
21
0.7756781102362205
0
LINE
8
BLACK
6
CONTINUOUS
10
0.8887094881889763
20
0.7756781102362205
11
0.8839302362204724
21
0.7770814566929134
0
LINE
8
BLACK
6
CONTINUOUS
10
0.8839302362204724
20
0.7770814566929134
11
0.8797399212598425
21
0.7797743700787402
0
LINE
8
BLACK
6
CONTINUOUS
10
0.8797399212598425
20
0.7797743700787402
11
0.8764780708661417
21
0.783538779527559
0
LINE
8
BLACK
6
CONTINUOUS
10
0.8764780708661417
20
0.783538779527559
11
0.8744088582677165
21
0.78806968503937
0
LINE
8
BLACK
6
CONTINUOUS
10
0.8744088582677165
20
0.78806968503937
11
0.8737
21
0.7929999999999999
0
LINE
8
BLACK
6
CONTINUOUS
10
0.8737
20
0.7929999999999999
11
0.8744088582677165
21
0.7979303149606299
0
LINE
8
BLACK
6
CONTINUOUS
10
0.8744088582677165
20
0.7979303149606299
11
0.8764780708661417
21
0.802461220472441
0
LINE
8
BLACK
6
CONTINUOUS
10
0.8764780708661417
20
0.802461220472441
11
0.8797399212598425
21
0.8062256299212598
0
LINE
8
BLACK
6
CONTINUOUS
10
0.8797399212598425
20
0.8062256299212598
11
0.8839302362204724
21
0.8089185433070866
0
LINE
8
BLACK
6
CONTINUOUS
10
0.8839302362204724
20
0.8089185433070866
11
0.8887094881889763
21
0.8103218897637795
0
LINE
8
BLACK
6
CONTINUOUS
10
0.8887094881889763
20
0.8103218897637795
11
0.8936905118110235
21
0.8103218897637795
0
LINE
8
BLACK
6
CONTINUOUS
10
0.8936905118110235
20
0.8103218897637795
11
0.8965474409448819
21
0.8094829921259842
0
LINE
8
BLACK
6
CONTINUOUS
10
0.8965474409448819
20
0.8094829921259842
11
0.9031322047244095
21
0.8160677559055118
0
LINE
8
BLACK
6
CONTINUOUS
10
0.9031322047244095
20
0.8160677559055118
11
0.9031322834645669
21
0.8160677952755905
0
LINE
8
BLACK
6
CONTINUOUS
10
0.9031322834645669
20
0.8160677952755905
11
0.9105126771653543
21
0.8234481889763779
0
LINE
8
BLACK
6
CONTINUOUS
10
0.9105126771653543
20
0.8234481889763779
11
0.9004745275590551
21
0.8355366929133858
0
LINE
8
BLACK
6
CONTINUOUS
10
0.9004745275590551
20
0.8355366929133858
11
0.890733031496063
21
0.8497575590551181
0
LINE
8
BLACK
6
CONTINUOUS
10
0.890733031496063
20
0.8497575590551181
11
0.8823451968503937
21
0.8648165748031496
0
LINE
8
BLACK
6
CONTINUOUS
10
0.8823451968503937
20
0.8648165748031496
11
0.8753826377952756
21
0.8805853149606299
0
LINE
8
BLACK
6
CONTINUOUS
10
0.8753826377952756
20
0.8805853149606299
11
0.86990468503937
21
0.8969291732283464
0
LINE
8
BLACK
6
CONTINUOUS
10
0.86990468503937
20
0.8969291732283464
11
0.8659581889763779
21
0.913708779527559
0
LINE
8
BLACK
6
CONTINUOUS
10
0.8659581889763779
20
0.913708779527559
11
0.8635767322834645
21
0.9307809448818898
0
LINE
8
BLACK
6
CONTINUOUS
10
0.8635767322834645
20
0.9307809448818898
11
0.8627806299212598
21
0.948
0
LINE
8
BLACK
6
CONTINUOUS
10
0.8627806299212598
20
0.948
11
0.8635767322834645
21
0.9652190551181102
0
LINE
8
BLACK
6
CONTINUOUS
10
0.8635767322834645
20
0.9652190551181102
11
0.8659581889763779
21
0.9822912204724409
0
LINE
8
BLACK
6
CONTINUOUS
10
0.8659581889763779
20
0.9822912204724409
11
0.86990468503937
21
0.9990708267716535
0
LINE
8
BLACK
6
CONTINUOUS
10
0.86990468503937
20
0.9990708267716535
11
0.8753826377952756
21
1.0154146850393702
0
LINE
8
BLACK
6
CONTINUOUS
10
0.8753826377952756
20
1.0154146850393702
11
0.8823451968503937
21
1.0311834251968504
0
LINE
8
BLACK
6
CONTINUOUS
10
0.8823451968503937
20
1.0311834251968504
11
0.890733031496063
21
1.0462424409448818
0
LINE
8
BLACK
6
CONTINUOUS
10
0.890733031496063
20
1.0462424409448818
11
0.9004745275590551
21
1.0604633070866141
0
LINE
8
BLACK
6
CONTINUOUS
10
0.9004745275590551
20
1.0604633070866141
11
0.9114866141732283
21
1.0737246456692913
0
LINE
8
BLACK
6
CONTINUOUS
10
0.9114866141732283
20
1.0737246456692913
11
0.9236753543307087
21
1.0859133858267715
0
LINE
8
BLACK
6
CONTINUOUS
10
0.9236753543307087
20
1.0859133858267715
11
0.9369366929133858
21
1.096925472440945
0
LINE
8
BLACK
6
CONTINUOUS
10
0.9369366929133858
20
1.096925472440945
11
0.9511575590551181
21
1.106666968503937
0
LINE
8
BLACK
6
CONTINUOUS
10
0.9511575590551181
20
1.106666968503937
11
0.9662165748031496
21
1.1150548031496064
0
LINE
8
BLACK
6
CONTINUOUS
10
0.9662165748031496
20
1.1150548031496064
11
0.9819853149606299
21
1.1220173622047245
0
LINE
8
BLACK
6
CONTINUOUS
10
0.9819853149606299
20
1.1220173622047245
11
0.9983291732283465
21
1.1274953149606299
0
LINE
8
BLACK
6
CONTINUOUS
10
0.9983291732283465
20
1.1274953149606299
11
1.0151087795275591
21
1.131441811023622
0
LINE
8
BLACK
6
CONTINUOUS
10
1.0151087795275591
20
1.131441811023622
11
1.0321809448818897
21
1.1338232677165354
0
LINE
8
BLACK
6
CONTINUOUS
10
1.0321809448818897
20
1.1338232677165354
11
1.0493999999999999
21
1.1346193700787401
0
LINE
8
BLACK
6
CONTINUOUS
10
1.0493999999999999
20
1.1346193700787401
11
1.0666190551181103
21
1.1338232677165354
0
LINE
8
BLACK
6
CONTINUOUS
10
0.8850697637795275
20
0.5449185433070866
11
0.8892600787401574
21
0.5422256299212598
0
LINE
8
BLACK
6
CONTINUOUS
10
0.8892600787401574
20
0.5422256299212598
11
0.8925219291338582
21
0.5384612204724409
0
LINE
8
BLACK
6
CONTINUOUS
10
0.8925219291338582
20
0.5384612204724409
11
0.8945911417322835
21
0.5339303149606299
0
LINE
8
BLACK
6
CONTINUOUS
10
0.8945911417322835
20
0.5339303149606299
11
0.8953
21
0.529
0
LINE
8
BLACK
6
CONTINUOUS
10
0.8953
20
0.529
11
0.8945911417322835
21
0.52406968503937
0
LINE
8
BLACK
6
CONTINUOUS
10
0.8945911417322835
20
0.52406968503937
11
0.8925219291338582
21
0.519538779527559
0
LINE
8
BLACK
6
CONTINUOUS
10
0.8925219291338582
20
0.519538779527559
11
0.8892600787401574
21
0.5157743700787402
0
LINE
8
BLACK
6
CONTINUOUS
10
0.8892600787401574
20
0.5157743700787402
11
0.8850697637795275
21
0.5130814566929134
0
LINE
8
BLACK
6
CONTINUOUS
10
0.8850697637795275
20
0.5130814566929134
11
0.8802905118110236
21
0.5116781102362205
0
LINE
8
BLACK
6
CONTINUOUS
10
0.8802905118110236
20
0.5116781102362205
11
0.8753094881889764
21
0.5116781102362205
0
LINE
8
BLACK
6
CONTINUOUS
10
0.8753094881889764
20
0.5116781102362205
11
0.8705302362204724
21
0.5130814566929134
0
LINE
8
BLACK
6
CONTINUOUS
10
0.8705302362204724
20
0.5130814566929134
11
0.8663399212598425
21
0.5157743700787402
0
LINE
8
BLACK
6
CONTINUOUS
10
0.8663399212598425
20
0.5157743700787402
11
0.8651141732283464
21
0.5171889763779527
0
LINE
8
BLACK
6
CONTINUOUS
10
0.8651141732283464
20
0.5171889763779527
11
0.8579435826771653
21
0.5171889763779527
0
LINE
8
BLACK
6
CONTINUOUS
10
0.8579435826771653
20
0.5171889763779527
11
0.8318110236220472
21
0.4910564173228346
0
LINE
8
BLACK
6
CONTINUOUS
10
0.8318110236220472
20
0.4910564173228346
11
0.8318110236220472
21
0.488079094488189
0
LINE
8
BLACK
6
CONTINUOUS
10
0.8318110236220472
20
0.488079094488189
11
0.8330190551181103
21
0.4880232677165354
0
LINE
8
BLACK
6
CONTINUOUS
10
0.8330190551181103
20
0.4880232677165354
11
0.8500912204724409
21
0.485641811023622
0
LINE
8
BLACK
6
CONTINUOUS
10
0.8500912204724409
20
0.485641811023622
11
0.8668708267716535
21
0.4816953149606299
0
LINE
8
BLACK
6
CONTINUOUS
10
0.8668708267716535
20
0.4816953149606299
11
0.8832146850393701
21
0.4762173622047244
0
LINE
8
BLACK
6
CONTINUOUS
10
0.8832146850393701
20
0.4762173622047244
11
0.8989834251968504
21
0.4692548031496063
0
LINE
8
BLACK
6
CONTINUOUS
10
0.8989834251968504
20
0.4692548031496063
11
0.9140424409448819
21
0.460866968503937
0
LINE
8
BLACK
6
CONTINUOUS
10
0.9140424409448819
20
0.460866968503937
11
0.9282633070866142
21
0.4511254724409449
0
LINE
8
BLACK
6
CONTINUOUS
10
0.9282633070866142
20
0.4511254724409449
11
0.9415246456692913
21
0.4401133858267716
0
LINE
8
BLACK
6
CONTINUOUS
10
0.9415246456692913
20
0.4401133858267716
11
0.9537133858267717
21
0.4279246456692913
0
LINE
8
BLACK
6
CONTINUOUS
10
0.9537133858267717
20
0.4279246456692913
11
0.9647254724409449
21
0.4146633070866141
0
LINE
8
BLACK
6
CONTINUOUS
10
0.9647254724409449
20
0.4146633070866141
11
0.974466968503937
21
0.4004424409448819
0
LINE
8
BLACK
6
CONTINUOUS
10
0.974466968503937
20
0.4004424409448819
11
0.9828548031496063
21
0.3853834251968504
0
LINE
8
BLACK
6
CONTINUOUS
10
0.9828548031496063
20
0.3853834251968504
11
0.9898173622047244
21
0.3696146850393701
0
LINE
8
BLACK
6
CONTINUOUS
10
0.9898173622047244
20
0.3696146850393701
11
0.99529531496063
21
0.3532708267716536
0
LINE
8
BLACK
6
CONTINUOUS
10
0.99529531496063
20
0.3532708267716536
11
0.999241811023622
21
0.336491220472441
0
LINE
8
BLACK
6
CONTINUOUS
10
0.999241811023622
20
0.336491220472441
11
1.0016232677165353
21
0.3194190551181103
0
LINE
8
BLACK
6
CONTINUOUS
10
1.0016232677165353
20
0.3194190551181103
11
1.00241937007874
21
0.3022
0
LINE
8
BLACK
6
CONTINUOUS
10
1.00241937007874
20
0.3022
11
1.0016232677165353
21
0.2849809448818897
0
LINE
8
BLACK
6
CONTINUOUS
10
1.0016232677165353
20
0.2849809448818897
11
0.999241811023622
21
0.267908779527559
0
LINE
8
BLACK
6
CONTINUOUS
10
0.999241811023622
20
0.267908779527559
11
0.99529531496063
21
0.2511291732283464
0
LINE
8
BLACK
6
CONTINUOUS
10
0.99529531496063
20
0.2511291732283464
11
0.9898173622047244
21
0.2347853149606299
0
LINE
8
BLACK
6
CONTINUOUS
10
0.9898173622047244
20
0.2347853149606299
11
0.9828548031496063
21
0.2190165748031496
0
LINE
8
BLACK
6
CONTINUOUS
10
0.9828548031496063
20
0.2190165748031496
11
0.974466968503937
21
0.2039575590551181
0
LINE
8
BLACK
6
CONTINUOUS
10
0.974466968503937
20
0.2039575590551181
11
0.9647254724409449
21
0.1897366929133858
0
LINE
8
BLACK
6
CONTINUOUS
10
0.9647254724409449
20
0.1897366929133858
11
0.9537133858267717
21
0.1764753543307087
0
LINE
8
BLACK
6
CONTINUOUS
10
0.9537133858267717
20
0.1764753543307087
11
0.9415246456692913
21
0.1642866141732283
0
LINE
8
BLACK
6
CONTINUOUS
10
0.9415246456692913
20
0.1642866141732283
11
0.9282633070866142
21
0.1532745275590551
0
LINE
8
BLACK
6
CONTINUOUS
10
0.9282633070866142
20
0.1532745275590551
11
0.9140424409448819
21
0.143533031496063
0
LINE
8
BLACK
6
CONTINUOUS
10
0.9140424409448819
20
0.143533031496063
11
0.8989834251968504
21
0.1351451968503937
0
LINE
8
BLACK
6
CONTINUOUS
10
0.8989834251968504
20
0.1351451968503937
11
0.8832146850393701
21
0.1281826377952756
0
LINE
8
BLACK
6
CONTINUOUS
10
0.8832146850393701
20
0.1281826377952756
11
0.8668708267716535
21
0.1227046850393701
0
LINE
8
BLACK
6
CONTINUOUS
10
0.8668708267716535
20
0.1227046850393701
11
0.8500912204724409
21
0.118758188976378
0
LINE
8
BLACK
6
CONTINUOUS
10
0.8500912204724409
20
0.118758188976378
11
0.8330190551181103
21
0.1163767322834646
0
LINE
8
BLACK
6
CONTINUOUS
10
0.8330190551181103
20
0.1163767322834646
11
0.8158
21
0.1155806299212598
0
LINE
8
BLACK
6
CONTINUOUS
10
0.8158
20
0.1155806299212598
11
0.7985809448818898
21
0.1163767322834646
0
LINE
8
BLACK
6
CONTINUOUS
10
0.7985809448818898
20
0.1163767322834646
11
0.781508779527559
21
0.118758188976378
0
LINE
8
BLACK
6
CONTINUOUS
10
0.781508779527559
20
0.118758188976378
11
0.7647291732283464
21
0.1227046850393701
0
LINE
8
BLACK
6
CONTINUOUS
10
0.7647291732283464
20
0.1227046850393701
11
0.7483853149606299
21
0.1281826377952756
0
LINE
8
BLACK
6
CONTINUOUS
10
0.7483853149606299
20
0.1281826377952756
11
0.7326165748031496
21
0.1351451968503937
0
LINE
8
BLACK
6
CONTINUOUS
10
0.7326165748031496
20
0.1351451968503937
11
0.7175575590551181
21
0.143533031496063
0
LINE
8
BLACK
6
CONTINUOUS
10
0.7175575590551181
20
0.143533031496063
11
0.7033366929133859
21
0.1532745275590551
0
LINE
8
BLACK
6
CONTINUOUS
10
0.7033366929133859
20
0.1532745275590551
11
0.6900753543307087
21
0.1642866141732283
0
LINE
8
BLACK
6
CONTINUOUS
10
0.6900753543307087
20
0.1642866141732283
11
0.6778866141732284
21
0.1764753543307087
0
LINE
8
BLACK
6
CONTINUOUS
10
0.6778866141732284
20
0.1764753543307087
11
0.6668745275590551
21
0.1897366929133858
0
LINE
8
BLACK
6
CONTINUOUS
10
0.6668745275590551
20
0.1897366929133858
11
0.6571330314960629
21
0.2039575590551181
0
LINE
8
BLACK
6
CONTINUOUS
10
0.6571330314960629
20
0.2039575590551181
11
0.6487451968503937
21
0.2190165748031496
0
LINE
8
BLACK
6
CONTINUOUS
10
0.6487451968503937
20
0.2190165748031496
11
0.6417826377952756
21
0.2347853149606299
0
LINE
8
BLACK
6
CONTINUOUS
10
0.6417826377952756
20
0.2347853149606299
11
0.6363046850393701
21
0.2511291732283464
0
LINE
8
BLACK
6
CONTINUOUS
10
0.6363046850393701
20
0.2511291732283464
11
0.632358188976378
21
0.267908779527559
0
LINE
8
BLACK
6
CONTINUOUS
10
0.632358188976378
20
0.267908779527559
11
0.6299767322834645
21
0.2849809448818897
0
LINE
8
BLACK
6
CONTINUOUS
10
0.6299767322834645
20
0.2849809448818897
11
0.6291806299212598
21
0.3022
0
LINE
8
BLACK
6
CONTINUOUS
10
0.6291806299212598
20
0.3022
11
0.6299767322834645
21
0.3194190551181103
0
LINE
8
BLACK
6
CONTINUOUS
10
0.6299767322834645
20
0.3194190551181103
11
0.632358188976378
21
0.336491220472441
0
LINE
8
BLACK
6
CONTINUOUS
10
0.632358188976378
20
0.336491220472441
11
0.6363046850393701
21
0.3532708267716536
0
LINE
8
BLACK
6
CONTINUOUS
10
0.6363046850393701
20
0.3532708267716536
11
0.6417826377952756
21
0.3696146850393701
0
LINE
8
BLACK
6
CONTINUOUS
10
0.6417826377952756
20
0.3696146850393701
11
0.6487451968503937
21
0.3853834251968504
0
LINE
8
BLACK
6
CONTINUOUS
10
0.6487451968503937
20
0.3853834251968504
11
0.6571330314960629
21
0.4004424409448819
0
LINE
8
BLACK
6
CONTINUOUS
10
0.6571330314960629
20
0.4004424409448819
11
0.6668745275590551
21
0.4146633070866141
0
LINE
8
BLACK
6
CONTINUOUS
10
0.6668745275590551
20
0.4146633070866141
11
0.6778866141732284
21
0.4279246456692913
0
LINE
8
BLACK
6
CONTINUOUS
10
0.6778866141732284
20
0.4279246456692913
11
0.6900753543307087
21
0.4401133858267716
0
LINE
8
BLACK
6
CONTINUOUS
10
0.6900753543307087
20
0.4401133858267716
11
0.7033366929133859
21
0.4511254724409449
0
LINE
8
BLACK
6
CONTINUOUS
10
0.7033366929133859
20
0.4511254724409449
11
0.7175575590551181
21
0.460866968503937
0
LINE
8
BLACK
6
CONTINUOUS
10
0.7175575590551181
20
0.460866968503937
11
0.7326165748031496
21
0.4692548031496063
0
LINE
8
BLACK
6
CONTINUOUS
10
0.7326165748031496
20
0.4692548031496063
11
0.7483853149606299
21
0.4762173622047244
0
LINE
8
BLACK
6
CONTINUOUS
10
0.7483853149606299
20
0.4762173622047244
11
0.7647291732283464
21
0.4816953149606299
0
LINE
8
BLACK
6
CONTINUOUS
10
0.7647291732283464
20
0.4816953149606299
11
0.781508779527559
21
0.485641811023622
0
LINE
8
BLACK
6
CONTINUOUS
10
0.781508779527559
20
0.485641811023622
11
0.7985809448818898
21
0.4880232677165354
0
LINE
8
BLACK
6
CONTINUOUS
10
0.7985809448818898
20
0.4880232677165354
11
0.8081889763779527
21
0.4884674803149606
0
LINE
8
BLACK
6
CONTINUOUS
10
0.8081889763779527
20
0.4884674803149606
11
0.8081889763779527
21
0.4953188582677165
0
LINE
8
BLACK
6
CONTINUOUS
10
0.8081889763779527
20
0.4953188582677165
11
0.8081889763779527
21
0.4959487007874016
0
LINE
8
BLACK
6
CONTINUOUS
10
0.8081889763779527
20
0.4959487007874016
11
0.8082243700787402
21
0.4963307086614173
0
LINE
8
BLACK
6
CONTINUOUS
10
0.8082243700787402
20
0.4963307086614173
11
0.8082015748031496
21
0.4964941732283464
0
LINE
8
BLACK
6
CONTINUOUS
10
0.8082015748031496
20
0.4964941732283464
11
0.8082641732283464
21
0.4967603937007874
0
LINE
8
BLACK
6
CONTINUOUS
10
0.8082641732283464
20
0.4967603937007874
11
0.8083900787401574
21
0.4981189763779528
0
LINE
8
BLACK
6
CONTINUOUS
10
0.8083900787401574
20
0.4981189763779528
11
0.8088829527559055
21
0.4993912598425197
0
LINE
8
BLACK
6
CONTINUOUS
10
0.8088829527559055
20
0.4993912598425197
11
0.8091953543307087
21
0.5007194488188976
0
LINE
8
BLACK
6
CONTINUOUS
10
0.8091953543307087
20
0.5007194488188976
11
0.8096606299212599
21
0.5013986614173228
0
LINE
8
BLACK
6
CONTINUOUS
10
0.8096606299212599
20
0.5013986614173228
11
0.8099580708661417
21
0.5021664173228346
0
LINE
8
BLACK
6
CONTINUOUS
10
0.8099580708661417
20
0.5021664173228346
11
0.8108772440944881
21
0.50317468503937
0
LINE
8
BLACK
6
CONTINUOUS
10
0.8108772440944881
20
0.50317468503937
11
0.8116483464566929
21
0.5043003543307086
0
LINE
8
BLACK
6
CONTINUOUS
10
0.8116483464566929
20
0.5043003543307086
11
0.8446996456692913
21
0.5373516535433071
0
LINE
8
BLACK
6
CONTINUOUS
10
0.8446996456692913
20
0.5373516535433071
11
0.8449947637795275
21
0.5375966929133859
0
LINE
8
BLACK
6
CONTINUOUS
10
0.8449947637795275
20
0.5375966929133859
11
0.845094251968504
21
0.5377284645669291
0
LINE
8
BLACK
6
CONTINUOUS
10
0.845094251968504
20
0.5377284645669291
11
0.8453267716535433
21
0.5378724409448818
0
LINE
8
BLACK
6
CONTINUOUS
10
0.8453267716535433
20
0.5378724409448818
11
0.8463764566929134
21
0.5387440944881889
0
LINE
8
BLACK
6
CONTINUOUS
10
0.8463764566929134
20
0.5387440944881889
11
0.8476246850393701
21
0.5392952362204724
0
LINE
8
BLACK
6
CONTINUOUS
10
0.8476246850393701
20
0.5392952362204724
11
0.8487846850393701
21
0.5400134645669291
0
LINE
8
BLACK
6
CONTINUOUS
10
0.8487846850393701
20
0.5400134645669291
11
0.8495939763779528
21
0.5401647244094488
0
LINE
8
BLACK
6
CONTINUOUS
10
0.8495939763779528
20
0.5401647244094488
11
0.8503472047244094
21
0.5404973228346457
0
LINE
8
BLACK
6
CONTINUOUS
10
0.8503472047244094
20
0.5404973228346457
11
0.851710157480315
21
0.54056031496063
0
LINE
8
BLACK
6
CONTINUOUS
10
0.851710157480315
20
0.54056031496063
11
0.8530512992125984
21
0.5408110236220472
0
LINE
8
BLACK
6
CONTINUOUS
10
0.8530512992125984
20
0.5408110236220472
11
0.8651141732283464
21
0.5408110236220472
0
LINE
8
BLACK
6
CONTINUOUS
10
0.8651141732283464
20
0.5408110236220472
11
0.8663399212598425
21
0.5422256299212598
0
LINE
8
BLACK
6
CONTINUOUS
10
0.8663399212598425
20
0.5422256299212598
11
0.8705302362204724
21
0.5449185433070866
0
LINE
8
BLACK
6
CONTINUOUS
10
0.8705302362204724
20
0.5449185433070866
11
0.8753094881889764
21
0.5463218897637795
0
LINE
8
BLACK
6
CONTINUOUS
10
0.8753094881889764
20
0.5463218897637795
11
0.8802905118110236
21
0.5463218897637795
0
LINE
8
BLACK
6
CONTINUOUS
10
0.8802905118110236
20
0.5463218897637795
11
0.8850697637795275
21
0.5449185433070866
0
LINE
8
BLACK
6
CONTINUOUS
10
0.5657
20
0.4485
11
0.5007
21
0.4485
0
LINE
8
BLACK
6
CONTINUOUS
10
0.5007
20
0.4485
11
0.5007
21
0.5135
0
LINE
8
BLACK
6
CONTINUOUS
10
0.5007
20
0.5135
11
0.5657
21
0.5135
0
LINE
8
BLACK
6
CONTINUOUS
10
0.5657
20
0.5135
11
0.5657
21
0.4485
0
LINE
8
BLACK
6
CONTINUOUS
10
1.7925
20
0.4875
11
1.7275
21
0.4875
0
LINE
8
BLACK
6
CONTINUOUS
10
1.7275
20
0.4875
11
1.7275
21
0.5525
0
LINE
8
BLACK
6
CONTINUOUS
10
1.7275
20
0.5525
11
1.7925
21
0.5525
0
LINE
8
BLACK
6
CONTINUOUS
10
1.7925
20
0.5525
11
1.7925
21
0.4875
0
LINE
8
BLACK
6
CONTINUOUS
10
1.8924999999999998
20
0.4875
11
1.8274999999999999
21
0.4875
0
LINE
8
BLACK
6
CONTINUOUS
10
1.8274999999999999
20
0.4875
11
1.8274999999999999
21
0.5525
0
LINE
8
BLACK
6
CONTINUOUS
10
1.8274999999999999
20
0.5525
11
1.8924999999999998
21
0.5525
0
LINE
8
BLACK
6
CONTINUOUS
10
1.8924999999999998
20
0.5525
11
1.8924999999999998
21
0.4875
0
LINE
8
BLACK
6
CONTINUOUS
10
0.1825
20
0.5875
11
0.1175
21
0.5875
0
LINE
8
BLACK
6
CONTINUOUS
10
0.1175
20
0.5875
11
0.1175
21
0.6525
0
LINE
8
BLACK
6
CONTINUOUS
10
0.1175
20
0.6525
11
0.1825
21
0.6525
0
LINE
8
BLACK
6
CONTINUOUS
10
0.1825
20
0.6525
11
0.1825
21
0.5875
0
LINE
8
BLACK
6
CONTINUOUS
10
0.2825
20
0.5875
11
0.2175
21
0.5875
0
LINE
8
BLACK
6
CONTINUOUS
10
0.2175
20
0.5875
11
0.2175
21
0.6525
0
LINE
8
BLACK
6
CONTINUOUS
10
0.2175
20
0.6525
11
0.2825
21
0.6525
0
LINE
8
BLACK
6
CONTINUOUS
10
0.2825
20
0.6525
11
0.2825
21
0.5875
0
LINE
8
BLACK
6
CONTINUOUS
10
1.9857331102362203
20
1.1872243307086614
11
1.9875635433070866
21
1.1851118897637796
0
LINE
8
BLACK
6
CONTINUOUS
10
1.9875635433070866
20
1.1851118897637796
11
1.988011811023622
21
1.1830511811023621
0
LINE
8
BLACK
6
CONTINUOUS
10
1.988011811023622
20
1.1830511811023621
11
1.988011811023622
21
0.0169488188976378
0
LINE
8
BLACK
6
CONTINUOUS
10
1.988011811023622
20
0.0169488188976378
11
1.9872243307086614
21
0.0142668897637795
0
LINE
8
BLACK
6
CONTINUOUS
10
1.9872243307086614
20
0.0142668897637795
11
1.9851118897637794
21
0.0124364566929134
0
LINE
8
BLACK
6
CONTINUOUS
10
1.9851118897637794
20
0.0124364566929134
11
1.9830511811023621
21
0.011988188976378
0
LINE
8
BLACK
6
CONTINUOUS
10
1.9830511811023621
20
0.011988188976378
11
0.0169488188976378
21
0.011988188976378
0
LINE
8
BLACK
6
CONTINUOUS
10
0.0169488188976378
20
0.011988188976378
11
0.0142668897637795
21
0.0127756692913386
0
LINE
8
BLACK
6
CONTINUOUS
10
0.0142668897637795
20
0.0127756692913386
11
0.0124364566929134
21
0.0148881102362205
0
LINE
8
BLACK
6
CONTINUOUS
10
0.0124364566929134
20
0.0148881102362205
11
0.011988188976378
21
0.0169488188976378
0
LINE
8
BLACK
6
CONTINUOUS
10
0.011988188976378
20
0.0169488188976378
11
0.011988188976378
21
0.3021999212598425
0
LINE
8
BLACK
6
CONTINUOUS
10
0.011988188976378
20
0.3021999212598425
11
0.011988188976378
21
0.4465846456692913
0
LINE
8
BLACK
6
CONTINUOUS
10
0.011988188976378
20
0.4465846456692913
11
0.011988188976378
21
0.5855846456692914
0
LINE
8
BLACK
6
CONTINUOUS
10
0.011988188976378
20
0.5855846456692914
11
0.011988188976378
21
0.929999842519685
0
LINE
8
BLACK
6
CONTINUOUS
10
0.011988188976378
20
0.929999842519685
11
0.011988188976378
21
1.1830511811023621
0
LINE
8
BLACK
6
CONTINUOUS
10
0.011988188976378
20
1.1830511811023621
11
0.0127756692913386
21
1.1857331102362205
0
LINE
8
BLACK
6
CONTINUOUS
10
0.0127756692913386
20
1.1857331102362205
11
0.0148881102362205
21
1.1875635433070866
0
LINE
8
BLACK
6
CONTINUOUS
10
0.0148881102362205
20
1.1875635433070866
11
0.0169488188976378
21
1.188011811023622
0
LINE
8
BLACK
6
CONTINUOUS
10
0.0169488188976378
20
1.188011811023622
11
1.9830511811023621
21
1.188011811023622
0
LINE
8
BLACK
6
CONTINUOUS
10
1.9830511811023621
20
1.188011811023622
11
1.9857331102362203
21
1.1872243307086614
0
LINE
8
BLACK
6
CONTINUOUS
10
1.0448932677165355
20
1.1546391338582678
11
1.0313730708661417
21
1.1540488188976377
0
LINE
8
BLACK
6
CONTINUOUS
10
1.0313730708661417
20
1.1540488188976377
11
1.013483307086614
21
1.151693622047244
0
LINE
8
BLACK
6
CONTINUOUS
10
1.013483307086614
20
1.151693622047244
11
0.9958669291338582
21
1.1477881496062992
0
LINE
8
BLACK
6
CONTINUOUS
10
0.9958669291338582
20
1.1477881496062992
11
0.9786579527559055
21
1.1423621653543308
0
LINE
8
BLACK
6
CONTINUOUS
10
0.9786579527559055
20
1.1423621653543308
11
0.9668696062992126
21
1.1374792913385827
0
LINE
8
BLACK
6
CONTINUOUS
10
0.9668696062992126
20
1.1374792913385827
11
0.9619870472440945
21
1.1354568897637796
0
LINE
8
BLACK
6
CONTINUOUS
10
0.9619870472440945
20
1.1354568897637796
11
0.9459827165354331
21
1.1271255118110235
0
LINE
8
BLACK
6
CONTINUOUS
10
0.9459827165354331
20
1.1271255118110235
11
0.9459820472440945
21
1.1271251574803149
0
LINE
8
BLACK
6
CONTINUOUS
10
0.9459820472440945
20
1.1271251574803149
11
0.9307637795275591
21
1.1174300393700787
0
LINE
8
BLACK
6
CONTINUOUS
10
0.9307637795275591
20
1.1174300393700787
11
0.9164484251968503
21
1.1064455118110237
0
LINE
8
BLACK
6
CONTINUOUS
10
0.9164484251968503
20
1.1064455118110237
11
0.9031449212598425
21
1.0942550787401575
0
LINE
8
BLACK
6
CONTINUOUS
10
0.9031449212598425
20
1.0942550787401575
11
0.8909544881889764
21
1.0809515748031495
0
LINE
8
BLACK
6
CONTINUOUS
10
0.8909544881889764
20
1.0809515748031495
11
0.8909543700787401
21
1.0809514173228347
0
LINE
8
BLACK
6
CONTINUOUS
10
0.8909543700787401
20
1.0809514173228347
11
0.8909542913385826
21
1.0809513385826772
0
LINE
8
BLACK
6
CONTINUOUS
10
0.8909542913385826
20
1.0809513385826772
11
0.8799697637795275
21
1.0666359448818898
0
LINE
8
BLACK
6
CONTINUOUS
10
0.8799697637795275
20
1.0666359448818898
11
0.8755198031496063
21
1.0596509055118111
0
LINE
8
BLACK
6
CONTINUOUS
10
0.8755198031496063
20
1.0596509055118111
11
0.870274842519685
21
1.0514179527559055
0
LINE
8
BLACK
6
CONTINUOUS
10
0.870274842519685
20
1.0514179527559055
11
0.8702746456692914
21
1.0514175984251968
0
LINE
8
BLACK
6
CONTINUOUS
10
0.8702746456692914
20
1.0514175984251968
11
0.8702744488188976
21
1.0514172440944882
0
LINE
8
BLACK
6
CONTINUOUS
10
0.8702744488188976
20
1.0514172440944882
11
0.8619430708661417
21
1.0354129133858267
0
LINE
8
BLACK
6
CONTINUOUS
10
0.8619430708661417
20
1.0354129133858267
11
0.855037874015748
21
1.018742125984252
0
LINE
8
BLACK
6
CONTINUOUS
10
0.855037874015748
20
1.018742125984252
11
0.8550375590551181
21
1.0187412598425196
0
LINE
8
BLACK
6
CONTINUOUS
10
0.8550375590551181
20
1.0187412598425196
11
0.8496119291338583
21
1.0015333858267716
0
LINE
8
BLACK
6
CONTINUOUS
10
0.8496119291338583
20
1.0015333858267716
11
0.8496117716535433
21
1.0015327559055118
0
LINE
8
BLACK
6
CONTINUOUS
10
0.8496117716535433
20
1.0015327559055118
11
0.8457064173228346
21
0.9839168897637796
0
LINE
8
BLACK
6
CONTINUOUS
10
0.8457064173228346
20
0.9839168897637796
11
0.8457063385826772
21
0.9839165354330709
0
LINE
8
BLACK
6
CONTINUOUS
10
0.8457063385826772
20
0.9839165354330709
11
0.8433511811023622
21
0.9660272047244094
0
LINE
8
BLACK
6
CONTINUOUS
10
0.8433511811023622
20
0.9660272047244094
11
0.8433511417322834
21
0.9660267716535433
0
LINE
8
BLACK
6
CONTINUOUS
10
0.8433511417322834
20
0.9660267716535433
11
0.8425640944881889
21
0.9480000393700787
0
LINE
8
BLACK
6
CONTINUOUS
10
0.8425640944881889
20
0.9480000393700787
11
0.8425640944881889
21
0.9479999212598424
0
LINE
8
BLACK
6
CONTINUOUS
10
0.8425640944881889
20
0.9479999212598424
11
0.8433511417322834
21
0.9299731889763779
0
LINE
8
BLACK
6
CONTINUOUS
10
0.8433511417322834
20
0.9299731889763779
11
0.8433511811023622
21
0.9299727559055118
0
LINE
8
BLACK
6
CONTINUOUS
10
0.8433511811023622
20
0.9299727559055118
11
0.8457063385826772
21
0.9120834251968504
0
LINE
8
BLACK
6
CONTINUOUS
10
0.8457063385826772
20
0.9120834251968504
11
0.8457064173228346
21
0.9120830708661417
0
LINE
8
BLACK
6
CONTINUOUS
10
0.8457064173228346
20
0.9120830708661417
11
0.8496117716535433
21
0.8944672047244094
0
LINE
8
BLACK
6
CONTINUOUS
10
0.8496117716535433
20
0.8944672047244094
11
0.8496119291338583
21
0.8944665748031496
0
LINE
8
BLACK
6
CONTINUOUS
10
0.8496119291338583
20
0.8944665748031496
11
0.8550375590551181
21
0.8772587007874015
0
LINE
8
BLACK
6
CONTINUOUS
10
0.8550375590551181
20
0.8772587007874015
11
0.855037874015748
21
0.8772578346456693
0
LINE
8
BLACK
6
CONTINUOUS
10
0.855037874015748
20
0.8772578346456693
11
0.8619430708661417
21
0.8605870472440945
0
LINE
8
BLACK
6
CONTINUOUS
10
0.8619430708661417
20
0.8605870472440945
11
0.8702744488188976
21
0.844582716535433
0
LINE
8
BLACK
6
CONTINUOUS
10
0.8702744488188976
20
0.844582716535433
11
0.870274842519685
21
0.8445820472440945
0
LINE
8
BLACK
6
CONTINUOUS
10
0.870274842519685
20
0.8445820472440945
11
0.8770088976377952
21
0.8340116929133858
0
LINE
8
BLACK
6
CONTINUOUS
10
0.8770088976377952
20
0.8340116929133858
11
0.877785748031496
21
0.831326653543307
0
LINE
8
BLACK
6
CONTINUOUS
10
0.877785748031496
20
0.831326653543307
11
0.8769876377952756
21
0.828647874015748
0
LINE
8
BLACK
6
CONTINUOUS
10
0.8769876377952756
20
0.828647874015748
11
0.8751635826771653
21
0.8269714566929134
0
LINE
8
BLACK
6
CONTINUOUS
10
0.8751635826771653
20
0.8269714566929134
11
0.8702543307086614
21
0.8243474015748031
0
LINE
8
BLACK
6
CONTINUOUS
10
0.8702543307086614
20
0.8243474015748031
11
0.864541220472441
21
0.8196587795275591
0
LINE
8
BLACK
6
CONTINUOUS
10
0.864541220472441
20
0.8196587795275591
11
0.8627151574803149
21
0.8174337007874015
0
LINE
8
BLACK
6
CONTINUOUS
10
0.8627151574803149
20
0.8174337007874015
11
0.8624397637795276
21
0.8170981496062992
0
LINE
8
BLACK
6
CONTINUOUS
10
0.8624397637795276
20
0.8170981496062992
11
0.8601296062992125
21
0.8155245669291339
0
LINE
8
BLACK
6
CONTINUOUS
10
0.8601296062992125
20
0.8155245669291339
11
0.8573354724409449
21
0.8154497637795275
0
LINE
8
BLACK
6
CONTINUOUS
10
0.8573354724409449
20
0.8154497637795275
11
0.8550975590551181
21
0.8167374015748031
0
LINE
8
BLACK
6
CONTINUOUS
10
0.8550975590551181
20
0.8167374015748031
11
0.7832835826771654
21
0.8885514173228346
0
LINE
8
BLACK
6
CONTINUOUS
10
0.7832835826771654
20
0.8885514173228346
11
0.7819440551181103
21
0.8910045669291339
0
LINE
8
BLACK
6
CONTINUOUS
10
0.7819440551181103
20
0.8910045669291339
11
0.7818307086614174
21
0.8920590157480315
0
LINE
8
BLACK
6
CONTINUOUS
10
0.7818307086614174
20
0.8920590157480315
11
0.7818307086614174
21
0.908715905511811
0
LINE
8
BLACK
6
CONTINUOUS
10
0.7818307086614174
20
0.908715905511811
11
0.7824164566929134
21
0.9110543307086614
0
LINE
8
BLACK
6
CONTINUOUS
10
0.7824164566929134
20
0.9110543307086614
11
0.7848312992125984
21
0.9155722047244095
0
LINE
8
BLACK
6
CONTINUOUS
10
0.7848312992125984
20
0.9155722047244095
11
0.7848313779527559
21
0.9155723622047244
0
LINE
8
BLACK
6
CONTINUOUS
10
0.7848313779527559
20
0.9155723622047244
11
0.786976811023622
21
0.922644842519685
0
LINE
8
BLACK
6
CONTINUOUS
10
0.786976811023622
20
0.922644842519685
11
0.786976811023622
21
0.9226449212598425
0
LINE
8
BLACK
6
CONTINUOUS
10
0.786976811023622
20
0.9226449212598425
11
0.7869768503937008
21
0.9226450393700787
0
LINE
8
BLACK
6
CONTINUOUS
10
0.7869768503937008
20
0.9226450393700787
11
0.7869768503937008
21
0.9226451181102362
0
LINE
8
BLACK
6
CONTINUOUS
10
0.7869768503937008
20
0.9226451181102362
11
0.787701220472441
21
0.929999842519685
0
LINE
8
BLACK
6
CONTINUOUS
10
0.787701220472441
20
0.929999842519685
11
0.787701220472441
21
0.9300001181102362
0
LINE
8
BLACK
6
CONTINUOUS
10
0.787701220472441
20
0.9300001181102362
11
0.7869768503937008
21
0.937354842519685
0
LINE
8
BLACK
6
CONTINUOUS
10
0.7869768503937008
20
0.937354842519685
11
0.7869768503937008
21
0.9373549212598425
0
LINE
8
BLACK
6
CONTINUOUS
10
0.7869768503937008
20
0.9373549212598425
11
0.786976811023622
21
0.9373549606299212
0
LINE
8
BLACK
6
CONTINUOUS
10
0.786976811023622
20
0.9373549606299212
11
0.786976811023622
21
0.9373551574803149
0
LINE
8
BLACK
6
CONTINUOUS
10
0.786976811023622
20
0.9373551574803149
11
0.7848313779527559
21
0.9444276377952756
0
LINE
8
BLACK
6
CONTINUOUS
10
0.7848313779527559
20
0.9444276377952756
11
0.7813474015748031
21
0.9509456692913386
0
LINE
8
BLACK
6
CONTINUOUS
10
0.7813474015748031
20
0.9509456692913386
11
0.776658779527559
21
0.9566587795275591
0
LINE
8
BLACK
6
CONTINUOUS
10
0.776658779527559
20
0.9566587795275591
11
0.7709456692913386
21
0.9613474015748031
0
LINE
8
BLACK
6
CONTINUOUS
10
0.7709456692913386
20
0.9613474015748031
11
0.7644276377952756
21
0.9648313779527559
0
LINE
8
BLACK
6
CONTINUOUS
10
0.7644276377952756
20
0.9648313779527559
11
0.7573551574803149
21
0.966976811023622
0
LINE
8
BLACK
6
CONTINUOUS
10
0.7573551574803149
20
0.966976811023622
11
0.7573549212598425
21
0.966976811023622
0
LINE
8
BLACK
6
CONTINUOUS
10
0.7573549212598425
20
0.966976811023622
11
0.7573548818897637
21
0.9669768503937007
0
LINE
8
BLACK
6
CONTINUOUS
10
0.7573548818897637
20
0.9669768503937007
11
0.7500001181102363
21
0.9677012204724409
0
LINE
8
BLACK
6
CONTINUOUS
10
0.7500001181102363
20
0.9677012204724409
11
0.7499998818897637
21
0.9677012204724409
0
LINE
8
BLACK
6
CONTINUOUS
10
0.7499998818897637
20
0.9677012204724409
11
0.7426451181102363
21
0.9669768503937007
0
LINE
8
BLACK
6
CONTINUOUS
10
0.7426451181102363
20
0.9669768503937007
11
0.7426450393700788
21
0.9669768503937007
0
LINE
8
BLACK
6
CONTINUOUS
10
0.7426450393700788
20
0.9669768503937007
11
0.7426449212598425
21
0.966976811023622
0
LINE
8
BLACK
6
CONTINUOUS
10
0.7426449212598425
20
0.966976811023622
11
0.742644842519685
21
0.966976811023622
0
LINE
8
BLACK
6
CONTINUOUS
10
0.742644842519685
20
0.966976811023622
11
0.7355723622047244
21
0.9648313779527559
0
LINE
8
BLACK
6
CONTINUOUS
10
0.7355723622047244
20
0.9648313779527559
11
0.7290543307086614
21
0.9613474015748031
0
LINE
8
BLACK
6
CONTINUOUS
10
0.7290543307086614
20
0.9613474015748031
11
0.723341220472441
21
0.9566587795275591
0
LINE
8
BLACK
6
CONTINUOUS
10
0.723341220472441
20
0.9566587795275591
11
0.7186525984251968
21
0.9509456692913386
0
LINE
8
BLACK
6
CONTINUOUS
10
0.7186525984251968
20
0.9509456692913386
11
0.7151686614173228
21
0.9444277559055118
0
LINE
8
BLACK
6
CONTINUOUS
10
0.7151686614173228
20
0.9444277559055118
11
0.7151685826771653
21
0.9444275196850394
0
LINE
8
BLACK
6
CONTINUOUS
10
0.7151685826771653
20
0.9444275196850394
11
0.7130231102362204
21
0.9373549212598425
0
LINE
8
BLACK
6
CONTINUOUS
10
0.7130231102362204
20
0.9373549212598425
11
0.7130231102362204
21
0.937354842519685
0
LINE
8
BLACK
6
CONTINUOUS
10
0.7130231102362204
20
0.937354842519685
11
0.712298779527559
21
0.9300001181102362
0
LINE
8
BLACK
6
CONTINUOUS
10
0.712298779527559
20
0.9300001181102362
11
0.712298779527559
21
0.929999842519685
0
LINE
8
BLACK
6
CONTINUOUS
10
0.712298779527559
20
0.929999842519685
11
0.7130231102362204
21
0.9226451181102362
0
LINE
8
BLACK
6
CONTINUOUS
10
0.7130231102362204
20
0.9226451181102362
11
0.7130231102362204
21
0.9226450393700787
0
LINE
8
BLACK
6
CONTINUOUS
10
0.7130231102362204
20
0.9226450393700787
11
0.7151685826771653
21
0.9155724409448819
0
LINE
8
BLACK
6
CONTINUOUS
10
0.7151685826771653
20
0.9155724409448819
11
0.7151686614173228
21
0.9155722047244095
0
LINE
8
BLACK
6
CONTINUOUS
10
0.7151686614173228
20
0.9155722047244095
11
0.7175835433070866
21
0.9110543307086614
0
LINE
8
BLACK
6
CONTINUOUS
10
0.7175835433070866
20
0.9110543307086614
11
0.7181692913385826
21
0.908715905511811
0
LINE
8
BLACK
6
CONTINUOUS
10
0.7181692913385826
20
0.908715905511811
11
0.7181692913385826
21
0.873233031496063
0
LINE
8
BLACK
6
CONTINUOUS
10
0.7181692913385826
20
0.873233031496063
11
0.7185075590551181
21
0.8717509842519685
0
LINE
8
BLACK
6
CONTINUOUS
10
0.7185075590551181
20
0.8717509842519685
11
0.7186007086614173
21
0.8712026771653543
0
LINE
8
BLACK
6
CONTINUOUS
10
0.7186007086614173
20
0.8712026771653543
11
0.7187709448818898
21
0.8696917716535433
0
LINE
8
BLACK
6
CONTINUOUS
10
0.7187709448818898
20
0.8696917716535433
11
0.7192731102362204
21
0.8682566141732283
0
LINE
8
BLACK
6
CONTINUOUS
10
0.7192731102362204
20
0.8682566141732283
11
0.7194270078740157
21
0.8677223622047244
0
LINE
8
BLACK
6
CONTINUOUS
10
0.7194270078740157
20
0.8677223622047244
11
0.7197653149606299
21
0.8662401968503937
0
LINE
8
BLACK
6
CONTINUOUS
10
0.7197653149606299
20
0.8662401968503937
11
0.7197653543307087
21
0.8662401574803149
0
LINE
8
BLACK
6
CONTINUOUS
10
0.7197653543307087
20
0.8662401574803149
11
0.7204251181102362
21
0.8648700787401574
0
LINE
8
BLACK
6
CONTINUOUS
10
0.7204251181102362
20
0.8648700787401574
11
0.7206379133858267
21
0.8643563385826771
0
LINE
8
BLACK
6
CONTINUOUS
10
0.7206379133858267
20
0.8643563385826771
11
0.7211400787401575
21
0.8629212598425197
0
LINE
8
BLACK
6
CONTINUOUS
10
0.7211400787401575
20
0.8629212598425197
11
0.721948937007874
21
0.8616339370078741
0
LINE
8
BLACK
6
CONTINUOUS
10
0.721948937007874
20
0.8616339370078741
11
0.7222179527559055
21
0.8611472047244094
0
LINE
8
BLACK
6
CONTINUOUS
10
0.7222179527559055
20
0.8611472047244094
11
0.7228775984251968
21
0.8597774409448818
0
LINE
8
BLACK
6
CONTINUOUS
10
0.7228775984251968
20
0.8597774409448818
11
0.7238256692913385
21
0.8585885826771653
0
LINE
8
BLACK
6
CONTINUOUS
10
0.7238256692913385
20
0.8585885826771653
11
0.7241474803149606
21
0.8581350393700787
0
LINE
8
BLACK
6
CONTINUOUS
10
0.7241474803149606
20
0.8581350393700787
11
0.7249562598425197
21
0.8568479133858268
0
LINE
8
BLACK
6
CONTINUOUS
10
0.7249562598425197
20
0.8568479133858268
11
0.7262282283464567
21
0.8555759448818897
0
LINE
8
BLACK
6
CONTINUOUS
10
0.7262282283464567
20
0.8555759448818897
11
0.8813758661417322
21
0.7004283070866142
0
LINE
8
BLACK
6
CONTINUOUS
10
0.8813758661417322
20
0.7004283070866142
11
0.8839118897637795
21
0.6978922834645669
0
LINE
8
BLACK
6
CONTINUOUS
10
0.8839118897637795
20
0.6978922834645669
11
0.886447874015748
21
0.6953562598425197
0
LINE
8
BLACK
6
CONTINUOUS
10
0.886447874015748
20
0.6953562598425197
11
0.887735157480315
21
0.6945474015748031
0
LINE
8
BLACK
6
CONTINUOUS
10
0.887735157480315
20
0.6945474015748031
11
0.888188622047244
21
0.6942256692913386
0
LINE
8
BLACK
6
CONTINUOUS
10
0.888188622047244
20
0.6942256692913386
11
0.8893775984251968
21
0.6932775196850394
0
LINE
8
BLACK
6
CONTINUOUS
10
0.8893775984251968
20
0.6932775196850394
11
0.8907472834645669
21
0.6926179133858268
0
LINE
8
BLACK
6
CONTINUOUS
10
0.8907472834645669
20
0.6926179133858268
11
0.891233937007874
21
0.692348937007874
0
LINE
8
BLACK
6
CONTINUOUS
10
0.891233937007874
20
0.692348937007874
11
0.8925212598425196
21
0.6915400787401574
0
LINE
8
BLACK
6
CONTINUOUS
10
0.8925212598425196
20
0.6915400787401574
11
0.8925214960629921
21
0.6915399606299213
0
LINE
8
BLACK
6
CONTINUOUS
10
0.8925214960629921
20
0.6915399606299213
11
0.8939566535433071
21
0.6910377559055118
0
LINE
8
BLACK
6
CONTINUOUS
10
0.8939566535433071
20
0.6910377559055118
11
0.8944703543307087
21
0.6908249606299213
0
LINE
8
BLACK
6
CONTINUOUS
10
0.8944703543307087
20
0.6908249606299213
11
0.8958397244094488
21
0.6901655118110236
0
LINE
8
BLACK
6
CONTINUOUS
10
0.8958397244094488
20
0.6901655118110236
11
0.89584
21
0.6901653937007873
0
LINE
8
BLACK
6
CONTINUOUS
10
0.89584
20
0.6901653937007873
11
0.8958400787401575
21
0.6901653937007873
0
LINE
8
BLACK
6
CONTINUOUS
10
0.8958400787401575
20
0.6901653937007873
11
0.895840157480315
21
0.6901653543307087
0
LINE
8
BLACK
6
CONTINUOUS
10
0.895840157480315
20
0.6901653543307087
11
0.8958402362204724
21
0.6901653543307087
0
LINE
8
BLACK
6
CONTINUOUS
10
0.8958402362204724
20
0.6901653543307087
11
0.8973224409448819
21
0.6898270078740157
0
LINE
8
BLACK
6
CONTINUOUS
10
0.8973224409448819
20
0.6898270078740157
11
0.8978567322834645
21
0.6896731102362205
0
LINE
8
BLACK
6
CONTINUOUS
10
0.8978567322834645
20
0.6896731102362205
11
0.8992917716535432
21
0.6891709842519685
0
LINE
8
BLACK
6
CONTINUOUS
10
0.8992917716535432
20
0.6891709842519685
11
0.8992920078740158
21
0.6891709448818898
0
LINE
8
BLACK
6
CONTINUOUS
10
0.8992920078740158
20
0.6891709448818898
11
0.9008027165354331
21
0.6890006692913385
0
LINE
8
BLACK
6
CONTINUOUS
10
0.9008027165354331
20
0.6890006692913385
11
0.9013508661417322
21
0.6889075196850394
0
LINE
8
BLACK
6
CONTINUOUS
10
0.9013508661417322
20
0.6889075196850394
11
0.9028329921259842
21
0.6885692519685039
0
LINE
8
BLACK
6
CONTINUOUS
10
0.9028329921259842
20
0.6885692519685039
11
0.9028331496062992
21
0.6885692519685039
0
LINE
8
BLACK
6
CONTINUOUS
10
0.9028331496062992
20
0.6885692519685039
11
0.9103099606299212
21
0.6885692519685039
0
LINE
8
BLACK
6
CONTINUOUS
10
0.9103099606299212
20
0.6885692519685039
11
0.9103105905511811
21
0.6885692913385827
0
LINE
8
BLACK
6
CONTINUOUS
10
0.9103105905511811
20
0.6885692913385827
11
0.9808636614173228
21
0.6885692913385827
0
LINE
8
BLACK
6
CONTINUOUS
10
0.9808636614173228
20
0.6885692913385827
11
0.9861159842519684
21
0.6885692913385827
0
LINE
8
BLACK
6
CONTINUOUS
10
0.9861159842519684
20
0.6885692913385827
11
0.9884543307086614
21
0.6879835433070866
0
LINE
8
BLACK
6
CONTINUOUS
10
0.9884543307086614
20
0.6879835433070866
11
0.9929723622047244
21
0.6855686220472441
0
LINE
8
BLACK
6
CONTINUOUS
10
0.9929723622047244
20
0.6855686220472441
11
0.9929724409448819
21
0.6855685826771654
0
LINE
8
BLACK
6
CONTINUOUS
10
0.9929724409448819
20
0.6855685826771654
11
1.0000450787401574
21
0.6834231102362205
0
LINE
8
BLACK
6
CONTINUOUS
10
1.0000450787401574
20
0.6834231102362205
11
1.0073998818897638
21
0.6826987795275591
0
LINE
8
BLACK
6
CONTINUOUS
10
1.0073998818897638
20
0.6826987795275591
11
1.0074000000000001
21
0.6826987795275591
0
LINE
8
BLACK
6
CONTINUOUS
10
1.0074000000000001
20
0.6826987795275591
11
1.0074001181102361
21
0.6826987795275591
0
LINE
8
BLACK
6
CONTINUOUS
10
1.0074001181102361
20
0.6826987795275591
11
1.0147548425196851
21
0.6834231102362205
0
LINE
8
BLACK
6
CONTINUOUS
10
1.0147548425196851
20
0.6834231102362205
11
1.0147549212598426
21
0.6834231102362205
0
LINE
8
BLACK
6
CONTINUOUS
10
1.0147549212598426
20
0.6834231102362205
11
1.0218275196850393
21
0.6855685826771654
0
LINE
8
BLACK
6
CONTINUOUS
10
1.0218275196850393
20
0.6855685826771654
11
1.021827559055118
21
0.6855685826771654
0
LINE
8
BLACK
6
CONTINUOUS
10
1.021827559055118
20
0.6855685826771654
11
1.0218276377952755
21
0.6855686220472441
0
LINE
8
BLACK
6
CONTINUOUS
10
1.0218276377952755
20
0.6855686220472441
11
1.0263456299212599
21
0.6879835433070866
0
LINE
8
BLACK
6
CONTINUOUS
10
1.0263456299212599
20
0.6879835433070866
11
1.0286840157480315
21
0.6885692913385827
0
LINE
8
BLACK
6
CONTINUOUS
10
1.0286840157480315
20
0.6885692913385827
11
1.030361062992126
21
0.6885692913385827
0
LINE
8
BLACK
6
CONTINUOUS
10
1.030361062992126
20
0.6885692913385827
11
1.1325409448818897
21
0.6885692913385827
0
LINE
8
BLACK
6
CONTINUOUS
10
1.1325409448818897
20
0.6885692913385827
11
1.135222874015748
21
0.687781811023622
0
LINE
8
BLACK
6
CONTINUOUS
10
1.135222874015748
20
0.687781811023622
11
1.1360486220472441
21
0.6871163385826772
0
LINE
8
BLACK
6
CONTINUOUS
10
1.1360486220472441
20
0.6871163385826772
11
1.2080624015748032
21
0.6151025196850394
0
LINE
8
BLACK
6
CONTINUOUS
10
1.2080624015748032
20
0.6151025196850394
11
1.2094020078740157
21
0.6126492913385827
0
LINE
8
BLACK
6
CONTINUOUS
10
1.2094020078740157
20
0.6126492913385827
11
1.2092025984251968
21
0.6098612598425197
0
LINE
8
BLACK
6
CONTINUOUS
10
1.2092025984251968
20
0.6098612598425197
11
1.2075275196850392
21
0.6076236614173228
0
LINE
8
BLACK
6
CONTINUOUS
10
1.2075275196850392
20
0.6076236614173228
11
1.204908622047244
21
0.6066468503937008
0
LINE
8
BLACK
6
CONTINUOUS
10
1.204908622047244
20
0.6066468503937008
11
1.2040685039370078
21
0.6066581102362204
0
LINE
8
BLACK
6
CONTINUOUS
10
1.2040685039370078
20
0.6066581102362204
11
1.2016001181102363
21
0.6069012204724409
0
LINE
8
BLACK
6
CONTINUOUS
10
1.2016001181102363
20
0.6069012204724409
11
1.2015998818897637
21
0.6069012204724409
0
LINE
8
BLACK
6
CONTINUOUS
10
1.2015998818897637
20
0.6069012204724409
11
1.1942451181102363
21
0.6061768503937007
0
LINE
8
BLACK
6
CONTINUOUS
10
1.1942451181102363
20
0.6061768503937007
11
1.1942450393700788
21
0.6061768503937007
0
LINE
8
BLACK
6
CONTINUOUS
10
1.1942450393700788
20
0.6061768503937007
11
1.1942449212598425
21
0.6061768110236221
0
LINE
8
BLACK
6
CONTINUOUS
10
1.1942449212598425
20
0.6061768110236221
11
1.194244842519685
21
0.6061768110236221
0
LINE
8
BLACK
6
CONTINUOUS
10
1.194244842519685
20
0.6061768110236221
11
1.1871723622047243
21
0.6040313779527559
0
LINE
8
BLACK
6
CONTINUOUS
10
1.1871723622047243
20
0.6040313779527559
11
1.1806543307086614
21
0.6005474015748031
0
LINE
8
BLACK
6
CONTINUOUS
10
1.1806543307086614
20
0.6005474015748031
11
1.174941220472441
21
0.5958587795275591
0
LINE
8
BLACK
6
CONTINUOUS
10
1.174941220472441
20
0.5958587795275591
11
1.1705816929133859
21
0.5905466929133858
0
LINE
8
BLACK
6
CONTINUOUS
10
1.1705816929133859
20
0.5905466929133858
11
1.1702525984251968
21
0.5901456692913386
0
LINE
8
BLACK
6
CONTINUOUS
10
1.1702525984251968
20
0.5901456692913386
11
1.1667686614173227
21
0.5836277559055117
0
LINE
8
BLACK
6
CONTINUOUS
10
1.1667686614173227
20
0.5836277559055117
11
1.1667685826771654
21
0.5836275196850393
0
LINE
8
BLACK
6
CONTINUOUS
10
1.1667685826771654
20
0.5836275196850393
11
1.1646231102362203
21
0.5765549212598425
0
LINE
8
BLACK
6
CONTINUOUS
10
1.1646231102362203
20
0.5765549212598425
11
1.1646231102362203
21
0.576554842519685
0
LINE
8
BLACK
6
CONTINUOUS
10
1.1646231102362203
20
0.576554842519685
11
1.163898779527559
21
0.5692001181102362
0
LINE
8
BLACK
6
CONTINUOUS
10
1.163898779527559
20
0.5692001181102362
11
1.163898779527559
21
0.569199842519685
0
LINE
8
BLACK
6
CONTINUOUS
10
1.163898779527559
20
0.569199842519685
11
1.1646231102362203
21
0.5618451181102362
0
LINE
8
BLACK
6
CONTINUOUS
10
1.1646231102362203
20
0.5618451181102362
11
1.1646231102362203
21
0.5618450393700787
0
LINE
8
BLACK
6
CONTINUOUS
10
1.1646231102362203
20
0.5618450393700787
11
1.1667685826771654
21
0.5547724409448819
0
LINE
8
BLACK
6
CONTINUOUS
10
1.1667685826771654
20
0.5547724409448819
11
1.1667686614173227
21
0.5547722047244095
0
LINE
8
BLACK
6
CONTINUOUS
10
1.1667686614173227
20
0.5547722047244095
11
1.1702525984251968
21
0.5482542913385826
0
LINE
8
BLACK
6
CONTINUOUS
10
1.1702525984251968
20
0.5482542913385826
11
1.174941220472441
21
0.5425412204724409
0
LINE
8
BLACK
6
CONTINUOUS
10
1.174941220472441
20
0.5425412204724409
11
1.1806542913385827
21
0.5378525984251968
0
LINE
8
BLACK
6
CONTINUOUS
10
1.1806542913385827
20
0.5378525984251968
11
1.1871722834645668
21
0.5343686220472441
0
LINE
8
BLACK
6
CONTINUOUS
10
1.1871722834645668
20
0.5343686220472441
11
1.19207468503937
21
0.5328814566929134
0
LINE
8
BLACK
6
CONTINUOUS
10
1.19207468503937
20
0.5328814566929134
11
1.1941421653543307
21
0.5316423228346456
0
LINE
8
BLACK
6
CONTINUOUS
10
1.1941421653543307
20
0.5316423228346456
11
1.1945161811023621
21
0.5312683464566929
0
LINE
8
BLACK
6
CONTINUOUS
10
1.1945161811023621
20
0.5312683464566929
11
1.1958558661417322
21
0.5288151968503937
0
LINE
8
BLACK
6
CONTINUOUS
10
1.1958558661417322
20
0.5288151968503937
11
1.1959692913385827
21
0.5277604724409448
0
LINE
8
BLACK
6
CONTINUOUS
10
1.1959692913385827
20
0.5277604724409448
11
1.1959692913385827
21
0.3980840157480315
0
LINE
8
BLACK
6
CONTINUOUS
10
1.1959692913385827
20
0.3980840157480315
11
1.1953835433070865
21
0.3957456299212598
0
LINE
8
BLACK
6
CONTINUOUS
10
1.1953835433070865
20
0.3957456299212598
11
1.1938903543307087
21
0.3929520866141732
0
LINE
8
BLACK
6
CONTINUOUS
10
1.1938903543307087
20
0.3929520866141732
11
1.1929685826771654
21
0.3912275984251968
0
LINE
8
BLACK
6
CONTINUOUS
10
1.1929685826771654
20
0.3912275984251968
11
1.1914814566929133
21
0.3863251968503937
0
LINE
8
BLACK
6
CONTINUOUS
10
1.1914814566929133
20
0.3863251968503937
11
1.1902421259842519
21
0.3842575590551181
0
LINE
8
BLACK
6
CONTINUOUS
10
1.1902421259842519
20
0.3842575590551181
11
1.1900283070866142
21
0.3840437401574803
0
LINE
8
BLACK
6
CONTINUOUS
10
1.1900283070866142
20
0.3840437401574803
11
1.1849562598425196
21
0.3789716929133858
0
LINE
8
BLACK
6
CONTINUOUS
10
1.1849562598425196
20
0.3789716929133858
11
1.184147401574803
21
0.3776844094488189
0
LINE
8
BLACK
6
CONTINUOUS
10
1.184147401574803
20
0.3776844094488189
11
1.1838255118110237
21
0.3772307874015748
0
LINE
8
BLACK
6
CONTINUOUS
10
1.1838255118110237
20
0.3772307874015748
11
1.1828776377952757
21
0.3760422047244095
0
LINE
8
BLACK
6
CONTINUOUS
10
1.1828776377952757
20
0.3760422047244095
11
1.1828775590551182
21
0.3760420472440945
0
LINE
8
BLACK
6
CONTINUOUS
10
1.1828775590551182
20
0.3760420472440945
11
1.1822178740157481
21
0.3746722047244094
0
LINE
8
BLACK
6
CONTINUOUS
10
1.1822178740157481
20
0.3746722047244094
11
1.1819488188976377
21
0.3741853937007874
0
LINE
8
BLACK
6
CONTINUOUS
10
1.1819488188976377
20
0.3741853937007874
11
1.1811400393700786
21
0.3728982283464567
0
LINE
8
BLACK
6
CONTINUOUS
10
1.1811400393700786
20
0.3728982283464567
11
1.1811400393700786
21
0.3728981889763779
0
LINE
8
BLACK
6
CONTINUOUS
10
1.1811400393700786
20
0.3728981889763779
11
1.1806379133858267
21
0.3714632283464567
0
LINE
8
BLACK
6
CONTINUOUS
10
1.1806379133858267
20
0.3714632283464567
11
1.1804250393700788
21
0.3709493307086614
0
LINE
8
BLACK
6
CONTINUOUS
10
1.1804250393700788
20
0.3709493307086614
11
1.179765433070866
21
0.3695796850393701
0
LINE
8
BLACK
6
CONTINUOUS
10
1.179765433070866
20
0.3695796850393701
11
1.1797653543307087
21
0.3695793700787401
0
LINE
8
BLACK
6
CONTINUOUS
10
1.1797653543307087
20
0.3695793700787401
11
1.1794269685039369
21
0.3680970472440945
0
LINE
8
BLACK
6
CONTINUOUS
10
1.1794269685039369
20
0.3680970472440945
11
1.1792730314960629
21
0.3675627952755905
0
LINE
8
BLACK
6
CONTINUOUS
10
1.1792730314960629
20
0.3675627952755905
11
1.1787710236220472
21
0.3661280708661417
0
LINE
8
BLACK
6
CONTINUOUS
10
1.1787710236220472
20
0.3661280708661417
11
1.1787709448818897
21
0.3661277952755905
0
LINE
8
BLACK
6
CONTINUOUS
10
1.1787709448818897
20
0.3661277952755905
11
1.1786007086614172
21
0.3646168503937008
0
LINE
8
BLACK
6
CONTINUOUS
10
1.1786007086614172
20
0.3646168503937008
11
1.1785075196850394
21
0.3640685433070866
0
LINE
8
BLACK
6
CONTINUOUS
10
1.1785075196850394
20
0.3640685433070866
11
1.1781692913385826
21
0.3625865748031496
0
LINE
8
BLACK
6
CONTINUOUS
10
1.1781692913385826
20
0.3625865748031496
11
1.1781692913385826
21
0.2572534251968504
0
LINE
8
BLACK
6
CONTINUOUS
10
1.1781692913385826
20
0.2572534251968504
11
1.177381811023622
21
0.2545714960629921
0
LINE
8
BLACK
6
CONTINUOUS
10
1.177381811023622
20
0.2545714960629921
11
1.1752693700787402
21
0.252741062992126
0
LINE
8
BLACK
6
CONTINUOUS
10
1.1752693700787402
20
0.252741062992126
11
1.1737388582677164
21
0.2523212204724409
0
LINE
8
BLACK
6
CONTINUOUS
10
1.1737388582677164
20
0.2523212204724409
11
1.1732009055118109
21
0.2522633858267717
0
LINE
8
BLACK
6
CONTINUOUS
10
1.1732009055118109
20
0.2522633858267717
11
1.1732005905511811
21
0.2522633070866142
0
LINE
8
BLACK
6
CONTINUOUS
10
1.1732005905511811
20
0.2522633070866142
11
1.1701328740157479
21
0.2511190551181102
0
LINE
8
BLACK
6
CONTINUOUS
10
1.1701328740157479
20
0.2511190551181102
11
1.1678069291338582
21
0.2502515354330709
0
LINE
8
BLACK
6
CONTINUOUS
10
1.1678069291338582
20
0.2502515354330709
11
1.1678068503937007
21
0.2502514960629921
0
LINE
8
BLACK
6
CONTINUOUS
10
1.1678068503937007
20
0.2502514960629921
11
1.1678067716535432
21
0.2502514566929134
0
LINE
8
BLACK
6
CONTINUOUS
10
1.1678067716535432
20
0.2502514566929134
11
1.1631983464566928
21
0.2468016141732284
0
LINE
8
BLACK
6
CONTINUOUS
10
1.1631983464566928
20
0.2468016141732284
11
1.1597485039370079
21
0.242193188976378
0
LINE
8
BLACK
6
CONTINUOUS
10
1.1597485039370079
20
0.242193188976378
11
1.1597484251968504
21
0.2421929921259842
0
LINE
8
BLACK
6
CONTINUOUS
10
1.1597484251968504
20
0.2421929921259842
11
1.1577366535433071
21
0.2367993700787402
0
LINE
8
BLACK
6
CONTINUOUS
10
1.1577366535433071
20
0.2367993700787402
11
1.1577365748031496
21
0.2367990551181102
0
LINE
8
BLACK
6
CONTINUOUS
10
1.1577365748031496
20
0.2367990551181102
11
1.1574803149606299
21
0.2344153149606299
0
LINE
8
BLACK
6
CONTINUOUS
10
1.1574803149606299
20
0.2344153149606299
11
1.1574803149606299
21
0.1655846456692913
0
LINE
8
BLACK
6
CONTINUOUS
10
1.1574803149606299
20
0.1655846456692913
11
1.1577365748031496
21
0.163200905511811
0
LINE
8
BLACK
6
CONTINUOUS
10
1.1577365748031496
20
0.163200905511811
11
1.1577366535433071
21
0.1632005905511811
0
LINE
8
BLACK
6
CONTINUOUS
10
1.1577366535433071
20
0.1632005905511811
11
1.1597484251968504
21
0.157806968503937
0
LINE
8
BLACK
6
CONTINUOUS
10
1.1597484251968504
20
0.157806968503937
11
1.1597485039370079
21
0.1578067716535433
0
LINE
8
BLACK
6
CONTINUOUS
10
1.1597485039370079
20
0.1578067716535433
11
1.1633672440944882
21
0.1529727952755905
0
LINE
8
BLACK
6
CONTINUOUS
10
1.1633672440944882
20
0.1529727952755905
11
1.1643440551181101
21
0.1503538976377953
0
LINE
8
BLACK
6
CONTINUOUS
10
1.1643440551181101
20
0.1503538976377953
11
1.1637499212598426
21
0.1476226377952756
0
LINE
8
BLACK
6
CONTINUOUS
10
1.1637499212598426
20
0.1476226377952756
11
1.1633672440944882
21
0.1470272047244094
0
LINE
8
BLACK
6
CONTINUOUS
10
1.1633672440944882
20
0.1470272047244094
11
1.1597485039370079
21
0.1421931889763779
0
LINE
8
BLACK
6
CONTINUOUS
10
1.1597485039370079
20
0.1421931889763779
11
1.1597484251968504
21
0.1421929921259842
0
LINE
8
BLACK
6
CONTINUOUS
10
1.1597484251968504
20
0.1421929921259842
11
1.1577366535433071
21
0.1367993700787402
0
LINE
8
BLACK
6
CONTINUOUS
10
1.1577366535433071
20
0.1367993700787402
11
1.1577365748031496
21
0.1367990551181102
0
LINE
8
BLACK
6
CONTINUOUS
10
1.1577365748031496
20
0.1367990551181102
11
1.1574803149606299
21
0.1344153149606299
0
LINE
8
BLACK
6
CONTINUOUS
10
1.1574803149606299
20
0.1344153149606299
11
1.1574803149606299
21
0.0655846456692913
0
LINE
8
BLACK
6
CONTINUOUS
10
1.1574803149606299
20
0.0655846456692913
11
1.1577365748031496
21
0.063200905511811
0
LINE
8
BLACK
6
CONTINUOUS
10
1.1577365748031496
20
0.063200905511811
11
1.1577366535433071
21
0.0632005905511811
0
LINE
8
BLACK
6
CONTINUOUS
10
1.1577366535433071
20
0.0632005905511811
11
1.1597484251968504
21
0.057806968503937
0
LINE
8
BLACK
6
CONTINUOUS
10
1.1597484251968504
20
0.057806968503937
11
1.1597485039370079
21
0.0578067716535433
0
LINE
8
BLACK
6
CONTINUOUS
10
1.1597485039370079
20
0.0578067716535433
11
1.1631983464566928
21
0.0531983464566929
0
LINE
8
BLACK
6
CONTINUOUS
10
1.1631983464566928
20
0.0531983464566929
11
1.1678067716535432
21
0.0497485039370079
0
LINE
8
BLACK
6
CONTINUOUS
10
1.1678067716535432
20
0.0497485039370079
11
1.1678069685039369
21
0.0497484251968504
0
LINE
8
BLACK
6
CONTINUOUS
10
1.1678069685039369
20
0.0497484251968504
11
1.1732005905511811
21
0.0477366535433071
0
LINE
8
BLACK
6
CONTINUOUS
10
1.1732005905511811
20
0.0477366535433071
11
1.1732009055118109
21
0.0477365748031496
0
LINE
8
BLACK
6
CONTINUOUS
10
1.1732009055118109
20
0.0477365748031496
11
1.1755846456692913
21
0.0474803149606299
0
LINE
8
BLACK
6
CONTINUOUS
10
1.1755846456692913
20
0.0474803149606299
11
1.1755851181102361
21
0.0474803149606299
0
LINE
8
BLACK
6
CONTINUOUS
10
1.1755851181102361
20
0.0474803149606299
11
1.2444153149606298
21
0.0474803149606299
0
LINE
8
BLACK
6
CONTINUOUS
10
1.2444153149606298
20
0.0474803149606299
11
1.2467990551181103
21
0.0477365748031496
0
LINE
8
BLACK
6
CONTINUOUS
10
1.2467990551181103
20
0.0477365748031496
11
1.2467993700787401
21
0.0477366535433071
0
LINE
8
BLACK
6
CONTINUOUS
10
1.2467993700787401
20
0.0477366535433071
11
1.2521929921259842
21
0.0497484251968504
0
LINE
8
BLACK
6
CONTINUOUS
10
1.2521929921259842
20
0.0497484251968504
11
1.252193188976378
21
0.0497485039370079
0
LINE
8
BLACK
6
CONTINUOUS
10
1.252193188976378
20
0.0497485039370079
11
1.2570272047244093
21
0.0533672440944882
0
LINE
8
BLACK
6
CONTINUOUS
10
1.2570272047244093
20
0.0533672440944882
11
1.2596461023622048
21
0.0543440551181102
0
LINE
8
BLACK
6
CONTINUOUS
10
1.2596461023622048
20
0.0543440551181102
11
1.2623773622047243
21
0.0537499212598425
0
LINE
8
BLACK
6
CONTINUOUS
10
1.2623773622047243
20
0.0537499212598425
11
1.2629727952755905
21
0.0533672440944882
0
LINE
8
BLACK
6
CONTINUOUS
10
1.2629727952755905
20
0.0533672440944882
11
1.2678067716535433
21
0.0497485039370079
0
LINE
8
BLACK
6
CONTINUOUS
10
1.2678067716535433
20
0.0497485039370079
11
1.267806968503937
21
0.0497484251968504
0
LINE
8
BLACK
6
CONTINUOUS
10
1.267806968503937
20
0.0497484251968504
11
1.2732005905511812
21
0.0477366535433071
0
LINE
8
BLACK
6
CONTINUOUS
10
1.2732005905511812
20
0.0477366535433071
11
1.273200905511811
21
0.0477365748031496
0
LINE
8
BLACK
6
CONTINUOUS
10
1.273200905511811
20
0.0477365748031496
11
1.2755846456692914
21
0.0474803149606299
0
LINE
8
BLACK
6
CONTINUOUS
10
1.2755846456692914
20
0.0474803149606299
11
1.2755851181102362
21
0.0474803149606299
0
LINE
8
BLACK
6
CONTINUOUS
10
1.2755851181102362
20
0.0474803149606299
11
1.3444153149606299
21
0.0474803149606299
0
LINE
8
BLACK
6
CONTINUOUS
10
1.3444153149606299
20
0.0474803149606299
11
1.3467990551181102
21
0.0477365748031496
0
LINE
8
BLACK
6
CONTINUOUS
10
1.3467990551181102
20
0.0477365748031496
11
1.3467993700787402
21
0.0477366535433071
0
LINE
8
BLACK
6
CONTINUOUS
10
1.3467993700787402
20
0.0477366535433071
11
1.3521929921259843
21
0.0497484251968504
0
LINE
8
BLACK
6
CONTINUOUS
10
1.3521929921259843
20
0.0497484251968504
11
1.3521931889763779
21
0.0497485039370079
0
LINE
8
BLACK
6
CONTINUOUS
10
1.3521931889763779
20
0.0497485039370079
11
1.3570272047244094
21
0.0533672440944882
0
LINE
8
BLACK
6
CONTINUOUS
10
1.3570272047244094
20
0.0533672440944882
11
1.3596461023622046
21
0.0543440551181102
0
LINE
8
BLACK
6
CONTINUOUS
10
1.3596461023622046
20
0.0543440551181102
11
1.3623773622047244
21
0.0537499212598425
0
LINE
8
BLACK
6
CONTINUOUS
10
1.3623773622047244
20
0.0537499212598425
11
1.3629727952755906
21
0.0533672440944882
0
LINE
8
BLACK
6
CONTINUOUS
10
1.3629727952755906
20
0.0533672440944882
11
1.3678067716535434
21
0.0497485039370079
0
LINE
8
BLACK
6
CONTINUOUS
10
1.3678067716535434
20
0.0497485039370079
11
1.3678069685039369
21
0.0497484251968504
0
LINE
8
BLACK
6
CONTINUOUS
10
1.3678069685039369
20
0.0497484251968504
11
1.373200590551181
21
0.0477366535433071
0
LINE
8
BLACK
6
CONTINUOUS
10
1.373200590551181
20
0.0477366535433071
11
1.3732009055118111
21
0.0477365748031496
0
LINE
8
BLACK
6
CONTINUOUS
10
1.3732009055118111
20
0.0477365748031496
11
1.3755846456692913
21
0.0474803149606299
0
LINE
8
BLACK
6
CONTINUOUS
10
1.3755846456692913
20
0.0474803149606299
11
1.3755851181102361
21
0.0474803149606299
0
LINE
8
BLACK
6
CONTINUOUS
10
1.3755851181102361
20
0.0474803149606299
11
1.4444153149606298
21
0.0474803149606299
0
LINE
8
BLACK
6
CONTINUOUS
10
1.4444153149606298
20
0.0474803149606299
11
1.4467990551181102
21
0.0477365748031496
0
LINE
8
BLACK
6
CONTINUOUS
10
1.4467990551181102
20
0.0477365748031496
11
1.44679937007874
21
0.0477366535433071
0
LINE
8
BLACK
6
CONTINUOUS
10
1.44679937007874
20
0.0477366535433071
11
1.4521929921259842
21
0.0497484251968504
0
LINE
8
BLACK
6
CONTINUOUS
10
1.4521929921259842
20
0.0497484251968504
11
1.4521931889763779
21
0.0497485039370079
0
LINE
8
BLACK
6
CONTINUOUS
10
1.4521931889763779
20
0.0497485039370079
11
1.4568016141732283
21
0.0531983464566929
0
LINE
8
BLACK
6
CONTINUOUS
10
1.4568016141732283
20
0.0531983464566929
11
1.4602514566929135
21
0.0578067716535433
0
LINE
8
BLACK
6
CONTINUOUS
10
1.4602514566929135
20
0.0578067716535433
11
1.4602515354330707
21
0.057806968503937
0
LINE
8
BLACK
6
CONTINUOUS
10
1.4602515354330707
20
0.057806968503937
11
1.4622633070866142
21
0.0632005905511811
0
LINE
8
BLACK
6
CONTINUOUS
10
1.4622633070866142
20
0.0632005905511811
11
1.4622633858267715
21
0.063200905511811
0
LINE
8
BLACK
6
CONTINUOUS
10
1.4622633858267715
20
0.063200905511811
11
1.4625196456692913
21
0.0655846456692913
0
LINE
8
BLACK
6
CONTINUOUS
10
1.4625196456692913
20
0.0655846456692913
11
1.46251968503937
21
0.0655853149606299
0
LINE
8
BLACK
6
CONTINUOUS
10
1.46251968503937
20
0.0655853149606299
11
1.46251968503937
21
0.1344146456692913
0
LINE
8
BLACK
6
CONTINUOUS
10
1.46251968503937
20
0.1344146456692913
11
1.4625196456692913
21
0.1344153149606299
0
LINE
8
BLACK
6
CONTINUOUS
10
1.4625196456692913
20
0.1344153149606299
11
1.4622633858267715
21
0.1367990551181102
0
LINE
8
BLACK
6
CONTINUOUS
10
1.4622633858267715
20
0.1367990551181102
11
1.4622633070866142
21
0.1367993700787402
0
LINE
8
BLACK
6
CONTINUOUS
10
1.4622633070866142
20
0.1367993700787402
11
1.4619866141732283
21
0.1375411417322835
0
LINE
8
BLACK
6
CONTINUOUS
10
1.4619866141732283
20
0.1375411417322835
11
1.4602515354330707
21
0.1421930708661417
0
LINE
8
BLACK
6
CONTINUOUS
10
1.4602515354330707
20
0.1421930708661417
11
1.4568016141732283
21
0.1468016141732283
0
LINE
8
BLACK
6
CONTINUOUS
10
1.4568016141732283
20
0.1468016141732283
11
1.456801496062992
21
0.1468016929133858
0
LINE
8
BLACK
6
CONTINUOUS
10
1.456801496062992
20
0.1468016929133858
11
1.4566327165354331
21
0.1470271653543307
0
LINE
8
BLACK
6
CONTINUOUS
10
1.4566327165354331
20
0.1470271653543307
11
1.455655905511811
21
0.149646062992126
0
LINE
8
BLACK
6
CONTINUOUS
10
1.455655905511811
20
0.149646062992126
11
1.4562500393700788
21
0.1523773622047244
0
LINE
8
BLACK
6
CONTINUOUS
10
1.4562500393700788
20
0.1523773622047244
11
1.4566327165354331
21
0.1529728346456693
0
LINE
8
BLACK
6
CONTINUOUS
10
1.4566327165354331
20
0.1529728346456693
11
1.456801496062992
21
0.1531982677165354
0
LINE
8
BLACK
6
CONTINUOUS
10
1.456801496062992
20
0.1531982677165354
11
1.4568016141732283
21
0.1531983858267716
0
LINE
8
BLACK
6
CONTINUOUS
10
1.4568016141732283
20
0.1531983858267716
11
1.4602515354330707
21
0.1578069291338583
0
LINE
8
BLACK
6
CONTINUOUS
10
1.4602515354330707
20
0.1578069291338583
11
1.462263346456693
21
0.1632007480314961
0
LINE
8
BLACK
6
CONTINUOUS
10
1.462263346456693
20
0.1632007480314961
11
1.4622633858267715
21
0.163200905511811
0
LINE
8
BLACK
6
CONTINUOUS
10
1.4622633858267715
20
0.163200905511811
11
1.4625196456692913
21
0.1655846456692913
0
LINE
8
BLACK
6
CONTINUOUS
10
1.4625196456692913
20
0.1655846456692913
11
1.46251968503937
21
0.1655853149606299
0
LINE
8
BLACK
6
CONTINUOUS
10
1.46251968503937
20
0.1655853149606299
11
1.46251968503937
21
0.2344146456692913
0
LINE
8
BLACK
6
CONTINUOUS
10
1.46251968503937
20
0.2344146456692913
11
1.4625196456692913
21
0.2344153149606299
0
LINE
8
BLACK
6
CONTINUOUS
10
1.4625196456692913
20
0.2344153149606299
11
1.4622633858267715
21
0.2367990551181102
0
LINE
8
BLACK
6
CONTINUOUS
10
1.4622633858267715
20
0.2367990551181102
11
1.4622633070866142
21
0.2367993700787402
0
LINE
8
BLACK
6
CONTINUOUS
10
1.4622633070866142
20
0.2367993700787402
11
1.4619866141732283
21
0.2375411417322835
0
LINE
8
BLACK
6
CONTINUOUS
10
1.4619866141732283
20
0.2375411417322835
11
1.4602515354330707
21
0.2421930708661417
0
LINE
8
BLACK
6
CONTINUOUS
10
1.4602515354330707
20
0.2421930708661417
11
1.4568016141732283
21
0.2468016141732284
0
LINE
8
BLACK
6
CONTINUOUS
10
1.4568016141732283
20
0.2468016141732284
11
1.4521930708661417
21
0.2502515354330709
0
LINE
8
BLACK
6
CONTINUOUS
10
1.4521930708661417
20
0.2502515354330709
11
1.446799251968504
21
0.2522633464566929
0
LINE
8
BLACK
6
CONTINUOUS
10
1.446799251968504
20
0.2522633464566929
11
1.4467991732283465
21
0.2522633464566929
0
LINE
8
BLACK
6
CONTINUOUS
10
1.4467991732283465
20
0.2522633464566929
11
1.4467990551181102
21
0.2522633858267717
0
LINE
8
BLACK
6
CONTINUOUS
10
1.4467990551181102
20
0.2522633858267717
11
1.4444153149606298
21
0.2525196456692914
0
LINE
8
BLACK
6
CONTINUOUS
10
1.4444153149606298
20
0.2525196456692914
11
1.444415157480315
21
0.2525196456692914
0
LINE
8
BLACK
6
CONTINUOUS
10
1.444415157480315
20
0.2525196456692914
11
1.4444148818897637
21
0.2525196850393701
0
LINE
8
BLACK
6
CONTINUOUS
10
1.4444148818897637
20
0.2525196850393701
11
1.3755851181102361
21
0.2525196850393701
0
LINE
8
BLACK
6
CONTINUOUS
10
1.3755851181102361
20
0.2525196850393701
11
1.375584842519685
21
0.2525196456692914
0
LINE
8
BLACK
6
CONTINUOUS
10
1.375584842519685
20
0.2525196456692914
11
1.3755846456692913
21
0.2525196456692914
0
LINE
8
BLACK
6
CONTINUOUS
10
1.3755846456692913
20
0.2525196456692914
11
1.3732009055118111
21
0.2522633858267717
0
LINE
8
BLACK
6
CONTINUOUS
10
1.3732009055118111
20
0.2522633858267717
11
1.373200590551181
21
0.2522633070866142
0
LINE
8
BLACK
6
CONTINUOUS
10
1.373200590551181
20
0.2522633070866142
11
1.3701328740157479
21
0.2511190551181102
0
LINE
8
BLACK
6
CONTINUOUS
10
1.3701328740157479
20
0.2511190551181102
11
1.3678069291338582
21
0.2502515354330709
0
LINE
8
BLACK
6
CONTINUOUS
10
1.3678069291338582
20
0.2502515354330709
11
1.3631983858267716
21
0.2468016141732284
0
LINE
8
BLACK
6
CONTINUOUS
10
1.3631983858267716
20
0.2468016141732284
11
1.3631982677165353
21
0.2468014960629921
0
LINE
8
BLACK
6
CONTINUOUS
10
1.3631982677165353
20
0.2468014960629921
11
1.3629728346456693
21
0.2466327165354331
0
LINE
8
BLACK
6
CONTINUOUS
10
1.3629728346456693
20
0.2466327165354331
11
1.3603539370078739
21
0.245655905511811
0
LINE
8
BLACK
6
CONTINUOUS
10
1.3603539370078739
20
0.245655905511811
11
1.3576226377952756
21
0.2462500393700787
0
LINE
8
BLACK
6
CONTINUOUS
10
1.3576226377952756
20
0.2462500393700787
11
1.3570271653543307
21
0.2466327165354331
0
LINE
8
BLACK
6
CONTINUOUS
10
1.3570271653543307
20
0.2466327165354331
11
1.3568016929133857
21
0.2468014960629921
0
LINE
8
BLACK
6
CONTINUOUS
10
1.3568016929133857
20
0.2468014960629921
11
1.3568016141732284
21
0.2468016141732284
0
LINE
8
BLACK
6
CONTINUOUS
10
1.3568016141732284
20
0.2468016141732284
11
1.3521930708661416
21
0.2502515354330709
0
LINE
8
BLACK
6
CONTINUOUS
10
1.3521930708661416
20
0.2502515354330709
11
1.3467992519685039
21
0.2522633464566929
0
LINE
8
BLACK
6
CONTINUOUS
10
1.3467992519685039
20
0.2522633464566929
11
1.3467991732283464
21
0.2522633464566929
0
LINE
8
BLACK
6
CONTINUOUS
10
1.3467991732283464
20
0.2522633464566929
11
1.3467990551181102
21
0.2522633858267717
0
LINE
8
BLACK
6
CONTINUOUS
10
1.3467990551181102
20
0.2522633858267717
11
1.3462611417322834
21
0.2523212204724409
0
LINE
8
BLACK
6
CONTINUOUS
10
1.3462611417322834
20
0.2523212204724409
11
1.3436787401574803
21
0.2533908267716535
0
LINE
8
BLACK
6
CONTINUOUS
10
1.3436787401574803
20
0.2533908267716535
11
1.3420845669291339
21
0.2556868110236221
0
LINE
8
BLACK
6
CONTINUOUS
10
1.3420845669291339
20
0.2556868110236221
11
1.3418307086614172
21
0.2572534251968504
0
LINE
8
BLACK
6
CONTINUOUS
10
1.3418307086614172
20
0.2572534251968504
11
1.3418307086614172
21
0.4855846456692913
0
LINE
8
BLACK
6
CONTINUOUS
10
1.3418307086614172
20
0.4855846456692913
11
1.3418307086614172
21
0.5617667322834645
0
LINE
8
BLACK
6
CONTINUOUS
10
1.3418307086614172
20
0.5617667322834645
11
1.3418307086614172
21
0.5617668897637795
0
LINE
8
BLACK
6
CONTINUOUS
10
1.3418307086614172
20
0.5617668897637795
11
1.3414922834645668
21
0.5632494488188976
0
LINE
8
BLACK
6
CONTINUOUS
10
1.3414922834645668
20
0.5632494488188976
11
1.3413991732283463
21
0.5637977165354331
0
LINE
8
BLACK
6
CONTINUOUS
10
1.3413991732283463
20
0.5637977165354331
11
1.3412290157480316
21
0.5653081102362204
0
LINE
8
BLACK
6
CONTINUOUS
10
1.3412290157480316
20
0.5653081102362204
11
1.3412290157480316
21
0.5653082283464567
0
LINE
8
BLACK
6
CONTINUOUS
10
1.3412290157480316
20
0.5653082283464567
11
1.3407269685039369
21
0.5667429133858267
0
LINE
8
BLACK
6
CONTINUOUS
10
1.3407269685039369
20
0.5667429133858267
11
1.3405728740157481
21
0.567277716535433
0
LINE
8
BLACK
6
CONTINUOUS
10
1.3405728740157481
20
0.567277716535433
11
1.3402346062992125
21
0.5687599212598425
0
LINE
8
BLACK
6
CONTINUOUS
10
1.3402346062992125
20
0.5687599212598425
11
1.3402346062992125
21
0.5687599606299213
0
LINE
8
BLACK
6
CONTINUOUS
10
1.3402346062992125
20
0.5687599606299213
11
1.3395746850393699
21
0.5701301968503937
0
LINE
8
BLACK
6
CONTINUOUS
10
1.3395746850393699
20
0.5701301968503937
11
1.3393621653543306
21
0.5706433070866141
0
LINE
8
BLACK
6
CONTINUOUS
10
1.3393621653543306
20
0.5706433070866141
11
1.3388599606299212
21
0.5720786220472441
0
LINE
8
BLACK
6
CONTINUOUS
10
1.3388599606299212
20
0.5720786220472441
11
1.3380508267716535
21
0.5733662204724409
0
LINE
8
BLACK
6
CONTINUOUS
10
1.3380508267716535
20
0.5733662204724409
11
1.3377820472440944
21
0.5738525590551181
0
LINE
8
BLACK
6
CONTINUOUS
10
1.3377820472440944
20
0.5738525590551181
11
1.3371223622047244
21
0.5752225196850393
0
LINE
8
BLACK
6
CONTINUOUS
10
1.3371223622047244
20
0.5752225196850393
11
1.3361741732283465
21
0.5764114173228346
0
LINE
8
BLACK
6
CONTINUOUS
10
1.3361741732283465
20
0.5764114173228346
11
1.3358528346456693
21
0.5768643307086614
0
LINE
8
BLACK
6
CONTINUOUS
10
1.3358528346456693
20
0.5768643307086614
11
1.3350437401574802
21
0.5781520866141732
0
LINE
8
BLACK
6
CONTINUOUS
10
1.3350437401574802
20
0.5781520866141732
11
1.3350437007874016
21
0.5781521259842519
0
LINE
8
BLACK
6
CONTINUOUS
10
1.3350437007874016
20
0.5781521259842519
11
1.3350436220472441
21
0.5781522440944882
0
LINE
8
BLACK
6
CONTINUOUS
10
1.3350436220472441
20
0.5781522440944882
11
1.3295635433070865
21
0.583632283464567
0
LINE
8
BLACK
6
CONTINUOUS
10
1.3295635433070865
20
0.583632283464567
11
1.3295631496062992
21
0.5836325590551181
0
LINE
8
BLACK
6
CONTINUOUS
10
1.3295631496062992
20
0.5836325590551181
11
1.1690240551181101
21
0.7441717716535433
0
LINE
8
BLACK
6
CONTINUOUS
10
1.1690240551181101
20
0.7441717716535433
11
1.1677520866141733
21
0.7454437401574803
0
LINE
8
BLACK
6
CONTINUOUS
10
1.1677520866141733
20
0.7454437401574803
11
1.1664648425196851
21
0.7462525196850394
0
LINE
8
BLACK
6
CONTINUOUS
10
1.1664648425196851
20
0.7462525196850394
11
1.1660111023622046
21
0.7465744488188977
0
LINE
8
BLACK
6
CONTINUOUS
10
1.1660111023622046
20
0.7465744488188977
11
1.1648225196850392
21
0.7475224015748031
0
LINE
8
BLACK
6
CONTINUOUS
10
1.1648225196850392
20
0.7475224015748031
11
1.1634527165354331
21
0.7481820078740158
0
LINE
8
BLACK
6
CONTINUOUS
10
1.1634527165354331
20
0.7481820078740158
11
1.1629661417322834
21
0.748450905511811
0
LINE
8
BLACK
6
CONTINUOUS
10
1.1629661417322834
20
0.748450905511811
11
1.1616786220472441
21
0.7492599606299213
0
LINE
8
BLACK
6
CONTINUOUS
10
1.1616786220472441
20
0.7492599606299213
11
1.1602436220472441
21
0.7497620078740157
0
LINE
8
BLACK
6
CONTINUOUS
10
1.1602436220472441
20
0.7497620078740157
11
1.1597300393700787
21
0.7499747244094488
0
LINE
8
BLACK
6
CONTINUOUS
10
1.1597300393700787
20
0.7499747244094488
11
1.1583599212598426
21
0.7506346062992126
0
LINE
8
BLACK
6
CONTINUOUS
10
1.1583599212598426
20
0.7506346062992126
11
1.1568774803149606
21
0.7509729133858267
0
LINE
8
BLACK
6
CONTINUOUS
10
1.1568774803149606
20
0.7509729133858267
11
1.1563434251968503
21
0.7511267716535432
0
LINE
8
BLACK
6
CONTINUOUS
10
1.1563434251968503
20
0.7511267716535432
11
1.1549082283464567
21
0.7516290157480314
0
LINE
8
BLACK
6
CONTINUOUS
10
1.1549082283464567
20
0.7516290157480314
11
1.1533970078740157
21
0.7517992519685039
0
LINE
8
BLACK
6
CONTINUOUS
10
1.1533970078740157
20
0.7517992519685039
11
1.1528499999999999
21
0.7518921259842519
0
LINE
8
BLACK
6
CONTINUOUS
10
1.1528499999999999
20
0.7518921259842519
11
1.1513668897637794
21
0.7522307086614173
0
LINE
8
BLACK
6
CONTINUOUS
10
1.1513668897637794
20
0.7522307086614173
11
1.1513667322834646
21
0.7522307086614173
0
LINE
8
BLACK
6
CONTINUOUS
10
1.1513667322834646
20
0.7522307086614173
11
1.1411173228346456
21
0.7522307086614173
0
LINE
8
BLACK
6
CONTINUOUS
10
1.1411173228346456
20
0.7522307086614173
11
1.1384353937007874
21
0.753018188976378
0
LINE
8
BLACK
6
CONTINUOUS
10
1.1384353937007874
20
0.753018188976378
11
1.1366049606299213
21
0.7551306299212598
0
LINE
8
BLACK
6
CONTINUOUS
10
1.1366049606299213
20
0.7551306299212598
11
1.1362071653543306
21
0.7578973228346456
0
LINE
8
BLACK
6
CONTINUOUS
10
1.1362071653543306
20
0.7578973228346456
11
1.1373683464566928
21
0.760439842519685
0
LINE
8
BLACK
6
CONTINUOUS
10
1.1373683464566928
20
0.760439842519685
11
1.1388267716535432
21
0.7615914566929134
0
LINE
8
BLACK
6
CONTINUOUS
10
1.1388267716535432
20
0.7615914566929134
11
1.1528172440944882
21
0.7688744488188977
0
LINE
8
BLACK
6
CONTINUOUS
10
1.1528172440944882
20
0.7688744488188977
11
1.1528175984251969
21
0.7688746456692913
0
LINE
8
BLACK
6
CONTINUOUS
10
1.1528175984251969
20
0.7688746456692913
11
1.1528179527559055
21
0.7688748425196851
0
LINE
8
BLACK
6
CONTINUOUS
10
1.1528179527559055
20
0.7688748425196851
11
1.164154842519685
21
0.7760972440944882
0
LINE
8
BLACK
6
CONTINUOUS
10
1.164154842519685
20
0.7760972440944882
11
1.1680359448818898
21
0.7785697637795276
0
LINE
8
BLACK
6
CONTINUOUS
10
1.1680359448818898
20
0.7785697637795276
11
1.1718756299212598
21
0.7815160236220472
0
LINE
8
BLACK
6
CONTINUOUS
10
1.1718756299212598
20
0.7815160236220472
11
1.1749625196850393
21
0.78388468503937
0
LINE
8
BLACK
6
CONTINUOUS
10
1.1749625196850393
20
0.78388468503937
11
1.1823513385826772
21
0.7895542913385827
0
LINE
8
BLACK
6
CONTINUOUS
10
1.1823513385826772
20
0.7895542913385827
11
1.1823514173228347
21
0.7895543700787402
0
LINE
8
BLACK
6
CONTINUOUS
10
1.1823514173228347
20
0.7895543700787402
11
1.1823515748031497
21
0.7895544881889763
0
LINE
8
BLACK
6
CONTINUOUS
10
1.1823515748031497
20
0.7895544881889763
11
1.1956550787401574
21
0.8017449212598425
0
LINE
8
BLACK
6
CONTINUOUS
10
1.1956550787401574
20
0.8017449212598425
11
1.2078455118110236
21
0.8150484251968504
0
LINE
8
BLACK
6
CONTINUOUS
10
1.2078455118110236
20
0.8150484251968504
11
1.2188300393700786
21
0.829363779527559
0
LINE
8
BLACK
6
CONTINUOUS
10
1.2188300393700786
20
0.829363779527559
11
1.2285251574803149
21
0.8445820472440945
0
LINE
8
BLACK
6
CONTINUOUS
10
1.2285251574803149
20
0.8445820472440945
11
1.2285255118110237
21
0.844582716535433
0
LINE
8
BLACK
6
CONTINUOUS
10
1.2285255118110237
20
0.844582716535433
11
1.2368568897637795
21
0.8605870472440945
0
LINE
8
BLACK
6
CONTINUOUS
10
1.2368568897637795
20
0.8605870472440945
11
1.2406281496062992
21
0.8696917716535433
0
LINE
8
BLACK
6
CONTINUOUS
10
1.2406281496062992
20
0.8696917716535433
11
1.2437621653543307
21
0.8772579527559055
0
LINE
8
BLACK
6
CONTINUOUS
10
1.2437621653543307
20
0.8772579527559055
11
1.2491881496062991
21
0.8944669291338583
0
LINE
8
BLACK
6
CONTINUOUS
10
1.2491881496062991
20
0.8944669291338583
11
1.2530936220472442
21
0.9120833070866141
0
LINE
8
BLACK
6
CONTINUOUS
10
1.2530936220472442
20
0.9120833070866141
11
1.2554488188976378
21
0.9299730708661417
0
LINE
8
BLACK
6
CONTINUOUS
10
1.2554488188976378
20
0.9299730708661417
11
1.2562359055118111
21
0.948
0
LINE
8
BLACK
6
CONTINUOUS
10
1.2562359055118111
20
0.948
11
1.2554488188976378
21
0.9660269291338582
0
LINE
8
BLACK
6
CONTINUOUS
10
1.2554488188976378
20
0.9660269291338582
11
1.2530936220472442
21
0.9839166929133858
0
LINE
8
BLACK
6
CONTINUOUS
10
1.2530936220472442
20
0.9839166929133858
11
1.2491881496062991
21
1.0015330708661416
0
LINE
8
BLACK
6
CONTINUOUS
10
1.2491881496062991
20
1.0015330708661416
11
1.2437621653543307
21
1.0187420472440945
0
LINE
8
BLACK
6
CONTINUOUS
10
1.2437621653543307
20
1.0187420472440945
11
1.2368570078740158
21
1.0354126377952755
0
LINE
8
BLACK
6
CONTINUOUS
10
1.2368570078740158
20
1.0354126377952755
11
1.236856968503937
21
1.0354126377952755
0
LINE
8
BLACK
6
CONTINUOUS
10
1.236856968503937
20
1.0354126377952755
11
1.2368568897637795
21
1.0354129133858267
0
LINE
8
BLACK
6
CONTINUOUS
10
1.2368568897637795
20
1.0354129133858267
11
1.2285255118110237
21
1.0514172440944882
0
LINE
8
BLACK
6
CONTINUOUS
10
1.2285255118110237
20
1.0514172440944882
11
1.2285251574803149
21
1.0514179527559055
0
LINE
8
BLACK
6
CONTINUOUS
10
1.2285251574803149
20
1.0514179527559055
11
1.2188300393700786
21
1.0666362204724409
0
LINE
8
BLACK
6
CONTINUOUS
10
1.2188300393700786
20
1.0666362204724409
11
1.2078455118110236
21
1.0809515748031495
0
LINE
8
BLACK
6
CONTINUOUS
10
1.2078455118110236
20
1.0809515748031495
11
1.1956550787401574
21
1.0942550787401575
0
LINE
8
BLACK
6
CONTINUOUS
10
1.1956550787401574
20
1.0942550787401575
11
1.1823515748031497
21
1.1064455118110237
0
LINE
8
BLACK
6
CONTINUOUS
10
1.1823515748031497
20
1.1064455118110237
11
1.1680362204724408
21
1.1174300393700787
0
LINE
8
BLACK
6
CONTINUOUS
10
1.1680362204724408
20
1.1174300393700787
11
1.1528179527559055
21
1.1271251574803149
0
LINE
8
BLACK
6
CONTINUOUS
10
1.1528179527559055
20
1.1271251574803149
11
1.1469750393700786
21
1.1301667716535433
0
LINE
8
BLACK
6
CONTINUOUS
10
1.1469750393700786
20
1.1301667716535433
11
1.1368129133858267
21
1.1354568897637796
0
LINE
8
BLACK
6
CONTINUOUS
10
1.1368129133858267
20
1.1354568897637796
11
1.1368126377952756
21
1.1354570078740158
0
LINE
8
BLACK
6
CONTINUOUS
10
1.1368126377952756
20
1.1354570078740158
11
1.1201420472440944
21
1.1423621653543308
0
LINE
8
BLACK
6
CONTINUOUS
10
1.1201420472440944
20
1.1423621653543308
11
1.1029330708661418
21
1.1477881496062992
0
LINE
8
BLACK
6
CONTINUOUS
10
1.1029330708661418
20
1.1477881496062992
11
1.0853166929133857
21
1.151693622047244
0
LINE
8
BLACK
6
CONTINUOUS
10
1.0853166929133857
20
1.151693622047244
11
1.0674269291338583
21
1.1540488188976377
0
LINE
8
BLACK
6
CONTINUOUS
10
1.0674269291338583
20
1.1540488188976377
11
1.0530053543307087
21
1.154678464566929
0
LINE
8
BLACK
6
CONTINUOUS
10
1.0530053543307087
20
1.154678464566929
11
1.0494000393700786
21
1.1548359055118109
0
LINE
8
BLACK
6
CONTINUOUS
10
1.0494000393700786
20
1.1548359055118109
11
1.0493999606299211
21
1.1548359055118109
0
LINE
8
BLACK
6
CONTINUOUS
10
1.0493999606299211
20
1.1548359055118109
11
1.0448932677165355
21
1.1546391338582678
0
LINE
8
BLACK
6
CONTINUOUS
10
0.8704451181102362
20
0.5659768503937008
11
0.8704450393700787
21
0.5659768503937008
0
LINE
8
BLACK
6
CONTINUOUS
10
0.8704450393700787
20
0.5659768503937008
11
0.8704449212598425
21
0.5659768110236221
0
LINE
8
BLACK
6
CONTINUOUS
10
0.8704449212598425
20
0.5659768110236221
11
0.870444842519685
21
0.5659768110236221
0
LINE
8
BLACK
6
CONTINUOUS
10
0.870444842519685
20
0.5659768110236221
11
0.8633723622047244
21
0.5638313779527558
0
LINE
8
BLACK
6
CONTINUOUS
10
0.8633723622047244
20
0.5638313779527558
11
0.8633722047244095
21
0.5638312992125984
0
LINE
8
BLACK
6
CONTINUOUS
10
0.8633722047244095
20
0.5638312992125984
11
0.8588544488188976
21
0.5614164960629922
0
LINE
8
BLACK
6
CONTINUOUS
10
0.8588544488188976
20
0.5614164960629922
11
0.8565160236220473
21
0.560830748031496
0
LINE
8
BLACK
6
CONTINUOUS
10
0.8565160236220473
20
0.560830748031496
11
0.849464842519685
21
0.560830748031496
0
LINE
8
BLACK
6
CONTINUOUS
10
0.849464842519685
20
0.560830748031496
11
0.8479822834645669
21
0.5604923228346457
0
LINE
8
BLACK
6
CONTINUOUS
10
0.8479822834645669
20
0.5604923228346457
11
0.8474342125984252
21
0.5603992125984252
0
LINE
8
BLACK
6
CONTINUOUS
10
0.8474342125984252
20
0.5603992125984252
11
0.8463751968503936
21
0.5602798818897637
0
LINE
8
BLACK
6
CONTINUOUS
10
0.8463751968503936
20
0.5602798818897637
11
0.8459237401574803
21
0.5602290551181103
0
LINE
8
BLACK
6
CONTINUOUS
10
0.8459237401574803
20
0.5602290551181103
11
0.845923622047244
21
0.5602290157480315
0
LINE
8
BLACK
6
CONTINUOUS
10
0.845923622047244
20
0.5602290157480315
11
0.8459234645669291
21
0.5602290157480315
0
LINE
8
BLACK
6
CONTINUOUS
10
0.8459234645669291
20
0.5602290157480315
11
0.8459233464566929
21
0.5602289763779528
0
LINE
8
BLACK
6
CONTINUOUS
10
0.8459233464566929
20
0.5602289763779528
11
0.8444883858267717
21
0.5597268503937007
0
LINE
8
BLACK
6
CONTINUOUS
10
0.8444883858267717
20
0.5597268503937007
11
0.8439542125984252
21
0.5595729527559055
0
LINE
8
BLACK
6
CONTINUOUS
10
0.8439542125984252
20
0.5595729527559055
11
0.8424717716535433
21
0.5592346062992126
0
LINE
8
BLACK
6
CONTINUOUS
10
0.8424717716535433
20
0.5592346062992126
11
0.8411017322834645
21
0.5585748031496063
0
LINE
8
BLACK
6
CONTINUOUS
10
0.8411017322834645
20
0.5585748031496063
11
0.8405884645669291
21
0.5583622047244094
0
LINE
8
BLACK
6
CONTINUOUS
10
0.8405884645669291
20
0.5583622047244094
11
0.8391530708661417
21
0.5578599606299213
0
LINE
8
BLACK
6
CONTINUOUS
10
0.8391530708661417
20
0.5578599606299213
11
0.837865748031496
21
0.5570510629921259
0
LINE
8
BLACK
6
CONTINUOUS
10
0.837865748031496
20
0.5570510629921259
11
0.8373790551181102
21
0.5567820472440945
0
LINE
8
BLACK
6
CONTINUOUS
10
0.8373790551181102
20
0.5567820472440945
11
0.8360092125984252
21
0.5561224015748031
0
LINE
8
BLACK
6
CONTINUOUS
10
0.8360092125984252
20
0.5561224015748031
11
0.8360090551181102
21
0.5561222834645669
0
LINE
8
BLACK
6
CONTINUOUS
10
0.8360090551181102
20
0.5561222834645669
11
0.8348204330708662
21
0.5551744094488189
0
LINE
8
BLACK
6
CONTINUOUS
10
0.8348204330708662
20
0.5551744094488189
11
0.8343667716535433
21
0.5548525196850393
0
LINE
8
BLACK
6
CONTINUOUS
10
0.8343667716535433
20
0.5548525196850393
11
0.8330796062992126
21
0.5540437401574803
0
LINE
8
BLACK
6
CONTINUOUS
10
0.8330796062992126
20
0.5540437401574803
11
0.8318076377952756
21
0.5527717716535433
0
LINE
8
BLACK
6
CONTINUOUS
10
0.8318076377952756
20
0.5527717716535433
11
0.8000283070866142
21
0.5209924409448818
0
LINE
8
BLACK
6
CONTINUOUS
10
0.8000283070866142
20
0.5209924409448818
11
0.7968352362204725
21
0.5177993700787401
0
LINE
8
BLACK
6
CONTINUOUS
10
0.7968352362204725
20
0.5177993700787401
11
0.7949562598425197
21
0.5159203937007873
0
LINE
8
BLACK
6
CONTINUOUS
10
0.7949562598425197
20
0.5159203937007873
11
0.7941474015748031
21
0.5146331102362205
0
LINE
8
BLACK
6
CONTINUOUS
10
0.7941474015748031
20
0.5146331102362205
11
0.7938255118110236
21
0.5141794881889764
0
LINE
8
BLACK
6
CONTINUOUS
10
0.7938255118110236
20
0.5141794881889764
11
0.7928776377952755
21
0.512990905511811
0
LINE
8
BLACK
6
CONTINUOUS
10
0.7928776377952755
20
0.512990905511811
11
0.7928775590551181
21
0.512990748031496
0
LINE
8
BLACK
6
CONTINUOUS
10
0.7928775590551181
20
0.512990748031496
11
0.7922178740157481
21
0.5116209055118111
0
LINE
8
BLACK
6
CONTINUOUS
10
0.7922178740157481
20
0.5116209055118111
11
0.7919488188976378
21
0.5111340944881889
0
LINE
8
BLACK
6
CONTINUOUS
10
0.7919488188976378
20
0.5111340944881889
11
0.7911398818897638
21
0.5098466929133858
0
LINE
8
BLACK
6
CONTINUOUS
10
0.7911398818897638
20
0.5098466929133858
11
0.7910325984251968
21
0.5096238976377953
0
LINE
8
BLACK
6
CONTINUOUS
10
0.7910325984251968
20
0.5096238976377953
11
0.7891593700787402
21
0.5075493307086614
0
LINE
8
BLACK
6
CONTINUOUS
10
0.7891593700787402
20
0.5075493307086614
11
0.7872108661417323
21
0.5068582677165354
0
LINE
8
BLACK
6
CONTINUOUS
10
0.7872108661417323
20
0.5068582677165354
11
0.7798833070866141
21
0.5058936220472441
0
LINE
8
BLACK
6
CONTINUOUS
10
0.7798833070866141
20
0.5058936220472441
11
0.7622669291338583
21
0.5019881496062992
0
LINE
8
BLACK
6
CONTINUOUS
10
0.7622669291338583
20
0.5019881496062992
11
0.7450579527559055
21
0.4965621653543307
0
LINE
8
BLACK
6
CONTINUOUS
10
0.7450579527559055
20
0.4965621653543307
11
0.7344184645669292
21
0.492155157480315
0
LINE
8
BLACK
6
CONTINUOUS
10
0.7344184645669292
20
0.492155157480315
11
0.7283870472440944
21
0.4896568897637795
0
LINE
8
BLACK
6
CONTINUOUS
10
0.7283870472440944
20
0.4896568897637795
11
0.7123827165354331
21
0.4813255118110236
0
LINE
8
BLACK
6
CONTINUOUS
10
0.7123827165354331
20
0.4813255118110236
11
0.7123820472440945
21
0.481325157480315
0
LINE
8
BLACK
6
CONTINUOUS
10
0.7123820472440945
20
0.481325157480315
11
0.697163779527559
21
0.4716300393700787
0
LINE
8
BLACK
6
CONTINUOUS
10
0.697163779527559
20
0.4716300393700787
11
0.6828484251968504
21
0.4606455118110236
0
LINE
8
BLACK
6
CONTINUOUS
10
0.6828484251968504
20
0.4606455118110236
11
0.6695449212598426
21
0.4484550787401575
0
LINE
8
BLACK
6
CONTINUOUS
10
0.6695449212598426
20
0.4484550787401575
11
0.6573544881889763
21
0.4351515748031496
0
LINE
8
BLACK
6
CONTINUOUS
10
0.6573544881889763
20
0.4351515748031496
11
0.6573543700787401
21
0.4351514173228346
0
LINE
8
BLACK
6
CONTINUOUS
10
0.6573543700787401
20
0.4351514173228346
11
0.6573542913385827
21
0.4351513385826772
0
LINE
8
BLACK
6
CONTINUOUS
10
0.6573542913385827
20
0.4351513385826772
11
0.6463697637795276
21
0.4208359448818897
0
LINE
8
BLACK
6
CONTINUOUS
10
0.6463697637795276
20
0.4208359448818897
11
0.6419198031496063
21
0.413850905511811
0
LINE
8
BLACK
6
CONTINUOUS
10
0.6419198031496063
20
0.413850905511811
11
0.636674842519685
21
0.4056179527559055
0
LINE
8
BLACK
6
CONTINUOUS
10
0.636674842519685
20
0.4056179527559055
11
0.6366746456692913
21
0.4056175984251968
0
LINE
8
BLACK
6
CONTINUOUS
10
0.6366746456692913
20
0.4056175984251968
11
0.6366744488188977
21
0.4056172440944882
0
LINE
8
BLACK
6
CONTINUOUS
10
0.6366744488188977
20
0.4056172440944882
11
0.6283430708661417
21
0.3896129133858268
0
LINE
8
BLACK
6
CONTINUOUS
10
0.6283430708661417
20
0.3896129133858268
11
0.621437874015748
21
0.372942125984252
0
LINE
8
BLACK
6
CONTINUOUS
10
0.621437874015748
20
0.372942125984252
11
0.6214375590551181
21
0.3729412598425197
0
LINE
8
BLACK
6
CONTINUOUS
10
0.6214375590551181
20
0.3729412598425197
11
0.6160119291338583
21
0.3557333858267717
0
LINE
8
BLACK
6
CONTINUOUS
10
0.6160119291338583
20
0.3557333858267717
11
0.6160117716535433
21
0.3557327559055118
0
LINE
8
BLACK
6
CONTINUOUS
10
0.6160117716535433
20
0.3557327559055118
11
0.6121064173228347
21
0.3381168897637795
0
LINE
8
BLACK
6
CONTINUOUS
10
0.6121064173228347
20
0.3381168897637795
11
0.6121063385826772
21
0.3381165354330709
0
LINE
8
BLACK
6
CONTINUOUS
10
0.6121063385826772
20
0.3381165354330709
11
0.6097511811023621
21
0.3202272047244095
0
LINE
8
BLACK
6
CONTINUOUS
10
0.6097511811023621
20
0.3202272047244095
11
0.6097511417322834
21
0.3202267716535433
0
LINE
8
BLACK
6
CONTINUOUS
10
0.6097511417322834
20
0.3202267716535433
11
0.608964094488189
21
0.3022000393700787
0
LINE
8
BLACK
6
CONTINUOUS
10
0.608964094488189
20
0.3022000393700787
11
0.608964094488189
21
0.3021999212598425
0
LINE
8
BLACK
6
CONTINUOUS
10
0.608964094488189
20
0.3021999212598425
11
0.6097511417322834
21
0.2841731889763779
0
LINE
8
BLACK
6
CONTINUOUS
10
0.6097511417322834
20
0.2841731889763779
11
0.6097511811023621
21
0.2841727559055118
0
LINE
8
BLACK
6
CONTINUOUS
10
0.6097511811023621
20
0.2841727559055118
11
0.6121063385826772
21
0.2662834251968504
0
LINE
8
BLACK
6
CONTINUOUS
10
0.6121063385826772
20
0.2662834251968504
11
0.6121064173228347
21
0.2662830708661417
0
LINE
8
BLACK
6
CONTINUOUS
10
0.6121064173228347
20
0.2662830708661417
11
0.6160117716535433
21
0.2486672047244095
0
LINE
8
BLACK
6
CONTINUOUS
10
0.6160117716535433
20
0.2486672047244095
11
0.6160119291338583
21
0.2486665748031496
0
LINE
8
BLACK
6
CONTINUOUS
10
0.6160119291338583
20
0.2486665748031496
11
0.6214375590551181
21
0.2314587007874016
0
LINE
8
BLACK
6
CONTINUOUS
10
0.6214375590551181
20
0.2314587007874016
11
0.621437874015748
21
0.2314578346456693
0
LINE
8
BLACK
6
CONTINUOUS
10
0.621437874015748
20
0.2314578346456693
11
0.6283430708661417
21
0.2147870472440945
0
LINE
8
BLACK
6
CONTINUOUS
10
0.6283430708661417
20
0.2147870472440945
11
0.6366744488188977
21
0.1987827165354331
0
LINE
8
BLACK
6
CONTINUOUS
10
0.6366744488188977
20
0.1987827165354331
11
0.636674842519685
21
0.1987820472440945
0
LINE
8
BLACK
6
CONTINUOUS
10
0.636674842519685
20
0.1987820472440945
11
0.6463697637795276
21
0.1835640157480315
0
LINE
8
BLACK
6
CONTINUOUS
10
0.6463697637795276
20
0.1835640157480315
11
0.6573542913385827
21
0.1692486220472441
0
LINE
8
BLACK
6
CONTINUOUS
10
0.6573542913385827
20
0.1692486220472441
11
0.6573547244094488
21
0.1692481496062992
0
LINE
8
BLACK
6
CONTINUOUS
10
0.6573547244094488
20
0.1692481496062992
11
0.6695449212598426
21
0.1559449212598425
0
LINE
8
BLACK
6
CONTINUOUS
10
0.6695449212598426
20
0.1559449212598425
11
0.6828481496062992
21
0.1437547244094488
0
LINE
8
BLACK
6
CONTINUOUS
10
0.6828481496062992
20
0.1437547244094488
11
0.6828486220472441
21
0.1437542913385827
0
LINE
8
BLACK
6
CONTINUOUS
10
0.6828486220472441
20
0.1437542913385827
11
0.6971640157480314
21
0.1327697637795276
0
LINE
8
BLACK
6
CONTINUOUS
10
0.6971640157480314
20
0.1327697637795276
11
0.7123820472440945
21
0.123074842519685
0
LINE
8
BLACK
6
CONTINUOUS
10
0.7123820472440945
20
0.123074842519685
11
0.7123827165354331
21
0.1230744488188976
0
LINE
8
BLACK
6
CONTINUOUS
10
0.7123827165354331
20
0.1230744488188976
11
0.7283870472440944
21
0.1147430708661417
0
LINE
8
BLACK
6
CONTINUOUS
10
0.7283870472440944
20
0.1147430708661417
11
0.7450578346456693
21
0.107837874015748
0
LINE
8
BLACK
6
CONTINUOUS
10
0.7450578346456693
20
0.107837874015748
11
0.7450587007874016
21
0.1078375590551181
0
LINE
8
BLACK
6
CONTINUOUS
10
0.7450587007874016
20
0.1078375590551181
11
0.7622665748031496
21
0.1024119291338583
0
LINE
8
BLACK
6
CONTINUOUS
10
0.7622665748031496
20
0.1024119291338583
11
0.7622672047244095
21
0.1024117716535433
0
LINE
8
BLACK
6
CONTINUOUS
10
0.7622672047244095
20
0.1024117716535433
11
0.7798830708661417
21
0.0985064173228346
0
LINE
8
BLACK
6
CONTINUOUS
10
0.7798830708661417
20
0.0985064173228346
11
0.7798834251968504
21
0.0985063385826772
0
LINE
8
BLACK
6
CONTINUOUS
10
0.7798834251968504
20
0.0985063385826772
11
0.7977727559055118
21
0.0961511811023622
0
LINE
8
BLACK
6
CONTINUOUS
10
0.7977727559055118
20
0.0961511811023622
11
0.7977731889763779
21
0.0961511417322835
0
LINE
8
BLACK
6
CONTINUOUS
10
0.7977731889763779
20
0.0961511417322835
11
0.8157999606299212
21
0.095364094488189
0
LINE
8
BLACK
6
CONTINUOUS
10
0.8157999606299212
20
0.095364094488189
11
0.8158
21
0.095364094488189
0
LINE
8
BLACK
6
CONTINUOUS
10
0.8158
20
0.095364094488189
11
0.8158000393700787
21
0.095364094488189
0
LINE
8
BLACK
6
CONTINUOUS
10
0.8158000393700787
20
0.095364094488189
11
0.8338267716535432
21
0.0961511417322835
0
LINE
8
BLACK
6
CONTINUOUS
10
0.8338267716535432
20
0.0961511417322835
11
0.8338272047244094
21
0.0961511811023622
0
LINE
8
BLACK
6
CONTINUOUS
10
0.8338272047244094
20
0.0961511811023622
11
0.8517165354330708
21
0.0985063385826772
0
LINE
8
BLACK
6
CONTINUOUS
10
0.8517165354330708
20
0.0985063385826772
11
0.8517168897637795
21
0.0985064173228346
0
LINE
8
BLACK
6
CONTINUOUS
10
0.8517168897637795
20
0.0985064173228346
11
0.8693327559055118
21
0.1024117716535433
0
LINE
8
BLACK
6
CONTINUOUS
10
0.8693327559055118
20
0.1024117716535433
11
0.8693333858267717
21
0.1024119291338583
0
LINE
8
BLACK
6
CONTINUOUS
10
0.8693333858267717
20
0.1024119291338583
11
0.8865412598425196
21
0.1078375590551181
0
LINE
8
BLACK
6
CONTINUOUS
10
0.8865412598425196
20
0.1078375590551181
11
0.8865418110236221
21
0.1078377559055118
0
LINE
8
BLACK
6
CONTINUOUS
10
0.8865418110236221
20
0.1078377559055118
11
0.8865420472440945
21
0.1078378346456693
0
LINE
8
BLACK
6
CONTINUOUS
10
0.8865420472440945
20
0.1078378346456693
11
0.8892126377952756
21
0.1089440157480315
0
LINE
8
BLACK
6
CONTINUOUS
10
0.8892126377952756
20
0.1089440157480315
11
0.9032129133858268
21
0.1147430708661417
0
LINE
8
BLACK
6
CONTINUOUS
10
0.9032129133858268
20
0.1147430708661417
11
0.9192172440944881
21
0.1230744488188976
0
LINE
8
BLACK
6
CONTINUOUS
10
0.9192172440944881
20
0.1230744488188976
11
0.9192175984251968
21
0.1230746456692913
0
LINE
8
BLACK
6
CONTINUOUS
10
0.9192175984251968
20
0.1230746456692913
11
0.9192179527559055
21
0.123074842519685
0
LINE
8
BLACK
6
CONTINUOUS
10
0.9192179527559055
20
0.123074842519685
11
0.927450905511811
21
0.1283198031496063
0
LINE
8
BLACK
6
CONTINUOUS
10
0.927450905511811
20
0.1283198031496063
11
0.9344359448818897
21
0.1327697637795276
0
LINE
8
BLACK
6
CONTINUOUS
10
0.9344359448818897
20
0.1327697637795276
11
0.9365805118110236
21
0.1344153149606299
0
LINE
8
BLACK
6
CONTINUOUS
10
0.9365805118110236
20
0.1344153149606299
11
0.9413625196850394
21
0.1380846850393701
0
LINE
8
BLACK
6
CONTINUOUS
10
0.9413625196850394
20
0.1380846850393701
11
0.9487513385826771
21
0.1437542913385827
0
LINE
8
BLACK
6
CONTINUOUS
10
0.9487513385826771
20
0.1437542913385827
11
0.9487514173228346
21
0.1437543700787401
0
LINE
8
BLACK
6
CONTINUOUS
10
0.9487514173228346
20
0.1437543700787401
11
0.9487515748031495
21
0.1437544881889764
0
LINE
8
BLACK
6
CONTINUOUS
10
0.9487515748031495
20
0.1437544881889764
11
0.9620550787401575
21
0.1559449212598425
0
LINE
8
BLACK
6
CONTINUOUS
10
0.9620550787401575
20
0.1559449212598425
11
0.9742455118110236
21
0.1692484251968504
0
LINE
8
BLACK
6
CONTINUOUS
10
0.9742455118110236
20
0.1692484251968504
11
0.9852300393700787
21
0.1835637795275591
0
LINE
8
BLACK
6
CONTINUOUS
10
0.9852300393700787
20
0.1835637795275591
11
0.994925157480315
21
0.1987820472440945
0
LINE
8
BLACK
6
CONTINUOUS
10
0.994925157480315
20
0.1987820472440945
11
0.9949255118110236
21
0.1987827165354331
0
LINE
8
BLACK
6
CONTINUOUS
10
0.9949255118110236
20
0.1987827165354331
11
1.0032568897637795
21
0.2147870472440945
0
LINE
8
BLACK
6
CONTINUOUS
10
1.0032568897637795
20
0.2147870472440945
11
1.0052792913385826
21
0.2196696062992126
0
LINE
8
BLACK
6
CONTINUOUS
10
1.0052792913385826
20
0.2196696062992126
11
1.0101621653543307
21
0.2314579527559055
0
LINE
8
BLACK
6
CONTINUOUS
10
1.0101621653543307
20
0.2314579527559055
11
1.0155881496062993
21
0.2486669291338583
0
LINE
8
BLACK
6
CONTINUOUS
10
1.0155881496062993
20
0.2486669291338583
11
1.0194936220472441
21
0.2662833070866142
0
LINE
8
BLACK
6
CONTINUOUS
10
1.0194936220472441
20
0.2662833070866142
11
1.0218488188976378
21
0.2841730708661417
0
LINE
8
BLACK
6
CONTINUOUS
10
1.0218488188976378
20
0.2841730708661417
11
1.022635905511811
21
0.3022
0
LINE
8
BLACK
6
CONTINUOUS
10
1.022635905511811
20
0.3022
11
1.0218488188976378
21
0.3202269291338583
0
LINE
8
BLACK
6
CONTINUOUS
10
1.0218488188976378
20
0.3202269291338583
11
1.0194936220472441
21
0.3381166929133858
0
LINE
8
BLACK
6
CONTINUOUS
10
1.0194936220472441
20
0.3381166929133858
11
1.0155881496062993
21
0.3557330708661417
0
LINE
8
BLACK
6
CONTINUOUS
10
1.0155881496062993
20
0.3557330708661417
11
1.0101621653543307
21
0.3729420472440945
0
LINE
8
BLACK
6
CONTINUOUS
10
1.0101621653543307
20
0.3729420472440945
11
1.0032570078740157
21
0.3896126377952756
0
LINE
8
BLACK
6
CONTINUOUS
10
1.0032570078740157
20
0.3896126377952756
11
1.003256968503937
21
0.3896126377952756
0
LINE
8
BLACK
6
CONTINUOUS
10
1.003256968503937
20
0.3896126377952756
11
1.0032568897637795
21
0.3896129133858268
0
LINE
8
BLACK
6
CONTINUOUS
10
1.0032568897637795
20
0.3896129133858268
11
0.9949255118110236
21
0.4056172440944882
0
LINE
8
BLACK
6
CONTINUOUS
10
0.9949255118110236
20
0.4056172440944882
11
0.994925157480315
21
0.4056179527559055
0
LINE
8
BLACK
6
CONTINUOUS
10
0.994925157480315
20
0.4056179527559055
11
0.9852300393700787
21
0.420836220472441
0
LINE
8
BLACK
6
CONTINUOUS
10
0.9852300393700787
20
0.420836220472441
11
0.9742455118110236
21
0.4351515748031496
0
LINE
8
BLACK
6
CONTINUOUS
10
0.9742455118110236
20
0.4351515748031496
11
0.9620550787401575
21
0.4484550787401575
0
LINE
8
BLACK
6
CONTINUOUS
10
0.9620550787401575
20
0.4484550787401575
11
0.9487515748031495
21
0.4606455118110236
0
LINE
8
BLACK
6
CONTINUOUS
10
0.9487515748031495
20
0.4606455118110236
11
0.9344362204724409
21
0.4716300393700787
0
LINE
8
BLACK
6
CONTINUOUS
10
0.9344362204724409
20
0.4716300393700787
11
0.9192179527559055
21
0.481325157480315
0
LINE
8
BLACK
6
CONTINUOUS
10
0.9192179527559055
20
0.481325157480315
11
0.9136027952755905
21
0.4842481889763779
0
LINE
8
BLACK
6
CONTINUOUS
10
0.9136027952755905
20
0.4842481889763779
11
0.9032129921259843
21
0.4896568503937008
0
LINE
8
BLACK
6
CONTINUOUS
10
0.9032129921259843
20
0.4896568503937008
11
0.903212716535433
21
0.4896569291338583
0
LINE
8
BLACK
6
CONTINUOUS
10
0.903212716535433
20
0.4896569291338583
11
0.9032126377952756
21
0.4896570078740157
0
LINE
8
BLACK
6
CONTINUOUS
10
0.9032126377952756
20
0.4896570078740157
11
0.9014155511811024
21
0.4904013385826771
0
LINE
8
BLACK
6
CONTINUOUS
10
0.9014155511811024
20
0.4904013385826771
11
0.8992392125984252
21
0.492155157480315
0
LINE
8
BLACK
6
CONTINUOUS
10
0.8992392125984252
20
0.492155157480315
11
0.8983564566929134
21
0.4948072440944882
0
LINE
8
BLACK
6
CONTINUOUS
10
0.8983564566929134
20
0.4948072440944882
11
0.8990476771653543
21
0.4975155511811024
0
LINE
8
BLACK
6
CONTINUOUS
10
0.8990476771653543
20
0.4975155511811024
11
0.9001669291338582
21
0.4988189763779527
0
LINE
8
BLACK
6
CONTINUOUS
10
0.9001669291338582
20
0.4988189763779527
11
0.9017174803149606
21
0.5000914960629921
0
LINE
8
BLACK
6
CONTINUOUS
10
0.9017174803149606
20
0.5000914960629921
11
0.904458779527559
21
0.5023412204724409
0
LINE
8
BLACK
6
CONTINUOUS
10
0.904458779527559
20
0.5023412204724409
11
0.9091474015748031
21
0.5080543307086614
0
LINE
8
BLACK
6
CONTINUOUS
10
0.9091474015748031
20
0.5080543307086614
11
0.9126313779527558
21
0.5145723622047244
0
LINE
8
BLACK
6
CONTINUOUS
10
0.9126313779527558
20
0.5145723622047244
11
0.9147768110236221
21
0.521644842519685
0
LINE
8
BLACK
6
CONTINUOUS
10
0.9147768110236221
20
0.521644842519685
11
0.9147768110236221
21
0.5216449212598425
0
LINE
8
BLACK
6
CONTINUOUS
10
0.9147768110236221
20
0.5216449212598425
11
0.9147768503937007
21
0.5216450393700788
0
LINE
8
BLACK
6
CONTINUOUS
10
0.9147768503937007
20
0.5216450393700788
11
0.9147768503937007
21
0.5216451181102362
0
LINE
8
BLACK
6
CONTINUOUS
10
0.9147768503937007
20
0.5216451181102362
11
0.9155012204724409
21
0.528999842519685
0
LINE
8
BLACK
6
CONTINUOUS
10
0.9155012204724409
20
0.528999842519685
11
0.9155012204724409
21
0.5290001181102362
0
LINE
8
BLACK
6
CONTINUOUS
10
0.9155012204724409
20
0.5290001181102362
11
0.9147768503937007
21
0.536354842519685
0
LINE
8
BLACK
6
CONTINUOUS
10
0.9147768503937007
20
0.536354842519685
11
0.9147768503937007
21
0.5363549212598425
0
LINE
8
BLACK
6
CONTINUOUS
10
0.9147768503937007
20
0.5363549212598425
11
0.9147768110236221
21
0.5363549606299213
0
LINE
8
BLACK
6
CONTINUOUS
10
0.9147768110236221
20
0.5363549606299213
11
0.9147768110236221
21
0.5363551574803149
0
LINE
8
BLACK
6
CONTINUOUS
10
0.9147768110236221
20
0.5363551574803149
11
0.9126313779527558
21
0.5434276377952756
0
LINE
8
BLACK
6
CONTINUOUS
10
0.9126313779527558
20
0.5434276377952756
11
0.9091474015748031
21
0.5499456692913386
0
LINE
8
BLACK
6
CONTINUOUS
10
0.9091474015748031
20
0.5499456692913386
11
0.904458779527559
21
0.555658779527559
0
LINE
8
BLACK
6
CONTINUOUS
10
0.904458779527559
20
0.555658779527559
11
0.8987456692913386
21
0.5603474015748031
0
LINE
8
BLACK
6
CONTINUOUS
10
0.8987456692913386
20
0.5603474015748031
11
0.8922276377952756
21
0.5638313779527558
0
LINE
8
BLACK
6
CONTINUOUS
10
0.8922276377952756
20
0.5638313779527558
11
0.8851551574803149
21
0.5659768110236221
0
LINE
8
BLACK
6
CONTINUOUS
10
0.8851551574803149
20
0.5659768110236221
11
0.8851549212598425
21
0.5659768110236221
0
LINE
8
BLACK
6
CONTINUOUS
10
0.8851549212598425
20
0.5659768110236221
11
0.8851548818897638
21
0.5659768503937008
0
LINE
8
BLACK
6
CONTINUOUS
10
0.8851548818897638
20
0.5659768503937008
11
0.8778001181102362
21
0.566701220472441
0
LINE
8
BLACK
6
CONTINUOUS
10
0.8778001181102362
20
0.566701220472441
11
0.8777998818897638
21
0.566701220472441
0
LINE
8
BLACK
6
CONTINUOUS
10
0.8777998818897638
20
0.566701220472441
11
0.8704451181102362
21
0.5659768503937008
0
LINE
8
BLACK
6
CONTINUOUS
10
0.4809365748031496
20
0.444200905511811
11
0.4809366535433071
21
0.4442005905511811
0
LINE
8
BLACK
6
CONTINUOUS
10
0.4809366535433071
20
0.4442005905511811
11
0.4829484251968504
21
0.438806968503937
0
LINE
8
BLACK
6
CONTINUOUS
10
0.4829484251968504
20
0.438806968503937
11
0.4829485039370079
21
0.4388067716535433
0
LINE
8
BLACK
6
CONTINUOUS
10
0.4829485039370079
20
0.4388067716535433
11
0.4863983464566929
21
0.4341983464566929
0
LINE
8
BLACK
6
CONTINUOUS
10
0.4863983464566929
20
0.4341983464566929
11
0.4910067716535433
21
0.4307485039370079
0
LINE
8
BLACK
6
CONTINUOUS
10
0.4910067716535433
20
0.4307485039370079
11
0.491006968503937
21
0.4307484251968504
0
LINE
8
BLACK
6
CONTINUOUS
10
0.491006968503937
20
0.4307484251968504
11
0.4964005905511811
21
0.4287366535433071
0
LINE
8
BLACK
6
CONTINUOUS
10
0.4964005905511811
20
0.4287366535433071
11
0.496400905511811
21
0.4287365748031496
0
LINE
8
BLACK
6
CONTINUOUS
10
0.496400905511811
20
0.4287365748031496
11
0.4987846456692913
21
0.4284803149606299
0
LINE
8
BLACK
6
CONTINUOUS
10
0.4987846456692913
20
0.4284803149606299
11
0.4987851181102362
21
0.4284803149606299
0
LINE
8
BLACK
6
CONTINUOUS
10
0.4987851181102362
20
0.4284803149606299
11
0.5676153149606299
21
0.4284803149606299
0
LINE
8
BLACK
6
CONTINUOUS
10
0.5676153149606299
20
0.4284803149606299
11
0.5699990551181102
21
0.4287365748031496
0
LINE
8
BLACK
6
CONTINUOUS
10
0.5699990551181102
20
0.4287365748031496
11
0.5699993700787401
21
0.4287366535433071
0
LINE
8
BLACK
6
CONTINUOUS
10
0.5699993700787401
20
0.4287366535433071
11
0.5753929921259843
21
0.4307484251968504
0
LINE
8
BLACK
6
CONTINUOUS
10
0.5753929921259843
20
0.4307484251968504
11
0.5753931889763779
21
0.4307485039370079
0
LINE
8
BLACK
6
CONTINUOUS
10
0.5753931889763779
20
0.4307485039370079
11
0.5800016141732284
21
0.4341983464566929
0
LINE
8
BLACK
6
CONTINUOUS
10
0.5800016141732284
20
0.4341983464566929
11
0.5834514566929133
21
0.4388067716535433
0
LINE
8
BLACK
6
CONTINUOUS
10
0.5834514566929133
20
0.4388067716535433
11
0.5834515354330708
21
0.438806968503937
0
LINE
8
BLACK
6
CONTINUOUS
10
0.5834515354330708
20
0.438806968503937
11
0.5854633070866142
21
0.4442005905511811
0
LINE
8
BLACK
6
CONTINUOUS
10
0.5854633070866142
20
0.4442005905511811
11
0.5854633858267716
21
0.444200905511811
0
LINE
8
BLACK
6
CONTINUOUS
10
0.5854633858267716
20
0.444200905511811
11
0.5857196456692914
21
0.4465846456692913
0
LINE
8
BLACK
6
CONTINUOUS
10
0.5857196456692914
20
0.4465846456692913
11
0.5857196850393701
21
0.4465853149606299
0
LINE
8
BLACK
6
CONTINUOUS
10
0.5857196850393701
20
0.4465853149606299
11
0.5857196850393701
21
0.5154146456692913
0
LINE
8
BLACK
6
CONTINUOUS
10
0.5857196850393701
20
0.5154146456692913
11
0.5857196456692914
21
0.5154153149606299
0
LINE
8
BLACK
6
CONTINUOUS
10
0.5857196456692914
20
0.5154153149606299
11
0.5854633858267716
21
0.5177990551181102
0
LINE
8
BLACK
6
CONTINUOUS
10
0.5854633858267716
20
0.5177990551181102
11
0.5854633070866142
21
0.5177993700787401
0
LINE
8
BLACK
6
CONTINUOUS
10
0.5854633070866142
20
0.5177993700787401
11
0.5851866141732284
21
0.5185411417322835
0
LINE
8
BLACK
6
CONTINUOUS
10
0.5851866141732284
20
0.5185411417322835
11
0.5834515354330708
21
0.5231930708661418
0
LINE
8
BLACK
6
CONTINUOUS
10
0.5834515354330708
20
0.5231930708661418
11
0.5800016141732284
21
0.5278016141732284
0
LINE
8
BLACK
6
CONTINUOUS
10
0.5800016141732284
20
0.5278016141732284
11
0.5753930708661417
21
0.5312515354330709
0
LINE
8
BLACK
6
CONTINUOUS
10
0.5753930708661417
20
0.5312515354330709
11
0.5699992519685039
21
0.5332633464566929
0
LINE
8
BLACK
6
CONTINUOUS
10
0.5699992519685039
20
0.5332633464566929
11
0.5699991732283465
21
0.5332633464566929
0
LINE
8
BLACK
6
CONTINUOUS
10
0.5699991732283465
20
0.5332633464566929
11
0.5699990551181102
21
0.5332633858267717
0
LINE
8
BLACK
6
CONTINUOUS
10
0.5699990551181102
20
0.5332633858267717
11
0.5676153149606299
21
0.5335196456692913
0
LINE
8
BLACK
6
CONTINUOUS
10
0.5676153149606299
20
0.5335196456692913
11
0.567615157480315
21
0.5335196456692913
0
LINE
8
BLACK
6
CONTINUOUS
10
0.567615157480315
20
0.5335196456692913
11
0.5676148818897637
21
0.5335196850393701
0
LINE
8
BLACK
6
CONTINUOUS
10
0.5676148818897637
20
0.5335196850393701
11
0.4987851181102362
21
0.5335196850393701
0
LINE
8
BLACK
6
CONTINUOUS
10
0.4987851181102362
20
0.5335196850393701
11
0.498784842519685
21
0.5335196456692913
0
LINE
8
BLACK
6
CONTINUOUS
10
0.498784842519685
20
0.5335196456692913
11
0.4987846456692913
21
0.5335196456692913
0
LINE
8
BLACK
6
CONTINUOUS
10
0.4987846456692913
20
0.5335196456692913
11
0.496400905511811
21
0.5332633858267717
0
LINE
8
BLACK
6
CONTINUOUS
10
0.496400905511811
20
0.5332633858267717
11
0.4964005905511811
21
0.5332633070866142
0
LINE
8
BLACK
6
CONTINUOUS
10
0.4964005905511811
20
0.5332633070866142
11
0.4944098818897638
21
0.5325207874015748
0
LINE
8
BLACK
6
CONTINUOUS
10
0.4944098818897638
20
0.5325207874015748
11
0.4910069291338582
21
0.5312515354330709
0
LINE
8
BLACK
6
CONTINUOUS
10
0.4910069291338582
20
0.5312515354330709
11
0.4910068503937008
21
0.5312514960629922
0
LINE
8
BLACK
6
CONTINUOUS
10
0.4910068503937008
20
0.5312514960629922
11
0.4910067716535433
21
0.5312514566929134
0
LINE
8
BLACK
6
CONTINUOUS
10
0.4910067716535433
20
0.5312514566929134
11
0.4863983464566929
21
0.5278016141732284
0
LINE
8
BLACK
6
CONTINUOUS
10
0.4863983464566929
20
0.5278016141732284
11
0.4829485039370079
21
0.5231931889763779
0
LINE
8
BLACK
6
CONTINUOUS
10
0.4829485039370079
20
0.5231931889763779
11
0.4829484251968504
21
0.5231929921259842
0
LINE
8
BLACK
6
CONTINUOUS
10
0.4829484251968504
20
0.5231929921259842
11
0.4809366535433071
21
0.5177993700787401
0
LINE
8
BLACK
6
CONTINUOUS
10
0.4809366535433071
20
0.5177993700787401
11
0.4809365748031496
21
0.5177990551181102
0
LINE
8
BLACK
6
CONTINUOUS
10
0.4809365748031496
20
0.5177990551181102
11
0.4806803149606299
21
0.5154153149606299
0
LINE
8
BLACK
6
CONTINUOUS
10
0.4806803149606299
20
0.5154153149606299
11
0.4806803149606299
21
0.4465846456692913
0
LINE
8
BLACK
6
CONTINUOUS
10
0.4806803149606299
20
0.4465846456692913
11
0.4809365748031496
21
0.444200905511811
0
LINE
8
BLACK
6
CONTINUOUS
10
1.7077365748031497
20
0.483200905511811
11
1.7077366535433069
21
0.4832005905511811
0
LINE
8
BLACK
6
CONTINUOUS
10
1.7077366535433069
20
0.4832005905511811
11
1.7097484251968504
21
0.477806968503937
0
LINE
8
BLACK
6
CONTINUOUS
10
1.7097484251968504
20
0.477806968503937
11
1.7097485039370077
21
0.4778067716535433
0
LINE
8
BLACK
6
CONTINUOUS
10
1.7097485039370077
20
0.4778067716535433
11
1.7131983464566929
21
0.4731983464566929
0
LINE
8
BLACK
6
CONTINUOUS
10
1.7131983464566929
20
0.4731983464566929
11
1.7178067716535432
21
0.4697485039370078
0
LINE
8
BLACK
6
CONTINUOUS
10
1.7178067716535432
20
0.4697485039370078
11
1.717806968503937
21
0.4697484251968504
0
LINE
8
BLACK
6
CONTINUOUS
10
1.717806968503937
20
0.4697484251968504
11
1.7232005905511811
21
0.4677366535433071
0
LINE
8
BLACK
6
CONTINUOUS
10
1.7232005905511811
20
0.4677366535433071
11
1.7232009055118109
21
0.4677365748031496
0
LINE
8
BLACK
6
CONTINUOUS
10
1.7232009055118109
20
0.4677365748031496
11
1.7255846456692914
21
0.4674803149606299
0
LINE
8
BLACK
6
CONTINUOUS
10
1.7255846456692914
20
0.4674803149606299
11
1.7255851181102362
21
0.4674803149606299
0
LINE
8
BLACK
6
CONTINUOUS
10
1.7255851181102362
20
0.4674803149606299
11
1.7944153149606299
21
0.4674803149606299
0
LINE
8
BLACK
6
CONTINUOUS
10
1.7944153149606299
20
0.4674803149606299
11
1.7967990551181101
21
0.4677365748031496
0
LINE
8
BLACK
6
CONTINUOUS
10
1.7967990551181101
20
0.4677365748031496
11
1.7967993700787401
21
0.4677366535433071
0
LINE
8
BLACK
6
CONTINUOUS
10
1.7967993700787401
20
0.4677366535433071
11
1.8021929921259843
21
0.4697484251968504
0
LINE
8
BLACK
6
CONTINUOUS
10
1.8021929921259843
20
0.4697484251968504
11
1.8021931889763778
21
0.4697485039370078
0
LINE
8
BLACK
6
CONTINUOUS
10
1.8021931889763778
20
0.4697485039370078
11
1.8070272047244094
21
0.4733672440944882
0
LINE
8
BLACK
6
CONTINUOUS
10
1.8070272047244094
20
0.4733672440944882
11
1.8096461023622046
21
0.4743440551181102
0
LINE
8
BLACK
6
CONTINUOUS
10
1.8096461023622046
20
0.4743440551181102
11
1.8123773622047243
21
0.4737499212598425
0
LINE
8
BLACK
6
CONTINUOUS
10
1.8123773622047243
20
0.4737499212598425
11
1.8129727952755905
21
0.4733672440944882
0
LINE
8
BLACK
6
CONTINUOUS
10
1.8129727952755905
20
0.4733672440944882
11
1.8178067716535433
21
0.4697485039370078
0
LINE
8
BLACK
6
CONTINUOUS
10
1.8178067716535433
20
0.4697485039370078
11
1.8178069685039369
21
0.4697484251968504
0
LINE
8
BLACK
6
CONTINUOUS
10
1.8178069685039369
20
0.4697484251968504
11
1.823200590551181
21
0.4677366535433071
0
LINE
8
BLACK
6
CONTINUOUS
10
1.823200590551181
20
0.4677366535433071
11
1.823200905511811
21
0.4677365748031496
0
LINE
8
BLACK
6
CONTINUOUS
10
1.823200905511811
20
0.4677365748031496
11
1.8255846456692912
21
0.4674803149606299
0
LINE
8
BLACK
6
CONTINUOUS
10
1.8255846456692912
20
0.4674803149606299
11
1.8255851181102363
21
0.4674803149606299
0
LINE
8
BLACK
6
CONTINUOUS
10
1.8255851181102363
20
0.4674803149606299
11
1.89441531496063
21
0.4674803149606299
0
LINE
8
BLACK
6
CONTINUOUS
10
1.89441531496063
20
0.4674803149606299
11
1.8967990551181102
21
0.4677365748031496
0
LINE
8
BLACK
6
CONTINUOUS
10
1.8967990551181102
20
0.4677365748031496
11
1.8967993700787402
21
0.4677366535433071
0
LINE
8
BLACK
6
CONTINUOUS
10
1.8967993700787402
20
0.4677366535433071
11
1.9021929921259841
21
0.4697484251968504
0
LINE
8
BLACK
6
CONTINUOUS
10
1.9021929921259841
20
0.4697484251968504
11
1.9021931889763779
21
0.4697485039370078
0
LINE
8
BLACK
6
CONTINUOUS
10
1.9021931889763779
20
0.4697485039370078
11
1.9068016141732282
21
0.4731983464566929
0
LINE
8
BLACK
6
CONTINUOUS
10
1.9068016141732282
20
0.4731983464566929
11
1.9102514566929134
21
0.4778067716535433
0
LINE
8
BLACK
6
CONTINUOUS
10
1.9102514566929134
20
0.4778067716535433
11
1.9102515354330709
21
0.477806968503937
0
LINE
8
BLACK
6
CONTINUOUS
10
1.9102515354330709
20
0.477806968503937
11
1.9122633070866142
21
0.4832005905511811
0
LINE
8
BLACK
6
CONTINUOUS
10
1.9122633070866142
20
0.4832005905511811
11
1.9122633858267717
21
0.483200905511811
0
LINE
8
BLACK
6
CONTINUOUS
10
1.9122633858267717
20
0.483200905511811
11
1.9125196456692912
21
0.4855846456692913
0
LINE
8
BLACK
6
CONTINUOUS
10
1.9125196456692912
20
0.4855846456692913
11
1.91251968503937
21
0.4855853149606299
0
LINE
8
BLACK
6
CONTINUOUS
10
1.91251968503937
20
0.4855853149606299
11
1.91251968503937
21
0.5544146456692913
0
LINE
8
BLACK
6
CONTINUOUS
10
1.91251968503937
20
0.5544146456692913
11
1.9125196456692912
21
0.5544153149606299
0
LINE
8
BLACK
6
CONTINUOUS
10
1.9125196456692912
20
0.5544153149606299
11
1.9122633858267717
21
0.5567990551181102
0
LINE
8
BLACK
6
CONTINUOUS
10
1.9122633858267717
20
0.5567990551181102
11
1.9122633070866142
21
0.5567993700787401
0
LINE
8
BLACK
6
CONTINUOUS
10
1.9122633070866142
20
0.5567993700787401
11
1.9112288582677166
21
0.5595727952755906
0
LINE
8
BLACK
6
CONTINUOUS
10
1.9112288582677166
20
0.5595727952755906
11
1.9102515354330709
21
0.5621930708661417
0
LINE
8
BLACK
6
CONTINUOUS
10
1.9102515354330709
20
0.5621930708661417
11
1.9068016141732282
21
0.5668016141732284
0
LINE
8
BLACK
6
CONTINUOUS
10
1.9068016141732282
20
0.5668016141732284
11
1.9061656299212597
21
0.567277716535433
0
LINE
8
BLACK
6
CONTINUOUS
10
1.9061656299212597
20
0.567277716535433
11
1.9021931889763779
21
0.5702514566929133
0
LINE
8
BLACK
6
CONTINUOUS
10
1.9021931889763779
20
0.5702514566929133
11
1.9021931496062991
21
0.5702514566929133
0
LINE
8
BLACK
6
CONTINUOUS
10
1.9021931496062991
20
0.5702514566929133
11
1.9021930708661416
21
0.5702515354330708
0
LINE
8
BLACK
6
CONTINUOUS
10
1.9021930708661416
20
0.5702515354330708
11
1.896799251968504
21
0.5722633464566929
0
LINE
8
BLACK
6
CONTINUOUS
10
1.896799251968504
20
0.5722633464566929
11
1.8967991732283465
21
0.5722633464566929
0
LINE
8
BLACK
6
CONTINUOUS
10
1.8967991732283465
20
0.5722633464566929
11
1.8967990551181102
21
0.5722633858267716
0
LINE
8
BLACK
6
CONTINUOUS
10
1.8967990551181102
20
0.5722633858267716
11
1.89441531496063
21
0.5725196456692914
0
LINE
8
BLACK
6
CONTINUOUS
10
1.89441531496063
20
0.5725196456692914
11
1.894415157480315
21
0.5725196456692914
0
LINE
8
BLACK
6
CONTINUOUS
10
1.894415157480315
20
0.5725196456692914
11
1.8944148818897637
21
0.5725196850393701
0
LINE
8
BLACK
6
CONTINUOUS
10
1.8944148818897637
20
0.5725196850393701
11
1.8255851181102363
21
0.5725196850393701
0
LINE
8
BLACK
6
CONTINUOUS
10
1.8255851181102363
20
0.5725196850393701
11
1.825584842519685
21
0.5725196456692914
0
LINE
8
BLACK
6
CONTINUOUS
10
1.825584842519685
20
0.5725196456692914
11
1.8255846456692912
21
0.5725196456692914
0
LINE
8
BLACK
6
CONTINUOUS
10
1.8255846456692912
20
0.5725196456692914
11
1.823200905511811
21
0.5722633858267716
0
LINE
8
BLACK
6
CONTINUOUS
10
1.823200905511811
20
0.5722633858267716
11
1.823200590551181
21
0.5722633070866142
0
LINE
8
BLACK
6
CONTINUOUS
10
1.823200590551181
20
0.5722633070866142
11
1.8201328740157481
21
0.5711190551181102
0
LINE
8
BLACK
6
CONTINUOUS
10
1.8201328740157481
20
0.5711190551181102
11
1.8178069291338583
21
0.5702515354330708
0
LINE
8
BLACK
6
CONTINUOUS
10
1.8178069291338583
20
0.5702515354330708
11
1.8131983858267715
21
0.5668016141732284
0
LINE
8
BLACK
6
CONTINUOUS
10
1.8131983858267715
20
0.5668016141732284
11
1.8131982677165355
21
0.5668014960629921
0
LINE
8
BLACK
6
CONTINUOUS
10
1.8131982677165355
20
0.5668014960629921
11
1.8129728346456693
21
0.566632716535433
0
LINE
8
BLACK
6
CONTINUOUS
10
1.8129728346456693
20
0.566632716535433
11
1.8103539370078741
21
0.565655905511811
0
LINE
8
BLACK
6
CONTINUOUS
10
1.8103539370078741
20
0.565655905511811
11
1.8076226377952755
21
0.5662500393700787
0
LINE
8
BLACK
6
CONTINUOUS
10
1.8076226377952755
20
0.5662500393700787
11
1.8070271653543306
21
0.566632716535433
0
LINE
8
BLACK
6
CONTINUOUS
10
1.8070271653543306
20
0.566632716535433
11
1.8068016929133859
21
0.5668014960629921
0
LINE
8
BLACK
6
CONTINUOUS
10
1.8068016929133859
20
0.5668014960629921
11
1.8068016141732284
21
0.5668016141732284
0
LINE
8
BLACK
6
CONTINUOUS
10
1.8068016141732284
20
0.5668016141732284
11
1.8021930708661418
21
0.5702515354330708
0
LINE
8
BLACK
6
CONTINUOUS
10
1.8021930708661418
20
0.5702515354330708
11
1.7967992519685039
21
0.5722633464566929
0
LINE
8
BLACK
6
CONTINUOUS
10
1.7967992519685039
20
0.5722633464566929
11
1.7967991732283464
21
0.5722633464566929
0
LINE
8
BLACK
6
CONTINUOUS
10
1.7967991732283464
20
0.5722633464566929
11
1.7967990551181101
21
0.5722633858267716
0
LINE
8
BLACK
6
CONTINUOUS
10
1.7967990551181101
20
0.5722633858267716
11
1.7944153149606299
21
0.5725196456692914
0
LINE
8
BLACK
6
CONTINUOUS
10
1.7944153149606299
20
0.5725196456692914
11
1.7944151574803149
21
0.5725196456692914
0
LINE
8
BLACK
6
CONTINUOUS
10
1.7944151574803149
20
0.5725196456692914
11
1.7944148818897638
21
0.5725196850393701
0
LINE
8
BLACK
6
CONTINUOUS
10
1.7944148818897638
20
0.5725196850393701
11
1.7255851181102362
21
0.5725196850393701
0
LINE
8
BLACK
6
CONTINUOUS
10
1.7255851181102362
20
0.5725196850393701
11
1.7255848425196849
21
0.5725196456692914
0
LINE
8
BLACK
6
CONTINUOUS
10
1.7255848425196849
20
0.5725196456692914
11
1.7255846456692914
21
0.5725196456692914
0
LINE
8
BLACK
6
CONTINUOUS
10
1.7255846456692914
20
0.5725196456692914
11
1.7232009055118109
21
0.5722633858267716
0
LINE
8
BLACK
6
CONTINUOUS
10
1.7232009055118109
20
0.5722633858267716
11
1.7232005905511811
21
0.5722633070866142
0
LINE
8
BLACK
6
CONTINUOUS
10
1.7232005905511811
20
0.5722633070866142
11
1.720132874015748
21
0.5711190551181102
0
LINE
8
BLACK
6
CONTINUOUS
10
1.720132874015748
20
0.5711190551181102
11
1.7178069291338582
21
0.5702515354330708
0
LINE
8
BLACK
6
CONTINUOUS
10
1.7178069291338582
20
0.5702515354330708
11
1.7178068503937007
21
0.5702514960629921
0
LINE
8
BLACK
6
CONTINUOUS
10
1.7178068503937007
20
0.5702514960629921
11
1.7178067716535432
21
0.5702514566929133
0
LINE
8
BLACK
6
CONTINUOUS
10
1.7178067716535432
20
0.5702514566929133
11
1.7131983464566929
21
0.5668016141732284
0
LINE
8
BLACK
6
CONTINUOUS
10
1.7131983464566929
20
0.5668016141732284
11
1.7097485039370077
21
0.5621931889763779
0
LINE
8
BLACK
6
CONTINUOUS
10
1.7097485039370077
20
0.5621931889763779
11
1.7097484251968504
21
0.5621929921259843
0
LINE
8
BLACK
6
CONTINUOUS
10
1.7097484251968504
20
0.5621929921259843
11
1.7077366535433069
21
0.5567993700787401
0
LINE
8
BLACK
6
CONTINUOUS
10
1.7077366535433069
20
0.5567993700787401
11
1.7077365748031497
21
0.5567990551181102
0
LINE
8
BLACK
6
CONTINUOUS
10
1.7077365748031497
20
0.5567990551181102
11
1.7074803149606299
21
0.5544153149606299
0
LINE
8
BLACK
6
CONTINUOUS
10
1.7074803149606299
20
0.5544153149606299
11
1.7074803149606299
21
0.4855846456692913
0
LINE
8
BLACK
6
CONTINUOUS
10
1.7074803149606299
20
0.4855846456692913
11
1.7077365748031497
21
0.483200905511811
0
LINE
8
BLACK
6
CONTINUOUS
10
0.0977365748031496
20
0.583200905511811
11
0.0977366535433071
21
0.5832005905511811
0
LINE
8
BLACK
6
CONTINUOUS
10
0.0977366535433071
20
0.5832005905511811
11
0.0997484251968504
21
0.577806968503937
0
LINE
8
BLACK
6
CONTINUOUS
10
0.0997484251968504
20
0.577806968503937
11
0.0997485039370079
21
0.5778067716535433
0
LINE
8
BLACK
6
CONTINUOUS
10
0.0997485039370079
20
0.5778067716535433
11
0.1031983464566929
21
0.5731983464566929
0
LINE
8
BLACK
6
CONTINUOUS
10
0.1031983464566929
20
0.5731983464566929
11
0.1078067716535433
21
0.5697485039370078
0
LINE
8
BLACK
6
CONTINUOUS
10
0.1078067716535433
20
0.5697485039370078
11
0.107806968503937
21
0.5697484251968504
0
LINE
8
BLACK
6
CONTINUOUS
10
0.107806968503937
20
0.5697484251968504
11
0.1132005905511811
21
0.567736653543307
0
LINE
8
BLACK
6
CONTINUOUS
10
0.1132005905511811
20
0.567736653543307
11
0.113200905511811
21
0.5677365748031495
0
LINE
8
BLACK
6
CONTINUOUS
10
0.113200905511811
20
0.5677365748031495
11
0.1155846456692913
21
0.5674803149606299
0
LINE
8
BLACK
6
CONTINUOUS
10
0.1155846456692913
20
0.5674803149606299
11
0.1155851181102362
21
0.5674803149606299
0
LINE
8
BLACK
6
CONTINUOUS
10
0.1155851181102362
20
0.5674803149606299
11
0.1844153149606299
21
0.5674803149606299
0
LINE
8
BLACK
6
CONTINUOUS
10
0.1844153149606299
20
0.5674803149606299
11
0.1867990551181102
21
0.5677365748031495
0
LINE
8
BLACK
6
CONTINUOUS
10
0.1867990551181102
20
0.5677365748031495
11
0.1867993700787401
21
0.567736653543307
0
LINE
8
BLACK
6
CONTINUOUS
10
0.1867993700787401
20
0.567736653543307
11
0.1921929921259843
21
0.5697484251968504
0
LINE
8
BLACK
6
CONTINUOUS
10
0.1921929921259843
20
0.5697484251968504
11
0.1921931889763779
21
0.5697485039370078
0
LINE
8
BLACK
6
CONTINUOUS
10
0.1921931889763779
20
0.5697485039370078
11
0.1970272047244094
21
0.5733672440944881
0
LINE
8
BLACK
6
CONTINUOUS
10
0.1970272047244094
20
0.5733672440944881
11
0.1996461023622047
21
0.5743440551181103
0
LINE
8
BLACK
6
CONTINUOUS
10
0.1996461023622047
20
0.5743440551181103
11
0.2023773622047244
21
0.5737499212598425
0
LINE
8
BLACK
6
CONTINUOUS
10
0.2023773622047244
20
0.5737499212598425
11
0.2029727952755905
21
0.5733672440944881
0
LINE
8
BLACK
6
CONTINUOUS
10
0.2029727952755905
20
0.5733672440944881
11
0.2078067716535433
21
0.5697485039370078
0
LINE
8
BLACK
6
CONTINUOUS
10
0.2078067716535433
20
0.5697485039370078
11
0.207806968503937
21
0.5697484251968504
0
LINE
8
BLACK
6
CONTINUOUS
10
0.207806968503937
20
0.5697484251968504
11
0.2132005905511811
21
0.567736653543307
0
LINE
8
BLACK
6
CONTINUOUS
10
0.2132005905511811
20
0.567736653543307
11
0.213200905511811
21
0.5677365748031495
0
LINE
8
BLACK
6
CONTINUOUS
10
0.213200905511811
20
0.5677365748031495
11
0.2155846456692913
21
0.5674803149606299
0
LINE
8
BLACK
6
CONTINUOUS
10
0.2155846456692913
20
0.5674803149606299
11
0.2155851181102362
21
0.5674803149606299
0
LINE
8
BLACK
6
CONTINUOUS
10
0.2155851181102362
20
0.5674803149606299
11
0.2844153149606299
21
0.5674803149606299
0
LINE
8
BLACK
6
CONTINUOUS
10
0.2844153149606299
20
0.5674803149606299
11
0.2867990551181102
21
0.5677365748031495
0
LINE
8
BLACK
6
CONTINUOUS
10
0.2867990551181102
20
0.5677365748031495
11
0.2867993700787401
21
0.567736653543307
0
LINE
8
BLACK
6
CONTINUOUS
10
0.2867993700787401
20
0.567736653543307
11
0.2921929921259843
21
0.5697484251968504
0
LINE
8
BLACK
6
CONTINUOUS
10
0.2921929921259843
20
0.5697484251968504
11
0.292193188976378
21
0.5697485039370078
0
LINE
8
BLACK
6
CONTINUOUS
10
0.292193188976378
20
0.5697485039370078
11
0.2968016141732283
21
0.5731983464566929
0
LINE
8
BLACK
6
CONTINUOUS
10
0.2968016141732283
20
0.5731983464566929
11
0.3002514566929134
21
0.5778067716535433
0
LINE
8
BLACK
6
CONTINUOUS
10
0.3002514566929134
20
0.5778067716535433
11
0.3002515354330709
21
0.577806968503937
0
LINE
8
BLACK
6
CONTINUOUS
10
0.3002515354330709
20
0.577806968503937
11
0.3022633070866141
21
0.5832005905511811
0
LINE
8
BLACK
6
CONTINUOUS
10
0.3022633070866141
20
0.5832005905511811
11
0.3022633858267716
21
0.583200905511811
0
LINE
8
BLACK
6
CONTINUOUS
10
0.3022633858267716
20
0.583200905511811
11
0.3025196456692913
21
0.5855846456692914
0
LINE
8
BLACK
6
CONTINUOUS
10
0.3025196456692913
20
0.5855846456692914
11
0.30251968503937
21
0.5855853149606299
0
LINE
8
BLACK
6
CONTINUOUS
10
0.30251968503937
20
0.5855853149606299
11
0.30251968503937
21
0.6544146456692913
0
LINE
8
BLACK
6
CONTINUOUS
10
0.30251968503937
20
0.6544146456692913
11
0.3025196456692913
21
0.6544153149606299
0
LINE
8
BLACK
6
CONTINUOUS
10
0.3025196456692913
20
0.6544153149606299
11
0.3022633858267716
21
0.6567990551181102
0
LINE
8
BLACK
6
CONTINUOUS
10
0.3022633858267716
20
0.6567990551181102
11
0.3022633070866141
21
0.6567993700787401
0
LINE
8
BLACK
6
CONTINUOUS
10
0.3022633070866141
20
0.6567993700787401
11
0.3019866141732284
21
0.6575411417322834
0
LINE
8
BLACK
6
CONTINUOUS
10
0.3019866141732284
20
0.6575411417322834
11
0.3002515354330709
21
0.6621930708661418
0
LINE
8
BLACK
6
CONTINUOUS
10
0.3002515354330709
20
0.6621930708661418
11
0.2968016141732283
21
0.6668016141732284
0
LINE
8
BLACK
6
CONTINUOUS
10
0.2968016141732283
20
0.6668016141732284
11
0.2921930708661417
21
0.6702515354330708
0
LINE
8
BLACK
6
CONTINUOUS
10
0.2921930708661417
20
0.6702515354330708
11
0.2867992519685039
21
0.6722633464566929
0
LINE
8
BLACK
6
CONTINUOUS
10
0.2867992519685039
20
0.6722633464566929
11
0.2867991732283465
21
0.6722633464566929
0
LINE
8
BLACK
6
CONTINUOUS
10
0.2867991732283465
20
0.6722633464566929
11
0.2867990551181102
21
0.6722633858267716
0
LINE
8
BLACK
6
CONTINUOUS
10
0.2867990551181102
20
0.6722633858267716
11
0.2844153149606299
21
0.6725196456692913
0
LINE
8
BLACK
6
CONTINUOUS
10
0.2844153149606299
20
0.6725196456692913
11
0.2844151574803149
21
0.6725196456692913
0
LINE
8
BLACK
6
CONTINUOUS
10
0.2844151574803149
20
0.6725196456692913
11
0.2844148818897638
21
0.6725196850393701
0
LINE
8
BLACK
6
CONTINUOUS
10
0.2844148818897638
20
0.6725196850393701
11
0.2155851181102362
21
0.6725196850393701
0
LINE
8
BLACK
6
CONTINUOUS
10
0.2155851181102362
20
0.6725196850393701
11
0.215584842519685
21
0.6725196456692913
0
LINE
8
BLACK
6
CONTINUOUS
10
0.215584842519685
20
0.6725196456692913
11
0.2155846456692913
21
0.6725196456692913
0
LINE
8
BLACK
6
CONTINUOUS
10
0.2155846456692913
20
0.6725196456692913
11
0.213200905511811
21
0.6722633858267716
0
LINE
8
BLACK
6
CONTINUOUS
10
0.213200905511811
20
0.6722633858267716
11
0.2132005905511811
21
0.6722633070866142
0
LINE
8
BLACK
6
CONTINUOUS
10
0.2132005905511811
20
0.6722633070866142
11
0.210132874015748
21
0.6711190551181102
0
LINE
8
BLACK
6
CONTINUOUS
10
0.210132874015748
20
0.6711190551181102
11
0.2078069291338583
21
0.6702515354330708
0
LINE
8
BLACK
6
CONTINUOUS
10
0.2078069291338583
20
0.6702515354330708
11
0.2031983858267717
21
0.6668016141732284
0
LINE
8
BLACK
6
CONTINUOUS
10
0.2031983858267717
20
0.6668016141732284
11
0.2031982677165354
21
0.6668014960629921
0
LINE
8
BLACK
6
CONTINUOUS
10
0.2031982677165354
20
0.6668014960629921
11
0.2029728346456693
21
0.6666327165354331
0
LINE
8
BLACK
6
CONTINUOUS
10
0.2029728346456693
20
0.6666327165354331
11
0.200353937007874
21
0.665655905511811
0
LINE
8
BLACK
6
CONTINUOUS
10
0.200353937007874
20
0.665655905511811
11
0.1976226377952756
21
0.6662500393700788
0
LINE
8
BLACK
6
CONTINUOUS
10
0.1976226377952756
20
0.6662500393700788
11
0.1970271653543307
21
0.6666327165354331
0
LINE
8
BLACK
6
CONTINUOUS
10
0.1970271653543307
20
0.6666327165354331
11
0.1968016929133858
21
0.6668014960629921
0
LINE
8
BLACK
6
CONTINUOUS
10
0.1968016929133858
20
0.6668014960629921
11
0.1968016141732283
21
0.6668016141732284
0
LINE
8
BLACK
6
CONTINUOUS
10
0.1968016141732283
20
0.6668016141732284
11
0.1921930708661417
21
0.6702515354330708
0
LINE
8
BLACK
6
CONTINUOUS
10
0.1921930708661417
20
0.6702515354330708
11
0.1867992519685039
21
0.6722633464566929
0
LINE
8
BLACK
6
CONTINUOUS
10
0.1867992519685039
20
0.6722633464566929
11
0.1867991732283465
21
0.6722633464566929
0
LINE
8
BLACK
6
CONTINUOUS
10
0.1867991732283465
20
0.6722633464566929
11
0.1867990551181102
21
0.6722633858267716
0
LINE
8
BLACK
6
CONTINUOUS
10
0.1867990551181102
20
0.6722633858267716
11
0.1844153149606299
21
0.6725196456692913
0
LINE
8
BLACK
6
CONTINUOUS
10
0.1844153149606299
20
0.6725196456692913
11
0.184415157480315
21
0.6725196456692913
0
LINE
8
BLACK
6
CONTINUOUS
10
0.184415157480315
20
0.6725196456692913
11
0.1844148818897638
21
0.6725196850393701
0
LINE
8
BLACK
6
CONTINUOUS
10
0.1844148818897638
20
0.6725196850393701
11
0.1155851181102362
21
0.6725196850393701
0
LINE
8
BLACK
6
CONTINUOUS
10
0.1155851181102362
20
0.6725196850393701
11
0.115584842519685
21
0.6725196456692913
0
LINE
8
BLACK
6
CONTINUOUS
10
0.115584842519685
20
0.6725196456692913
11
0.1155846456692913
21
0.6725196456692913
0
LINE
8
BLACK
6
CONTINUOUS
10
0.1155846456692913
20
0.6725196456692913
11
0.113200905511811
21
0.6722633858267716
0
LINE
8
BLACK
6
CONTINUOUS
10
0.113200905511811
20
0.6722633858267716
11
0.1132005905511811
21
0.6722633070866142
0
LINE
8
BLACK
6
CONTINUOUS
10
0.1132005905511811
20
0.6722633070866142
11
0.110132874015748
21
0.6711190551181102
0
LINE
8
BLACK
6
CONTINUOUS
10
0.110132874015748
20
0.6711190551181102
11
0.1078069291338583
21
0.6702515354330708
0
LINE
8
BLACK
6
CONTINUOUS
10
0.1078069291338583
20
0.6702515354330708
11
0.1078068503937008
21
0.6702514960629921
0
LINE
8
BLACK
6
CONTINUOUS
10
0.1078068503937008
20
0.6702514960629921
11
0.1078067716535433
21
0.6702514566929134
0
LINE
8
BLACK
6
CONTINUOUS
10
0.1078067716535433
20
0.6702514566929134
11
0.1031983464566929
21
0.6668016141732284
0
LINE
8
BLACK
6
CONTINUOUS
10
0.1031983464566929
20
0.6668016141732284
11
0.0997485039370079
21
0.6621931889763779
0
LINE
8
BLACK
6
CONTINUOUS
10
0.0997485039370079
20
0.6621931889763779
11
0.0997484251968504
21
0.6621929921259843
0
LINE
8
BLACK
6
CONTINUOUS
10
0.0997484251968504
20
0.6621929921259843
11
0.0977366535433071
21
0.6567993700787401
0
LINE
8
BLACK
6
CONTINUOUS
10
0.0977366535433071
20
0.6567993700787401
11
0.0977365748031496
21
0.6567990551181102
0
LINE
8
BLACK
6
CONTINUOUS
10
0.0977365748031496
20
0.6567990551181102
11
0.0974803149606299
21
0.6544153149606299
0
LINE
8
BLACK
6
CONTINUOUS
10
0.0974803149606299
20
0.6544153149606299
11
0.0974803149606299
21
0.5855846456692914
0
LINE
8
BLACK
6
CONTINUOUS
10
0.0974803149606299
20
0.5855846456692914
11
0.0977365748031496
21
0.583200905511811
0
CIRCLE
8
BLACK
10
0.2
20
0.2
40
0.0068897637795276
0
CIRCLE
8
BLACK
10
0.2
20
1.
40
0.0068897637795276
0
CIRCLE
8
BLACK
10
0.25
20
0.52
40
0.0068897637795276
0
CIRCLE
8
BLACK
10
0.25
20
0.62
40
0.0068897637795276
0
CIRCLE
8
BLACK
10
0.25
20
0.72
40
0.0068897637795276
0
CIRCLE
8
BLACK
10
0.15
20
0.72
40
0.0068897637795276
0
CIRCLE
8
BLACK
10
0.15
20
0.62
40
0.0068897637795276
0
CIRCLE
8
BLACK
10
0.15
20
0.52
40
0.0068897637795276
0
CIRCLE
8
BLACK
10
0.5332
20
0.281
40
0.0068897637795276
0
CIRCLE
8
BLACK
10
0.5332
20
0.481
40
0.0068897637795276
0
CIRCLE
8
BLACK
10
1.8
20
1.
40
0.0068897637795276
0
CIRCLE
8
BLACK
10
1.8
20
0.2
40
0.0068897637795276
0
CIRCLE
8
BLACK
10
1.8599999999999999
20
0.42
40
0.0068897637795276
0
CIRCLE
8
BLACK
10
1.8599999999999999
20
0.52
40
0.0068897637795276
0
CIRCLE
8
BLACK
10
1.8599999999999999
20
0.62
40
0.0068897637795276
0
CIRCLE
8
BLACK
10
1.76
20
0.62
40
0.0068897637795276
0
CIRCLE
8
BLACK
10
1.76
20
0.52
40
0.0068897637795276
0
CIRCLE
8
BLACK
10
1.76
20
0.42
40
0.0068897637795276
0
CIRCLE
8
BLACK
10
1.1099999999999999
20
0.1
40
0.0068897637795276
0
CIRCLE
8
BLACK
10
1.21
20
0.1
40
0.0068897637795276
0
CIRCLE
8
BLACK
10
1.3100000000000001
20
0.1
40
0.0068897637795276
0
CIRCLE
8
BLACK
10
1.4099999999999999
20
0.1
40
0.0068897637795276
0
CIRCLE
8
BLACK
10
1.51
20
0.1
40
0.0068897637795276
0
CIRCLE
8
BLACK
10
1.51
20
0.2
40
0.0068897637795276
0
CIRCLE
8
BLACK
10
1.4099999999999999
20
0.2
40
0.0068897637795276
0
CIRCLE
8
BLACK
10
1.3100000000000001
20
0.2
40
0.0068897637795276
0
CIRCLE
8
BLACK
10
1.21
20
0.2
40
0.0068897637795276
0
CIRCLE
8
BLACK
10
1.1099999999999999
20
0.2
40
0.0068897637795276
0
CIRCLE
8
BLACK
10
0.848
20
1.1139999999999999
40
0.0125
0
CIRCLE
8
BLACK
10
0.58
20
1.1179999999999999
40
0.0125
0
CIRCLE
8
BLACK
10
1.0731999999999999
20
0.5512
40
0.0125
0
CIRCLE
8
BLACK
10
0.394
20
0.22
40
0.0125
0
CIRCLE
8
BLACK
10
1.49
20
1.054
40
0.0125
0
CIRCLE
8
BLACK
10
0.392
20
0.114
40
0.0125
0
CIRCLE
8
BLACK
10
0.5579999999999999
20
0.12
40
0.0125
0
CIRCLE
8
BLACK
10
1.3400000000000001
20
0.97
40
0.0125
0
CIRCLE
8
BLACK
10
0.486
20
0.9399999999999999
40
0.0125
0
CIRCLE
8
BLACK
10
0.45
20
0.7959999999999999
40
0.0125
0
CIRCLE
8
BLACK
10
1.3160000000000001
20
1.1039999999999999
40
0.0125
0
CIRCLE
8
BLACK
10
0.654
20
0.082
40
0.0125
0
CIRCLE
8
BLACK
10
0.75
20
0.9299999999999999
40
0.0125
0
CIRCLE
8
BLACK
10
1.0074000000000001
20
0.7203999999999999
40
0.0125
0
CIRCLE
8
BLACK
10
0.8912
20
0.7929999999999999
40
0.0125
0
CIRCLE
8
BLACK
10
1.2016
20
0.5692
40
0.0125
0
CIRCLE
8
BLACK
10
1.2278
20
0.3768
40
0.0125
0
CIRCLE
8
BLACK
10
0.8778
20
0.529
40
0.0125
  0
ENDSEC
  0
EOF
