M48
; DRILL file {KiCad 7.0.11+1} date Wed Jul  3 21:22:02 2024
; FORMAT={3:3/ absolute / metric / suppress leading zeros}
; #@! TF.CreationDate,2024-07-03T21:22:02+00:00
; #@! TF.GenerationSoftware,Kicad,Pcbnew,7.0.11+1
; #@! TF.FileFunction,Plated,1,2,PTH
FMAT,2
METRIC,TZ
; #@! TA.AperFunction,Plated,PTH,ViaDrill
T1C0.635
; #@! TA.AperFunction,Plated,PTH,ComponentDrill
T2C0.900
; #@! TA.AperFunction,Plated,PTH,ComponentDrill
T3C3.000
%
G90
G05
T1
X9957Y2896
X10008Y5588
X11430Y20218
X12344Y23876
X14173Y3048
X14732Y28397
X16612Y2083
X19050Y23622
X21539Y28296
X22296Y13437
X22636Y20142
X25588Y18298
X27259Y14000
X30521Y14458
X31186Y9571
X33426Y28042
X34036Y24638
X37846Y26772
T2
X3810Y18288
X3810Y15748
X3810Y13208
X6350Y18288
X6350Y15748
X6350Y13208
X13543Y12217
X13543Y7137
X28194Y5080
X28194Y2540
X30734Y5080
X30734Y2540
X33274Y5080
X33274Y2540
X35814Y5080
X35814Y2540
X38354Y5080
X38354Y2540
X44704Y15748
X44704Y13208
X44704Y10668
X47244Y15748
X47244Y13208
X47244Y10668
T3
X5080Y25400
X5080Y5080
X45720Y25400
X45720Y5080
M30
