%TF.GenerationSoftware,KiCad,Pcbnew,7.0.11+1*%
%TF.CreationDate,2024-07-03T21:22:02+00:00*%
%TF.ProjectId,PCRD02,50435244-3032-42e6-9b69-6361645f7063,rev?*%
%TF.SameCoordinates,Original*%
%TF.FileFunction,Copper,L1,Top*%
%TF.FilePolarity,Positive*%
%FSLAX46Y46*%
G04 Gerber Fmt 4.6, Leading zero omitted, Abs format (unit mm)*
G04 Created by KiCad (PCBNEW 7.0.11+1) date 2024-07-03 21:22:02*
%MOMM*%
%LPD*%
G01*
G04 APERTURE LIST*
%TA.AperFunction,SMDPad,CuDef*%
%ADD10C,9.480265*%
%TD*%
%TA.AperFunction,ComponentPad*%
%ADD11C,6.000000*%
%TD*%
%TA.AperFunction,ComponentPad*%
%ADD12R,1.651000X1.651000*%
%TD*%
%TA.AperFunction,ViaPad*%
%ADD13C,0.889000*%
%TD*%
%TA.AperFunction,Conductor*%
%ADD14C,0.400000*%
%TD*%
%TA.AperFunction,Conductor*%
%ADD15C,0.600000*%
%TD*%
G04 APERTURE END LIST*
D10*
%TO.P,C5,1*%
%TO.N,Net-(C5-Pad1)*%
X26654760Y24079200D03*
%TD*%
D11*
%TO.P,P3,1*%
%TO.N,GND*%
X5080000Y5080000D03*
%TD*%
%TO.P,P4,1*%
%TO.N,GND*%
X5080000Y25400000D03*
%TD*%
D12*
%TO.P,J2,1*%
%TO.N,GND*%
X6350000Y13208000D03*
%TO.P,J2,2*%
%TO.N,Net-(J2-Pad2)*%
X6350000Y15748000D03*
%TO.P,J2,3*%
%TO.N,GND*%
X6350000Y18288000D03*
%TO.P,J2,4*%
X3810000Y18288000D03*
%TO.P,J2,5*%
%TO.N,Net-(J2-Pad2)*%
X3810000Y15748000D03*
%TO.P,J2,6*%
%TO.N,GND*%
X3810000Y13208000D03*
%TD*%
%TO.P,J1,1*%
%TO.N,GND*%
X13543280Y7137400D03*
%TO.P,J1,2*%
%TO.N,Net-(C2-Pad2)*%
X13543280Y12217400D03*
%TD*%
D11*
%TO.P,P1,1*%
%TO.N,GND*%
X45720000Y25400000D03*
%TD*%
%TO.P,P2,1*%
%TO.N,GND*%
X45720000Y5080000D03*
%TD*%
D12*
%TO.P,J4,1*%
%TO.N,GND*%
X47244000Y10668000D03*
%TO.P,J4,2*%
%TO.N,Net-(C17-Pad1)*%
X47244000Y13208000D03*
%TO.P,J4,3*%
%TO.N,GND*%
X47244000Y15748000D03*
%TO.P,J4,4*%
X44704000Y15748000D03*
%TO.P,J4,5*%
%TO.N,Net-(C17-Pad1)*%
X44704000Y13208000D03*
%TO.P,J4,6*%
%TO.N,GND*%
X44704000Y10668000D03*
%TD*%
D10*
%TO.P,C8,1*%
%TO.N,Net-(C13-Pad2)*%
X20721320Y7675880D03*
%TD*%
D12*
%TO.P,J3,1*%
%TO.N,GND*%
X28194000Y2540000D03*
%TO.P,J3,2*%
%TO.N,V-*%
X30734000Y2540000D03*
%TO.P,J3,3*%
%TO.N,V+*%
X33274000Y2540000D03*
%TO.P,J3,4*%
%TO.N,V-*%
X35814000Y2540000D03*
%TO.P,J3,5*%
%TO.N,GND*%
X38354000Y2540000D03*
%TO.P,J3,6*%
X38354000Y5080000D03*
%TO.P,J3,7*%
%TO.N,V-*%
X35814000Y5080000D03*
%TO.P,J3,8*%
%TO.N,V+*%
X33274000Y5080000D03*
%TO.P,J3,9*%
%TO.N,V-*%
X30734000Y5080000D03*
%TO.P,J3,10*%
%TO.N,GND*%
X28194000Y5080000D03*
%TD*%
D13*
%TO.N,GND*%
X21539200Y28295600D03*
X14732000Y28397200D03*
X27259280Y14000480D03*
X10007600Y5588000D03*
X37846000Y26771600D03*
X9956800Y2895600D03*
X14173200Y3048000D03*
X34036000Y24638000D03*
X12344400Y23876000D03*
X11430000Y20218400D03*
X33426400Y28041600D03*
X16611600Y2082800D03*
%TO.N,V+*%
X19050000Y23622000D03*
X25587960Y18298160D03*
%TO.N,Net-(C5-Pad1)*%
X22636480Y20142200D03*
%TO.N,V-*%
X30520640Y14457680D03*
X31186120Y9570720D03*
%TO.N,Net-(C13-Pad2)*%
X22296120Y13436600D03*
%TD*%
D14*
%TO.N,GND*%
X12344400Y21132800D02*
X11430000Y20218400D01*
X15646400Y3048000D02*
X16611600Y2082800D01*
X34036000Y24638000D02*
X35712400Y24638000D01*
X12344400Y23876000D02*
X12344400Y21132800D01*
X10007600Y5588000D02*
X10007600Y2946400D01*
X10007600Y2946400D02*
X9956800Y2895600D01*
D15*
X27259280Y14000480D02*
X28194000Y13065760D01*
D14*
X35712400Y24638000D02*
X37846000Y26771600D01*
X14833600Y28295600D02*
X14732000Y28397200D01*
X21539200Y28295600D02*
X14833600Y28295600D01*
D15*
X28194000Y13065760D02*
X28194000Y5080000D01*
D14*
X14173200Y3048000D02*
X15646400Y3048000D01*
D15*
%TO.N,V+*%
X33274000Y5080000D02*
X33274000Y14177782D01*
X26216577Y18298160D02*
X25587960Y18298160D01*
X24959343Y18298160D02*
X25587960Y18298160D01*
X29153622Y18298160D02*
X26216577Y18298160D01*
X33274000Y14177782D02*
X29153622Y18298160D01*
X19050000Y22271218D02*
X23023058Y18298160D01*
X23023058Y18298160D02*
X24959343Y18298160D01*
X19050000Y23622000D02*
X19050000Y22271218D01*
D14*
%TO.N,Net-(C5-Pad1)*%
X23080979Y20586699D02*
X22636480Y20142200D01*
X26670000Y24175720D02*
X23080979Y20586699D01*
X26670000Y24257000D02*
X26670000Y24175720D01*
D15*
%TO.N,V-*%
X31186120Y13792200D02*
X30520640Y14457680D01*
X30734000Y9118600D02*
X31186120Y9570720D01*
X31186120Y9570720D02*
X31186120Y13792200D01*
X30734000Y5080000D02*
X30734000Y9118600D01*
D14*
%TO.N,Net-(C13-Pad2)*%
X20828000Y7112000D02*
X20828000Y12581099D01*
D15*
X22296120Y13436600D02*
X21667503Y13436600D01*
X20828000Y7782560D02*
X20721320Y7675880D01*
X21667503Y13436600D02*
X20828000Y12597097D01*
X20828000Y12581099D02*
X20828000Y7782560D01*
X20828000Y12597097D02*
X20828000Y12581099D01*
%TD*%
%TA.AperFunction,Conductor*%
%TO.N,GND*%
G36*
X50437621Y30155498D02*
G01*
X50484114Y30101842D01*
X50495500Y30049500D01*
X50495500Y430500D01*
X50475498Y362379D01*
X50421842Y315886D01*
X50369500Y304500D01*
X430500Y304500D01*
X362379Y324502D01*
X315886Y378158D01*
X304500Y430500D01*
X304500Y7675878D01*
X15467688Y7675878D01*
X15487679Y7217999D01*
X15487680Y7217988D01*
X15547501Y6763599D01*
X15547503Y6763590D01*
X15646699Y6316147D01*
X15646703Y6316131D01*
X15784514Y5879051D01*
X15784522Y5879029D01*
X15959914Y5455591D01*
X16171531Y5049081D01*
X16171541Y5049064D01*
X16417792Y4662526D01*
X16696799Y4298915D01*
X16696810Y4298903D01*
X17006441Y3961001D01*
X17344343Y3651370D01*
X17344355Y3651359D01*
X17707966Y3372352D01*
X18094504Y3126101D01*
X18094521Y3126091D01*
X18501031Y2914474D01*
X18924469Y2739082D01*
X18924491Y2739074D01*
X19361571Y2601263D01*
X19361587Y2601259D01*
X19809030Y2502063D01*
X19809039Y2502061D01*
X20263428Y2442240D01*
X20263439Y2442239D01*
X20721319Y2422248D01*
X20721320Y2422248D01*
X20721321Y2422248D01*
X21179200Y2442239D01*
X21179211Y2442240D01*
X21633600Y2502061D01*
X21633609Y2502063D01*
X22081052Y2601259D01*
X22081068Y2601263D01*
X22518148Y2739074D01*
X22518162Y2739079D01*
X22518168Y2739081D01*
X22586001Y2767178D01*
X22941608Y2914474D01*
X23348118Y3126091D01*
X23348127Y3126096D01*
X23348136Y3126101D01*
X23557253Y3259323D01*
X23734673Y3372352D01*
X23789145Y3414149D01*
X23910608Y3507351D01*
X24098284Y3651359D01*
X24098286Y3651361D01*
X24098290Y3651364D01*
X24436199Y3961001D01*
X24745836Y4298910D01*
X25024843Y4662520D01*
X25271099Y5049064D01*
X25271108Y5049081D01*
X25482725Y5455591D01*
X25534094Y5579608D01*
X25658119Y5879032D01*
X25795939Y6316140D01*
X25895138Y6763596D01*
X25954960Y7217996D01*
X25974952Y7675880D01*
X25954960Y8133764D01*
X25895138Y8588164D01*
X25795939Y9035620D01*
X25658119Y9472728D01*
X25482728Y9896161D01*
X25482727Y9896161D01*
X25482725Y9896168D01*
X25271108Y10302678D01*
X25271099Y10302696D01*
X25024843Y10689240D01*
X24745836Y11052850D01*
X24436199Y11390759D01*
X24098290Y11700396D01*
X23734680Y11979403D01*
X23348136Y12225659D01*
X23205511Y12299904D01*
X22941610Y12437284D01*
X22941603Y12437286D01*
X22941601Y12437288D01*
X22895955Y12456194D01*
X22840676Y12500741D01*
X22818254Y12568104D01*
X22835811Y12636895D01*
X22864240Y12670002D01*
X22903624Y12702324D01*
X22973253Y12759467D01*
X23092344Y12904580D01*
X23180837Y13070138D01*
X23235331Y13249779D01*
X23235331Y13249781D01*
X23235332Y13249784D01*
X23235332Y13249786D01*
X23253731Y13436596D01*
X23253731Y13436603D01*
X23235332Y13623413D01*
X23235332Y13623415D01*
X23235331Y13623416D01*
X23235331Y13623421D01*
X23180837Y13803062D01*
X23092344Y13968620D01*
X22973253Y14113733D01*
X22828140Y14232824D01*
X22662582Y14321317D01*
X22482941Y14375811D01*
X22482935Y14375811D01*
X22482934Y14375812D01*
X22296123Y14394211D01*
X22296117Y14394211D01*
X22109306Y14375812D01*
X22109304Y14375812D01*
X22109301Y14375811D01*
X22109299Y14375811D01*
X21929658Y14321317D01*
X21929654Y14321315D01*
X21814903Y14259979D01*
X21755507Y14245101D01*
X21576407Y14245101D01*
X21538750Y14236505D01*
X21524829Y14234140D01*
X21497930Y14231109D01*
X21486463Y14229818D01*
X21486460Y14229817D01*
X21486456Y14229817D01*
X21486453Y14229816D01*
X21450005Y14217062D01*
X21436437Y14213153D01*
X21398783Y14204559D01*
X21363984Y14187800D01*
X21350947Y14182400D01*
X21314488Y14169643D01*
X21281790Y14149097D01*
X21269428Y14142264D01*
X21234634Y14125509D01*
X21234630Y14125506D01*
X21204439Y14101430D01*
X21192916Y14093254D01*
X21160222Y14072711D01*
X21127914Y14040403D01*
X20320719Y13233208D01*
X20239615Y13152104D01*
X20191889Y13104378D01*
X20171344Y13071681D01*
X20163168Y13060159D01*
X20139092Y13029969D01*
X20139090Y13029965D01*
X20122334Y12995171D01*
X20115500Y12982806D01*
X20094953Y12950106D01*
X20092228Y12944447D01*
X20044648Y12891753D01*
X19995156Y12874200D01*
X19809036Y12849698D01*
X19361580Y12750499D01*
X18924472Y12612679D01*
X18654229Y12500741D01*
X18501031Y12437285D01*
X18094521Y12225668D01*
X18094504Y12225659D01*
X17707960Y11979403D01*
X17344350Y11700396D01*
X17006441Y11390759D01*
X16696804Y11052850D01*
X16696801Y11052846D01*
X16696799Y11052844D01*
X16417792Y10689233D01*
X16304763Y10511813D01*
X16171541Y10302696D01*
X16171536Y10302687D01*
X16171531Y10302678D01*
X15959914Y9896168D01*
X15784522Y9472730D01*
X15784514Y9472708D01*
X15646703Y9035628D01*
X15646699Y9035612D01*
X15547503Y8588169D01*
X15547501Y8588160D01*
X15487680Y8133771D01*
X15487679Y8133760D01*
X15467688Y7675881D01*
X15467688Y7675878D01*
X304500Y7675878D01*
X304500Y11343250D01*
X12209280Y11343250D01*
X12215789Y11282703D01*
X12215791Y11282695D01*
X12266890Y11145697D01*
X12266892Y11145692D01*
X12354518Y11028638D01*
X12471572Y10941012D01*
X12471577Y10941010D01*
X12608575Y10889911D01*
X12608583Y10889909D01*
X12669130Y10883400D01*
X12669142Y10883400D01*
X14417429Y10883400D01*
X14477976Y10889909D01*
X14477984Y10889911D01*
X14614982Y10941010D01*
X14614987Y10941012D01*
X14732041Y11028638D01*
X14819667Y11145692D01*
X14819669Y11145697D01*
X14870768Y11282695D01*
X14870770Y11282703D01*
X14877279Y11343250D01*
X14877280Y11343267D01*
X14877280Y13091532D01*
X14877279Y13091549D01*
X14870770Y13152096D01*
X14870768Y13152104D01*
X14863740Y13170945D01*
X14819669Y13289104D01*
X14732041Y13406161D01*
X14614984Y13493789D01*
X14477981Y13544889D01*
X14477979Y13544889D01*
X14477976Y13544890D01*
X14417429Y13551399D01*
X14417425Y13551399D01*
X14417418Y13551400D01*
X12669142Y13551400D01*
X12669135Y13551399D01*
X12669130Y13551399D01*
X12608583Y13544890D01*
X12608575Y13544888D01*
X12558011Y13526028D01*
X12471576Y13493789D01*
X12471574Y13493788D01*
X12471572Y13493787D01*
X12354518Y13406161D01*
X12266892Y13289107D01*
X12266890Y13289102D01*
X12215791Y13152104D01*
X12215789Y13152096D01*
X12209280Y13091549D01*
X12209280Y11343250D01*
X304500Y11343250D01*
X304500Y14873850D01*
X2476000Y14873850D01*
X2482509Y14813303D01*
X2482511Y14813295D01*
X2533610Y14676297D01*
X2533612Y14676292D01*
X2621238Y14559238D01*
X2738292Y14471612D01*
X2738297Y14471610D01*
X2875295Y14420511D01*
X2875303Y14420509D01*
X2935850Y14414000D01*
X2935862Y14414000D01*
X4684149Y14414000D01*
X4744696Y14420509D01*
X4744704Y14420511D01*
X4881702Y14471610D01*
X4881707Y14471612D01*
X5004491Y14563528D01*
X5071011Y14588339D01*
X5140385Y14573248D01*
X5155509Y14563528D01*
X5278292Y14471612D01*
X5278297Y14471610D01*
X5415295Y14420511D01*
X5415303Y14420509D01*
X5475850Y14414000D01*
X5475862Y14414000D01*
X7224149Y14414000D01*
X7284696Y14420509D01*
X7284704Y14420511D01*
X7421702Y14471610D01*
X7421707Y14471612D01*
X7538761Y14559238D01*
X7626387Y14676292D01*
X7626389Y14676297D01*
X7677488Y14813295D01*
X7677490Y14813303D01*
X7683999Y14873850D01*
X7684000Y14873867D01*
X7684000Y16622132D01*
X7683999Y16622149D01*
X7677490Y16682696D01*
X7677488Y16682704D01*
X7670460Y16701545D01*
X7626389Y16819704D01*
X7538761Y16936761D01*
X7421704Y17024389D01*
X7284701Y17075489D01*
X7284699Y17075489D01*
X7284696Y17075490D01*
X7224149Y17081999D01*
X7224145Y17081999D01*
X7224138Y17082000D01*
X5475862Y17082000D01*
X5475855Y17081999D01*
X5475850Y17081999D01*
X5415303Y17075490D01*
X5415295Y17075488D01*
X5337375Y17046424D01*
X5278296Y17024389D01*
X5161239Y16936761D01*
X5161236Y16936758D01*
X5155510Y16932471D01*
X5088990Y16907660D01*
X5019615Y16922751D01*
X5004490Y16932471D01*
X4998763Y16936758D01*
X4998761Y16936761D01*
X4881704Y17024389D01*
X4744701Y17075489D01*
X4744699Y17075489D01*
X4744696Y17075490D01*
X4684149Y17081999D01*
X4684145Y17081999D01*
X4684138Y17082000D01*
X2935862Y17082000D01*
X2935855Y17081999D01*
X2935850Y17081999D01*
X2875303Y17075490D01*
X2875295Y17075488D01*
X2797375Y17046424D01*
X2738296Y17024389D01*
X2738294Y17024388D01*
X2738292Y17024387D01*
X2621238Y16936761D01*
X2533612Y16819707D01*
X2533610Y16819702D01*
X2482511Y16682704D01*
X2482509Y16682696D01*
X2476000Y16622149D01*
X2476000Y14873850D01*
X304500Y14873850D01*
X304500Y23621996D01*
X18092389Y23621996D01*
X18110787Y23435186D01*
X18110787Y23435184D01*
X18165282Y23255540D01*
X18165284Y23255534D01*
X18226622Y23140780D01*
X18241500Y23081384D01*
X18241500Y22180119D01*
X18250092Y22142475D01*
X18252458Y22128548D01*
X18256782Y22090171D01*
X18269537Y22053718D01*
X18273446Y22040148D01*
X18282039Y22002501D01*
X18282040Y22002500D01*
X18298798Y21967700D01*
X18304203Y21954651D01*
X18316958Y21918200D01*
X18337503Y21885502D01*
X18344336Y21873139D01*
X18361091Y21838347D01*
X18385172Y21808150D01*
X18393346Y21796630D01*
X18413889Y21763937D01*
X18446197Y21731629D01*
X22386947Y17790879D01*
X22451362Y17726464D01*
X22515776Y17662049D01*
X22548473Y17641504D01*
X22559991Y17633332D01*
X22590191Y17609249D01*
X22624981Y17592495D01*
X22637342Y17585663D01*
X22670040Y17565118D01*
X22670046Y17565115D01*
X22706499Y17552359D01*
X22719547Y17546954D01*
X22754329Y17530204D01*
X22754336Y17530201D01*
X22754338Y17530201D01*
X22754340Y17530200D01*
X22754342Y17530200D01*
X22791990Y17521606D01*
X22805561Y17517697D01*
X22842011Y17504943D01*
X22842017Y17504942D01*
X22880389Y17500617D01*
X22894312Y17498251D01*
X22931958Y17489659D01*
X22931962Y17489659D01*
X23121873Y17489659D01*
X23121889Y17489660D01*
X24913937Y17489660D01*
X25047346Y17489660D01*
X25106740Y17474782D01*
X25221498Y17413443D01*
X25221500Y17413442D01*
X25401145Y17358947D01*
X25587957Y17340549D01*
X25587960Y17340549D01*
X25587963Y17340549D01*
X25774773Y17358947D01*
X25774775Y17358947D01*
X25954419Y17413442D01*
X25954420Y17413442D01*
X25954422Y17413443D01*
X26069179Y17474782D01*
X26128574Y17489660D01*
X26171171Y17489660D01*
X28766540Y17489660D01*
X28834661Y17469658D01*
X28855635Y17452755D01*
X30684785Y15623604D01*
X30718811Y15561292D01*
X30713746Y15490476D01*
X30671199Y15433641D01*
X30604679Y15408830D01*
X30583340Y15409116D01*
X30520643Y15415291D01*
X30520637Y15415291D01*
X30333826Y15396892D01*
X30333824Y15396892D01*
X30333821Y15396891D01*
X30333819Y15396891D01*
X30154178Y15342397D01*
X29988620Y15253904D01*
X29843507Y15134813D01*
X29732775Y14999886D01*
X29724416Y14989700D01*
X29635924Y14824145D01*
X29635922Y14824139D01*
X29581427Y14644495D01*
X29581427Y14644493D01*
X29563029Y14457683D01*
X29563029Y14457676D01*
X29581427Y14270866D01*
X29581427Y14270864D01*
X29635922Y14091220D01*
X29635924Y14091214D01*
X29724416Y13925659D01*
X29843507Y13780547D01*
X29988619Y13661456D01*
X30154176Y13572963D01*
X30278697Y13535189D01*
X30331211Y13503715D01*
X30340711Y13494216D01*
X30374739Y13431906D01*
X30377620Y13405116D01*
X30377620Y10111334D01*
X30362742Y10051939D01*
X30324815Y9980983D01*
X30301402Y9937181D01*
X30263629Y9812660D01*
X30232150Y9760142D01*
X30226719Y9754711D01*
X30097889Y9625881D01*
X30077344Y9593184D01*
X30069168Y9581662D01*
X30045092Y9551472D01*
X30045090Y9551468D01*
X30028334Y9516674D01*
X30021500Y9504309D01*
X30000957Y9471615D01*
X30000957Y9471614D01*
X29988203Y9435166D01*
X29982796Y9422113D01*
X29966042Y9387324D01*
X29966040Y9387316D01*
X29957445Y9349665D01*
X29953535Y9336095D01*
X29940784Y9299653D01*
X29940782Y9299646D01*
X29936458Y9261268D01*
X29934091Y9247341D01*
X29925500Y9209699D01*
X29925500Y6534237D01*
X29905498Y6466116D01*
X29851842Y6419623D01*
X29812967Y6408959D01*
X29799303Y6407490D01*
X29799295Y6407488D01*
X29721375Y6378424D01*
X29662296Y6356389D01*
X29662294Y6356388D01*
X29662292Y6356387D01*
X29545238Y6268761D01*
X29457612Y6151707D01*
X29457610Y6151702D01*
X29406511Y6014704D01*
X29406509Y6014696D01*
X29400000Y5954149D01*
X29400000Y4205850D01*
X29406509Y4145303D01*
X29406511Y4145295D01*
X29457610Y4008297D01*
X29457612Y4008292D01*
X29549528Y3885509D01*
X29574339Y3818989D01*
X29559248Y3749615D01*
X29549528Y3734491D01*
X29457612Y3611707D01*
X29457610Y3611702D01*
X29406511Y3474704D01*
X29406509Y3474696D01*
X29400000Y3414149D01*
X29400000Y1665850D01*
X29406509Y1605303D01*
X29406511Y1605295D01*
X29457610Y1468297D01*
X29457612Y1468292D01*
X29545238Y1351238D01*
X29662292Y1263612D01*
X29662297Y1263610D01*
X29799295Y1212511D01*
X29799303Y1212509D01*
X29859850Y1206000D01*
X29859862Y1206000D01*
X31608149Y1206000D01*
X31668696Y1212509D01*
X31668704Y1212511D01*
X31805702Y1263610D01*
X31805707Y1263612D01*
X31928491Y1355528D01*
X31995011Y1380339D01*
X32064385Y1365248D01*
X32079509Y1355528D01*
X32202292Y1263612D01*
X32202297Y1263610D01*
X32339295Y1212511D01*
X32339303Y1212509D01*
X32399850Y1206000D01*
X32399862Y1206000D01*
X34148149Y1206000D01*
X34208696Y1212509D01*
X34208704Y1212511D01*
X34345702Y1263610D01*
X34345707Y1263612D01*
X34468491Y1355528D01*
X34535011Y1380339D01*
X34604385Y1365248D01*
X34619509Y1355528D01*
X34742292Y1263612D01*
X34742297Y1263610D01*
X34879295Y1212511D01*
X34879303Y1212509D01*
X34939850Y1206000D01*
X34939862Y1206000D01*
X36688149Y1206000D01*
X36748696Y1212509D01*
X36748704Y1212511D01*
X36885702Y1263610D01*
X36885707Y1263612D01*
X37002761Y1351238D01*
X37090387Y1468292D01*
X37090389Y1468297D01*
X37141488Y1605295D01*
X37141490Y1605303D01*
X37147999Y1665850D01*
X37148000Y1665867D01*
X37148000Y3414132D01*
X37147999Y3414149D01*
X37141490Y3474696D01*
X37141488Y3474704D01*
X37134460Y3493545D01*
X37090389Y3611704D01*
X37002761Y3728761D01*
X37002758Y3728763D01*
X36998471Y3734490D01*
X36973660Y3801010D01*
X36988751Y3870385D01*
X36998471Y3885510D01*
X37002758Y3891236D01*
X37002761Y3891239D01*
X37090389Y4008296D01*
X37141489Y4145299D01*
X37141490Y4145303D01*
X37147999Y4205850D01*
X37148000Y4205867D01*
X37148000Y5954132D01*
X37147999Y5954149D01*
X37141490Y6014696D01*
X37141488Y6014704D01*
X37134460Y6033545D01*
X37090389Y6151704D01*
X37002761Y6268761D01*
X36885704Y6356389D01*
X36748701Y6407489D01*
X36748699Y6407489D01*
X36748696Y6407490D01*
X36688149Y6413999D01*
X36688145Y6413999D01*
X36688138Y6414000D01*
X34939862Y6414000D01*
X34939855Y6413999D01*
X34939850Y6413999D01*
X34879303Y6407490D01*
X34879295Y6407488D01*
X34801375Y6378424D01*
X34742296Y6356389D01*
X34625239Y6268761D01*
X34625236Y6268758D01*
X34619510Y6264471D01*
X34552990Y6239660D01*
X34483615Y6254751D01*
X34468490Y6264471D01*
X34462763Y6268758D01*
X34462761Y6268761D01*
X34345704Y6356389D01*
X34208701Y6407489D01*
X34208699Y6407489D01*
X34208696Y6407490D01*
X34195033Y6408959D01*
X34129440Y6436127D01*
X34088948Y6494445D01*
X34082500Y6534237D01*
X34082500Y12333850D01*
X43370000Y12333850D01*
X43376509Y12273303D01*
X43376511Y12273295D01*
X43427610Y12136297D01*
X43427612Y12136292D01*
X43515238Y12019238D01*
X43632292Y11931612D01*
X43632297Y11931610D01*
X43769295Y11880511D01*
X43769303Y11880509D01*
X43829850Y11874000D01*
X43829862Y11874000D01*
X45578149Y11874000D01*
X45638696Y11880509D01*
X45638704Y11880511D01*
X45775702Y11931610D01*
X45775707Y11931612D01*
X45898491Y12023528D01*
X45965011Y12048339D01*
X46034385Y12033248D01*
X46049509Y12023528D01*
X46172292Y11931612D01*
X46172297Y11931610D01*
X46309295Y11880511D01*
X46309303Y11880509D01*
X46369850Y11874000D01*
X46369862Y11874000D01*
X48118149Y11874000D01*
X48178696Y11880509D01*
X48178704Y11880511D01*
X48315702Y11931610D01*
X48315707Y11931612D01*
X48432761Y12019238D01*
X48520387Y12136292D01*
X48520389Y12136297D01*
X48571488Y12273295D01*
X48571490Y12273303D01*
X48577999Y12333850D01*
X48578000Y12333867D01*
X48578000Y14082132D01*
X48577999Y14082149D01*
X48571490Y14142696D01*
X48571488Y14142704D01*
X48545213Y14213149D01*
X48520389Y14279704D01*
X48432761Y14396761D01*
X48416607Y14408854D01*
X48315707Y14484387D01*
X48315706Y14484387D01*
X48315704Y14484389D01*
X48178701Y14535489D01*
X48178699Y14535489D01*
X48178696Y14535490D01*
X48118149Y14541999D01*
X48118145Y14541999D01*
X48118138Y14542000D01*
X46369862Y14542000D01*
X46369855Y14541999D01*
X46369850Y14541999D01*
X46309303Y14535490D01*
X46309295Y14535488D01*
X46231375Y14506424D01*
X46172296Y14484389D01*
X46055239Y14396761D01*
X46055236Y14396758D01*
X46049510Y14392471D01*
X45982990Y14367660D01*
X45913615Y14382751D01*
X45898490Y14392471D01*
X45892763Y14396758D01*
X45892761Y14396761D01*
X45775704Y14484389D01*
X45638701Y14535489D01*
X45638699Y14535489D01*
X45638696Y14535490D01*
X45578149Y14541999D01*
X45578145Y14541999D01*
X45578138Y14542000D01*
X43829862Y14542000D01*
X43829855Y14541999D01*
X43829850Y14541999D01*
X43769303Y14535490D01*
X43769295Y14535488D01*
X43691375Y14506424D01*
X43632296Y14484389D01*
X43632294Y14484388D01*
X43632292Y14484387D01*
X43515238Y14396761D01*
X43427612Y14279707D01*
X43427610Y14279702D01*
X43376511Y14142704D01*
X43376509Y14142696D01*
X43370000Y14082149D01*
X43370000Y12333850D01*
X34082500Y12333850D01*
X34082500Y14268875D01*
X34082500Y14268879D01*
X34073904Y14306536D01*
X34071539Y14320462D01*
X34067217Y14358826D01*
X34067217Y14358829D01*
X34054465Y14395270D01*
X34050551Y14408854D01*
X34041959Y14446502D01*
X34041959Y14446503D01*
X34025197Y14481307D01*
X34019799Y14494340D01*
X34007043Y14530797D01*
X33986491Y14563502D01*
X33979664Y14575855D01*
X33962908Y14610652D01*
X33938824Y14640850D01*
X33930662Y14652354D01*
X33910111Y14685063D01*
X33910110Y14685064D01*
X33910108Y14685067D01*
X33770914Y14824260D01*
X33770904Y14824267D01*
X29693211Y18901963D01*
X29660903Y18934271D01*
X29628207Y18954814D01*
X29616682Y18962991D01*
X29586492Y18987069D01*
X29551699Y19003823D01*
X29539340Y19010653D01*
X29506637Y19031203D01*
X29470188Y19043955D01*
X29457143Y19049358D01*
X29422342Y19066119D01*
X29384688Y19074712D01*
X29371123Y19078620D01*
X29334669Y19091377D01*
X29296284Y19095701D01*
X29282390Y19098060D01*
X29244719Y19106660D01*
X29244715Y19106660D01*
X28984380Y19106660D01*
X28916259Y19126662D01*
X28869766Y19180318D01*
X28859662Y19250592D01*
X28889156Y19315172D01*
X28926200Y19344423D01*
X29281558Y19529411D01*
X29281567Y19529416D01*
X29281576Y19529421D01*
X29569533Y19712870D01*
X29668113Y19775672D01*
X29765641Y19850507D01*
X29844048Y19910671D01*
X30031724Y20054679D01*
X30031726Y20054681D01*
X30031730Y20054684D01*
X30369639Y20364321D01*
X30679276Y20702230D01*
X30958283Y21065840D01*
X31204539Y21452384D01*
X31204548Y21452401D01*
X31416165Y21858911D01*
X31511955Y22090171D01*
X31591559Y22282352D01*
X31729379Y22719460D01*
X31828578Y23166916D01*
X31888400Y23621316D01*
X31908392Y24079200D01*
X31888400Y24537084D01*
X31828578Y24991484D01*
X31729379Y25438940D01*
X31591559Y25876048D01*
X31416168Y26299481D01*
X31416167Y26299481D01*
X31416165Y26299488D01*
X31204548Y26705998D01*
X31204539Y26706016D01*
X30958283Y27092560D01*
X30679276Y27456170D01*
X30369639Y27794079D01*
X30031730Y28103716D01*
X29668120Y28382723D01*
X29281576Y28628979D01*
X29133166Y28706236D01*
X28875048Y28840605D01*
X28875041Y28840608D01*
X28451608Y29015999D01*
X28014500Y29153819D01*
X27567044Y29253018D01*
X27112644Y29312840D01*
X26746336Y29328833D01*
X26654761Y29332832D01*
X26654759Y29332832D01*
X26540289Y29327834D01*
X26196876Y29312840D01*
X25742476Y29253018D01*
X25295020Y29153819D01*
X24857912Y29015999D01*
X24558488Y28891974D01*
X24434471Y28840605D01*
X24027961Y28628988D01*
X24027944Y28628979D01*
X23641400Y28382723D01*
X23277790Y28103716D01*
X22939881Y27794079D01*
X22630244Y27456170D01*
X22630241Y27456166D01*
X22630239Y27456164D01*
X22351232Y27092553D01*
X22238203Y26915133D01*
X22104981Y26706016D01*
X22104976Y26706007D01*
X22104971Y26705998D01*
X21893354Y26299488D01*
X21717962Y25876050D01*
X21717954Y25876028D01*
X21580143Y25438948D01*
X21580139Y25438932D01*
X21480943Y24991489D01*
X21480941Y24991480D01*
X21421120Y24537091D01*
X21421119Y24537080D01*
X21401128Y24079201D01*
X21401128Y24079198D01*
X21421119Y23621319D01*
X21421120Y23621308D01*
X21480941Y23166919D01*
X21480943Y23166910D01*
X21580139Y22719467D01*
X21580143Y22719451D01*
X21717954Y22282371D01*
X21717962Y22282349D01*
X21893354Y21858911D01*
X22104971Y21452401D01*
X22104981Y21452384D01*
X22276026Y21183897D01*
X22295758Y21115697D01*
X22275486Y21047656D01*
X22229155Y21005075D01*
X22104460Y20938424D01*
X21959347Y20819333D01*
X21912965Y20762816D01*
X21905970Y20754293D01*
X21847292Y20714324D01*
X21776321Y20712424D01*
X21719478Y20745130D01*
X19895403Y22569206D01*
X19861379Y22631516D01*
X19858500Y22658299D01*
X19858500Y23081384D01*
X19873378Y23140780D01*
X19934715Y23255534D01*
X19934717Y23255538D01*
X19989211Y23435179D01*
X19989211Y23435181D01*
X19989212Y23435184D01*
X19989212Y23435186D01*
X20007611Y23621996D01*
X20007611Y23622003D01*
X19989212Y23808813D01*
X19989212Y23808815D01*
X19989211Y23808816D01*
X19989211Y23808821D01*
X19934717Y23988462D01*
X19846224Y24154020D01*
X19727133Y24299133D01*
X19582020Y24418224D01*
X19416462Y24506717D01*
X19236821Y24561211D01*
X19236815Y24561211D01*
X19236814Y24561212D01*
X19050003Y24579611D01*
X19049997Y24579611D01*
X18863186Y24561212D01*
X18863184Y24561212D01*
X18863181Y24561211D01*
X18863179Y24561211D01*
X18683538Y24506717D01*
X18517980Y24418224D01*
X18372867Y24299133D01*
X18253776Y24154020D01*
X18165284Y23988465D01*
X18165282Y23988459D01*
X18110787Y23808815D01*
X18110787Y23808813D01*
X18092389Y23622003D01*
X18092389Y23621996D01*
X304500Y23621996D01*
X304500Y30049500D01*
X324502Y30117621D01*
X378158Y30164114D01*
X430500Y30175500D01*
X50369500Y30175500D01*
X50437621Y30155498D01*
G37*
%TD.AperFunction*%
%TD*%
M02*
