%TF.GenerationSoftware,KiCad,Pcbnew,7.0.11+1*%
%TF.CreationDate,2024-07-03T21:22:02+00:00*%
%TF.ProjectId,PCRD02,50435244-3032-42e6-9b69-6361645f7063,rev?*%
%TF.SameCoordinates,Original*%
%TF.FileFunction,Legend,Top*%
%TF.FilePolarity,Positive*%
%FSLAX46Y46*%
G04 Gerber Fmt 4.6, Leading zero omitted, Abs format (unit mm)*
G04 Created by KiCad (PCBNEW 7.0.11+1) date 2024-07-03 21:22:02*
%MOMM*%
%LPD*%
G01*
G04 APERTURE LIST*
%ADD10C,0.300000*%
%ADD11C,0.150000*%
%ADD12C,0.304800*%
%ADD13C,0.203200*%
%ADD14C,0.254000*%
%ADD15R,1.651000X1.651000*%
G04 APERTURE END LIST*
D10*
X39704960Y14080471D02*
X39990674Y14080471D01*
X39990674Y14080471D02*
X40133531Y14009042D01*
X40133531Y14009042D02*
X40276388Y13866185D01*
X40276388Y13866185D02*
X40347817Y13580471D01*
X40347817Y13580471D02*
X40347817Y13080471D01*
X40347817Y13080471D02*
X40276388Y12794757D01*
X40276388Y12794757D02*
X40133531Y12651900D01*
X40133531Y12651900D02*
X39990674Y12580471D01*
X39990674Y12580471D02*
X39704960Y12580471D01*
X39704960Y12580471D02*
X39562103Y12651900D01*
X39562103Y12651900D02*
X39419245Y12794757D01*
X39419245Y12794757D02*
X39347817Y13080471D01*
X39347817Y13080471D02*
X39347817Y13580471D01*
X39347817Y13580471D02*
X39419245Y13866185D01*
X39419245Y13866185D02*
X39562103Y14009042D01*
X39562103Y14009042D02*
X39704960Y14080471D01*
X41633532Y13580471D02*
X41633532Y12580471D01*
X40990674Y13580471D02*
X40990674Y12794757D01*
X40990674Y12794757D02*
X41062103Y12651900D01*
X41062103Y12651900D02*
X41204960Y12580471D01*
X41204960Y12580471D02*
X41419246Y12580471D01*
X41419246Y12580471D02*
X41562103Y12651900D01*
X41562103Y12651900D02*
X41633532Y12723328D01*
X42133532Y13580471D02*
X42704960Y13580471D01*
X42347817Y14080471D02*
X42347817Y12794757D01*
X42347817Y12794757D02*
X42419246Y12651900D01*
X42419246Y12651900D02*
X42562103Y12580471D01*
X42562103Y12580471D02*
X42704960Y12580471D01*
X16969580Y5903080D02*
X17041008Y6117366D01*
X17041008Y6117366D02*
X17041008Y6474508D01*
X17041008Y6474508D02*
X16969580Y6617366D01*
X16969580Y6617366D02*
X16898151Y6688794D01*
X16898151Y6688794D02*
X16755294Y6760223D01*
X16755294Y6760223D02*
X16612437Y6760223D01*
X16612437Y6760223D02*
X16469580Y6688794D01*
X16469580Y6688794D02*
X16398151Y6617366D01*
X16398151Y6617366D02*
X16326722Y6474508D01*
X16326722Y6474508D02*
X16255294Y6188794D01*
X16255294Y6188794D02*
X16183865Y6045937D01*
X16183865Y6045937D02*
X16112437Y5974508D01*
X16112437Y5974508D02*
X15969580Y5903080D01*
X15969580Y5903080D02*
X15826722Y5903080D01*
X15826722Y5903080D02*
X15683865Y5974508D01*
X15683865Y5974508D02*
X15612437Y6045937D01*
X15612437Y6045937D02*
X15541008Y6188794D01*
X15541008Y6188794D02*
X15541008Y6545937D01*
X15541008Y6545937D02*
X15612437Y6760223D01*
X16969580Y7974508D02*
X17041008Y7831651D01*
X17041008Y7831651D02*
X17041008Y7545937D01*
X17041008Y7545937D02*
X16969580Y7403079D01*
X16969580Y7403079D02*
X16826722Y7331651D01*
X16826722Y7331651D02*
X16255294Y7331651D01*
X16255294Y7331651D02*
X16112437Y7403079D01*
X16112437Y7403079D02*
X16041008Y7545937D01*
X16041008Y7545937D02*
X16041008Y7831651D01*
X16041008Y7831651D02*
X16112437Y7974508D01*
X16112437Y7974508D02*
X16255294Y8045937D01*
X16255294Y8045937D02*
X16398151Y8045937D01*
X16398151Y8045937D02*
X16541008Y7331651D01*
X16041008Y8688793D02*
X17041008Y8688793D01*
X16183865Y8688793D02*
X16112437Y8760222D01*
X16112437Y8760222D02*
X16041008Y8903079D01*
X16041008Y8903079D02*
X16041008Y9117365D01*
X16041008Y9117365D02*
X16112437Y9260222D01*
X16112437Y9260222D02*
X16255294Y9331651D01*
X16255294Y9331651D02*
X17041008Y9331651D01*
X16969580Y9974508D02*
X17041008Y10117365D01*
X17041008Y10117365D02*
X17041008Y10403079D01*
X17041008Y10403079D02*
X16969580Y10545936D01*
X16969580Y10545936D02*
X16826722Y10617365D01*
X16826722Y10617365D02*
X16755294Y10617365D01*
X16755294Y10617365D02*
X16612437Y10545936D01*
X16612437Y10545936D02*
X16541008Y10403079D01*
X16541008Y10403079D02*
X16541008Y10188794D01*
X16541008Y10188794D02*
X16469580Y10045936D01*
X16469580Y10045936D02*
X16326722Y9974508D01*
X16326722Y9974508D02*
X16255294Y9974508D01*
X16255294Y9974508D02*
X16112437Y10045936D01*
X16112437Y10045936D02*
X16041008Y10188794D01*
X16041008Y10188794D02*
X16041008Y10403079D01*
X16041008Y10403079D02*
X16112437Y10545936D01*
X17041008Y11474508D02*
X16969580Y11331651D01*
X16969580Y11331651D02*
X16898151Y11260222D01*
X16898151Y11260222D02*
X16755294Y11188794D01*
X16755294Y11188794D02*
X16326722Y11188794D01*
X16326722Y11188794D02*
X16183865Y11260222D01*
X16183865Y11260222D02*
X16112437Y11331651D01*
X16112437Y11331651D02*
X16041008Y11474508D01*
X16041008Y11474508D02*
X16041008Y11688794D01*
X16041008Y11688794D02*
X16112437Y11831651D01*
X16112437Y11831651D02*
X16183865Y11903080D01*
X16183865Y11903080D02*
X16326722Y11974508D01*
X16326722Y11974508D02*
X16755294Y11974508D01*
X16755294Y11974508D02*
X16898151Y11903080D01*
X16898151Y11903080D02*
X16969580Y11831651D01*
X16969580Y11831651D02*
X17041008Y11688794D01*
X17041008Y11688794D02*
X17041008Y11474508D01*
X17041008Y12617365D02*
X16041008Y12617365D01*
X16326722Y12617365D02*
X16183865Y12688794D01*
X16183865Y12688794D02*
X16112437Y12760223D01*
X16112437Y12760223D02*
X16041008Y12903080D01*
X16041008Y12903080D02*
X16041008Y13045937D01*
X12458736Y20478331D02*
X12458736Y21978331D01*
X12458736Y21978331D02*
X12958736Y20906902D01*
X12958736Y20906902D02*
X13458736Y21978331D01*
X13458736Y21978331D02*
X13458736Y20478331D01*
X14887308Y20478331D02*
X14173022Y20478331D01*
X14173022Y20478331D02*
X14173022Y21978331D01*
X15315880Y20906902D02*
X16030166Y20906902D01*
X15173023Y20478331D02*
X15673023Y21978331D01*
X15673023Y21978331D02*
X16173023Y20478331D01*
X17173022Y21264045D02*
X17387308Y21192617D01*
X17387308Y21192617D02*
X17458737Y21121188D01*
X17458737Y21121188D02*
X17530165Y20978331D01*
X17530165Y20978331D02*
X17530165Y20764045D01*
X17530165Y20764045D02*
X17458737Y20621188D01*
X17458737Y20621188D02*
X17387308Y20549760D01*
X17387308Y20549760D02*
X17244451Y20478331D01*
X17244451Y20478331D02*
X16673022Y20478331D01*
X16673022Y20478331D02*
X16673022Y21978331D01*
X16673022Y21978331D02*
X17173022Y21978331D01*
X17173022Y21978331D02*
X17315880Y21906902D01*
X17315880Y21906902D02*
X17387308Y21835474D01*
X17387308Y21835474D02*
X17458737Y21692617D01*
X17458737Y21692617D02*
X17458737Y21549760D01*
X17458737Y21549760D02*
X17387308Y21406902D01*
X17387308Y21406902D02*
X17315880Y21335474D01*
X17315880Y21335474D02*
X17173022Y21264045D01*
X17173022Y21264045D02*
X16673022Y21264045D01*
X18173022Y20621188D02*
X18244451Y20549760D01*
X18244451Y20549760D02*
X18173022Y20478331D01*
X18173022Y20478331D02*
X18101594Y20549760D01*
X18101594Y20549760D02*
X18173022Y20621188D01*
X18173022Y20621188D02*
X18173022Y20478331D01*
X19530166Y20549760D02*
X19387308Y20478331D01*
X19387308Y20478331D02*
X19101594Y20478331D01*
X19101594Y20478331D02*
X18958737Y20549760D01*
X18958737Y20549760D02*
X18887308Y20621188D01*
X18887308Y20621188D02*
X18815880Y20764045D01*
X18815880Y20764045D02*
X18815880Y21192617D01*
X18815880Y21192617D02*
X18887308Y21335474D01*
X18887308Y21335474D02*
X18958737Y21406902D01*
X18958737Y21406902D02*
X19101594Y21478331D01*
X19101594Y21478331D02*
X19387308Y21478331D01*
X19387308Y21478331D02*
X19530166Y21406902D01*
X20030165Y21478331D02*
X20815880Y21478331D01*
X20815880Y21478331D02*
X20030165Y20478331D01*
X20030165Y20478331D02*
X20815880Y20478331D01*
X13994452Y19420474D02*
X14065880Y19491902D01*
X14065880Y19491902D02*
X14208738Y19563331D01*
X14208738Y19563331D02*
X14565880Y19563331D01*
X14565880Y19563331D02*
X14708738Y19491902D01*
X14708738Y19491902D02*
X14780166Y19420474D01*
X14780166Y19420474D02*
X14851595Y19277617D01*
X14851595Y19277617D02*
X14851595Y19134760D01*
X14851595Y19134760D02*
X14780166Y18920474D01*
X14780166Y18920474D02*
X13923023Y18063331D01*
X13923023Y18063331D02*
X14851595Y18063331D01*
X15780166Y19563331D02*
X15923023Y19563331D01*
X15923023Y19563331D02*
X16065880Y19491902D01*
X16065880Y19491902D02*
X16137309Y19420474D01*
X16137309Y19420474D02*
X16208737Y19277617D01*
X16208737Y19277617D02*
X16280166Y18991902D01*
X16280166Y18991902D02*
X16280166Y18634760D01*
X16280166Y18634760D02*
X16208737Y18349045D01*
X16208737Y18349045D02*
X16137309Y18206188D01*
X16137309Y18206188D02*
X16065880Y18134760D01*
X16065880Y18134760D02*
X15923023Y18063331D01*
X15923023Y18063331D02*
X15780166Y18063331D01*
X15780166Y18063331D02*
X15637309Y18134760D01*
X15637309Y18134760D02*
X15565880Y18206188D01*
X15565880Y18206188D02*
X15494451Y18349045D01*
X15494451Y18349045D02*
X15423023Y18634760D01*
X15423023Y18634760D02*
X15423023Y18991902D01*
X15423023Y18991902D02*
X15494451Y19277617D01*
X15494451Y19277617D02*
X15565880Y19420474D01*
X15565880Y19420474D02*
X15637309Y19491902D01*
X15637309Y19491902D02*
X15780166Y19563331D01*
X17708737Y18063331D02*
X16851594Y18063331D01*
X17280165Y18063331D02*
X17280165Y19563331D01*
X17280165Y19563331D02*
X17137308Y19349045D01*
X17137308Y19349045D02*
X16994451Y19206188D01*
X16994451Y19206188D02*
X16851594Y19134760D01*
X19065879Y19563331D02*
X18351593Y19563331D01*
X18351593Y19563331D02*
X18280165Y18849045D01*
X18280165Y18849045D02*
X18351593Y18920474D01*
X18351593Y18920474D02*
X18494451Y18991902D01*
X18494451Y18991902D02*
X18851593Y18991902D01*
X18851593Y18991902D02*
X18994451Y18920474D01*
X18994451Y18920474D02*
X19065879Y18849045D01*
X19065879Y18849045D02*
X19137308Y18706188D01*
X19137308Y18706188D02*
X19137308Y18349045D01*
X19137308Y18349045D02*
X19065879Y18206188D01*
X19065879Y18206188D02*
X18994451Y18134760D01*
X18994451Y18134760D02*
X18851593Y18063331D01*
X18851593Y18063331D02*
X18494451Y18063331D01*
X18494451Y18063331D02*
X18351593Y18134760D01*
X18351593Y18134760D02*
X18280165Y18206188D01*
X24944397Y2575703D02*
X24872968Y2432846D01*
X24872968Y2432846D02*
X24872968Y2218560D01*
X24872968Y2218560D02*
X24944397Y2004274D01*
X24944397Y2004274D02*
X25087254Y1861417D01*
X25087254Y1861417D02*
X25230111Y1789988D01*
X25230111Y1789988D02*
X25515825Y1718560D01*
X25515825Y1718560D02*
X25730111Y1718560D01*
X25730111Y1718560D02*
X26015825Y1789988D01*
X26015825Y1789988D02*
X26158682Y1861417D01*
X26158682Y1861417D02*
X26301540Y2004274D01*
X26301540Y2004274D02*
X26372968Y2218560D01*
X26372968Y2218560D02*
X26372968Y2361417D01*
X26372968Y2361417D02*
X26301540Y2575703D01*
X26301540Y2575703D02*
X26230111Y2647131D01*
X26230111Y2647131D02*
X25730111Y2647131D01*
X25730111Y2647131D02*
X25730111Y2361417D01*
X26372968Y3289988D02*
X24872968Y3289988D01*
X24872968Y3289988D02*
X26372968Y4147131D01*
X26372968Y4147131D02*
X24872968Y4147131D01*
X26372968Y4861417D02*
X24872968Y4861417D01*
X24872968Y4861417D02*
X24872968Y5218560D01*
X24872968Y5218560D02*
X24944397Y5432846D01*
X24944397Y5432846D02*
X25087254Y5575703D01*
X25087254Y5575703D02*
X25230111Y5647132D01*
X25230111Y5647132D02*
X25515825Y5718560D01*
X25515825Y5718560D02*
X25730111Y5718560D01*
X25730111Y5718560D02*
X26015825Y5647132D01*
X26015825Y5647132D02*
X26158682Y5575703D01*
X26158682Y5575703D02*
X26301540Y5432846D01*
X26301540Y5432846D02*
X26372968Y5218560D01*
X26372968Y5218560D02*
X26372968Y4861417D01*
X40204717Y2601103D02*
X40133288Y2458246D01*
X40133288Y2458246D02*
X40133288Y2243960D01*
X40133288Y2243960D02*
X40204717Y2029674D01*
X40204717Y2029674D02*
X40347574Y1886817D01*
X40347574Y1886817D02*
X40490431Y1815388D01*
X40490431Y1815388D02*
X40776145Y1743960D01*
X40776145Y1743960D02*
X40990431Y1743960D01*
X40990431Y1743960D02*
X41276145Y1815388D01*
X41276145Y1815388D02*
X41419002Y1886817D01*
X41419002Y1886817D02*
X41561860Y2029674D01*
X41561860Y2029674D02*
X41633288Y2243960D01*
X41633288Y2243960D02*
X41633288Y2386817D01*
X41633288Y2386817D02*
X41561860Y2601103D01*
X41561860Y2601103D02*
X41490431Y2672531D01*
X41490431Y2672531D02*
X40990431Y2672531D01*
X40990431Y2672531D02*
X40990431Y2386817D01*
X41633288Y3315388D02*
X40133288Y3315388D01*
X40133288Y3315388D02*
X41633288Y4172531D01*
X41633288Y4172531D02*
X40133288Y4172531D01*
X41633288Y4886817D02*
X40133288Y4886817D01*
X40133288Y4886817D02*
X40133288Y5243960D01*
X40133288Y5243960D02*
X40204717Y5458246D01*
X40204717Y5458246D02*
X40347574Y5601103D01*
X40347574Y5601103D02*
X40490431Y5672532D01*
X40490431Y5672532D02*
X40776145Y5743960D01*
X40776145Y5743960D02*
X40990431Y5743960D01*
X40990431Y5743960D02*
X41276145Y5672532D01*
X41276145Y5672532D02*
X41419002Y5601103D01*
X41419002Y5601103D02*
X41561860Y5458246D01*
X41561860Y5458246D02*
X41633288Y5243960D01*
X41633288Y5243960D02*
X41633288Y4886817D01*
X30162571Y7513100D02*
X31305429Y7513100D01*
X32687331Y7594380D02*
X33830189Y7594380D01*
X33258760Y7022951D02*
X33258760Y8165808D01*
X8195328Y13008159D02*
X9409614Y13008159D01*
X9409614Y13008159D02*
X9552471Y13079588D01*
X9552471Y13079588D02*
X9623900Y13151017D01*
X9623900Y13151017D02*
X9695328Y13293874D01*
X9695328Y13293874D02*
X9695328Y13579588D01*
X9695328Y13579588D02*
X9623900Y13722445D01*
X9623900Y13722445D02*
X9552471Y13793874D01*
X9552471Y13793874D02*
X9409614Y13865302D01*
X9409614Y13865302D02*
X8195328Y13865302D01*
X9695328Y14579588D02*
X8195328Y14579588D01*
X8766757Y14579588D02*
X8695328Y14722446D01*
X8695328Y14722446D02*
X8695328Y15008160D01*
X8695328Y15008160D02*
X8766757Y15151017D01*
X8766757Y15151017D02*
X8838185Y15222446D01*
X8838185Y15222446D02*
X8981042Y15293874D01*
X8981042Y15293874D02*
X9409614Y15293874D01*
X9409614Y15293874D02*
X9552471Y15222446D01*
X9552471Y15222446D02*
X9623900Y15151017D01*
X9623900Y15151017D02*
X9695328Y15008160D01*
X9695328Y15008160D02*
X9695328Y14722446D01*
X9695328Y14722446D02*
X9623900Y14579588D01*
X9695328Y15936731D02*
X8695328Y15936731D01*
X8195328Y15936731D02*
X8266757Y15865303D01*
X8266757Y15865303D02*
X8338185Y15936731D01*
X8338185Y15936731D02*
X8266757Y16008160D01*
X8266757Y16008160D02*
X8195328Y15936731D01*
X8195328Y15936731D02*
X8338185Y15936731D01*
X9695328Y17293875D02*
X8909614Y17293875D01*
X8909614Y17293875D02*
X8766757Y17222446D01*
X8766757Y17222446D02*
X8695328Y17079589D01*
X8695328Y17079589D02*
X8695328Y16793875D01*
X8695328Y16793875D02*
X8766757Y16651017D01*
X9623900Y17293875D02*
X9695328Y17151017D01*
X9695328Y17151017D02*
X9695328Y16793875D01*
X9695328Y16793875D02*
X9623900Y16651017D01*
X9623900Y16651017D02*
X9481042Y16579589D01*
X9481042Y16579589D02*
X9338185Y16579589D01*
X9338185Y16579589D02*
X9195328Y16651017D01*
X9195328Y16651017D02*
X9123900Y16793875D01*
X9123900Y16793875D02*
X9123900Y17151017D01*
X9123900Y17151017D02*
X9052471Y17293875D01*
X9623900Y17936732D02*
X9695328Y18079589D01*
X9695328Y18079589D02*
X9695328Y18365303D01*
X9695328Y18365303D02*
X9623900Y18508160D01*
X9623900Y18508160D02*
X9481042Y18579589D01*
X9481042Y18579589D02*
X9409614Y18579589D01*
X9409614Y18579589D02*
X9266757Y18508160D01*
X9266757Y18508160D02*
X9195328Y18365303D01*
X9195328Y18365303D02*
X9195328Y18151018D01*
X9195328Y18151018D02*
X9123900Y18008160D01*
X9123900Y18008160D02*
X8981042Y17936732D01*
X8981042Y17936732D02*
X8909614Y17936732D01*
X8909614Y17936732D02*
X8766757Y18008160D01*
X8766757Y18008160D02*
X8695328Y18151018D01*
X8695328Y18151018D02*
X8695328Y18365303D01*
X8695328Y18365303D02*
X8766757Y18508160D01*
X39746063Y16493162D02*
X39603206Y16564591D01*
X39603206Y16564591D02*
X39388920Y16564591D01*
X39388920Y16564591D02*
X39174634Y16493162D01*
X39174634Y16493162D02*
X39031777Y16350305D01*
X39031777Y16350305D02*
X38960348Y16207448D01*
X38960348Y16207448D02*
X38888920Y15921734D01*
X38888920Y15921734D02*
X38888920Y15707448D01*
X38888920Y15707448D02*
X38960348Y15421734D01*
X38960348Y15421734D02*
X39031777Y15278877D01*
X39031777Y15278877D02*
X39174634Y15136020D01*
X39174634Y15136020D02*
X39388920Y15064591D01*
X39388920Y15064591D02*
X39531777Y15064591D01*
X39531777Y15064591D02*
X39746063Y15136020D01*
X39746063Y15136020D02*
X39817491Y15207448D01*
X39817491Y15207448D02*
X39817491Y15707448D01*
X39817491Y15707448D02*
X39531777Y15707448D01*
X40460348Y15064591D02*
X40460348Y16564591D01*
X40460348Y16564591D02*
X41317491Y15064591D01*
X41317491Y15064591D02*
X41317491Y16564591D01*
X42031777Y15064591D02*
X42031777Y16564591D01*
X42031777Y16564591D02*
X42388920Y16564591D01*
X42388920Y16564591D02*
X42603206Y16493162D01*
X42603206Y16493162D02*
X42746063Y16350305D01*
X42746063Y16350305D02*
X42817492Y16207448D01*
X42817492Y16207448D02*
X42888920Y15921734D01*
X42888920Y15921734D02*
X42888920Y15707448D01*
X42888920Y15707448D02*
X42817492Y15421734D01*
X42817492Y15421734D02*
X42746063Y15278877D01*
X42746063Y15278877D02*
X42603206Y15136020D01*
X42603206Y15136020D02*
X42388920Y15064591D01*
X42388920Y15064591D02*
X42031777Y15064591D01*
X39746063Y11128682D02*
X39603206Y11200111D01*
X39603206Y11200111D02*
X39388920Y11200111D01*
X39388920Y11200111D02*
X39174634Y11128682D01*
X39174634Y11128682D02*
X39031777Y10985825D01*
X39031777Y10985825D02*
X38960348Y10842968D01*
X38960348Y10842968D02*
X38888920Y10557254D01*
X38888920Y10557254D02*
X38888920Y10342968D01*
X38888920Y10342968D02*
X38960348Y10057254D01*
X38960348Y10057254D02*
X39031777Y9914397D01*
X39031777Y9914397D02*
X39174634Y9771540D01*
X39174634Y9771540D02*
X39388920Y9700111D01*
X39388920Y9700111D02*
X39531777Y9700111D01*
X39531777Y9700111D02*
X39746063Y9771540D01*
X39746063Y9771540D02*
X39817491Y9842968D01*
X39817491Y9842968D02*
X39817491Y10342968D01*
X39817491Y10342968D02*
X39531777Y10342968D01*
X40460348Y9700111D02*
X40460348Y11200111D01*
X40460348Y11200111D02*
X41317491Y9700111D01*
X41317491Y9700111D02*
X41317491Y11200111D01*
X42031777Y9700111D02*
X42031777Y11200111D01*
X42031777Y11200111D02*
X42388920Y11200111D01*
X42388920Y11200111D02*
X42603206Y11128682D01*
X42603206Y11128682D02*
X42746063Y10985825D01*
X42746063Y10985825D02*
X42817492Y10842968D01*
X42817492Y10842968D02*
X42888920Y10557254D01*
X42888920Y10557254D02*
X42888920Y10342968D01*
X42888920Y10342968D02*
X42817492Y10057254D01*
X42817492Y10057254D02*
X42746063Y9914397D01*
X42746063Y9914397D02*
X42603206Y9771540D01*
X42603206Y9771540D02*
X42388920Y9700111D01*
X42388920Y9700111D02*
X42031777Y9700111D01*
X25440594Y15567511D02*
X25440594Y17067511D01*
X25440594Y17067511D02*
X26012023Y17067511D01*
X26012023Y17067511D02*
X26154880Y16996082D01*
X26154880Y16996082D02*
X26226309Y16924654D01*
X26226309Y16924654D02*
X26297737Y16781797D01*
X26297737Y16781797D02*
X26297737Y16567511D01*
X26297737Y16567511D02*
X26226309Y16424654D01*
X26226309Y16424654D02*
X26154880Y16353225D01*
X26154880Y16353225D02*
X26012023Y16281797D01*
X26012023Y16281797D02*
X25440594Y16281797D01*
X27797737Y15710368D02*
X27726309Y15638940D01*
X27726309Y15638940D02*
X27512023Y15567511D01*
X27512023Y15567511D02*
X27369166Y15567511D01*
X27369166Y15567511D02*
X27154880Y15638940D01*
X27154880Y15638940D02*
X27012023Y15781797D01*
X27012023Y15781797D02*
X26940594Y15924654D01*
X26940594Y15924654D02*
X26869166Y16210368D01*
X26869166Y16210368D02*
X26869166Y16424654D01*
X26869166Y16424654D02*
X26940594Y16710368D01*
X26940594Y16710368D02*
X27012023Y16853225D01*
X27012023Y16853225D02*
X27154880Y16996082D01*
X27154880Y16996082D02*
X27369166Y17067511D01*
X27369166Y17067511D02*
X27512023Y17067511D01*
X27512023Y17067511D02*
X27726309Y16996082D01*
X27726309Y16996082D02*
X27797737Y16924654D01*
X29297737Y15567511D02*
X28797737Y16281797D01*
X28440594Y15567511D02*
X28440594Y17067511D01*
X28440594Y17067511D02*
X29012023Y17067511D01*
X29012023Y17067511D02*
X29154880Y16996082D01*
X29154880Y16996082D02*
X29226309Y16924654D01*
X29226309Y16924654D02*
X29297737Y16781797D01*
X29297737Y16781797D02*
X29297737Y16567511D01*
X29297737Y16567511D02*
X29226309Y16424654D01*
X29226309Y16424654D02*
X29154880Y16353225D01*
X29154880Y16353225D02*
X29012023Y16281797D01*
X29012023Y16281797D02*
X28440594Y16281797D01*
X29940594Y15567511D02*
X29940594Y17067511D01*
X29940594Y17067511D02*
X30297737Y17067511D01*
X30297737Y17067511D02*
X30512023Y16996082D01*
X30512023Y16996082D02*
X30654880Y16853225D01*
X30654880Y16853225D02*
X30726309Y16710368D01*
X30726309Y16710368D02*
X30797737Y16424654D01*
X30797737Y16424654D02*
X30797737Y16210368D01*
X30797737Y16210368D02*
X30726309Y15924654D01*
X30726309Y15924654D02*
X30654880Y15781797D01*
X30654880Y15781797D02*
X30512023Y15638940D01*
X30512023Y15638940D02*
X30297737Y15567511D01*
X30297737Y15567511D02*
X29940594Y15567511D01*
X31726309Y17067511D02*
X31869166Y17067511D01*
X31869166Y17067511D02*
X32012023Y16996082D01*
X32012023Y16996082D02*
X32083452Y16924654D01*
X32083452Y16924654D02*
X32154880Y16781797D01*
X32154880Y16781797D02*
X32226309Y16496082D01*
X32226309Y16496082D02*
X32226309Y16138940D01*
X32226309Y16138940D02*
X32154880Y15853225D01*
X32154880Y15853225D02*
X32083452Y15710368D01*
X32083452Y15710368D02*
X32012023Y15638940D01*
X32012023Y15638940D02*
X31869166Y15567511D01*
X31869166Y15567511D02*
X31726309Y15567511D01*
X31726309Y15567511D02*
X31583452Y15638940D01*
X31583452Y15638940D02*
X31512023Y15710368D01*
X31512023Y15710368D02*
X31440594Y15853225D01*
X31440594Y15853225D02*
X31369166Y16138940D01*
X31369166Y16138940D02*
X31369166Y16496082D01*
X31369166Y16496082D02*
X31440594Y16781797D01*
X31440594Y16781797D02*
X31512023Y16924654D01*
X31512023Y16924654D02*
X31583452Y16996082D01*
X31583452Y16996082D02*
X31726309Y17067511D01*
X32797737Y16924654D02*
X32869165Y16996082D01*
X32869165Y16996082D02*
X33012023Y17067511D01*
X33012023Y17067511D02*
X33369165Y17067511D01*
X33369165Y17067511D02*
X33512023Y16996082D01*
X33512023Y16996082D02*
X33583451Y16924654D01*
X33583451Y16924654D02*
X33654880Y16781797D01*
X33654880Y16781797D02*
X33654880Y16638940D01*
X33654880Y16638940D02*
X33583451Y16424654D01*
X33583451Y16424654D02*
X32726308Y15567511D01*
X32726308Y15567511D02*
X33654880Y15567511D01*
X34226308Y15996082D02*
X34940594Y15996082D01*
X34083451Y15567511D02*
X34583451Y17067511D01*
X34583451Y17067511D02*
X35083451Y15567511D01*
X35171451Y7513100D02*
X36314309Y7513100D01*
D11*
X26249333Y23450379D02*
X26201714Y23402760D01*
X26201714Y23402760D02*
X26058857Y23355140D01*
X26058857Y23355140D02*
X25963619Y23355140D01*
X25963619Y23355140D02*
X25820762Y23402760D01*
X25820762Y23402760D02*
X25725524Y23497998D01*
X25725524Y23497998D02*
X25677905Y23593236D01*
X25677905Y23593236D02*
X25630286Y23783712D01*
X25630286Y23783712D02*
X25630286Y23926569D01*
X25630286Y23926569D02*
X25677905Y24117045D01*
X25677905Y24117045D02*
X25725524Y24212283D01*
X25725524Y24212283D02*
X25820762Y24307521D01*
X25820762Y24307521D02*
X25963619Y24355140D01*
X25963619Y24355140D02*
X26058857Y24355140D01*
X26058857Y24355140D02*
X26201714Y24307521D01*
X26201714Y24307521D02*
X26249333Y24259902D01*
X27154095Y24355140D02*
X26677905Y24355140D01*
X26677905Y24355140D02*
X26630286Y23878950D01*
X26630286Y23878950D02*
X26677905Y23926569D01*
X26677905Y23926569D02*
X26773143Y23974188D01*
X26773143Y23974188D02*
X27011238Y23974188D01*
X27011238Y23974188D02*
X27106476Y23926569D01*
X27106476Y23926569D02*
X27154095Y23878950D01*
X27154095Y23878950D02*
X27201714Y23783712D01*
X27201714Y23783712D02*
X27201714Y23545617D01*
X27201714Y23545617D02*
X27154095Y23450379D01*
X27154095Y23450379D02*
X27106476Y23402760D01*
X27106476Y23402760D02*
X27011238Y23355140D01*
X27011238Y23355140D02*
X26773143Y23355140D01*
X26773143Y23355140D02*
X26677905Y23402760D01*
X26677905Y23402760D02*
X26630286Y23450379D01*
D12*
X4132943Y4467018D02*
X4132943Y5991018D01*
X4132943Y5991018D02*
X4713514Y5991018D01*
X4713514Y5991018D02*
X4858657Y5918447D01*
X4858657Y5918447D02*
X4931228Y5845875D01*
X4931228Y5845875D02*
X5003800Y5700732D01*
X5003800Y5700732D02*
X5003800Y5483018D01*
X5003800Y5483018D02*
X4931228Y5337875D01*
X4931228Y5337875D02*
X4858657Y5265304D01*
X4858657Y5265304D02*
X4713514Y5192732D01*
X4713514Y5192732D02*
X4132943Y5192732D01*
X5511800Y5991018D02*
X6455228Y5991018D01*
X6455228Y5991018D02*
X5947228Y5410447D01*
X5947228Y5410447D02*
X6164943Y5410447D01*
X6164943Y5410447D02*
X6310086Y5337875D01*
X6310086Y5337875D02*
X6382657Y5265304D01*
X6382657Y5265304D02*
X6455228Y5120161D01*
X6455228Y5120161D02*
X6455228Y4757304D01*
X6455228Y4757304D02*
X6382657Y4612161D01*
X6382657Y4612161D02*
X6310086Y4539590D01*
X6310086Y4539590D02*
X6164943Y4467018D01*
X6164943Y4467018D02*
X5729514Y4467018D01*
X5729514Y4467018D02*
X5584371Y4539590D01*
X5584371Y4539590D02*
X5511800Y4612161D01*
X4132943Y24787018D02*
X4132943Y26311018D01*
X4132943Y26311018D02*
X4713514Y26311018D01*
X4713514Y26311018D02*
X4858657Y26238447D01*
X4858657Y26238447D02*
X4931228Y26165875D01*
X4931228Y26165875D02*
X5003800Y26020732D01*
X5003800Y26020732D02*
X5003800Y25803018D01*
X5003800Y25803018D02*
X4931228Y25657875D01*
X4931228Y25657875D02*
X4858657Y25585304D01*
X4858657Y25585304D02*
X4713514Y25512732D01*
X4713514Y25512732D02*
X4132943Y25512732D01*
X6310086Y25803018D02*
X6310086Y24787018D01*
X5947228Y26383590D02*
X5584371Y25295018D01*
X5584371Y25295018D02*
X6527800Y25295018D01*
D13*
X6358467Y21414360D02*
X6358467Y20507217D01*
X6358467Y20507217D02*
X6297990Y20325789D01*
X6297990Y20325789D02*
X6177038Y20204837D01*
X6177038Y20204837D02*
X5995609Y20144360D01*
X5995609Y20144360D02*
X5874657Y20144360D01*
X6902752Y21293408D02*
X6963228Y21353884D01*
X6963228Y21353884D02*
X7084181Y21414360D01*
X7084181Y21414360D02*
X7386562Y21414360D01*
X7386562Y21414360D02*
X7507514Y21353884D01*
X7507514Y21353884D02*
X7567990Y21293408D01*
X7567990Y21293408D02*
X7628467Y21172456D01*
X7628467Y21172456D02*
X7628467Y21051503D01*
X7628467Y21051503D02*
X7567990Y20870075D01*
X7567990Y20870075D02*
X6842276Y20144360D01*
X6842276Y20144360D02*
X7628467Y20144360D01*
X10564239Y9254067D02*
X11471382Y9254067D01*
X11471382Y9254067D02*
X11652810Y9193590D01*
X11652810Y9193590D02*
X11773763Y9072638D01*
X11773763Y9072638D02*
X11834239Y8891209D01*
X11834239Y8891209D02*
X11834239Y8770257D01*
X11834239Y10524067D02*
X11834239Y9798352D01*
X11834239Y10161209D02*
X10564239Y10161209D01*
X10564239Y10161209D02*
X10745667Y10040257D01*
X10745667Y10040257D02*
X10866620Y9919305D01*
X10866620Y9919305D02*
X10927096Y9798352D01*
D12*
X44772943Y24787018D02*
X44772943Y26311018D01*
X44772943Y26311018D02*
X45353514Y26311018D01*
X45353514Y26311018D02*
X45498657Y26238447D01*
X45498657Y26238447D02*
X45571228Y26165875D01*
X45571228Y26165875D02*
X45643800Y26020732D01*
X45643800Y26020732D02*
X45643800Y25803018D01*
X45643800Y25803018D02*
X45571228Y25657875D01*
X45571228Y25657875D02*
X45498657Y25585304D01*
X45498657Y25585304D02*
X45353514Y25512732D01*
X45353514Y25512732D02*
X44772943Y25512732D01*
X47095228Y24787018D02*
X46224371Y24787018D01*
X46659800Y24787018D02*
X46659800Y26311018D01*
X46659800Y26311018D02*
X46514657Y26093304D01*
X46514657Y26093304D02*
X46369514Y25948161D01*
X46369514Y25948161D02*
X46224371Y25875590D01*
X44772943Y4467018D02*
X44772943Y5991018D01*
X44772943Y5991018D02*
X45353514Y5991018D01*
X45353514Y5991018D02*
X45498657Y5918447D01*
X45498657Y5918447D02*
X45571228Y5845875D01*
X45571228Y5845875D02*
X45643800Y5700732D01*
X45643800Y5700732D02*
X45643800Y5483018D01*
X45643800Y5483018D02*
X45571228Y5337875D01*
X45571228Y5337875D02*
X45498657Y5265304D01*
X45498657Y5265304D02*
X45353514Y5192732D01*
X45353514Y5192732D02*
X44772943Y5192732D01*
X46224371Y5845875D02*
X46296943Y5918447D01*
X46296943Y5918447D02*
X46442086Y5991018D01*
X46442086Y5991018D02*
X46804943Y5991018D01*
X46804943Y5991018D02*
X46950086Y5918447D01*
X46950086Y5918447D02*
X47022657Y5845875D01*
X47022657Y5845875D02*
X47095228Y5700732D01*
X47095228Y5700732D02*
X47095228Y5555590D01*
X47095228Y5555590D02*
X47022657Y5337875D01*
X47022657Y5337875D02*
X46151800Y4467018D01*
X46151800Y4467018D02*
X47095228Y4467018D01*
D13*
X45555747Y19158840D02*
X45555747Y18251697D01*
X45555747Y18251697D02*
X45495270Y18070269D01*
X45495270Y18070269D02*
X45374318Y17949317D01*
X45374318Y17949317D02*
X45192889Y17888840D01*
X45192889Y17888840D02*
X45071937Y17888840D01*
X46704794Y18735507D02*
X46704794Y17888840D01*
X46402413Y19219317D02*
X46100032Y18312174D01*
X46100032Y18312174D02*
X46886223Y18312174D01*
D11*
X20458133Y7082619D02*
X20410514Y7035000D01*
X20410514Y7035000D02*
X20267657Y6987380D01*
X20267657Y6987380D02*
X20172419Y6987380D01*
X20172419Y6987380D02*
X20029562Y7035000D01*
X20029562Y7035000D02*
X19934324Y7130238D01*
X19934324Y7130238D02*
X19886705Y7225476D01*
X19886705Y7225476D02*
X19839086Y7415952D01*
X19839086Y7415952D02*
X19839086Y7558809D01*
X19839086Y7558809D02*
X19886705Y7749285D01*
X19886705Y7749285D02*
X19934324Y7844523D01*
X19934324Y7844523D02*
X20029562Y7939761D01*
X20029562Y7939761D02*
X20172419Y7987380D01*
X20172419Y7987380D02*
X20267657Y7987380D01*
X20267657Y7987380D02*
X20410514Y7939761D01*
X20410514Y7939761D02*
X20458133Y7892142D01*
X21029562Y7558809D02*
X20934324Y7606428D01*
X20934324Y7606428D02*
X20886705Y7654047D01*
X20886705Y7654047D02*
X20839086Y7749285D01*
X20839086Y7749285D02*
X20839086Y7796904D01*
X20839086Y7796904D02*
X20886705Y7892142D01*
X20886705Y7892142D02*
X20934324Y7939761D01*
X20934324Y7939761D02*
X21029562Y7987380D01*
X21029562Y7987380D02*
X21220038Y7987380D01*
X21220038Y7987380D02*
X21315276Y7939761D01*
X21315276Y7939761D02*
X21362895Y7892142D01*
X21362895Y7892142D02*
X21410514Y7796904D01*
X21410514Y7796904D02*
X21410514Y7749285D01*
X21410514Y7749285D02*
X21362895Y7654047D01*
X21362895Y7654047D02*
X21315276Y7606428D01*
X21315276Y7606428D02*
X21220038Y7558809D01*
X21220038Y7558809D02*
X21029562Y7558809D01*
X21029562Y7558809D02*
X20934324Y7511190D01*
X20934324Y7511190D02*
X20886705Y7463571D01*
X20886705Y7463571D02*
X20839086Y7368333D01*
X20839086Y7368333D02*
X20839086Y7177857D01*
X20839086Y7177857D02*
X20886705Y7082619D01*
X20886705Y7082619D02*
X20934324Y7035000D01*
X20934324Y7035000D02*
X21029562Y6987380D01*
X21029562Y6987380D02*
X21220038Y6987380D01*
X21220038Y6987380D02*
X21315276Y7035000D01*
X21315276Y7035000D02*
X21362895Y7082619D01*
X21362895Y7082619D02*
X21410514Y7177857D01*
X21410514Y7177857D02*
X21410514Y7368333D01*
X21410514Y7368333D02*
X21362895Y7463571D01*
X21362895Y7463571D02*
X21315276Y7511190D01*
X21315276Y7511190D02*
X21220038Y7558809D01*
D13*
X38850147Y8180960D02*
X38850147Y7273817D01*
X38850147Y7273817D02*
X38789670Y7092389D01*
X38789670Y7092389D02*
X38668718Y6971437D01*
X38668718Y6971437D02*
X38487289Y6910960D01*
X38487289Y6910960D02*
X38366337Y6910960D01*
X39333956Y8180960D02*
X40120147Y8180960D01*
X40120147Y8180960D02*
X39696813Y7697151D01*
X39696813Y7697151D02*
X39878242Y7697151D01*
X39878242Y7697151D02*
X39999194Y7636675D01*
X39999194Y7636675D02*
X40059670Y7576198D01*
X40059670Y7576198D02*
X40120147Y7455246D01*
X40120147Y7455246D02*
X40120147Y7152865D01*
X40120147Y7152865D02*
X40059670Y7031913D01*
X40059670Y7031913D02*
X39999194Y6971437D01*
X39999194Y6971437D02*
X39878242Y6910960D01*
X39878242Y6910960D02*
X39515385Y6910960D01*
X39515385Y6910960D02*
X39394432Y6971437D01*
X39394432Y6971437D02*
X39333956Y7031913D01*
D14*
%TO.C,J2*%
X2540000Y11938000D02*
X5080000Y11938000D01*
X7620000Y11938000D02*
X5080000Y11938000D01*
X7620000Y11938000D02*
X7620000Y19558000D01*
X2540000Y14478000D02*
X2540000Y11938000D01*
X2540000Y19558000D02*
X2540000Y14478000D01*
X7620000Y19558000D02*
X2540000Y19558000D01*
%TO.C,J1*%
X12273280Y5867400D02*
X14813280Y5867400D01*
X12273280Y5867400D02*
X12273280Y8407400D01*
X14813280Y5867400D02*
X14813280Y8407400D01*
X14813280Y8407400D02*
X14813280Y13487400D01*
X12273280Y13487400D02*
X12273280Y8407400D01*
X14813280Y13487400D02*
X12273280Y13487400D01*
%TO.C,J4*%
X43434000Y9398000D02*
X45974000Y9398000D01*
X48514000Y9398000D02*
X45974000Y9398000D01*
X48514000Y9398000D02*
X48514000Y17018000D01*
X43434000Y11938000D02*
X43434000Y9398000D01*
X43434000Y17018000D02*
X43434000Y11938000D01*
X48514000Y17018000D02*
X43434000Y17018000D01*
%TO.C,J3*%
X26924000Y6350000D02*
X26924000Y3810000D01*
X26924000Y6350000D02*
X29464000Y6350000D01*
X26924000Y1270000D02*
X26924000Y3810000D01*
X26924000Y1270000D02*
X34544000Y1270000D01*
X29464000Y6350000D02*
X30734000Y6350000D01*
X32004000Y1270000D02*
X34544000Y1270000D01*
X32004000Y1270000D02*
X34544000Y1270000D01*
X33274000Y6350000D02*
X30734000Y6350000D01*
X34544000Y1270000D02*
X37084000Y1270000D01*
X34544000Y1270000D02*
X37084000Y1270000D01*
X35814000Y6350000D02*
X38354000Y6350000D01*
X35814000Y6350000D02*
X38354000Y6350000D01*
X35814000Y6350000D02*
X38354000Y6350000D01*
X35814000Y6350000D02*
X38354000Y6350000D01*
X37084000Y6350000D02*
X39624000Y6350000D01*
X37084000Y6350000D02*
X39624000Y6350000D01*
X37084000Y1270000D02*
X39624000Y1270000D01*
X37084000Y1270000D02*
X39624000Y1270000D01*
X38354000Y6350000D02*
X33274000Y6350000D01*
X39624000Y1270000D02*
X39624000Y6350000D01*
X39624000Y1270000D02*
X39624000Y6350000D01*
%TD*%
D15*
%TO.C,J2*%
X6350000Y13208000D03*
X6350000Y15748000D03*
X6350000Y18288000D03*
X3810000Y18288000D03*
X3810000Y15748000D03*
X3810000Y13208000D03*
%TD*%
%TO.C,J1*%
X13543280Y7137400D03*
X13543280Y12217400D03*
%TD*%
%TO.C,J4*%
X47244000Y10668000D03*
X47244000Y13208000D03*
X47244000Y15748000D03*
X44704000Y15748000D03*
X44704000Y13208000D03*
X44704000Y10668000D03*
%TD*%
%TO.C,J3*%
X28194000Y2540000D03*
X30734000Y2540000D03*
X33274000Y2540000D03*
X35814000Y2540000D03*
X38354000Y2540000D03*
X38354000Y5080000D03*
X35814000Y5080000D03*
X33274000Y5080000D03*
X30734000Y5080000D03*
X28194000Y5080000D03*
%TD*%
M02*
