%TF.GenerationSoftware,KiCad,Pcbnew,7.0.11+1*%
%TF.CreationDate,2024-07-03T21:22:02+00:00*%
%TF.ProjectId,PCRD02,50435244-3032-42e6-9b69-6361645f7063,rev?*%
%TF.SameCoordinates,Original*%
%TF.FileFunction,Legend,Bot*%
%TF.FilePolarity,Positive*%
%FSLAX46Y46*%
G04 Gerber Fmt 4.6, Leading zero omitted, Abs format (unit mm)*
G04 Created by KiCad (PCBNEW 7.0.11+1) date 2024-07-03 21:22:02*
%MOMM*%
%LPD*%
G01*
G04 APERTURE LIST*
%ADD10C,0.109220*%
%ADD11C,0.119380*%
%ADD12C,0.099060*%
%ADD13C,0.150000*%
%ADD14R,1.651000X1.651000*%
G04 APERTURE END LIST*
D10*
X10020650Y19133396D02*
X10044478Y19157224D01*
X10044478Y19157224D02*
X10068305Y19228706D01*
X10068305Y19228706D02*
X10068305Y19276362D01*
X10068305Y19276362D02*
X10044478Y19347845D01*
X10044478Y19347845D02*
X9996822Y19395500D01*
X9996822Y19395500D02*
X9949167Y19419327D01*
X9949167Y19419327D02*
X9853857Y19443155D01*
X9853857Y19443155D02*
X9782374Y19443155D01*
X9782374Y19443155D02*
X9687063Y19419327D01*
X9687063Y19419327D02*
X9639408Y19395500D01*
X9639408Y19395500D02*
X9591753Y19347845D01*
X9591753Y19347845D02*
X9567925Y19276362D01*
X9567925Y19276362D02*
X9567925Y19228706D01*
X9567925Y19228706D02*
X9591753Y19157224D01*
X9591753Y19157224D02*
X9615580Y19133396D01*
X10068305Y18656844D02*
X10068305Y18942775D01*
X10068305Y18799809D02*
X9567925Y18799809D01*
X9567925Y18799809D02*
X9639408Y18847465D01*
X9639408Y18847465D02*
X9687063Y18895120D01*
X9687063Y18895120D02*
X9710891Y18942775D01*
X9369805Y19951397D02*
X9369805Y20237328D01*
X9369805Y20094362D02*
X8869425Y20094362D01*
X8869425Y20094362D02*
X8940908Y20142018D01*
X8940908Y20142018D02*
X8988563Y20189673D01*
X8988563Y20189673D02*
X9012391Y20237328D01*
X8869425Y19641638D02*
X8869425Y19593983D01*
X8869425Y19593983D02*
X8893253Y19546327D01*
X8893253Y19546327D02*
X8917080Y19522500D01*
X8917080Y19522500D02*
X8964736Y19498672D01*
X8964736Y19498672D02*
X9060046Y19474845D01*
X9060046Y19474845D02*
X9179184Y19474845D01*
X9179184Y19474845D02*
X9274495Y19498672D01*
X9274495Y19498672D02*
X9322150Y19522500D01*
X9322150Y19522500D02*
X9345978Y19546327D01*
X9345978Y19546327D02*
X9369805Y19593983D01*
X9369805Y19593983D02*
X9369805Y19641638D01*
X9369805Y19641638D02*
X9345978Y19689293D01*
X9345978Y19689293D02*
X9322150Y19713121D01*
X9322150Y19713121D02*
X9274495Y19736948D01*
X9274495Y19736948D02*
X9179184Y19760776D01*
X9179184Y19760776D02*
X9060046Y19760776D01*
X9060046Y19760776D02*
X8964736Y19736948D01*
X8964736Y19736948D02*
X8917080Y19713121D01*
X8917080Y19713121D02*
X8893253Y19689293D01*
X8893253Y19689293D02*
X8869425Y19641638D01*
X8869425Y19165086D02*
X8869425Y19117431D01*
X8869425Y19117431D02*
X8893253Y19069775D01*
X8893253Y19069775D02*
X8917080Y19045948D01*
X8917080Y19045948D02*
X8964736Y19022120D01*
X8964736Y19022120D02*
X9060046Y18998293D01*
X9060046Y18998293D02*
X9179184Y18998293D01*
X9179184Y18998293D02*
X9274495Y19022120D01*
X9274495Y19022120D02*
X9322150Y19045948D01*
X9322150Y19045948D02*
X9345978Y19069775D01*
X9345978Y19069775D02*
X9369805Y19117431D01*
X9369805Y19117431D02*
X9369805Y19165086D01*
X9369805Y19165086D02*
X9345978Y19212741D01*
X9345978Y19212741D02*
X9322150Y19236569D01*
X9322150Y19236569D02*
X9274495Y19260396D01*
X9274495Y19260396D02*
X9179184Y19284224D01*
X9179184Y19284224D02*
X9060046Y19284224D01*
X9060046Y19284224D02*
X8964736Y19260396D01*
X8964736Y19260396D02*
X8917080Y19236569D01*
X8917080Y19236569D02*
X8893253Y19212741D01*
X8893253Y19212741D02*
X8869425Y19165086D01*
X9036218Y18783844D02*
X9369805Y18783844D01*
X9083874Y18783844D02*
X9060046Y18760017D01*
X9060046Y18760017D02*
X9036218Y18712362D01*
X9036218Y18712362D02*
X9036218Y18640879D01*
X9036218Y18640879D02*
X9060046Y18593223D01*
X9060046Y18593223D02*
X9107701Y18569396D01*
X9107701Y18569396D02*
X9369805Y18569396D01*
X9107701Y18164326D02*
X9107701Y18331119D01*
X9369805Y18331119D02*
X8869425Y18331119D01*
X8869425Y18331119D02*
X8869425Y18092843D01*
X34484672Y19316349D02*
X34508500Y19292522D01*
X34508500Y19292522D02*
X34579982Y19268694D01*
X34579982Y19268694D02*
X34627638Y19268694D01*
X34627638Y19268694D02*
X34699121Y19292522D01*
X34699121Y19292522D02*
X34746776Y19340177D01*
X34746776Y19340177D02*
X34770603Y19387832D01*
X34770603Y19387832D02*
X34794431Y19483142D01*
X34794431Y19483142D02*
X34794431Y19554625D01*
X34794431Y19554625D02*
X34770603Y19649936D01*
X34770603Y19649936D02*
X34746776Y19697591D01*
X34746776Y19697591D02*
X34699121Y19745246D01*
X34699121Y19745246D02*
X34627638Y19769074D01*
X34627638Y19769074D02*
X34579982Y19769074D01*
X34579982Y19769074D02*
X34508500Y19745246D01*
X34508500Y19745246D02*
X34484672Y19721419D01*
X34008120Y19268694D02*
X34294051Y19268694D01*
X34151085Y19268694D02*
X34151085Y19769074D01*
X34151085Y19769074D02*
X34198741Y19697591D01*
X34198741Y19697591D02*
X34246396Y19649936D01*
X34246396Y19649936D02*
X34294051Y19626108D01*
X33579223Y19602281D02*
X33579223Y19268694D01*
X33698361Y19792902D02*
X33817499Y19435487D01*
X33817499Y19435487D02*
X33507740Y19435487D01*
X35088224Y20467574D02*
X35326500Y20467574D01*
X35326500Y20467574D02*
X35350328Y20229298D01*
X35350328Y20229298D02*
X35326500Y20253125D01*
X35326500Y20253125D02*
X35278845Y20276953D01*
X35278845Y20276953D02*
X35159707Y20276953D01*
X35159707Y20276953D02*
X35112052Y20253125D01*
X35112052Y20253125D02*
X35088224Y20229298D01*
X35088224Y20229298D02*
X35064397Y20181642D01*
X35064397Y20181642D02*
X35064397Y20062504D01*
X35064397Y20062504D02*
X35088224Y20014849D01*
X35088224Y20014849D02*
X35112052Y19991022D01*
X35112052Y19991022D02*
X35159707Y19967194D01*
X35159707Y19967194D02*
X35278845Y19967194D01*
X35278845Y19967194D02*
X35326500Y19991022D01*
X35326500Y19991022D02*
X35350328Y20014849D01*
X34587845Y19967194D02*
X34873776Y19967194D01*
X34730810Y19967194D02*
X34730810Y20467574D01*
X34730810Y20467574D02*
X34778466Y20396091D01*
X34778466Y20396091D02*
X34826121Y20348436D01*
X34826121Y20348436D02*
X34873776Y20324608D01*
X34278086Y20467574D02*
X34230431Y20467574D01*
X34230431Y20467574D02*
X34182775Y20443746D01*
X34182775Y20443746D02*
X34158948Y20419919D01*
X34158948Y20419919D02*
X34135120Y20372263D01*
X34135120Y20372263D02*
X34111293Y20276953D01*
X34111293Y20276953D02*
X34111293Y20157815D01*
X34111293Y20157815D02*
X34135120Y20062504D01*
X34135120Y20062504D02*
X34158948Y20014849D01*
X34158948Y20014849D02*
X34182775Y19991022D01*
X34182775Y19991022D02*
X34230431Y19967194D01*
X34230431Y19967194D02*
X34278086Y19967194D01*
X34278086Y19967194D02*
X34325741Y19991022D01*
X34325741Y19991022D02*
X34349569Y20014849D01*
X34349569Y20014849D02*
X34373396Y20062504D01*
X34373396Y20062504D02*
X34397224Y20157815D01*
X34397224Y20157815D02*
X34397224Y20276953D01*
X34397224Y20276953D02*
X34373396Y20372263D01*
X34373396Y20372263D02*
X34349569Y20419919D01*
X34349569Y20419919D02*
X34325741Y20443746D01*
X34325741Y20443746D02*
X34278086Y20467574D01*
X33896844Y20300781D02*
X33896844Y19800401D01*
X33896844Y20276953D02*
X33849189Y20300781D01*
X33849189Y20300781D02*
X33753879Y20300781D01*
X33753879Y20300781D02*
X33706223Y20276953D01*
X33706223Y20276953D02*
X33682396Y20253125D01*
X33682396Y20253125D02*
X33658568Y20205470D01*
X33658568Y20205470D02*
X33658568Y20062504D01*
X33658568Y20062504D02*
X33682396Y20014849D01*
X33682396Y20014849D02*
X33706223Y19991022D01*
X33706223Y19991022D02*
X33753879Y19967194D01*
X33753879Y19967194D02*
X33849189Y19967194D01*
X33849189Y19967194D02*
X33896844Y19991022D01*
X33277326Y20229298D02*
X33444119Y20229298D01*
X33444119Y19967194D02*
X33444119Y20467574D01*
X33444119Y20467574D02*
X33205843Y20467574D01*
D11*
X16356511Y13330140D02*
X16429082Y13366426D01*
X16429082Y13366426D02*
X16501654Y13438998D01*
X16501654Y13438998D02*
X16610511Y13547855D01*
X16610511Y13547855D02*
X16683082Y13584140D01*
X16683082Y13584140D02*
X16755654Y13584140D01*
X16719368Y13402712D02*
X16791940Y13438998D01*
X16791940Y13438998D02*
X16864511Y13511569D01*
X16864511Y13511569D02*
X16900797Y13656712D01*
X16900797Y13656712D02*
X16900797Y13910712D01*
X16900797Y13910712D02*
X16864511Y14055855D01*
X16864511Y14055855D02*
X16791940Y14128426D01*
X16791940Y14128426D02*
X16719368Y14164712D01*
X16719368Y14164712D02*
X16574225Y14164712D01*
X16574225Y14164712D02*
X16501654Y14128426D01*
X16501654Y14128426D02*
X16429082Y14055855D01*
X16429082Y14055855D02*
X16392797Y13910712D01*
X16392797Y13910712D02*
X16392797Y13656712D01*
X16392797Y13656712D02*
X16429082Y13511569D01*
X16429082Y13511569D02*
X16501654Y13438998D01*
X16501654Y13438998D02*
X16574225Y13402712D01*
X16574225Y13402712D02*
X16719368Y13402712D01*
X15667082Y13402712D02*
X16102511Y13402712D01*
X15884796Y13402712D02*
X15884796Y14164712D01*
X15884796Y14164712D02*
X15957368Y14055855D01*
X15957368Y14055855D02*
X16029939Y13983283D01*
X16029939Y13983283D02*
X16102511Y13946998D01*
D12*
X16347229Y16578034D02*
X16371057Y16506551D01*
X16371057Y16506551D02*
X16394885Y16482724D01*
X16394885Y16482724D02*
X16442540Y16458896D01*
X16442540Y16458896D02*
X16514023Y16458896D01*
X16514023Y16458896D02*
X16561678Y16482724D01*
X16561678Y16482724D02*
X16585506Y16506551D01*
X16585506Y16506551D02*
X16609333Y16554206D01*
X16609333Y16554206D02*
X16609333Y16744827D01*
X16609333Y16744827D02*
X16108953Y16744827D01*
X16108953Y16744827D02*
X16108953Y16578034D01*
X16108953Y16578034D02*
X16132781Y16530379D01*
X16132781Y16530379D02*
X16156608Y16506551D01*
X16156608Y16506551D02*
X16204264Y16482724D01*
X16204264Y16482724D02*
X16251919Y16482724D01*
X16251919Y16482724D02*
X16299574Y16506551D01*
X16299574Y16506551D02*
X16323402Y16530379D01*
X16323402Y16530379D02*
X16347229Y16578034D01*
X16347229Y16578034D02*
X16347229Y16744827D01*
X16347229Y16077654D02*
X16347229Y16244447D01*
X16609333Y16244447D02*
X16108953Y16244447D01*
X16108953Y16244447D02*
X16108953Y16006171D01*
X16323402Y15744068D02*
X16299574Y15791723D01*
X16299574Y15791723D02*
X16275746Y15815550D01*
X16275746Y15815550D02*
X16228091Y15839378D01*
X16228091Y15839378D02*
X16204264Y15839378D01*
X16204264Y15839378D02*
X16156608Y15815550D01*
X16156608Y15815550D02*
X16132781Y15791723D01*
X16132781Y15791723D02*
X16108953Y15744068D01*
X16108953Y15744068D02*
X16108953Y15648757D01*
X16108953Y15648757D02*
X16132781Y15601102D01*
X16132781Y15601102D02*
X16156608Y15577274D01*
X16156608Y15577274D02*
X16204264Y15553447D01*
X16204264Y15553447D02*
X16228091Y15553447D01*
X16228091Y15553447D02*
X16275746Y15577274D01*
X16275746Y15577274D02*
X16299574Y15601102D01*
X16299574Y15601102D02*
X16323402Y15648757D01*
X16323402Y15648757D02*
X16323402Y15744068D01*
X16323402Y15744068D02*
X16347229Y15791723D01*
X16347229Y15791723D02*
X16371057Y15815550D01*
X16371057Y15815550D02*
X16418712Y15839378D01*
X16418712Y15839378D02*
X16514023Y15839378D01*
X16514023Y15839378D02*
X16561678Y15815550D01*
X16561678Y15815550D02*
X16585506Y15791723D01*
X16585506Y15791723D02*
X16609333Y15744068D01*
X16609333Y15744068D02*
X16609333Y15648757D01*
X16609333Y15648757D02*
X16585506Y15601102D01*
X16585506Y15601102D02*
X16561678Y15577274D01*
X16561678Y15577274D02*
X16514023Y15553447D01*
X16514023Y15553447D02*
X16418712Y15553447D01*
X16418712Y15553447D02*
X16371057Y15577274D01*
X16371057Y15577274D02*
X16347229Y15601102D01*
X16347229Y15601102D02*
X16323402Y15648757D01*
X16108953Y15124550D02*
X16108953Y15219860D01*
X16108953Y15219860D02*
X16132781Y15267516D01*
X16132781Y15267516D02*
X16156608Y15291343D01*
X16156608Y15291343D02*
X16228091Y15338998D01*
X16228091Y15338998D02*
X16323402Y15362826D01*
X16323402Y15362826D02*
X16514023Y15362826D01*
X16514023Y15362826D02*
X16561678Y15338998D01*
X16561678Y15338998D02*
X16585506Y15315171D01*
X16585506Y15315171D02*
X16609333Y15267516D01*
X16609333Y15267516D02*
X16609333Y15172205D01*
X16609333Y15172205D02*
X16585506Y15124550D01*
X16585506Y15124550D02*
X16561678Y15100722D01*
X16561678Y15100722D02*
X16514023Y15076895D01*
X16514023Y15076895D02*
X16394885Y15076895D01*
X16394885Y15076895D02*
X16347229Y15100722D01*
X16347229Y15100722D02*
X16323402Y15124550D01*
X16323402Y15124550D02*
X16299574Y15172205D01*
X16299574Y15172205D02*
X16299574Y15267516D01*
X16299574Y15267516D02*
X16323402Y15315171D01*
X16323402Y15315171D02*
X16347229Y15338998D01*
X16347229Y15338998D02*
X16394885Y15362826D01*
X16156608Y14886274D02*
X16132781Y14862446D01*
X16132781Y14862446D02*
X16108953Y14814791D01*
X16108953Y14814791D02*
X16108953Y14695653D01*
X16108953Y14695653D02*
X16132781Y14647998D01*
X16132781Y14647998D02*
X16156608Y14624170D01*
X16156608Y14624170D02*
X16204264Y14600343D01*
X16204264Y14600343D02*
X16251919Y14600343D01*
X16251919Y14600343D02*
X16323402Y14624170D01*
X16323402Y14624170D02*
X16609333Y14910102D01*
X16609333Y14910102D02*
X16609333Y14600343D01*
D10*
X12285556Y17531334D02*
X12452349Y17769610D01*
X12571487Y17531334D02*
X12571487Y18031714D01*
X12571487Y18031714D02*
X12380866Y18031714D01*
X12380866Y18031714D02*
X12333211Y18007886D01*
X12333211Y18007886D02*
X12309384Y17984059D01*
X12309384Y17984059D02*
X12285556Y17936403D01*
X12285556Y17936403D02*
X12285556Y17864921D01*
X12285556Y17864921D02*
X12309384Y17817265D01*
X12309384Y17817265D02*
X12333211Y17793438D01*
X12333211Y17793438D02*
X12380866Y17769610D01*
X12380866Y17769610D02*
X12571487Y17769610D01*
X12094935Y17984059D02*
X12071107Y18007886D01*
X12071107Y18007886D02*
X12023452Y18031714D01*
X12023452Y18031714D02*
X11904314Y18031714D01*
X11904314Y18031714D02*
X11856659Y18007886D01*
X11856659Y18007886D02*
X11832831Y17984059D01*
X11832831Y17984059D02*
X11809004Y17936403D01*
X11809004Y17936403D02*
X11809004Y17888748D01*
X11809004Y17888748D02*
X11832831Y17817265D01*
X11832831Y17817265D02*
X12118763Y17531334D01*
X12118763Y17531334D02*
X11809004Y17531334D01*
X12758056Y18563421D02*
X12758056Y18229834D01*
X12877194Y18754042D02*
X12996332Y18396627D01*
X12996332Y18396627D02*
X12686573Y18396627D01*
X12495952Y18229834D02*
X12495952Y18730214D01*
X12495952Y18730214D02*
X12329159Y18372800D01*
X12329159Y18372800D02*
X12162366Y18730214D01*
X12162366Y18730214D02*
X12162366Y18229834D01*
X11971745Y18730214D02*
X11638158Y18730214D01*
X11638158Y18730214D02*
X11852607Y18229834D01*
X16418305Y24086396D02*
X16180029Y24253189D01*
X16418305Y24372327D02*
X15917925Y24372327D01*
X15917925Y24372327D02*
X15917925Y24181706D01*
X15917925Y24181706D02*
X15941753Y24134051D01*
X15941753Y24134051D02*
X15965580Y24110224D01*
X15965580Y24110224D02*
X16013236Y24086396D01*
X16013236Y24086396D02*
X16084718Y24086396D01*
X16084718Y24086396D02*
X16132374Y24110224D01*
X16132374Y24110224D02*
X16156201Y24134051D01*
X16156201Y24134051D02*
X16180029Y24181706D01*
X16180029Y24181706D02*
X16180029Y24372327D01*
X15917925Y23919603D02*
X15917925Y23609844D01*
X15917925Y23609844D02*
X16108546Y23776637D01*
X16108546Y23776637D02*
X16108546Y23705154D01*
X16108546Y23705154D02*
X16132374Y23657499D01*
X16132374Y23657499D02*
X16156201Y23633671D01*
X16156201Y23633671D02*
X16203857Y23609844D01*
X16203857Y23609844D02*
X16322995Y23609844D01*
X16322995Y23609844D02*
X16370650Y23633671D01*
X16370650Y23633671D02*
X16394478Y23657499D01*
X16394478Y23657499D02*
X16418305Y23705154D01*
X16418305Y23705154D02*
X16418305Y23848120D01*
X16418305Y23848120D02*
X16394478Y23895775D01*
X16394478Y23895775D02*
X16370650Y23919603D01*
X17116805Y23721120D02*
X16878529Y23887913D01*
X17116805Y24007051D02*
X16616425Y24007051D01*
X16616425Y24007051D02*
X16616425Y23816430D01*
X16616425Y23816430D02*
X16640253Y23768775D01*
X16640253Y23768775D02*
X16664080Y23744948D01*
X16664080Y23744948D02*
X16711736Y23721120D01*
X16711736Y23721120D02*
X16783218Y23721120D01*
X16783218Y23721120D02*
X16830874Y23744948D01*
X16830874Y23744948D02*
X16854701Y23768775D01*
X16854701Y23768775D02*
X16878529Y23816430D01*
X16878529Y23816430D02*
X16878529Y24007051D01*
X16418305Y20022396D02*
X16180029Y20189189D01*
X16418305Y20308327D02*
X15917925Y20308327D01*
X15917925Y20308327D02*
X15917925Y20117706D01*
X15917925Y20117706D02*
X15941753Y20070051D01*
X15941753Y20070051D02*
X15965580Y20046224D01*
X15965580Y20046224D02*
X16013236Y20022396D01*
X16013236Y20022396D02*
X16084718Y20022396D01*
X16084718Y20022396D02*
X16132374Y20046224D01*
X16132374Y20046224D02*
X16156201Y20070051D01*
X16156201Y20070051D02*
X16180029Y20117706D01*
X16180029Y20117706D02*
X16180029Y20308327D01*
X16084718Y19593499D02*
X16418305Y19593499D01*
X15894098Y19712637D02*
X16251512Y19831775D01*
X16251512Y19831775D02*
X16251512Y19522016D01*
X17116805Y19657120D02*
X16878529Y19823913D01*
X17116805Y19943051D02*
X16616425Y19943051D01*
X16616425Y19943051D02*
X16616425Y19752430D01*
X16616425Y19752430D02*
X16640253Y19704775D01*
X16640253Y19704775D02*
X16664080Y19680948D01*
X16664080Y19680948D02*
X16711736Y19657120D01*
X16711736Y19657120D02*
X16783218Y19657120D01*
X16783218Y19657120D02*
X16830874Y19680948D01*
X16830874Y19680948D02*
X16854701Y19704775D01*
X16854701Y19704775D02*
X16878529Y19752430D01*
X16878529Y19752430D02*
X16878529Y19943051D01*
X18831305Y20276396D02*
X18593029Y20443189D01*
X18831305Y20562327D02*
X18330925Y20562327D01*
X18330925Y20562327D02*
X18330925Y20371706D01*
X18330925Y20371706D02*
X18354753Y20324051D01*
X18354753Y20324051D02*
X18378580Y20300224D01*
X18378580Y20300224D02*
X18426236Y20276396D01*
X18426236Y20276396D02*
X18497718Y20276396D01*
X18497718Y20276396D02*
X18545374Y20300224D01*
X18545374Y20300224D02*
X18569201Y20324051D01*
X18569201Y20324051D02*
X18593029Y20371706D01*
X18593029Y20371706D02*
X18593029Y20562327D01*
X18330925Y19823671D02*
X18330925Y20061947D01*
X18330925Y20061947D02*
X18569201Y20085775D01*
X18569201Y20085775D02*
X18545374Y20061947D01*
X18545374Y20061947D02*
X18521546Y20014292D01*
X18521546Y20014292D02*
X18521546Y19895154D01*
X18521546Y19895154D02*
X18545374Y19847499D01*
X18545374Y19847499D02*
X18569201Y19823671D01*
X18569201Y19823671D02*
X18616857Y19799844D01*
X18616857Y19799844D02*
X18735995Y19799844D01*
X18735995Y19799844D02*
X18783650Y19823671D01*
X18783650Y19823671D02*
X18807478Y19847499D01*
X18807478Y19847499D02*
X18831305Y19895154D01*
X18831305Y19895154D02*
X18831305Y20014292D01*
X18831305Y20014292D02*
X18807478Y20061947D01*
X18807478Y20061947D02*
X18783650Y20085775D01*
X19529805Y19911120D02*
X19291529Y20077913D01*
X19529805Y20197051D02*
X19029425Y20197051D01*
X19029425Y20197051D02*
X19029425Y20006430D01*
X19029425Y20006430D02*
X19053253Y19958775D01*
X19053253Y19958775D02*
X19077080Y19934948D01*
X19077080Y19934948D02*
X19124736Y19911120D01*
X19124736Y19911120D02*
X19196218Y19911120D01*
X19196218Y19911120D02*
X19243874Y19934948D01*
X19243874Y19934948D02*
X19267701Y19958775D01*
X19267701Y19958775D02*
X19291529Y20006430D01*
X19291529Y20006430D02*
X19291529Y20197051D01*
X21371305Y18371396D02*
X21133029Y18538189D01*
X21371305Y18657327D02*
X20870925Y18657327D01*
X20870925Y18657327D02*
X20870925Y18466706D01*
X20870925Y18466706D02*
X20894753Y18419051D01*
X20894753Y18419051D02*
X20918580Y18395224D01*
X20918580Y18395224D02*
X20966236Y18371396D01*
X20966236Y18371396D02*
X21037718Y18371396D01*
X21037718Y18371396D02*
X21085374Y18395224D01*
X21085374Y18395224D02*
X21109201Y18419051D01*
X21109201Y18419051D02*
X21133029Y18466706D01*
X21133029Y18466706D02*
X21133029Y18657327D01*
X20870925Y17942499D02*
X20870925Y18037809D01*
X20870925Y18037809D02*
X20894753Y18085465D01*
X20894753Y18085465D02*
X20918580Y18109292D01*
X20918580Y18109292D02*
X20990063Y18156947D01*
X20990063Y18156947D02*
X21085374Y18180775D01*
X21085374Y18180775D02*
X21275995Y18180775D01*
X21275995Y18180775D02*
X21323650Y18156947D01*
X21323650Y18156947D02*
X21347478Y18133120D01*
X21347478Y18133120D02*
X21371305Y18085465D01*
X21371305Y18085465D02*
X21371305Y17990154D01*
X21371305Y17990154D02*
X21347478Y17942499D01*
X21347478Y17942499D02*
X21323650Y17918671D01*
X21323650Y17918671D02*
X21275995Y17894844D01*
X21275995Y17894844D02*
X21156857Y17894844D01*
X21156857Y17894844D02*
X21109201Y17918671D01*
X21109201Y17918671D02*
X21085374Y17942499D01*
X21085374Y17942499D02*
X21061546Y17990154D01*
X21061546Y17990154D02*
X21061546Y18085465D01*
X21061546Y18085465D02*
X21085374Y18133120D01*
X21085374Y18133120D02*
X21109201Y18156947D01*
X21109201Y18156947D02*
X21156857Y18180775D01*
X22069805Y18006120D02*
X21831529Y18172913D01*
X22069805Y18292051D02*
X21569425Y18292051D01*
X21569425Y18292051D02*
X21569425Y18101430D01*
X21569425Y18101430D02*
X21593253Y18053775D01*
X21593253Y18053775D02*
X21617080Y18029948D01*
X21617080Y18029948D02*
X21664736Y18006120D01*
X21664736Y18006120D02*
X21736218Y18006120D01*
X21736218Y18006120D02*
X21783874Y18029948D01*
X21783874Y18029948D02*
X21807701Y18053775D01*
X21807701Y18053775D02*
X21831529Y18101430D01*
X21831529Y18101430D02*
X21831529Y18292051D01*
X27848305Y8719396D02*
X27610029Y8886189D01*
X27848305Y9005327D02*
X27347925Y9005327D01*
X27347925Y9005327D02*
X27347925Y8814706D01*
X27347925Y8814706D02*
X27371753Y8767051D01*
X27371753Y8767051D02*
X27395580Y8743224D01*
X27395580Y8743224D02*
X27443236Y8719396D01*
X27443236Y8719396D02*
X27514718Y8719396D01*
X27514718Y8719396D02*
X27562374Y8743224D01*
X27562374Y8743224D02*
X27586201Y8767051D01*
X27586201Y8767051D02*
X27610029Y8814706D01*
X27610029Y8814706D02*
X27610029Y9005327D01*
X27562374Y8433465D02*
X27538546Y8481120D01*
X27538546Y8481120D02*
X27514718Y8504947D01*
X27514718Y8504947D02*
X27467063Y8528775D01*
X27467063Y8528775D02*
X27443236Y8528775D01*
X27443236Y8528775D02*
X27395580Y8504947D01*
X27395580Y8504947D02*
X27371753Y8481120D01*
X27371753Y8481120D02*
X27347925Y8433465D01*
X27347925Y8433465D02*
X27347925Y8338154D01*
X27347925Y8338154D02*
X27371753Y8290499D01*
X27371753Y8290499D02*
X27395580Y8266671D01*
X27395580Y8266671D02*
X27443236Y8242844D01*
X27443236Y8242844D02*
X27467063Y8242844D01*
X27467063Y8242844D02*
X27514718Y8266671D01*
X27514718Y8266671D02*
X27538546Y8290499D01*
X27538546Y8290499D02*
X27562374Y8338154D01*
X27562374Y8338154D02*
X27562374Y8433465D01*
X27562374Y8433465D02*
X27586201Y8481120D01*
X27586201Y8481120D02*
X27610029Y8504947D01*
X27610029Y8504947D02*
X27657684Y8528775D01*
X27657684Y8528775D02*
X27752995Y8528775D01*
X27752995Y8528775D02*
X27800650Y8504947D01*
X27800650Y8504947D02*
X27824478Y8481120D01*
X27824478Y8481120D02*
X27848305Y8433465D01*
X27848305Y8433465D02*
X27848305Y8338154D01*
X27848305Y8338154D02*
X27824478Y8290499D01*
X27824478Y8290499D02*
X27800650Y8266671D01*
X27800650Y8266671D02*
X27752995Y8242844D01*
X27752995Y8242844D02*
X27657684Y8242844D01*
X27657684Y8242844D02*
X27610029Y8266671D01*
X27610029Y8266671D02*
X27586201Y8290499D01*
X27586201Y8290499D02*
X27562374Y8338154D01*
X28046425Y9116604D02*
X28046425Y8806845D01*
X28046425Y8806845D02*
X28237046Y8973638D01*
X28237046Y8973638D02*
X28237046Y8902155D01*
X28237046Y8902155D02*
X28260874Y8854500D01*
X28260874Y8854500D02*
X28284701Y8830672D01*
X28284701Y8830672D02*
X28332357Y8806845D01*
X28332357Y8806845D02*
X28451495Y8806845D01*
X28451495Y8806845D02*
X28499150Y8830672D01*
X28499150Y8830672D02*
X28522978Y8854500D01*
X28522978Y8854500D02*
X28546805Y8902155D01*
X28546805Y8902155D02*
X28546805Y9045121D01*
X28546805Y9045121D02*
X28522978Y9092776D01*
X28522978Y9092776D02*
X28499150Y9116604D01*
X28546805Y8592396D02*
X28046425Y8592396D01*
X28356184Y8544741D02*
X28546805Y8401775D01*
X28213218Y8401775D02*
X28403839Y8592396D01*
X28046425Y8234982D02*
X28046425Y7925223D01*
X28046425Y7925223D02*
X28237046Y8092016D01*
X28237046Y8092016D02*
X28237046Y8020533D01*
X28237046Y8020533D02*
X28260874Y7972878D01*
X28260874Y7972878D02*
X28284701Y7949050D01*
X28284701Y7949050D02*
X28332357Y7925223D01*
X28332357Y7925223D02*
X28451495Y7925223D01*
X28451495Y7925223D02*
X28499150Y7949050D01*
X28499150Y7949050D02*
X28522978Y7972878D01*
X28522978Y7972878D02*
X28546805Y8020533D01*
X28546805Y8020533D02*
X28546805Y8163499D01*
X28546805Y8163499D02*
X28522978Y8211154D01*
X28522978Y8211154D02*
X28499150Y8234982D01*
X33484396Y17490694D02*
X33651189Y17728970D01*
X33770327Y17490694D02*
X33770327Y17991074D01*
X33770327Y17991074D02*
X33579706Y17991074D01*
X33579706Y17991074D02*
X33532051Y17967246D01*
X33532051Y17967246D02*
X33508224Y17943419D01*
X33508224Y17943419D02*
X33484396Y17895763D01*
X33484396Y17895763D02*
X33484396Y17824281D01*
X33484396Y17824281D02*
X33508224Y17776625D01*
X33508224Y17776625D02*
X33532051Y17752798D01*
X33532051Y17752798D02*
X33579706Y17728970D01*
X33579706Y17728970D02*
X33770327Y17728970D01*
X33246120Y17490694D02*
X33150809Y17490694D01*
X33150809Y17490694D02*
X33103154Y17514522D01*
X33103154Y17514522D02*
X33079326Y17538349D01*
X33079326Y17538349D02*
X33031671Y17609832D01*
X33031671Y17609832D02*
X33007844Y17705142D01*
X33007844Y17705142D02*
X33007844Y17895763D01*
X33007844Y17895763D02*
X33031671Y17943419D01*
X33031671Y17943419D02*
X33055499Y17967246D01*
X33055499Y17967246D02*
X33103154Y17991074D01*
X33103154Y17991074D02*
X33198465Y17991074D01*
X33198465Y17991074D02*
X33246120Y17967246D01*
X33246120Y17967246D02*
X33269947Y17943419D01*
X33269947Y17943419D02*
X33293775Y17895763D01*
X33293775Y17895763D02*
X33293775Y17776625D01*
X33293775Y17776625D02*
X33269947Y17728970D01*
X33269947Y17728970D02*
X33246120Y17705142D01*
X33246120Y17705142D02*
X33198465Y17681315D01*
X33198465Y17681315D02*
X33103154Y17681315D01*
X33103154Y17681315D02*
X33055499Y17705142D01*
X33055499Y17705142D02*
X33031671Y17728970D01*
X33031671Y17728970D02*
X33007844Y17776625D01*
X33571845Y16792194D02*
X33857776Y16792194D01*
X33714810Y16792194D02*
X33714810Y17292574D01*
X33714810Y17292574D02*
X33762466Y17221091D01*
X33762466Y17221091D02*
X33810121Y17173436D01*
X33810121Y17173436D02*
X33857776Y17149608D01*
X33262086Y17292574D02*
X33214431Y17292574D01*
X33214431Y17292574D02*
X33166775Y17268746D01*
X33166775Y17268746D02*
X33142948Y17244919D01*
X33142948Y17244919D02*
X33119120Y17197263D01*
X33119120Y17197263D02*
X33095293Y17101953D01*
X33095293Y17101953D02*
X33095293Y16982815D01*
X33095293Y16982815D02*
X33119120Y16887504D01*
X33119120Y16887504D02*
X33142948Y16839849D01*
X33142948Y16839849D02*
X33166775Y16816022D01*
X33166775Y16816022D02*
X33214431Y16792194D01*
X33214431Y16792194D02*
X33262086Y16792194D01*
X33262086Y16792194D02*
X33309741Y16816022D01*
X33309741Y16816022D02*
X33333569Y16839849D01*
X33333569Y16839849D02*
X33357396Y16887504D01*
X33357396Y16887504D02*
X33381224Y16982815D01*
X33381224Y16982815D02*
X33381224Y17101953D01*
X33381224Y17101953D02*
X33357396Y17197263D01*
X33357396Y17197263D02*
X33333569Y17244919D01*
X33333569Y17244919D02*
X33309741Y17268746D01*
X33309741Y17268746D02*
X33262086Y17292574D01*
X32880844Y16792194D02*
X32880844Y17292574D01*
X32833189Y16982815D02*
X32690223Y16792194D01*
X32690223Y17125781D02*
X32880844Y16935160D01*
X34357672Y21554694D02*
X34524465Y21792970D01*
X34643603Y21554694D02*
X34643603Y22055074D01*
X34643603Y22055074D02*
X34452982Y22055074D01*
X34452982Y22055074D02*
X34405327Y22031246D01*
X34405327Y22031246D02*
X34381500Y22007419D01*
X34381500Y22007419D02*
X34357672Y21959763D01*
X34357672Y21959763D02*
X34357672Y21888281D01*
X34357672Y21888281D02*
X34381500Y21840625D01*
X34381500Y21840625D02*
X34405327Y21816798D01*
X34405327Y21816798D02*
X34452982Y21792970D01*
X34452982Y21792970D02*
X34643603Y21792970D01*
X33881120Y21554694D02*
X34167051Y21554694D01*
X34024085Y21554694D02*
X34024085Y22055074D01*
X34024085Y22055074D02*
X34071741Y21983591D01*
X34071741Y21983591D02*
X34119396Y21935936D01*
X34119396Y21935936D02*
X34167051Y21912108D01*
X33571361Y22055074D02*
X33523706Y22055074D01*
X33523706Y22055074D02*
X33476050Y22031246D01*
X33476050Y22031246D02*
X33452223Y22007419D01*
X33452223Y22007419D02*
X33428395Y21959763D01*
X33428395Y21959763D02*
X33404568Y21864453D01*
X33404568Y21864453D02*
X33404568Y21745315D01*
X33404568Y21745315D02*
X33428395Y21650004D01*
X33428395Y21650004D02*
X33452223Y21602349D01*
X33452223Y21602349D02*
X33476050Y21578522D01*
X33476050Y21578522D02*
X33523706Y21554694D01*
X33523706Y21554694D02*
X33571361Y21554694D01*
X33571361Y21554694D02*
X33619016Y21578522D01*
X33619016Y21578522D02*
X33642844Y21602349D01*
X33642844Y21602349D02*
X33666671Y21650004D01*
X33666671Y21650004D02*
X33690499Y21745315D01*
X33690499Y21745315D02*
X33690499Y21864453D01*
X33690499Y21864453D02*
X33666671Y21959763D01*
X33666671Y21959763D02*
X33642844Y22007419D01*
X33642844Y22007419D02*
X33619016Y22031246D01*
X33619016Y22031246D02*
X33571361Y22055074D01*
X34460845Y22253194D02*
X34746776Y22253194D01*
X34603810Y22253194D02*
X34603810Y22753574D01*
X34603810Y22753574D02*
X34651466Y22682091D01*
X34651466Y22682091D02*
X34699121Y22634436D01*
X34699121Y22634436D02*
X34746776Y22610608D01*
X34246396Y22253194D02*
X34246396Y22753574D01*
X34198741Y22443815D02*
X34055775Y22253194D01*
X34055775Y22586781D02*
X34246396Y22396160D01*
X33603050Y22753574D02*
X33841326Y22753574D01*
X33841326Y22753574D02*
X33865154Y22515298D01*
X33865154Y22515298D02*
X33841326Y22539125D01*
X33841326Y22539125D02*
X33793671Y22562953D01*
X33793671Y22562953D02*
X33674533Y22562953D01*
X33674533Y22562953D02*
X33626878Y22539125D01*
X33626878Y22539125D02*
X33603050Y22515298D01*
X33603050Y22515298D02*
X33579223Y22467642D01*
X33579223Y22467642D02*
X33579223Y22348504D01*
X33579223Y22348504D02*
X33603050Y22300849D01*
X33603050Y22300849D02*
X33626878Y22277022D01*
X33626878Y22277022D02*
X33674533Y22253194D01*
X33674533Y22253194D02*
X33793671Y22253194D01*
X33793671Y22253194D02*
X33841326Y22277022D01*
X33841326Y22277022D02*
X33865154Y22300849D01*
X39183672Y15077694D02*
X39350465Y15315970D01*
X39469603Y15077694D02*
X39469603Y15578074D01*
X39469603Y15578074D02*
X39278982Y15578074D01*
X39278982Y15578074D02*
X39231327Y15554246D01*
X39231327Y15554246D02*
X39207500Y15530419D01*
X39207500Y15530419D02*
X39183672Y15482763D01*
X39183672Y15482763D02*
X39183672Y15411281D01*
X39183672Y15411281D02*
X39207500Y15363625D01*
X39207500Y15363625D02*
X39231327Y15339798D01*
X39231327Y15339798D02*
X39278982Y15315970D01*
X39278982Y15315970D02*
X39469603Y15315970D01*
X38707120Y15077694D02*
X38993051Y15077694D01*
X38850085Y15077694D02*
X38850085Y15578074D01*
X38850085Y15578074D02*
X38897741Y15506591D01*
X38897741Y15506591D02*
X38945396Y15458936D01*
X38945396Y15458936D02*
X38993051Y15435108D01*
X38278223Y15411281D02*
X38278223Y15077694D01*
X38397361Y15601902D02*
X38516499Y15244487D01*
X38516499Y15244487D02*
X38206740Y15244487D01*
X39318776Y14831919D02*
X39294948Y14855746D01*
X39294948Y14855746D02*
X39247293Y14879574D01*
X39247293Y14879574D02*
X39128155Y14879574D01*
X39128155Y14879574D02*
X39080500Y14855746D01*
X39080500Y14855746D02*
X39056672Y14831919D01*
X39056672Y14831919D02*
X39032845Y14784263D01*
X39032845Y14784263D02*
X39032845Y14736608D01*
X39032845Y14736608D02*
X39056672Y14665125D01*
X39056672Y14665125D02*
X39342604Y14379194D01*
X39342604Y14379194D02*
X39032845Y14379194D01*
X38818396Y14379194D02*
X38818396Y14879574D01*
X38770741Y14569815D02*
X38627775Y14379194D01*
X38627775Y14712781D02*
X38818396Y14522160D01*
X38198878Y14712781D02*
X38198878Y14379194D01*
X38318016Y14903402D02*
X38437154Y14545987D01*
X38437154Y14545987D02*
X38127395Y14545987D01*
X41056305Y9719672D02*
X40818029Y9886465D01*
X41056305Y10005603D02*
X40555925Y10005603D01*
X40555925Y10005603D02*
X40555925Y9814982D01*
X40555925Y9814982D02*
X40579753Y9767327D01*
X40579753Y9767327D02*
X40603580Y9743500D01*
X40603580Y9743500D02*
X40651236Y9719672D01*
X40651236Y9719672D02*
X40722718Y9719672D01*
X40722718Y9719672D02*
X40770374Y9743500D01*
X40770374Y9743500D02*
X40794201Y9767327D01*
X40794201Y9767327D02*
X40818029Y9814982D01*
X40818029Y9814982D02*
X40818029Y10005603D01*
X41056305Y9243120D02*
X41056305Y9529051D01*
X41056305Y9386085D02*
X40555925Y9386085D01*
X40555925Y9386085D02*
X40627408Y9433741D01*
X40627408Y9433741D02*
X40675063Y9481396D01*
X40675063Y9481396D02*
X40698891Y9529051D01*
X40555925Y8790395D02*
X40555925Y9028671D01*
X40555925Y9028671D02*
X40794201Y9052499D01*
X40794201Y9052499D02*
X40770374Y9028671D01*
X40770374Y9028671D02*
X40746546Y8981016D01*
X40746546Y8981016D02*
X40746546Y8861878D01*
X40746546Y8861878D02*
X40770374Y8814223D01*
X40770374Y8814223D02*
X40794201Y8790395D01*
X40794201Y8790395D02*
X40841857Y8766568D01*
X40841857Y8766568D02*
X40960995Y8766568D01*
X40960995Y8766568D02*
X41008650Y8790395D01*
X41008650Y8790395D02*
X41032478Y8814223D01*
X41032478Y8814223D02*
X41056305Y8861878D01*
X41056305Y8861878D02*
X41056305Y8981016D01*
X41056305Y8981016D02*
X41032478Y9028671D01*
X41032478Y9028671D02*
X41008650Y9052499D01*
X41754805Y9568845D02*
X41754805Y9854776D01*
X41754805Y9711810D02*
X41254425Y9711810D01*
X41254425Y9711810D02*
X41325908Y9759466D01*
X41325908Y9759466D02*
X41373563Y9807121D01*
X41373563Y9807121D02*
X41397391Y9854776D01*
X41254425Y9259086D02*
X41254425Y9211431D01*
X41254425Y9211431D02*
X41278253Y9163775D01*
X41278253Y9163775D02*
X41302080Y9139948D01*
X41302080Y9139948D02*
X41349736Y9116120D01*
X41349736Y9116120D02*
X41445046Y9092293D01*
X41445046Y9092293D02*
X41564184Y9092293D01*
X41564184Y9092293D02*
X41659495Y9116120D01*
X41659495Y9116120D02*
X41707150Y9139948D01*
X41707150Y9139948D02*
X41730978Y9163775D01*
X41730978Y9163775D02*
X41754805Y9211431D01*
X41754805Y9211431D02*
X41754805Y9259086D01*
X41754805Y9259086D02*
X41730978Y9306741D01*
X41730978Y9306741D02*
X41707150Y9330569D01*
X41707150Y9330569D02*
X41659495Y9354396D01*
X41659495Y9354396D02*
X41564184Y9378224D01*
X41564184Y9378224D02*
X41445046Y9378224D01*
X41445046Y9378224D02*
X41349736Y9354396D01*
X41349736Y9354396D02*
X41302080Y9330569D01*
X41302080Y9330569D02*
X41278253Y9306741D01*
X41278253Y9306741D02*
X41254425Y9259086D01*
X41754805Y8877844D02*
X41254425Y8877844D01*
X41564184Y8830189D02*
X41754805Y8687223D01*
X41421218Y8687223D02*
X41611839Y8877844D01*
D12*
X25019241Y16956766D02*
X25019241Y16551696D01*
X25019241Y16551696D02*
X24995414Y16504041D01*
X24995414Y16504041D02*
X24971586Y16480214D01*
X24971586Y16480214D02*
X24923931Y16456386D01*
X24923931Y16456386D02*
X24828620Y16456386D01*
X24828620Y16456386D02*
X24780965Y16480214D01*
X24780965Y16480214D02*
X24757138Y16504041D01*
X24757138Y16504041D02*
X24733310Y16551696D01*
X24733310Y16551696D02*
X24733310Y16956766D01*
X24232930Y16456386D02*
X24518861Y16456386D01*
X24375895Y16456386D02*
X24375895Y16956766D01*
X24375895Y16956766D02*
X24423551Y16885283D01*
X24423551Y16885283D02*
X24471206Y16837628D01*
X24471206Y16837628D02*
X24518861Y16813800D01*
D10*
X42405650Y14291672D02*
X42429478Y14315500D01*
X42429478Y14315500D02*
X42453305Y14386982D01*
X42453305Y14386982D02*
X42453305Y14434638D01*
X42453305Y14434638D02*
X42429478Y14506121D01*
X42429478Y14506121D02*
X42381822Y14553776D01*
X42381822Y14553776D02*
X42334167Y14577603D01*
X42334167Y14577603D02*
X42238857Y14601431D01*
X42238857Y14601431D02*
X42167374Y14601431D01*
X42167374Y14601431D02*
X42072063Y14577603D01*
X42072063Y14577603D02*
X42024408Y14553776D01*
X42024408Y14553776D02*
X41976753Y14506121D01*
X41976753Y14506121D02*
X41952925Y14434638D01*
X41952925Y14434638D02*
X41952925Y14386982D01*
X41952925Y14386982D02*
X41976753Y14315500D01*
X41976753Y14315500D02*
X42000580Y14291672D01*
X42453305Y13815120D02*
X42453305Y14101051D01*
X42453305Y13958085D02*
X41952925Y13958085D01*
X41952925Y13958085D02*
X42024408Y14005741D01*
X42024408Y14005741D02*
X42072063Y14053396D01*
X42072063Y14053396D02*
X42095891Y14101051D01*
X41952925Y13648327D02*
X41952925Y13314740D01*
X41952925Y13314740D02*
X42453305Y13529189D01*
X41254425Y15181156D02*
X41254425Y14871397D01*
X41254425Y14871397D02*
X41445046Y15038190D01*
X41445046Y15038190D02*
X41445046Y14966707D01*
X41445046Y14966707D02*
X41468874Y14919052D01*
X41468874Y14919052D02*
X41492701Y14895224D01*
X41492701Y14895224D02*
X41540357Y14871397D01*
X41540357Y14871397D02*
X41659495Y14871397D01*
X41659495Y14871397D02*
X41707150Y14895224D01*
X41707150Y14895224D02*
X41730978Y14919052D01*
X41730978Y14919052D02*
X41754805Y14966707D01*
X41754805Y14966707D02*
X41754805Y15109673D01*
X41754805Y15109673D02*
X41730978Y15157328D01*
X41730978Y15157328D02*
X41707150Y15181156D01*
X41254425Y14704604D02*
X41254425Y14394845D01*
X41254425Y14394845D02*
X41445046Y14561638D01*
X41445046Y14561638D02*
X41445046Y14490155D01*
X41445046Y14490155D02*
X41468874Y14442500D01*
X41468874Y14442500D02*
X41492701Y14418672D01*
X41492701Y14418672D02*
X41540357Y14394845D01*
X41540357Y14394845D02*
X41659495Y14394845D01*
X41659495Y14394845D02*
X41707150Y14418672D01*
X41707150Y14418672D02*
X41730978Y14442500D01*
X41730978Y14442500D02*
X41754805Y14490155D01*
X41754805Y14490155D02*
X41754805Y14633121D01*
X41754805Y14633121D02*
X41730978Y14680776D01*
X41730978Y14680776D02*
X41707150Y14704604D01*
X41254425Y14085086D02*
X41254425Y14037431D01*
X41254425Y14037431D02*
X41278253Y13989775D01*
X41278253Y13989775D02*
X41302080Y13965948D01*
X41302080Y13965948D02*
X41349736Y13942120D01*
X41349736Y13942120D02*
X41445046Y13918293D01*
X41445046Y13918293D02*
X41564184Y13918293D01*
X41564184Y13918293D02*
X41659495Y13942120D01*
X41659495Y13942120D02*
X41707150Y13965948D01*
X41707150Y13965948D02*
X41730978Y13989775D01*
X41730978Y13989775D02*
X41754805Y14037431D01*
X41754805Y14037431D02*
X41754805Y14085086D01*
X41754805Y14085086D02*
X41730978Y14132741D01*
X41730978Y14132741D02*
X41707150Y14156569D01*
X41707150Y14156569D02*
X41659495Y14180396D01*
X41659495Y14180396D02*
X41564184Y14204224D01*
X41564184Y14204224D02*
X41445046Y14204224D01*
X41445046Y14204224D02*
X41349736Y14180396D01*
X41349736Y14180396D02*
X41302080Y14156569D01*
X41302080Y14156569D02*
X41278253Y14132741D01*
X41278253Y14132741D02*
X41254425Y14085086D01*
X41421218Y13703844D02*
X41754805Y13703844D01*
X41468874Y13703844D02*
X41445046Y13680017D01*
X41445046Y13680017D02*
X41421218Y13632362D01*
X41421218Y13632362D02*
X41421218Y13560879D01*
X41421218Y13560879D02*
X41445046Y13513223D01*
X41445046Y13513223D02*
X41492701Y13489396D01*
X41492701Y13489396D02*
X41754805Y13489396D01*
X41492701Y13084326D02*
X41492701Y13251119D01*
X41754805Y13251119D02*
X41254425Y13251119D01*
X41254425Y13251119D02*
X41254425Y13012843D01*
X10068305Y15795836D02*
X9830029Y15962629D01*
X10068305Y16081767D02*
X9567925Y16081767D01*
X9567925Y16081767D02*
X9567925Y15891146D01*
X9567925Y15891146D02*
X9591753Y15843491D01*
X9591753Y15843491D02*
X9615580Y15819664D01*
X9615580Y15819664D02*
X9663236Y15795836D01*
X9663236Y15795836D02*
X9734718Y15795836D01*
X9734718Y15795836D02*
X9782374Y15819664D01*
X9782374Y15819664D02*
X9806201Y15843491D01*
X9806201Y15843491D02*
X9830029Y15891146D01*
X9830029Y15891146D02*
X9830029Y16081767D01*
X10068305Y15319284D02*
X10068305Y15605215D01*
X10068305Y15462249D02*
X9567925Y15462249D01*
X9567925Y15462249D02*
X9639408Y15509905D01*
X9639408Y15509905D02*
X9687063Y15557560D01*
X9687063Y15557560D02*
X9710891Y15605215D01*
X9036218Y16268336D02*
X9369805Y16268336D01*
X8845598Y16387474D02*
X9203012Y16506612D01*
X9203012Y16506612D02*
X9203012Y16196853D01*
X9369805Y16006232D02*
X8869425Y16006232D01*
X8869425Y16006232D02*
X9226839Y15839439D01*
X9226839Y15839439D02*
X8869425Y15672646D01*
X8869425Y15672646D02*
X9369805Y15672646D01*
X8869425Y15482025D02*
X8869425Y15148438D01*
X8869425Y15148438D02*
X9369805Y15362887D01*
D13*
X32982819Y13969904D02*
X33792342Y13969904D01*
X33792342Y13969904D02*
X33887580Y13922285D01*
X33887580Y13922285D02*
X33935200Y13874666D01*
X33935200Y13874666D02*
X33982819Y13779428D01*
X33982819Y13779428D02*
X33982819Y13588952D01*
X33982819Y13588952D02*
X33935200Y13493714D01*
X33935200Y13493714D02*
X33887580Y13446095D01*
X33887580Y13446095D02*
X33792342Y13398476D01*
X33792342Y13398476D02*
X32982819Y13398476D01*
X33078057Y12969904D02*
X33030438Y12922285D01*
X33030438Y12922285D02*
X32982819Y12827047D01*
X32982819Y12827047D02*
X32982819Y12588952D01*
X32982819Y12588952D02*
X33030438Y12493714D01*
X33030438Y12493714D02*
X33078057Y12446095D01*
X33078057Y12446095D02*
X33173295Y12398476D01*
X33173295Y12398476D02*
X33268533Y12398476D01*
X33268533Y12398476D02*
X33411390Y12446095D01*
X33411390Y12446095D02*
X33982819Y13017523D01*
X33982819Y13017523D02*
X33982819Y12398476D01*
X31157104Y15850856D02*
X31157104Y15374666D01*
X31442819Y15946094D02*
X30442819Y15612761D01*
X30442819Y15612761D02*
X31442819Y15279428D01*
X31442819Y14946094D02*
X30442819Y14946094D01*
X30442819Y14946094D02*
X30442819Y14707999D01*
X30442819Y14707999D02*
X30490438Y14565142D01*
X30490438Y14565142D02*
X30585676Y14469904D01*
X30585676Y14469904D02*
X30680914Y14422285D01*
X30680914Y14422285D02*
X30871390Y14374666D01*
X30871390Y14374666D02*
X31014247Y14374666D01*
X31014247Y14374666D02*
X31204723Y14422285D01*
X31204723Y14422285D02*
X31299961Y14469904D01*
X31299961Y14469904D02*
X31395200Y14565142D01*
X31395200Y14565142D02*
X31442819Y14707999D01*
X31442819Y14707999D02*
X31442819Y14946094D01*
X30871390Y13803237D02*
X30823771Y13898475D01*
X30823771Y13898475D02*
X30776152Y13946094D01*
X30776152Y13946094D02*
X30680914Y13993713D01*
X30680914Y13993713D02*
X30633295Y13993713D01*
X30633295Y13993713D02*
X30538057Y13946094D01*
X30538057Y13946094D02*
X30490438Y13898475D01*
X30490438Y13898475D02*
X30442819Y13803237D01*
X30442819Y13803237D02*
X30442819Y13612761D01*
X30442819Y13612761D02*
X30490438Y13517523D01*
X30490438Y13517523D02*
X30538057Y13469904D01*
X30538057Y13469904D02*
X30633295Y13422285D01*
X30633295Y13422285D02*
X30680914Y13422285D01*
X30680914Y13422285D02*
X30776152Y13469904D01*
X30776152Y13469904D02*
X30823771Y13517523D01*
X30823771Y13517523D02*
X30871390Y13612761D01*
X30871390Y13612761D02*
X30871390Y13803237D01*
X30871390Y13803237D02*
X30919009Y13898475D01*
X30919009Y13898475D02*
X30966628Y13946094D01*
X30966628Y13946094D02*
X31061866Y13993713D01*
X31061866Y13993713D02*
X31252342Y13993713D01*
X31252342Y13993713D02*
X31347580Y13946094D01*
X31347580Y13946094D02*
X31395200Y13898475D01*
X31395200Y13898475D02*
X31442819Y13803237D01*
X31442819Y13803237D02*
X31442819Y13612761D01*
X31442819Y13612761D02*
X31395200Y13517523D01*
X31395200Y13517523D02*
X31347580Y13469904D01*
X31347580Y13469904D02*
X31252342Y13422285D01*
X31252342Y13422285D02*
X31061866Y13422285D01*
X31061866Y13422285D02*
X30966628Y13469904D01*
X30966628Y13469904D02*
X30919009Y13517523D01*
X30919009Y13517523D02*
X30871390Y13612761D01*
X30442819Y12565142D02*
X30442819Y12755618D01*
X30442819Y12755618D02*
X30490438Y12850856D01*
X30490438Y12850856D02*
X30538057Y12898475D01*
X30538057Y12898475D02*
X30680914Y12993713D01*
X30680914Y12993713D02*
X30871390Y13041332D01*
X30871390Y13041332D02*
X31252342Y13041332D01*
X31252342Y13041332D02*
X31347580Y12993713D01*
X31347580Y12993713D02*
X31395200Y12946094D01*
X31395200Y12946094D02*
X31442819Y12850856D01*
X31442819Y12850856D02*
X31442819Y12660380D01*
X31442819Y12660380D02*
X31395200Y12565142D01*
X31395200Y12565142D02*
X31347580Y12517523D01*
X31347580Y12517523D02*
X31252342Y12469904D01*
X31252342Y12469904D02*
X31014247Y12469904D01*
X31014247Y12469904D02*
X30919009Y12517523D01*
X30919009Y12517523D02*
X30871390Y12565142D01*
X30871390Y12565142D02*
X30823771Y12660380D01*
X30823771Y12660380D02*
X30823771Y12850856D01*
X30823771Y12850856D02*
X30871390Y12946094D01*
X30871390Y12946094D02*
X30919009Y12993713D01*
X30919009Y12993713D02*
X31014247Y13041332D01*
X31442819Y11993713D02*
X31442819Y11803237D01*
X31442819Y11803237D02*
X31395200Y11707999D01*
X31395200Y11707999D02*
X31347580Y11660380D01*
X31347580Y11660380D02*
X31204723Y11565142D01*
X31204723Y11565142D02*
X31014247Y11517523D01*
X31014247Y11517523D02*
X30633295Y11517523D01*
X30633295Y11517523D02*
X30538057Y11565142D01*
X30538057Y11565142D02*
X30490438Y11612761D01*
X30490438Y11612761D02*
X30442819Y11707999D01*
X30442819Y11707999D02*
X30442819Y11898475D01*
X30442819Y11898475D02*
X30490438Y11993713D01*
X30490438Y11993713D02*
X30538057Y12041332D01*
X30538057Y12041332D02*
X30633295Y12088951D01*
X30633295Y12088951D02*
X30871390Y12088951D01*
X30871390Y12088951D02*
X30966628Y12041332D01*
X30966628Y12041332D02*
X31014247Y11993713D01*
X31014247Y11993713D02*
X31061866Y11898475D01*
X31061866Y11898475D02*
X31061866Y11707999D01*
X31061866Y11707999D02*
X31014247Y11612761D01*
X31014247Y11612761D02*
X30966628Y11565142D01*
X30966628Y11565142D02*
X30871390Y11517523D01*
X30538057Y11136570D02*
X30490438Y11088951D01*
X30490438Y11088951D02*
X30442819Y10993713D01*
X30442819Y10993713D02*
X30442819Y10755618D01*
X30442819Y10755618D02*
X30490438Y10660380D01*
X30490438Y10660380D02*
X30538057Y10612761D01*
X30538057Y10612761D02*
X30633295Y10565142D01*
X30633295Y10565142D02*
X30728533Y10565142D01*
X30728533Y10565142D02*
X30871390Y10612761D01*
X30871390Y10612761D02*
X31442819Y11184189D01*
X31442819Y11184189D02*
X31442819Y10565142D01*
D10*
X27170730Y15882196D02*
X27194558Y15906024D01*
X27194558Y15906024D02*
X27218385Y15977506D01*
X27218385Y15977506D02*
X27218385Y16025162D01*
X27218385Y16025162D02*
X27194558Y16096645D01*
X27194558Y16096645D02*
X27146902Y16144300D01*
X27146902Y16144300D02*
X27099247Y16168127D01*
X27099247Y16168127D02*
X27003937Y16191955D01*
X27003937Y16191955D02*
X26932454Y16191955D01*
X26932454Y16191955D02*
X26837143Y16168127D01*
X26837143Y16168127D02*
X26789488Y16144300D01*
X26789488Y16144300D02*
X26741833Y16096645D01*
X26741833Y16096645D02*
X26718005Y16025162D01*
X26718005Y16025162D02*
X26718005Y15977506D01*
X26718005Y15977506D02*
X26741833Y15906024D01*
X26741833Y15906024D02*
X26765660Y15882196D01*
X27218385Y15643920D02*
X27218385Y15548609D01*
X27218385Y15548609D02*
X27194558Y15500954D01*
X27194558Y15500954D02*
X27170730Y15477126D01*
X27170730Y15477126D02*
X27099247Y15429471D01*
X27099247Y15429471D02*
X27003937Y15405644D01*
X27003937Y15405644D02*
X26813316Y15405644D01*
X26813316Y15405644D02*
X26765660Y15429471D01*
X26765660Y15429471D02*
X26741833Y15453299D01*
X26741833Y15453299D02*
X26718005Y15500954D01*
X26718005Y15500954D02*
X26718005Y15596265D01*
X26718005Y15596265D02*
X26741833Y15643920D01*
X26741833Y15643920D02*
X26765660Y15667747D01*
X26765660Y15667747D02*
X26813316Y15691575D01*
X26813316Y15691575D02*
X26932454Y15691575D01*
X26932454Y15691575D02*
X26980109Y15667747D01*
X26980109Y15667747D02*
X27003937Y15643920D01*
X27003937Y15643920D02*
X27027764Y15596265D01*
X27027764Y15596265D02*
X27027764Y15500954D01*
X27027764Y15500954D02*
X27003937Y15453299D01*
X27003937Y15453299D02*
X26980109Y15429471D01*
X26980109Y15429471D02*
X26932454Y15405644D01*
X27916885Y16231748D02*
X27916885Y16517679D01*
X27916885Y16374713D02*
X27416505Y16374713D01*
X27416505Y16374713D02*
X27487988Y16422369D01*
X27487988Y16422369D02*
X27535643Y16470024D01*
X27535643Y16470024D02*
X27559471Y16517679D01*
X27416505Y15921989D02*
X27416505Y15874334D01*
X27416505Y15874334D02*
X27440333Y15826678D01*
X27440333Y15826678D02*
X27464160Y15802851D01*
X27464160Y15802851D02*
X27511816Y15779023D01*
X27511816Y15779023D02*
X27607126Y15755196D01*
X27607126Y15755196D02*
X27726264Y15755196D01*
X27726264Y15755196D02*
X27821575Y15779023D01*
X27821575Y15779023D02*
X27869230Y15802851D01*
X27869230Y15802851D02*
X27893058Y15826678D01*
X27893058Y15826678D02*
X27916885Y15874334D01*
X27916885Y15874334D02*
X27916885Y15921989D01*
X27916885Y15921989D02*
X27893058Y15969644D01*
X27893058Y15969644D02*
X27869230Y15993472D01*
X27869230Y15993472D02*
X27821575Y16017299D01*
X27821575Y16017299D02*
X27726264Y16041127D01*
X27726264Y16041127D02*
X27607126Y16041127D01*
X27607126Y16041127D02*
X27511816Y16017299D01*
X27511816Y16017299D02*
X27464160Y15993472D01*
X27464160Y15993472D02*
X27440333Y15969644D01*
X27440333Y15969644D02*
X27416505Y15921989D01*
X27416505Y15445437D02*
X27416505Y15397782D01*
X27416505Y15397782D02*
X27440333Y15350126D01*
X27440333Y15350126D02*
X27464160Y15326299D01*
X27464160Y15326299D02*
X27511816Y15302471D01*
X27511816Y15302471D02*
X27607126Y15278644D01*
X27607126Y15278644D02*
X27726264Y15278644D01*
X27726264Y15278644D02*
X27821575Y15302471D01*
X27821575Y15302471D02*
X27869230Y15326299D01*
X27869230Y15326299D02*
X27893058Y15350126D01*
X27893058Y15350126D02*
X27916885Y15397782D01*
X27916885Y15397782D02*
X27916885Y15445437D01*
X27916885Y15445437D02*
X27893058Y15493092D01*
X27893058Y15493092D02*
X27869230Y15516920D01*
X27869230Y15516920D02*
X27821575Y15540747D01*
X27821575Y15540747D02*
X27726264Y15564575D01*
X27726264Y15564575D02*
X27607126Y15564575D01*
X27607126Y15564575D02*
X27511816Y15540747D01*
X27511816Y15540747D02*
X27464160Y15516920D01*
X27464160Y15516920D02*
X27440333Y15493092D01*
X27440333Y15493092D02*
X27416505Y15445437D01*
X27583298Y15064195D02*
X27916885Y15064195D01*
X27630954Y15064195D02*
X27607126Y15040368D01*
X27607126Y15040368D02*
X27583298Y14992713D01*
X27583298Y14992713D02*
X27583298Y14921230D01*
X27583298Y14921230D02*
X27607126Y14873574D01*
X27607126Y14873574D02*
X27654781Y14849747D01*
X27654781Y14849747D02*
X27916885Y14849747D01*
X19545650Y25991396D02*
X19569478Y26015224D01*
X19569478Y26015224D02*
X19593305Y26086706D01*
X19593305Y26086706D02*
X19593305Y26134362D01*
X19593305Y26134362D02*
X19569478Y26205845D01*
X19569478Y26205845D02*
X19521822Y26253500D01*
X19521822Y26253500D02*
X19474167Y26277327D01*
X19474167Y26277327D02*
X19378857Y26301155D01*
X19378857Y26301155D02*
X19307374Y26301155D01*
X19307374Y26301155D02*
X19212063Y26277327D01*
X19212063Y26277327D02*
X19164408Y26253500D01*
X19164408Y26253500D02*
X19116753Y26205845D01*
X19116753Y26205845D02*
X19092925Y26134362D01*
X19092925Y26134362D02*
X19092925Y26086706D01*
X19092925Y26086706D02*
X19116753Y26015224D01*
X19116753Y26015224D02*
X19140580Y25991396D01*
X19092925Y25824603D02*
X19092925Y25514844D01*
X19092925Y25514844D02*
X19283546Y25681637D01*
X19283546Y25681637D02*
X19283546Y25610154D01*
X19283546Y25610154D02*
X19307374Y25562499D01*
X19307374Y25562499D02*
X19331201Y25538671D01*
X19331201Y25538671D02*
X19378857Y25514844D01*
X19378857Y25514844D02*
X19497995Y25514844D01*
X19497995Y25514844D02*
X19545650Y25538671D01*
X19545650Y25538671D02*
X19569478Y25562499D01*
X19569478Y25562499D02*
X19593305Y25610154D01*
X19593305Y25610154D02*
X19593305Y25753120D01*
X19593305Y25753120D02*
X19569478Y25800775D01*
X19569478Y25800775D02*
X19545650Y25824603D01*
X18894805Y26594948D02*
X18894805Y26880879D01*
X18894805Y26737913D02*
X18394425Y26737913D01*
X18394425Y26737913D02*
X18465908Y26785569D01*
X18465908Y26785569D02*
X18513563Y26833224D01*
X18513563Y26833224D02*
X18537391Y26880879D01*
X18394425Y26285189D02*
X18394425Y26237534D01*
X18394425Y26237534D02*
X18418253Y26189878D01*
X18418253Y26189878D02*
X18442080Y26166051D01*
X18442080Y26166051D02*
X18489736Y26142223D01*
X18489736Y26142223D02*
X18585046Y26118396D01*
X18585046Y26118396D02*
X18704184Y26118396D01*
X18704184Y26118396D02*
X18799495Y26142223D01*
X18799495Y26142223D02*
X18847150Y26166051D01*
X18847150Y26166051D02*
X18870978Y26189878D01*
X18870978Y26189878D02*
X18894805Y26237534D01*
X18894805Y26237534D02*
X18894805Y26285189D01*
X18894805Y26285189D02*
X18870978Y26332844D01*
X18870978Y26332844D02*
X18847150Y26356672D01*
X18847150Y26356672D02*
X18799495Y26380499D01*
X18799495Y26380499D02*
X18704184Y26404327D01*
X18704184Y26404327D02*
X18585046Y26404327D01*
X18585046Y26404327D02*
X18489736Y26380499D01*
X18489736Y26380499D02*
X18442080Y26356672D01*
X18442080Y26356672D02*
X18418253Y26332844D01*
X18418253Y26332844D02*
X18394425Y26285189D01*
X18394425Y25808637D02*
X18394425Y25760982D01*
X18394425Y25760982D02*
X18418253Y25713326D01*
X18418253Y25713326D02*
X18442080Y25689499D01*
X18442080Y25689499D02*
X18489736Y25665671D01*
X18489736Y25665671D02*
X18585046Y25641844D01*
X18585046Y25641844D02*
X18704184Y25641844D01*
X18704184Y25641844D02*
X18799495Y25665671D01*
X18799495Y25665671D02*
X18847150Y25689499D01*
X18847150Y25689499D02*
X18870978Y25713326D01*
X18870978Y25713326D02*
X18894805Y25760982D01*
X18894805Y25760982D02*
X18894805Y25808637D01*
X18894805Y25808637D02*
X18870978Y25856292D01*
X18870978Y25856292D02*
X18847150Y25880120D01*
X18847150Y25880120D02*
X18799495Y25903947D01*
X18799495Y25903947D02*
X18704184Y25927775D01*
X18704184Y25927775D02*
X18585046Y25927775D01*
X18585046Y25927775D02*
X18489736Y25903947D01*
X18489736Y25903947D02*
X18442080Y25880120D01*
X18442080Y25880120D02*
X18418253Y25856292D01*
X18418253Y25856292D02*
X18394425Y25808637D01*
X18561218Y25427395D02*
X18894805Y25427395D01*
X18608874Y25427395D02*
X18585046Y25403568D01*
X18585046Y25403568D02*
X18561218Y25355913D01*
X18561218Y25355913D02*
X18561218Y25284430D01*
X18561218Y25284430D02*
X18585046Y25236774D01*
X18585046Y25236774D02*
X18632701Y25212947D01*
X18632701Y25212947D02*
X18894805Y25212947D01*
X26610672Y12458349D02*
X26634500Y12434522D01*
X26634500Y12434522D02*
X26705982Y12410694D01*
X26705982Y12410694D02*
X26753638Y12410694D01*
X26753638Y12410694D02*
X26825121Y12434522D01*
X26825121Y12434522D02*
X26872776Y12482177D01*
X26872776Y12482177D02*
X26896603Y12529832D01*
X26896603Y12529832D02*
X26920431Y12625142D01*
X26920431Y12625142D02*
X26920431Y12696625D01*
X26920431Y12696625D02*
X26896603Y12791936D01*
X26896603Y12791936D02*
X26872776Y12839591D01*
X26872776Y12839591D02*
X26825121Y12887246D01*
X26825121Y12887246D02*
X26753638Y12911074D01*
X26753638Y12911074D02*
X26705982Y12911074D01*
X26705982Y12911074D02*
X26634500Y12887246D01*
X26634500Y12887246D02*
X26610672Y12863419D01*
X26134120Y12410694D02*
X26420051Y12410694D01*
X26277085Y12410694D02*
X26277085Y12911074D01*
X26277085Y12911074D02*
X26324741Y12839591D01*
X26324741Y12839591D02*
X26372396Y12791936D01*
X26372396Y12791936D02*
X26420051Y12768108D01*
X25967327Y12911074D02*
X25657568Y12911074D01*
X25657568Y12911074D02*
X25824361Y12720453D01*
X25824361Y12720453D02*
X25752878Y12720453D01*
X25752878Y12720453D02*
X25705223Y12696625D01*
X25705223Y12696625D02*
X25681395Y12672798D01*
X25681395Y12672798D02*
X25657568Y12625142D01*
X25657568Y12625142D02*
X25657568Y12506004D01*
X25657568Y12506004D02*
X25681395Y12458349D01*
X25681395Y12458349D02*
X25705223Y12434522D01*
X25705223Y12434522D02*
X25752878Y12410694D01*
X25752878Y12410694D02*
X25895844Y12410694D01*
X25895844Y12410694D02*
X25943499Y12434522D01*
X25943499Y12434522D02*
X25967327Y12458349D01*
X27246156Y12212574D02*
X26936397Y12212574D01*
X26936397Y12212574D02*
X27103190Y12021953D01*
X27103190Y12021953D02*
X27031707Y12021953D01*
X27031707Y12021953D02*
X26984052Y11998125D01*
X26984052Y11998125D02*
X26960224Y11974298D01*
X26960224Y11974298D02*
X26936397Y11926642D01*
X26936397Y11926642D02*
X26936397Y11807504D01*
X26936397Y11807504D02*
X26960224Y11759849D01*
X26960224Y11759849D02*
X26984052Y11736022D01*
X26984052Y11736022D02*
X27031707Y11712194D01*
X27031707Y11712194D02*
X27174673Y11712194D01*
X27174673Y11712194D02*
X27222328Y11736022D01*
X27222328Y11736022D02*
X27246156Y11759849D01*
X26769604Y12212574D02*
X26459845Y12212574D01*
X26459845Y12212574D02*
X26626638Y12021953D01*
X26626638Y12021953D02*
X26555155Y12021953D01*
X26555155Y12021953D02*
X26507500Y11998125D01*
X26507500Y11998125D02*
X26483672Y11974298D01*
X26483672Y11974298D02*
X26459845Y11926642D01*
X26459845Y11926642D02*
X26459845Y11807504D01*
X26459845Y11807504D02*
X26483672Y11759849D01*
X26483672Y11759849D02*
X26507500Y11736022D01*
X26507500Y11736022D02*
X26555155Y11712194D01*
X26555155Y11712194D02*
X26698121Y11712194D01*
X26698121Y11712194D02*
X26745776Y11736022D01*
X26745776Y11736022D02*
X26769604Y11759849D01*
X26150086Y12212574D02*
X26102431Y12212574D01*
X26102431Y12212574D02*
X26054775Y12188746D01*
X26054775Y12188746D02*
X26030948Y12164919D01*
X26030948Y12164919D02*
X26007120Y12117263D01*
X26007120Y12117263D02*
X25983293Y12021953D01*
X25983293Y12021953D02*
X25983293Y11902815D01*
X25983293Y11902815D02*
X26007120Y11807504D01*
X26007120Y11807504D02*
X26030948Y11759849D01*
X26030948Y11759849D02*
X26054775Y11736022D01*
X26054775Y11736022D02*
X26102431Y11712194D01*
X26102431Y11712194D02*
X26150086Y11712194D01*
X26150086Y11712194D02*
X26197741Y11736022D01*
X26197741Y11736022D02*
X26221569Y11759849D01*
X26221569Y11759849D02*
X26245396Y11807504D01*
X26245396Y11807504D02*
X26269224Y11902815D01*
X26269224Y11902815D02*
X26269224Y12021953D01*
X26269224Y12021953D02*
X26245396Y12117263D01*
X26245396Y12117263D02*
X26221569Y12164919D01*
X26221569Y12164919D02*
X26197741Y12188746D01*
X26197741Y12188746D02*
X26150086Y12212574D01*
X25768844Y12045781D02*
X25768844Y11712194D01*
X25768844Y11998125D02*
X25745017Y12021953D01*
X25745017Y12021953D02*
X25697362Y12045781D01*
X25697362Y12045781D02*
X25625879Y12045781D01*
X25625879Y12045781D02*
X25578223Y12021953D01*
X25578223Y12021953D02*
X25554396Y11974298D01*
X25554396Y11974298D02*
X25554396Y11712194D01*
X25149326Y11974298D02*
X25316119Y11974298D01*
X25316119Y11712194D02*
X25316119Y12212574D01*
X25316119Y12212574D02*
X25077843Y12212574D01*
X20911396Y13553694D02*
X21078189Y13791970D01*
X21197327Y13553694D02*
X21197327Y14054074D01*
X21197327Y14054074D02*
X21006706Y14054074D01*
X21006706Y14054074D02*
X20959051Y14030246D01*
X20959051Y14030246D02*
X20935224Y14006419D01*
X20935224Y14006419D02*
X20911396Y13958763D01*
X20911396Y13958763D02*
X20911396Y13887281D01*
X20911396Y13887281D02*
X20935224Y13839625D01*
X20935224Y13839625D02*
X20959051Y13815798D01*
X20959051Y13815798D02*
X21006706Y13791970D01*
X21006706Y13791970D02*
X21197327Y13791970D01*
X20744603Y14054074D02*
X20411016Y14054074D01*
X20411016Y14054074D02*
X20625465Y13553694D01*
X21129896Y13307919D02*
X21106068Y13331746D01*
X21106068Y13331746D02*
X21058413Y13355574D01*
X21058413Y13355574D02*
X20939275Y13355574D01*
X20939275Y13355574D02*
X20891620Y13331746D01*
X20891620Y13331746D02*
X20867792Y13307919D01*
X20867792Y13307919D02*
X20843965Y13260263D01*
X20843965Y13260263D02*
X20843965Y13212608D01*
X20843965Y13212608D02*
X20867792Y13141125D01*
X20867792Y13141125D02*
X21153724Y12855194D01*
X21153724Y12855194D02*
X20843965Y12855194D01*
X20629516Y12855194D02*
X20629516Y13355574D01*
X20629516Y13355574D02*
X20462723Y12998160D01*
X20462723Y12998160D02*
X20295930Y13355574D01*
X20295930Y13355574D02*
X20295930Y12855194D01*
X37167396Y8140349D02*
X37191224Y8116522D01*
X37191224Y8116522D02*
X37262706Y8092694D01*
X37262706Y8092694D02*
X37310362Y8092694D01*
X37310362Y8092694D02*
X37381845Y8116522D01*
X37381845Y8116522D02*
X37429500Y8164177D01*
X37429500Y8164177D02*
X37453327Y8211832D01*
X37453327Y8211832D02*
X37477155Y8307142D01*
X37477155Y8307142D02*
X37477155Y8378625D01*
X37477155Y8378625D02*
X37453327Y8473936D01*
X37453327Y8473936D02*
X37429500Y8521591D01*
X37429500Y8521591D02*
X37381845Y8569246D01*
X37381845Y8569246D02*
X37310362Y8593074D01*
X37310362Y8593074D02*
X37262706Y8593074D01*
X37262706Y8593074D02*
X37191224Y8569246D01*
X37191224Y8569246D02*
X37167396Y8545419D01*
X36738499Y8426281D02*
X36738499Y8092694D01*
X36857637Y8616902D02*
X36976775Y8259487D01*
X36976775Y8259487D02*
X36667016Y8259487D01*
X37770948Y8791194D02*
X38056879Y8791194D01*
X37913913Y8791194D02*
X37913913Y9291574D01*
X37913913Y9291574D02*
X37961569Y9220091D01*
X37961569Y9220091D02*
X38009224Y9172436D01*
X38009224Y9172436D02*
X38056879Y9148608D01*
X37461189Y9291574D02*
X37413534Y9291574D01*
X37413534Y9291574D02*
X37365878Y9267746D01*
X37365878Y9267746D02*
X37342051Y9243919D01*
X37342051Y9243919D02*
X37318223Y9196263D01*
X37318223Y9196263D02*
X37294396Y9100953D01*
X37294396Y9100953D02*
X37294396Y8981815D01*
X37294396Y8981815D02*
X37318223Y8886504D01*
X37318223Y8886504D02*
X37342051Y8838849D01*
X37342051Y8838849D02*
X37365878Y8815022D01*
X37365878Y8815022D02*
X37413534Y8791194D01*
X37413534Y8791194D02*
X37461189Y8791194D01*
X37461189Y8791194D02*
X37508844Y8815022D01*
X37508844Y8815022D02*
X37532672Y8838849D01*
X37532672Y8838849D02*
X37556499Y8886504D01*
X37556499Y8886504D02*
X37580327Y8981815D01*
X37580327Y8981815D02*
X37580327Y9100953D01*
X37580327Y9100953D02*
X37556499Y9196263D01*
X37556499Y9196263D02*
X37532672Y9243919D01*
X37532672Y9243919D02*
X37508844Y9267746D01*
X37508844Y9267746D02*
X37461189Y9291574D01*
X36984637Y9291574D02*
X36936982Y9291574D01*
X36936982Y9291574D02*
X36889326Y9267746D01*
X36889326Y9267746D02*
X36865499Y9243919D01*
X36865499Y9243919D02*
X36841671Y9196263D01*
X36841671Y9196263D02*
X36817844Y9100953D01*
X36817844Y9100953D02*
X36817844Y8981815D01*
X36817844Y8981815D02*
X36841671Y8886504D01*
X36841671Y8886504D02*
X36865499Y8838849D01*
X36865499Y8838849D02*
X36889326Y8815022D01*
X36889326Y8815022D02*
X36936982Y8791194D01*
X36936982Y8791194D02*
X36984637Y8791194D01*
X36984637Y8791194D02*
X37032292Y8815022D01*
X37032292Y8815022D02*
X37056120Y8838849D01*
X37056120Y8838849D02*
X37079947Y8886504D01*
X37079947Y8886504D02*
X37103775Y8981815D01*
X37103775Y8981815D02*
X37103775Y9100953D01*
X37103775Y9100953D02*
X37079947Y9196263D01*
X37079947Y9196263D02*
X37056120Y9243919D01*
X37056120Y9243919D02*
X37032292Y9267746D01*
X37032292Y9267746D02*
X36984637Y9291574D01*
X36603395Y9124781D02*
X36603395Y8791194D01*
X36603395Y9077125D02*
X36579568Y9100953D01*
X36579568Y9100953D02*
X36531913Y9124781D01*
X36531913Y9124781D02*
X36460430Y9124781D01*
X36460430Y9124781D02*
X36412774Y9100953D01*
X36412774Y9100953D02*
X36388947Y9053298D01*
X36388947Y9053298D02*
X36388947Y8791194D01*
X38008305Y12259672D02*
X37770029Y12426465D01*
X38008305Y12545603D02*
X37507925Y12545603D01*
X37507925Y12545603D02*
X37507925Y12354982D01*
X37507925Y12354982D02*
X37531753Y12307327D01*
X37531753Y12307327D02*
X37555580Y12283500D01*
X37555580Y12283500D02*
X37603236Y12259672D01*
X37603236Y12259672D02*
X37674718Y12259672D01*
X37674718Y12259672D02*
X37722374Y12283500D01*
X37722374Y12283500D02*
X37746201Y12307327D01*
X37746201Y12307327D02*
X37770029Y12354982D01*
X37770029Y12354982D02*
X37770029Y12545603D01*
X38008305Y11783120D02*
X38008305Y12069051D01*
X38008305Y11926085D02*
X37507925Y11926085D01*
X37507925Y11926085D02*
X37579408Y11973741D01*
X37579408Y11973741D02*
X37627063Y12021396D01*
X37627063Y12021396D02*
X37650891Y12069051D01*
X37507925Y11616327D02*
X37507925Y11306568D01*
X37507925Y11306568D02*
X37698546Y11473361D01*
X37698546Y11473361D02*
X37698546Y11401878D01*
X37698546Y11401878D02*
X37722374Y11354223D01*
X37722374Y11354223D02*
X37746201Y11330395D01*
X37746201Y11330395D02*
X37793857Y11306568D01*
X37793857Y11306568D02*
X37912995Y11306568D01*
X37912995Y11306568D02*
X37960650Y11330395D01*
X37960650Y11330395D02*
X37984478Y11354223D01*
X37984478Y11354223D02*
X38008305Y11401878D01*
X38008305Y11401878D02*
X38008305Y11544844D01*
X38008305Y11544844D02*
X37984478Y11592499D01*
X37984478Y11592499D02*
X37960650Y11616327D01*
X38254080Y12394776D02*
X38230253Y12370948D01*
X38230253Y12370948D02*
X38206425Y12323293D01*
X38206425Y12323293D02*
X38206425Y12204155D01*
X38206425Y12204155D02*
X38230253Y12156500D01*
X38230253Y12156500D02*
X38254080Y12132672D01*
X38254080Y12132672D02*
X38301736Y12108845D01*
X38301736Y12108845D02*
X38349391Y12108845D01*
X38349391Y12108845D02*
X38420874Y12132672D01*
X38420874Y12132672D02*
X38706805Y12418604D01*
X38706805Y12418604D02*
X38706805Y12108845D01*
X38706805Y11894396D02*
X38206425Y11894396D01*
X38516184Y11846741D02*
X38706805Y11703775D01*
X38373218Y11703775D02*
X38563839Y11894396D01*
X38373218Y11274878D02*
X38706805Y11274878D01*
X38182598Y11394016D02*
X38540012Y11513154D01*
X38540012Y11513154D02*
X38540012Y11203395D01*
X42405650Y18101672D02*
X42429478Y18125500D01*
X42429478Y18125500D02*
X42453305Y18196982D01*
X42453305Y18196982D02*
X42453305Y18244638D01*
X42453305Y18244638D02*
X42429478Y18316121D01*
X42429478Y18316121D02*
X42381822Y18363776D01*
X42381822Y18363776D02*
X42334167Y18387603D01*
X42334167Y18387603D02*
X42238857Y18411431D01*
X42238857Y18411431D02*
X42167374Y18411431D01*
X42167374Y18411431D02*
X42072063Y18387603D01*
X42072063Y18387603D02*
X42024408Y18363776D01*
X42024408Y18363776D02*
X41976753Y18316121D01*
X41976753Y18316121D02*
X41952925Y18244638D01*
X41952925Y18244638D02*
X41952925Y18196982D01*
X41952925Y18196982D02*
X41976753Y18125500D01*
X41976753Y18125500D02*
X42000580Y18101672D01*
X42453305Y17625120D02*
X42453305Y17911051D01*
X42453305Y17768085D02*
X41952925Y17768085D01*
X41952925Y17768085D02*
X42024408Y17815741D01*
X42024408Y17815741D02*
X42072063Y17863396D01*
X42072063Y17863396D02*
X42095891Y17911051D01*
X41952925Y17196223D02*
X41952925Y17291533D01*
X41952925Y17291533D02*
X41976753Y17339189D01*
X41976753Y17339189D02*
X42000580Y17363016D01*
X42000580Y17363016D02*
X42072063Y17410671D01*
X42072063Y17410671D02*
X42167374Y17434499D01*
X42167374Y17434499D02*
X42357995Y17434499D01*
X42357995Y17434499D02*
X42405650Y17410671D01*
X42405650Y17410671D02*
X42429478Y17386844D01*
X42429478Y17386844D02*
X42453305Y17339189D01*
X42453305Y17339189D02*
X42453305Y17243878D01*
X42453305Y17243878D02*
X42429478Y17196223D01*
X42429478Y17196223D02*
X42405650Y17172395D01*
X42405650Y17172395D02*
X42357995Y17148568D01*
X42357995Y17148568D02*
X42238857Y17148568D01*
X42238857Y17148568D02*
X42191201Y17172395D01*
X42191201Y17172395D02*
X42167374Y17196223D01*
X42167374Y17196223D02*
X42143546Y17243878D01*
X42143546Y17243878D02*
X42143546Y17339189D01*
X42143546Y17339189D02*
X42167374Y17386844D01*
X42167374Y17386844D02*
X42191201Y17410671D01*
X42191201Y17410671D02*
X42238857Y17434499D01*
X41754805Y18681397D02*
X41754805Y18967328D01*
X41754805Y18824362D02*
X41254425Y18824362D01*
X41254425Y18824362D02*
X41325908Y18872018D01*
X41325908Y18872018D02*
X41373563Y18919673D01*
X41373563Y18919673D02*
X41397391Y18967328D01*
X41254425Y18228672D02*
X41254425Y18466948D01*
X41254425Y18466948D02*
X41492701Y18490776D01*
X41492701Y18490776D02*
X41468874Y18466948D01*
X41468874Y18466948D02*
X41445046Y18419293D01*
X41445046Y18419293D02*
X41445046Y18300155D01*
X41445046Y18300155D02*
X41468874Y18252500D01*
X41468874Y18252500D02*
X41492701Y18228672D01*
X41492701Y18228672D02*
X41540357Y18204845D01*
X41540357Y18204845D02*
X41659495Y18204845D01*
X41659495Y18204845D02*
X41707150Y18228672D01*
X41707150Y18228672D02*
X41730978Y18252500D01*
X41730978Y18252500D02*
X41754805Y18300155D01*
X41754805Y18300155D02*
X41754805Y18419293D01*
X41754805Y18419293D02*
X41730978Y18466948D01*
X41730978Y18466948D02*
X41707150Y18490776D01*
X41254425Y17895086D02*
X41254425Y17847431D01*
X41254425Y17847431D02*
X41278253Y17799775D01*
X41278253Y17799775D02*
X41302080Y17775948D01*
X41302080Y17775948D02*
X41349736Y17752120D01*
X41349736Y17752120D02*
X41445046Y17728293D01*
X41445046Y17728293D02*
X41564184Y17728293D01*
X41564184Y17728293D02*
X41659495Y17752120D01*
X41659495Y17752120D02*
X41707150Y17775948D01*
X41707150Y17775948D02*
X41730978Y17799775D01*
X41730978Y17799775D02*
X41754805Y17847431D01*
X41754805Y17847431D02*
X41754805Y17895086D01*
X41754805Y17895086D02*
X41730978Y17942741D01*
X41730978Y17942741D02*
X41707150Y17966569D01*
X41707150Y17966569D02*
X41659495Y17990396D01*
X41659495Y17990396D02*
X41564184Y18014224D01*
X41564184Y18014224D02*
X41445046Y18014224D01*
X41445046Y18014224D02*
X41349736Y17990396D01*
X41349736Y17990396D02*
X41302080Y17966569D01*
X41302080Y17966569D02*
X41278253Y17942741D01*
X41278253Y17942741D02*
X41254425Y17895086D01*
X41421218Y17513844D02*
X41921598Y17513844D01*
X41445046Y17513844D02*
X41421218Y17466189D01*
X41421218Y17466189D02*
X41421218Y17370879D01*
X41421218Y17370879D02*
X41445046Y17323223D01*
X41445046Y17323223D02*
X41468874Y17299396D01*
X41468874Y17299396D02*
X41516529Y17275568D01*
X41516529Y17275568D02*
X41659495Y17275568D01*
X41659495Y17275568D02*
X41707150Y17299396D01*
X41707150Y17299396D02*
X41730978Y17323223D01*
X41730978Y17323223D02*
X41754805Y17370879D01*
X41754805Y17370879D02*
X41754805Y17466189D01*
X41754805Y17466189D02*
X41730978Y17513844D01*
X41492701Y16894326D02*
X41492701Y17061119D01*
X41754805Y17061119D02*
X41254425Y17061119D01*
X41254425Y17061119D02*
X41254425Y16822843D01*
X40961672Y21681694D02*
X41128465Y21919970D01*
X41247603Y21681694D02*
X41247603Y22182074D01*
X41247603Y22182074D02*
X41056982Y22182074D01*
X41056982Y22182074D02*
X41009327Y22158246D01*
X41009327Y22158246D02*
X40985500Y22134419D01*
X40985500Y22134419D02*
X40961672Y22086763D01*
X40961672Y22086763D02*
X40961672Y22015281D01*
X40961672Y22015281D02*
X40985500Y21967625D01*
X40985500Y21967625D02*
X41009327Y21943798D01*
X41009327Y21943798D02*
X41056982Y21919970D01*
X41056982Y21919970D02*
X41247603Y21919970D01*
X40485120Y21681694D02*
X40771051Y21681694D01*
X40628085Y21681694D02*
X40628085Y22182074D01*
X40628085Y22182074D02*
X40675741Y22110591D01*
X40675741Y22110591D02*
X40723396Y22062936D01*
X40723396Y22062936D02*
X40771051Y22039108D01*
X40008568Y21681694D02*
X40294499Y21681694D01*
X40151533Y21681694D02*
X40151533Y22182074D01*
X40151533Y22182074D02*
X40199189Y22110591D01*
X40199189Y22110591D02*
X40246844Y22062936D01*
X40246844Y22062936D02*
X40294499Y22039108D01*
X40858500Y21483574D02*
X40953810Y21483574D01*
X40953810Y21483574D02*
X41001466Y21459746D01*
X41001466Y21459746D02*
X41025293Y21435919D01*
X41025293Y21435919D02*
X41072948Y21364436D01*
X41072948Y21364436D02*
X41096776Y21269125D01*
X41096776Y21269125D02*
X41096776Y21078504D01*
X41096776Y21078504D02*
X41072948Y21030849D01*
X41072948Y21030849D02*
X41049121Y21007022D01*
X41049121Y21007022D02*
X41001466Y20983194D01*
X41001466Y20983194D02*
X40906155Y20983194D01*
X40906155Y20983194D02*
X40858500Y21007022D01*
X40858500Y21007022D02*
X40834672Y21030849D01*
X40834672Y21030849D02*
X40810845Y21078504D01*
X40810845Y21078504D02*
X40810845Y21197642D01*
X40810845Y21197642D02*
X40834672Y21245298D01*
X40834672Y21245298D02*
X40858500Y21269125D01*
X40858500Y21269125D02*
X40906155Y21292953D01*
X40906155Y21292953D02*
X41001466Y21292953D01*
X41001466Y21292953D02*
X41049121Y21269125D01*
X41049121Y21269125D02*
X41072948Y21245298D01*
X41072948Y21245298D02*
X41096776Y21197642D01*
X40596396Y20983194D02*
X40596396Y21483574D01*
X40548741Y21173815D02*
X40405775Y20983194D01*
X40405775Y21316781D02*
X40596396Y21126160D01*
X40215154Y21435919D02*
X40191326Y21459746D01*
X40191326Y21459746D02*
X40143671Y21483574D01*
X40143671Y21483574D02*
X40024533Y21483574D01*
X40024533Y21483574D02*
X39976878Y21459746D01*
X39976878Y21459746D02*
X39953050Y21435919D01*
X39953050Y21435919D02*
X39929223Y21388263D01*
X39929223Y21388263D02*
X39929223Y21340608D01*
X39929223Y21340608D02*
X39953050Y21269125D01*
X39953050Y21269125D02*
X40238982Y20983194D01*
X40238982Y20983194D02*
X39929223Y20983194D01*
X40167305Y18863672D02*
X39929029Y19030465D01*
X40167305Y19149603D02*
X39666925Y19149603D01*
X39666925Y19149603D02*
X39666925Y18958982D01*
X39666925Y18958982D02*
X39690753Y18911327D01*
X39690753Y18911327D02*
X39714580Y18887500D01*
X39714580Y18887500D02*
X39762236Y18863672D01*
X39762236Y18863672D02*
X39833718Y18863672D01*
X39833718Y18863672D02*
X39881374Y18887500D01*
X39881374Y18887500D02*
X39905201Y18911327D01*
X39905201Y18911327D02*
X39929029Y18958982D01*
X39929029Y18958982D02*
X39929029Y19149603D01*
X40167305Y18387120D02*
X40167305Y18673051D01*
X40167305Y18530085D02*
X39666925Y18530085D01*
X39666925Y18530085D02*
X39738408Y18577741D01*
X39738408Y18577741D02*
X39786063Y18625396D01*
X39786063Y18625396D02*
X39809891Y18673051D01*
X39714580Y18196499D02*
X39690753Y18172671D01*
X39690753Y18172671D02*
X39666925Y18125016D01*
X39666925Y18125016D02*
X39666925Y18005878D01*
X39666925Y18005878D02*
X39690753Y17958223D01*
X39690753Y17958223D02*
X39714580Y17934395D01*
X39714580Y17934395D02*
X39762236Y17910568D01*
X39762236Y17910568D02*
X39809891Y17910568D01*
X39809891Y17910568D02*
X39881374Y17934395D01*
X39881374Y17934395D02*
X40167305Y18220327D01*
X40167305Y18220327D02*
X40167305Y17910568D01*
X39016080Y19252776D02*
X38992253Y19228948D01*
X38992253Y19228948D02*
X38968425Y19181293D01*
X38968425Y19181293D02*
X38968425Y19062155D01*
X38968425Y19062155D02*
X38992253Y19014500D01*
X38992253Y19014500D02*
X39016080Y18990672D01*
X39016080Y18990672D02*
X39063736Y18966845D01*
X39063736Y18966845D02*
X39111391Y18966845D01*
X39111391Y18966845D02*
X39182874Y18990672D01*
X39182874Y18990672D02*
X39468805Y19276604D01*
X39468805Y19276604D02*
X39468805Y18966845D01*
X39468805Y18752396D02*
X38968425Y18752396D01*
X39278184Y18704741D02*
X39468805Y18561775D01*
X39135218Y18561775D02*
X39325839Y18752396D01*
X39135218Y18132878D02*
X39468805Y18132878D01*
X38944598Y18252016D02*
X39302012Y18371154D01*
X39302012Y18371154D02*
X39302012Y18061395D01*
X37833650Y21149672D02*
X37857478Y21173500D01*
X37857478Y21173500D02*
X37881305Y21244982D01*
X37881305Y21244982D02*
X37881305Y21292638D01*
X37881305Y21292638D02*
X37857478Y21364121D01*
X37857478Y21364121D02*
X37809822Y21411776D01*
X37809822Y21411776D02*
X37762167Y21435603D01*
X37762167Y21435603D02*
X37666857Y21459431D01*
X37666857Y21459431D02*
X37595374Y21459431D01*
X37595374Y21459431D02*
X37500063Y21435603D01*
X37500063Y21435603D02*
X37452408Y21411776D01*
X37452408Y21411776D02*
X37404753Y21364121D01*
X37404753Y21364121D02*
X37380925Y21292638D01*
X37380925Y21292638D02*
X37380925Y21244982D01*
X37380925Y21244982D02*
X37404753Y21173500D01*
X37404753Y21173500D02*
X37428580Y21149672D01*
X37881305Y20673120D02*
X37881305Y20959051D01*
X37881305Y20816085D02*
X37380925Y20816085D01*
X37380925Y20816085D02*
X37452408Y20863741D01*
X37452408Y20863741D02*
X37500063Y20911396D01*
X37500063Y20911396D02*
X37523891Y20959051D01*
X37380925Y20220395D02*
X37380925Y20458671D01*
X37380925Y20458671D02*
X37619201Y20482499D01*
X37619201Y20482499D02*
X37595374Y20458671D01*
X37595374Y20458671D02*
X37571546Y20411016D01*
X37571546Y20411016D02*
X37571546Y20291878D01*
X37571546Y20291878D02*
X37595374Y20244223D01*
X37595374Y20244223D02*
X37619201Y20220395D01*
X37619201Y20220395D02*
X37666857Y20196568D01*
X37666857Y20196568D02*
X37785995Y20196568D01*
X37785995Y20196568D02*
X37833650Y20220395D01*
X37833650Y20220395D02*
X37857478Y20244223D01*
X37857478Y20244223D02*
X37881305Y20291878D01*
X37881305Y20291878D02*
X37881305Y20411016D01*
X37881305Y20411016D02*
X37857478Y20458671D01*
X37857478Y20458671D02*
X37833650Y20482499D01*
X36730080Y22015328D02*
X36706253Y21991500D01*
X36706253Y21991500D02*
X36682425Y21943845D01*
X36682425Y21943845D02*
X36682425Y21824707D01*
X36682425Y21824707D02*
X36706253Y21777052D01*
X36706253Y21777052D02*
X36730080Y21753224D01*
X36730080Y21753224D02*
X36777736Y21729397D01*
X36777736Y21729397D02*
X36825391Y21729397D01*
X36825391Y21729397D02*
X36896874Y21753224D01*
X36896874Y21753224D02*
X37182805Y22039156D01*
X37182805Y22039156D02*
X37182805Y21729397D01*
X36730080Y21538776D02*
X36706253Y21514948D01*
X36706253Y21514948D02*
X36682425Y21467293D01*
X36682425Y21467293D02*
X36682425Y21348155D01*
X36682425Y21348155D02*
X36706253Y21300500D01*
X36706253Y21300500D02*
X36730080Y21276672D01*
X36730080Y21276672D02*
X36777736Y21252845D01*
X36777736Y21252845D02*
X36825391Y21252845D01*
X36825391Y21252845D02*
X36896874Y21276672D01*
X36896874Y21276672D02*
X37182805Y21562604D01*
X37182805Y21562604D02*
X37182805Y21252845D01*
X36682425Y20943086D02*
X36682425Y20895431D01*
X36682425Y20895431D02*
X36706253Y20847775D01*
X36706253Y20847775D02*
X36730080Y20823948D01*
X36730080Y20823948D02*
X36777736Y20800120D01*
X36777736Y20800120D02*
X36873046Y20776293D01*
X36873046Y20776293D02*
X36992184Y20776293D01*
X36992184Y20776293D02*
X37087495Y20800120D01*
X37087495Y20800120D02*
X37135150Y20823948D01*
X37135150Y20823948D02*
X37158978Y20847775D01*
X37158978Y20847775D02*
X37182805Y20895431D01*
X37182805Y20895431D02*
X37182805Y20943086D01*
X37182805Y20943086D02*
X37158978Y20990741D01*
X37158978Y20990741D02*
X37135150Y21014569D01*
X37135150Y21014569D02*
X37087495Y21038396D01*
X37087495Y21038396D02*
X36992184Y21062224D01*
X36992184Y21062224D02*
X36873046Y21062224D01*
X36873046Y21062224D02*
X36777736Y21038396D01*
X36777736Y21038396D02*
X36730080Y21014569D01*
X36730080Y21014569D02*
X36706253Y20990741D01*
X36706253Y20990741D02*
X36682425Y20943086D01*
X36849218Y20561844D02*
X37349598Y20561844D01*
X36873046Y20561844D02*
X36849218Y20514189D01*
X36849218Y20514189D02*
X36849218Y20418879D01*
X36849218Y20418879D02*
X36873046Y20371223D01*
X36873046Y20371223D02*
X36896874Y20347396D01*
X36896874Y20347396D02*
X36944529Y20323568D01*
X36944529Y20323568D02*
X37087495Y20323568D01*
X37087495Y20323568D02*
X37135150Y20347396D01*
X37135150Y20347396D02*
X37158978Y20371223D01*
X37158978Y20371223D02*
X37182805Y20418879D01*
X37182805Y20418879D02*
X37182805Y20514189D01*
X37182805Y20514189D02*
X37158978Y20561844D01*
X36920701Y19942326D02*
X36920701Y20109119D01*
X37182805Y20109119D02*
X36682425Y20109119D01*
X36682425Y20109119D02*
X36682425Y19870843D01*
X30086650Y8957672D02*
X30110478Y8981500D01*
X30110478Y8981500D02*
X30134305Y9052982D01*
X30134305Y9052982D02*
X30134305Y9100638D01*
X30134305Y9100638D02*
X30110478Y9172121D01*
X30110478Y9172121D02*
X30062822Y9219776D01*
X30062822Y9219776D02*
X30015167Y9243603D01*
X30015167Y9243603D02*
X29919857Y9267431D01*
X29919857Y9267431D02*
X29848374Y9267431D01*
X29848374Y9267431D02*
X29753063Y9243603D01*
X29753063Y9243603D02*
X29705408Y9219776D01*
X29705408Y9219776D02*
X29657753Y9172121D01*
X29657753Y9172121D02*
X29633925Y9100638D01*
X29633925Y9100638D02*
X29633925Y9052982D01*
X29633925Y9052982D02*
X29657753Y8981500D01*
X29657753Y8981500D02*
X29681580Y8957672D01*
X30134305Y8481120D02*
X30134305Y8767051D01*
X30134305Y8624085D02*
X29633925Y8624085D01*
X29633925Y8624085D02*
X29705408Y8671741D01*
X29705408Y8671741D02*
X29753063Y8719396D01*
X29753063Y8719396D02*
X29776891Y8767051D01*
X30134305Y8004568D02*
X30134305Y8290499D01*
X30134305Y8147533D02*
X29633925Y8147533D01*
X29633925Y8147533D02*
X29705408Y8195189D01*
X29705408Y8195189D02*
X29753063Y8242844D01*
X29753063Y8242844D02*
X29776891Y8290499D01*
X30832805Y9068948D02*
X30832805Y9354879D01*
X30832805Y9211913D02*
X30332425Y9211913D01*
X30332425Y9211913D02*
X30403908Y9259569D01*
X30403908Y9259569D02*
X30451563Y9307224D01*
X30451563Y9307224D02*
X30475391Y9354879D01*
X30332425Y8759189D02*
X30332425Y8711534D01*
X30332425Y8711534D02*
X30356253Y8663878D01*
X30356253Y8663878D02*
X30380080Y8640051D01*
X30380080Y8640051D02*
X30427736Y8616223D01*
X30427736Y8616223D02*
X30523046Y8592396D01*
X30523046Y8592396D02*
X30642184Y8592396D01*
X30642184Y8592396D02*
X30737495Y8616223D01*
X30737495Y8616223D02*
X30785150Y8640051D01*
X30785150Y8640051D02*
X30808978Y8663878D01*
X30808978Y8663878D02*
X30832805Y8711534D01*
X30832805Y8711534D02*
X30832805Y8759189D01*
X30832805Y8759189D02*
X30808978Y8806844D01*
X30808978Y8806844D02*
X30785150Y8830672D01*
X30785150Y8830672D02*
X30737495Y8854499D01*
X30737495Y8854499D02*
X30642184Y8878327D01*
X30642184Y8878327D02*
X30523046Y8878327D01*
X30523046Y8878327D02*
X30427736Y8854499D01*
X30427736Y8854499D02*
X30380080Y8830672D01*
X30380080Y8830672D02*
X30356253Y8806844D01*
X30356253Y8806844D02*
X30332425Y8759189D01*
X30332425Y8282637D02*
X30332425Y8234982D01*
X30332425Y8234982D02*
X30356253Y8187326D01*
X30356253Y8187326D02*
X30380080Y8163499D01*
X30380080Y8163499D02*
X30427736Y8139671D01*
X30427736Y8139671D02*
X30523046Y8115844D01*
X30523046Y8115844D02*
X30642184Y8115844D01*
X30642184Y8115844D02*
X30737495Y8139671D01*
X30737495Y8139671D02*
X30785150Y8163499D01*
X30785150Y8163499D02*
X30808978Y8187326D01*
X30808978Y8187326D02*
X30832805Y8234982D01*
X30832805Y8234982D02*
X30832805Y8282637D01*
X30832805Y8282637D02*
X30808978Y8330292D01*
X30808978Y8330292D02*
X30785150Y8354120D01*
X30785150Y8354120D02*
X30737495Y8377947D01*
X30737495Y8377947D02*
X30642184Y8401775D01*
X30642184Y8401775D02*
X30523046Y8401775D01*
X30523046Y8401775D02*
X30427736Y8377947D01*
X30427736Y8377947D02*
X30380080Y8354120D01*
X30380080Y8354120D02*
X30356253Y8330292D01*
X30356253Y8330292D02*
X30332425Y8282637D01*
X30499218Y7901395D02*
X30832805Y7901395D01*
X30546874Y7901395D02*
X30523046Y7877568D01*
X30523046Y7877568D02*
X30499218Y7829913D01*
X30499218Y7829913D02*
X30499218Y7758430D01*
X30499218Y7758430D02*
X30523046Y7710774D01*
X30523046Y7710774D02*
X30570701Y7686947D01*
X30570701Y7686947D02*
X30832805Y7686947D01*
X32118650Y8957672D02*
X32142478Y8981500D01*
X32142478Y8981500D02*
X32166305Y9052982D01*
X32166305Y9052982D02*
X32166305Y9100638D01*
X32166305Y9100638D02*
X32142478Y9172121D01*
X32142478Y9172121D02*
X32094822Y9219776D01*
X32094822Y9219776D02*
X32047167Y9243603D01*
X32047167Y9243603D02*
X31951857Y9267431D01*
X31951857Y9267431D02*
X31880374Y9267431D01*
X31880374Y9267431D02*
X31785063Y9243603D01*
X31785063Y9243603D02*
X31737408Y9219776D01*
X31737408Y9219776D02*
X31689753Y9172121D01*
X31689753Y9172121D02*
X31665925Y9100638D01*
X31665925Y9100638D02*
X31665925Y9052982D01*
X31665925Y9052982D02*
X31689753Y8981500D01*
X31689753Y8981500D02*
X31713580Y8957672D01*
X32166305Y8481120D02*
X32166305Y8767051D01*
X32166305Y8624085D02*
X31665925Y8624085D01*
X31665925Y8624085D02*
X31737408Y8671741D01*
X31737408Y8671741D02*
X31785063Y8719396D01*
X31785063Y8719396D02*
X31808891Y8767051D01*
X31665925Y8171361D02*
X31665925Y8123706D01*
X31665925Y8123706D02*
X31689753Y8076050D01*
X31689753Y8076050D02*
X31713580Y8052223D01*
X31713580Y8052223D02*
X31761236Y8028395D01*
X31761236Y8028395D02*
X31856546Y8004568D01*
X31856546Y8004568D02*
X31975684Y8004568D01*
X31975684Y8004568D02*
X32070995Y8028395D01*
X32070995Y8028395D02*
X32118650Y8052223D01*
X32118650Y8052223D02*
X32142478Y8076050D01*
X32142478Y8076050D02*
X32166305Y8123706D01*
X32166305Y8123706D02*
X32166305Y8171361D01*
X32166305Y8171361D02*
X32142478Y8219016D01*
X32142478Y8219016D02*
X32118650Y8242844D01*
X32118650Y8242844D02*
X32070995Y8266671D01*
X32070995Y8266671D02*
X31975684Y8290499D01*
X31975684Y8290499D02*
X31856546Y8290499D01*
X31856546Y8290499D02*
X31761236Y8266671D01*
X31761236Y8266671D02*
X31713580Y8242844D01*
X31713580Y8242844D02*
X31689753Y8219016D01*
X31689753Y8219016D02*
X31665925Y8171361D01*
X32864805Y9068948D02*
X32864805Y9354879D01*
X32864805Y9211913D02*
X32364425Y9211913D01*
X32364425Y9211913D02*
X32435908Y9259569D01*
X32435908Y9259569D02*
X32483563Y9307224D01*
X32483563Y9307224D02*
X32507391Y9354879D01*
X32364425Y8759189D02*
X32364425Y8711534D01*
X32364425Y8711534D02*
X32388253Y8663878D01*
X32388253Y8663878D02*
X32412080Y8640051D01*
X32412080Y8640051D02*
X32459736Y8616223D01*
X32459736Y8616223D02*
X32555046Y8592396D01*
X32555046Y8592396D02*
X32674184Y8592396D01*
X32674184Y8592396D02*
X32769495Y8616223D01*
X32769495Y8616223D02*
X32817150Y8640051D01*
X32817150Y8640051D02*
X32840978Y8663878D01*
X32840978Y8663878D02*
X32864805Y8711534D01*
X32864805Y8711534D02*
X32864805Y8759189D01*
X32864805Y8759189D02*
X32840978Y8806844D01*
X32840978Y8806844D02*
X32817150Y8830672D01*
X32817150Y8830672D02*
X32769495Y8854499D01*
X32769495Y8854499D02*
X32674184Y8878327D01*
X32674184Y8878327D02*
X32555046Y8878327D01*
X32555046Y8878327D02*
X32459736Y8854499D01*
X32459736Y8854499D02*
X32412080Y8830672D01*
X32412080Y8830672D02*
X32388253Y8806844D01*
X32388253Y8806844D02*
X32364425Y8759189D01*
X32364425Y8282637D02*
X32364425Y8234982D01*
X32364425Y8234982D02*
X32388253Y8187326D01*
X32388253Y8187326D02*
X32412080Y8163499D01*
X32412080Y8163499D02*
X32459736Y8139671D01*
X32459736Y8139671D02*
X32555046Y8115844D01*
X32555046Y8115844D02*
X32674184Y8115844D01*
X32674184Y8115844D02*
X32769495Y8139671D01*
X32769495Y8139671D02*
X32817150Y8163499D01*
X32817150Y8163499D02*
X32840978Y8187326D01*
X32840978Y8187326D02*
X32864805Y8234982D01*
X32864805Y8234982D02*
X32864805Y8282637D01*
X32864805Y8282637D02*
X32840978Y8330292D01*
X32840978Y8330292D02*
X32817150Y8354120D01*
X32817150Y8354120D02*
X32769495Y8377947D01*
X32769495Y8377947D02*
X32674184Y8401775D01*
X32674184Y8401775D02*
X32555046Y8401775D01*
X32555046Y8401775D02*
X32459736Y8377947D01*
X32459736Y8377947D02*
X32412080Y8354120D01*
X32412080Y8354120D02*
X32388253Y8330292D01*
X32388253Y8330292D02*
X32364425Y8282637D01*
X32531218Y7901395D02*
X32864805Y7901395D01*
X32578874Y7901395D02*
X32555046Y7877568D01*
X32555046Y7877568D02*
X32531218Y7829913D01*
X32531218Y7829913D02*
X32531218Y7758430D01*
X32531218Y7758430D02*
X32555046Y7710774D01*
X32555046Y7710774D02*
X32602701Y7686947D01*
X32602701Y7686947D02*
X32864805Y7686947D01*
X12991676Y15806069D02*
X13015504Y15782242D01*
X13015504Y15782242D02*
X13086986Y15758414D01*
X13086986Y15758414D02*
X13134642Y15758414D01*
X13134642Y15758414D02*
X13206125Y15782242D01*
X13206125Y15782242D02*
X13253780Y15829897D01*
X13253780Y15829897D02*
X13277607Y15877552D01*
X13277607Y15877552D02*
X13301435Y15972862D01*
X13301435Y15972862D02*
X13301435Y16044345D01*
X13301435Y16044345D02*
X13277607Y16139656D01*
X13277607Y16139656D02*
X13253780Y16187311D01*
X13253780Y16187311D02*
X13206125Y16234966D01*
X13206125Y16234966D02*
X13134642Y16258794D01*
X13134642Y16258794D02*
X13086986Y16258794D01*
X13086986Y16258794D02*
X13015504Y16234966D01*
X13015504Y16234966D02*
X12991676Y16211139D01*
X12801055Y16211139D02*
X12777227Y16234966D01*
X12777227Y16234966D02*
X12729572Y16258794D01*
X12729572Y16258794D02*
X12610434Y16258794D01*
X12610434Y16258794D02*
X12562779Y16234966D01*
X12562779Y16234966D02*
X12538951Y16211139D01*
X12538951Y16211139D02*
X12515124Y16163483D01*
X12515124Y16163483D02*
X12515124Y16115828D01*
X12515124Y16115828D02*
X12538951Y16044345D01*
X12538951Y16044345D02*
X12824883Y15758414D01*
X12824883Y15758414D02*
X12515124Y15758414D01*
X13555677Y15059914D02*
X13841608Y15059914D01*
X13698642Y15059914D02*
X13698642Y15560294D01*
X13698642Y15560294D02*
X13746298Y15488811D01*
X13746298Y15488811D02*
X13793953Y15441156D01*
X13793953Y15441156D02*
X13841608Y15417328D01*
X13245918Y15560294D02*
X13198263Y15560294D01*
X13198263Y15560294D02*
X13150607Y15536466D01*
X13150607Y15536466D02*
X13126780Y15512639D01*
X13126780Y15512639D02*
X13102952Y15464983D01*
X13102952Y15464983D02*
X13079125Y15369673D01*
X13079125Y15369673D02*
X13079125Y15250535D01*
X13079125Y15250535D02*
X13102952Y15155224D01*
X13102952Y15155224D02*
X13126780Y15107569D01*
X13126780Y15107569D02*
X13150607Y15083742D01*
X13150607Y15083742D02*
X13198263Y15059914D01*
X13198263Y15059914D02*
X13245918Y15059914D01*
X13245918Y15059914D02*
X13293573Y15083742D01*
X13293573Y15083742D02*
X13317401Y15107569D01*
X13317401Y15107569D02*
X13341228Y15155224D01*
X13341228Y15155224D02*
X13365056Y15250535D01*
X13365056Y15250535D02*
X13365056Y15369673D01*
X13365056Y15369673D02*
X13341228Y15464983D01*
X13341228Y15464983D02*
X13317401Y15512639D01*
X13317401Y15512639D02*
X13293573Y15536466D01*
X13293573Y15536466D02*
X13245918Y15560294D01*
X12769366Y15560294D02*
X12721711Y15560294D01*
X12721711Y15560294D02*
X12674055Y15536466D01*
X12674055Y15536466D02*
X12650228Y15512639D01*
X12650228Y15512639D02*
X12626400Y15464983D01*
X12626400Y15464983D02*
X12602573Y15369673D01*
X12602573Y15369673D02*
X12602573Y15250535D01*
X12602573Y15250535D02*
X12626400Y15155224D01*
X12626400Y15155224D02*
X12650228Y15107569D01*
X12650228Y15107569D02*
X12674055Y15083742D01*
X12674055Y15083742D02*
X12721711Y15059914D01*
X12721711Y15059914D02*
X12769366Y15059914D01*
X12769366Y15059914D02*
X12817021Y15083742D01*
X12817021Y15083742D02*
X12840849Y15107569D01*
X12840849Y15107569D02*
X12864676Y15155224D01*
X12864676Y15155224D02*
X12888504Y15250535D01*
X12888504Y15250535D02*
X12888504Y15369673D01*
X12888504Y15369673D02*
X12864676Y15464983D01*
X12864676Y15464983D02*
X12840849Y15512639D01*
X12840849Y15512639D02*
X12817021Y15536466D01*
X12817021Y15536466D02*
X12769366Y15560294D01*
X12388124Y15393501D02*
X12388124Y15059914D01*
X12388124Y15345845D02*
X12364297Y15369673D01*
X12364297Y15369673D02*
X12316642Y15393501D01*
X12316642Y15393501D02*
X12245159Y15393501D01*
X12245159Y15393501D02*
X12197503Y15369673D01*
X12197503Y15369673D02*
X12173676Y15322018D01*
X12173676Y15322018D02*
X12173676Y15059914D01*
X11768606Y15322018D02*
X11935399Y15322018D01*
X11935399Y15059914D02*
X11935399Y15560294D01*
X11935399Y15560294D02*
X11697123Y15560294D01*
D13*
%TO.C,C1*%
X8763000Y17526000D02*
X10287000Y17526000D01*
X10287000Y17526000D02*
X10287000Y18542000D01*
X8763000Y18542000D02*
X8763000Y17526000D01*
X10287000Y19558000D02*
X10287000Y20574000D01*
X8763000Y20574000D02*
X8763000Y19558000D01*
X10287000Y20574000D02*
X8763000Y20574000D01*
X8890000Y17399000D02*
G75*
G03*
X8636000Y17399000I-127000J0D01*
G01*
X8636000Y17399000D02*
G75*
G03*
X8890000Y17399000I127000J0D01*
G01*
%TO.C,C14*%
X32639000Y20574000D02*
X32639000Y19050000D01*
X32639000Y19050000D02*
X33655000Y19050000D01*
X33655000Y20574000D02*
X32639000Y20574000D01*
X34671000Y19050000D02*
X35687000Y19050000D01*
X35687000Y20574000D02*
X34671000Y20574000D01*
X35687000Y19050000D02*
X35687000Y20574000D01*
X32639000Y20574000D02*
G75*
G03*
X32385000Y20574000I-127000J0D01*
G01*
X32385000Y20574000D02*
G75*
G03*
X32639000Y20574000I127000J0D01*
G01*
%TO.C,Q1*%
X15875000Y17081500D02*
X16891000Y17081500D01*
X15875000Y17081500D02*
X15875000Y14478000D01*
X16891000Y14478000D02*
X16891000Y17081500D01*
X15875000Y14478000D02*
X16891000Y14478000D01*
X16892590Y16924020D02*
G75*
G03*
X16574450Y16924020I-159070J0D01*
G01*
X16574450Y16924020D02*
G75*
G03*
X16892590Y16924020I159070J0D01*
G01*
%TO.C,R2*%
X10678160Y18836640D02*
X10678160Y17312640D01*
X10678160Y17312640D02*
X11694160Y17312640D01*
X11694160Y18836640D02*
X10678160Y18836640D01*
X12710160Y17312640D02*
X13726160Y17312640D01*
X13726160Y18836640D02*
X12710160Y18836640D01*
X13726160Y17312640D02*
X13726160Y18836640D01*
X10678160Y18836640D02*
G75*
G03*
X10424160Y18836640I-127000J0D01*
G01*
X10424160Y18836640D02*
G75*
G03*
X10678160Y18836640I127000J0D01*
G01*
%TO.C,R3*%
X17272000Y25527000D02*
X15748000Y25527000D01*
X15748000Y25527000D02*
X15748000Y24511000D01*
X17272000Y24511000D02*
X17272000Y25527000D01*
X15748000Y23495000D02*
X15748000Y22479000D01*
X17272000Y22479000D02*
X17272000Y23495000D01*
X15748000Y22479000D02*
X17272000Y22479000D01*
X17399000Y25654000D02*
G75*
G03*
X17145000Y25654000I-127000J0D01*
G01*
X17145000Y25654000D02*
G75*
G03*
X17399000Y25654000I127000J0D01*
G01*
%TO.C,R4*%
X17272000Y21463000D02*
X15748000Y21463000D01*
X15748000Y21463000D02*
X15748000Y20447000D01*
X17272000Y20447000D02*
X17272000Y21463000D01*
X15748000Y19431000D02*
X15748000Y18415000D01*
X17272000Y18415000D02*
X17272000Y19431000D01*
X15748000Y18415000D02*
X17272000Y18415000D01*
X17399000Y21590000D02*
G75*
G03*
X17145000Y21590000I-127000J0D01*
G01*
X17145000Y21590000D02*
G75*
G03*
X17399000Y21590000I127000J0D01*
G01*
%TO.C,R5*%
X19685000Y21717000D02*
X18161000Y21717000D01*
X18161000Y21717000D02*
X18161000Y20701000D01*
X19685000Y20701000D02*
X19685000Y21717000D01*
X18161000Y19685000D02*
X18161000Y18669000D01*
X19685000Y18669000D02*
X19685000Y19685000D01*
X18161000Y18669000D02*
X19685000Y18669000D01*
X19812000Y21844000D02*
G75*
G03*
X19558000Y21844000I-127000J0D01*
G01*
X19558000Y21844000D02*
G75*
G03*
X19812000Y21844000I127000J0D01*
G01*
%TO.C,R6*%
X22225000Y19812000D02*
X20701000Y19812000D01*
X20701000Y19812000D02*
X20701000Y18796000D01*
X22225000Y18796000D02*
X22225000Y19812000D01*
X20701000Y17780000D02*
X20701000Y16764000D01*
X22225000Y16764000D02*
X22225000Y17780000D01*
X20701000Y16764000D02*
X22225000Y16764000D01*
X22352000Y19939000D02*
G75*
G03*
X22098000Y19939000I-127000J0D01*
G01*
X22098000Y19939000D02*
G75*
G03*
X22352000Y19939000I127000J0D01*
G01*
%TO.C,R8*%
X28702000Y10160000D02*
X27178000Y10160000D01*
X27178000Y10160000D02*
X27178000Y9144000D01*
X28702000Y9144000D02*
X28702000Y10160000D01*
X27178000Y8128000D02*
X27178000Y7112000D01*
X28702000Y7112000D02*
X28702000Y8128000D01*
X27178000Y7112000D02*
X28702000Y7112000D01*
X28829000Y10287000D02*
G75*
G03*
X28575000Y10287000I-127000J0D01*
G01*
X28575000Y10287000D02*
G75*
G03*
X28829000Y10287000I127000J0D01*
G01*
%TO.C,R9*%
X34925000Y16637000D02*
X34925000Y18161000D01*
X34925000Y18161000D02*
X33909000Y18161000D01*
X33909000Y16637000D02*
X34925000Y16637000D01*
X32893000Y18161000D02*
X31877000Y18161000D01*
X31877000Y16637000D02*
X32893000Y16637000D01*
X31877000Y18161000D02*
X31877000Y16637000D01*
X35179000Y16637000D02*
G75*
G03*
X34925000Y16637000I-127000J0D01*
G01*
X34925000Y16637000D02*
G75*
G03*
X35179000Y16637000I127000J0D01*
G01*
%TO.C,R10*%
X32512000Y22860000D02*
X32512000Y21336000D01*
X32512000Y21336000D02*
X33528000Y21336000D01*
X33528000Y22860000D02*
X32512000Y22860000D01*
X34544000Y21336000D02*
X35560000Y21336000D01*
X35560000Y22860000D02*
X34544000Y22860000D01*
X35560000Y21336000D02*
X35560000Y22860000D01*
X32512000Y22860000D02*
G75*
G03*
X32258000Y22860000I-127000J0D01*
G01*
X32258000Y22860000D02*
G75*
G03*
X32512000Y22860000I127000J0D01*
G01*
%TO.C,R14*%
X40386000Y14224000D02*
X40386000Y15748000D01*
X40386000Y15748000D02*
X39370000Y15748000D01*
X39370000Y14224000D02*
X40386000Y14224000D01*
X38354000Y15748000D02*
X37338000Y15748000D01*
X37338000Y14224000D02*
X38354000Y14224000D01*
X37338000Y15748000D02*
X37338000Y14224000D01*
X40640000Y14224000D02*
G75*
G03*
X40386000Y14224000I-127000J0D01*
G01*
X40386000Y14224000D02*
G75*
G03*
X40640000Y14224000I127000J0D01*
G01*
%TO.C,R15*%
X41910000Y10922000D02*
X40386000Y10922000D01*
X40386000Y10922000D02*
X40386000Y9906000D01*
X41910000Y9906000D02*
X41910000Y10922000D01*
X40386000Y8890000D02*
X40386000Y7874000D01*
X41910000Y7874000D02*
X41910000Y8890000D01*
X40386000Y7874000D02*
X41910000Y7874000D01*
X42037000Y11049000D02*
G75*
G03*
X41783000Y11049000I-127000J0D01*
G01*
X41783000Y11049000D02*
G75*
G03*
X42037000Y11049000I127000J0D01*
G01*
%TO.C,U1*%
X26139140Y15532100D02*
X26139140Y17233900D01*
X26139140Y17233900D02*
X23136860Y17233900D01*
X25641300Y15534640D02*
X26136600Y16029940D01*
X25590500Y15524480D02*
X25590500Y14864080D01*
X25590500Y17241520D02*
X25590500Y17901920D01*
X25488900Y15534640D02*
X26136600Y16182340D01*
X24638000Y15524480D02*
X24638000Y14864080D01*
X23685500Y15524480D02*
X23685500Y14864080D01*
X23685500Y17241520D02*
X23685500Y17901920D01*
X23136860Y15532100D02*
X26139140Y15532100D01*
X23136860Y17233900D02*
X23136860Y15532100D01*
%TO.C,C17*%
X41148000Y12446000D02*
X42672000Y12446000D01*
X42672000Y12446000D02*
X42672000Y13462000D01*
X41148000Y13462000D02*
X41148000Y12446000D01*
X42672000Y14478000D02*
X42672000Y15494000D01*
X41148000Y15494000D02*
X41148000Y14478000D01*
X42672000Y15494000D02*
X41148000Y15494000D01*
X41275000Y12319000D02*
G75*
G03*
X41021000Y12319000I-127000J0D01*
G01*
X41021000Y12319000D02*
G75*
G03*
X41275000Y12319000I127000J0D01*
G01*
%TO.C,R1*%
X8763000Y14188440D02*
X10287000Y14188440D01*
X10287000Y14188440D02*
X10287000Y15204440D01*
X8763000Y15204440D02*
X8763000Y14188440D01*
X10287000Y16220440D02*
X10287000Y17236440D01*
X8763000Y17236440D02*
X8763000Y16220440D01*
X10287000Y17236440D02*
X8763000Y17236440D01*
X8890000Y14061440D02*
G75*
G03*
X8636000Y14061440I-127000J0D01*
G01*
X8636000Y14061440D02*
G75*
G03*
X8890000Y14061440I127000J0D01*
G01*
%TO.C,U2*%
X29972000Y10668000D02*
X34544000Y10668000D01*
X33020000Y10668000D02*
X33020000Y11176000D01*
X34544000Y10668000D02*
X34544000Y15748000D01*
X31750000Y11176000D02*
X31750000Y10668000D01*
X33020000Y11176000D02*
X31750000Y11176000D01*
X29972000Y15748000D02*
X29972000Y10668000D01*
X34544000Y15748000D02*
X29972000Y15748000D01*
%TO.C,C9*%
X28072080Y17322800D02*
X26548080Y17322800D01*
X26548080Y17322800D02*
X26548080Y16306800D01*
X28072080Y16306800D02*
X28072080Y17322800D01*
X26548080Y15290800D02*
X26548080Y14274800D01*
X28072080Y14274800D02*
X28072080Y15290800D01*
X26548080Y14274800D02*
X28072080Y14274800D01*
X28199080Y17449800D02*
G75*
G03*
X27945080Y17449800I-127000J0D01*
G01*
X27945080Y17449800D02*
G75*
G03*
X28199080Y17449800I127000J0D01*
G01*
%TO.C,C3*%
X18288000Y24384000D02*
X19812000Y24384000D01*
X19812000Y24384000D02*
X19812000Y25400000D01*
X18288000Y25400000D02*
X18288000Y24384000D01*
X19812000Y26416000D02*
X19812000Y27432000D01*
X18288000Y27432000D02*
X18288000Y26416000D01*
X19812000Y27432000D02*
X18288000Y27432000D01*
X18415000Y24257000D02*
G75*
G03*
X18161000Y24257000I-127000J0D01*
G01*
X18161000Y24257000D02*
G75*
G03*
X18415000Y24257000I127000J0D01*
G01*
%TO.C,C13*%
X27813000Y11557000D02*
X27813000Y13081000D01*
X27813000Y13081000D02*
X26797000Y13081000D01*
X26797000Y11557000D02*
X27813000Y11557000D01*
X25781000Y13081000D02*
X24765000Y13081000D01*
X24765000Y11557000D02*
X25781000Y11557000D01*
X24765000Y13081000D02*
X24765000Y11557000D01*
X28067000Y11557000D02*
G75*
G03*
X27813000Y11557000I-127000J0D01*
G01*
X27813000Y11557000D02*
G75*
G03*
X28067000Y11557000I127000J0D01*
G01*
%TO.C,R7*%
X22352000Y12700000D02*
X22352000Y14224000D01*
X22352000Y14224000D02*
X21336000Y14224000D01*
X21336000Y12700000D02*
X22352000Y12700000D01*
X20320000Y14224000D02*
X19304000Y14224000D01*
X19304000Y12700000D02*
X20320000Y12700000D01*
X19304000Y14224000D02*
X19304000Y12700000D01*
X22606000Y12700000D02*
G75*
G03*
X22352000Y12700000I-127000J0D01*
G01*
X22352000Y12700000D02*
G75*
G03*
X22606000Y12700000I127000J0D01*
G01*
%TO.C,C4*%
X35560000Y9398000D02*
X35560000Y7874000D01*
X35560000Y7874000D02*
X36576000Y7874000D01*
X36576000Y9398000D02*
X35560000Y9398000D01*
X37592000Y7874000D02*
X38608000Y7874000D01*
X38608000Y9398000D02*
X37592000Y9398000D01*
X38608000Y7874000D02*
X38608000Y9398000D01*
X35560000Y9398000D02*
G75*
G03*
X35306000Y9398000I-127000J0D01*
G01*
X35306000Y9398000D02*
G75*
G03*
X35560000Y9398000I127000J0D01*
G01*
%TO.C,R13*%
X38862000Y13462000D02*
X37338000Y13462000D01*
X37338000Y13462000D02*
X37338000Y12446000D01*
X38862000Y12446000D02*
X38862000Y13462000D01*
X37338000Y11430000D02*
X37338000Y10414000D01*
X38862000Y10414000D02*
X38862000Y11430000D01*
X37338000Y10414000D02*
X38862000Y10414000D01*
X38989000Y13589000D02*
G75*
G03*
X38735000Y13589000I-127000J0D01*
G01*
X38735000Y13589000D02*
G75*
G03*
X38989000Y13589000I127000J0D01*
G01*
%TO.C,C16*%
X41148000Y16256000D02*
X42672000Y16256000D01*
X42672000Y16256000D02*
X42672000Y17272000D01*
X41148000Y17272000D02*
X41148000Y16256000D01*
X42672000Y18288000D02*
X42672000Y19304000D01*
X41148000Y19304000D02*
X41148000Y18288000D01*
X42672000Y19304000D02*
X41148000Y19304000D01*
X41275000Y16129000D02*
G75*
G03*
X41021000Y16129000I-127000J0D01*
G01*
X41021000Y16129000D02*
G75*
G03*
X41275000Y16129000I127000J0D01*
G01*
%TO.C,R11*%
X42164000Y20828000D02*
X42164000Y22352000D01*
X42164000Y22352000D02*
X41148000Y22352000D01*
X41148000Y20828000D02*
X42164000Y20828000D01*
X40132000Y22352000D02*
X39116000Y22352000D01*
X39116000Y20828000D02*
X40132000Y20828000D01*
X39116000Y22352000D02*
X39116000Y20828000D01*
X42418000Y20828000D02*
G75*
G03*
X42164000Y20828000I-127000J0D01*
G01*
X42164000Y20828000D02*
G75*
G03*
X42418000Y20828000I127000J0D01*
G01*
%TO.C,R12*%
X38862000Y17018000D02*
X40386000Y17018000D01*
X40386000Y17018000D02*
X40386000Y18034000D01*
X38862000Y18034000D02*
X38862000Y17018000D01*
X40386000Y19050000D02*
X40386000Y20066000D01*
X38862000Y20066000D02*
X38862000Y19050000D01*
X40386000Y20066000D02*
X38862000Y20066000D01*
X38989000Y16891000D02*
G75*
G03*
X38735000Y16891000I-127000J0D01*
G01*
X38735000Y16891000D02*
G75*
G03*
X38989000Y16891000I127000J0D01*
G01*
%TO.C,C15*%
X36576000Y19304000D02*
X38100000Y19304000D01*
X38100000Y19304000D02*
X38100000Y20320000D01*
X36576000Y20320000D02*
X36576000Y19304000D01*
X38100000Y21336000D02*
X38100000Y22352000D01*
X36576000Y22352000D02*
X36576000Y21336000D01*
X38100000Y22352000D02*
X36576000Y22352000D01*
X36703000Y19177000D02*
G75*
G03*
X36449000Y19177000I-127000J0D01*
G01*
X36449000Y19177000D02*
G75*
G03*
X36703000Y19177000I127000J0D01*
G01*
%TO.C,C11*%
X30988000Y10160000D02*
X29464000Y10160000D01*
X29464000Y10160000D02*
X29464000Y9144000D01*
X30988000Y9144000D02*
X30988000Y10160000D01*
X29464000Y8128000D02*
X29464000Y7112000D01*
X30988000Y7112000D02*
X30988000Y8128000D01*
X29464000Y7112000D02*
X30988000Y7112000D01*
X31115000Y10287000D02*
G75*
G03*
X30861000Y10287000I-127000J0D01*
G01*
X30861000Y10287000D02*
G75*
G03*
X31115000Y10287000I127000J0D01*
G01*
%TO.C,C10*%
X33020000Y10160000D02*
X31496000Y10160000D01*
X31496000Y10160000D02*
X31496000Y9144000D01*
X33020000Y9144000D02*
X33020000Y10160000D01*
X31496000Y8128000D02*
X31496000Y7112000D01*
X33020000Y7112000D02*
X33020000Y8128000D01*
X31496000Y7112000D02*
X33020000Y7112000D01*
X33147000Y10287000D02*
G75*
G03*
X32893000Y10287000I-127000J0D01*
G01*
X32893000Y10287000D02*
G75*
G03*
X33147000Y10287000I127000J0D01*
G01*
%TO.C,C2*%
X14432280Y14904720D02*
X14432280Y16428720D01*
X14432280Y16428720D02*
X13416280Y16428720D01*
X13416280Y14904720D02*
X14432280Y14904720D01*
X12400280Y16428720D02*
X11384280Y16428720D01*
X11384280Y14904720D02*
X12400280Y14904720D01*
X11384280Y16428720D02*
X11384280Y14904720D01*
X14686280Y14904720D02*
G75*
G03*
X14432280Y14904720I-127000J0D01*
G01*
X14432280Y14904720D02*
G75*
G03*
X14686280Y14904720I127000J0D01*
G01*
%TD*%
D14*
%TO.C,J3*%
X38354000Y2540000D03*
%TD*%
M02*
