%TF.GenerationSoftware,KiCad,Pcbnew,7.0.11+1*%
%TF.CreationDate,2024-07-03T21:22:02+00:00*%
%TF.ProjectId,PCRD02,50435244-3032-42e6-9b69-6361645f7063,rev?*%
%TF.SameCoordinates,Original*%
%TF.FileFunction,Copper,L2,Bot*%
%TF.FilePolarity,Positive*%
%FSLAX46Y46*%
G04 Gerber Fmt 4.6, Leading zero omitted, Abs format (unit mm)*
G04 Created by KiCad (PCBNEW 7.0.11+1) date 2024-07-03 21:22:02*
%MOMM*%
%LPD*%
G01*
G04 APERTURE LIST*
%TA.AperFunction,SMDPad,CuDef*%
%ADD10C,9.480265*%
%TD*%
%TA.AperFunction,ComponentPad*%
%ADD11C,6.000000*%
%TD*%
%TA.AperFunction,ComponentPad*%
%ADD12R,1.651000X1.651000*%
%TD*%
%TA.AperFunction,SMDPad,CuDef*%
%ADD13R,1.397000X0.889000*%
%TD*%
%TA.AperFunction,SMDPad,CuDef*%
%ADD14R,0.889000X1.397000*%
%TD*%
%TA.AperFunction,SMDPad,CuDef*%
%ADD15R,1.000760X0.800100*%
%TD*%
%TA.AperFunction,SMDPad,CuDef*%
%ADD16R,0.690880X1.000760*%
%TD*%
%TA.AperFunction,SMDPad,CuDef*%
%ADD17R,1.143000X0.508000*%
%TD*%
%TA.AperFunction,ViaPad*%
%ADD18C,0.889000*%
%TD*%
%TA.AperFunction,Conductor*%
%ADD19C,0.600000*%
%TD*%
%TA.AperFunction,Conductor*%
%ADD20C,0.400000*%
%TD*%
G04 APERTURE END LIST*
D10*
%TO.P,C5,2*%
%TO.N,V-*%
X26654760Y24079200D03*
%TD*%
D11*
%TO.P,P3,1*%
%TO.N,GND*%
X5080000Y5080000D03*
%TD*%
%TO.P,P4,1*%
%TO.N,GND*%
X5080000Y25400000D03*
%TD*%
D12*
%TO.P,J2,1*%
%TO.N,GND*%
X6350000Y13208000D03*
%TO.P,J2,2*%
%TO.N,Net-(J2-Pad2)*%
X6350000Y15748000D03*
%TO.P,J2,3*%
%TO.N,GND*%
X6350000Y18288000D03*
%TO.P,J2,4*%
X3810000Y18288000D03*
%TO.P,J2,5*%
%TO.N,Net-(J2-Pad2)*%
X3810000Y15748000D03*
%TO.P,J2,6*%
%TO.N,GND*%
X3810000Y13208000D03*
%TD*%
%TO.P,J1,1*%
%TO.N,GND*%
X13543280Y7137400D03*
%TO.P,J1,2*%
%TO.N,Net-(C2-Pad2)*%
X13543280Y12217400D03*
%TD*%
D11*
%TO.P,P1,1*%
%TO.N,GND*%
X45720000Y25400000D03*
%TD*%
%TO.P,P2,1*%
%TO.N,GND*%
X45720000Y5080000D03*
%TD*%
D12*
%TO.P,J4,1*%
%TO.N,GND*%
X47244000Y10668000D03*
%TO.P,J4,2*%
%TO.N,Net-(C17-Pad1)*%
X47244000Y13208000D03*
%TO.P,J4,3*%
%TO.N,GND*%
X47244000Y15748000D03*
%TO.P,J4,4*%
X44704000Y15748000D03*
%TO.P,J4,5*%
%TO.N,Net-(C17-Pad1)*%
X44704000Y13208000D03*
%TO.P,J4,6*%
%TO.N,GND*%
X44704000Y10668000D03*
%TD*%
D10*
%TO.P,C8,2*%
%TO.N,Net-(C2-Pad1)*%
X20721320Y7675880D03*
%TD*%
D12*
%TO.P,J3,1*%
%TO.N,GND*%
X28194000Y2540000D03*
%TO.P,J3,2*%
%TO.N,V-*%
X30734000Y2540000D03*
%TO.P,J3,3*%
%TO.N,V+*%
X33274000Y2540000D03*
%TO.P,J3,4*%
%TO.N,V-*%
X35814000Y2540000D03*
%TO.P,J3,5*%
%TO.N,GND*%
X38354000Y2540000D03*
%TO.P,J3,6*%
X38354000Y5080000D03*
%TO.P,J3,7*%
%TO.N,V-*%
X35814000Y5080000D03*
%TO.P,J3,8*%
%TO.N,V+*%
X33274000Y5080000D03*
%TO.P,J3,9*%
%TO.N,V-*%
X30734000Y5080000D03*
%TO.P,J3,10*%
%TO.N,GND*%
X28194000Y5080000D03*
%TD*%
D13*
%TO.P,C1,1*%
%TO.N,Net-(C1-Pad1)*%
X9525000Y18097500D03*
%TO.P,C1,2*%
%TO.N,GND*%
X9525000Y20002500D03*
%TD*%
D14*
%TO.P,C14,1*%
%TO.N,Net-(C14-Pad1)*%
X33210500Y19812000D03*
%TO.P,C14,2*%
%TO.N,Net-(C14-Pad2)*%
X35115500Y19812000D03*
%TD*%
D15*
%TO.P,Q1,1*%
%TO.N,V-*%
X17482820Y16700500D03*
%TO.P,Q1,2*%
%TO.N,Net-(Q1-Pad2)*%
X17482820Y14795500D03*
%TO.P,Q1,3*%
%TO.N,Net-(C2-Pad1)*%
X15283180Y15748000D03*
%TD*%
D14*
%TO.P,R2,1*%
%TO.N,Net-(C1-Pad1)*%
X11249660Y18074640D03*
%TO.P,R2,2*%
%TO.N,Net-(C2-Pad2)*%
X13154660Y18074640D03*
%TD*%
D13*
%TO.P,R3,1*%
%TO.N,V+*%
X16510000Y24955500D03*
%TO.P,R3,2*%
%TO.N,Net-(R3-Pad2)*%
X16510000Y23050500D03*
%TD*%
%TO.P,R4,1*%
%TO.N,Net-(R3-Pad2)*%
X16510000Y20891500D03*
%TO.P,R4,2*%
%TO.N,Net-(Q1-Pad2)*%
X16510000Y18986500D03*
%TD*%
%TO.P,R5,1*%
%TO.N,Net-(R3-Pad2)*%
X18923000Y21145500D03*
%TO.P,R5,2*%
%TO.N,Net-(C5-Pad1)*%
X18923000Y19240500D03*
%TD*%
%TO.P,R6,1*%
%TO.N,Net-(C5-Pad1)*%
X21463000Y19240500D03*
%TO.P,R6,2*%
%TO.N,V-*%
X21463000Y17335500D03*
%TD*%
%TO.P,R8,1*%
%TO.N,Net-(C13-Pad1)*%
X27940000Y9588500D03*
%TO.P,R8,2*%
%TO.N,GND*%
X27940000Y7683500D03*
%TD*%
D14*
%TO.P,R9,1*%
%TO.N,Net-(C14-Pad2)*%
X34353500Y17399000D03*
%TO.P,R9,2*%
%TO.N,Net-(C14-Pad1)*%
X32448500Y17399000D03*
%TD*%
%TO.P,R10,1*%
%TO.N,Net-(C14-Pad1)*%
X33083500Y22098000D03*
%TO.P,R10,2*%
%TO.N,GND*%
X34988500Y22098000D03*
%TD*%
%TO.P,R14,1*%
%TO.N,Net-(C16-Pad1)*%
X39814500Y14986000D03*
%TO.P,R14,2*%
%TO.N,Net-(R13-Pad1)*%
X37909500Y14986000D03*
%TD*%
D13*
%TO.P,R15,1*%
%TO.N,Net-(C17-Pad1)*%
X41148000Y10350500D03*
%TO.P,R15,2*%
%TO.N,GND*%
X41148000Y8445500D03*
%TD*%
D16*
%TO.P,U1,1*%
%TO.N,Net-(C13-Pad2)*%
X25587960Y15082520D03*
%TO.P,U1,2*%
%TO.N,V-*%
X24638000Y15082520D03*
%TO.P,U1,3*%
%TO.N,Net-(Q1-Pad2)*%
X23688040Y15082520D03*
%TO.P,U1,4*%
%TO.N,Net-(C5-Pad1)*%
X23688040Y17683480D03*
%TO.P,U1,5*%
%TO.N,V+*%
X25587960Y17683480D03*
%TD*%
D13*
%TO.P,C17,1*%
%TO.N,Net-(C17-Pad1)*%
X41910000Y13017500D03*
%TO.P,C17,2*%
%TO.N,Net-(C16-Pad1)*%
X41910000Y14922500D03*
%TD*%
%TO.P,R1,1*%
%TO.N,Net-(J2-Pad2)*%
X9525000Y14759940D03*
%TO.P,R1,2*%
%TO.N,Net-(C1-Pad1)*%
X9525000Y16664940D03*
%TD*%
D17*
%TO.P,U2,1*%
%TO.N,Net-(C14-Pad2)*%
X29083000Y11303000D03*
%TO.P,U2,2*%
%TO.N,Net-(C14-Pad1)*%
X29083000Y12573000D03*
%TO.P,U2,3*%
%TO.N,Net-(C13-Pad1)*%
X29083000Y13843000D03*
%TO.P,U2,4*%
%TO.N,V-*%
X29083000Y15113000D03*
%TO.P,U2,5*%
%TO.N,Net-(C15-Pad1)*%
X35433000Y15113000D03*
%TO.P,U2,6*%
%TO.N,Net-(R13-Pad1)*%
X35433000Y13843000D03*
%TO.P,U2,7*%
%TO.N,Net-(C16-Pad1)*%
X35433000Y12573000D03*
%TO.P,U2,8*%
%TO.N,V+*%
X35433000Y11303000D03*
%TD*%
D13*
%TO.P,C9,1*%
%TO.N,V-*%
X27310080Y16751300D03*
%TO.P,C9,2*%
%TO.N,GND*%
X27310080Y14846300D03*
%TD*%
%TO.P,C3,1*%
%TO.N,V+*%
X19050000Y24955500D03*
%TO.P,C3,2*%
%TO.N,GND*%
X19050000Y26860500D03*
%TD*%
D14*
%TO.P,C13,1*%
%TO.N,Net-(C13-Pad1)*%
X27241500Y12319000D03*
%TO.P,C13,2*%
%TO.N,Net-(C13-Pad2)*%
X25336500Y12319000D03*
%TD*%
%TO.P,R7,1*%
%TO.N,Net-(C13-Pad2)*%
X21780500Y13462000D03*
%TO.P,R7,2*%
%TO.N,Net-(C2-Pad1)*%
X19875500Y13462000D03*
%TD*%
%TO.P,C4,1*%
%TO.N,V+*%
X36131500Y8636000D03*
%TO.P,C4,2*%
%TO.N,GND*%
X38036500Y8636000D03*
%TD*%
D13*
%TO.P,R13,1*%
%TO.N,Net-(R13-Pad1)*%
X38100000Y12890500D03*
%TO.P,R13,2*%
%TO.N,GND*%
X38100000Y10985500D03*
%TD*%
%TO.P,C16,1*%
%TO.N,Net-(C16-Pad1)*%
X41910000Y16827500D03*
%TO.P,C16,2*%
%TO.N,Net-(C16-Pad2)*%
X41910000Y18732500D03*
%TD*%
D14*
%TO.P,R11,1*%
%TO.N,Net-(C16-Pad2)*%
X41592500Y21590000D03*
%TO.P,R11,2*%
%TO.N,Net-(C14-Pad2)*%
X39687500Y21590000D03*
%TD*%
D13*
%TO.P,R12,1*%
%TO.N,Net-(C15-Pad1)*%
X39624000Y17589500D03*
%TO.P,R12,2*%
%TO.N,Net-(C16-Pad2)*%
X39624000Y19494500D03*
%TD*%
%TO.P,C15,1*%
%TO.N,Net-(C15-Pad1)*%
X37338000Y19875500D03*
%TO.P,C15,2*%
%TO.N,GND*%
X37338000Y21780500D03*
%TD*%
%TO.P,C11,1*%
%TO.N,V-*%
X30226000Y9588500D03*
%TO.P,C11,2*%
%TO.N,GND*%
X30226000Y7683500D03*
%TD*%
%TO.P,C10,1*%
%TO.N,V-*%
X32258000Y9588500D03*
%TO.P,C10,2*%
%TO.N,GND*%
X32258000Y7683500D03*
%TD*%
D14*
%TO.P,C2,1*%
%TO.N,Net-(C2-Pad1)*%
X13873000Y15666720D03*
%TO.P,C2,2*%
%TO.N,Net-(C2-Pad2)*%
X11955780Y15666720D03*
%TD*%
D18*
%TO.N,GND*%
X21539200Y28295600D03*
X14732000Y28397200D03*
X27259280Y14000480D03*
X10007600Y5588000D03*
X37846000Y26771600D03*
X9956800Y2895600D03*
X14173200Y3048000D03*
X34036000Y24638000D03*
X12344400Y23876000D03*
X11430000Y20218400D03*
X33426400Y28041600D03*
X16611600Y2082800D03*
%TO.N,V+*%
X19050000Y23622000D03*
X25587960Y18298160D03*
%TO.N,Net-(C5-Pad1)*%
X22636480Y20142200D03*
%TO.N,V-*%
X30520640Y14457680D03*
X31186120Y9570720D03*
%TO.N,Net-(C13-Pad2)*%
X22296120Y13436600D03*
%TD*%
D19*
%TO.N,Net-(C1-Pad1)*%
X9525000Y18097500D02*
X11226800Y18097500D01*
X11226800Y18097500D02*
X11249660Y18074640D01*
X9525000Y16664940D02*
X9525000Y18097500D01*
%TO.N,GND*%
X27310080Y14846300D02*
X27310080Y14051280D01*
X27310080Y14051280D02*
X27259280Y14000480D01*
D20*
X36576000Y28041600D02*
X33426400Y28041600D01*
X19050000Y26860500D02*
X20104100Y26860500D01*
X11557000Y7137400D02*
X10007600Y5588000D01*
X20104100Y26860500D02*
X21539200Y28295600D01*
X11430000Y20218400D02*
X9740900Y20218400D01*
X37846000Y26771600D02*
X36576000Y28041600D01*
X34988500Y22098000D02*
X34988500Y23685500D01*
X13543280Y7137400D02*
X11557000Y7137400D01*
X14020800Y2895600D02*
X14173200Y3048000D01*
X14732000Y28397200D02*
X14732000Y26263600D01*
X14732000Y26263600D02*
X12344400Y23876000D01*
X34988500Y23685500D02*
X34036000Y24638000D01*
X9740900Y20218400D02*
X9525000Y20002500D01*
X9956800Y2895600D02*
X14020800Y2895600D01*
D19*
%TO.N,Net-(C2-Pad1)*%
X19875500Y13208000D02*
X20469860Y12613640D01*
D20*
X15283180Y14947950D02*
X15283180Y15748000D01*
D19*
X15201900Y15666720D02*
X15283180Y15748000D01*
D20*
X16769130Y13462000D02*
X15283180Y14947950D01*
X19875500Y13462000D02*
X16769130Y13462000D01*
D19*
X20469860Y12613640D02*
X20675600Y12407900D01*
D20*
X20828000Y12255500D02*
X20828000Y11997248D01*
X20675600Y12407900D02*
X20828000Y12255500D01*
D19*
X19875500Y13462000D02*
X19875500Y13208000D01*
D20*
X20828000Y11997248D02*
X20828000Y7112000D01*
D19*
X13860780Y15666720D02*
X15201900Y15666720D01*
%TO.N,Net-(C2-Pad2)*%
X13154660Y17820640D02*
X13154660Y18074640D01*
X11955780Y16621760D02*
X13154660Y17820640D01*
X11955780Y15666720D02*
X11955780Y13804900D01*
X11955780Y13804900D02*
X13543280Y12217400D01*
X11955780Y15666720D02*
X11955780Y16621760D01*
%TO.N,V+*%
X25587960Y17683480D02*
X25587960Y18298160D01*
X33274000Y2540000D02*
X33274000Y5080000D01*
X33274000Y5080000D02*
X33274000Y5778500D01*
D20*
X36131500Y10604500D02*
X35433000Y11303000D01*
D19*
X33274000Y5778500D02*
X36131500Y8636000D01*
X19050000Y23622000D02*
X19050000Y24955500D01*
X16510000Y24955500D02*
X19050000Y24955500D01*
D20*
X16573500Y25019000D02*
X16510000Y24955500D01*
X36131500Y8636000D02*
X36131500Y10604500D01*
%TO.N,Net-(C5-Pad1)*%
X18923000Y19240500D02*
X21463000Y19240500D01*
X23688040Y19090640D02*
X23080979Y19697701D01*
X22618700Y20142200D02*
X22636480Y20142200D01*
X23080979Y19697701D02*
X22636480Y20142200D01*
X23688040Y17683480D02*
X23688040Y19090640D01*
X21717000Y19240500D02*
X22618700Y20142200D01*
X21463000Y19240500D02*
X21717000Y19240500D01*
D19*
%TO.N,V-*%
X30226000Y9588500D02*
X30243780Y9570720D01*
X30734000Y2540000D02*
X30734000Y5080000D01*
X30557503Y9570720D02*
X31186120Y9570720D01*
X22915599Y16136901D02*
X24069040Y16136901D01*
X24638000Y15975582D02*
X24638000Y15082520D01*
X35814000Y2540000D02*
X35814000Y5080000D01*
X32113501Y1160499D02*
X30734000Y2540000D01*
X29083000Y15113000D02*
X29865320Y15113000D01*
X26670000Y17553442D02*
X27310080Y16913362D01*
X35814000Y2540000D02*
X34434499Y1160499D01*
X24069040Y16136901D02*
X24476681Y16136901D01*
X27310080Y16751300D02*
X27444700Y16751300D01*
X26695681Y16136901D02*
X27310080Y16751300D01*
X24069040Y16136901D02*
X26695681Y16136901D01*
X21717000Y17335500D02*
X22915599Y16136901D01*
X34434499Y1160499D02*
X32113501Y1160499D01*
X26670000Y24257000D02*
X26670000Y17553442D01*
X32258000Y9588500D02*
X30226000Y9588500D01*
X21463000Y17335500D02*
X21717000Y17335500D01*
X29865320Y15113000D02*
X30520640Y14457680D01*
X17482820Y16700500D02*
X20828000Y16700500D01*
X27310080Y16913362D02*
X27310080Y16751300D01*
X30243780Y9570720D02*
X30557503Y9570720D01*
X27444700Y16751300D02*
X29083000Y15113000D01*
X20828000Y16700500D02*
X21463000Y17335500D01*
X24476681Y16136901D02*
X24638000Y15975582D01*
D20*
%TO.N,Net-(C13-Pad2)*%
X25618440Y15113000D02*
X25587960Y15082520D01*
D19*
X25336500Y13417500D02*
X25336500Y12319000D01*
X22296120Y13436600D02*
X25317400Y13436600D01*
D20*
X25587960Y15082520D02*
X25620980Y15082520D01*
D19*
X25317400Y13436600D02*
X25336500Y13417500D01*
D20*
X21805900Y13436600D02*
X22296120Y13436600D01*
X21780500Y13462000D02*
X21805900Y13436600D01*
D19*
X25587960Y13668960D02*
X25336500Y13417500D01*
X25587960Y15082520D02*
X25587960Y13668960D01*
D20*
%TO.N,Net-(C13-Pad1)*%
X29083000Y13843000D02*
X28765500Y13843000D01*
X27940000Y9588500D02*
X27940000Y11620500D01*
X28765500Y13843000D02*
X27241500Y12319000D01*
X27940000Y11620500D02*
X27241500Y12319000D01*
%TO.N,Net-(C14-Pad1)*%
X32448500Y17399000D02*
X32448500Y19050000D01*
X30054500Y12573000D02*
X29083000Y12573000D01*
X32448500Y19050000D02*
X33210500Y19812000D01*
X32448500Y17399000D02*
X32448500Y14967000D01*
X32448500Y14967000D02*
X30054500Y12573000D01*
X33210500Y19812000D02*
X33210500Y21844000D01*
%TO.N,Net-(C14-Pad2)*%
X35115500Y18161000D02*
X34353500Y17399000D01*
X38979499Y20881999D02*
X39687500Y21590000D01*
X34353500Y17399000D02*
X34353500Y15602000D01*
X34353500Y15602000D02*
X30054500Y11303000D01*
X35115500Y19812000D02*
X35115500Y18161000D01*
X30054500Y11303000D02*
X29083000Y11303000D01*
X35115500Y19812000D02*
X35115500Y20066000D01*
X35115500Y20066000D02*
X35931499Y20881999D01*
X35931499Y20881999D02*
X38979499Y20881999D01*
%TO.N,Net-(C15-Pad1)*%
X37338000Y17590476D02*
X37338000Y16700500D01*
X38525500Y17589500D02*
X38524524Y17590476D01*
X37338000Y19875500D02*
X37338000Y17590476D01*
X35750500Y15113000D02*
X35433000Y15113000D01*
X37338000Y16700500D02*
X35750500Y15113000D01*
X39624000Y17589500D02*
X38525500Y17589500D01*
X38524524Y17590476D02*
X37338000Y17590476D01*
%TO.N,Net-(C16-Pad1)*%
X41910000Y14922500D02*
X39878000Y14922500D01*
X39814500Y13887500D02*
X39814500Y14986000D01*
X39878000Y14922500D02*
X39814500Y14986000D01*
X39814500Y12644798D02*
X39814500Y13887500D01*
X39814500Y14732000D02*
X39814500Y14986000D01*
X35433000Y12573000D02*
X35750500Y12573000D01*
X41910000Y14922500D02*
X41910000Y16827500D01*
X36985501Y11991999D02*
X39161701Y11991999D01*
X36404500Y12573000D02*
X36985501Y11991999D01*
X35433000Y12573000D02*
X36404500Y12573000D01*
X39161701Y11991999D02*
X39814500Y12644798D01*
%TO.N,Net-(C16-Pad2)*%
X41592500Y19050000D02*
X41910000Y18732500D01*
X41910000Y18732500D02*
X40386000Y18732500D01*
X41592500Y21590000D02*
X41592500Y19050000D01*
X40386000Y18732500D02*
X39624000Y19494500D01*
%TO.N,Net-(C17-Pad1)*%
X44704000Y13208000D02*
X47244000Y13208000D01*
X41910000Y13017500D02*
X44513500Y13017500D01*
X41148000Y12255500D02*
X41910000Y13017500D01*
X41148000Y10350500D02*
X41148000Y12255500D01*
X44513500Y13017500D02*
X44704000Y13208000D01*
D19*
%TO.N,Net-(J2-Pad2)*%
X9525000Y14759940D02*
X8763560Y14759940D01*
X7775500Y15748000D02*
X6350000Y15748000D01*
X3810000Y15748000D02*
X6350000Y15748000D01*
X8763560Y14759940D02*
X7775500Y15748000D01*
D20*
%TO.N,Net-(R3-Pad2)*%
X16510000Y23050500D02*
X16510000Y21509224D01*
X16510000Y21509224D02*
X16510000Y20891500D01*
X18669000Y20891500D02*
X18923000Y21145500D01*
X16510000Y20891500D02*
X18669000Y20891500D01*
%TO.N,Net-(R13-Pad1)*%
X37846000Y12890500D02*
X38100000Y12890500D01*
X36766500Y13843000D02*
X37909500Y14986000D01*
X36531550Y13843000D02*
X36766500Y13843000D01*
X35433000Y13843000D02*
X36531550Y13843000D01*
X36531550Y13843000D02*
X36893500Y13843000D01*
X36893500Y13843000D02*
X37846000Y12890500D01*
%TO.N,Net-(Q1-Pad2)*%
X17482820Y14795500D02*
X17382490Y14795500D01*
X17769840Y15082520D02*
X17482820Y14795500D01*
X17382490Y14795500D02*
X16510000Y15667990D01*
X16510000Y18142000D02*
X16510000Y18986500D01*
X23688040Y15082520D02*
X17769840Y15082520D01*
X16510000Y15667990D02*
X16510000Y18142000D01*
%TD*%
%TA.AperFunction,Conductor*%
%TO.N,GND*%
G36*
X50437621Y30155498D02*
G01*
X50484114Y30101842D01*
X50495500Y30049500D01*
X50495500Y430500D01*
X50475498Y362379D01*
X50421842Y315886D01*
X50369500Y304500D01*
X35026083Y304500D01*
X34957962Y324502D01*
X34911469Y378158D01*
X34901365Y448432D01*
X34930859Y513012D01*
X34936987Y519595D01*
X34941780Y524388D01*
X35070610Y653218D01*
X35586487Y1169095D01*
X35648799Y1203121D01*
X35675582Y1206000D01*
X36688149Y1206000D01*
X36748696Y1212509D01*
X36748704Y1212511D01*
X36885702Y1263610D01*
X36885703Y1263610D01*
X36912634Y1283771D01*
X37002761Y1351239D01*
X37002762Y1351240D01*
X37008906Y1355840D01*
X37075427Y1380651D01*
X37144801Y1365560D01*
X37159925Y1355840D01*
X37282534Y1264055D01*
X37419406Y1213005D01*
X37479902Y1206500D01*
X38100000Y1206500D01*
X38100000Y2168537D01*
X38156547Y2129984D01*
X38286173Y2090000D01*
X38387724Y2090000D01*
X38488138Y2105135D01*
X38608000Y2162857D01*
X38608000Y1206500D01*
X39228097Y1206500D01*
X39288593Y1213005D01*
X39425464Y1264055D01*
X39425465Y1264055D01*
X39542404Y1351595D01*
X39629944Y1468534D01*
X39629944Y1468535D01*
X39680994Y1605406D01*
X39687499Y1665902D01*
X39687500Y1665914D01*
X39687500Y2286000D01*
X38726968Y2286000D01*
X38777625Y2373740D01*
X38807810Y2505992D01*
X38797673Y2641265D01*
X38748113Y2767541D01*
X38727013Y2794000D01*
X39687500Y2794000D01*
X39687500Y3414085D01*
X39687499Y3414097D01*
X39680994Y3474593D01*
X39629945Y3611463D01*
X39537847Y3734490D01*
X39513036Y3801010D01*
X39528127Y3870385D01*
X39537847Y3885510D01*
X39629945Y4008536D01*
X39680994Y4145406D01*
X39687499Y4205902D01*
X39687500Y4205914D01*
X39687500Y4826000D01*
X38726968Y4826000D01*
X38777625Y4913740D01*
X38807810Y5045992D01*
X38797673Y5181265D01*
X38748113Y5307541D01*
X38727013Y5334000D01*
X39687500Y5334000D01*
X39687500Y5954085D01*
X39687499Y5954097D01*
X39680994Y6014593D01*
X39629944Y6151464D01*
X39629944Y6151465D01*
X39542404Y6268404D01*
X39425465Y6355944D01*
X39288593Y6406994D01*
X39228097Y6413499D01*
X39228085Y6413500D01*
X38608000Y6413500D01*
X38608000Y5451462D01*
X38551453Y5490016D01*
X38421827Y5530000D01*
X38320276Y5530000D01*
X38219862Y5514865D01*
X38100000Y5457142D01*
X38100000Y6413500D01*
X37479915Y6413500D01*
X37479902Y6413499D01*
X37419406Y6406994D01*
X37282535Y6355944D01*
X37282534Y6355944D01*
X37159925Y6264159D01*
X37093405Y6239348D01*
X37024031Y6254439D01*
X37008906Y6264160D01*
X37002762Y6268759D01*
X37002761Y6268761D01*
X36885704Y6356389D01*
X36748701Y6407489D01*
X36748699Y6407489D01*
X36748696Y6407490D01*
X36688149Y6413999D01*
X36688145Y6413999D01*
X36688138Y6414000D01*
X36688132Y6414000D01*
X35357082Y6414000D01*
X35288961Y6434002D01*
X35242468Y6487658D01*
X35232364Y6557932D01*
X35261858Y6622512D01*
X35267987Y6629095D01*
X36030987Y7392095D01*
X36093299Y7426121D01*
X36120082Y7429000D01*
X36624649Y7429000D01*
X36685196Y7435509D01*
X36685204Y7435511D01*
X36822202Y7486610D01*
X36822207Y7486612D01*
X36939259Y7574237D01*
X36939259Y7574238D01*
X36939261Y7574239D01*
X36983444Y7633260D01*
X37040280Y7675806D01*
X37111096Y7680870D01*
X37173408Y7646845D01*
X37185179Y7633260D01*
X37229095Y7574596D01*
X37346034Y7487055D01*
X37482906Y7436005D01*
X37543402Y7429500D01*
X37782500Y7429500D01*
X37782500Y8382000D01*
X38290500Y8382000D01*
X38290500Y7429500D01*
X38529597Y7429500D01*
X38590093Y7436005D01*
X38726964Y7487055D01*
X38726965Y7487055D01*
X38843904Y7574595D01*
X38931444Y7691534D01*
X38931444Y7691535D01*
X38982494Y7828406D01*
X38988999Y7888902D01*
X38989000Y7888914D01*
X38989000Y8191500D01*
X39941500Y8191500D01*
X39941500Y7952402D01*
X39948005Y7891906D01*
X39999055Y7755035D01*
X39999055Y7755034D01*
X40086595Y7638095D01*
X40203534Y7550555D01*
X40340406Y7499505D01*
X40400902Y7493000D01*
X40894000Y7493000D01*
X40894000Y8191500D01*
X41402000Y8191500D01*
X41402000Y7493000D01*
X41895097Y7493000D01*
X41955593Y7499505D01*
X42092464Y7550555D01*
X42092465Y7550555D01*
X42209404Y7638095D01*
X42296944Y7755034D01*
X42296944Y7755035D01*
X42347994Y7891906D01*
X42354499Y7952402D01*
X42354500Y7952414D01*
X42354500Y8191500D01*
X41402000Y8191500D01*
X40894000Y8191500D01*
X39941500Y8191500D01*
X38989000Y8191500D01*
X38989000Y8382000D01*
X38290500Y8382000D01*
X37782500Y8382000D01*
X37782500Y8764000D01*
X37802502Y8832121D01*
X37856158Y8878614D01*
X37908500Y8890000D01*
X38989000Y8890000D01*
X38989000Y9383085D01*
X38988999Y9383097D01*
X38982494Y9443593D01*
X38931444Y9580464D01*
X38931444Y9580465D01*
X38843904Y9697404D01*
X38726965Y9784944D01*
X38716241Y9788944D01*
X38659405Y9831490D01*
X38634594Y9898010D01*
X38649685Y9967384D01*
X38699887Y10017587D01*
X38760273Y10033000D01*
X38847097Y10033000D01*
X38907593Y10039505D01*
X39044464Y10090555D01*
X39044465Y10090555D01*
X39161404Y10178095D01*
X39248944Y10295034D01*
X39248944Y10295035D01*
X39299994Y10431906D01*
X39306499Y10492402D01*
X39306500Y10492414D01*
X39306500Y10731500D01*
X37972000Y10731500D01*
X37903879Y10751502D01*
X37857386Y10805158D01*
X37846000Y10857500D01*
X37846000Y11113500D01*
X37866002Y11181621D01*
X37919658Y11228114D01*
X37972000Y11239500D01*
X39306501Y11239500D01*
X39323438Y11256437D01*
X39326502Y11266872D01*
X39380158Y11313365D01*
X39380789Y11313651D01*
X39429494Y11335571D01*
X39436522Y11338482D01*
X39476548Y11353663D01*
X39493376Y11360045D01*
X39501771Y11365840D01*
X39521620Y11377034D01*
X39530923Y11381222D01*
X39530927Y11381224D01*
X39578794Y11418725D01*
X39584921Y11423233D01*
X39634972Y11457782D01*
X39675311Y11503315D01*
X39680528Y11508856D01*
X40224405Y12052733D01*
X40286717Y12086759D01*
X40357532Y12081694D01*
X40414368Y12039147D01*
X40439179Y11972627D01*
X40439500Y11963638D01*
X40439500Y11420126D01*
X40419498Y11352005D01*
X40365842Y11305512D01*
X40342472Y11297502D01*
X40340301Y11296989D01*
X40340299Y11296989D01*
X40340296Y11296988D01*
X40340292Y11296987D01*
X40259553Y11266872D01*
X40203296Y11245889D01*
X40203294Y11245888D01*
X40203292Y11245887D01*
X40086238Y11158261D01*
X39998612Y11041207D01*
X39998610Y11041202D01*
X39947511Y10904204D01*
X39947509Y10904196D01*
X39941000Y10843649D01*
X39941000Y9857350D01*
X39947509Y9796803D01*
X39947511Y9796795D01*
X39998610Y9659797D01*
X39998612Y9659792D01*
X40086238Y9542739D01*
X40145261Y9498554D01*
X40187806Y9441717D01*
X40192870Y9370902D01*
X40158844Y9308590D01*
X40145259Y9296819D01*
X40086595Y9252904D01*
X39999055Y9135965D01*
X39999055Y9135964D01*
X39948005Y8999093D01*
X39941500Y8938597D01*
X39941500Y8699500D01*
X42354500Y8699500D01*
X42354500Y8938585D01*
X42354499Y8938597D01*
X42347994Y8999093D01*
X42296944Y9135964D01*
X42296944Y9135965D01*
X42209404Y9252903D01*
X42150741Y9296818D01*
X42108194Y9353654D01*
X42103128Y9424469D01*
X42137153Y9486782D01*
X42150739Y9498554D01*
X42209760Y9542738D01*
X42297387Y9659792D01*
X42297389Y9659797D01*
X42348488Y9796795D01*
X42348490Y9796803D01*
X42354999Y9857350D01*
X42355000Y9857367D01*
X42355000Y10843632D01*
X42354999Y10843649D01*
X42348490Y10904196D01*
X42348488Y10904204D01*
X42317979Y10986000D01*
X42297389Y11041204D01*
X42228128Y11133725D01*
X42209761Y11158261D01*
X42092707Y11245887D01*
X42092706Y11245887D01*
X42092704Y11245889D01*
X41971101Y11291245D01*
X41955707Y11296987D01*
X41955705Y11296987D01*
X41955701Y11296989D01*
X41955696Y11296989D01*
X41953528Y11297502D01*
X41952010Y11298365D01*
X41948316Y11299744D01*
X41948539Y11300342D01*
X41891832Y11332632D01*
X41858922Y11395540D01*
X41856500Y11420126D01*
X41856500Y11909840D01*
X41876502Y11977961D01*
X41893405Y11998935D01*
X41922065Y12027595D01*
X41984377Y12061621D01*
X42011160Y12064500D01*
X42657149Y12064500D01*
X42717696Y12071009D01*
X42717704Y12071011D01*
X42854702Y12122110D01*
X42854707Y12122112D01*
X42971761Y12209738D01*
X43008270Y12258509D01*
X43065105Y12301056D01*
X43109138Y12309000D01*
X43275712Y12309000D01*
X43343833Y12288998D01*
X43390326Y12235342D01*
X43393767Y12227033D01*
X43427610Y12136297D01*
X43427612Y12136292D01*
X43519840Y12013092D01*
X43544651Y11946572D01*
X43529560Y11877198D01*
X43519840Y11862074D01*
X43428055Y11739465D01*
X43428055Y11739464D01*
X43377005Y11602593D01*
X43370500Y11542097D01*
X43370500Y10922000D01*
X44331032Y10922000D01*
X44280375Y10834260D01*
X44250190Y10702008D01*
X44260327Y10566735D01*
X44309887Y10440459D01*
X44330987Y10414000D01*
X43370500Y10414000D01*
X43370500Y9793902D01*
X43377005Y9733406D01*
X43428055Y9596535D01*
X43428055Y9596534D01*
X43515595Y9479595D01*
X43632534Y9392055D01*
X43769406Y9341005D01*
X43829902Y9334500D01*
X44450000Y9334500D01*
X44450000Y10296537D01*
X44506547Y10257984D01*
X44636173Y10218000D01*
X44737724Y10218000D01*
X44838138Y10233135D01*
X44958000Y10290857D01*
X44958000Y9334500D01*
X45578097Y9334500D01*
X45638593Y9341005D01*
X45775464Y9392055D01*
X45775465Y9392055D01*
X45898491Y9484152D01*
X45965011Y9508963D01*
X46034385Y9493872D01*
X46049509Y9484152D01*
X46172534Y9392055D01*
X46309406Y9341005D01*
X46369902Y9334500D01*
X46990000Y9334500D01*
X46990000Y10296537D01*
X47046547Y10257984D01*
X47176173Y10218000D01*
X47277724Y10218000D01*
X47378138Y10233135D01*
X47498000Y10290857D01*
X47498000Y9334500D01*
X48118097Y9334500D01*
X48178593Y9341005D01*
X48315464Y9392055D01*
X48315465Y9392055D01*
X48432404Y9479595D01*
X48519944Y9596534D01*
X48519944Y9596535D01*
X48570994Y9733406D01*
X48577499Y9793902D01*
X48577500Y9793914D01*
X48577500Y10414000D01*
X47616968Y10414000D01*
X47667625Y10501740D01*
X47697810Y10633992D01*
X47687673Y10769265D01*
X47638113Y10895541D01*
X47617013Y10922000D01*
X48577500Y10922000D01*
X48577500Y11542085D01*
X48577499Y11542097D01*
X48570994Y11602593D01*
X48519944Y11739464D01*
X48519943Y11739466D01*
X48428160Y11862072D01*
X48403348Y11928592D01*
X48418439Y11997966D01*
X48428159Y12013091D01*
X48520387Y12136292D01*
X48520389Y12136297D01*
X48520478Y12136534D01*
X48547803Y12209795D01*
X48571488Y12273295D01*
X48571490Y12273303D01*
X48577999Y12333850D01*
X48578000Y12333867D01*
X48578000Y14082132D01*
X48577999Y14082149D01*
X48571490Y14142696D01*
X48571488Y14142704D01*
X48546709Y14209138D01*
X48520389Y14279704D01*
X48432761Y14396761D01*
X48432759Y14396762D01*
X48428160Y14402906D01*
X48403348Y14469426D01*
X48418439Y14538800D01*
X48428159Y14553925D01*
X48519944Y14676534D01*
X48519944Y14676535D01*
X48570994Y14813406D01*
X48577499Y14873902D01*
X48577500Y14873914D01*
X48577500Y15494000D01*
X47616968Y15494000D01*
X47667625Y15581740D01*
X47697810Y15713992D01*
X47687673Y15849265D01*
X47638113Y15975541D01*
X47617013Y16002000D01*
X48577500Y16002000D01*
X48577500Y16622085D01*
X48577499Y16622097D01*
X48570994Y16682593D01*
X48519944Y16819464D01*
X48519944Y16819465D01*
X48432404Y16936404D01*
X48315465Y17023944D01*
X48178593Y17074994D01*
X48118097Y17081499D01*
X48118085Y17081500D01*
X47498000Y17081500D01*
X47498000Y16119462D01*
X47441453Y16158016D01*
X47311827Y16198000D01*
X47210276Y16198000D01*
X47109862Y16182865D01*
X46990000Y16125142D01*
X46990000Y17081500D01*
X46369915Y17081500D01*
X46369902Y17081499D01*
X46309406Y17074994D01*
X46172536Y17023945D01*
X46049510Y16931847D01*
X45982990Y16907036D01*
X45913615Y16922127D01*
X45898490Y16931847D01*
X45775463Y17023945D01*
X45638593Y17074994D01*
X45578097Y17081499D01*
X45578085Y17081500D01*
X44958000Y17081500D01*
X44958000Y16119462D01*
X44901453Y16158016D01*
X44771827Y16198000D01*
X44670276Y16198000D01*
X44569862Y16182865D01*
X44450000Y16125142D01*
X44450000Y17081500D01*
X43829915Y17081500D01*
X43829902Y17081499D01*
X43769406Y17074994D01*
X43632535Y17023944D01*
X43632534Y17023944D01*
X43515595Y16936404D01*
X43428055Y16819465D01*
X43428055Y16819464D01*
X43377005Y16682593D01*
X43370500Y16622097D01*
X43370500Y16002000D01*
X44331032Y16002000D01*
X44280375Y15914260D01*
X44250190Y15782008D01*
X44260327Y15646735D01*
X44309887Y15520459D01*
X44330987Y15494000D01*
X43370500Y15494000D01*
X43370500Y14873902D01*
X43377005Y14813406D01*
X43428055Y14676535D01*
X43428055Y14676534D01*
X43519840Y14553925D01*
X43544651Y14487405D01*
X43529559Y14418030D01*
X43519840Y14402906D01*
X43515240Y14396762D01*
X43515239Y14396761D01*
X43477848Y14346812D01*
X43427610Y14279703D01*
X43427610Y14279702D01*
X43376511Y14142704D01*
X43376509Y14142696D01*
X43370000Y14082149D01*
X43370000Y13852000D01*
X43349998Y13783879D01*
X43296342Y13737386D01*
X43244000Y13726000D01*
X43109138Y13726000D01*
X43041017Y13746002D01*
X43008270Y13776491D01*
X42971761Y13825261D01*
X42913157Y13869132D01*
X42870610Y13925968D01*
X42865546Y13996784D01*
X42899571Y14059096D01*
X42913157Y14070868D01*
X42971761Y14114738D01*
X43059387Y14231792D01*
X43059389Y14231797D01*
X43060290Y14234211D01*
X43098232Y14335936D01*
X43110488Y14368795D01*
X43110490Y14368803D01*
X43116999Y14429350D01*
X43117000Y14429367D01*
X43117000Y15415632D01*
X43116999Y15415649D01*
X43110490Y15476196D01*
X43110488Y15476204D01*
X43093981Y15520459D01*
X43059389Y15613204D01*
X43052381Y15622565D01*
X42971761Y15730261D01*
X42913157Y15774132D01*
X42870610Y15830968D01*
X42865546Y15901784D01*
X42899571Y15964096D01*
X42913157Y15975868D01*
X42971761Y16019738D01*
X43059387Y16136792D01*
X43059389Y16136797D01*
X43067304Y16158016D01*
X43087813Y16213002D01*
X43110488Y16273795D01*
X43110490Y16273803D01*
X43116999Y16334350D01*
X43117000Y16334367D01*
X43117000Y17320632D01*
X43116999Y17320649D01*
X43110490Y17381196D01*
X43110488Y17381204D01*
X43098292Y17413902D01*
X43059389Y17518204D01*
X42996256Y17602539D01*
X42971761Y17635261D01*
X42913157Y17679132D01*
X42870610Y17735968D01*
X42865546Y17806784D01*
X42899571Y17869096D01*
X42913157Y17880868D01*
X42971761Y17924738D01*
X43059387Y18041792D01*
X43059389Y18041797D01*
X43110488Y18178795D01*
X43110490Y18178803D01*
X43116999Y18239350D01*
X43117000Y18239367D01*
X43117000Y19225632D01*
X43116999Y19225649D01*
X43110490Y19286196D01*
X43110488Y19286204D01*
X43083163Y19359464D01*
X43059389Y19423204D01*
X43021947Y19473220D01*
X42971761Y19540261D01*
X42854707Y19627887D01*
X42854706Y19627887D01*
X42854704Y19627889D01*
X42717701Y19678989D01*
X42717699Y19678989D01*
X42717696Y19678990D01*
X42657149Y19685499D01*
X42657145Y19685499D01*
X42657138Y19685500D01*
X42657132Y19685500D01*
X42427000Y19685500D01*
X42358879Y19705502D01*
X42312386Y19759158D01*
X42301000Y19811500D01*
X42301000Y20390861D01*
X42321002Y20458982D01*
X42351490Y20491728D01*
X42400261Y20528238D01*
X42487887Y20645292D01*
X42487889Y20645297D01*
X42490525Y20652362D01*
X42529442Y20756702D01*
X42538988Y20782295D01*
X42538990Y20782303D01*
X42545499Y20842850D01*
X42545500Y20842867D01*
X42545500Y22337132D01*
X42545499Y22337149D01*
X42538990Y22397696D01*
X42538988Y22397704D01*
X42521762Y22443887D01*
X42487889Y22534704D01*
X42470927Y22557362D01*
X42400261Y22651761D01*
X42283207Y22739387D01*
X42283206Y22739387D01*
X42283204Y22739389D01*
X42146201Y22790489D01*
X42146199Y22790489D01*
X42146196Y22790490D01*
X42085649Y22796999D01*
X42085645Y22796999D01*
X42085638Y22797000D01*
X41099362Y22797000D01*
X41099355Y22796999D01*
X41099350Y22796999D01*
X41038803Y22790490D01*
X41038795Y22790488D01*
X40960875Y22761424D01*
X40901796Y22739389D01*
X40901794Y22739388D01*
X40901792Y22739387D01*
X40784738Y22651761D01*
X40740868Y22593157D01*
X40684032Y22550610D01*
X40613216Y22545546D01*
X40550904Y22579571D01*
X40539132Y22593157D01*
X40495261Y22651761D01*
X40378207Y22739387D01*
X40378206Y22739387D01*
X40378204Y22739389D01*
X40241201Y22790489D01*
X40241199Y22790489D01*
X40241196Y22790490D01*
X40180649Y22796999D01*
X40180645Y22796999D01*
X40180638Y22797000D01*
X39194362Y22797000D01*
X39194355Y22796999D01*
X39194350Y22796999D01*
X39133803Y22790490D01*
X39133795Y22790488D01*
X39055875Y22761424D01*
X38996796Y22739389D01*
X38996794Y22739388D01*
X38996792Y22739387D01*
X38879738Y22651761D01*
X38792112Y22534707D01*
X38792111Y22534704D01*
X38745695Y22410261D01*
X38703148Y22353426D01*
X38636628Y22328616D01*
X38567254Y22343708D01*
X38517052Y22393911D01*
X38509584Y22410264D01*
X38486945Y22470963D01*
X38486944Y22470965D01*
X38399404Y22587904D01*
X38282465Y22675444D01*
X38145593Y22726494D01*
X38085097Y22732999D01*
X38085085Y22733000D01*
X37592000Y22733000D01*
X37592000Y21716499D01*
X37571998Y21648378D01*
X37518342Y21601885D01*
X37466000Y21590499D01*
X37210000Y21590499D01*
X37141879Y21610501D01*
X37095386Y21664157D01*
X37084000Y21716499D01*
X37084000Y22733000D01*
X36590915Y22733000D01*
X36590902Y22732999D01*
X36530406Y22726494D01*
X36393535Y22675444D01*
X36393534Y22675444D01*
X36276595Y22587904D01*
X36189055Y22470965D01*
X36185056Y22460241D01*
X36142510Y22403405D01*
X36075990Y22378594D01*
X36006616Y22393685D01*
X35956413Y22443887D01*
X35941000Y22504273D01*
X35941000Y22845085D01*
X35940999Y22845097D01*
X35934494Y22905593D01*
X35883444Y23042464D01*
X35883444Y23042465D01*
X35795904Y23159404D01*
X35678965Y23246944D01*
X35542093Y23297994D01*
X35481597Y23304499D01*
X35481585Y23304500D01*
X35242500Y23304500D01*
X35242500Y21970000D01*
X35222498Y21901879D01*
X35168842Y21855386D01*
X35116500Y21844000D01*
X34860500Y21844000D01*
X34792379Y21864002D01*
X34745886Y21917658D01*
X34734500Y21970000D01*
X34734500Y23304500D01*
X34495415Y23304500D01*
X34495402Y23304499D01*
X34434906Y23297994D01*
X34298035Y23246944D01*
X34298034Y23246944D01*
X34181095Y23159404D01*
X34137180Y23100740D01*
X34080344Y23058193D01*
X34009528Y23053129D01*
X33947216Y23087154D01*
X33935444Y23100740D01*
X33891261Y23159761D01*
X33774207Y23247387D01*
X33774206Y23247387D01*
X33774204Y23247389D01*
X33637201Y23298489D01*
X33637199Y23298489D01*
X33637196Y23298490D01*
X33576649Y23304999D01*
X33576645Y23304999D01*
X33576638Y23305000D01*
X32590362Y23305000D01*
X32590355Y23304999D01*
X32590350Y23304999D01*
X32529803Y23298490D01*
X32529795Y23298488D01*
X32451875Y23269424D01*
X32392796Y23247389D01*
X32392794Y23247388D01*
X32392792Y23247387D01*
X32275738Y23159761D01*
X32188112Y23042707D01*
X32188110Y23042702D01*
X32137011Y22905704D01*
X32137009Y22905696D01*
X32130500Y22845149D01*
X32130500Y21350850D01*
X32137009Y21290303D01*
X32137011Y21290295D01*
X32188110Y21153297D01*
X32188112Y21153292D01*
X32275739Y21036237D01*
X32334209Y20992467D01*
X32376755Y20935631D01*
X32381819Y20864815D01*
X32359567Y20816091D01*
X32315112Y20756707D01*
X32315110Y20756702D01*
X32264011Y20619704D01*
X32264009Y20619696D01*
X32257500Y20559149D01*
X32257500Y19913160D01*
X32237498Y19845039D01*
X32220595Y19824065D01*
X31965357Y19568827D01*
X31959817Y19563611D01*
X31933461Y19540261D01*
X31914283Y19523271D01*
X31879734Y19473220D01*
X31875226Y19467093D01*
X31837725Y19419226D01*
X31837723Y19419222D01*
X31833535Y19409919D01*
X31822341Y19390070D01*
X31816546Y19381675D01*
X31816546Y19381674D01*
X31794983Y19324821D01*
X31792072Y19317794D01*
X31767112Y19262332D01*
X31767111Y19262329D01*
X31765271Y19252289D01*
X31759150Y19230336D01*
X31757369Y19225638D01*
X31755534Y19220798D01*
X31755533Y19220794D01*
X31748204Y19160433D01*
X31747059Y19152910D01*
X31736098Y19093094D01*
X31739770Y19032390D01*
X31740000Y19024782D01*
X31740000Y18598137D01*
X31719998Y18530016D01*
X31689511Y18497271D01*
X31640739Y18460761D01*
X31640738Y18460760D01*
X31553112Y18343707D01*
X31553110Y18343702D01*
X31502011Y18206704D01*
X31502009Y18206696D01*
X31495500Y18146149D01*
X31495500Y16651850D01*
X31502009Y16591303D01*
X31502011Y16591295D01*
X31553110Y16454297D01*
X31553112Y16454292D01*
X31640738Y16337238D01*
X31689510Y16300728D01*
X31732056Y16243892D01*
X31740000Y16199861D01*
X31740000Y15312660D01*
X31719998Y15244539D01*
X31703095Y15223565D01*
X31483845Y15004315D01*
X31421533Y14970289D01*
X31350718Y14975354D01*
X31297352Y15013475D01*
X31197773Y15134813D01*
X31052660Y15253904D01*
X30887102Y15342397D01*
X30762579Y15380169D01*
X30710062Y15411647D01*
X30404909Y15716803D01*
X30372601Y15749111D01*
X30339905Y15769654D01*
X30328380Y15777831D01*
X30298190Y15801909D01*
X30263397Y15818663D01*
X30251038Y15825493D01*
X30218335Y15846043D01*
X30181886Y15858795D01*
X30168841Y15864198D01*
X30134040Y15880959D01*
X30096386Y15889552D01*
X30082821Y15893460D01*
X30046367Y15906217D01*
X30007982Y15910541D01*
X29994088Y15912900D01*
X29956417Y15921500D01*
X29956413Y15921500D01*
X29470082Y15921500D01*
X29401961Y15941502D01*
X29380987Y15958405D01*
X29044487Y16294905D01*
X29010461Y16357217D01*
X29015526Y16428032D01*
X29058073Y16484868D01*
X29124593Y16509679D01*
X29133582Y16510000D01*
X29210000Y16510000D01*
X29210000Y19415702D01*
X29230002Y19483823D01*
X29277812Y19527461D01*
X29281562Y19529413D01*
X29281568Y19529417D01*
X29281576Y19529421D01*
X29516349Y19678988D01*
X29668113Y19775672D01*
X29714806Y19811500D01*
X29955396Y19996111D01*
X30031724Y20054679D01*
X30031726Y20054681D01*
X30031730Y20054684D01*
X30369639Y20364321D01*
X30679276Y20702230D01*
X30958283Y21065840D01*
X31204539Y21452384D01*
X31248517Y21536865D01*
X31416165Y21858911D01*
X31538854Y22155111D01*
X31591559Y22282352D01*
X31729379Y22719460D01*
X31828578Y23166916D01*
X31888400Y23621316D01*
X31906944Y24046032D01*
X31908392Y24079198D01*
X31908392Y24079201D01*
X31900289Y24264796D01*
X31888400Y24537084D01*
X31828578Y24991484D01*
X31729379Y25438940D01*
X31591559Y25876048D01*
X31416168Y26299481D01*
X31416167Y26299481D01*
X31416165Y26299488D01*
X31204548Y26705998D01*
X31204539Y26706016D01*
X30958283Y27092560D01*
X30679276Y27456170D01*
X30369639Y27794079D01*
X30031730Y28103716D01*
X29668120Y28382723D01*
X29281576Y28628979D01*
X29133166Y28706236D01*
X28875048Y28840605D01*
X28875041Y28840608D01*
X28451608Y29015999D01*
X28014500Y29153819D01*
X27567044Y29253018D01*
X27112644Y29312840D01*
X26746336Y29328833D01*
X26654761Y29332832D01*
X26654759Y29332832D01*
X26540289Y29327834D01*
X26196876Y29312840D01*
X25742476Y29253018D01*
X25295020Y29153819D01*
X24857912Y29015999D01*
X24558488Y28891974D01*
X24434471Y28840605D01*
X24027961Y28628988D01*
X24027944Y28628979D01*
X23641400Y28382723D01*
X23277790Y28103716D01*
X22939881Y27794079D01*
X22630244Y27456170D01*
X22630241Y27456166D01*
X22630239Y27456164D01*
X22351232Y27092553D01*
X22238203Y26915133D01*
X22104981Y26706016D01*
X22104976Y26706007D01*
X22104971Y26705998D01*
X21893354Y26299488D01*
X21791296Y26053095D01*
X21720231Y25881527D01*
X21717962Y25876050D01*
X21717954Y25876028D01*
X21580143Y25438948D01*
X21580139Y25438932D01*
X21480943Y24991489D01*
X21480941Y24991480D01*
X21421120Y24537091D01*
X21421119Y24537080D01*
X21401128Y24079201D01*
X21401128Y24079198D01*
X21412487Y23819040D01*
X21395475Y23750112D01*
X21343899Y23701323D01*
X21274133Y23688163D01*
X21236264Y23698038D01*
X20828000Y23876000D01*
X20827999Y23876000D01*
X20127330Y23876000D01*
X20059209Y23896002D01*
X20012716Y23949658D01*
X20002612Y24019932D01*
X20032106Y24084512D01*
X20051821Y24102868D01*
X20111761Y24147738D01*
X20199387Y24264792D01*
X20199389Y24264797D01*
X20250488Y24401795D01*
X20250490Y24401803D01*
X20256999Y24462350D01*
X20257000Y24462367D01*
X20257000Y25448632D01*
X20256999Y25448649D01*
X20250490Y25509196D01*
X20250488Y25509204D01*
X20243460Y25528045D01*
X20199389Y25646204D01*
X20111761Y25763261D01*
X20110345Y25764321D01*
X20052740Y25807444D01*
X20010193Y25864280D01*
X20005129Y25935095D01*
X20039154Y25997408D01*
X20052740Y26009180D01*
X20111404Y26053095D01*
X20198944Y26170034D01*
X20198944Y26170035D01*
X20249994Y26306906D01*
X20256499Y26367402D01*
X20256500Y26367414D01*
X20256500Y26606500D01*
X17843500Y26606500D01*
X17843500Y26367402D01*
X17850005Y26306906D01*
X17901055Y26170035D01*
X17901055Y26170034D01*
X17988596Y26053095D01*
X18047260Y26009179D01*
X18089806Y25952343D01*
X18094870Y25881527D01*
X18060845Y25819216D01*
X18047261Y25807445D01*
X18022800Y25789133D01*
X17956280Y25764321D01*
X17947289Y25764000D01*
X17612711Y25764000D01*
X17544590Y25784002D01*
X17537202Y25789132D01*
X17454707Y25850887D01*
X17454706Y25850887D01*
X17454704Y25850889D01*
X17317701Y25901989D01*
X17317699Y25901989D01*
X17317696Y25901990D01*
X17257149Y25908499D01*
X17257145Y25908499D01*
X17257138Y25908500D01*
X15762862Y25908500D01*
X15762855Y25908499D01*
X15762850Y25908499D01*
X15702303Y25901990D01*
X15702295Y25901988D01*
X15624375Y25872924D01*
X15565296Y25850889D01*
X15565294Y25850888D01*
X15565292Y25850887D01*
X15448238Y25763261D01*
X15360612Y25646207D01*
X15360610Y25646202D01*
X15309511Y25509204D01*
X15309509Y25509196D01*
X15303000Y25448649D01*
X15303000Y24462350D01*
X15309509Y24401803D01*
X15309511Y24401795D01*
X15360610Y24264797D01*
X15360612Y24264792D01*
X15448238Y24147738D01*
X15506843Y24103868D01*
X15549390Y24047032D01*
X15554454Y23976216D01*
X15520429Y23913904D01*
X15506837Y23902128D01*
X15505501Y23901128D01*
X15438980Y23876321D01*
X15429998Y23876000D01*
X14986000Y23876000D01*
X15000808Y19542086D01*
X14981039Y19473897D01*
X14927543Y19427221D01*
X14874915Y19415655D01*
X10857601Y19412332D01*
X10789467Y19432278D01*
X10742930Y19485895D01*
X10731500Y19538332D01*
X10731500Y19748500D01*
X8318500Y19748500D01*
X8318500Y19509402D01*
X8325005Y19448906D01*
X8376055Y19312035D01*
X8376055Y19312034D01*
X8463596Y19195095D01*
X8522260Y19151179D01*
X8564806Y19094343D01*
X8569870Y19023527D01*
X8535845Y18961216D01*
X8522260Y18949444D01*
X8463239Y18905261D01*
X8463238Y18905259D01*
X8463237Y18905259D01*
X8375612Y18788207D01*
X8375610Y18788202D01*
X8324511Y18651204D01*
X8324509Y18651196D01*
X8318000Y18590649D01*
X8318000Y17604350D01*
X8324509Y17543803D01*
X8324510Y17543802D01*
X8324510Y17543799D01*
X8324511Y17543799D01*
X8337490Y17509000D01*
X8368727Y17425253D01*
X8373792Y17354437D01*
X8368727Y17337189D01*
X8342526Y17266939D01*
X8324510Y17218637D01*
X8324509Y17218636D01*
X8318000Y17158089D01*
X8318000Y16589961D01*
X8297998Y16521840D01*
X8244342Y16475347D01*
X8174068Y16465243D01*
X8135570Y16479384D01*
X8134891Y16477973D01*
X8128515Y16481043D01*
X8092066Y16493795D01*
X8079021Y16499198D01*
X8044220Y16515959D01*
X8006566Y16524552D01*
X7993001Y16528460D01*
X7956547Y16541217D01*
X7918162Y16545541D01*
X7904268Y16547900D01*
X7866597Y16556500D01*
X7866593Y16556500D01*
X7804237Y16556500D01*
X7736116Y16576502D01*
X7689623Y16630158D01*
X7678959Y16669033D01*
X7677490Y16682696D01*
X7677488Y16682704D01*
X7659462Y16731033D01*
X7626389Y16819704D01*
X7538761Y16936761D01*
X7538759Y16936762D01*
X7534160Y16942906D01*
X7509348Y17009426D01*
X7524439Y17078800D01*
X7534159Y17093925D01*
X7625944Y17216534D01*
X7625944Y17216535D01*
X7676994Y17353406D01*
X7683499Y17413902D01*
X7683500Y17413914D01*
X7683500Y18034000D01*
X6722968Y18034000D01*
X6773625Y18121740D01*
X6803810Y18253992D01*
X6793673Y18389265D01*
X6744113Y18515541D01*
X6723013Y18542000D01*
X7683500Y18542000D01*
X7683500Y19162085D01*
X7683499Y19162097D01*
X7676994Y19222593D01*
X7625944Y19359464D01*
X7625944Y19359465D01*
X7538404Y19476404D01*
X7421465Y19563944D01*
X7284593Y19614994D01*
X7224097Y19621499D01*
X7224085Y19621500D01*
X6604000Y19621500D01*
X6604000Y18659462D01*
X6547453Y18698016D01*
X6417827Y18738000D01*
X6316276Y18738000D01*
X6215862Y18722865D01*
X6096000Y18665142D01*
X6096000Y19621500D01*
X5475915Y19621500D01*
X5475902Y19621499D01*
X5415406Y19614994D01*
X5278536Y19563945D01*
X5155510Y19471847D01*
X5088990Y19447036D01*
X5019615Y19462127D01*
X5004490Y19471847D01*
X4881463Y19563945D01*
X4744593Y19614994D01*
X4684097Y19621499D01*
X4684085Y19621500D01*
X4064000Y19621500D01*
X4064000Y18659462D01*
X4007453Y18698016D01*
X3877827Y18738000D01*
X3776276Y18738000D01*
X3675862Y18722865D01*
X3556000Y18665142D01*
X3556000Y19621500D01*
X2935915Y19621500D01*
X2935902Y19621499D01*
X2875406Y19614994D01*
X2738535Y19563944D01*
X2738534Y19563944D01*
X2621595Y19476404D01*
X2534055Y19359465D01*
X2534055Y19359464D01*
X2483005Y19222593D01*
X2476500Y19162097D01*
X2476500Y18542000D01*
X3437032Y18542000D01*
X3386375Y18454260D01*
X3356190Y18322008D01*
X3366327Y18186735D01*
X3415887Y18060459D01*
X3436987Y18034000D01*
X2476500Y18034000D01*
X2476500Y17413902D01*
X2483005Y17353406D01*
X2534055Y17216535D01*
X2534055Y17216534D01*
X2625840Y17093925D01*
X2650651Y17027405D01*
X2635559Y16958030D01*
X2625840Y16942906D01*
X2621240Y16936762D01*
X2621239Y16936761D01*
X2574370Y16874151D01*
X2533610Y16819703D01*
X2533610Y16819702D01*
X2482511Y16682704D01*
X2482509Y16682696D01*
X2476000Y16622149D01*
X2476000Y14873850D01*
X2482509Y14813303D01*
X2482511Y14813295D01*
X2533610Y14676297D01*
X2533612Y14676292D01*
X2625840Y14553092D01*
X2650651Y14486572D01*
X2635560Y14417198D01*
X2625840Y14402074D01*
X2534055Y14279465D01*
X2534055Y14279464D01*
X2483005Y14142593D01*
X2476500Y14082097D01*
X2476500Y13462000D01*
X3437032Y13462000D01*
X3386375Y13374260D01*
X3356190Y13242008D01*
X3366327Y13106735D01*
X3415887Y12980459D01*
X3436987Y12954000D01*
X2476500Y12954000D01*
X2476500Y12333902D01*
X2483005Y12273406D01*
X2534055Y12136535D01*
X2534055Y12136534D01*
X2621595Y12019595D01*
X2738534Y11932055D01*
X2875406Y11881005D01*
X2935902Y11874500D01*
X3556000Y11874500D01*
X3556000Y12836537D01*
X3612547Y12797984D01*
X3742173Y12758000D01*
X3843724Y12758000D01*
X3944138Y12773135D01*
X4064000Y12830857D01*
X4064000Y11874500D01*
X4684097Y11874500D01*
X4744593Y11881005D01*
X4881464Y11932055D01*
X4881465Y11932055D01*
X5004491Y12024152D01*
X5071011Y12048963D01*
X5140385Y12033872D01*
X5155509Y12024152D01*
X5278534Y11932055D01*
X5415406Y11881005D01*
X5475902Y11874500D01*
X6096000Y11874500D01*
X6096000Y12836537D01*
X6152547Y12797984D01*
X6282173Y12758000D01*
X6383724Y12758000D01*
X6484138Y12773135D01*
X6604000Y12830857D01*
X6604000Y11874500D01*
X7224097Y11874500D01*
X7284593Y11881005D01*
X7421464Y11932055D01*
X7421465Y11932055D01*
X7538404Y12019595D01*
X7625944Y12136534D01*
X7625944Y12136535D01*
X7676994Y12273406D01*
X7683499Y12333902D01*
X7683500Y12333914D01*
X7683500Y12954000D01*
X6722968Y12954000D01*
X6773625Y13041740D01*
X6803810Y13173992D01*
X6793673Y13309265D01*
X6744113Y13435541D01*
X6723013Y13462000D01*
X7683500Y13462000D01*
X7683500Y14082085D01*
X7683499Y14082097D01*
X7676994Y14142593D01*
X7625944Y14279464D01*
X7625943Y14279466D01*
X7534160Y14402072D01*
X7509348Y14468592D01*
X7524439Y14537966D01*
X7534159Y14553091D01*
X7572392Y14604164D01*
X7629228Y14646711D01*
X7700044Y14651775D01*
X7762355Y14617751D01*
X8127449Y14252659D01*
X8127449Y14252658D01*
X8256274Y14123832D01*
X8256277Y14123829D01*
X8288975Y14103284D01*
X8300493Y14095112D01*
X8330693Y14071029D01*
X8365485Y14054274D01*
X8377849Y14047440D01*
X8384616Y14043188D01*
X8418447Y14012012D01*
X8463240Y13952177D01*
X8580292Y13864552D01*
X8580297Y13864550D01*
X8717295Y13813451D01*
X8717303Y13813449D01*
X8741364Y13810863D01*
X8806957Y13783693D01*
X8847447Y13725375D01*
X8853895Y13685461D01*
X8849360Y9067800D01*
X15496842Y9067800D01*
X15564963Y9047798D01*
X15611456Y8994142D01*
X15621560Y8923868D01*
X15619855Y8914529D01*
X15547503Y8588169D01*
X15547501Y8588160D01*
X15487680Y8133771D01*
X15487679Y8133760D01*
X15467688Y7675881D01*
X15467688Y7675878D01*
X15487679Y7217999D01*
X15487680Y7217988D01*
X15547501Y6763599D01*
X15547503Y6763590D01*
X15646699Y6316147D01*
X15646703Y6316131D01*
X15784514Y5879051D01*
X15784522Y5879029D01*
X15959914Y5455591D01*
X16171531Y5049081D01*
X16171541Y5049064D01*
X16417792Y4662526D01*
X16696799Y4298915D01*
X16696810Y4298903D01*
X17006441Y3961001D01*
X17344343Y3651370D01*
X17344355Y3651359D01*
X17707966Y3372352D01*
X18094504Y3126101D01*
X18094521Y3126091D01*
X18501031Y2914474D01*
X18924469Y2739082D01*
X18924491Y2739074D01*
X19361571Y2601263D01*
X19361587Y2601259D01*
X19809030Y2502063D01*
X19809039Y2502061D01*
X20263428Y2442240D01*
X20263439Y2442239D01*
X20721319Y2422248D01*
X20721320Y2422248D01*
X20721321Y2422248D01*
X21179200Y2442239D01*
X21179211Y2442240D01*
X21633600Y2502061D01*
X21633609Y2502063D01*
X22081052Y2601259D01*
X22081068Y2601263D01*
X22518148Y2739074D01*
X22518162Y2739079D01*
X22518168Y2739081D01*
X22650755Y2794000D01*
X22941608Y2914474D01*
X23348118Y3126091D01*
X23348127Y3126096D01*
X23348136Y3126101D01*
X23557253Y3259323D01*
X23734673Y3372352D01*
X23789077Y3414097D01*
X24046290Y3611463D01*
X24098284Y3651359D01*
X24098286Y3651361D01*
X24098290Y3651364D01*
X24436199Y3961001D01*
X24745836Y4298910D01*
X25024843Y4662520D01*
X25271099Y5049064D01*
X25339919Y5181265D01*
X25482725Y5455591D01*
X25626998Y5803900D01*
X25658119Y5879032D01*
X25795939Y6316140D01*
X25895138Y6763596D01*
X25954960Y7217996D01*
X25964195Y7429500D01*
X26733500Y7429500D01*
X26733500Y7190402D01*
X26740005Y7129906D01*
X26791055Y6993035D01*
X26791055Y6993034D01*
X26878595Y6876095D01*
X26995534Y6788555D01*
X27132406Y6737505D01*
X27192902Y6731000D01*
X27686000Y6731000D01*
X27686000Y7429500D01*
X28194000Y7429500D01*
X28194000Y6731000D01*
X28687097Y6731000D01*
X28747593Y6737505D01*
X28884464Y6788555D01*
X28884465Y6788555D01*
X29007491Y6880652D01*
X29074011Y6905463D01*
X29143385Y6890372D01*
X29158509Y6880652D01*
X29281534Y6788555D01*
X29418406Y6737505D01*
X29478902Y6731000D01*
X29972000Y6731000D01*
X29972000Y7429500D01*
X30480000Y7429500D01*
X30480000Y6731000D01*
X30973097Y6731000D01*
X31033593Y6737505D01*
X31170465Y6788555D01*
X31178372Y6792873D01*
X31179668Y6790498D01*
X31233022Y6810393D01*
X31302395Y6795295D01*
X31309192Y6790926D01*
X31313534Y6788555D01*
X31450406Y6737505D01*
X31510902Y6731000D01*
X32004000Y6731000D01*
X32004000Y7429500D01*
X30480000Y7429500D01*
X29972000Y7429500D01*
X28194000Y7429500D01*
X27686000Y7429500D01*
X26733500Y7429500D01*
X25964195Y7429500D01*
X25974952Y7675880D01*
X25974268Y7691535D01*
X25963529Y7937500D01*
X25954960Y8133764D01*
X25895138Y8588164D01*
X25795939Y9035620D01*
X25658119Y9472728D01*
X25482728Y9896161D01*
X25482727Y9896161D01*
X25482725Y9896168D01*
X25307310Y10233135D01*
X25271099Y10302696D01*
X25034529Y10674034D01*
X25014798Y10742234D01*
X25035070Y10810275D01*
X25088910Y10856554D01*
X25139546Y10867728D01*
X26467655Y10880913D01*
X26465161Y11017788D01*
X26483918Y11086262D01*
X26536718Y11133725D01*
X26606796Y11145108D01*
X26635170Y11138140D01*
X26682126Y11120627D01*
X26687802Y11118510D01*
X26687803Y11118509D01*
X26748350Y11112000D01*
X26748362Y11112000D01*
X27105500Y11112000D01*
X27173621Y11091998D01*
X27220114Y11038342D01*
X27231500Y10986000D01*
X27231500Y10658126D01*
X27211498Y10590005D01*
X27157842Y10543512D01*
X27134472Y10535502D01*
X27132301Y10534989D01*
X27132299Y10534989D01*
X27132296Y10534988D01*
X27132292Y10534987D01*
X27048129Y10503595D01*
X26995296Y10483889D01*
X26995294Y10483888D01*
X26995292Y10483887D01*
X26878238Y10396261D01*
X26790612Y10279207D01*
X26790610Y10279202D01*
X26739511Y10142204D01*
X26739509Y10142196D01*
X26733000Y10081649D01*
X26733000Y9095350D01*
X26739509Y9034803D01*
X26739511Y9034795D01*
X26790610Y8897797D01*
X26790612Y8897792D01*
X26878238Y8780739D01*
X26937261Y8736554D01*
X26979806Y8679717D01*
X26984870Y8608902D01*
X26950844Y8546590D01*
X26937259Y8534819D01*
X26878595Y8490904D01*
X26791055Y8373965D01*
X26791055Y8373964D01*
X26740005Y8237093D01*
X26733500Y8176597D01*
X26733500Y7937500D01*
X33464500Y7937500D01*
X33464500Y8176585D01*
X33464499Y8176597D01*
X33457994Y8237093D01*
X33406944Y8373964D01*
X33406944Y8373965D01*
X33319404Y8490903D01*
X33260741Y8534818D01*
X33218194Y8591654D01*
X33213128Y8662469D01*
X33247153Y8724782D01*
X33260739Y8736554D01*
X33319760Y8780738D01*
X33407387Y8897792D01*
X33407389Y8897797D01*
X33458488Y9034795D01*
X33458490Y9034803D01*
X33464999Y9095350D01*
X33465000Y9095367D01*
X33465000Y10081632D01*
X33464999Y10081649D01*
X33458490Y10142196D01*
X33458488Y10142204D01*
X33451460Y10161045D01*
X33407389Y10279204D01*
X33355937Y10347935D01*
X33319761Y10396261D01*
X33202707Y10483887D01*
X33202706Y10483887D01*
X33202704Y10483889D01*
X33083552Y10528331D01*
X33065704Y10534988D01*
X33065703Y10534988D01*
X33065701Y10534989D01*
X33065699Y10534989D01*
X33065696Y10534990D01*
X33005149Y10541499D01*
X33005145Y10541499D01*
X33005138Y10541500D01*
X31510862Y10541500D01*
X31510855Y10541499D01*
X31510850Y10541499D01*
X31450303Y10534990D01*
X31450302Y10534989D01*
X31450299Y10534989D01*
X31408331Y10519335D01*
X31351951Y10511998D01*
X31256215Y10521427D01*
X31186123Y10528331D01*
X31186118Y10528331D01*
X31157365Y10525498D01*
X31108702Y10520706D01*
X31052319Y10528044D01*
X31033701Y10534989D01*
X31033697Y10534989D01*
X31033696Y10534990D01*
X30973149Y10541499D01*
X30973145Y10541499D01*
X30973138Y10541500D01*
X30973132Y10541500D01*
X30602842Y10541500D01*
X30534721Y10561502D01*
X30488228Y10615158D01*
X30478124Y10685432D01*
X30507618Y10750012D01*
X30522448Y10763297D01*
X30522066Y10763729D01*
X30527771Y10768783D01*
X30533546Y10775301D01*
X30568111Y10814317D01*
X30573327Y10819857D01*
X34187791Y14434321D01*
X34250103Y14468347D01*
X34320918Y14463282D01*
X34377754Y14420735D01*
X34402565Y14354215D01*
X34394942Y14301194D01*
X34359526Y14206239D01*
X34359510Y14206197D01*
X34359509Y14206196D01*
X34353000Y14145649D01*
X34353000Y13540350D01*
X34359509Y13479803D01*
X34359511Y13479795D01*
X34410610Y13342797D01*
X34410612Y13342792D01*
X34454992Y13283509D01*
X34479803Y13216989D01*
X34464712Y13147615D01*
X34454992Y13132491D01*
X34410612Y13073207D01*
X34410610Y13073202D01*
X34359511Y12936204D01*
X34359509Y12936196D01*
X34353000Y12875649D01*
X34353000Y12270350D01*
X34359509Y12209803D01*
X34359511Y12209795D01*
X34410610Y12072797D01*
X34410612Y12072792D01*
X34454992Y12013509D01*
X34479803Y11946989D01*
X34464712Y11877615D01*
X34454992Y11862491D01*
X34410612Y11803207D01*
X34410610Y11803202D01*
X34359511Y11666204D01*
X34359509Y11666196D01*
X34353000Y11605649D01*
X34353000Y11000350D01*
X34359509Y10939803D01*
X34359511Y10939795D01*
X34410610Y10802797D01*
X34410612Y10802792D01*
X34498238Y10685738D01*
X34615292Y10598112D01*
X34615297Y10598110D01*
X34752295Y10547011D01*
X34752303Y10547009D01*
X34812850Y10540500D01*
X34812862Y10540500D01*
X35141340Y10540500D01*
X35209461Y10520498D01*
X35230435Y10503595D01*
X35386095Y10347935D01*
X35420121Y10285623D01*
X35423000Y10258840D01*
X35423000Y9835137D01*
X35402998Y9767016D01*
X35372511Y9734271D01*
X35323739Y9697761D01*
X35323738Y9697760D01*
X35236112Y9580707D01*
X35236110Y9580702D01*
X35185011Y9443704D01*
X35185009Y9443696D01*
X35178500Y9383149D01*
X35178500Y8878582D01*
X35158498Y8810461D01*
X35141595Y8789487D01*
X33679595Y7327487D01*
X33617283Y7293461D01*
X33546468Y7298526D01*
X33489632Y7341073D01*
X33464821Y7407593D01*
X33464500Y7416582D01*
X33464500Y7429500D01*
X32512000Y7429500D01*
X32512000Y6731000D01*
X32778918Y6731000D01*
X32847039Y6710998D01*
X32893532Y6657342D01*
X32903636Y6587068D01*
X32874142Y6522488D01*
X32868013Y6515905D01*
X32803013Y6450905D01*
X32740701Y6416879D01*
X32713918Y6414000D01*
X32399862Y6414000D01*
X32399855Y6413999D01*
X32399850Y6413999D01*
X32339303Y6407490D01*
X32339295Y6407488D01*
X32261375Y6378424D01*
X32202296Y6356389D01*
X32085239Y6268761D01*
X32085236Y6268758D01*
X32079510Y6264471D01*
X32012990Y6239660D01*
X31943615Y6254751D01*
X31928490Y6264471D01*
X31922763Y6268758D01*
X31922761Y6268761D01*
X31805704Y6356389D01*
X31668701Y6407489D01*
X31668699Y6407489D01*
X31668696Y6407490D01*
X31608149Y6413999D01*
X31608145Y6413999D01*
X31608138Y6414000D01*
X29859862Y6414000D01*
X29859855Y6413999D01*
X29859850Y6413999D01*
X29799303Y6407490D01*
X29799295Y6407488D01*
X29721375Y6378424D01*
X29662296Y6356389D01*
X29662294Y6356388D01*
X29662292Y6356387D01*
X29539091Y6264159D01*
X29472571Y6239348D01*
X29403197Y6254439D01*
X29388072Y6264160D01*
X29265466Y6355943D01*
X29265464Y6355944D01*
X29128593Y6406994D01*
X29068097Y6413499D01*
X29068085Y6413500D01*
X28448000Y6413500D01*
X28448000Y5451462D01*
X28391453Y5490016D01*
X28261827Y5530000D01*
X28160276Y5530000D01*
X28059862Y5514865D01*
X27940000Y5457142D01*
X27940000Y6413500D01*
X27319915Y6413500D01*
X27319902Y6413499D01*
X27259406Y6406994D01*
X27122535Y6355944D01*
X27122534Y6355944D01*
X27005595Y6268404D01*
X26918055Y6151465D01*
X26918055Y6151464D01*
X26867005Y6014593D01*
X26860500Y5954097D01*
X26860500Y5334000D01*
X27821032Y5334000D01*
X27770375Y5246260D01*
X27740190Y5114008D01*
X27750327Y4978735D01*
X27799887Y4852459D01*
X27820987Y4826000D01*
X26860500Y4826000D01*
X26860500Y4205902D01*
X26867005Y4145406D01*
X26918055Y4008535D01*
X26918055Y4008534D01*
X27010152Y3885509D01*
X27034963Y3818989D01*
X27019872Y3749615D01*
X27010152Y3734491D01*
X26918055Y3611465D01*
X26918055Y3611464D01*
X26867005Y3474593D01*
X26860500Y3414097D01*
X26860500Y2794000D01*
X27821032Y2794000D01*
X27770375Y2706260D01*
X27740190Y2574008D01*
X27750327Y2438735D01*
X27799887Y2312459D01*
X27820987Y2286000D01*
X26860500Y2286000D01*
X26860500Y1665902D01*
X26867005Y1605406D01*
X26918055Y1468535D01*
X26918055Y1468534D01*
X27005595Y1351595D01*
X27122534Y1264055D01*
X27259406Y1213005D01*
X27319902Y1206500D01*
X27940000Y1206500D01*
X27940000Y2168537D01*
X27996547Y2129984D01*
X28126173Y2090000D01*
X28227724Y2090000D01*
X28328138Y2105135D01*
X28448000Y2162857D01*
X28448000Y1206500D01*
X29068097Y1206500D01*
X29128593Y1213005D01*
X29265464Y1264055D01*
X29265465Y1264055D01*
X29388074Y1355840D01*
X29454594Y1380651D01*
X29523968Y1365560D01*
X29539092Y1355840D01*
X29662292Y1263612D01*
X29662297Y1263610D01*
X29799295Y1212511D01*
X29799303Y1212509D01*
X29859850Y1206000D01*
X29859862Y1206000D01*
X30872418Y1206000D01*
X30940539Y1185998D01*
X30961513Y1169095D01*
X31477390Y653218D01*
X31606220Y524388D01*
X31611013Y519595D01*
X31645038Y457283D01*
X31639973Y386467D01*
X31597426Y329632D01*
X31530905Y304821D01*
X31521917Y304500D01*
X26784083Y304500D01*
X26715962Y324502D01*
X26669469Y378158D01*
X26658104Y428205D01*
X26654004Y653218D01*
X26641796Y1323264D01*
X26641798Y1323047D01*
X26653848Y432204D01*
X26634770Y363819D01*
X26581748Y316605D01*
X26527860Y304500D01*
X430500Y304500D01*
X362379Y324502D01*
X315886Y378158D01*
X304500Y430500D01*
X304500Y6263302D01*
X12209780Y6263302D01*
X12216285Y6202806D01*
X12267335Y6065935D01*
X12267335Y6065934D01*
X12354875Y5948995D01*
X12471814Y5861455D01*
X12608686Y5810405D01*
X12669182Y5803900D01*
X13289280Y5803900D01*
X13289280Y6765937D01*
X13345827Y6727384D01*
X13475453Y6687400D01*
X13577004Y6687400D01*
X13677418Y6702535D01*
X13797280Y6760257D01*
X13797280Y5803900D01*
X14417377Y5803900D01*
X14477873Y5810405D01*
X14614744Y5861455D01*
X14614745Y5861455D01*
X14731684Y5948995D01*
X14819224Y6065934D01*
X14819224Y6065935D01*
X14870274Y6202806D01*
X14876779Y6263302D01*
X14876780Y6263314D01*
X14876780Y6883400D01*
X13916248Y6883400D01*
X13966905Y6971140D01*
X13997090Y7103392D01*
X13986953Y7238665D01*
X13937393Y7364941D01*
X13916293Y7391400D01*
X14876780Y7391400D01*
X14876780Y8011485D01*
X14876779Y8011497D01*
X14870274Y8071993D01*
X14819224Y8208864D01*
X14819224Y8208865D01*
X14731684Y8325804D01*
X14614745Y8413344D01*
X14477873Y8464394D01*
X14417377Y8470899D01*
X14417365Y8470900D01*
X13797280Y8470900D01*
X13797280Y7508862D01*
X13740733Y7547416D01*
X13611107Y7587400D01*
X13509556Y7587400D01*
X13409142Y7572265D01*
X13289280Y7514542D01*
X13289280Y8470900D01*
X12669195Y8470900D01*
X12669182Y8470899D01*
X12608686Y8464394D01*
X12471815Y8413344D01*
X12471814Y8413344D01*
X12354875Y8325804D01*
X12267335Y8208865D01*
X12267335Y8208864D01*
X12216285Y8071993D01*
X12209780Y8011497D01*
X12209780Y7391400D01*
X13170312Y7391400D01*
X13119655Y7303660D01*
X13089470Y7171408D01*
X13099607Y7036135D01*
X13149167Y6909859D01*
X13170267Y6883400D01*
X12209780Y6883400D01*
X12209780Y6263302D01*
X304500Y6263302D01*
X304500Y20256500D01*
X8318500Y20256500D01*
X9271000Y20256500D01*
X9271000Y20955000D01*
X9779000Y20955000D01*
X9779000Y20256500D01*
X10731500Y20256500D01*
X10731500Y20495585D01*
X10731499Y20495597D01*
X10724994Y20556093D01*
X10673944Y20692964D01*
X10673944Y20692965D01*
X10586404Y20809904D01*
X10469465Y20897444D01*
X10332593Y20948494D01*
X10272097Y20954999D01*
X10272085Y20955000D01*
X9779000Y20955000D01*
X9271000Y20955000D01*
X8777915Y20955000D01*
X8777902Y20954999D01*
X8717406Y20948494D01*
X8580535Y20897444D01*
X8580534Y20897444D01*
X8463595Y20809904D01*
X8376055Y20692965D01*
X8376055Y20692964D01*
X8325005Y20556093D01*
X8318500Y20495597D01*
X8318500Y20256500D01*
X304500Y20256500D01*
X304500Y27114500D01*
X17843500Y27114500D01*
X18796000Y27114500D01*
X18796000Y27813000D01*
X19304000Y27813000D01*
X19304000Y27114500D01*
X20256500Y27114500D01*
X20256500Y27353585D01*
X20256499Y27353597D01*
X20249994Y27414093D01*
X20198944Y27550964D01*
X20198944Y27550965D01*
X20111404Y27667904D01*
X19994465Y27755444D01*
X19857593Y27806494D01*
X19797097Y27812999D01*
X19797085Y27813000D01*
X19304000Y27813000D01*
X18796000Y27813000D01*
X18302915Y27813000D01*
X18302902Y27812999D01*
X18242406Y27806494D01*
X18105535Y27755444D01*
X18105534Y27755444D01*
X17988595Y27667904D01*
X17901055Y27550965D01*
X17901055Y27550964D01*
X17850005Y27414093D01*
X17843500Y27353597D01*
X17843500Y27114500D01*
X304500Y27114500D01*
X304500Y30049500D01*
X324502Y30117621D01*
X378158Y30164114D01*
X430500Y30175500D01*
X50369500Y30175500D01*
X50437621Y30155498D01*
G37*
%TD.AperFunction*%
%TA.AperFunction,Conductor*%
G36*
X27996547Y4669984D02*
G01*
X28126173Y4630000D01*
X28227724Y4630000D01*
X28328138Y4645135D01*
X28448000Y4702857D01*
X28448000Y2911462D01*
X28391453Y2950016D01*
X28261827Y2990000D01*
X28160276Y2990000D01*
X28059862Y2974865D01*
X27940000Y2917142D01*
X27940000Y4708537D01*
X27996547Y4669984D01*
G37*
%TD.AperFunction*%
%TA.AperFunction,Conductor*%
G36*
X38156547Y4669984D02*
G01*
X38286173Y4630000D01*
X38387724Y4630000D01*
X38488138Y4645135D01*
X38608000Y4702857D01*
X38608000Y2911462D01*
X38551453Y2950016D01*
X38421827Y2990000D01*
X38320276Y2990000D01*
X38219862Y2974865D01*
X38100000Y2917142D01*
X38100000Y4708537D01*
X38156547Y4669984D01*
G37*
%TD.AperFunction*%
%TA.AperFunction,Conductor*%
G36*
X46820375Y10834260D02*
G01*
X46790190Y10702008D01*
X46800327Y10566735D01*
X46849887Y10440459D01*
X46870987Y10414000D01*
X45076968Y10414000D01*
X45127625Y10501740D01*
X45157810Y10633992D01*
X45147673Y10769265D01*
X45098113Y10895541D01*
X45077013Y10922000D01*
X46871032Y10922000D01*
X46820375Y10834260D01*
G37*
%TD.AperFunction*%
%TA.AperFunction,Conductor*%
G36*
X5926375Y13374260D02*
G01*
X5896190Y13242008D01*
X5906327Y13106735D01*
X5955887Y12980459D01*
X5976987Y12954000D01*
X4182968Y12954000D01*
X4233625Y13041740D01*
X4263810Y13173992D01*
X4253673Y13309265D01*
X4204113Y13435541D01*
X4183013Y13462000D01*
X5977032Y13462000D01*
X5926375Y13374260D01*
G37*
%TD.AperFunction*%
%TA.AperFunction,Conductor*%
G36*
X27506201Y15080298D02*
G01*
X27552694Y15026642D01*
X27564080Y14974300D01*
X27564080Y13893799D01*
X27600110Y13857769D01*
X27634135Y13795456D01*
X27629069Y13724641D01*
X27600109Y13679579D01*
X27483435Y13562905D01*
X27421123Y13528879D01*
X27394340Y13526000D01*
X26748362Y13526000D01*
X26748355Y13525999D01*
X26748350Y13525999D01*
X26687803Y13519490D01*
X26687801Y13519489D01*
X26687799Y13519489D01*
X26588159Y13482324D01*
X26517345Y13477259D01*
X26455032Y13511284D01*
X26421007Y13573596D01*
X26418148Y13598084D01*
X26416328Y13697963D01*
X26420746Y13733402D01*
X26439169Y13800954D01*
X26476391Y13861411D01*
X26540389Y13892147D01*
X26560729Y13893800D01*
X27056080Y13893800D01*
X27056080Y14974300D01*
X27076082Y15042421D01*
X27129738Y15088914D01*
X27182080Y15100300D01*
X27438080Y15100300D01*
X27506201Y15080298D01*
G37*
%TD.AperFunction*%
%TA.AperFunction,Conductor*%
G36*
X46820375Y15914260D02*
G01*
X46790190Y15782008D01*
X46800327Y15646735D01*
X46849887Y15520459D01*
X46870987Y15494000D01*
X45076968Y15494000D01*
X45127625Y15581740D01*
X45157810Y15713992D01*
X45147673Y15849265D01*
X45098113Y15975541D01*
X45077013Y16002000D01*
X46871032Y16002000D01*
X46820375Y15914260D01*
G37*
%TD.AperFunction*%
%TA.AperFunction,Conductor*%
G36*
X5926375Y18454260D02*
G01*
X5896190Y18322008D01*
X5906327Y18186735D01*
X5955887Y18060459D01*
X5976987Y18034000D01*
X4182968Y18034000D01*
X4233625Y18121740D01*
X4263810Y18253992D01*
X4253673Y18389265D01*
X4204113Y18515541D01*
X4183013Y18542000D01*
X5977032Y18542000D01*
X5926375Y18454260D01*
G37*
%TD.AperFunction*%
%TD*%
M02*
